<svg xmlns="http://www.w3.org/2000/svg" xmlns:xlink="http://www.w3.org/1999/xlink" width="295" height="107" viewBox="0 0 295 107">
  <defs>
    <clipPath id="clip-path">
      <path id="path2409" d="M0-682.665H60v60H0Z" transform="translate(0 682.665)"/>
    </clipPath>
  </defs>
  <g id="Grupo_965524" data-name="Grupo 965524" transform="translate(-495 -19226)">
    <path id="Trazado_730157" data-name="Trazado 730157" d="M0,0H250V107H0Z" transform="translate(540 19226)" fill="#ecf7f4"/>
    <path id="Trazado_730158" data-name="Trazado 730158" d="M45,0A45,45,0,1,1,0,45,45,45,0,0,1,45,0Z" transform="translate(495 19235)" fill="#34bc85"/>
    <path id="Trazado_730159" data-name="Trazado 730159" d="M17.785,17h-1.5V5.625h1.5ZM21.66,8.547l.039.938a3.122,3.122,0,0,1,2.508-1.094A2.417,2.417,0,0,1,26.621,9.75a3.2,3.2,0,0,1,1.1-.984,3.242,3.242,0,0,1,1.6-.375q2.781,0,2.828,2.945V17H30.7V11.422a1.941,1.941,0,0,0-.414-1.355,1.823,1.823,0,0,0-1.391-.449,1.916,1.916,0,0,0-1.336.48,1.949,1.949,0,0,0-.617,1.293V17H25.488V11.461a1.613,1.613,0,0,0-1.8-1.844,1.934,1.934,0,0,0-1.945,1.211V17H20.293V8.547Zm19.8,4.32a5.062,5.062,0,0,1-.883,3.109,2.829,2.829,0,0,1-2.391,1.18,3.1,3.1,0,0,1-2.422-.977v4.07H34.324V8.547h1.32l.07.938a2.977,2.977,0,0,1,2.453-1.094,2.882,2.882,0,0,1,2.41,1.148,5.117,5.117,0,0,1,.887,3.2ZM40.02,12.7a3.735,3.735,0,0,0-.609-2.258,1.963,1.963,0,0,0-1.672-.828,2.125,2.125,0,0,0-1.969,1.164V14.82a2.129,2.129,0,0,0,1.984,1.156,1.954,1.954,0,0,0,1.652-.824A4.077,4.077,0,0,0,40.02,12.7Zm8.5,4.3a3.036,3.036,0,0,1-.2-.891,3.225,3.225,0,0,1-2.406,1.047,2.984,2.984,0,0,1-2.051-.707,2.287,2.287,0,0,1-.8-1.793,2.39,2.39,0,0,1,1-2.051,4.733,4.733,0,0,1,2.824-.73h1.406v-.664A1.623,1.623,0,0,0,47.84,10,1.821,1.821,0,0,0,46.5,9.555a2.107,2.107,0,0,0-1.3.391,1.151,1.151,0,0,0-.523.945H43.23a2,2,0,0,1,.449-1.223A3.066,3.066,0,0,1,44.9,8.734a4.1,4.1,0,0,1,1.691-.344,3.342,3.342,0,0,1,2.289.73,2.635,2.635,0,0,1,.859,2.012v3.891a4.757,4.757,0,0,0,.3,1.852V17Zm-2.4-1.1a2.54,2.54,0,0,0,1.289-.352,2.127,2.127,0,0,0,.883-.914V12.9H47.16q-2.656,0-2.656,1.555a1.316,1.316,0,0,0,.453,1.063A1.742,1.742,0,0,0,46.121,15.9Zm9.273.078a2.082,2.082,0,0,0,1.352-.469,1.649,1.649,0,0,0,.641-1.172h1.367a2.621,2.621,0,0,1-.5,1.383,3.293,3.293,0,0,1-1.23,1.047,3.55,3.55,0,0,1-1.629.391A3.482,3.482,0,0,1,52.648,16a4.59,4.59,0,0,1-1.02-3.152v-.242a5.089,5.089,0,0,1,.453-2.2,3.451,3.451,0,0,1,1.3-1.492,3.7,3.7,0,0,1,2-.531,3.39,3.39,0,0,1,2.363.852,3.043,3.043,0,0,1,1,2.211H57.387a1.992,1.992,0,0,0-.621-1.348,1.932,1.932,0,0,0-1.379-.527,2.023,2.023,0,0,0-1.707.793,3.724,3.724,0,0,0-.605,2.293v.273a3.65,3.65,0,0,0,.6,2.25A2.033,2.033,0,0,0,55.395,15.977ZM62.34,6.5V8.547h1.578V9.664H62.34v5.249a1.173,1.173,0,0,0,.211.763.888.888,0,0,0,.719.254,3.5,3.5,0,0,0,.688-.094V17a4.215,4.215,0,0,1-1.109.155,1.8,1.8,0,0,1-1.461-.586,2.517,2.517,0,0,1-.492-1.664V9.664H59.355V8.547h1.539V6.5Zm2.727,6.2a4.993,4.993,0,0,1,.488-2.234A3.643,3.643,0,0,1,66.914,8.93,3.7,3.7,0,0,1,68.9,8.391a3.565,3.565,0,0,1,2.793,1.2,4.6,4.6,0,0,1,1.066,3.18v.1a5.036,5.036,0,0,1-.473,2.215,3.589,3.589,0,0,1-1.352,1.527,3.743,3.743,0,0,1-2.02.547,3.556,3.556,0,0,1-2.785-1.2A4.575,4.575,0,0,1,65.066,12.8Zm1.453.172a3.616,3.616,0,0,0,.652,2.258,2.211,2.211,0,0,0,3.5-.012,3.955,3.955,0,0,0,.648-2.418,3.61,3.61,0,0,0-.66-2.254A2.1,2.1,0,0,0,68.9,9.578a2.075,2.075,0,0,0-1.727.852A3.925,3.925,0,0,0,66.52,12.867ZM83.754,17a3.036,3.036,0,0,1-.2-.891,3.225,3.225,0,0,1-2.406,1.047,2.984,2.984,0,0,1-2.051-.707,2.288,2.288,0,0,1-.8-1.793,2.39,2.39,0,0,1,1-2.051,4.733,4.733,0,0,1,2.824-.73h1.406v-.664A1.623,1.623,0,0,0,83.074,10a1.821,1.821,0,0,0-1.336-.449,2.108,2.108,0,0,0-1.3.391,1.151,1.151,0,0,0-.523.945H78.465a2,2,0,0,1,.449-1.223,3.066,3.066,0,0,1,1.219-.934,4.1,4.1,0,0,1,1.691-.344,3.342,3.342,0,0,1,2.289.73,2.635,2.635,0,0,1,.859,2.012v3.891a4.757,4.757,0,0,0,.3,1.852V17Zm-2.4-1.1a2.54,2.54,0,0,0,1.289-.352,2.127,2.127,0,0,0,.883-.914V12.9H82.395q-2.656,0-2.656,1.555a1.316,1.316,0,0,0,.453,1.063A1.742,1.742,0,0,0,81.355,15.9ZM88.6,8.547l.039.938a3.122,3.122,0,0,1,2.508-1.094A2.417,2.417,0,0,1,93.559,9.75a3.2,3.2,0,0,1,1.1-.984,3.242,3.242,0,0,1,1.6-.375q2.781,0,2.828,2.945V17H97.637V11.422a1.941,1.941,0,0,0-.414-1.355,1.823,1.823,0,0,0-1.391-.449,1.916,1.916,0,0,0-1.336.48,1.949,1.949,0,0,0-.617,1.293V17H92.426V11.461a1.613,1.613,0,0,0-1.8-1.844,1.934,1.934,0,0,0-1.945,1.211V17H87.23V8.547Zm19.82,4.32a5.026,5.026,0,0,1-.891,3.113,2.846,2.846,0,0,1-2.391,1.176,2.947,2.947,0,0,1-2.477-1.133l-.07.977h-1.328V5h1.445V9.477a2.93,2.93,0,0,1,2.414-1.086,2.863,2.863,0,0,1,2.418,1.164,5.177,5.177,0,0,1,.879,3.188Zm-1.445-.164a3.906,3.906,0,0,0-.57-2.281,1.888,1.888,0,0,0-1.641-.8,2.122,2.122,0,0,0-2.055,1.328V14.6a2.181,2.181,0,0,0,2.07,1.328,1.878,1.878,0,0,0,1.617-.8A4.153,4.153,0,0,0,106.973,12.7Zm4.836,4.3h-1.445V8.547h1.445ZM110.246,6.3a.863.863,0,0,1,.215-.594.807.807,0,0,1,.637-.242.819.819,0,0,1,.641.242.854.854,0,0,1,.219.594.826.826,0,0,1-.219.586.834.834,0,0,1-.641.234.821.821,0,0,1-.637-.234A.834.834,0,0,1,110.246,6.3Zm7.383,10.852a3.693,3.693,0,0,1-2.8-1.129,4.19,4.19,0,0,1-1.078-3.02v-.266a5.073,5.073,0,0,1,.48-2.246,3.748,3.748,0,0,1,1.344-1.547,3.378,3.378,0,0,1,1.871-.559,3.166,3.166,0,0,1,2.563,1.086,4.7,4.7,0,0,1,.914,3.109v.6H115.2a3,3,0,0,0,.73,2.02,2.3,2.3,0,0,0,1.777.77,2.517,2.517,0,0,0,1.3-.312,3.259,3.259,0,0,0,.93-.828l.883.688A3.55,3.55,0,0,1,117.629,17.156Zm-.18-7.578a1.928,1.928,0,0,0-1.469.637A3.1,3.1,0,0,0,115.246,12h4.234v-.109a2.753,2.753,0,0,0-.594-1.707A1.815,1.815,0,0,0,117.449,9.578Zm6.516-1.031.047,1.063a3.08,3.08,0,0,1,2.531-1.219q2.68,0,2.7,3.023V17H127.8V11.406a1.946,1.946,0,0,0-.418-1.352,1.675,1.675,0,0,0-1.277-.437,2.086,2.086,0,0,0-1.234.375,2.546,2.546,0,0,0-.828.984V17H122.6V8.547ZM133.387,6.5V8.547h1.578V9.664h-1.578v5.249a1.173,1.173,0,0,0,.211.763.888.888,0,0,0,.719.254,3.5,3.5,0,0,0,.688-.094V17a4.215,4.215,0,0,1-1.109.155,1.8,1.8,0,0,1-1.461-.586,2.517,2.517,0,0,1-.492-1.664V9.664H130.4V8.547h1.539V6.5ZM141.871,17a3.036,3.036,0,0,1-.2-.891,3.225,3.225,0,0,1-2.406,1.047,2.984,2.984,0,0,1-2.051-.707,2.287,2.287,0,0,1-.8-1.793,2.39,2.39,0,0,1,1-2.051,4.733,4.733,0,0,1,2.824-.73h1.406v-.664A1.623,1.623,0,0,0,141.191,10a1.821,1.821,0,0,0-1.336-.449,2.107,2.107,0,0,0-1.3.391,1.151,1.151,0,0,0-.523.945h-1.453a2,2,0,0,1,.449-1.223,3.066,3.066,0,0,1,1.219-.934,4.1,4.1,0,0,1,1.691-.344,3.342,3.342,0,0,1,2.289.73,2.635,2.635,0,0,1,.859,2.012v3.891a4.757,4.757,0,0,0,.3,1.852V17Zm-2.4-1.1a2.54,2.54,0,0,0,1.289-.352,2.127,2.127,0,0,0,.883-.914V12.9h-1.133q-2.656,0-2.656,1.555a1.316,1.316,0,0,0,.453,1.063A1.742,1.742,0,0,0,139.473,15.9Zm7.453,1.1H145.48V5h1.445ZM34.992,36.7a4.993,4.993,0,0,1,.488-2.234A3.643,3.643,0,0,1,36.84,32.93a3.7,3.7,0,0,1,1.988-.539,3.565,3.565,0,0,1,2.793,1.2,4.6,4.6,0,0,1,1.066,3.18v.1a5.036,5.036,0,0,1-.473,2.215,3.589,3.589,0,0,1-1.352,1.527,3.743,3.743,0,0,1-2.02.547,3.556,3.556,0,0,1-2.785-1.2A4.575,4.575,0,0,1,34.992,36.8Zm1.453.172a3.616,3.616,0,0,0,.652,2.258,2.211,2.211,0,0,0,3.5-.012,3.955,3.955,0,0,0,.648-2.418,3.61,3.61,0,0,0-.66-2.254,2.1,2.1,0,0,0-1.754-.863,2.075,2.075,0,0,0-1.727.852A3.925,3.925,0,0,0,36.445,36.867Zm12.141-3.023a4.331,4.331,0,0,0-.711-.055A1.9,1.9,0,0,0,45.945,35v6H44.5V32.547h1.406l.023.977a2.251,2.251,0,0,1,2.016-1.133,1.477,1.477,0,0,1,.641.109ZM51.484,41H50.039V32.547h1.445ZM49.922,30.3a.863.863,0,0,1,.215-.594.807.807,0,0,1,.637-.242.819.819,0,0,1,.641.242.854.854,0,0,1,.219.594.826.826,0,0,1-.219.586.834.834,0,0,1-.641.234.821.821,0,0,1-.637-.234A.834.834,0,0,1,49.922,30.3Zm3.531,6.4a4.968,4.968,0,0,1,.914-3.145,3.151,3.151,0,0,1,4.836-.074l.07-.937h1.32V40.8a3.439,3.439,0,0,1-.973,2.586,3.589,3.589,0,0,1-2.613.945,4.348,4.348,0,0,1-1.789-.391,3.08,3.08,0,0,1-1.336-1.07l.75-.867a2.826,2.826,0,0,0,2.273,1.148,2.214,2.214,0,0,0,1.645-.594,2.269,2.269,0,0,0,.59-1.672v-.727a2.971,2.971,0,0,1-2.367,1,2.887,2.887,0,0,1-2.4-1.2A5.224,5.224,0,0,1,53.453,36.7Zm1.453.164a3.79,3.79,0,0,0,.586,2.246,1.9,1.9,0,0,0,1.641.816,2.117,2.117,0,0,0,2.008-1.242V34.828a2.142,2.142,0,0,0-1.992-1.211,1.921,1.921,0,0,0-1.648.82A4.128,4.128,0,0,0,54.906,36.867ZM64.344,41H62.9V32.547h1.445ZM62.781,30.3A.863.863,0,0,1,63,29.711a.807.807,0,0,1,.637-.242.819.819,0,0,1,.641.242.854.854,0,0,1,.219.594.826.826,0,0,1-.219.586.834.834,0,0,1-.641.234A.821.821,0,0,1,63,30.891.834.834,0,0,1,62.781,30.3Zm5.242,2.242.047,1.063A3.08,3.08,0,0,1,70.6,32.391q2.68,0,2.7,3.023V41H71.859V35.406a1.946,1.946,0,0,0-.418-1.352,1.675,1.675,0,0,0-1.277-.437,2.086,2.086,0,0,0-1.234.375,2.546,2.546,0,0,0-.828.984V41H66.656V32.547ZM80.7,41a3.036,3.036,0,0,1-.2-.891,3.225,3.225,0,0,1-2.406,1.047,2.984,2.984,0,0,1-2.051-.707,2.288,2.288,0,0,1-.8-1.793,2.39,2.39,0,0,1,1-2.051,4.733,4.733,0,0,1,2.824-.73h1.406v-.664A1.623,1.623,0,0,0,80.023,34a1.821,1.821,0,0,0-1.336-.449,2.107,2.107,0,0,0-1.3.391,1.151,1.151,0,0,0-.523.945H75.414a2,2,0,0,1,.449-1.223,3.066,3.066,0,0,1,1.219-.934,4.1,4.1,0,0,1,1.691-.344,3.342,3.342,0,0,1,2.289.73,2.635,2.635,0,0,1,.859,2.012v3.891a4.757,4.757,0,0,0,.3,1.852V41Zm-2.4-1.1a2.54,2.54,0,0,0,1.289-.352,2.127,2.127,0,0,0,.883-.914V36.9H79.344q-2.656,0-2.656,1.555a1.316,1.316,0,0,0,.453,1.063A1.742,1.742,0,0,0,78.3,39.9Zm5.531-3.2a4.952,4.952,0,0,1,.922-3.129,3.137,3.137,0,0,1,4.766-.168V29h1.445V41H89.641l-.07-.906a2.943,2.943,0,0,1-2.414,1.063,2.887,2.887,0,0,1-2.395-1.2,5.008,5.008,0,0,1-.926-3.141Zm1.445.164a3.749,3.749,0,0,0,.594,2.25,1.92,1.92,0,0,0,1.641.813A2.108,2.108,0,0,0,89.523,38.7V34.813a2.125,2.125,0,0,0-1.992-1.2,1.929,1.929,0,0,0-1.656.82A4.128,4.128,0,0,0,85.281,36.867Zm7.547-.172a4.993,4.993,0,0,1,.488-2.234,3.643,3.643,0,0,1,1.359-1.531,3.7,3.7,0,0,1,1.988-.539,3.565,3.565,0,0,1,2.793,1.2,4.6,4.6,0,0,1,1.066,3.18v.1a5.036,5.036,0,0,1-.473,2.215A3.589,3.589,0,0,1,98.7,40.609a3.743,3.743,0,0,1-2.02.547,3.556,3.556,0,0,1-2.785-1.2A4.575,4.575,0,0,1,92.828,36.8Zm1.453.172a3.616,3.616,0,0,0,.652,2.258,2.211,2.211,0,0,0,3.5-.012,3.955,3.955,0,0,0,.648-2.418,3.61,3.61,0,0,0-.66-2.254,2.1,2.1,0,0,0-1.754-.863,2.075,2.075,0,0,0-1.727.852A3.925,3.925,0,0,0,94.281,36.867Zm19.156,0a5.062,5.062,0,0,1-.883,3.109,2.829,2.829,0,0,1-2.391,1.18,3.1,3.1,0,0,1-2.422-.977v4.07H106.3v-11.7h1.32l.07.938a2.977,2.977,0,0,1,2.453-1.094,2.882,2.882,0,0,1,2.41,1.148,5.117,5.117,0,0,1,.887,3.2Zm-1.445-.164a3.735,3.735,0,0,0-.609-2.258,1.963,1.963,0,0,0-1.672-.828,2.125,2.125,0,0,0-1.969,1.164V38.82a2.129,2.129,0,0,0,1.984,1.156,1.954,1.954,0,0,0,1.652-.824A4.077,4.077,0,0,0,111.992,36.7Zm2.9-.008a4.993,4.993,0,0,1,.488-2.234,3.643,3.643,0,0,1,1.359-1.531,3.7,3.7,0,0,1,1.988-.539,3.565,3.565,0,0,1,2.793,1.2,4.6,4.6,0,0,1,1.066,3.18v.1a5.036,5.036,0,0,1-.473,2.215,3.589,3.589,0,0,1-1.352,1.527,3.743,3.743,0,0,1-2.02.547,3.556,3.556,0,0,1-2.785-1.2,4.575,4.575,0,0,1-1.066-3.164Zm1.453.172A3.616,3.616,0,0,0,117,39.125a2.211,2.211,0,0,0,3.5-.012,3.955,3.955,0,0,0,.648-2.418,3.61,3.61,0,0,0-.66-2.254,2.1,2.1,0,0,0-1.754-.863A2.075,2.075,0,0,0,117,34.43,3.925,3.925,0,0,0,116.344,36.867Zm12.141-3.023a4.331,4.331,0,0,0-.711-.055A1.9,1.9,0,0,0,125.844,35v6H124.4V32.547H125.8l.023.977a2.251,2.251,0,0,1,2.016-1.133,1.477,1.477,0,0,1,.641.109ZM23.223,60.867a5.062,5.062,0,0,1-.883,3.109,2.829,2.829,0,0,1-2.391,1.18,3.1,3.1,0,0,1-2.422-.977v4.07H16.082v-11.7H17.4l.07.938a2.977,2.977,0,0,1,2.453-1.094,2.882,2.882,0,0,1,2.41,1.148,5.117,5.117,0,0,1,.887,3.2ZM21.777,60.7a3.735,3.735,0,0,0-.609-2.258,1.963,1.963,0,0,0-1.672-.828,2.125,2.125,0,0,0-1.969,1.164V62.82a2.129,2.129,0,0,0,1.984,1.156,1.954,1.954,0,0,0,1.652-.824A4.077,4.077,0,0,0,21.777,60.7Zm7.367-2.859a4.331,4.331,0,0,0-.711-.055A1.9,1.9,0,0,0,26.5,59v6H25.059V56.547h1.406l.023.977A2.251,2.251,0,0,1,28.5,56.391a1.477,1.477,0,0,1,.641.109ZM35.691,65a3.036,3.036,0,0,1-.2-.891,3.225,3.225,0,0,1-2.406,1.047,2.984,2.984,0,0,1-2.051-.707,2.287,2.287,0,0,1-.8-1.793,2.39,2.39,0,0,1,1-2.051,4.733,4.733,0,0,1,2.824-.73h1.406v-.664A1.623,1.623,0,0,0,35.012,58a1.821,1.821,0,0,0-1.336-.449,2.107,2.107,0,0,0-1.3.391,1.151,1.151,0,0,0-.523.945H30.4a2,2,0,0,1,.449-1.223,3.066,3.066,0,0,1,1.219-.934,4.1,4.1,0,0,1,1.691-.344,3.342,3.342,0,0,1,2.289.73,2.635,2.635,0,0,1,.859,2.012v3.891a4.757,4.757,0,0,0,.3,1.852V65Zm-2.4-1.1a2.54,2.54,0,0,0,1.289-.352,2.127,2.127,0,0,0,.883-.914V60.9H34.332q-2.656,0-2.656,1.555a1.316,1.316,0,0,0,.453,1.063A1.742,1.742,0,0,0,33.293,63.9ZM34.629,53h1.75l-2.094,2.3-1.164,0Zm7.938,10.977a2.082,2.082,0,0,0,1.352-.469,1.649,1.649,0,0,0,.641-1.172h1.367a2.621,2.621,0,0,1-.5,1.383,3.293,3.293,0,0,1-1.23,1.047,3.55,3.55,0,0,1-1.629.391A3.482,3.482,0,0,1,39.82,64a4.59,4.59,0,0,1-1.02-3.152v-.242a5.089,5.089,0,0,1,.453-2.2,3.451,3.451,0,0,1,1.3-1.492,3.7,3.7,0,0,1,2-.531,3.39,3.39,0,0,1,2.363.852,3.043,3.043,0,0,1,1,2.211H44.559a1.992,1.992,0,0,0-.621-1.348,1.932,1.932,0,0,0-1.379-.527,2.023,2.023,0,0,0-1.707.793,3.724,3.724,0,0,0-.605,2.293v.273a3.65,3.65,0,0,0,.6,2.25A2.033,2.033,0,0,0,42.566,63.977ZM49.512,54.5v2.047H51.09v1.117H49.512v5.249a1.173,1.173,0,0,0,.211.763.888.888,0,0,0,.719.254,3.5,3.5,0,0,0,.688-.094V65a4.215,4.215,0,0,1-1.109.155,1.8,1.8,0,0,1-1.461-.586,2.517,2.517,0,0,1-.492-1.664V57.664H46.527V56.547h1.539V54.5ZM54.348,65H52.9V56.547h1.445ZM52.785,54.3A.863.863,0,0,1,53,53.711a.807.807,0,0,1,.637-.242.819.819,0,0,1,.641.242.854.854,0,0,1,.219.594.826.826,0,0,1-.219.586.834.834,0,0,1-.641.234A.821.821,0,0,1,53,54.891.834.834,0,0,1,52.785,54.3Zm7.266,9.672a2.082,2.082,0,0,0,1.352-.469,1.649,1.649,0,0,0,.641-1.172H63.41a2.621,2.621,0,0,1-.5,1.383,3.293,3.293,0,0,1-1.23,1.047,3.55,3.55,0,0,1-1.629.391A3.482,3.482,0,0,1,57.3,64a4.59,4.59,0,0,1-1.02-3.152v-.242a5.089,5.089,0,0,1,.453-2.2,3.451,3.451,0,0,1,1.3-1.492,3.7,3.7,0,0,1,2-.531,3.39,3.39,0,0,1,2.363.852,3.043,3.043,0,0,1,1,2.211H62.043a1.992,1.992,0,0,0-.621-1.348,1.932,1.932,0,0,0-1.379-.527,2.023,2.023,0,0,0-1.707.793,3.724,3.724,0,0,0-.605,2.293v.273a3.65,3.65,0,0,0,.6,2.25A2.033,2.033,0,0,0,60.051,63.977ZM70.254,65a3.036,3.036,0,0,1-.2-.891,3.225,3.225,0,0,1-2.406,1.047,2.984,2.984,0,0,1-2.051-.707,2.288,2.288,0,0,1-.8-1.793,2.39,2.39,0,0,1,1-2.051,4.733,4.733,0,0,1,2.824-.73h1.406v-.664A1.623,1.623,0,0,0,69.574,58a1.821,1.821,0,0,0-1.336-.449,2.107,2.107,0,0,0-1.3.391,1.151,1.151,0,0,0-.523.945H64.965a2,2,0,0,1,.449-1.223,3.066,3.066,0,0,1,1.219-.934,4.1,4.1,0,0,1,1.691-.344,3.342,3.342,0,0,1,2.289.73,2.635,2.635,0,0,1,.859,2.012v3.891a4.757,4.757,0,0,0,.3,1.852V65Zm-2.4-1.1a2.54,2.54,0,0,0,1.289-.352,2.127,2.127,0,0,0,.883-.914V60.9H68.895q-2.656,0-2.656,1.555a1.316,1.316,0,0,0,.453,1.063A1.742,1.742,0,0,0,67.855,63.9Zm10.8-1.141a1.064,1.064,0,0,0-.441-.91,4.249,4.249,0,0,0-1.539-.559,7.277,7.277,0,0,1-1.742-.562,2.479,2.479,0,0,1-.953-.781,1.869,1.869,0,0,1-.309-1.078,2.193,2.193,0,0,1,.879-1.758,3.432,3.432,0,0,1,2.246-.719,3.532,3.532,0,0,1,2.332.742,2.357,2.357,0,0,1,.895,1.9H78.574a1.3,1.3,0,0,0-.5-1.023,1.888,1.888,0,0,0-1.27-.43,1.976,1.976,0,0,0-1.234.344,1.082,1.082,0,0,0-.445.9.877.877,0,0,0,.414.789,5.1,5.1,0,0,0,1.5.508,7.8,7.8,0,0,1,1.754.578,2.558,2.558,0,0,1,1,.809,1.988,1.988,0,0,1,.324,1.152,2.163,2.163,0,0,1-.906,1.816,3.8,3.8,0,0,1-2.352.684,4.257,4.257,0,0,1-1.8-.359,2.922,2.922,0,0,1-1.223-1,2.42,2.42,0,0,1-.441-1.395h1.445a1.5,1.5,0,0,0,.582,1.152,2.258,2.258,0,0,0,1.434.426,2.331,2.331,0,0,0,1.316-.332A1.02,1.02,0,0,0,78.66,62.758Zm12.211,0a1.064,1.064,0,0,0-.441-.91,4.249,4.249,0,0,0-1.539-.559,7.277,7.277,0,0,1-1.742-.562,2.479,2.479,0,0,1-.953-.781,1.869,1.869,0,0,1-.309-1.078,2.193,2.193,0,0,1,.879-1.758,3.432,3.432,0,0,1,2.246-.719,3.532,3.532,0,0,1,2.332.742,2.357,2.357,0,0,1,.895,1.9H90.785a1.3,1.3,0,0,0-.5-1.023,1.888,1.888,0,0,0-1.27-.43,1.976,1.976,0,0,0-1.234.344,1.082,1.082,0,0,0-.445.9.877.877,0,0,0,.414.789,5.1,5.1,0,0,0,1.5.508A7.8,7.8,0,0,1,91,60.7a2.558,2.558,0,0,1,1,.809,1.988,1.988,0,0,1,.324,1.152,2.163,2.163,0,0,1-.906,1.816,3.8,3.8,0,0,1-2.352.684,4.257,4.257,0,0,1-1.8-.359,2.922,2.922,0,0,1-1.223-1A2.42,2.42,0,0,1,85.6,62.4h1.445a1.5,1.5,0,0,0,.582,1.152,2.258,2.258,0,0,0,1.434.426,2.331,2.331,0,0,0,1.316-.332A1.02,1.02,0,0,0,90.871,62.758ZM93.816,60.7a4.993,4.993,0,0,1,.488-2.234,3.643,3.643,0,0,1,1.359-1.531,3.7,3.7,0,0,1,1.988-.539,3.565,3.565,0,0,1,2.793,1.2,4.6,4.6,0,0,1,1.066,3.18v.1a5.036,5.036,0,0,1-.473,2.215,3.589,3.589,0,0,1-1.352,1.527,3.743,3.743,0,0,1-2.02.547,3.556,3.556,0,0,1-2.785-1.2A4.575,4.575,0,0,1,93.816,60.8Zm1.453.172a3.616,3.616,0,0,0,.652,2.258,2.211,2.211,0,0,0,3.5-.012,3.955,3.955,0,0,0,.648-2.418,3.61,3.61,0,0,0-.66-2.254,2.1,2.1,0,0,0-1.754-.863,2.075,2.075,0,0,0-1.727.852A3.925,3.925,0,0,0,95.27,60.867Zm11.445,3.109a2.082,2.082,0,0,0,1.352-.469,1.649,1.649,0,0,0,.641-1.172h1.367a2.621,2.621,0,0,1-.5,1.383,3.293,3.293,0,0,1-1.23,1.047,3.55,3.55,0,0,1-1.629.391A3.482,3.482,0,0,1,103.969,64a4.59,4.59,0,0,1-1.02-3.152v-.242a5.089,5.089,0,0,1,.453-2.2,3.451,3.451,0,0,1,1.3-1.492,3.7,3.7,0,0,1,2-.531,3.39,3.39,0,0,1,2.363.852,3.043,3.043,0,0,1,1,2.211h-1.367a1.992,1.992,0,0,0-.621-1.348,1.932,1.932,0,0,0-1.379-.527,2.023,2.023,0,0,0-1.707.793,3.724,3.724,0,0,0-.605,2.293v.273a3.65,3.65,0,0,0,.6,2.25A2.033,2.033,0,0,0,106.715,63.977ZM113.27,65h-1.445V56.547h1.445Zm-1.562-10.7a.863.863,0,0,1,.215-.594.807.807,0,0,1,.637-.242.819.819,0,0,1,.641.242.854.854,0,0,1,.219.594.826.826,0,0,1-.219.586.834.834,0,0,1-.641.234.821.821,0,0,1-.637-.234A.834.834,0,0,1,111.707,54.3ZM120.8,65a3.036,3.036,0,0,1-.2-.891,3.225,3.225,0,0,1-2.406,1.047,2.984,2.984,0,0,1-2.051-.707,2.288,2.288,0,0,1-.8-1.793,2.39,2.39,0,0,1,1-2.051,4.733,4.733,0,0,1,2.824-.73h1.406v-.664A1.623,1.623,0,0,0,120.121,58a1.821,1.821,0,0,0-1.336-.449,2.107,2.107,0,0,0-1.3.391,1.151,1.151,0,0,0-.523.945h-1.453a2,2,0,0,1,.449-1.223,3.066,3.066,0,0,1,1.219-.934,4.1,4.1,0,0,1,1.691-.344,3.342,3.342,0,0,1,2.289.73,2.635,2.635,0,0,1,.859,2.012v3.891a4.757,4.757,0,0,0,.3,1.852V65Zm-2.4-1.1a2.54,2.54,0,0,0,1.289-.352,2.127,2.127,0,0,0,.883-.914V60.9h-1.133q-2.656,0-2.656,1.555a1.316,1.316,0,0,0,.453,1.063A1.742,1.742,0,0,0,118.4,63.9Zm7.453,1.1H124.41V53h1.445Zm5.82.156a3.693,3.693,0,0,1-2.8-1.129,4.19,4.19,0,0,1-1.078-3.02v-.266a5.073,5.073,0,0,1,.48-2.246,3.748,3.748,0,0,1,1.344-1.547,3.378,3.378,0,0,1,1.871-.559,3.166,3.166,0,0,1,2.563,1.086,4.7,4.7,0,0,1,.914,3.109v.6h-5.727a3,3,0,0,0,.73,2.02,2.3,2.3,0,0,0,1.777.77,2.517,2.517,0,0,0,1.3-.312,3.258,3.258,0,0,0,.93-.828l.883.688A3.55,3.55,0,0,1,131.676,65.156Zm-.18-7.578a1.928,1.928,0,0,0-1.469.637A3.1,3.1,0,0,0,129.293,60h4.234v-.109a2.753,2.753,0,0,0-.594-1.707A1.815,1.815,0,0,0,131.5,57.578Zm10.07,5.18a1.064,1.064,0,0,0-.441-.91,4.249,4.249,0,0,0-1.539-.559,7.277,7.277,0,0,1-1.742-.562,2.479,2.479,0,0,1-.953-.781,1.869,1.869,0,0,1-.309-1.078,2.193,2.193,0,0,1,.879-1.758,3.432,3.432,0,0,1,2.246-.719,3.532,3.532,0,0,1,2.332.742,2.357,2.357,0,0,1,.895,1.9H141.48a1.3,1.3,0,0,0-.5-1.023,1.888,1.888,0,0,0-1.27-.43,1.976,1.976,0,0,0-1.234.344,1.082,1.082,0,0,0-.445.9.877.877,0,0,0,.414.789,5.1,5.1,0,0,0,1.5.508,7.8,7.8,0,0,1,1.754.578,2.558,2.558,0,0,1,1,.809,1.988,1.988,0,0,1,.324,1.152,2.163,2.163,0,0,1-.906,1.816,3.8,3.8,0,0,1-2.352.684,4.257,4.257,0,0,1-1.8-.359,2.922,2.922,0,0,1-1.223-1,2.42,2.42,0,0,1-.441-1.395h1.445a1.5,1.5,0,0,0,.582,1.152,2.258,2.258,0,0,0,1.434.426,2.331,2.331,0,0,0,1.316-.332A1.02,1.02,0,0,0,141.566,62.758Zm3.359,1.484a.905.905,0,0,1,.223-.625.848.848,0,0,1,.668-.25.874.874,0,0,1,.676.25.887.887,0,0,1,.23.625.839.839,0,0,1-.23.6.89.89,0,0,1-.676.242.8.8,0,0,1-.891-.844Z" transform="translate(600 19246)" fill="#12263f"/>
    <g id="g2403" transform="translate(510 19928.332)">
      <g id="g2405" transform="translate(0 -682.665)">
        <g id="g2407" clip-path="url(#clip-path)">
          <g id="g2413" transform="translate(35.192 30.706)">
            <path id="path2415" d="M-61.431-135.726l2.618-6.86,1.013-3.744a1.831,1.831,0,0,0-1.81-2.475H-64.67c-.482.422-2.156.814-2.681,1.173v6.687l.6,2.312.575,4.533Z" transform="translate(67.35 148.805)" fill="#eff6ff" fill-rule="evenodd"/>
          </g>
          <g id="g2417" transform="translate(15.17 30.706)">
            <path id="path2419" d="M-100.014-81.564v-6.687c-.023-.017-.047-.033-.073-.05a16.524,16.524,0,0,1-1.435-1.123h-6.228a1.831,1.831,0,0,0-1.814,2.475l1.016,3.744,2.242,7.3,5.123,1.538.575-4.883.153-.6Z" transform="translate(109.651 89.424)" fill="#eff6ff" fill-rule="evenodd"/>
          </g>
          <g id="g2421" transform="translate(5.44 36.924)">
            <path id="path2423" d="M-223.744-152.959l-4.641-8.149-2.521-2.727-3.564-3.863c-4.993,1.711-9.663,4.438-10.038,9.74l-.784,11.075c-.076,1.1.209,1.382,1.359,1.382h7.481l8.069,0Z" transform="translate(245.304 167.698)" fill="#b1e4f9" fill-rule="evenodd"/>
          </g>
          <g id="g2425" transform="translate(34.564 36.924)">
            <path id="path2427" d="M-207.388-216.012l-.784-11.075c-.375-5.3-5.046-8.029-10.035-9.74l-3.568,3.863-2.521,2.727-3.076,9.045,3.076,5.584v.973l8.068,0h7.484c1.146,0,1.435-.279,1.355-1.382" transform="translate(227.371 236.827)" fill="#b1e4f9" fill-rule="evenodd"/>
          </g>
          <g id="g2429" transform="translate(22.359 29.327)">
            <path id="path2431" d="M-158.264-308.952l-2.99-6.066,2.99-6.086v-3.452l-.648-2.617-.6-2.312v-9.238a14.257,14.257,0,0,1-3.076,1.614,9.372,9.372,0,0,1-3.289.661,9.373,9.373,0,0,1-3.288-.661,14.154,14.154,0,0,1-3.073-1.614v9.238l-.6,2.312-.681,2.637v3.358l3.923,5.946-3.923,6.3Z" transform="translate(173.514 338.723)" fill="#f5a96c" fill-rule="evenodd"/>
          </g>
          <g id="g2433" transform="translate(12.936 16.84)">
            <path id="path2435" d="M-61.556-34.371l-2-3.312h-1.927a2.033,2.033,0,0,0-2.006,2.03v1.266c0,2.146,2.139,3.305,4.335,3.329-.262-.887,1.6-3.312,1.6-3.312" transform="translate(67.488 37.683)" fill="#ea9a58" fill-rule="evenodd"/>
          </g>
          <g id="g2437" transform="translate(40.607 16.84)">
            <path id="path2439" d="M-22.016-68.74c2.2-.023,4.335-1.183,4.335-3.328v-1.266a2.03,2.03,0,0,0-2-2.03h-1.927L-24.137-71.7c0,.84,2.384,2.069,2.121,2.956" transform="translate(24.137 75.364)" fill="#ea9a58" fill-rule="evenodd"/>
          </g>
          <g id="g2441" transform="translate(16.869 10.329)">
            <path id="path2443" d="M-268.37-136.315a9.249,9.249,0,0,0,.405-2.608v-4.016c-4.448-3.364-6.77-5.864-12.235-6.411-2.654-.266-12.344-.519-14.03,6.411v4.016a9.243,9.243,0,0,0,.4,2.608,16.109,16.109,0,0,0,4.857,7.242,16.567,16.567,0,0,0,1.438,1.123,14.143,14.143,0,0,0,3.146,1.661,9.3,9.3,0,0,0,3.289.661,9.3,9.3,0,0,0,3.289-.661,14.956,14.956,0,0,0,4.584-2.784,16.057,16.057,0,0,0,4.856-7.242" transform="translate(294.23 149.45)" fill="#ffbc85" fill-rule="evenodd"/>
          </g>
          <g id="g2445" transform="translate(16.869 0.879)">
            <path id="path2447" d="M-272.575-165.641c3.282-1.279,4.511-4.368,4.8-7.929.086-1.076.113-1.249-.784-.727a9.934,9.934,0,0,1-4.129,1.408c-2.428-10.862-18.944-10.872-21.193-3.863-4.557-.405-4.959,4.225-4.959,5.966v5.146c1.6-2.594,4.594-4.823,6.9-3.488,4.528,2.614,10.686,3.647,15.925,3.644,1.206,0,2.362-.053,3.438-.156" transform="translate(298.841 181.602)" fill="#7e707d" fill-rule="evenodd"/>
          </g>
          <g id="g2449" transform="translate(36.364 30.706)">
            <path id="path2451" d="M-15.651,0h5.059a16.511,16.511,0,0,1-6.255,4.624c-.1.05-.206.1-.312.146v-3.6c.023-.017.046-.033.073-.05A16.55,16.55,0,0,0-15.651,0" transform="translate(17.159)" fill="#d9eeff" fill-rule="evenodd"/>
          </g>
          <g id="g2453" transform="translate(17.071 30.706)">
            <path id="path2455" d="M-52.468,0h-5.056a16.476,16.476,0,0,0,6.252,4.624c.1.05.209.1.315.146v-3.6c-.027-.017-.05-.033-.073-.05A16.612,16.612,0,0,1-52.468,0" transform="translate(57.524)" fill="#d9eeff" fill-rule="evenodd"/>
          </g>
          <g id="g2457" transform="translate(23.638 31.878)">
            <path id="path2459" d="M-132.065-44.782V-49.1a14.1,14.1,0,0,1-3.076,1.611,9.3,9.3,0,0,1-3.289.661,9.3,9.3,0,0,1-3.289-.661A14,14,0,0,1-144.79-49.1v4.315c.448.206.9.4,1.365.565a14.139,14.139,0,0,0,5,1.007,14.171,14.171,0,0,0,5-1.007c.458-.169.913-.359,1.365-.565" transform="translate(144.79 49.097)" fill="#ea9a58" fill-rule="evenodd"/>
          </g>
          <g id="g2461" transform="translate(27.236 16.84)">
            <path id="path2463" d="M-110.382-143.893a16.056,16.056,0,0,0,4.856-7.242,9.245,9.245,0,0,0,.405-2.608v-4.016c-1.076.1-2.232.156-3.438.156v3.411a9.241,9.241,0,0,1-.4,2.608,16.427,16.427,0,0,1-9.441,10.026,9.97,9.97,0,0,1-2.618.631,8.817,8.817,0,0,0,2.764.478,9.3,9.3,0,0,0,3.289-.661,14.1,14.1,0,0,0,3.076-1.611l.073-.05a16.547,16.547,0,0,0,1.435-1.123" transform="translate(121.018 157.758)" fill="#f5a96c" fill-rule="evenodd"/>
          </g>
          <g id="g2465" transform="translate(22.359 46.873)">
            <path id="path2467" d="M-158.575-116.969v-11.2c-.415.163-.854.309-1.316.445a22.653,22.653,0,0,1-6.232.831,23.343,23.343,0,0,1-5.4-.611,16.726,16.726,0,0,1-2.332-.737V-116h15.28Z" transform="translate(173.856 128.24)" fill="#fde588" fill-rule="evenodd"/>
          </g>
          <g id="g2469" transform="translate(31.597 46.946)">
            <path id="path2471" d="M-62.707-116.211v-11.2c-.415.163-.854.309-1.316.445a19.717,19.717,0,0,1-1.993.462c.013.3.02.6.02.9a20.357,20.357,0,0,1-2.754,10.361h6.042Z" transform="translate(68.749 127.409)" fill="#fdd76f" fill-rule="evenodd"/>
          </g>
          <g id="g2473" transform="translate(41.111 36.924)">
            <path id="path2475" d="M-139.442-216.012l-.784-11.075c-.375-5.3-5.046-8.029-10.035-9.74l-2.618,2.834c4.458,1.737,8.368,3.863,8.693,8.687l.714,10.676h2.674c1.146,0,1.435-.279,1.355-1.382" transform="translate(152.878 236.827)" fill="#75cef9" fill-rule="evenodd"/>
          </g>
          <g id="g2477" transform="translate(22.898 0.879)">
            <path id="path2479" d="M-208.835-90.422c-2.186-9.78-15.792-10.763-20.123-5.747,5.105-1.747,12.749-.226,15.656,5.544a15.1,15.1,0,0,0,4.468.2" transform="translate(228.958 99.135)" fill="#6a5c6b" fill-rule="evenodd"/>
          </g>
          <g id="g2481" transform="translate(23.273 7.9)">
            <path id="path2483" d="M-206.112-92.782c3.282-1.279,4.511-4.368,4.8-7.929.086-1.076.113-1.249-.784-.728a11.909,11.909,0,0,1-1.648.807c-2.289,7.693-14.217,5.142-22.229,4.129a2.813,2.813,0,0,1,.5.233c4.528,2.614,10.686,3.647,15.925,3.644,1.206,0,2.362-.053,3.438-.156" transform="translate(225.973 101.722)" fill="#6a5c6b" fill-rule="evenodd"/>
          </g>
          <g id="g2485" transform="translate(44.829 52.588)">
            <path id="path2487" d="M348.338-66.916a.879.879,0,0,1-.879-.879v-5.654a.879.879,0,0,1,.879-.879.879.879,0,0,1,.879.879V-67.8A.879.879,0,0,1,348.338-66.916Z" transform="translate(-347.459 74.328)"/>
          </g>
          <g id="g2489" transform="translate(22.318 39.341)">
            <path id="path2491" d="M-5.048-6.379a.879.879,0,0,1-.807-.531L-6.241-7.8C-6.667-8.8-6.8-8.88-7.327-8.88l-1.766.056A.879.879,0,0,1-10-9.675a.879.879,0,0,1,.851-.906l1.794-.056A2.787,2.787,0,0,1-4.626-8.5l.384.891A.879.879,0,0,1-4.7-6.451.876.876,0,0,1-5.048-6.379Z" transform="translate(10 10.638)"/>
          </g>
          <g id="g2493" transform="translate(32.057 39.341)">
            <path id="path2495" d="M-53-5.741a.876.876,0,0,1-.345-.071.879.879,0,0,1-.463-1.154l.382-.894c.389-.9.921-2.141,2.7-2.141h1.581a.879.879,0,0,1,.879.879.879.879,0,0,1-.879.879h-1.581c-.529,0-.657.08-1.086,1.076l-.381.892A.879.879,0,0,1-53-5.741Z" transform="translate(53.881 10)"/>
          </g>
          <g id="g2497" transform="translate(41.85 15.961)">
            <path id="path2499" d="M-58.037-33.093h1.927a2.9,2.9,0,0,1,2.882,2.909v1.266c0,2.731-2.619,4.184-5.206,4.207a.879.879,0,0,1-.71-.35.879.879,0,0,1-.141-.779,8.364,8.364,0,0,0,.369-2.358v-4.016A.879.879,0,0,1-58.037-33.093Zm.736,6.487c1.27-.3,2.315-1.084,2.315-2.313v-1.266a1.153,1.153,0,0,0-1.124-1.151h-1.048V-28.2A9.284,9.284,0,0,1-57.3-26.606Z" transform="translate(59.321 33.093)"/>
          </g>
          <g id="g2501" transform="translate(12.057 15.961)">
            <path id="path2503" d="M-49.535-47.313h-.008c-2.587-.023-5.206-1.476-5.206-4.207v-1.266a2.9,2.9,0,0,1,2.885-2.909h1.927a.879.879,0,0,1,.879.879V-50.8a8.347,8.347,0,0,0,.366,2.358.879.879,0,0,1-.141.779A.879.879,0,0,1-49.535-47.313Zm-2.329-6.624a1.155,1.155,0,0,0-1.127,1.151v1.266c0,1.229,1.045,2.014,2.316,2.313a9.368,9.368,0,0,1-.141-1.592v-3.137Z" transform="translate(54.749 55.694)"/>
          </g>
          <g id="g2505" transform="translate(21.68 20.3)">
            <path id="path2507" d="M-9.121-14.029a.876.876,0,0,1-.631-.267.879.879,0,0,1,.019-1.243,2.907,2.907,0,0,1,4.017,0A.879.879,0,0,1-5.7-14.3a.879.879,0,0,1-1.243.019,1.136,1.136,0,0,0-1.57,0A.876.876,0,0,1-9.121-14.029Z" transform="translate(10 16.345)"/>
          </g>
          <g id="g2509" transform="translate(33.741 20.302)">
            <path id="path2511" d="M-6.328-14.016a.876.876,0,0,1-.61-.247,1.139,1.139,0,0,0-1.571,0,.879.879,0,0,1-1.243-.019.879.879,0,0,1,.019-1.243,2.91,2.91,0,0,1,4.016,0A.879.879,0,0,1-5.7-14.284.876.876,0,0,1-6.328-14.016Z" transform="translate(10 16.33)"/>
          </g>
          <g id="g2513" transform="translate(27.084 27.203)">
            <path id="path2515" d="M-7.1-7.4A3.71,3.71,0,0,1-9.743-8.5a.879.879,0,0,1,0-1.243.879.879,0,0,1,1.243,0,1.964,1.964,0,0,0,1.4.581,1.964,1.964,0,0,0,1.4-.581.879.879,0,0,1,1.243,0,.879.879,0,0,1,0,1.243A3.71,3.71,0,0,1-7.1-7.4Z" transform="translate(10 10)"/>
          </g>
          <g id="g2517" transform="translate(15.99 15.961)">
            <path id="path2519" d="M4.01,9.068A10.129,10.129,0,0,1,.415,8.352,14.99,14.99,0,0,1-2.925,6.589,17.457,17.457,0,0,1-9.562-2.248,10.1,10.1,0,0,1-10-5.1V-9.121A.879.879,0,0,1-9.121-10a.879.879,0,0,1,.879.879V-5.1a8.348,8.348,0,0,0,.366,2.358A15.623,15.623,0,0,0-1.923,5.145,13.238,13.238,0,0,0,1.025,6.7,8.446,8.446,0,0,0,4.01,7.31,8.441,8.441,0,0,0,6.992,6.7a15.6,15.6,0,0,0,8.9-9.45A8.364,8.364,0,0,0,16.265-5.1V-8.9a.828.828,0,0,1-.03-.221A.854.854,0,0,1,17.085-10a.932.932,0,0,1,.939.879V-5.1a10.112,10.112,0,0,1-.441,2.857A17.245,17.245,0,0,1,7.6,8.352,10.126,10.126,0,0,1,4.01,9.068Z" transform="translate(10 10)"/>
          </g>
          <g id="g2521" transform="translate(14.291 29.827)">
            <path id="path2523" d="M-81.086,4.567a.879.879,0,0,1-.645-.282l-2.521-2.727-3.565-3.864a.879.879,0,0,1-.2-.366l-1.016-3.744A2.913,2.913,0,0,1-88.6-8.972,2.724,2.724,0,0,1-86.375-10h5.056a.879.879,0,0,1,.879.879.879.879,0,0,1-.879.879h-5.056a1.024,1.024,0,0,0-.834.339,1.18,1.18,0,0,0-.131,1.028l.96,3.535L-82.962.365l1.427,1.544.848-3.282V-7.948a.879.879,0,0,1,.879-.879.879.879,0,0,1,.879.879v6.687a.879.879,0,0,1-.028.22l-1.279,4.95a.879.879,0,0,1-.636.632A.878.878,0,0,1-81.086,4.567Z" transform="translate(89.155 10)"/>
          </g>
          <g id="g2525" transform="translate(21.48 45.994)">
            <path id="path2527" d="M-175.246-7.728a22.083,22.083,0,0,1-8.063-1.413.879.879,0,0,1-.485-1.144.879.879,0,0,1,1.144-.485,20.3,20.3,0,0,0,7.4,1.284,20.492,20.492,0,0,0,7.228-1.216.879.879,0,0,1,1.138.5.879.879,0,0,1-.5,1.138A22.279,22.279,0,0,1-175.246-7.728Z" transform="translate(183.858 10.835)"/>
          </g>
          <g id="g2529" transform="translate(21.481 42.636)">
            <path id="path2531" d="M-9.121,7.361A.879.879,0,0,1-10,6.482v-15.6A.879.879,0,0,1-9.121-10a.879.879,0,0,1,.879.879v15.6A.879.879,0,0,1-9.121,7.361Z" transform="translate(10 10)"/>
          </g>
          <g id="g2533" transform="translate(36.761 42.636)">
            <path id="path2535" d="M-9.121,7.361A.879.879,0,0,1-10,6.482v-15.6A.879.879,0,0,1-9.121-10a.879.879,0,0,1,.879.879v15.6A.879.879,0,0,1-9.121,7.361Z" transform="translate(10 10)"/>
          </g>
          <g id="g2537" transform="translate(4.561 36.045)">
            <path id="path2539" d="M11.964-47.39l-23.193,0-23.189,0a2.346,2.346,0,0,1-1.794-.57,2.228,2.228,0,0,1-.441-1.752l.784-11.08a.879.879,0,0,1,.939-.815.879.879,0,0,1,.815.939L-34.9-49.589a2.38,2.38,0,0,0,0,.409,2.661,2.661,0,0,0,.484.032l23.189,0,23.193,0a2.651,2.651,0,0,0,.482-.032,2.371,2.371,0,0,0,0-.407l-.784-11.08c-.284-4.006-3.285-6.855-9.443-8.967a.879.879,0,0,1-.546-1.116A.879.879,0,0,1,2.786-71.3C9.6-68.96,13.077-65.524,13.412-60.792L14.2-49.713a2.221,2.221,0,0,1-.438,1.751A2.341,2.341,0,0,1,11.964-47.39ZM-28.9-68.035a.655.655,0,0,1-.454-.2.882.882,0,0,1-.32-.839c.075-.434.129-.747,4.44-2.223a.879.879,0,0,1,1.106.518.879.879,0,0,1-.48,1.123C-27.542-68.423-28.462-68.035-28.9-68.035Z" transform="translate(36.667 71.345)"/>
          </g>
          <g id="g2541" transform="translate(35.485 29.827)">
            <path id="path2543" d="M-25,4.567a.878.878,0,0,1-.215-.027.879.879,0,0,1-.636-.633l-1.276-4.95a.879.879,0,0,1-.028-.219V-7.948a.879.879,0,0,1,.879-.879.879.879,0,0,1,.879.879v6.576l.846,3.281,4.848-5.248.957-3.535A1.181,1.181,0,0,0-18.882-7.9a1.02,1.02,0,0,0-.831-.338h-5.059a.879.879,0,0,1-.879-.879A.879.879,0,0,1-24.772-10h5.059a2.72,2.72,0,0,1,2.227,1.027,2.913,2.913,0,0,1,.432,2.556l-1.013,3.744a.879.879,0,0,1-.2.367l-3.568,3.863-2.521,2.728A.879.879,0,0,1-25,4.567Z" transform="translate(27.159 10)"/>
          </g>
          <g id="g2545" transform="translate(15.99 -0.001)">
            <path id="path2547" d="M-165.449-168.48a41.526,41.526,0,0,1-7.227-.634.879.879,0,0,1-.71-1.02.879.879,0,0,1,1.02-.71,39.056,39.056,0,0,0,10.157.464c2.38-.978,3.722-3.178,4.093-6.717a10.428,10.428,0,0,1-3.9,1.205.879.879,0,0,1-.952-.682c-1.254-5.612-6.553-7.823-10.709-8.011-4.314-.2-7.928,1.542-8.789,4.225a.879.879,0,0,1-.915.607,3.23,3.23,0,0,0-2.6.72c-1.262,1.155-1.4,3.441-1.4,4.371v2.627c1.9-1.887,4.382-2.934,6.464-1.73a22.823,22.823,0,0,0,4.759,2.016.879.879,0,0,1,.584,1.1.879.879,0,0,1-1.1.584,24.574,24.574,0,0,1-5.127-2.176c-1.731-1-4.265.835-5.714,3.188a.879.879,0,0,1-.988.385.879.879,0,0,1-.639-.846v-5.146c0-1.444.256-4.1,1.969-5.668a4.73,4.73,0,0,1,3.276-1.2c1.406-3.118,5.435-5.029,10.3-4.808,4.579.207,10.374,2.6,12.14,8.591a9.359,9.359,0,0,0,3.035-1.184,1.55,1.55,0,0,1,1.64-.246c.577.364.527.979.465,1.757-.37,4.562-2.172,7.481-5.361,8.724a.879.879,0,0,1-.235.056C-163.058-168.534-164.244-168.48-165.449-168.48Z" transform="translate(189.145 186.359)"/>
          </g>
          <g id="g2549" transform="translate(23.959 6.763)">
            <path id="path2551" d="M.606-3.7a.888.888,0,0,1-.1-.006,18.938,18.938,0,0,1-10.257-4.8A.879.879,0,0,1-9.73-9.755a.879.879,0,0,1,1.243.025,17.238,17.238,0,0,0,9.2,4.273.879.879,0,0,1,.77.976A.879.879,0,0,1,.606-3.7Z" transform="translate(10 10)"/>
          </g>
          <g id="g2553" transform="translate(33.472 6.763)">
            <path id="path2555" d="M-1.952-6.209c-2.8,0-6.09-.748-7.759-2.261a.879.879,0,0,1-.061-1.241.879.879,0,0,1,1.241-.061C-7.143-8.514-3.415-7.707-.554-8.044a.879.879,0,0,1,.976.77.879.879,0,0,1-.77.976A13.776,13.776,0,0,1-1.952-6.209Z" transform="translate(10 10)"/>
          </g>
        </g>
      </g>
    </g>
  </g>
</svg>
