<svg xmlns="http://www.w3.org/2000/svg" width="295" height="107" viewBox="0 0 295 107">
  <g id="Grupo_965527" data-name="Grupo 965527" transform="translate(-180 -19358)">
    <path id="Trazado_730166" data-name="Trazado 730166" d="M0,0H250V107H0Z" transform="translate(225 19358)" fill="#ecf7f4"/>
    <path id="Trazado_730167" data-name="Trazado 730167" d="M45,0A45,45,0,1,1,0,45,45,45,0,0,1,45,0Z" transform="translate(180 19367)" fill="#34bc85"/>
    <path id="Trazado_730168" data-name="Trazado 730168" d="M15.766,17H14.258V11.742H8.523V17h-1.5V5.625h1.5v4.891h5.734V5.625h1.508Zm7.656,0a3.036,3.036,0,0,1-.2-.891,3.225,3.225,0,0,1-2.406,1.047,2.984,2.984,0,0,1-2.051-.707,2.287,2.287,0,0,1-.8-1.793,2.39,2.39,0,0,1,1-2.051,4.733,4.733,0,0,1,2.824-.73H23.2v-.664A1.623,1.623,0,0,0,22.742,10a1.821,1.821,0,0,0-1.336-.449,2.107,2.107,0,0,0-1.3.391,1.151,1.151,0,0,0-.523.945H18.133a2,2,0,0,1,.449-1.223A3.066,3.066,0,0,1,19.8,8.734a4.1,4.1,0,0,1,1.691-.344,3.342,3.342,0,0,1,2.289.73,2.635,2.635,0,0,1,.859,2.012v3.891a4.757,4.757,0,0,0,.3,1.852V17Zm-2.4-1.1a2.54,2.54,0,0,0,1.289-.352,2.127,2.127,0,0,0,.883-.914V12.9H22.063q-2.656,0-2.656,1.555a1.316,1.316,0,0,0,.453,1.063A1.742,1.742,0,0,0,21.023,15.9ZM22.359,5h1.75L22.016,7.3l-1.164,0Zm11.7,7.867a5.026,5.026,0,0,1-.891,3.113,2.846,2.846,0,0,1-2.391,1.176A2.947,2.947,0,0,1,28.3,16.023l-.07.977H26.906V5h1.445V9.477a2.93,2.93,0,0,1,2.414-1.086,2.863,2.863,0,0,1,2.418,1.164,5.177,5.177,0,0,1,.879,3.188ZM32.617,12.7a3.906,3.906,0,0,0-.57-2.281,1.888,1.888,0,0,0-1.641-.8,2.122,2.122,0,0,0-2.055,1.328V14.6a2.181,2.181,0,0,0,2.07,1.328,1.878,1.878,0,0,0,1.617-.8A4.153,4.153,0,0,0,32.617,12.7ZM37.453,17H36.008V8.547h1.445ZM35.891,6.3a.863.863,0,0,1,.215-.594.807.807,0,0,1,.637-.242.819.819,0,0,1,.641.242A.854.854,0,0,1,37.6,6.3a.826.826,0,0,1-.219.586.834.834,0,0,1-.641.234.821.821,0,0,1-.637-.234A.834.834,0,0,1,35.891,6.3Zm5.836.2V8.547H43.3V9.664H41.727v5.249a1.173,1.173,0,0,0,.211.763.888.888,0,0,0,.719.254,3.5,3.5,0,0,0,.688-.094V17a4.215,4.215,0,0,1-1.109.155,1.8,1.8,0,0,1-1.461-.586,2.517,2.517,0,0,1-.492-1.664V9.664H38.742V8.547h1.539V6.5Zm2.727,6.2a4.993,4.993,0,0,1,.488-2.234A3.643,3.643,0,0,1,46.3,8.93a3.7,3.7,0,0,1,1.988-.539,3.565,3.565,0,0,1,2.793,1.2,4.6,4.6,0,0,1,1.066,3.18v.1a5.036,5.036,0,0,1-.473,2.215,3.589,3.589,0,0,1-1.352,1.527,3.743,3.743,0,0,1-2.02.547,3.556,3.556,0,0,1-2.785-1.2A4.575,4.575,0,0,1,44.453,12.8Zm1.453.172a3.616,3.616,0,0,0,.652,2.258,2.211,2.211,0,0,0,3.5-.012A3.955,3.955,0,0,0,50.7,12.7a3.61,3.61,0,0,0-.66-2.254,2.1,2.1,0,0,0-1.754-.863,2.075,2.075,0,0,0-1.727.852A3.925,3.925,0,0,0,45.906,12.867Zm12.977,1.891a1.064,1.064,0,0,0-.441-.91,4.249,4.249,0,0,0-1.539-.559,7.277,7.277,0,0,1-1.742-.562,2.479,2.479,0,0,1-.953-.781,1.869,1.869,0,0,1-.309-1.078,2.193,2.193,0,0,1,.879-1.758,3.432,3.432,0,0,1,2.246-.719,3.532,3.532,0,0,1,2.332.742,2.357,2.357,0,0,1,.895,1.9H58.8a1.3,1.3,0,0,0-.5-1.023,1.888,1.888,0,0,0-1.27-.43,1.976,1.976,0,0,0-1.234.344,1.082,1.082,0,0,0-.445.9.877.877,0,0,0,.414.789,5.1,5.1,0,0,0,1.5.508,7.8,7.8,0,0,1,1.754.578,2.558,2.558,0,0,1,1,.809,1.988,1.988,0,0,1,.324,1.152,2.163,2.163,0,0,1-.906,1.816,3.8,3.8,0,0,1-2.352.684,4.257,4.257,0,0,1-1.8-.359,2.922,2.922,0,0,1-1.223-1,2.42,2.42,0,0,1-.441-1.395h1.445a1.5,1.5,0,0,0,.582,1.152,2.258,2.258,0,0,0,1.434.426,2.331,2.331,0,0,0,1.316-.332A1.02,1.02,0,0,0,58.883,14.758ZM65.82,12.7a4.952,4.952,0,0,1,.922-3.129,3.137,3.137,0,0,1,4.766-.168V5h1.445V17H71.625l-.07-.906a2.943,2.943,0,0,1-2.414,1.063,2.887,2.887,0,0,1-2.395-1.2,5.008,5.008,0,0,1-.926-3.141Zm1.445.164a3.749,3.749,0,0,0,.594,2.25,1.92,1.92,0,0,0,1.641.813A2.108,2.108,0,0,0,71.508,14.7V10.813a2.125,2.125,0,0,0-1.992-1.2,1.929,1.929,0,0,0-1.656.82A4.128,4.128,0,0,0,67.266,12.867ZM78.7,17.156a3.693,3.693,0,0,1-2.8-1.129,4.19,4.19,0,0,1-1.078-3.02v-.266a5.073,5.073,0,0,1,.48-2.246,3.748,3.748,0,0,1,1.344-1.547,3.378,3.378,0,0,1,1.871-.559,3.166,3.166,0,0,1,2.563,1.086A4.7,4.7,0,0,1,82,12.586v.6H76.273a3,3,0,0,0,.73,2.02,2.3,2.3,0,0,0,1.777.77,2.517,2.517,0,0,0,1.3-.312,3.259,3.259,0,0,0,.93-.828l.883.688A3.55,3.55,0,0,1,78.7,17.156Zm-.18-7.578a1.928,1.928,0,0,0-1.469.637A3.1,3.1,0,0,0,76.32,12h4.234v-.109a2.753,2.753,0,0,0-.594-1.707A1.815,1.815,0,0,0,78.523,9.578Zm12.5,6.4a2.082,2.082,0,0,0,1.352-.469,1.649,1.649,0,0,0,.641-1.172h1.367a2.621,2.621,0,0,1-.5,1.383,3.293,3.293,0,0,1-1.23,1.047,3.55,3.55,0,0,1-1.629.391A3.482,3.482,0,0,1,88.277,16a4.59,4.59,0,0,1-1.02-3.152v-.242a5.089,5.089,0,0,1,.453-2.2,3.451,3.451,0,0,1,1.3-1.492,3.7,3.7,0,0,1,2-.531,3.39,3.39,0,0,1,2.363.852,3.043,3.043,0,0,1,1,2.211H93.016a1.992,1.992,0,0,0-.621-1.348,1.932,1.932,0,0,0-1.379-.527,2.023,2.023,0,0,0-1.707.793,3.724,3.724,0,0,0-.605,2.293v.273a3.65,3.65,0,0,0,.6,2.25A2.033,2.033,0,0,0,91.023,15.977Zm4.6-3.281a4.993,4.993,0,0,1,.488-2.234A3.643,3.643,0,0,1,97.473,8.93a3.7,3.7,0,0,1,1.988-.539,3.565,3.565,0,0,1,2.793,1.2,4.6,4.6,0,0,1,1.066,3.18v.1a5.036,5.036,0,0,1-.473,2.215,3.589,3.589,0,0,1-1.352,1.527,3.743,3.743,0,0,1-2.02.547,3.556,3.556,0,0,1-2.785-1.2A4.575,4.575,0,0,1,95.625,12.8Zm1.453.172a3.616,3.616,0,0,0,.652,2.258,2.211,2.211,0,0,0,3.5-.012,3.955,3.955,0,0,0,.648-2.418,3.61,3.61,0,0,0-.66-2.254,2.1,2.1,0,0,0-1.754-.863,2.075,2.075,0,0,0-1.727.852A3.925,3.925,0,0,0,97.078,12.867Zm9.422-4.32.047,1.063a3.08,3.08,0,0,1,2.531-1.219q2.68,0,2.7,3.023V17h-1.445V11.406a1.946,1.946,0,0,0-.418-1.352,1.675,1.675,0,0,0-1.277-.437,2.086,2.086,0,0,0-1.234.375,2.546,2.546,0,0,0-.828.984V17h-1.445V8.547Zm12.383,6.211a1.064,1.064,0,0,0-.441-.91,4.249,4.249,0,0,0-1.539-.559,7.277,7.277,0,0,1-1.742-.562,2.479,2.479,0,0,1-.953-.781,1.869,1.869,0,0,1-.309-1.078,2.193,2.193,0,0,1,.879-1.758,3.432,3.432,0,0,1,2.246-.719,3.532,3.532,0,0,1,2.332.742,2.357,2.357,0,0,1,.895,1.9H118.8a1.3,1.3,0,0,0-.5-1.023,1.888,1.888,0,0,0-1.27-.43,1.976,1.976,0,0,0-1.234.344,1.082,1.082,0,0,0-.445.9.877.877,0,0,0,.414.789,5.1,5.1,0,0,0,1.5.508,7.8,7.8,0,0,1,1.754.578,2.558,2.558,0,0,1,1,.809,1.988,1.988,0,0,1,.324,1.152,2.163,2.163,0,0,1-.906,1.816,3.8,3.8,0,0,1-2.352.684,4.257,4.257,0,0,1-1.8-.359,2.922,2.922,0,0,1-1.223-1,2.42,2.42,0,0,1-.441-1.395h1.445a1.5,1.5,0,0,0,.582,1.152,2.258,2.258,0,0,0,1.434.426,2.331,2.331,0,0,0,1.316-.332A1.02,1.02,0,0,0,118.883,14.758Zm8.547,1.406a3.07,3.07,0,0,1-2.477.992,2.628,2.628,0,0,1-2.059-.785,3.4,3.4,0,0,1-.715-2.324v-5.5h1.445v5.461q0,1.922,1.563,1.922a2.163,2.163,0,0,0,2.2-1.234V8.547h1.445V17h-1.375Zm4.961-7.617.039.938a3.122,3.122,0,0,1,2.508-1.094,2.417,2.417,0,0,1,2.414,1.359,3.2,3.2,0,0,1,1.1-.984,3.242,3.242,0,0,1,1.6-.375q2.781,0,2.828,2.945V17H141.43V11.422a1.941,1.941,0,0,0-.414-1.355,1.823,1.823,0,0,0-1.391-.449,1.917,1.917,0,0,0-1.336.48,1.949,1.949,0,0,0-.617,1.293V17h-1.453V11.461a1.613,1.613,0,0,0-1.8-1.844,1.934,1.934,0,0,0-1.945,1.211V17h-1.445V8.547ZM144.672,12.7a4.993,4.993,0,0,1,.488-2.234A3.642,3.642,0,0,1,146.52,8.93a3.7,3.7,0,0,1,1.988-.539,3.565,3.565,0,0,1,2.793,1.2,4.6,4.6,0,0,1,1.066,3.18v.1a5.036,5.036,0,0,1-.473,2.215,3.589,3.589,0,0,1-1.352,1.527,3.743,3.743,0,0,1-2.02.547,3.556,3.556,0,0,1-2.785-1.2,4.575,4.575,0,0,1-1.066-3.164Zm1.453.172a3.616,3.616,0,0,0,.652,2.258,2.211,2.211,0,0,0,3.5-.012,3.954,3.954,0,0,0,.648-2.418,3.61,3.61,0,0,0-.66-2.254,2.1,2.1,0,0,0-1.754-.863,2.075,2.075,0,0,0-1.727.852A3.925,3.925,0,0,0,146.125,12.867Zm8.086,3.375a.905.905,0,0,1,.223-.625.848.848,0,0,1,.668-.25.874.874,0,0,1,.676.25.887.887,0,0,1,.23.625.839.839,0,0,1-.23.6.89.89,0,0,1-.676.242.8.8,0,0,1-.891-.844Z" transform="translate(285 19402)" fill="#12263f"/>
    <g id="mujeres" transform="translate(161.613 19379)">
      <path id="Trazado_730030" data-name="Trazado 730030" d="M89.222,23.251C88.455,13.079,84.11,8,70.232,8,56.34,8,52,13.09,51.241,23.283c-10.323,2.847-10.517,8.009-.4,10.9-.049,3.418-.007,5.836-1.293,7.271-2.526,2.82-3.682,7.68-1.294,10.067-.461,3.783-.63,8.461,3.035,9.265.058-.038-.1.065-.178.12A7.91,7.91,0,0,0,47.717,67.4v3.991H92.748V67.4a7.959,7.959,0,0,0-3.573-6.608c3.666-.8,3.5-5.482,3.035-9.265,2.388-2.388,1.231-7.248-1.294-10.067-1.29-1.441-1.243-3.868-1.294-7.3,10.059-2.908,9.986-8.069-.4-10.9Z" transform="translate(-6.895 -6.907)" fill="#ffebd2"/>
      <path id="Trazado_730031" data-name="Trazado 730031" d="M157.186,202.808a15.864,15.864,0,0,1-15.128,1.163c-4.5-2.053-7.941-6.381-7.937-12.985v-3.6a13.853,13.853,0,0,0,4.1-.935v2.623C138.214,200.1,148.245,205.419,157.186,202.808Z" transform="translate(-85.24 -160.968)" fill="#fff3e4"/>
      <path id="Trazado_730032" data-name="Trazado 730032" d="M285.1,160.215c2.526,2.82,3.682,7.68,1.294,10.067.461,3.783.63,8.461-3.035,9.265a7.882,7.882,0,0,0-1.766-.867l-6.286-2.162a7.9,7.9,0,0,1-3-1.868,25.323,25.323,0,0,0-1.368-5.975c0-.116,7.954-2.794,7.947-12.991v-3.6c-3.123-.153-8.742-2.184-10.587-6.523a70.358,70.358,0,0,1,15.237,1.986C284.183,153.925,283.221,158.115,285.1,160.215Z" transform="translate(-201.081 -125.666)" fill="#c79a83"/>
      <path id="Trazado_730033" data-name="Trazado 730033" d="M86.29,168.627a25.238,25.238,0,0,0-1.371,5.981,7.9,7.9,0,0,1-3,1.868c-6.778,2.331-6.953,2.308-8.051,3.029-3.666-.8-3.5-5.482-3.035-9.265-2.388-2.388-1.231-7.248,1.294-10.067,1.881-2.1.918-6.281,1.564-12.669a68.663,68.663,0,0,1,15.254-1.993c-1.844,4.345-7.466,6.377-10.589,6.53v3.6c0,6.6,3.432,10.932,7.937,12.985Z" transform="translate(-29.472 -125.623)" fill="#c79a83"/>
      <path id="Trazado_730034" data-name="Trazado 730034" d="M79.008,151.96c-.191,1.933-.24,3.687-.264,5.62-.134.014-.265.022-.391.029.012,3.388-.031,3.851.048,4.935a4.348,4.348,0,0,1-.946,1.967c-2.526,2.82-3.682,7.68-1.294,10.067-.4,3.321-.585,7.334,1.859,8.807a16.8,16.8,0,0,0-4.153,1.688c-3.666-.8-3.5-5.482-3.035-9.265-2.388-2.388-1.231-7.248,1.294-10.067,1.881-2.1.918-6.281,1.564-12.669A45.6,45.6,0,0,1,79.008,151.96Z" transform="translate(-29.472 -131.191)" fill="#e0b7a3"/>
      <path id="Trazado_730035" data-name="Trazado 730035" d="M51.112,112.458c-.2,2.016-.247,3.814-.271,5.4-10.118-2.892-9.924-8.055.4-10.9,9.907-2.735,28.233-2.688,37.981-.032,10.387,2.832,10.46,7.993.4,10.9-.022-1.576-.067-3.363-.27-5.366-9.739-2.7-28.277-2.791-38.241,0Z" transform="translate(-6.895 -90.578)" fill="#ffca8c"/>
      <path id="Trazado_730036" data-name="Trazado 730036" d="M119.923,8c13.878,0,18.222,5.079,18.989,15.251-9.724-2.65-28.054-2.708-37.981.032C101.692,13.09,106.03,8,119.923,8Z" transform="translate(-56.586 -6.907)" fill="#ffd9ad"/>
      <path id="Trazado_730037" data-name="Trazado 730037" d="M134.227,11.72C130.515,10.7,110.1,7.179,106.936,22.074a48.289,48.289,0,0,0-6.005,1.209C101.692,13.09,106.03,8,119.923,8c6.855,0,11.383,1.24,14.3,3.72Z" transform="translate(-56.586 -6.907)" fill="#fff3e4"/>
      <path id="Trazado_730038" data-name="Trazado 730038" d="M114.843,324.661l-6.286-2.162a7.9,7.9,0,0,1-3-1.868,25.084,25.084,0,0,0-1.368-5.977,16.039,16.039,0,0,1-13.041,0,25.238,25.238,0,0,0-1.371,5.981,7.9,7.9,0,0,1-3,1.868c-6.778,2.331-6.953,2.308-8.051,3.029a7.914,7.914,0,0,0-3.573,6.608v3.991h45.031v-3.991a7.917,7.917,0,0,0-5.338-7.475Z" transform="translate(-34.329 -271.646)" fill="#6e6f80"/>
      <path id="Trazado_730039" data-name="Trazado 730039" d="M187.006,315.749c-.336,2.364-.577,4.774-.72,7.208a12.045,12.045,0,0,1-4.125-2.326,25.237,25.237,0,0,1,1.371-5.981A15.319,15.319,0,0,0,187.006,315.749Z" transform="translate(-126.714 -271.646)" fill="#848499"/>
      <path id="Trazado_730040" data-name="Trazado 730040" d="M120.182,369.915v3.991H75.151v-3.991a7.917,7.917,0,0,1,5.338-7.475l6.286-2.162a7.9,7.9,0,0,0,3-1.868,12.1,12.1,0,0,0,15.78,0,7.9,7.9,0,0,0,3,1.868l6.286,2.162a7.917,7.917,0,0,1,5.338,7.475Z" transform="translate(-34.329 -309.426)" fill="#585966"/>
      <path id="Trazado_730041" data-name="Trazado 730041" d="M94.193,360.828a7.888,7.888,0,0,1-2.088,1.091l-6.286,2.162a7.917,7.917,0,0,0-5.338,7.475v2.351h-5.33v-3.991a7.917,7.917,0,0,1,5.338-7.475l6.286-2.162a7.9,7.9,0,0,0,3-1.868A12.044,12.044,0,0,0,94.193,360.828Z" transform="translate(-34.329 -309.426)" fill="#6e6f80"/>
      <g id="Grupo_965381" data-name="Grupo 965381" transform="translate(35.387 0)">
        <path id="Trazado_730042" data-name="Trazado 730042" d="M91.254,21.348c-1.243-8.779-32.247-9.543-45.672-6.413.983-8.272,4.794-12.748,17.754-12.748,10.172,0,15.1,2.6,17.007,8.987a1.093,1.093,0,0,0,2.1-.626C79.867,1.945,72.353,0,63.337,0,51.2,0,44.457,3.59,43.321,15.534c-4.544,1.363-7.246,3.255-7.822,5.48-.3,1.159-.248,3.412,3.463,5.469a1.093,1.093,0,1,0,1.06-1.913c-1.04-.576-2.736-1.734-2.406-3.009,1.339-5.178,20.32-6.118,25.721-6.118,18.12,0,25.412,3.81,25.752,6.211.149,1.049-1.19,2.695-5.3,4.109-.034-1.221-.1-2.546-.246-3.995a1.093,1.093,0,0,0-.8-.944c-9.987-2.764-28.739-2.825-38.828,0a1.093,1.093,0,0,0-.793.943c-.619,6.107.214,10.371-1.29,12.051-2.638,2.945-4.068,8.116-1.622,11.157-.36,3.213-.484,7.284,2.13,9.174a9,9,0,0,0-2.618,6.338v3.991a1.093,1.093,0,1,0,2.187,0V60.49a6.86,6.86,0,0,1,4.6-6.441c5.639-2,7.034-2.088,8.97-3.638A13.194,13.194,0,0,0,66.666,52.58a1.093,1.093,0,1,0-.55-2.116A11.017,11.017,0,0,1,56.6,48.517c.055-.424.121-.849.2-1.268a1.093,1.093,0,1,0-2.151-.393c-.1.531-.178,1.07-.242,1.608-2.229,1.99-7.523,2.7-10.173,4.235-1.843-.678-2.378-3.1-1.788-7.949a1.094,1.094,0,0,0-.312-.905c-1.882-1.882-.828-6.15,1.335-8.565s1.252-6.419,1.767-12.54A66.445,66.445,0,0,1,57.5,21.069a12.98,12.98,0,0,1-8.67,4.256,1.093,1.093,0,0,0-1.04,1.092v3.6c0,5.872,2.573,10.6,7.256,13.3A17.052,17.052,0,0,0,69.19,44.463a24.234,24.234,0,0,1,.95,4.634,1.093,1.093,0,0,0,.317.662c2.291,2.278,4.355,2.352,9.7,4.289a6.884,6.884,0,0,1,4.6,6.441V64.48a1.093,1.093,0,0,0,2.187,0V60.488a9.062,9.062,0,0,0-6.076-8.508c-5.8-2.063-6.956-2.049-8.6-3.516a26.432,26.432,0,0,0-1.069-4.9c5.094-2.723,7.7-7.66,7.7-13.547v-3.6a1.093,1.093,0,0,0-1.04-1.092,12.986,12.986,0,0,1-8.666-4.25A67.38,67.38,0,0,1,81.44,22.741c.515,6.11-.393,10.127,1.767,12.538s3.217,6.682,1.335,8.565a1.094,1.094,0,0,0-.312.905,27.591,27.591,0,0,1,.232,3.112,1.093,1.093,0,0,0,2.187-.017,27.79,27.79,0,0,0-.191-2.866c2.446-3.042,1.015-8.213-1.622-11.157-.916-1.022-.966-3.016-1-5.767,6.947-2.2,7.646-5.124,7.422-6.7Zm-14.542,6.06v2.611c.011,17.688-26.75,17.748-26.738,0v-2.61c3.823-.546,8.294-2.816,10.195-6.451,2.106-.061,4.243-.06,6.35,0C68.393,24.54,72.827,26.853,76.713,27.408Z" transform="translate(-35.387 0)"/>
        <path id="Trazado_730043" data-name="Trazado 730043" d="M209.078,194.708v-1.9a1.093,1.093,0,0,0-2.187,0v1.9a1.093,1.093,0,1,0,2.187,0Z" transform="translate(-183.451 -165.509)"/>
        <path id="Trazado_730044" data-name="Trazado 730044" d="M257.984,195.8a1.093,1.093,0,0,0,1.093-1.093v-1.9a1.093,1.093,0,1,0-2.187,0v1.9A1.093,1.093,0,0,0,257.984,195.8Z" transform="translate(-226.618 -165.509)"/>
        <path id="Trazado_730045" data-name="Trazado 730045" d="M214.716,255.815a1.093,1.093,0,0,0,0,1.546,4.472,4.472,0,0,0,6.329,0,1.093,1.093,0,0,0-1.546-1.546,2.287,2.287,0,0,1-3.236,0A1.093,1.093,0,0,0,214.716,255.815Z" transform="translate(-189.931 -220.576)"/>
      </g>
    </g>
  </g>
</svg>
