<svg xmlns="http://www.w3.org/2000/svg" width="105" height="104" viewBox="0 0 105 104">
  <g id="Grupo_965416" data-name="Grupo 965416" transform="translate(10049 7189)">
    <rect id="Rectángulo_341025" data-name="Rectángulo 341025" width="105" height="104" rx="52" transform="translate(-10049 -7189)" fill="#fff"/>
    <g id="conciencia" transform="translate(-10069.265 -7176.74)">
      <g id="Grupo_965393" data-name="Grupo 965393" transform="translate(40.76 1.19)">
        <path id="Trazado_730047" data-name="Trazado 730047" d="M101.12,81.772h-30.4L68.708,70.4s-9.295,2.265-11.629-3.9c-1.4-3.707-3.352-14.114-3.352-14.114H49.3a1.749,1.749,0,0,1-1.616-2.421c2.034-4.892,6.512-15.731,7.46-18.574C56.373,27.688,59.3,8,81,8s41.863,19.9,17.3,55.5Z" transform="translate(-47.543 -8)" fill="#fdf8e4"/>
        <g id="Grupo_965389" data-name="Grupo 965389" transform="translate(32.15 0)">
          <path id="Trazado_730048" data-name="Trazado 730048" d="M265.008,8c-.444,0-.877.011-1.3.027,21.159.821,39.972,20.626,15.927,55.474l2.823,18.27h2.677L282.307,63.5C306.871,27.9,286.708,8,265.008,8Z" transform="translate(-263.703 -8)" fill="#f7bc94"/>
        </g>
        <circle id="Elipse_5893" data-name="Elipse 5893" cx="20.188" cy="20.188" r="20.188" transform="translate(14.449 7.827)" fill="#8bcaff"/>
        <path id="Trazado_730049" data-name="Trazado 730049" d="M272.761,60.625c-.45,0-.9.016-1.339.045a20.187,20.187,0,0,1,0,40.285c.443.029.889.045,1.339.045a20.188,20.188,0,1,0,0-40.376Z" transform="translate(-238.124 -52.798)" fill="#71bff4"/>
        <path id="Trazado_730050" data-name="Trazado 730050" d="M182.081,265.369a4.784,4.784,0,0,1,1.843-1.811c2.536-1.292,4.4-3.417,6.255-2.016s-.621,4.021,1.38,5.374c1.455.983,3.055,2.9,2.327,4.53A20.14,20.14,0,0,1,182.081,265.369Z" transform="translate(-162.071 -223.44)" fill="#aee295"/>
        <path id="Trazado_730051" data-name="Trazado 730051" d="M299.682,207.848c1.843.894,4.133-1.944,7.576-2.568a5.034,5.034,0,0,1,5.1,1.945,20.214,20.214,0,0,1-11.957,15.2c-2.244-.087-3.9-3.191-2.308-5.648s-3.328-3.174-3.533-6.45S297.84,206.954,299.682,207.848Z" transform="translate(-257.816 -175.854)" fill="#aee295"/>
        <path id="Trazado_730052" data-name="Trazado 730052" d="M334.806,206.874a20.2,20.2,0,0,1-11,16.445,2.674,2.674,0,0,0,1.5.551,20.215,20.215,0,0,0,11.957-15.205,4.98,4.98,0,0,0-2.458-1.791Z" transform="translate(-282.718 -177.295)" fill="#98db7c"/>
        <path id="Trazado_730053" data-name="Trazado 730053" d="M186.9,60.625a20.11,20.11,0,0,1,8.486,1.866c-.107.009-6.732.575-6.816,2s7.945,3.381,6.818,5.917c-.938,2.11-6.775-2.8-8.445-1.867s2.979,2.675.612,5.779-4.9,4.392-5.451,7.805-3.888,4.681-5.453,2.314c-.925-1.4-.169-7.945-3.043-10.819a15.356,15.356,0,0,1-3.049-4.662,20.159,20.159,0,0,1,16.34-8.333Z" transform="translate(-152.262 -52.798)" fill="#aee295"/>
        <g id="Grupo_965392" data-name="Grupo 965392" transform="translate(33.295 7.827)">
          <g id="Grupo_965391" data-name="Grupo 965391">
            <g id="Grupo_965390" data-name="Grupo 965390">
              <path id="Trazado_730054" data-name="Trazado 730054" d="M281.229,62.491a20.11,20.11,0,0,0-8.486-1.866c-.451,0-.9.016-1.342.045a20.067,20.067,0,0,1,7.681,2.077C280.251,62.575,281.19,62.495,281.229,62.491Z" transform="translate(-271.402 -60.625)" fill="#98db7c"/>
            </g>
          </g>
        </g>
      </g>
      <g id="Grupo_965394" data-name="Grupo 965394" transform="translate(39.575)">
        <path id="Trazado_730055" data-name="Trazado 730055" d="M159.065,14.566C154.348,5.581,144.078,0,132.261,0c-6.675,0-12.292,1.819-16.693,5.406a27.084,27.084,0,0,0-7.721,10.771,1.118,1.118,0,1,0,2.063.861c4.1-9.822,11.622-14.8,22.351-14.8,10.983,0,20.495,5.123,24.824,13.369,2.534,4.826,3.273,10.5,2.2,16.861-1.225,7.251-4.795,15.2-10.609,23.627a1.117,1.117,0,0,0-.185.805l.878,5.685a1.118,1.118,0,0,0,1.1.947,1.129,1.129,0,0,0,.172-.013,1.118,1.118,0,0,0,.934-1.275L150.767,57c5.852-8.562,9.459-16.688,10.721-24.156,1.158-6.856.343-13-2.423-18.273Z" transform="translate(-97.619)"/>
        <path id="Trazado_730056" data-name="Trazado 730056" d="M94.216,179.5a1.118,1.118,0,0,0-2.209.341l1.068,6.916H64.86L63,176.285a1.119,1.119,0,0,0-1.364-.891,16.665,16.665,0,0,1-4.647.331c-2.981-.244-4.9-1.437-5.7-3.545-1.356-3.579-3.286-13.848-3.305-13.951a1.118,1.118,0,0,0-1.1-.912h-4.44c-.514-.091-.684-.3-.587-.879,2.4-5.777,6.569-15.887,7.5-18.686.13-.391.807-2.931,1.052-3.758a1.118,1.118,0,1,0-2.143-.635c-.254.856-.921,3.36-1.029,3.686-.945,2.834-5.522,13.906-7.446,18.535a2.893,2.893,0,0,0,2.652,3.972h3.516c.514,2.649,2.044,10.268,3.238,13.42,1.121,2.958,3.77,4.682,7.661,4.986A18.619,18.619,0,0,0,61,177.785l1.823,10.286a1.118,1.118,0,0,0,1.1.923H94.379a1.141,1.141,0,0,0,1.1-1.288Z" transform="translate(-39.575 -112.842)"/>
        <path id="Trazado_730057" data-name="Trazado 730057" d="M173.419,62.405a1.118,1.118,0,1,0,1.769-1.366,21.264,21.264,0,1,0,2.453,4.028,1.118,1.118,0,1,0-2.026.944,18.946,18.946,0,0,1,1.778,8.061c0,.364-.011.725-.031,1.084a6.179,6.179,0,0,0-4.444-.771,14.21,14.21,0,0,0-4.364,1.772c-1.1.609-2.046,1.135-2.54.9a5.542,5.542,0,0,0-5.2.107,3.682,3.682,0,0,0-1.529,3.458c.127,2.035,1.6,3.279,2.676,4.187,1.342,1.132,1.272,1.241,1.04,1.6a4.957,4.957,0,0,0-.245,5.031,4.727,4.727,0,0,0,.724,1.03,19.061,19.061,0,0,1-5.2.718q-.774,0-1.533-.062c-.07-1.724-1.447-3.434-3-4.484-.372-.251-.413-.512-.257-1.643.144-1.044.362-2.622-1.079-3.708-1.992-1.5-3.939-.251-5.657.851-.574.368-1.167.749-1.79,1.066a5.209,5.209,0,0,0-1.393,1.055,19.072,19.072,0,0,1-1.789-21.817,14.816,14.816,0,0,0,2.391,3.215c1.576,1.576,1.9,4.777,2.139,7.114a8.653,8.653,0,0,0,.768,3.552,3.606,3.606,0,0,0,3.031,1.718,3.711,3.711,0,0,0,.782-.085,5.086,5.086,0,0,0,3.686-4.391c.318-1.974,1.4-3.1,2.893-4.654a30.258,30.258,0,0,0,2.354-2.667c1.775-2.328.551-4.263-.22-5.307.695.242,1.627.689,2.22.974,1.92.922,3.577,1.718,4.86,1.247a1.936,1.936,0,0,0,1.12-1.057c.363-.816.434-2.075-1.288-3.433a20.664,20.664,0,0,0-3.274-1.922c-.533-.271-1.245-.634-1.734-.934a23.5,23.5,0,0,1,5.087-.958,19.107,19.107,0,0,1,6.818,5.551Zm-8.68,28a2.746,2.746,0,0,1,.138-2.786c1.37-2.119-.343-3.564-1.476-4.521-.936-.79-1.82-1.536-1.887-2.618-.066-1.053.393-1.361.543-1.462a3.418,3.418,0,0,1,2.983.048c1.537.746,3.024-.079,4.6-.952a12.232,12.232,0,0,1,3.679-1.528,3.97,3.97,0,0,1,3.723,1.151,19.177,19.177,0,0,1-10.973,13.788A2.059,2.059,0,0,1,164.739,90.4ZM145.982,87.2c.721-.368,1.391-.8,1.983-1.176,1.825-1.171,2.454-1.437,3.105-.947.344.259.354.577.21,1.617-.149,1.084-.375,2.722,1.219,3.8a5.015,5.015,0,0,1,1.945,2.306,19.084,19.084,0,0,1-9.342-4.9A3.061,3.061,0,0,1,145.982,87.2Zm12.859-29.542c-.077,1.318,1.378,2.059,3.392,3.085a19.218,19.218,0,0,1,2.9,1.685,2.227,2.227,0,0,1,.608.641A13.565,13.565,0,0,1,162.8,61.9c-2.015-.968-3.755-1.8-5.017-1.095a1.724,1.724,0,0,0-.908,1.156,2.646,2.646,0,0,0,.8,2.116c.8,1.066,1.215,1.723.383,2.814a28.042,28.042,0,0,1-2.188,2.474c-1.573,1.637-3.059,3.184-3.488,5.847a2.909,2.909,0,0,1-1.95,2.561,1.353,1.353,0,0,1-1.476-.679,11.482,11.482,0,0,1-.41-2.548c-.272-2.672-.644-6.33-2.782-8.469a13.572,13.572,0,0,1-2.547-3.735,19.087,19.087,0,0,1,15.074-7.377,19.344,19.344,0,0,1,3.744.365C160.314,55.744,158.917,56.376,158.842,57.654Z" transform="translate(-122.458 -44.886)"/>
      </g>
    </g>
  </g>
</svg>
