<svg xmlns="http://www.w3.org/2000/svg" width="105" height="104" viewBox="0 0 105 104">
  <g id="Grupo_965417" data-name="Grupo 965417" transform="translate(10049 6950)">
    <g id="Grupo_965388" data-name="Grupo 965388" transform="translate(-10419 -11466)">
      <rect id="Rectángulo_341025" data-name="Rectángulo 341025" width="105" height="104" rx="52" transform="translate(370 4516)" fill="#fff"/>
    </g>
    <g id="Planet_Earth-Earth-World-Environment-Ecology" data-name="Planet Earth-Earth-World-Environment-Ecology" transform="translate(-10033.72 -6935.22)">
      <path id="Trazado_730058" data-name="Trazado 730058" d="M62.176,62.214a3.524,3.524,0,0,1-4.98,0L48.14,53.158a16.152,16.152,0,0,0,4.722-5.238l1.175,1.175,8.139,8.139a3.524,3.524,0,0,1,0,4.98Z" transform="translate(8.053 8.014)" fill="#feb12e"/>
      <path id="Trazado_730059" data-name="Trazado 730059" d="M49.147,43.275l2.678,2.678c-.164.223-.329.446-.517.658A27,27,0,0,1,3,30.014a26.6,26.6,0,0,1,.963-7.141l3.571,4.581a1.2,1.2,0,0,0,.4.329l.188.094,4.921,2.467a1.25,1.25,0,0,0,.529.129,1.175,1.175,0,0,0,1.175-1.186V27.125a.978.978,0,0,0-.035-.258,1.158,1.158,0,0,0-.493-.728l-1.785-1.2-.681-.446a1.19,1.19,0,0,1-.529-.987V21.581a1.175,1.175,0,0,1,.94-1.151l4.78-.951a1.25,1.25,0,0,0,.294-.106l4.311-2.149a1.083,1.083,0,0,0,.411-.352l3.112-4.146a1.182,1.182,0,0,1,.646-.435l3.852-.963a1.1,1.1,0,0,0,.693-.482l1.092-1.633a1.2,1.2,0,0,0,.2-.669A1.186,1.186,0,0,0,30.566,7.4l-4.675-.787h-.023a1.125,1.125,0,0,1-.822-.587l-.564-1L23.754,3.74A26.941,26.941,0,0,1,44.66,7.322L44.4,7.5a1.164,1.164,0,0,1-.646.2H38.87a1.19,1.19,0,0,0-.987.529l-1.351,2.02a1.175,1.175,0,0,0,.329,1.621l.693.458,1.421.951a1.165,1.165,0,0,0,.94.164l3.77-.94a1.142,1.142,0,0,1,.81.094l3.7,1.844a1.175,1.175,0,0,0,1.175-.07l1.762-1.175c.341.423.669.857.975,1.3a25.555,25.555,0,0,1,2.572,4.51.107.107,0,0,1,.035.082l-4.346,2.478a1.249,1.249,0,0,1-.822.141l-5.215-1.045a1.281,1.281,0,0,1-.411-.176l-3.042-2.02a1.164,1.164,0,0,0-.646-.2H36.521a1.19,1.19,0,0,0-.987.529l-1.715,2.56a1.207,1.207,0,0,0-.153.94l.082.352.787,3.183a1.192,1.192,0,0,0,.869.857l3.676.893a1.1,1.1,0,0,0,.646-.023l2.525-.822a1.175,1.175,0,0,1,1.186.294l1.5,1.492a1.213,1.213,0,0,1,.341.834V33.15a1.209,1.209,0,0,0,.235.7l3.054,4.064a1.209,1.209,0,0,1,.235.7v3.829a1.185,1.185,0,0,0,.341.822Z" transform="translate(0.175 0.175)" fill="#d3ede5"/>
      <path id="Trazado_730060" data-name="Trazado 730060" d="M40.731,27.611a1.213,1.213,0,0,0-.341-.834l-1.5-1.492a1.175,1.175,0,0,0-1.186-.294l-2.525.822a1.1,1.1,0,0,1-.646.023l-3.676-.893a1.192,1.192,0,0,1-.869-.857l-.869-3.535a1.245,1.245,0,0,1,.082-.822l.787,3.183a1.192,1.192,0,0,0,.869.857l3.676.893a1.1,1.1,0,0,0,.646-.023l2.525-.822a1.175,1.175,0,0,1,1.186.294l1.5,1.492a1.213,1.213,0,0,1,.341.834Z" transform="translate(4.726 3.094)" fill="#3d9ae2"/>
      <path id="Trazado_730061" data-name="Trazado 730061" d="M42.524,35.318a1.209,1.209,0,0,0-.235-.7l-3.054-4.064a1.209,1.209,0,0,1-.235-.7V28.67a1.209,1.209,0,0,0,.235.7l3.054,4.064a1.209,1.209,0,0,1,.235.7Z" transform="translate(6.458 4.655)" fill="#3d9ae2"/>
      <path id="Trazado_730062" data-name="Trazado 730062" d="M50.163,16.822a26.984,26.984,0,0,1-2.889,26.861L44.6,41.006a1.185,1.185,0,0,1-.341-.822V36.355a1.209,1.209,0,0,0-.235-.7l-3.054-4.064a1.209,1.209,0,0,1-.235-.7V27.088a1.213,1.213,0,0,0-.341-.834l-1.5-1.492a1.175,1.175,0,0,0-1.186-.294l-2.525.822a1.1,1.1,0,0,1-.646.023l-3.676-.893a1.192,1.192,0,0,1-.869-.857l-.869-3.535a1.207,1.207,0,0,1,.153-.94l1.715-2.56A1.19,1.19,0,0,1,31.969,16h3.712a1.164,1.164,0,0,1,.646.2l3.042,2.02a1.281,1.281,0,0,0,.411.176l5.215,1.045a1.249,1.249,0,0,0,.822-.141Z" transform="translate(4.726 2.443)" fill="#00ccb3"/>
      <path id="Trazado_730063" data-name="Trazado 730063" d="M46.972,13.113,45.41,14.158a1.175,1.175,0,0,1-1.175.07l-3.7-1.844a1.142,1.142,0,0,0-.81-.094l-3.77.94a1.165,1.165,0,0,1-.94-.164L32.9,11.656a1.117,1.117,0,0,1-.482-.716l1.421.951a1.165,1.165,0,0,0,.94.164l3.77-.94a1.142,1.142,0,0,1,.81.094l3.7,1.844a1.175,1.175,0,0,0,1.175-.07L46,11.809c.341.423.669.857.975,1.3Z" transform="translate(5.309 1.56)" fill="#3d9ae2"/>
      <path id="Trazado_730064" data-name="Trazado 730064" d="M46.178,12.553l-1.762,1.175a1.175,1.175,0,0,1-1.175.07l-3.7-1.844a1.142,1.142,0,0,0-.81-.094l-3.77.94a1.165,1.165,0,0,1-.94-.164l-2.114-1.409A1.175,1.175,0,0,1,31.579,9.6l1.351-2.02a1.19,1.19,0,0,1,.987-.529H38.8a1.164,1.164,0,0,0,.646-.2l.258-.176a26.379,26.379,0,0,1,6.472,5.873Z" transform="translate(5.129 0.817)" fill="#00ccb3"/>
      <path id="Trazado_730065" data-name="Trazado 730065" d="M15.159,24.753v2.161A1.175,1.175,0,0,1,13.984,28.1a1.25,1.25,0,0,1-.529-.129l-5.109-2.56a1.2,1.2,0,0,1-.4-.329L7.36,24.33,12.281,26.8a1.25,1.25,0,0,0,.529.129,1.175,1.175,0,0,0,1.175-1.186V23.578a.978.978,0,0,0-.035-.258l.681.446A1.19,1.19,0,0,1,15.159,24.753Z" transform="translate(0.935 3.721)" fill="#3d9ae2"/>
      <path id="Trazado_730066" data-name="Trazado 730066" d="M31.306,9.564,30.214,11.2a1.1,1.1,0,0,1-.693.482l-3.852.963a1.182,1.182,0,0,0-.646.435L21.91,17.222a1.083,1.083,0,0,1-.411.352l-4.311,2.149a1.25,1.25,0,0,1-.294.106l-4.78.951a1.175,1.175,0,0,0-.94,1.151v1.926a.978.978,0,0,0,.035.258l-.681-.446A1.19,1.19,0,0,1,10,22.683V20.757a1.175,1.175,0,0,1,.94-1.151l4.78-.951a1.25,1.25,0,0,0,.294-.106L20.324,16.4a1.083,1.083,0,0,0,.411-.352L23.848,11.9a1.182,1.182,0,0,1,.646-.435l3.852-.963a1.1,1.1,0,0,0,.693-.482l1.092-1.633a1.2,1.2,0,0,0,.2-.669l.188.035a1.175,1.175,0,0,1,.787,1.809Z" transform="translate(1.396 0.998)" fill="#3d9ae2"/>
      <path id="Trazado_730067" data-name="Trazado 730067" d="M30.423,7.295A1.175,1.175,0,0,1,31.21,9.1l-1.092,1.633a1.1,1.1,0,0,1-.693.482l-3.852.963a1.182,1.182,0,0,0-.646.435l-3.112,4.146a1.083,1.083,0,0,1-.411.352l-4.311,2.149a1.25,1.25,0,0,1-.294.106l-4.78.951a1.175,1.175,0,0,0-.94,1.151V23.4a1.19,1.19,0,0,0,.529.987l2.467,1.644a1.19,1.19,0,0,1,.529.987v2.161a1.175,1.175,0,0,1-1.175,1.186,1.25,1.25,0,0,1-.529-.129L7.79,27.673a1.2,1.2,0,0,1-.4-.329L3.82,22.763A23.979,23.979,0,0,1,5.206,18.9,27,27,0,0,1,23.611,3.63L24.9,5.92a1.125,1.125,0,0,0,.822.587Z" transform="translate(0.318 0.284)" fill="#34bc85"/>
      <path id="Trazado_730068" data-name="Trazado 730068" d="M32.417,34.006a1.175,1.175,0,0,1,1.139,1.456L32.9,38.105a1.175,1.175,0,0,1-.775.834l-2.032.669a1.185,1.185,0,0,0-.81,1.116l-.012,1.961a1.164,1.164,0,0,1-.646,1.034l-3.406,1.7a1.175,1.175,0,0,0-.646,1.057v3.5A1.166,1.166,0,0,1,23.032,51.1l-1.433-.47a1.162,1.162,0,0,1-.74-.74l-2.1-6.284a1.392,1.392,0,0,1-.059-.376V39.433a1.175,1.175,0,0,0-.646-1.057l-1.527-.763a1.174,1.174,0,0,1-.305-.211l-1.879-1.879A1.185,1.185,0,0,1,14,34.7V31.164a1.192,1.192,0,0,1,.564-1.01l4.51-2.748a1.19,1.19,0,0,1,1.456.176l2.525,2.549a1.153,1.153,0,0,0,.834.352H27.46a1.19,1.19,0,0,1,.987.529l1.621,2.467a1.175,1.175,0,0,0,.975.529Z" transform="translate(2.094 4.404)" fill="#3d9ae2"/>
      <path id="Trazado_730069" data-name="Trazado 730069" d="M31.417,33.006a1.175,1.175,0,0,1,1.139,1.456L31.9,37.105a1.175,1.175,0,0,1-.775.834l-2.032.669a1.185,1.185,0,0,0-.81,1.116l-.012,1.961a1.164,1.164,0,0,1-.646,1.034l-3.406,1.7a1.175,1.175,0,0,0-.646,1.057v3.5A1.166,1.166,0,0,1,22.032,50.1l-1.433-.47a1.162,1.162,0,0,1-.74-.74l-2.1-6.284a1.392,1.392,0,0,1-.059-.376V38.433a1.175,1.175,0,0,0-.646-1.057l-1.527-.763a1.174,1.174,0,0,1-.305-.211l-1.879-1.879A1.185,1.185,0,0,1,13,33.7V30.164a1.192,1.192,0,0,1,.564-1.01l4.51-2.748a1.19,1.19,0,0,1,1.456.176l2.525,2.549a1.153,1.153,0,0,0,.834.352H26.46a1.19,1.19,0,0,1,.987.529l1.621,2.467a1.175,1.175,0,0,0,.975.529Z" transform="translate(1.92 4.229)" fill="#34bc85"/>
      <path id="Trazado_730070" data-name="Trazado 730070" d="M54.036,49.095a16.152,16.152,0,0,1-4.722,5.238L48.14,53.158a16.152,16.152,0,0,0,4.722-5.238Z" transform="translate(8.053 8.014)" fill="#cc7400"/>
      <path id="Trazado_730071" data-name="Trazado 730071" d="M58.887,43.443a16.443,16.443,0,1,1-17.618-16.4c.388-.035.775-.047,1.175-.047a16.373,16.373,0,0,1,10.148,3.512v.012A16.368,16.368,0,0,1,58.887,43.443Z" transform="translate(4.189 4.363)" fill="#feb12e"/>
      <path id="Trazado_730078" data-name="Trazado 730078" d="M11.745,0A11.745,11.745,0,1,1,0,11.745,11.745,11.745,0,0,1,11.745,0Z" transform="translate(34.887 36.061)" fill="#badc61"/>
      <path id="Trazado_730072" data-name="Trazado 730072" d="M47.92,41.524A4.727,4.727,0,0,0,44.6,42.9a3.825,3.825,0,0,0-.408.478A7.047,7.047,0,0,0,37.349,38H35a7.047,7.047,0,0,0,7.047,7.047h1.327a4.3,4.3,0,0,0-.153,1.175h2.349a4.692,4.692,0,0,0,4.7-4.7Z" transform="translate(5.759 6.283)" fill="#5aaae7"/>
      <path id="Trazado_730073" data-name="Trazado 730073" d="M36.349,37A7.047,7.047,0,0,1,43.4,44.047H41.047A7.047,7.047,0,0,1,34,37Z" transform="translate(5.585 6.108)" fill="#00b39d"/>
      <path id="Trazado_730074" data-name="Trazado 730074" d="M48.047,40a4.692,4.692,0,0,1-4.7,4.7H41a4.3,4.3,0,0,1,.153-1.175,4.6,4.6,0,0,1,.81-1.668,3.888,3.888,0,0,1,.411-.482A4.727,4.727,0,0,1,45.7,40Z" transform="translate(6.807 6.632)" fill="#00ccb3"/>
      <path id="Trazado_730075" data-name="Trazado 730075" d="M71.062,64.414l-8.7-8.7a17.53,17.53,0,0,0-4.334-21.318,26.154,26.154,0,0,0,.352-4.2A28.189,28.189,0,1,0,30.189,58.377c.8,0,1.562-.047,2.3-.106a17.526,17.526,0,0,0,23.549,4.4l8.374,8.386a4.7,4.7,0,0,0,6.648-6.648ZM56.028,30.189a24.562,24.562,0,0,1-.153,2.643,17.473,17.473,0,0,0-9.244-2.643v-.658a2.388,2.388,0,0,0-.693-1.668l-1.48-1.468a2.349,2.349,0,0,0-2.4-.6l-2.525.822-3.688-.893-.881-3.535L36.7,19.618h3.712l3.019,2.008a2.366,2.366,0,0,0,.846.364l5.262,1.057a2.509,2.509,0,0,0,1.6-.282l3.183-1.821a25.74,25.74,0,0,1,1.715,9.244ZM44.765,8.871a25.858,25.858,0,0,1,4.8,4.252l-.669.446-3.688-1.844a2.321,2.321,0,0,0-1.633-.188l-3.782.94-2.114-1.4,1.362-2.032h4.886a2.256,2.256,0,0,0,.834-.176ZM23.353,5.277l.822,1.468a2.334,2.334,0,0,0,1.668,1.21l4.71.775L29.46,10.363l-3.876.975a2.294,2.294,0,0,0-1.28.857l-3.112,4.146L16.881,18.5l-4.769.951a2.349,2.349,0,0,0-1.891,2.3v1.926a2.349,2.349,0,0,0,1.057,1.961L13.745,27.3v2.173l-5.109-2.56L5.43,22.8A25.957,25.957,0,0,1,23.353,5.277Zm-19,24.912a26.473,26.473,0,0,1,.388-4.451l2.032,2.6a2.452,2.452,0,0,0,.81.669L12.7,31.575a2.355,2.355,0,0,0,1.045.247,2.4,2.4,0,0,0,1.245-.364,2.32,2.32,0,0,0,1.1-2V27.3a2.349,2.349,0,0,0-1.057-1.961l-2.467-1.656V21.756l4.8-.951a2.754,2.754,0,0,0,.564-.211l4.311-2.149a2.181,2.181,0,0,0,.822-.693l3.1-4.146,3.841-.963a2.257,2.257,0,0,0,1.4-.963l1.1-1.644A2.38,2.38,0,0,0,32.7,7.79a2.349,2.349,0,0,0-1.774-1.374l-4.686-.787-.505-.893a26.58,26.58,0,0,1,4.451-.388A25.722,25.722,0,0,1,40.936,6.7H39.045a2.362,2.362,0,0,0-1.962,1.046L35.721,9.775a2.349,2.349,0,0,0,.669,3.242L38.5,14.426a2.3,2.3,0,0,0,1.867.329l3.77-.94,3.7,1.844a2.267,2.267,0,0,0,1.057.258,2.4,2.4,0,0,0,1.3-.4l.846-.564a24.763,24.763,0,0,1,2.314,3.829l-3.406,1.95-5.215-1.045L41.723,17.68a2.323,2.323,0,0,0-1.315-.411H36.7a2.362,2.362,0,0,0-1.962,1.046L33,20.91a2.383,2.383,0,0,0-.294,1.844l.869,3.535A2.349,2.349,0,0,0,35.3,28l3.641.881a2.232,2.232,0,0,0,1.327-.035l2.525-.81,1.492,1.492v.834a17.607,17.607,0,0,0-10.77,5.72c-.059,0-.117-.023-.176-.023H31.974l-1.633-2.478a2.362,2.362,0,0,0-1.961-1.045H24.809l-2.525-2.56a2.377,2.377,0,0,0-2.9-.341l-4.522,2.748a2.368,2.368,0,0,0-1.116,2.008v3.535a2.368,2.368,0,0,0,.681,1.656l1.879,1.879a2.266,2.266,0,0,0,.611.423l1.527.775v3.794a2.964,2.964,0,0,0,.117.752l2.1,6.284a2.279,2.279,0,0,0,.623.951A25.865,25.865,0,0,1,4.349,30.189ZM24.316,53.209l-1.421-.47-2.1-6.284V42.662a2.326,2.326,0,0,0-1.292-2.1L17.974,39.8l-1.879-1.868V34.382l4.522-2.748,2.5,2.537a2.349,2.349,0,0,0,1.691.716H28.38L30,37.342a2.319,2.319,0,0,0,1.774,1.045,16.977,16.977,0,0,0-1.785,3.688,2.364,2.364,0,0,0-.963,1.868L29.014,45.9l-3.406,1.7a2.326,2.326,0,0,0-1.292,2.1Zm5.873,2.819a25.521,25.521,0,0,1-5.309-.552,2.3,2.3,0,0,0,1.785-2.267V49.7l2.384-1.186a17.554,17.554,0,0,0,2,7.493c-.282.012-.564.023-.857.023Zm16.443,7.047A15.269,15.269,0,1,1,61.9,47.807,15.269,15.269,0,0,1,46.632,63.075Zm22.762,6.319a2.34,2.34,0,0,1-3.312,0l-8.116-8.116A18.155,18.155,0,0,0,61.126,57.8l8.269,8.28a2.34,2.34,0,0,1,0,3.312Z" transform="translate(0)"/>
      <path id="Trazado_730076" data-name="Trazado 730076" d="M41.92,30A12.92,12.92,0,1,0,54.84,42.92,12.92,12.92,0,0,0,41.92,30Zm0,23.491A10.571,10.571,0,1,1,52.491,42.92,10.571,10.571,0,0,1,41.92,53.491Z" transform="translate(4.712 4.887)"/>
      <path id="Trazado_730077" data-name="Trazado 730077" d="M49.443,39.524H47.094a5.846,5.846,0,0,0-3.263.994A8.155,8.155,0,0,0,36.524,36H34.175A1.175,1.175,0,0,0,33,37.175,8.231,8.231,0,0,0,41.222,45.4,1.175,1.175,0,0,0,42.4,46.571h2.349A5.88,5.88,0,0,0,50.618,40.7a1.175,1.175,0,0,0-1.175-1.175Zm-8.222,3.524a5.882,5.882,0,0,1-5.755-4.7h1.057A5.816,5.816,0,0,1,42.074,42.4a5.639,5.639,0,0,0-.352.652Zm3.524,1.175h-.974a3.531,3.531,0,0,1,3.323-2.349h.974a3.531,3.531,0,0,1-3.323,2.349Z" transform="translate(5.41 5.934)"/>
    </g>
  </g>
</svg>
