<svg xmlns="http://www.w3.org/2000/svg" width="127" height="127" viewBox="0 0 127 127">
  <g id="Grupo_965427" data-name="Grupo 965427" transform="translate(-948 -2032)">
    <circle id="Elipse_5810" data-name="Elipse 5810" cx="63.5" cy="63.5" r="63.5" transform="translate(948 2032)" fill="#badc61"/>
    <g id="internacional" transform="translate(958.645 2055)">
      <circle id="Elipse_6745" data-name="Elipse 6745" cx="36.456" cy="36.456" r="36.456" transform="translate(16.526 5.973)" fill="#b3d8fb"/>
      <path id="Trazado_730101" data-name="Trazado 730101" d="M218.384,38.2a36.629,36.629,0,0,0-6.972.669,36.461,36.461,0,0,1,0,71.575A36.458,36.458,0,1,0,218.384,38.2Z" transform="translate(-165.401 -32.227)" fill="#89c6fc"/>
      <path id="Trazado_730102" data-name="Trazado 730102" d="M163.718,201.815l-3.935,5.558a5.941,5.941,0,0,0,1.416,8.281l1,.708a5.941,5.941,0,0,1,2.5,5.067l-.576,15.672a3.723,3.723,0,0,0,5.845,3.195l10.779-7.489a16.373,16.373,0,0,0,4.021-3.986l6.946-9.812a4.689,4.689,0,0,0-1.118-6.536l-17.358-12.288A6.833,6.833,0,0,0,163.718,201.815Z" transform="translate(-120.924 -167.824)" fill="#05e29a"/>
      <path id="Trazado_730103" data-name="Trazado 730103" d="M108.239,42.208a3.012,3.012,0,0,1-.381-3.408,36.244,36.244,0,0,0-17.19,5.747l-5.108,5.108a7.059,7.059,0,0,0-2.067,4.991v5.69a1.83,1.83,0,0,0,2.874,1.5l4.2-2.914a8.152,8.152,0,0,1,4.649-1.456h5.4a6.673,6.673,0,0,0,4.719-1.955l5.331-5.331a3.666,3.666,0,0,0,.171-5Z" transform="translate(-57.483 -32.733)" fill="#05e29a"/>
      <path id="Trazado_730104" data-name="Trazado 730104" d="M397.118,97.214l-2.087,7.263a12.574,12.574,0,0,0,.615,8.624l2.279,5.073a6.405,6.405,0,0,0,9.417,2.691l1.692-1.137a36.382,36.382,0,0,0-11.915-22.514Z" transform="translate(-319.897 -82.013)" fill="#1dd08d"/>
      <path id="Trazado_730105" data-name="Trazado 730105" d="M405.483,83.225c-.232,5.552-4.464,10.407-6.551,12.476a1.624,1.624,0,0,1-2.288,0c-2.146-2.126-6.562-7.2-6.562-12.95a7.706,7.706,0,0,1,7.79-7.705A7.793,7.793,0,0,1,405.483,83.225Z" transform="translate(-316.134 -63.312)" fill="#fc6b55"/>
      <path id="Trazado_730106" data-name="Trazado 730106" d="M420.85,75.35A7.921,7.921,0,0,1,422.8,80.9c-.226,5.408-4.245,10.153-6.383,12.307a29.191,29.191,0,0,0,2.444,2.752,1.624,1.624,0,0,0,2.288,0c2.087-2.068,6.319-6.924,6.551-12.476a7.814,7.814,0,0,0-6.851-8.131Z" transform="translate(-338.351 -63.568)" fill="#fc534e"/>
      <circle id="Elipse_6746" data-name="Elipse 6746" cx="3.77" cy="3.77" r="3.77" transform="translate(77.883 15.959)" fill="#e5ecf1"/>
      <path id="Trazado_730107" data-name="Trazado 730107" d="M425.92,102.518a3.77,3.77,0,0,1-3.355,6.4,3.77,3.77,0,1,0,3.355-6.4Z" transform="translate(-343.538 -86.488)" fill="#c2d0da"/>
      <path id="Trazado_730108" data-name="Trazado 730108" d="M250.5,161.818c-.232,5.552-4.464,10.407-6.551,12.476a1.624,1.624,0,0,1-2.288,0c-2.146-2.126-6.562-7.2-6.562-12.95a7.705,7.705,0,0,1,7.79-7.705A7.793,7.793,0,0,1,250.5,161.818Z" transform="translate(-185.385 -129.616)" fill="#fc6b55"/>
      <path id="Trazado_730109" data-name="Trazado 730109" d="M265.868,153.943a7.921,7.921,0,0,1,1.95,5.549c-.226,5.408-4.245,10.153-6.383,12.307a29.19,29.19,0,0,0,2.444,2.752,1.624,1.624,0,0,0,2.288,0c2.087-2.068,6.319-6.924,6.551-12.476A7.814,7.814,0,0,0,265.868,153.943Z" transform="translate(-207.603 -129.872)" fill="#fc534e"/>
      <circle id="Elipse_6747" data-name="Elipse 6747" cx="3.77" cy="3.77" r="3.77" transform="translate(53.65 28.248)" fill="#e5ecf1"/>
      <path id="Trazado_730110" data-name="Trazado 730110" d="M270.937,181.112a3.77,3.77,0,0,1-3.355,6.4,3.77,3.77,0,1,0,3.355-6.4Z" transform="translate(-212.788 -152.793)" fill="#c2d0da"/>
      <path id="Trazado_730111" data-name="Trazado 730111" d="M174.091,277.428c-.232,5.552-4.464,10.407-6.551,12.476a1.624,1.624,0,0,1-2.288,0c-2.146-2.126-6.562-7.2-6.562-12.95a7.705,7.705,0,0,1,7.79-7.7A7.793,7.793,0,0,1,174.091,277.428Z" transform="translate(-120.923 -227.149)" fill="#fc6b55"/>
      <path id="Trazado_730112" data-name="Trazado 730112" d="M189.458,269.553a7.921,7.921,0,0,1,1.95,5.549c-.226,5.408-4.245,10.153-6.383,12.307a29.19,29.19,0,0,0,2.444,2.752,1.624,1.624,0,0,0,2.288,0c2.087-2.068,6.319-6.923,6.551-12.476A7.814,7.814,0,0,0,189.458,269.553Z" transform="translate(-143.14 -227.405)" fill="#fc534e"/>
      <circle id="Elipse_6748" data-name="Elipse 6748" cx="3.77" cy="3.77" r="3.77" transform="translate(41.702 46.325)" fill="#e5ecf1"/>
      <path id="Trazado_730113" data-name="Trazado 730113" d="M194.528,296.721a3.77,3.77,0,0,1-3.355,6.4,3.77,3.77,0,1,0,3.355-6.4Z" transform="translate(-148.327 -250.325)" fill="#c2d0da"/>
      <path id="Trazado_730114" data-name="Trazado 730114" d="M65.212,15.669c-.232,5.552-4.464,10.407-6.551,12.476a1.624,1.624,0,0,1-2.288,0c-2.146-2.126-6.562-7.2-6.562-12.95A7.705,7.705,0,0,1,57.6,7.491,7.793,7.793,0,0,1,65.212,15.669Z" transform="translate(-29.068 -6.319)" fill="#fc6b55"/>
      <path id="Trazado_730115" data-name="Trazado 730115" d="M80.578,7.793a7.921,7.921,0,0,1,1.95,5.549C82.3,18.75,78.282,23.5,76.145,25.65A29.19,29.19,0,0,0,78.589,28.4a1.624,1.624,0,0,0,2.288,0c2.087-2.068,6.319-6.924,6.551-12.476a7.814,7.814,0,0,0-6.85-8.131Z" transform="translate(-51.285 -6.574)" fill="#fc534e"/>
      <circle id="Elipse_6749" data-name="Elipse 6749" cx="3.77" cy="3.77" r="3.77" transform="translate(24.678 5.396)" fill="#e5ecf1"/>
      <path id="Trazado_730116" data-name="Trazado 730116" d="M85.648,34.962a3.77,3.77,0,0,1-3.355,6.4,3.77,3.77,0,1,0,3.355-6.4Z" transform="translate(-56.471 -29.495)" fill="#c2d0da"/>
      <path id="Trazado_730117" data-name="Trazado 730117" d="M87.772,28.075a16.9,16.9,0,0,0,2.747-8.113,9.148,9.148,0,0,0-2.486-6.645,8.728,8.728,0,0,0-6.282-2.754h-.1a8.8,8.8,0,0,0-5.692,2.068,37.649,37.649,0,0,0-38.677-4.4,9.147,9.147,0,0,0-2.456-5.475A8.727,8.727,0,0,0,28.546,0h-.1a8.877,8.877,0,0,0-8.875,8.876c0,3.949,1.854,7.536,3.858,10.261a37.5,37.5,0,0,0-5.586,9.809,1.171,1.171,0,1,0,2.187.84,35.147,35.147,0,0,1,4.854-8.7,8.236,8.236,0,0,0-.046.83V27.6a3,3,0,0,0,4.713,2.466l4.2-2.914a6.95,6.95,0,0,1,3.981-1.247h5.4a7.793,7.793,0,0,0,5.547-2.3L54.01,18.28a4.851,4.851,0,0,0,.225-6.6L51.639,8.7a1.848,1.848,0,0,1-.426-1.512c.589-.03,1.179-.048,1.77-.048A35.38,35.38,0,0,1,74.37,14.365a8.806,8.806,0,0,0-1.593,5.075,14.189,14.189,0,0,0,.823,4.65,13.731,13.731,0,0,0,1.081,7.479l2.278,5.073A7.577,7.577,0,0,0,88.1,39.824l.073-.049q.1,1.319.1,2.654a35.285,35.285,0,1,1-69.641-8.084,1.171,1.171,0,0,0-2.28-.535,37.809,37.809,0,0,0-.992,8.618A37.628,37.628,0,1,0,87.772,28.075ZM23.853,4.231a6.488,6.488,0,0,1,4.595-1.889h.073a6.4,6.4,0,0,1,4.608,2.024A6.794,6.794,0,0,1,34.973,9.3c-.218,5.218-4.412,9.916-6.205,11.693a.456.456,0,0,1-.639,0c-1.869-1.852-6.215-6.74-6.215-12.118A6.488,6.488,0,0,1,23.853,4.231Zm26.021,6.013,2.6,2.976a2.5,2.5,0,0,1-.116,3.4l-5.331,5.331a5.465,5.465,0,0,1-3.89,1.612h-5.4a9.281,9.281,0,0,0-5.317,1.665l-4.2,2.914A.659.659,0,0,1,27.18,27.6V23.162a2.806,2.806,0,0,0,3.237-.5c2.259-2.238,5.944-6.591,6.748-11.774A35.316,35.316,0,0,1,48.851,7.389,4.191,4.191,0,0,0,49.873,10.244Zm31.779,2.661h.072a6.4,6.4,0,0,1,4.608,2.024,6.793,6.793,0,0,1,1.845,4.935c-.218,5.218-4.412,9.916-6.205,11.693a.456.456,0,0,1-.639,0c-1.869-1.852-6.215-6.74-6.215-12.118a6.534,6.534,0,0,1,6.534-6.534ZM86.791,37.88a5.234,5.234,0,0,1-7.695-2.2l-2.278-5.073a11.443,11.443,0,0,1-.509-1.362,29.961,29.961,0,0,0,3.377,3.975,2.8,2.8,0,0,0,3.936,0,30.667,30.667,0,0,0,2.534-2.844,34.868,34.868,0,0,1,1.722,6.773Z" transform="translate(0 0)"/>
      <path id="Trazado_730118" data-name="Trazado 730118" d="M412.7,104.458a4.941,4.941,0,1,0-4.941-4.941A4.947,4.947,0,0,0,412.7,104.458Zm0-7.541a2.6,2.6,0,1,1-2.6,2.6A2.6,2.6,0,0,1,412.7,96.917Z" transform="translate(-331.049 -79.787)"/>
      <path id="Trazado_730119" data-name="Trazado 730119" d="M178.393,148.9a8.727,8.727,0,0,0-6.282-2.754h-.1a8.883,8.883,0,0,0-8.7,7.089,8.015,8.015,0,0,0-6.884,3.372L152.5,162.17a7.1,7.1,0,0,0-.542,7.32,8.849,8.849,0,0,0-.766,3.614c0,5.159,3.162,9.7,5.692,12.505l-.255,6.923a4.9,4.9,0,0,0,7.684,4.2l10.78-7.489a17.491,17.491,0,0,0,4.309-4.271l3.254-4.6a1.171,1.171,0,0,0-1.912-1.353l-3.254,4.6a15.158,15.158,0,0,1-3.733,3.7l-10.78,7.489a2.552,2.552,0,0,1-4.007-2.19l.191-5.078a2.794,2.794,0,0,0,2.877-.654c2.471-2.449,6.654-7.428,6.9-13.259a9.149,9.149,0,0,0-2.487-6.645,8.818,8.818,0,0,0-12.622-.188c-.079.078-.155.159-.23.24a4.761,4.761,0,0,1,.816-3.509l3.935-5.558a5.672,5.672,0,0,1,4.806-2.386c.252,5.8,4.4,10.751,6.9,13.229a2.8,2.8,0,0,0,3.937,0,29.749,29.749,0,0,0,3.535-4.207l6.077,4.3a3.517,3.517,0,0,1,.839,4.9l-.854,1.207a1.171,1.171,0,1,0,1.912,1.353l.854-1.207a5.86,5.86,0,0,0-1.4-8.168l-6.2-4.386a16.159,16.159,0,0,0,2.127-7.057,9.146,9.146,0,0,0-2.486-6.645Zm-18.327,17.665h.072a6.4,6.4,0,0,1,4.608,2.024,6.794,6.794,0,0,1,1.846,4.935c-.218,5.219-4.412,9.915-6.206,11.693a.455.455,0,0,1-.639,0c-1.869-1.852-6.215-6.739-6.215-12.118a6.534,6.534,0,0,1,6.534-6.535Zm12.268.575a.455.455,0,0,1-.639,0c-1.869-1.852-6.215-6.74-6.215-12.118a6.534,6.534,0,0,1,6.534-6.535h.072a6.4,6.4,0,0,1,4.608,2.024,6.794,6.794,0,0,1,1.845,4.935C178.322,160.67,174.128,165.367,172.334,167.144Z" transform="translate(-114.594 -123.298)"/>
      <path id="Trazado_730120" data-name="Trazado 730120" d="M261.49,176.939a1.171,1.171,0,0,0-1.171,1.171,2.6,2.6,0,1,1-2.083-2.548,1.171,1.171,0,1,0,.461-2.3,4.942,4.942,0,1,0,3.964,4.845A1.171,1.171,0,0,0,261.49,176.939Z" transform="translate(-200.299 -146.092)"/>
      <path id="Trazado_730121" data-name="Trazado 730121" d="M181.309,298.661a4.941,4.941,0,1,0-4.941-4.941A4.947,4.947,0,0,0,181.309,298.661Zm0-7.541a2.6,2.6,0,1,1-2.6,2.6A2.6,2.6,0,0,1,181.309,291.12Z" transform="translate(-135.837 -243.624)"/>
      <path id="Trazado_730122" data-name="Trazado 730122" d="M77.371,31.959A4.941,4.941,0,1,0,72.429,36.9,4.947,4.947,0,0,0,77.371,31.959Zm-7.541,0a2.6,2.6,0,1,1,2.6,2.6A2.6,2.6,0,0,1,69.83,31.959Z" transform="translate(-43.981 -22.793)"/>
    </g>
  </g>
</svg>
