<svg xmlns="http://www.w3.org/2000/svg" xmlns:xlink="http://www.w3.org/1999/xlink" width="127" height="127" viewBox="0 0 127 127">
  <defs>
    <clipPath id="clip-path">
      <path id="path5580" d="M0-682.665H80.16v80.16H0Z" transform="translate(0 682.665)"/>
    </clipPath>
  </defs>
  <g id="Grupo_965425" data-name="Grupo 965425" transform="translate(2255 9510)">
    <circle id="Elipse_5813" data-name="Elipse 5813" cx="63.5" cy="63.5" r="63.5" transform="translate(-2255 -9510)" fill="#badc61"/>
    <g id="g5574" transform="translate(-2231.58 -8802.915)">
      <g id="g5576" transform="translate(0 -682.665)">
        <g id="g5578" clip-path="url(#clip-path)">
          <g id="g5584" transform="translate(3.384 -82.117)">
            <path id="path5586" d="M-475.419-476.584C-461.895-492.3-464.8-506.1-464.8-506.1c-.261-4.122-1.91-10.534-3.678-13.741s-16.614-16.3-16.614-16.3a38.735,38.735,0,0,0-16.882-3.848,39.162,39.162,0,0,0-6.375.523l-30.321,51.33A38.892,38.892,0,0,0-531-475.186c4.3,4.136,8.291,7.064,13.363,8.757,0,0,24.711,10.2,42.223-10.155" transform="translate(538.671 539.991)" fill="#d3effd"/>
          </g>
        </g>
      </g>
      <g id="g5588" transform="translate(0 -682.665)">
        <g id="g5590" clip-path="url(#clip-path)">
          <g id="g5596" transform="translate(13.291 6.078)">
            <path id="path5598" d="M-30.725-12.668c0-.237,0-.608-1.058-1.584a2.344,2.344,0,0,0-.682-.1A2.348,2.348,0,0,0-34.813-12a2.344,2.344,0,0,0,.1.682,2.6,2.6,0,0,0,1.638,1,2.348,2.348,0,0,0,2.348-2.348" transform="translate(34.813 14.353)" fill="#c9eb74"/>
          </g>
          <g id="g5600" transform="translate(13.392 6.18)">
            <path id="path5602" d="M-22.014,0a2.349,2.349,0,0,1,.1.682A2.348,2.348,0,0,1-24.261,3.03a2.35,2.35,0,0,1-.682-.1A2.349,2.349,0,0,0-22.7,4.6a2.348,2.348,0,0,0,2.348-2.348A2.349,2.349,0,0,0-22.014,0" transform="translate(24.943)" fill="#acd980"/>
          </g>
          <g id="g5604" transform="translate(1.174 29.322)">
            <path id="path5606" d="M-30.725-12.669c0-.237,0-.608-1.058-1.584a2.344,2.344,0,0,0-.682-.1,2.348,2.348,0,0,0-2.348,2.348,2.344,2.344,0,0,0,.1.682,2.6,2.6,0,0,0,1.638,1,2.348,2.348,0,0,0,2.348-2.348" transform="translate(34.813 14.355)" fill="#c9eb74"/>
          </g>
          <g id="g5608" transform="translate(1.276 29.424)">
            <path id="path5610" d="M-22.013,0a2.349,2.349,0,0,1,.1.682A2.348,2.348,0,0,1-24.26,3.03a2.343,2.343,0,0,1-.682-.1A2.349,2.349,0,0,0-22.694,4.6a2.348,2.348,0,0,0,2.348-2.348A2.349,2.349,0,0,0-22.013,0" transform="translate(24.941)" fill="#acd980"/>
          </g>
          <g id="g5612" transform="translate(20.46 22.18)">
            <path id="path5614" d="M-86.368-87.676l2.723-5.146a.548.548,0,0,0,0-.548s-4.278-6.131-5.969-5.968H-93.4a1.174,1.174,0,0,0-1.017.587l-2.633,2.528-.648,3.154a1.174,1.174,0,0,0,0,1.174l1.811,3.137,9.047,1.355a.548.548,0,0,0,.475-.274" transform="translate(97.858 99.34)" fill="#c9eb74"/>
          </g>
          <g id="g5616" transform="translate(22.429 22.184)">
            <path id="path5618" d="M-100.294-47.118l-3.28-5.682a1.174,1.174,0,0,0-1.017-.587h-2.77a.548.548,0,0,1,.475.274l3.642,6.308a.548.548,0,0,1,0,.548l-1.834,3.176a.548.548,0,0,1-.475.274h-8.084l1.469,2.544a1.174,1.174,0,0,0,1.017.587h6.561a1.174,1.174,0,0,0,1.017-.587l3.28-5.681a1.174,1.174,0,0,0,0-1.174" transform="translate(113.637 53.387)" fill="#acd980"/>
          </g>
          <g id="g5620" transform="translate(8.585 15.326)">
            <path id="path5622" d="M-86.366-87.676l2.723-5.146a.548.548,0,0,0,0-.548s-4.278-6.131-5.969-5.968H-93.4a1.174,1.174,0,0,0-1.017.587l-3.28,5.682a1.174,1.174,0,0,0,0,1.174l1.811,3.137,9.047,1.355a.548.548,0,0,0,.475-.274" transform="translate(97.857 99.34)" fill="#c9eb74"/>
          </g>
          <g id="g5624" transform="translate(10.554 15.33)">
            <path id="path5626" d="M-100.294-47.118l-3.28-5.682a1.174,1.174,0,0,0-1.017-.587h-2.77a.548.548,0,0,1,.475.274l3.642,6.308a.548.548,0,0,1,0,.548l-1.834,3.176a.548.548,0,0,1-.474.274h-8.085l1.469,2.544a1.174,1.174,0,0,0,1.017.587h6.561a1.174,1.174,0,0,0,1.017-.587l3.28-5.681a1.174,1.174,0,0,0,0-1.174" transform="translate(113.637 53.387)" fill="#acd980"/>
          </g>
          <g id="g5628" transform="translate(16.837 28.034)">
            <path id="path5630" d="M-127.35-92.666c0,5.94-14.869,8.356-16.943,19.454,7.374,9.632,35.233,10.778,45.281-.546-.305-4.347-3.665-7.882-6.985-10.372-1.921-1.375-3.853-2.571-5.411-3.755-3.058-2.283-4.936-2.811-4.936-5.386l.313-11.724H-127.35Z" transform="translate(144.293 104.994)" fill="#d3effd"/>
          </g>
          <g id="g5632" transform="translate(55.134 48.899)">
            <path id="path5634" d="M-39.558-70.588a2.6,2.6,0,0,0,2.8.919c-1.11-4.713-4.567-7.81-8.061-10.311,2.743,2.237,4.958,5.044,5.263,9.391" transform="translate(44.821 79.98)" fill="#b2e5fb"/>
          </g>
          <g id="g5636" transform="translate(43.248 28.034)">
            <path id="path5638" d="M-46.088-126.881l.343.229c-1.97-1.5-3.343-2.976-3.343-4.781v-12.329H-52.22v11.713c0,2.575,2.8,2.922,6.132,5.168" transform="translate(52.22 143.762)" fill="#b2e5fb"/>
          </g>
          <g id="g5640" transform="translate(16.596 57.512)">
            <path id="path5642" d="M-336.555-21.611a4.639,4.639,0,0,0-.976-2.1c-14.4-3.717-29.228,7.406-43.559,1.527a14.354,14.354,0,0,0-.242,2.646,13.916,13.916,0,0,0,2.7,8.469c4.8,4.982,12.181,6.64,19.215,6.64,12.97,0,22.858-6.322,22.858-17.185" transform="translate(381.332 24.486)" fill="#c9eb74"/>
          </g>
          <g id="g5644" transform="translate(19.299 58.291)">
            <path id="path5646" d="M-329.928-6.909a22.562,22.562,0,0,0-2.8-.919q.035.507.036,1.041c0,10.863-10.514,16.523-23.484,16.523-7.034,0-13.345-1.665-17.649-4.922,3.936,5.317,11.764,8.053,20.781,8.053,12.97,0,23.484-5.659,23.484-16.523a14.125,14.125,0,0,0-.37-3.253" transform="translate(373.823 7.828)" fill="#acd980"/>
          </g>
          <g id="g5648" transform="translate(43.31 1.175)">
            <path id="path5650" d="M-66.469-82.195c2.176-2.187,3.831-7.589,2.272-10.936-2.849.023-7.18,1.085-9.352,3.268a5.121,5.121,0,0,0-.75,6.929c1.954,2.244,5.453,3.128,7.831.738" transform="translate(75.313 93.13)" fill="#acd980"/>
          </g>
          <g id="g5652" transform="translate(44.323 1.175)">
            <path id="path5654" d="M-95.311-4.179a4.048,4.048,0,0,0-2.578-.556c-.019,2.863-1.075,7.228-3.252,9.415a5.05,5.05,0,0,1-6.851.782,10.275,10.275,0,0,0,1.386,1.71c2.222,2.233,5.477,3.774,8.6.639s3.939-10.745,2.7-11.991" transform="translate(107.992 4.735)" fill="#9cd169"/>
          </g>
          <g id="g5656" transform="translate(22.603 1.174)">
            <path id="path5658" d="M-73.71-74.162c1.8-1.812,4.041-4.667.84-7.949-3.586-2-9.056-2.4-10.094-1.362s-.63,6.572,1.371,10.175c2.281,2.415,6.087.939,7.882-.865" transform="translate(83.516 84.029)" fill="#acd980"/>
          </g>
          <g id="g5660" transform="translate(24.528 3.092)">
            <path id="path5662" d="M-79.364-10.154A8.239,8.239,0,0,0-81.2-11.505c1.222,2.552-.127,5.047-1.93,6.859S-87.4-1.491-89.922-2.691A8.248,8.248,0,0,0-88.595-.876c3.119,3.135,6.374,1.594,8.6-.639s3.755-5.5.636-8.64" transform="translate(89.922 11.505)" fill="#9cd169"/>
          </g>
          <g id="g5664" transform="translate(24.528 3.092)">
            <path id="path5666" d="M-79.364-10.154A8.239,8.239,0,0,0-81.2-11.505c1.222,2.552-.127,5.047-1.93,6.859S-87.4-1.491-89.922-2.691A8.248,8.248,0,0,0-88.595-.876c3.119,3.135,6.374,1.594,8.6-.639s3.755-5.5.636-8.64" transform="translate(89.922 11.505)" fill="#9cd169"/>
          </g>
          <g id="g5668" transform="translate(30.06 25.686)">
            <path id="path5670" d="M-137.958-24.779c1.635-1.431-.663-3.3-.663-3.3h-15.343a2.348,2.348,0,0,0-2.348,2.348Z" transform="translate(156.313 28.076)" fill="#d3effd"/>
          </g>
          <g id="g5672" transform="translate(30.06 25.686)">
            <path id="path5674" d="M-132.975,0V1.174a1.174,1.174,0,0,1-1.174,1.174h-16.517A2.348,2.348,0,0,0-148.318,4.7h15.343a2.348,2.348,0,0,0,2.348-2.348A2.349,2.349,0,0,0-132.975,0" transform="translate(150.666)" fill="#b2e5fb"/>
          </g>
          <g id="g5676" transform="translate(33.844 51.585)">
            <path id="path5678" d="M-79.617-37.452H-82.9l-1.139-4.983-6.173,7.8,5.159,1.879-.743,3.108,4.373-3.108Z" transform="translate(90.209 42.435)" fill="#f8e837"/>
          </g>
          <g id="g5680" transform="translate(39.138 49.101)">
            <path id="path5682" d="M-8.816-56.111h.846L-6.348-62.9a.548.548,0,0,0-.963-.467l-1.8,2.273-.847,3.534a1.174,1.174,0,0,0,1.14,1.448" transform="translate(9.989 63.577)" fill="#ecc52e"/>
          </g>
          <g id="g5684" transform="translate(32.941 59.386)">
            <path id="path5686" d="M-37.759,0h-4.12l-.784.991a.548.548,0,0,0,.43.888h5.514l.1-.432A1.174,1.174,0,0,0-37.759,0" transform="translate(42.783)" fill="#ecc52e"/>
          </g>
          <g id="g5688" transform="translate(37.365 56.568)">
            <path id="path5690" d="M-69.942,0h-2.233l-6.176,7.8-.88,3.68a.548.548,0,0,0,.963.467L-69.512.888A.548.548,0,0,0-69.942,0" transform="translate(79.247)" fill="#ecc52e"/>
          </g>
          <g id="g5692" transform="translate(43.31 1.174)">
            <path id="path5694" d="M-82.643-94.309c-3.119,3.135-6.374,1.594-8.6-.639s-3.755-5.5-.636-8.64,10.69-3.959,11.93-2.712S-79.524-97.444-82.643-94.309Z" transform="translate(93.638 106.856)" fill="none" stroke="#000" stroke-linecap="round" stroke-linejoin="round" stroke-miterlimit="10" stroke-width="2"/>
          </g>
          <g id="g5696" transform="translate(22.603 1.174)">
            <path id="path5698" d="M-106.661-58.6a5.123,5.123,0,0,0-1.707-4.527c-3.119-3.135-10.69-3.959-11.93-2.712s-.42,8.856,2.7,11.991c3.006,3.022,6.139,1.7,8.352-.4" transform="translate(120.852 66.395)" fill="none" stroke="#000" stroke-linecap="round" stroke-linejoin="round" stroke-miterlimit="10" stroke-width="2"/>
          </g>
          <g id="g5700" transform="translate(28.75 7.352)">
            <path id="path5702" d="M0,0,11.33,11.38,22.66,0" fill="none" stroke="#000" stroke-linecap="round" stroke-linejoin="round" stroke-miterlimit="10" stroke-width="2"/>
          </g>
          <g id="g5704" transform="translate(30.06 25.686)">
            <path id="path5706" d="M-75.313-152.6v-15.606h-7.672a2.348,2.348,0,0,1-2.348-2.348,2.348,2.348,0,0,1,2.348-2.348h15.343a2.348,2.348,0,0,1,2.348,2.348,2.348,2.348,0,0,1-2.348,2.348h-2.975" transform="translate(85.333 172.902)" fill="none" stroke="#000" stroke-linecap="round" stroke-linejoin="round" stroke-miterlimit="10" stroke-width="2"/>
          </g>
          <g id="g5708" transform="translate(40.08 18.732)">
            <path id="path5710" d="M0,0V6.8" fill="none" stroke="#000" stroke-linecap="round" stroke-linejoin="round" stroke-miterlimit="10" stroke-width="2"/>
          </g>
          <g id="g5712" transform="translate(16.596 30.696)">
            <path id="path5714" d="M-129.168,0V9.667c0,6.385-17.185,8.7-17.185,22.1,0,10.863,10.514,16.523,23.484,16.523s23.484-5.659,23.484-16.523c0-13.4-17.185-15.715-17.185-22.1V0" transform="translate(146.353)" fill="none" stroke="#000" stroke-linecap="round" stroke-linejoin="round" stroke-miterlimit="10" stroke-width="2"/>
          </g>
          <g id="g5716" transform="translate(17.115 59.931)">
            <path id="path5718" d="M-121.827-7.324c-5.439.911-10.858,1.138-16.208-.974" transform="translate(138.036 8.299)" fill="none" stroke="#000" stroke-linecap="round" stroke-linejoin="round" stroke-miterlimit="10" stroke-width="2"/>
          </g>
          <g id="g5720" transform="translate(51.511 57.51)">
            <path id="path5722" d="M-86.519-12.251A25.842,25.842,0,0,0-98.03-13.792" transform="translate(98.03 13.881)" fill="none" stroke="#000" stroke-linecap="round" stroke-linejoin="round" stroke-miterlimit="10" stroke-width="2"/>
          </g>
          <g id="g5724" transform="translate(32.941 49.101)">
            <path id="path5726" d="M-103.19-56.121H-108.7l1.622-6.789a.548.548,0,0,0-.963-.467L-116.8-52.312a.548.548,0,0,0,.43.888h5.514l-1.622,6.789a.548.548,0,0,0,.963.467l8.756-11.065A.548.548,0,0,0-103.19-56.121Z" transform="translate(116.919 63.587)" fill="none" stroke="#000" stroke-linecap="round" stroke-linejoin="round" stroke-miterlimit="10" stroke-width="2"/>
          </g>
          <g id="g5728" transform="translate(78.986 21.676)">
            <path id="path5730" d="M0-184.089v-24.492" transform="translate(0 208.581)" fill="none" stroke="#000" stroke-linecap="round" stroke-linejoin="round" stroke-miterlimit="10" stroke-width="2"/>
          </g>
          <g id="g5732" transform="translate(63.564 50.864)">
            <path id="path5734" d="M0-108.124H15.421v-14.385" transform="translate(0 122.509)" fill="none" stroke="#000" stroke-linecap="round" stroke-linejoin="round" stroke-miterlimit="10" stroke-width="2"/>
          </g>
          <g id="g5736" transform="translate(1.174 42.785)">
            <path id="path5738" d="M0,0V22.465H15.421" fill="none" stroke="#000" stroke-linecap="round" stroke-linejoin="round" stroke-miterlimit="10" stroke-width="2"/>
          </g>
          <g id="g5740" transform="translate(51.715 31.737)">
            <path id="path5742" d="M0-109.278a39.243,39.243,0,0,0,26.848-14.539" transform="translate(0 123.817)" fill="none" stroke="#000" stroke-linecap="round" stroke-linejoin="round" stroke-miterlimit="10" stroke-width="2"/>
          </g>
          <g id="g5744" transform="translate(1.5 45.231)">
            <path id="path5746" d="M0-76.49c1.706-1.879,10.694-10.142,28.6-10.177" transform="translate(0 86.666)" fill="none" stroke="#000" stroke-linecap="round" stroke-linejoin="round" stroke-miterlimit="10" stroke-width="2"/>
          </g>
          <g id="g5748" transform="translate(65.9 26.012)">
            <path id="path5750" d="M0-39.491l5.254-5.254" transform="translate(0 44.745)" fill="none" stroke="#000" stroke-linecap="round" stroke-linejoin="round" stroke-miterlimit="10" stroke-width="2"/>
          </g>
          <g id="g5752" transform="translate(65.9 26.012)">
            <path id="path5754" d="M0,0,5.254,5.254" fill="none" stroke="#000" stroke-linecap="round" stroke-linejoin="round" stroke-miterlimit="10" stroke-width="2"/>
          </g>
          <g id="g5756" transform="translate(54.796 21.939)">
            <path id="path5758" d="M0-41.539H1.862l2.208,3.8,4.691-9.324h9.916" transform="translate(0 47.065)" fill="none" stroke="#000" stroke-linecap="round" stroke-linejoin="round" stroke-miterlimit="10" stroke-width="2"/>
          </g>
          <g id="g5760" transform="translate(66.429 49.553)">
            <path id="path5762" d="M0,0H6.962" fill="none" stroke="#000" stroke-linecap="round" stroke-linejoin="round" stroke-miterlimit="10" stroke-width="2"/>
          </g>
          <g id="g5764" transform="translate(9.809 36.525)">
            <path id="path5766" d="M0,0H6.962" fill="none" stroke="#000" stroke-linecap="round" stroke-linejoin="round" stroke-miterlimit="10" stroke-width="2"/>
          </g>
          <g id="g5768" transform="translate(66.429 54.585)">
            <path id="path5770" d="M0,0H6.962" fill="none" stroke="#000" stroke-linecap="round" stroke-linejoin="round" stroke-miterlimit="10" stroke-width="2"/>
          </g>
          <g id="g5772" transform="translate(9.809 41.078)">
            <path id="path5774" d="M0,0H6.962" fill="none" stroke="#000" stroke-linecap="round" stroke-linejoin="round" stroke-miterlimit="10" stroke-width="2"/>
          </g>
          <g id="g5776" transform="translate(20.278 22.184)">
            <path id="path5778" d="M-102.788-23.444l-1.8-3.119h-7.916l-3.958,6.856,3.958,6.856h7.916l1.507-2.61" transform="translate(116.464 26.563)" fill="none" stroke="#000" stroke-linecap="round" stroke-linejoin="round" stroke-miterlimit="10" stroke-width="2"/>
          </g>
          <g id="g5780" transform="translate(8.404 15.328)">
            <path id="path5782" d="M-29.751-103.06h7.916l3.958-6.856-3.958-6.856h-7.916l-3.958,6.856Z" transform="translate(33.709 116.772)" fill="none" stroke="#000" stroke-linecap="round" stroke-linejoin="round" stroke-miterlimit="10" stroke-width="2"/>
          </g>
          <g id="g5784" transform="translate(13.291 6.078)">
            <path id="path5786" d="M-17.652-35.3A2.348,2.348,0,0,1-20-37.651,2.348,2.348,0,0,1-17.652-40,2.348,2.348,0,0,1-15.3-37.651,2.348,2.348,0,0,1-17.652-35.3Z" transform="translate(20 40)" fill="none" stroke="#000" stroke-linecap="round" stroke-linejoin="round" stroke-miterlimit="10" stroke-width="2"/>
          </g>
          <g id="g5788" transform="translate(1.174 29.322)">
            <path id="path5790" d="M0-17.652A2.348,2.348,0,0,1,2.348-20,2.348,2.348,0,0,1,4.7-17.652,2.348,2.348,0,0,1,2.348-15.3,2.348,2.348,0,0,1,0-17.652Z" transform="translate(0 20)" fill="none" stroke="#000" stroke-linecap="round" stroke-linejoin="round" stroke-miterlimit="10" stroke-width="2"/>
          </g>
          <g id="g5792" transform="translate(6.187 29.196)">
            <path id="path5794" d="M-45.237,0l-2.475,2.475h-3.544" transform="translate(51.256)" fill="none" stroke="#000" stroke-linecap="round" stroke-linejoin="round" stroke-miterlimit="10" stroke-width="2"/>
          </g>
          <g id="g5796" transform="translate(12.362 10.401)">
            <path id="path5798" d="M0-34.683V-37.44L1.857-39.3" transform="translate(0 39.297)" fill="none" stroke="#000" stroke-linecap="round" stroke-linejoin="round" stroke-miterlimit="10" stroke-width="2"/>
          </g>
        </g>
      </g>
    </g>
  </g>
</svg>
