<svg xmlns="http://www.w3.org/2000/svg" width="100" height="100" viewBox="0 0 100 100">
  <g id="Grupo_965429" data-name="Grupo 965429" transform="translate(-390 -6663)">
    <circle id="Elipse_5814" data-name="Elipse 5814" cx="50" cy="50" r="50" transform="translate(390 6663)" fill="#feb12e"/>
    <g id="capacitacion_2_" data-name="capacitacion (2)" transform="translate(412 6687)">
      <path id="Trazado_728921" data-name="Trazado 728921" d="M49,48h5.516v4.6H49Z" transform="translate(-4.871 -4.79)" fill="#eeb8ab"/>
      <path id="Trazado_728922" data-name="Trazado 728922" d="M50.839,49.944A2.974,2.974,0,0,1,49,49.3v3.4h5.516V49.3a2.974,2.974,0,0,1-1.839.641Z" transform="translate(-4.871 -4.895)" fill="#ffe1d3"/>
      <path id="Trazado_728923" data-name="Trazado 728923" d="M9,48h5.516v4.6H9Z" transform="translate(-1.645 -4.79)" fill="#eeb8ab"/>
      <path id="Trazado_728924" data-name="Trazado 728924" d="M10.839,49.944A2.974,2.974,0,0,1,9,49.3v3.4h5.516V49.3a2.974,2.974,0,0,1-1.839.641Z" transform="translate(-1.645 -4.895)" fill="#ffe1d3"/>
      <path id="Trazado_728925" data-name="Trazado 728925" d="M20,40H42.065V61.145H20Z" transform="translate(-2.532 -4.145)" fill="#893b1b"/>
      <path id="Trazado_728926" data-name="Trazado 728926" d="M42.306,41H23V54.79a3.678,3.678,0,0,0,3.677,3.677H42.306Z" transform="translate(-2.774 -4.226)" fill="#a44b2f"/>
      <path id="Trazado_728927" data-name="Trazado 728927" d="M37.548,38.71V33.194L39.5,35.147a2.747,2.747,0,0,0,3.258.469l8.192-4.468a2.5,2.5,0,0,0,1.305-2.2A2.19,2.19,0,0,0,49,27.033l-7.779,4.322-1.778-4.447c-.04-.1-.084-.2-.132-.294a3.872,3.872,0,0,0-2.7-2.066L33.871,24H28.355l-3.787.947A4.71,4.71,0,0,0,21,29.516V38.71" transform="translate(-2.613 -2.855)" fill="#b4b4b4"/>
      <path id="Trazado_728928" data-name="Trazado 728928" d="M50.31,26.757a2.19,2.19,0,0,0-1.065.276l-7.779,4.322-1.778-4.447c-.04-.1-.084-.2-.132-.294a3.872,3.872,0,0,0-2.7-2.066L34.113,24H28.6l-3.787.947a4.743,4.743,0,0,0-.509.174,4.686,4.686,0,0,0-.3,1.637v6.435a2.758,2.758,0,0,0,2.758,2.758H37.79V33.194l1.954,1.954A2.747,2.747,0,0,0,43,35.616l8.192-4.468a2.5,2.5,0,0,0,1.305-2.2,2.191,2.191,0,0,0-2.19-2.191Z" transform="translate(-2.855 -2.855)" fill="#c8c8c8"/>
      <path id="Trazado_728929" data-name="Trazado 728929" d="M34.758,27.677l3.035-3.035c-.1-.028-.192-.074-.3-.095L34.758,24,32,24.919Z" transform="translate(-3.5 -2.855)" fill="#b4b4b4"/>
      <path id="Trazado_728930" data-name="Trazado 728930" d="M31.5,24.919,28.742,24l-2.942.735,2.942,2.942Z" transform="translate(-3 -2.855)" fill="#b4b4b4"/>
      <path id="Trazado_728931" data-name="Trazado 728931" d="M33.845,27.023l-1.1,1.655H30.9l-1.1-1.655L31.823,25Z" transform="translate(-3.323 -2.935)" fill="#e66967"/>
      <path id="Trazado_728932" data-name="Trazado 728932" d="M29,21.2v2.577l2.758.919,2.758-.919V21.2Z" transform="translate(-3.258 -2.629)" fill="#eeb8ab"/>
      <path id="Trazado_728933" data-name="Trazado 728933" d="M24,11.24V6.6A4.6,4.6,0,0,1,28.6,2h4.6a2.758,2.758,0,0,1,2.758,2.758A2.758,2.758,0,0,1,38.71,7.516V11.24" transform="translate(-2.855 -1.081)" fill="#3f4042"/>
      <path id="Trazado_728934" data-name="Trazado 728934" d="M38.871,7.516a2.758,2.758,0,0,0-2.758-2.758A2.758,2.758,0,0,0,33.355,2h-4.6a4.566,4.566,0,0,0-2.644.846A4.591,4.591,0,0,0,26,3.839a4.643,4.643,0,0,0,4.643,4.643h8.228Z" transform="translate(-3.016 -1.081)" fill="#5a5b5d"/>
      <g id="Grupo_964923" data-name="Grupo 964923" transform="translate(19.306 6.435)">
        <path id="Trazado_728935" data-name="Trazado 728935" d="M37.032,10.758v4.6a5.516,5.516,0,1,1-11.032,0v-4.6h3.12A6.2,6.2,0,0,0,34.274,8Z" transform="translate(-22.323 -8)" fill="#eeb8ab"/>
        <path id="Trazado_728936" data-name="Trazado 728936" d="M25.677,12H24.3a2.3,2.3,0,1,0,0,4.6h1.455" transform="translate(-22 -8.323)" fill="#eeb8ab"/>
        <path id="Trazado_728937" data-name="Trazado 728937" d="M37.993,12h1.379a2.3,2.3,0,0,1,0,4.6H37.917" transform="translate(-23.284 -8.323)" fill="#eeb8ab"/>
      </g>
      <path id="Trazado_728938" data-name="Trazado 728938" d="M33.677,39.113,32.758,29H30.919L30,39.113Z" transform="translate(-3.339 -3.258)" fill="#e66967"/>
      <path id="Trazado_728939" data-name="Trazado 728939" d="M32.056,20.848a5.514,5.514,0,0,0,5.056-5.493v-4.6L34.355,8A6.2,6.2,0,0,1,29.2,10.758H27v4.6A5.514,5.514,0,0,0,32.056,20.848Z" transform="translate(-3.097 -1.565)" fill="#ffe1d3"/>
      <path id="Trazado_728940" data-name="Trazado 728940" d="M34.6,22.191a5.463,5.463,0,0,1-4.6.423v1.24l2.3.766,2.3-.766Z" transform="translate(-3.339 -2.709)" fill="#ffe1d3"/>
      <path id="Trazado_728941" data-name="Trazado 728941" d="M31.919,29,31,39.113h2.758L32.839,29Z" transform="translate(-3.419 -3.258)" fill="#ee8382"/>
      <path id="Trazado_728942" data-name="Trazado 728942" d="M24,32h1.839v7.355H24Z" transform="translate(-2.855 -3.5)" fill="#959595"/>
      <path id="Trazado_728943" data-name="Trazado 728943" d="M10.677,48.032a2.975,2.975,0,0,1-2.661-1.645l-.235-.47A7.4,7.4,0,0,1,7,42.607V40.292A3.293,3.293,0,0,1,10.292,37H12.9a3.293,3.293,0,0,1,3.292,3.292v2.315a7.4,7.4,0,0,1-.781,3.311l-.234.47a2.977,2.977,0,0,1-2.662,1.645Z" transform="translate(-1.484 -3.903)" fill="#893b1b"/>
      <path id="Trazado_728944" data-name="Trazado 728944" d="M29,48h5.516v4.6H29Z" transform="translate(-3.258 -4.79)" fill="#eeb8ab"/>
      <path id="Trazado_728945" data-name="Trazado 728945" d="M47.839,7H58.871A1.838,1.838,0,0,1,60.71,8.839v7.355a1.838,1.838,0,0,1-1.839,1.839H53.355l-5.516,4.6.919-4.6h-.919A1.838,1.838,0,0,1,46,16.194V8.839A1.838,1.838,0,0,1,47.839,7Z" transform="translate(-4.629 -1.484)" fill="#6ac4e8"/>
      <path id="Trazado_728946" data-name="Trazado 728946" d="M59.032,7H48v6.435a2.758,2.758,0,0,0,2.758,2.758H60.871V8.839A1.838,1.838,0,0,0,59.032,7Z" transform="translate(-4.79 -1.484)" fill="#8edff8"/>
      <path id="Trazado_728947" data-name="Trazado 728947" d="M57,14h1.839v1.839H57Z" transform="translate(-5.516 -2.048)" fill="#fff"/>
      <path id="Trazado_728948" data-name="Trazado 728948" d="M53,14h1.839v1.839H53Z" transform="translate(-5.194 -2.048)" fill="#fff"/>
      <path id="Trazado_728949" data-name="Trazado 728949" d="M49,14h1.839v1.839H49Z" transform="translate(-4.871 -2.048)" fill="#fff"/>
      <path id="Trazado_728950" data-name="Trazado 728950" d="M52.35,27a2.19,2.19,0,0,0-1.065.276l-2,1.109,2.247,3.932,1.7-.926a2.5,2.5,0,0,0,1.305-2.2A2.191,2.191,0,0,0,52.35,27Z" transform="translate(-4.894 -3.097)" fill="#ffe1d3"/>
      <path id="Trazado_728951" data-name="Trazado 728951" d="M14.023,37.169A3.282,3.282,0,0,0,12.982,37H10.373a3.288,3.288,0,0,0-2.334.973A3.2,3.2,0,0,0,8,38.453v2.315a7.4,7.4,0,0,0,.781,3.311l.234.47a2.977,2.977,0,0,0,2.662,1.645h1.839a2.969,2.969,0,0,0,2.341-1.15,7.411,7.411,0,0,0,.417-2.436V40.292a3.291,3.291,0,0,0-2.251-3.123Z" transform="translate(-1.565 -3.903)" fill="#a44b2f"/>
      <path id="Trazado_728952" data-name="Trazado 728952" d="M30.677,48.032a2.975,2.975,0,0,1-2.661-1.645l-.235-.47A7.4,7.4,0,0,1,27,42.607V40.292A3.293,3.293,0,0,1,30.292,37H32.9a3.293,3.293,0,0,1,3.292,3.292v2.315a7.4,7.4,0,0,1-.781,3.311l-.234.47a2.977,2.977,0,0,1-2.662,1.645Z" transform="translate(-3.097 -3.903)" fill="#3f4042"/>
      <path id="Trazado_728953" data-name="Trazado 728953" d="M50.677,48.032a2.975,2.975,0,0,1-2.661-1.645l-.235-.47A7.4,7.4,0,0,1,47,42.607V40.292A3.293,3.293,0,0,1,50.292,37H52.9a3.293,3.293,0,0,1,3.292,3.292v2.315a7.4,7.4,0,0,1-.781,3.311l-.234.47a2.977,2.977,0,0,1-2.662,1.645Z" transform="translate(-4.71 -3.903)" fill="#c99728"/>
      <path id="Trazado_728954" data-name="Trazado 728954" d="M54.023,37.169A3.282,3.282,0,0,0,52.982,37H50.373a3.288,3.288,0,0,0-2.334.973,3.2,3.2,0,0,0-.039.481v2.315a7.4,7.4,0,0,0,.781,3.311l.234.47a2.977,2.977,0,0,0,2.662,1.645h1.839a2.969,2.969,0,0,0,2.341-1.15,7.411,7.411,0,0,0,.417-2.436V40.292a3.291,3.291,0,0,0-2.252-3.123Z" transform="translate(-4.79 -3.903)" fill="#e7b532"/>
      <path id="Trazado_728955" data-name="Trazado 728955" d="M34.023,37.169A3.282,3.282,0,0,0,32.982,37H30.373a3.288,3.288,0,0,0-2.334.973,3.2,3.2,0,0,0-.039.481v2.315a7.4,7.4,0,0,0,.781,3.311l.234.47a2.977,2.977,0,0,0,2.662,1.645h1.839a2.969,2.969,0,0,0,2.341-1.15,7.411,7.411,0,0,0,.417-2.436V40.292a3.291,3.291,0,0,0-2.252-3.123Z" transform="translate(-3.177 -3.903)" fill="#5a5b5d"/>
      <path id="Trazado_728956" data-name="Trazado 728956" d="M4,62.194V55.758A2.758,2.758,0,0,1,6.758,53h9.194a2.758,2.758,0,0,1,2.758,2.758v6.435" transform="translate(-1.242 -5.194)" fill="#6bb566"/>
      <path id="Trazado_728957" data-name="Trazado 728957" d="M9.758,59.435h9.194V55.758A2.758,2.758,0,0,0,16.194,53H7v3.677A2.758,2.758,0,0,0,9.758,59.435Z" transform="translate(-1.484 -5.194)" fill="#89c683"/>
      <path id="Trazado_728958" data-name="Trazado 728958" d="M24,62.194V55.758A2.758,2.758,0,0,1,26.758,53h9.194a2.758,2.758,0,0,1,2.758,2.758v6.435" transform="translate(-2.855 -5.194)" fill="#6bb566"/>
      <path id="Trazado_728959" data-name="Trazado 728959" d="M29.758,59.435h9.194V55.758A2.758,2.758,0,0,0,36.194,53H27v3.677A2.758,2.758,0,0,0,29.758,59.435Z" transform="translate(-3.097 -5.194)" fill="#89c683"/>
      <path id="Trazado_728960" data-name="Trazado 728960" d="M44,62.194V55.758A2.758,2.758,0,0,1,46.758,53h9.194a2.758,2.758,0,0,1,2.758,2.758v6.435" transform="translate(-4.468 -5.194)" fill="#6bb566"/>
      <path id="Trazado_728961" data-name="Trazado 728961" d="M49.758,59.435h9.194V55.758A2.758,2.758,0,0,0,56.194,53H47v3.677A2.758,2.758,0,0,0,49.758,59.435Z" transform="translate(-4.71 -5.194)" fill="#89c683"/>
      <path id="Trazado_728962" data-name="Trazado 728962" d="M30.839,49.944A2.974,2.974,0,0,1,29,49.3v3.4h5.516V49.3a2.974,2.974,0,0,1-1.839.641Z" transform="translate(-3.258 -4.895)" fill="#ffe1d3"/>
      <path id="Trazado_728963" data-name="Trazado 728963" d="M14.871,2H3.839A1.838,1.838,0,0,0,2,3.839v7.355a1.838,1.838,0,0,0,1.839,1.839H9.355l5.516,4.6-.919-4.6h.919a1.838,1.838,0,0,0,1.839-1.839V3.839A1.838,1.838,0,0,0,14.871,2Z" transform="translate(-1.081 -1.081)" fill="#6ac4e8"/>
      <path id="Trazado_728964" data-name="Trazado 728964" d="M15.032,2H4V8.435a2.758,2.758,0,0,0,2.758,2.758H16.871V3.839A1.838,1.838,0,0,0,15.032,2Z" transform="translate(-1.242 -1.081)" fill="#8edff8"/>
      <path id="Trazado_728965" data-name="Trazado 728965" d="M5,9H6.839v1.839H5Z" transform="translate(-1.323 -1.645)" fill="#fff"/>
      <path id="Trazado_728966" data-name="Trazado 728966" d="M9,9h1.839v1.839H9Z" transform="translate(-1.645 -1.645)" fill="#fff"/>
      <path id="Trazado_728967" data-name="Trazado 728967" d="M13,9h1.839v1.839H13Z" transform="translate(-1.968 -1.645)" fill="#fff"/>
      <path id="Trazado_728968" data-name="Trazado 728968" d="M17.71,48.4a3.64,3.64,0,0,0-1.839-.511h-.919V44.9a3.906,3.906,0,0,0,.725-1l.234-.47A8.365,8.365,0,0,0,16.79,39.7V37.389a4.212,4.212,0,0,0-4.212-4.212H9.97a4.211,4.211,0,0,0-4.212,4.212V39.7a8.365,8.365,0,0,0,.879,3.722l.234.47a3.891,3.891,0,0,0,.725,1v2.991H6.677A3.681,3.681,0,0,0,3,51.565V58H4.839V51.565a1.841,1.841,0,0,1,1.839-1.839h9.194a1.841,1.841,0,0,1,1.839,1.839V58h1.839V37.774h4.6V39.7a8.365,8.365,0,0,0,.879,3.722l.234.47a3.907,3.907,0,0,0,.725,1v2.991h-.919a3.681,3.681,0,0,0-3.677,3.677V58h1.839V51.565a1.841,1.841,0,0,1,1.839-1.839h9.194A1.841,1.841,0,0,1,36.1,51.565V58h1.839V51.565a3.681,3.681,0,0,0-3.677-3.677h-.919V44.9a3.906,3.906,0,0,0,.725-1l.234-.47a8.365,8.365,0,0,0,.879-3.722v-1.93h4.6V58h1.839V51.565a1.841,1.841,0,0,1,1.839-1.839h9.194a1.841,1.841,0,0,1,1.839,1.839V58h1.839V51.565a3.681,3.681,0,0,0-3.677-3.677h-.919V44.9a3.907,3.907,0,0,0,.725-1l.234-.47a8.365,8.365,0,0,0,.879-3.722V37.389a4.212,4.212,0,0,0-4.212-4.212H46.744a4.211,4.211,0,0,0-4.212,4.212V39.7a8.365,8.365,0,0,0,.879,3.722l.234.47a3.907,3.907,0,0,0,.725,1v2.991h-.919a3.64,3.64,0,0,0-1.839.511V36.855a.92.92,0,0,0-.919-.919H37.016V33.558l.383.383a3.734,3.734,0,0,0,4.349.627L49.94,30.1a3.423,3.423,0,0,0,1.785-3.007,3.11,3.11,0,0,0-4.621-2.719l-6.866,3.814L38.85,24.716c-.05-.124-.1-.246-.165-.368a4.762,4.762,0,0,0-3.346-2.556l-2-.4V20.064a6.454,6.454,0,0,0,2.487-3.435h.731a3.21,3.21,0,0,0,1.379-6.113V7.435a3.683,3.683,0,0,0-2.852-3.584A3.683,3.683,0,0,0,31.5,1H26.9a5.522,5.522,0,0,0-5.516,5.516v4a3.21,3.21,0,0,0,1.379,6.113H23.5a6.45,6.45,0,0,0,2.487,3.435v1.363l-3.091.772a5.623,5.623,0,0,0-4.264,5.462v8.274a.92.92,0,0,0-.919.919ZM7.6,37.389A2.372,2.372,0,0,1,9.97,35.016h2.609a2.372,2.372,0,0,1,2.373,2.373V39.7a6.506,6.506,0,0,1-.685,2.9l-.234.47a2.044,2.044,0,0,1-1.839,1.136H10.355a2.044,2.044,0,0,1-1.839-1.136l-.234-.47A6.506,6.506,0,0,1,7.6,39.7Zm1.839,8.543a3.911,3.911,0,0,0,.919.117h1.839a3.911,3.911,0,0,0,.919-.117v1.955H9.435Zm34.935-8.543a2.372,2.372,0,0,1,2.373-2.373h2.609a2.372,2.372,0,0,1,2.373,2.373V39.7a6.506,6.506,0,0,1-.685,2.9l-.234.47a2.044,2.044,0,0,1-1.839,1.136H47.129a2.044,2.044,0,0,1-1.839-1.136l-.234-.47a6.506,6.506,0,0,1-.685-2.9Zm1.839,8.543a3.911,3.911,0,0,0,.919.117h1.839a3.911,3.911,0,0,0,.919-.117v1.955H46.21ZM31.5,47.887H27.823V45.932a3.911,3.911,0,0,0,.919.117h1.839a3.911,3.911,0,0,0,.919-.117ZM33.339,39.7a6.506,6.506,0,0,1-.685,2.9l-.234.47a2.044,2.044,0,0,1-1.839,1.136H28.742A2.044,2.044,0,0,1,26.9,43.073l-.234-.47a6.506,6.506,0,0,1-.685-2.9V37.389a2.372,2.372,0,0,1,2.373-2.373h2.609a2.372,2.372,0,0,1,2.373,2.373ZM26.866,23.1l1.093.364L26.9,24.523,25.76,23.379Zm5.613-.007,1.141.228-1.2,1.2-1.056-1.056Zm-2.9,4.566h.159l.5,5.516H29.079Zm.08-3.3.839.839-.412.619h-.855l-.413-.619ZM48,25.982a1.271,1.271,0,0,1,1.888,1.111,1.587,1.587,0,0,1-.826,1.393l-.906.495-1.339-2.342ZM37.04,25.168c.036.074.07.147.1.226l1.778,4.447a.919.919,0,0,0,.546.525.93.93,0,0,0,.755-.063l4.988-2.772L46.54,29.86l-5.671,3.094a1.86,1.86,0,0,1-2.169-.313l-1.954-1.954a.919.919,0,0,0-1.569.651v4.6H34.91A4.2,4.2,0,0,0,32.3,33.393c-.063-.021-.129-.029-.193-.048l-.578-6.364.31-.465a.895.895,0,0,0,1.234-.044L35.7,23.845a2.933,2.933,0,0,1,1.343,1.323ZM36.556,14.79H36.1V12.032h.46a1.379,1.379,0,0,1,0,2.758ZM23.226,6.516A3.681,3.681,0,0,1,26.9,2.839h4.6a1.841,1.841,0,0,1,1.839,1.839.92.92,0,0,0,.919.919A1.841,1.841,0,0,1,36.1,7.435v2.758a.917.917,0,0,0-.269-.65L33.069,6.786a.919.919,0,0,0-1.415.14,5.263,5.263,0,0,1-4.388,2.349H24.145a.92.92,0,0,0-.919.919Zm-.46,8.274a1.379,1.379,0,1,1,0-2.758h.46V14.79Zm2.3,0V11.113h2.2a7.1,7.1,0,0,0,5.235-2.3l1.757,1.758V14.79a4.6,4.6,0,0,1-9.194,0Zm4.6,6.435a6.4,6.4,0,0,0,1.839-.271v.528l-1.839.613-1.839-.613v-.528A6.4,6.4,0,0,0,29.661,21.226Zm-9.194,6.435a3.785,3.785,0,0,1,2.871-3.677l.34-.086,2.574,2.574a.895.895,0,0,0,1.234.044l.31.465-.578,6.364c-.064.018-.13.027-.193.048a4.2,4.2,0,0,0-2.612,2.542h-.268V29.5H22.306v6.435H20.468Z" transform="translate(-1.161 -1)"/>
      <path id="Trazado_728969" data-name="Trazado 728969" d="M3.758,13.871H8.941L14.2,18.254a.919.919,0,0,0,1.489-.887l-.7-3.5a2.76,2.76,0,0,0,2.558-2.75V3.758A2.761,2.761,0,0,0,14.79,1H3.758A2.761,2.761,0,0,0,1,3.758v7.355a2.761,2.761,0,0,0,2.758,2.758ZM2.839,3.758a.921.921,0,0,1,.919-.919H14.79a.921.921,0,0,1,.919.919v7.355a.921.921,0,0,1-.919.919h-.919a.919.919,0,0,0-.9,1.1l.408,2.043L9.863,12.246a.918.918,0,0,0-.588-.213H3.758a.921.921,0,0,1-.919-.919Z" transform="translate(-1 -1)"/>
      <path id="Trazado_728970" data-name="Trazado 728970" d="M5,9H6.839v1.839H5Z" transform="translate(-1.323 -1.645)"/>
      <path id="Trazado_728971" data-name="Trazado 728971" d="M9,9h1.839v1.839H9Z" transform="translate(-1.645 -1.645)"/>
      <path id="Trazado_728972" data-name="Trazado 728972" d="M13,9h1.839v1.839H13Z" transform="translate(-1.968 -1.645)"/>
      <path id="Trazado_728973" data-name="Trazado 728973" d="M58.79,6H47.758A2.761,2.761,0,0,0,45,8.758v7.355a2.761,2.761,0,0,0,2.558,2.751l-.7,3.5a.919.919,0,0,0,1.489.886l5.261-4.383H58.79a2.761,2.761,0,0,0,2.758-2.758V8.758A2.761,2.761,0,0,0,58.79,6Zm.919,10.113a.921.921,0,0,1-.919.919H53.274a.918.918,0,0,0-.588.213L49.17,20.175l.408-2.043a.919.919,0,0,0-.9-1.1h-.919a.921.921,0,0,1-.919-.919V8.758a.921.921,0,0,1,.919-.919H58.79a.921.921,0,0,1,.919.919Z" transform="translate(-4.548 -1.403)"/>
      <path id="Trazado_728974" data-name="Trazado 728974" d="M57,14h1.839v1.839H57Z" transform="translate(-5.516 -2.048)"/>
      <path id="Trazado_728975" data-name="Trazado 728975" d="M53,14h1.839v1.839H53Z" transform="translate(-5.194 -2.048)"/>
      <path id="Trazado_728976" data-name="Trazado 728976" d="M49,14h1.839v1.839H49Z" transform="translate(-4.871 -2.048)"/>
    </g>
  </g>
</svg>
