<svg id="capacitacion" xmlns="http://www.w3.org/2000/svg" width="118" height="118" viewBox="0 0 118 118">
  <path id="Trazado_728132" data-name="Trazado 728132" d="M116.156,0H42.406a1.842,1.842,0,0,0-1.844,1.844V36.873L29.5,36.868v-2a14.742,14.742,0,0,0,7.375-12.737V15.67A15.6,15.6,0,0,0,32.784,5.15,1.792,1.792,0,0,0,32.645,5,15.649,15.649,0,0,0,5.531,15.67v.915a2.134,2.134,0,0,0,.044.221,1.74,1.74,0,0,0,.072.356,1.862,1.862,0,0,0,.148.319,1.539,1.539,0,0,0,.454.527,1.609,1.609,0,0,0,.282.19,1.82,1.82,0,0,0,.35.131,1.937,1.937,0,0,0,.2.076c.1.017.188.02.289.035v3.689A14.742,14.742,0,0,0,14.75,34.865v2.013H9.237c-.007,0-.011,0-.018,0A9.229,9.229,0,0,0,0,46.094V57.156a1.844,1.844,0,0,0,3.688,0V46.094a5.535,5.535,0,0,1,5.518-5.529l.013,0h6.625l1.291,1.291c.018.02.044.026.065.042a1.819,1.819,0,0,0,.465.308,1.468,1.468,0,0,0,.159.068,1.862,1.862,0,0,0,.612.12h.006l.009,0a1.814,1.814,0,0,0,.749-.179c.022-.009.042,0,.065-.015l2.863-1.429L24.988,42.2c.022.011.042.006.065.015a1.821,1.821,0,0,0,.749.179l.009,0h.006a1.862,1.862,0,0,0,.612-.12,1.468,1.468,0,0,0,.159-.068,1.819,1.819,0,0,0,.466-.31c.018-.017.044-.024.063-.041l1.3-1.3,13.981.007s0,0,.006,0l.006,0,1.836,0h0a7.382,7.382,0,0,0,7.375-7.375,1.844,1.844,0,0,1,3.688,0A11.074,11.074,0,0,1,44.25,44.25H35.031a1.842,1.842,0,0,0-1.844,1.844V57.156a1.844,1.844,0,0,0,3.688,0V47.937h3.688v9.219A1.842,1.842,0,0,0,42.406,59h73.75A1.842,1.842,0,0,0,118,57.156V1.844A1.842,1.842,0,0,0,116.156,0Zm-84.5,9.823a11.93,11.93,0,0,1,1.305,3.546,7.573,7.573,0,0,0-2.419-1.28ZM21.2,3.688a11.925,11.925,0,0,1,7.893,2.987l-2.732,5.564c-.73.214-1.486.5-2.29.817a27.08,27.08,0,0,1-14.816,1.9A11.986,11.986,0,0,1,21.2,3.688ZM11.062,22.116V18.841a29.949,29.949,0,0,0,14.366-2.356c3.477-1.377,4.512-1.772,7.758,2.351v3.28a11.063,11.063,0,0,1-22.125,0ZM22.125,36.86a14.674,14.674,0,0,0,3.688-.487v1.573l-.363.363-2.5-1.25c-.041-.02-.085-.017-.125-.035a1.992,1.992,0,0,0-.36-.1,1.8,1.8,0,0,0-.339-.042,1.94,1.94,0,0,0-.339.042,1.851,1.851,0,0,0-.36.1c-.041.018-.085.015-.125.035l-2.5,1.25-.367-.363V36.374a14.591,14.591,0,0,0,3.688.487Zm92.188,18.452H44.25V47.938A14.767,14.767,0,0,0,59,33.188a5.531,5.531,0,0,0-11.062,0,3.691,3.691,0,0,1-3.687,3.688V3.688h70.063Z" fill="#12263f"/>
  <path id="Trazado_728133" data-name="Trazado 728133" d="M7.688,36.063V26.844a1.844,1.844,0,0,0-3.687,0v9.219a1.844,1.844,0,0,0,3.688,0Z" transform="translate(3.375 21.094)" fill="#12263f"/>
  <path id="Trazado_728134" data-name="Trazado 728134" d="M73.5,73.711c-.02,0-.035.011-.053.011H69.813V69.865A14.74,14.74,0,0,0,77.18,57.258c0-.011,0-.022,0-.035,0-.033.006-.063.006-.1v-9.2c0-.007,0-.013,0-.018a7.37,7.37,0,0,0-5.535-7.115V36.844A1.842,1.842,0,0,0,69.813,35H60.594A12.923,12.923,0,0,0,47.687,47.9v9.232c0,.033.006.063.006.1,0,.013,0,.024,0,.035a14.74,14.74,0,0,0,7.368,12.608v3.857H51.428c-.02,0-.035-.011-.053-.011A7.382,7.382,0,0,0,44,81.086v5.539a1.842,1.842,0,0,0,1.844,1.844H79.031a1.842,1.842,0,0,0,1.844-1.844v-5.54A7.382,7.382,0,0,0,73.5,73.711ZM60.594,38.687h7.375v3.688a1.842,1.842,0,0,0,1.844,1.844A3.693,3.693,0,0,1,73.5,47.89s0,.006,0,.009v8.738a13.177,13.177,0,0,1-22.125,0V47.906A9.229,9.229,0,0,1,60.594,38.687Zm-6.77,25.35a17.238,17.238,0,0,0,17.228,0,11.039,11.039,0,0,1-17.228,0Zm8.614,7.823a14.674,14.674,0,0,0,3.687-.487V73.71H58.75V71.374A14.591,14.591,0,0,0,62.438,71.86ZM51.338,77.4c.013,0,.024.007.037.007h5.531c.022,0,.039-.013.063-.013H67.906c.024,0,.041.013.063.013H73.5c.013,0,.024-.007.037-.007a3.687,3.687,0,0,1,3.651,3.682v3.7h-29.5v-3.7A3.688,3.688,0,0,1,51.338,77.4Z" transform="translate(37.125 29.531)" fill="#12263f"/>
  <path id="Trazado_728135" data-name="Trazado 728135" d="M1.844,88.469H35.031a1.842,1.842,0,0,0,1.844-1.844v-5.54A7.382,7.382,0,0,0,29.5,73.711c-.02,0-.035.011-.053.011H25.813V69.865A14.74,14.74,0,0,0,33.18,57.258c0-.011,0-.022,0-.035,0-.033.006-.063.006-.1V49.741a14.75,14.75,0,0,0-29.5,0v7.386c0,.033.006.063.006.1,0,.013,0,.024,0,.035a14.739,14.739,0,0,0,7.368,12.606v3.857H7.428c-.02,0-.035-.011-.053-.011A7.382,7.382,0,0,0,0,81.085v5.54a1.842,1.842,0,0,0,1.844,1.844ZM18.438,38.688A11.07,11.07,0,0,1,29.5,49.743v6.894a12.83,12.83,0,0,1-11.062,6.02A12.769,12.769,0,0,1,7.375,56.64v-6.9A11.07,11.07,0,0,1,18.438,38.687ZM9.823,64.037a16.492,16.492,0,0,0,8.614,2.307,16.492,16.492,0,0,0,8.614-2.307,11.039,11.039,0,0,1-17.228,0Zm8.614,7.823a14.674,14.674,0,0,0,3.688-.487V73.71H14.75V71.374A14.591,14.591,0,0,0,18.438,71.86ZM7.338,77.4c.013,0,.024.007.037.007h5.531c.022,0,.039-.013.063-.013H23.906c.024,0,.041.013.063.013H29.5c.013,0,.024-.007.037-.007a3.687,3.687,0,0,1,3.651,3.682v3.7H3.687v-3.7A3.688,3.688,0,0,1,7.338,77.4Z" transform="translate(0 29.531)" fill="#12263f"/>
  <path id="Trazado_728136" data-name="Trazado 728136" d="M33.063,74.531H29.428c-.02,0-.035-.011-.053-.011A7.382,7.382,0,0,0,22,81.893v5.54a1.842,1.842,0,0,0,1.844,1.844H57.031a1.842,1.842,0,0,0,1.844-1.844v-5.54A7.382,7.382,0,0,0,51.5,74.52c-.02,0-.035.011-.053.011H47.813V73.27a1.776,1.776,0,0,0-.118-.586h9.337a1.842,1.842,0,0,0,1.844-1.844V52.479a18.438,18.438,0,0,0-36.875,0V70.84a1.842,1.842,0,0,0,1.844,1.844h9.337a1.785,1.785,0,0,0-.118.586Zm22.125,7.362v3.7h-29.5v-3.7a3.688,3.688,0,0,1,3.651-3.682c.013,0,.024.007.037.007h5.271l5.207,1.735s.007,0,.009,0a1.807,1.807,0,0,0,1.15,0s.006,0,.009,0l5.207-1.735H51.5c.013,0,.024-.007.037-.007A3.688,3.688,0,0,1,55.188,81.893ZM40.438,37.729a14.767,14.767,0,0,1,14.75,14.75V69h-29.5V52.479A14.767,14.767,0,0,1,40.438,37.729Zm3.806,34.954a1.785,1.785,0,0,0-.118.586v1.763l-3.687,1.23-3.687-1.23V73.27a1.775,1.775,0,0,0-.118-.586Z" transform="translate(18.563 28.723)" fill="#12263f"/>
  <path id="Trazado_728137" data-name="Trazado 728137" d="M39.529,37.186a5.531,5.531,0,0,0,0,11.063H50.588a5.52,5.52,0,0,0,5.19-3.686h15.1a1.842,1.842,0,0,0,1.844-1.844V31.658H80.1a1.842,1.842,0,0,0,1.844-1.844V22.438A1.842,1.842,0,0,0,80.1,20.594H61.658a1.842,1.842,0,0,0-1.844,1.844v1.846H54.786L46.9,19.552v-4.49h3.686A5.531,5.531,0,0,0,50.588,4H39.529a5.531,5.531,0,0,0,0,11.063h3.686v4.49l-8.323,4.995a1.843,1.843,0,0,0,0,3.16L43.215,32.7v4.484Zm0-29.5H50.588a1.844,1.844,0,1,1,0,3.687H39.529a1.844,1.844,0,0,1,0-3.687Zm0,33.186H50.588a1.844,1.844,0,0,1,0,3.688H39.529a1.844,1.844,0,0,1,0-3.687ZM63.5,24.281h14.75v3.689H63.5ZM45.059,22.745l5.635,3.381-5.635,3.381-5.634-3.381ZM46.9,32.7l7.884-4.731h5.028v1.844a1.842,1.842,0,0,0,1.844,1.844h7.375v9.217H55.78a5.523,5.523,0,0,0-5.192-3.689H46.9Z" transform="translate(28.686 3.375)" fill="#12263f"/>
</svg>
