<svg xmlns="http://www.w3.org/2000/svg" width="105" height="105" viewBox="0 0 105 105">
  <g id="Grupo_965418" data-name="Grupo 965418" transform="translate(-275 -2704)">
    <path id="Trazado_730046" data-name="Trazado 730046" d="M52.5,0A52.5,52.5,0,1,1,0,52.5,52.5,52.5,0,0,1,52.5,0Z" transform="translate(275 2704)" fill="#feb12e"/>
    <g id="comunidad" transform="translate(276.807 2724)">
      <g id="Grupo_964613" data-name="Grupo 964613" transform="translate(22.151 0.958)">
        <path id="Trazado_728088" data-name="Trazado 728088" d="M56.683,369.886H29.744a1.052,1.052,0,0,1-1.052-1.052v-8.816a4.206,4.206,0,0,1,4.206-4.206h4.958l5.663,1.278,5.051-1.278h4.958a4.206,4.206,0,0,1,4.206,4.206v8.816A1.051,1.051,0,0,1,56.683,369.886Z" transform="translate(-28.692 -311.311)" fill="#b5adb6"/>
        <path id="Trazado_728089" data-name="Trazado 728089" d="M74.932,173.62v-7.686a4.646,4.646,0,0,1,4.646-4.646H86.11a4.336,4.336,0,0,1,4.336,4.336h.234c.818.007,1.245.672,1.245,1.491v6.5Z" transform="translate(-69.024 -141.64)" fill="#ffd064"/>
        <path id="Trazado_728090" data-name="Trazado 728090" d="M67.456,252.1h-.633a2.366,2.366,0,0,0,0,4.732h.633Z" transform="translate(-59.887 -220.848)" fill="#ffbd86"/>
        <path id="Trazado_728091" data-name="Trazado 728091" d="M109.322,310.165v-6.687h-7.094v6.687h-1.81v1a5.357,5.357,0,1,0,10.714,0v-1Z" transform="translate(-91.254 -265.662)" fill="#ffbd86"/>
        <path id="Trazado_728092" data-name="Trazado 728092" d="M94.011,214.415a7.126,7.126,0,0,1-7.08-7.172v-4.965a7.081,7.081,0,1,1,14.16,0v4.965A7.126,7.126,0,0,1,94.011,214.415Z" transform="translate(-79.49 -171.137)" fill="#fed2a4"/>
        <path id="Trazado_728093" data-name="Trazado 728093" d="M135.168,195.107a7.048,7.048,0,0,0-1.052.079,7.145,7.145,0,0,1,6.029,7.093v4.965a7.145,7.145,0,0,1-6.029,7.093,7.046,7.046,0,0,0,1.052.079,7.126,7.126,0,0,0,7.08-7.172v-4.965A7.126,7.126,0,0,0,135.168,195.107Z" transform="translate(-120.646 -171.137)" fill="#ffbd86"/>
        <path id="Trazado_728094" data-name="Trazado 728094" d="M81.426,191.833s13.464,4.949,13.464,0C94.89,191.833,89.213,184.264,81.426,191.833Z" transform="translate(-74.688 -165.347)" fill="#ffd064"/>
        <path id="Trazado_728095" data-name="Trazado 728095" d="M153.963,165.624a4.336,4.336,0,0,0-4.336-4.336h-2.142a4.336,4.336,0,0,1,4.336,4.336,1.491,1.491,0,0,1,1.479,1.491v6.5h2.142v-6.5A1.492,1.492,0,0,0,153.963,165.624Z" transform="translate(-132.308 -141.639)" fill="#ffc250"/>
        <path id="Trazado_728096" data-name="Trazado 728096" d="M206.571,355.814h-2.418a4.206,4.206,0,0,1,4.206,4.206v8.816a1.052,1.052,0,0,1-1.051,1.051h2.418a1.052,1.052,0,0,0,1.051-1.051V360.02A4.206,4.206,0,0,0,206.571,355.814Z" transform="translate(-181.735 -311.312)" fill="#a79ba7"/>
        <path id="Trazado_728097" data-name="Trazado 728097" d="M282.712,369.886H257.051A1.052,1.052,0,0,1,256,368.835v-8.816a4.206,4.206,0,0,1,4.206-4.206h4.958l5.357,1.278,5.357-1.278h3.68a4.206,4.206,0,0,1,4.206,4.206v8.816A1.052,1.052,0,0,1,282.712,369.886Z" transform="translate(-226.957 -311.311)" fill="#b5adb6"/>
        <path id="Trazado_728098" data-name="Trazado 728098" d="M302.24,173.62v-7.686a4.646,4.646,0,0,1,4.646-4.646h6.532a4.336,4.336,0,0,1,4.336,4.336h.234c.818.007,1.245.672,1.245,1.491v6.5Z" transform="translate(-267.29 -141.64)" fill="#ffd064"/>
        <path id="Trazado_728099" data-name="Trazado 728099" d="M381.271,165.624a4.336,4.336,0,0,0-4.336-4.336h-2.142a4.336,4.336,0,0,1,4.336,4.336,1.491,1.491,0,0,1,1.479,1.491v6.5h2.142v-6.5A1.492,1.492,0,0,0,381.271,165.624Z" transform="translate(-330.574 -141.639)" fill="#ffc250"/>
        <path id="Trazado_728100" data-name="Trazado 728100" d="M424.7,252.1h-.633v4.732h.633a2.366,2.366,0,0,0,0-4.732Z" transform="translate(-373.553 -220.848)" fill="#ffbd86"/>
        <path id="Trazado_728101" data-name="Trazado 728101" d="M433.878,355.814H431.46a4.206,4.206,0,0,1,4.206,4.206v8.816a1.052,1.052,0,0,1-1.052,1.051h2.418a1.052,1.052,0,0,0,1.052-1.051V360.02A4.206,4.206,0,0,0,433.878,355.814Z" transform="translate(-380 -311.312)" fill="#a79ba7"/>
        <path id="Trazado_728102" data-name="Trazado 728102" d="M336.628,310.165v-6.687h-7.094v6.687h-1.81v1a5.357,5.357,0,1,0,10.714,0v-1Z" transform="translate(-289.518 -265.662)" fill="#ffbd86"/>
        <path id="Trazado_728103" data-name="Trazado 728103" d="M321.319,214.415a7.126,7.126,0,0,1-7.08-7.172v-4.965a7.126,7.126,0,0,1,7.08-7.172,7.02,7.02,0,0,1,6.952,7.172v4.965A7.02,7.02,0,0,1,321.319,214.415Z" transform="translate(-277.756 -171.137)" fill="#fed2a4"/>
        <path id="Trazado_728104" data-name="Trazado 728104" d="M362.476,195.107a7.048,7.048,0,0,0-1.052.079,7.145,7.145,0,0,1,6.029,7.093v4.965a7.145,7.145,0,0,1-6.029,7.093,7.046,7.046,0,0,0,1.052.079,7.126,7.126,0,0,0,7.08-7.172v-4.965A7.127,7.127,0,0,0,362.476,195.107Z" transform="translate(-318.913 -171.137)" fill="#ffbd86"/>
        <path id="Trazado_728105" data-name="Trazado 728105" d="M309.645,191.833s13.464,4.949,13.464,0C323.109,191.833,317.432,184.264,309.645,191.833Z" transform="translate(-273.749 -165.347)" fill="#ffd064"/>
        <circle id="Elipse_5805" data-name="Elipse 5805" cx="2.698" cy="2.698" r="2.698" transform="translate(26.344)" fill="#80b4fb"/>
        <circle id="Elipse_5806" data-name="Elipse 5806" cx="2.698" cy="2.698" r="2.698" transform="translate(4.425 14.057) rotate(-75.408)" fill="#fe646f"/>
        <circle id="Elipse_5807" data-name="Elipse 5807" cx="2.698" cy="2.698" r="2.698" transform="matrix(0.967, -0.256, 0.256, 0.967, 47.09, 10.206)" fill="#ffd064"/>
        <path id="Trazado_728106" data-name="Trazado 728106" d="M294.636,252.1h-.505a2.366,2.366,0,1,0,0,4.732h.505Z" transform="translate(-258.153 -220.848)" fill="#ffbd86"/>
        <path id="Trazado_728107" data-name="Trazado 728107" d="M198.267,252.1h-.506v4.732h.506a2.366,2.366,0,0,0,0-4.732Z" transform="translate(-176.16 -220.848)" fill="#ffbd86"/>
        <path id="Trazado_728108" data-name="Trazado 728108" d="M159.509,397.715H130.845a1.169,1.169,0,0,1-1.169-1.169v-9.8a4.675,4.675,0,0,1,4.675-4.675h5.55l5.915,1.278,5.914-1.278H156a4.675,4.675,0,0,1,4.675,4.675v9.8A1.169,1.169,0,0,1,159.509,397.715Z" transform="translate(-116.774 -334.216)" fill="#f9f6f6"/>
        <path id="Trazado_728109" data-name="Trazado 728109" d="M327.385,382.073H324.7a4.675,4.675,0,0,1,4.675,4.675v9.8a1.169,1.169,0,0,1-1.169,1.169h2.688a1.169,1.169,0,0,0,1.169-1.169v-9.8A4.675,4.675,0,0,0,327.385,382.073Z" transform="translate(-286.878 -334.216)" fill="#dddaec"/>
        <path id="Trazado_728110" data-name="Trazado 728110" d="M219.539,330.064v-7.618h-7.833v7.618h-2v.865a5.914,5.914,0,1,0,11.829,0v-.865Z" transform="translate(-186.58 -282.207)" fill="#ffbd86"/>
        <path id="Trazado_728111" data-name="Trazado 728111" d="M175.066,182.349v-9.227a5.577,5.577,0,0,1,5.577-5.577h7.889a5.205,5.205,0,0,1,5.205,5.205h.234a1.606,1.606,0,0,1,1.542,1.79v7.809Z" transform="translate(-156.365 -147.097)" fill="#ffd064"/>
        <path id="Trazado_728112" data-name="Trazado 728112" d="M269.947,172.75a5.205,5.205,0,0,0-5.205-5.205h-2.571a5.205,5.205,0,0,1,5.205,5.205,1.791,1.791,0,0,1,1.776,1.79v7.809h2.571v-7.809A1.791,1.791,0,0,0,269.947,172.75Z" transform="translate(-232.341 -147.097)" fill="#ffc250"/>
        <path id="Trazado_728113" data-name="Trazado 728113" d="M172.874,266.8h-.817a2.63,2.63,0,1,0,0,5.26h.817Z" transform="translate(-151.446 -233.667)" fill="#ffbd86"/>
        <path id="Trazado_728114" data-name="Trazado 728114" d="M316.409,266.8h-.817v5.26h.817a2.63,2.63,0,0,0,0-5.26Z" transform="translate(-278.936 -233.667)" fill="#ffbd86"/>
        <path id="Trazado_728115" data-name="Trazado 728115" d="M202.276,224.911a7.921,7.921,0,0,1-7.869-7.972v-5.519a7.921,7.921,0,0,1,7.869-7.972c4.346,0,6.592,3.569,6.592,7.972v5.519C208.868,221.342,206.623,224.911,202.276,224.911Z" transform="translate(-173.234 -178.414)" fill="#fed2a4"/>
        <path id="Trazado_728116" data-name="Trazado 728116" d="M248.022,203.45a7.834,7.834,0,0,0-1.169.088,7.941,7.941,0,0,1,6.7,7.884v5.519a7.941,7.941,0,0,1-6.7,7.884,7.834,7.834,0,0,0,1.169.088,7.921,7.921,0,0,0,7.869-7.972v-5.519A7.921,7.921,0,0,0,248.022,203.45Z" transform="translate(-218.98 -178.414)" fill="#ffbd86"/>
        <path id="Trazado_728117" data-name="Trazado 728117" d="M201.01,200.236s13.75,5.054,13.75,0C214.76,200.236,208.963,192.506,201.01,200.236Z" transform="translate(-178.994 -172.614)" fill="#ffd064"/>
      </g>
      <path id="Trazado_728118" data-name="Trazado 728118" d="M25.789,44.534a28.046,28.046,0,0,1,2.6-28.108,3.654,3.654,0,0,0,4.683-5.089,28.1,28.1,0,0,1,5-3.391.958.958,0,0,0-.9-1.693,30.015,30.015,0,0,0-5.425,3.7l-.062-.038A3.656,3.656,0,0,0,26.9,15.22,29.961,29.961,0,0,0,23.942,45.1a5.168,5.168,0,0,0-2.749,4.562v2.008a.958.958,0,1,0,1.916,0V49.666a3.251,3.251,0,0,1,3.248-3.248h4v.038a6.291,6.291,0,0,0,3.87,5.825,5.631,5.631,0,0,0-.132,1.208v5.085H23.2a.093.093,0,0,1-.093-.093V55.85a.958.958,0,1,0-1.916,0v2.632a2.012,2.012,0,0,0,2.01,2.01H34.1v2.8a2.129,2.129,0,0,0,2.127,2.127H66.164a2.129,2.129,0,0,0,2.127-2.127v-2.8H79.184a2.012,2.012,0,0,0,2.01-2.01V49.666A5.168,5.168,0,0,0,78.445,45.1a29.961,29.961,0,0,0-2.957-29.883A3.656,3.656,0,0,0,70.7,9.913l-.061.037A29.613,29.613,0,0,0,54.788,2.99a3.656,3.656,0,0,0-7.189,0,29.807,29.807,0,0,0-6.326,1.468.958.958,0,1,0,.635,1.808A27.889,27.889,0,0,1,47.755,4.9a3.657,3.657,0,0,0,6.876,0,27.709,27.709,0,0,1,14.679,6.437,3.654,3.654,0,0,0,4.684,5.088,28.046,28.046,0,0,1,2.6,28.108L70.219,44.5v-.708a8.152,8.152,0,0,0,3.493-5.922,3.322,3.322,0,0,0,1.573-5.962V26.434a2.458,2.458,0,0,0-1.536-2.272,5.3,5.3,0,0,0-5.237-4.514H61.747a5.6,5.6,0,0,0-4.007,1.689,6.125,6.125,0,0,0-3.186-.89H53.481a.958.958,0,0,0,0,1.916h1.071A4.252,4.252,0,0,1,58.8,26.612a.958.958,0,0,0,.95.958.835.835,0,0,1,.825.832v4.856a3.562,3.562,0,0,0-.593-.111,8.938,8.938,0,0,0-1.467-4.17.957.957,0,0,0-1.668.135l-.008.013C56.231,30.209,52.4,30.319,45.414,28a.968.968,0,0,0-1.046.305A9,9,0,0,0,42.4,33.147a3.551,3.551,0,0,0-.593.111V26.984a4.624,4.624,0,0,1,4.619-4.619h2.875a.958.958,0,0,0,0-1.916H46.43a6.494,6.494,0,0,0-3.155.815,5.288,5.288,0,0,0-3.8-1.614H32.7a5.61,5.61,0,0,0-5.6,5.6v6.658a3.323,3.323,0,0,0,1.573,5.962,8.152,8.152,0,0,0,3.493,5.922V44.5ZM51.193,5.4a1.74,1.74,0,1,1,1.74-1.74A1.742,1.742,0,0,1,51.193,5.4ZM71.017,13.95a1.74,1.74,0,1,1,2.377.638A1.742,1.742,0,0,1,71.017,13.95ZM28.355,12.211a1.729,1.729,0,0,1,1.056-.811,1.751,1.751,0,0,1,.454-.06,1.741,1.741,0,1,1-1.51.871ZM69.261,46.419h.852v.038a4.382,4.382,0,0,1-2.679,4.051,5.633,5.633,0,0,0-4.776-2.651H61.544a4.372,4.372,0,0,1-.228-1.4v-.038h.852a.958.958,0,0,0,.958-.958v-.7a7.9,7.9,0,0,0,5.178,0v.7A.958.958,0,0,0,69.261,46.419ZM56.068,47.857v-.933q.352-.236.679-.505H59.4v.038a6.327,6.327,0,0,0,.156,1.4Zm-13.236,0a6.326,6.326,0,0,0,.156-1.4v-.038H45.64q.327.269.679.505v.933ZM41.177,44.5v-.712A8.129,8.129,0,0,0,42.818,42.3,8.943,8.943,0,0,0,43.9,44.5Zm6.1,5.271a.958.958,0,0,0,.958-.958V47.9a8.716,8.716,0,0,0,5.916,0v.919a.958.958,0,0,0,.958.958h1.039a4.956,4.956,0,0,1-9.911,0ZM61.3,36.717a1.674,1.674,0,0,1-1.275,1.624V35.093A1.675,1.675,0,0,1,61.3,36.717ZM58.491,44.5a8.947,8.947,0,0,0,1.077-2.2,8.128,8.128,0,0,0,1.641,1.489V44.5H58.491Zm13.345-7.437a6.106,6.106,0,0,1-11.4,3.146,3.585,3.585,0,0,0,2.056-5.649v-4.78a23.743,23.743,0,0,0,5.5.814,6.009,6.009,0,0,0,3.109-.669,3.076,3.076,0,0,0,.275-.19,6.271,6.271,0,0,1,.457,2.363v4.965Zm1.916-1.157V33.242a1.408,1.408,0,0,1,0,2.666ZM59.21,22.579a3.688,3.688,0,0,1,2.537-1.013h6.766a3.377,3.377,0,0,1,3.377,3.377.958.958,0,0,0,.95.958.535.535,0,0,1,.529.533v3.175a8.128,8.128,0,0,0-1.119-2.243.957.957,0,0,0-1.293-.255.934.934,0,0,0-.192.158.952.952,0,0,0-.239.456.825.825,0,0,1-.419.565c-.531.323-2.327.9-7.686-.5a2.768,2.768,0,0,0-1.756-1.975A6.142,6.142,0,0,0,59.21,22.579Zm-4.857,9.205A6.028,6.028,0,0,0,57.5,31.1a7.078,7.078,0,0,1,.6,2.868v5.519a6.912,6.912,0,1,1-13.822,0V33.965a7.1,7.1,0,0,1,1.191-3.934,43.2,43.2,0,0,0,6.264,1.532,17.681,17.681,0,0,0,2.617.221ZM42.365,38.341a1.672,1.672,0,0,1,0-3.248ZM32.7,21.565h6.766a3.374,3.374,0,0,1,2.268.875,6.512,6.512,0,0,0-1.844,4.543v1.635c-1.794.262-4.931-.25-8.8-1.452a.958.958,0,0,0-1.081.384L30,27.558a8.128,8.128,0,0,0-.987,2.058V25.253A3.691,3.691,0,0,1,32.7,21.565Zm-5.026,13.01a1.41,1.41,0,0,1,.955-1.333v2.666A1.41,1.41,0,0,1,27.679,34.576Zm2.872,2.49V32.1a6.26,6.26,0,0,1,.7-2.883A29.21,29.21,0,0,0,38.855,30.6a9.854,9.854,0,0,0,1.04-.053v4.016a3.585,3.585,0,0,0,2.057,5.649,6.106,6.106,0,0,1-11.4-3.146Zm1.723,9.392v-.038h.852a.958.958,0,0,0,.958-.958v-.7a7.9,7.9,0,0,0,5.178,0v.7a.958.958,0,0,0,.958.958h.852v.038a4.372,4.372,0,0,1-.228,1.4H39.728a5.633,5.633,0,0,0-4.776,2.651A4.382,4.382,0,0,1,32.273,46.457Zm30.385,3.317a3.721,3.721,0,0,1,3.717,3.716v9.8a.211.211,0,0,1-.21.21H36.222a.211.211,0,0,1-.211-.21v-9.8a3.721,3.721,0,0,1,3.717-3.716h4.595a6.871,6.871,0,0,0,13.741,0Zm16.619,8.708a.093.093,0,0,1-.093.093H68.291V53.49a5.63,5.63,0,0,0-.132-1.208,6.291,6.291,0,0,0,3.87-5.825v-.038h4a3.251,3.251,0,0,1,3.248,3.248v8.816Z"/>
    </g>
  </g>
</svg>
