<svg xmlns="http://www.w3.org/2000/svg" width="127" height="127" viewBox="0 0 127 127">
  <g id="Grupo_965448" data-name="Grupo 965448" transform="translate(-422 -4388)">
    <circle id="Elipse_5829" data-name="Elipse 5829" cx="63.5" cy="63.5" r="63.5" transform="translate(422 4388)" fill="#34bc85"/>
    <g id="Grupo_965130" data-name="Grupo 965130" transform="translate(459.946 4418.945)">
      <path id="Trazado_729380" data-name="Trazado 729380" d="M31.262,7.5H63.828a2.548,2.548,0,0,1,1.8.746L76.363,18.98a2.547,2.547,0,0,1,.746,1.8V67.61a2.547,2.547,0,0,1-2.547,2.547h-43.3a2.547,2.547,0,0,1-2.547-2.547V10.047A2.547,2.547,0,0,1,31.262,7.5Z" transform="translate(-28.715 -7.5)" fill="#e6f7fe"/>
    </g>
    <g id="Grupo_965131" data-name="Grupo 965131" transform="translate(492.803 4418.945)">
      <path id="Trazado_729381" data-name="Trazado 729381" d="M304.128,18.98,293.394,8.246a2.548,2.548,0,0,0-1.8-.746h-2.256v9.679a5.858,5.858,0,0,0,5.858,5.858h3.821a2.547,2.547,0,0,1,2.547,2.547V67.61a2.547,2.547,0,0,1-2.547,2.547h3.311a2.547,2.547,0,0,0,2.547-2.547V20.781a2.547,2.547,0,0,0-.746-1.8Z" transform="translate(-289.337 -7.5)" fill="#d3effd"/>
    </g>
    <g id="Grupo_965132" data-name="Grupo 965132" transform="translate(496.114 4419.177)">
      <path id="Trazado_729382" data-name="Trazado 729382" d="M315.6,18.786a2.547,2.547,0,0,0,2.547,2.547h9.447a2.544,2.544,0,0,0-.514-.746L316.347,9.853a2.542,2.542,0,0,0-.746-.514Z" transform="translate(-315.601 -9.339)" fill="#b2e5fb"/>
    </g>
    <g id="Grupo_965137" data-name="Grupo 965137" transform="translate(466.313 4436.266)">
      <g id="Grupo_965134" data-name="Grupo 965134" transform="translate(0)">
        <g id="Grupo_965133" data-name="Grupo 965133">
          <path id="Trazado_729383" data-name="Trazado 729383" d="M92.723,162.711H81.007a1.783,1.783,0,0,1-1.783-1.783V146.665a1.783,1.783,0,0,1,1.783-1.783H92.723a1.783,1.783,0,0,1,1.783,1.783v14.263A1.783,1.783,0,0,1,92.723,162.711Z" transform="translate(-79.224 -144.882)" fill="#f7e365"/>
        </g>
      </g>
      <g id="Grupo_965136" data-name="Grupo 965136" transform="translate(20.376)">
        <g id="Grupo_965135" data-name="Grupo 965135">
          <path id="Trazado_729384" data-name="Trazado 729384" d="M254.349,162.711H242.633a1.783,1.783,0,0,1-1.783-1.783V146.665a1.783,1.783,0,0,1,1.783-1.783h11.716a1.783,1.783,0,0,1,1.783,1.783v14.263A1.783,1.783,0,0,1,254.349,162.711Z" transform="translate(-240.85 -144.882)" fill="#f7e365"/>
        </g>
      </g>
    </g>
    <g id="Grupo_965142" data-name="Grupo 965142" transform="translate(486.69 4446.963)">
      <g id="Grupo_965138" data-name="Grupo 965138">
        <path id="Trazado_729385" data-name="Trazado 729385" d="M271.413,246.444v-2.853l-3.237-.674a12.138,12.138,0,0,0-.562-2.1l2.464-2.2-1.426-2.47-3.142,1.035a12.31,12.31,0,0,0-1.538-1.538l1.035-3.142-2.47-1.426-2.2,2.464a12.148,12.148,0,0,0-2.1-.562l-.674-3.237H254.7l-.674,3.237a12.137,12.137,0,0,0-2.1.562l-2.2-2.464-2.47,1.426,1.035,3.142a12.3,12.3,0,0,0-1.538,1.538l-3.142-1.035-1.426,2.47,2.464,2.2a12.139,12.139,0,0,0-.562,2.1l-3.237.674v2.853l3.237.674a12.139,12.139,0,0,0,.562,2.1l-2.464,2.2,1.426,2.47,3.142-1.035a12.309,12.309,0,0,0,1.538,1.538l-1.035,3.142,2.47,1.426,2.2-2.464a12.151,12.151,0,0,0,2.1.562l.674,3.237h2.853l.674-3.237a12.14,12.14,0,0,0,2.1-.562l2.2,2.464,2.47-1.426-1.035-3.142a12.3,12.3,0,0,0,1.538-1.538l3.142,1.035,1.426-2.47-2.464-2.2a12.151,12.151,0,0,0,.562-2.1Z" transform="translate(-240.848 -229.735)" fill="#62a4fb"/>
      </g>
      <g id="Grupo_965139" data-name="Grupo 965139" transform="translate(6.406 6.406)">
        <path id="Trazado_729386" data-name="Trazado 729386" d="M315.819,290.85V288l-3.237-.674a12.137,12.137,0,0,0-.562-2.1l2.464-2.2-1.426-2.47-2.846.937a15.609,15.609,0,0,1-17.707,17.894l-.845,2.566,2.47,1.426,2.2-2.464a12.148,12.148,0,0,0,2.1.562l.674,3.237h2.853l.674-3.237a12.137,12.137,0,0,0,2.1-.562l2.2,2.464,2.47-1.426-1.035-3.142a12.3,12.3,0,0,0,1.538-1.538l3.142,1.035,1.426-2.47-2.464-2.2a12.146,12.146,0,0,0,.562-2.1Z" transform="translate(-291.66 -280.547)" fill="#5392f9"/>
      </g>
      <g id="Grupo_965140" data-name="Grupo 965140" transform="translate(7.005 7.004)">
        <circle id="Elipse_5864" data-name="Elipse 5864" cx="8.278" cy="8.278" r="8.278" fill="#e6f7fe"/>
      </g>
      <g id="Grupo_965141" data-name="Grupo 965141" transform="translate(12.226 12.226)">
        <circle id="Elipse_5865" data-name="Elipse 5865" cx="3.056" cy="3.056" r="3.056" fill="#62a4fb"/>
      </g>
    </g>
    <g id="Grupo_965143" data-name="Grupo 965143" transform="translate(466.313 4423.021)">
      <path id="Trazado_729387" data-name="Trazado 729387" d="M79.223,39.825h22.159V43.9H79.223Z" transform="translate(-79.223 -39.825)" fill="#e175a5"/>
    </g>
    <g id="Grupo_965144" data-name="Grupo 965144" transform="translate(466.313 4473.453)">
      <path id="Trazado_729388" data-name="Trazado 729388" d="M79.223,439.85h16.3v4.075h-16.3Z" transform="translate(-79.223 -439.85)" fill="#ad7fdd"/>
    </g>
    <g id="Grupo_965145" data-name="Grupo 965145" transform="translate(456 4419)">
      <path id="Trazado_729389" data-name="Trazado 729389" d="M22.158,51.689a.946.946,0,0,0,.946-.946V3.492a1.6,1.6,0,0,1,1.6-1.6H57.271c.037,0,.073,0,.11.005v8.728a3.5,3.5,0,0,0,3.493,3.493H69.6c0,.036.006.072.006.109V19.2a.946.946,0,1,0,1.891,0V14.226a3.516,3.516,0,0,0-1.023-2.469L59.741,1.023A3.471,3.471,0,0,0,57.271,0H24.705a3.5,3.5,0,0,0-3.493,3.492V50.744A.946.946,0,0,0,22.158,51.689ZM68.269,12.226h-7.4a1.6,1.6,0,0,1-1.6-1.6v-7.4Z" transform="translate(-21.212 0)"/>
      <path id="Trazado_729390" data-name="Trazado 729390" d="M71.722,154.372A2.731,2.731,0,0,0,74.45,157.1H86.167a2.731,2.731,0,0,0,2.728-2.728v-6.744a.946.946,0,0,0-1.891,0v6.744a.838.838,0,0,1-.837.837H74.45a.838.838,0,0,1-.837-.837V140.108a.838.838,0,0,1,.837-.837H86.167a.838.838,0,0,1,.837.837v3.11a.946.946,0,0,0,1.891,0v-3.11a2.731,2.731,0,0,0-2.728-2.728H74.45a2.731,2.731,0,0,0-2.728,2.728Z" transform="translate(-65.354 -120.06)"/>
      <path id="Trazado_729391" data-name="Trazado 729391" d="M104.995,171.6h3.056a.946.946,0,1,0,0-1.891h-3.056a.946.946,0,1,0,0,1.891Z" transform="translate(-93.606 -148.313)"/>
      <path id="Trazado_729392" data-name="Trazado 729392" d="M112.125,202.033h-7.132a.946.946,0,1,0,0,1.891h7.132a.946.946,0,1,0,0-1.891Z" transform="translate(-93.605 -176.562)"/>
      <path id="Trazado_729393" data-name="Trazado 729393" d="M112.125,234.358h-7.132a.946.946,0,0,0,0,1.891h7.132a.946.946,0,0,0,0-1.891Z" transform="translate(-93.605 -204.812)"/>
      <path id="Trazado_729394" data-name="Trazado 729394" d="M266.621,171.6h3.056a.946.946,0,1,0,0-1.891h-3.056a.946.946,0,0,0,0,1.891Z" transform="translate(-234.855 -148.313)"/>
      <path id="Trazado_729395" data-name="Trazado 729395" d="M266.621,203.924h6.368a.946.946,0,0,0,0-1.891h-6.368a.946.946,0,0,0,0,1.891Z" transform="translate(-234.855 -176.562)"/>
      <path id="Trazado_729396" data-name="Trazado 729396" d="M79.659,161.955l-2.625-.547c-.077-.343-.168-.682-.271-1.017l2-1.785a.946.946,0,0,0,.189-1.178l-1.426-2.47a.946.946,0,0,0-1.115-.425l-2.549.84q-.356-.385-.742-.742l.84-2.549a.946.946,0,0,0-.425-1.115L71.5,149.792v-6.117a.946.946,0,1,0-1.891,0v6.366L68.1,151.728c-.334-.1-.674-.194-1.017-.271l-.547-2.625a.946.946,0,0,0-.926-.753H65.13V140.11a2.731,2.731,0,0,0-2.728-2.728H50.685a2.731,2.731,0,0,0-2.728,2.728v14.263a2.732,2.732,0,0,0,1.754,2.548l-.293.507a.946.946,0,0,0,.189,1.178l2,1.785q-.156.5-.271,1.017l-2.625.547a.946.946,0,0,0-.753.926v2.853a.945.945,0,0,0,.753.926l2.625.547q.115.514.271,1.017l-2,1.785a.946.946,0,0,0-.189,1.178l1.426,2.47a.946.946,0,0,0,1.115.425l2.549-.84q.356.385.742.742l-.84,2.549a.946.946,0,0,0,.425,1.115l2.47,1.426a.946.946,0,0,0,1.178-.189l1.785-2q.5.156,1.017.271l.547,2.625a.946.946,0,0,0,.926.753H65.61a.945.945,0,0,0,.926-.753l.547-2.625c.343-.077.682-.168,1.017-.271l1.507,1.688v2.544a1.6,1.6,0,0,1-1.6,1.6h-43.3a1.6,1.6,0,0,1-1.6-1.6v-5.9a.946.946,0,1,0-1.891,0v5.9a3.5,3.5,0,0,0,3.493,3.492H68a3.5,3.5,0,0,0,3.493-3.492v-2.3l2.035-1.175a.946.946,0,0,0,.425-1.115l-.84-2.549q.385-.356.742-.742l2.549.84a.946.946,0,0,0,1.115-.425l1.426-2.47a.946.946,0,0,0-.189-1.178l-2-1.785q.156-.5.271-1.017l2.625-.547a.946.946,0,0,0,.753-.926v-2.853A.946.946,0,0,0,79.659,161.955Zm-28.975-6.744a.838.838,0,0,1-.837-.837V140.11a.838.838,0,0,1,.837-.837H62.4a.838.838,0,0,1,.837.837v7.969h-.481a.945.945,0,0,0-.926.753l-.547,2.625q-.514.115-1.017.271l-1.785-2a.946.946,0,0,0-1.178-.189l-2.47,1.426a.945.945,0,0,0-.425,1.115l.84,2.549q-.385.356-.742.742l-2.549-.84a.946.946,0,0,0-1.115.425l-.146.253h-.013Zm27.836,9.753-2.484.518a.945.945,0,0,0-.739.764,11.227,11.227,0,0,1-.518,1.94.946.946,0,0,0,.258,1.03l1.891,1.689-.657,1.139-2.412-.794a.946.946,0,0,0-1.021.291,11.382,11.382,0,0,1-1.42,1.42.946.946,0,0,0-.291,1.021l.795,2.412-1.139.657-1.689-1.891a.945.945,0,0,0-1.03-.258,11.226,11.226,0,0,1-1.94.518.945.945,0,0,0-.764.739l-.518,2.484H63.527l-.518-2.484a.945.945,0,0,0-.764-.739,11.226,11.226,0,0,1-1.94-.518.945.945,0,0,0-1.03.258l-1.689,1.891-1.139-.657.794-2.412a.945.945,0,0,0-.291-1.021,11.372,11.372,0,0,1-1.42-1.42.946.946,0,0,0-1.021-.291l-2.412.794-.657-1.139,1.891-1.689a.945.945,0,0,0,.258-1.03,11.223,11.223,0,0,1-.518-1.94.945.945,0,0,0-.739-.764l-2.484-.518V163.65l2.484-.518a.945.945,0,0,0,.739-.764,11.222,11.222,0,0,1,.518-1.94.946.946,0,0,0-.258-1.03l-1.891-1.689.657-1.139,2.412.794a.946.946,0,0,0,1.021-.291,11.373,11.373,0,0,1,1.42-1.42.945.945,0,0,0,.291-1.021l-.794-2.412,1.139-.657,1.689,1.891a.945.945,0,0,0,1.03.258,11.218,11.218,0,0,1,1.94-.518.946.946,0,0,0,.764-.739l.518-2.484h1.315l.518,2.484a.945.945,0,0,0,.764.739,11.233,11.233,0,0,1,1.94.518.946.946,0,0,0,1.03-.258l1.689-1.891,1.139.657-.795,2.412a.946.946,0,0,0,.291,1.021,11.382,11.382,0,0,1,1.42,1.42.945.945,0,0,0,1.021.291l2.412-.794.657,1.139L75.038,159.4a.945.945,0,0,0-.258,1.03,11.228,11.228,0,0,1,.518,1.94.945.945,0,0,0,.739.764l2.484.518v1.315Z" transform="translate(-21.212 -120.062)"/>
      <path id="Trazado_729397" data-name="Trazado 729397" d="M334.327,319.211a4,4,0,1,0,4,4A4.007,4.007,0,0,0,334.327,319.211Zm0,6.113a2.111,2.111,0,1,1,2.111-2.111A2.113,2.113,0,0,1,334.327,325.324Z" transform="translate(-291.355 -278.968)"/>
      <path id="Trazado_729398" data-name="Trazado 729398" d="M298.132,277.8a9.223,9.223,0,1,0,9.223,9.223A9.234,9.234,0,0,0,298.132,277.8Zm0,16.556a7.332,7.332,0,1,1,7.332-7.332A7.341,7.341,0,0,1,298.132,294.351Z" transform="translate(-255.16 -242.773)"/>
      <path id="Trazado_729399" data-name="Trazado 729399" d="M95.773,33.271a.946.946,0,0,0-.946-.946H72.669a.946.946,0,0,0-.946.946v4.075a.946.946,0,0,0,.946.946H94.828a.946.946,0,0,0,.946-.946ZM93.882,36.4H73.614V34.216H93.882Z" transform="translate(-65.355 -28.25)"/>
      <path id="Trazado_729400" data-name="Trazado 729400" d="M72.669,438.316h16.3a.946.946,0,0,0,.946-.946V433.3a.946.946,0,0,0-.946-.946h-16.3a.946.946,0,0,0-.946.946v4.075A.946.946,0,0,0,72.669,438.316Zm.946-4.075h14.41v2.184H73.614Z" transform="translate(-65.355 -377.843)"/>
      <path id="Trazado_729401" data-name="Trazado 729401" d="M76.744,98.867a.946.946,0,0,0,0-1.891H72.669a.946.946,0,0,0,0,1.891Z" transform="translate(-65.355 -84.75)"/>
      <path id="Trazado_729402" data-name="Trazado 729402" d="M152.274,97.922a.946.946,0,0,0-.946-.946H137.32a.946.946,0,1,0,0,1.891h14.009A.945.945,0,0,0,152.274,97.922Z" transform="translate(-121.855 -84.75)"/>
      <path id="Trazado_729403" data-name="Trazado 729403" d="M161.36,329.313H155.5a.946.946,0,1,0,0,1.891h5.858a.946.946,0,0,0,0-1.891Z" transform="translate(-137.745 -287.796)"/>
      <path id="Trazado_729404" data-name="Trazado 729404" d="M102.974,329.313a.946.946,0,1,0,0,1.891h2.547a.946.946,0,1,0,0-1.891Z" transform="translate(-91.839 -287.796)"/>
      <path id="Trazado_729405" data-name="Trazado 729405" d="M88.97,361.638h-16.3a.946.946,0,1,0,0,1.891h16.3a.946.946,0,1,0,0-1.891Z" transform="translate(-65.355 -316.046)"/>
      <path id="Trazado_729406" data-name="Trazado 729406" d="M72.669,395.854h9.679a.946.946,0,1,0,0-1.891H72.669a.946.946,0,0,0,0,1.891Z" transform="translate(-65.355 -344.296)"/>
      <path id="Trazado_729407" data-name="Trazado 729407" d="M184.314,393.963h-2.547a.946.946,0,1,0,0,1.891h2.547a.946.946,0,0,0,0-1.891Z" transform="translate(-160.699 -344.296)"/>
    </g>
  </g>
</svg>
