<svg xmlns="http://www.w3.org/2000/svg" width="127" height="127" viewBox="0 0 127 127">
  <g id="Grupo_965451" data-name="Grupo 965451" transform="translate(-4809 6924)">
    <circle id="Elipse_5829" data-name="Elipse 5829" cx="63.5" cy="63.5" r="63.5" transform="translate(4809 -6924)" fill="#34bc85"/>
    <g id="gestion-de-proyectos_2_" data-name="gestion-de-proyectos (2)" transform="translate(4836.713 -6896.273)">
      <g id="Grupo_965147" data-name="Grupo 965147" transform="translate(1.131 1.119)">
        <path id="Trazado_729425" data-name="Trazado 729425" d="M8,8H56.878V77.307H8Z" transform="translate(-8 -7.999)" fill="#eceff1" fill-rule="evenodd"/>
        <path id="Trazado_729426" data-name="Trazado 729426" d="M182.894,8h24.439V77.307H182.894Z" transform="translate(-158.455 -7.999)" fill="#c4cccf" fill-rule="evenodd"/>
      </g>
      <g id="Grupo_965148" data-name="Grupo 965148" transform="translate(7.988 7.975)">
        <path id="Trazado_729427" data-name="Trazado 729427" d="M57.07,369.039H70.051v12H57.07Z" transform="translate(-57.07 -325.446)" fill="#d5e7ff" fill-rule="evenodd"/>
        <path id="Trazado_729428" data-name="Trazado 729428" d="M103.52,369.039h6.491v12H103.52Z" transform="translate(-97.029 -325.446)" fill="#acceff" fill-rule="evenodd"/>
        <path id="Trazado_729429" data-name="Trazado 729429" d="M57.07,213.055H70.051v12H57.07Z" transform="translate(-57.07 -191.259)" fill="#badc61" fill-rule="evenodd"/>
        <path id="Trazado_729430" data-name="Trazado 729430" d="M103.52,213.055h6.491v12H103.52Z" transform="translate(-97.029 -191.259)" fill="#badc61" fill-rule="evenodd"/>
        <path id="Trazado_729431" data-name="Trazado 729431" d="M57.07,57.07H70.051v12H57.07Z" transform="translate(-57.07 -57.07)" fill="#f9e997" fill-rule="evenodd"/>
        <path id="Trazado_729432" data-name="Trazado 729432" d="M103.52,57.07h6.491v12H103.52Z" transform="translate(-97.029 -57.07)" fill="#f5d844" fill-rule="evenodd"/>
      </g>
      <g id="Grupo_965149" data-name="Grupo 965149" transform="translate(29.578 32.364)">
        <path id="Trazado_729433" data-name="Trazado 729433" d="M249.312,254.195a3.012,3.012,0,0,1,3.129,2.859v29.188a3.012,3.012,0,0,1-3.129,2.859h-34.6a3.012,3.012,0,0,1-3.129-2.859V257.054a3.012,3.012,0,0,1,3.129-2.859Z" transform="translate(-211.579 -251.038)" fill="#d5e7ff" fill-rule="evenodd"/>
        <path id="Trazado_729434" data-name="Trazado 729434" d="M375.092,254.2a3.012,3.012,0,0,1,3.129,2.859v29.188a3.012,3.012,0,0,1-3.129,2.859h-17.3V254.2Z" transform="translate(-337.359 -251.039)" fill="#acceff" fill-rule="evenodd"/>
        <path id="Trazado_729435" data-name="Trazado 729435" d="M211.579,262.259H252.44v-5.206a3.012,3.012,0,0,0-3.129-2.859h-34.6a3.012,3.012,0,0,0-3.129,2.859Z" transform="translate(-211.579 -251.038)" fill="#feb12e" fill-rule="evenodd"/>
        <path id="Trazado_729436" data-name="Trazado 729436" d="M357.79,262.259h20.431v-5.206a3.012,3.012,0,0,0-3.129-2.859h-17.3Z" transform="translate(-337.359 -251.038)" fill="#feb12e" fill-rule="evenodd"/>
        <path id="Trazado_729437" data-name="Trazado 729437" d="M254.53,231.606h1.52a1.372,1.372,0,0,1,1.368,1.368v4.409a1.372,1.372,0,0,1-1.368,1.368h-1.52a1.372,1.372,0,0,1-1.368-1.368v-4.409A1.372,1.372,0,0,1,254.53,231.606Z" transform="translate(-247.351 -231.606)" fill="#697c86" fill-rule="evenodd"/>
        <path id="Trazado_729438" data-name="Trazado 729438" d="M268.392,231.606h.76a1.372,1.372,0,0,1,1.368,1.368v4.409a1.372,1.372,0,0,1-1.368,1.368h-.76Z" transform="translate(-260.453 -231.606)" fill="#3b4a51" fill-rule="evenodd"/>
        <path id="Trazado_729439" data-name="Trazado 729439" d="M343.928,231.606h1.52a1.372,1.372,0,0,1,1.368,1.368v4.409a1.372,1.372,0,0,1-1.368,1.368h-1.52a1.372,1.372,0,0,1-1.368-1.368v-4.409A1.372,1.372,0,0,1,343.928,231.606Z" transform="translate(-324.257 -231.606)" fill="#697c86" fill-rule="evenodd"/>
        <path id="Trazado_729440" data-name="Trazado 729440" d="M355.666,231.606h.76a1.372,1.372,0,0,1,1.368,1.368v4.409a1.372,1.372,0,0,1-1.368,1.368h-.76Z" transform="translate(-335.532 -231.606)" fill="#3b4a51" fill-rule="evenodd"/>
        <path id="Trazado_729441" data-name="Trazado 729441" d="M428.859,231.606h1.52a1.372,1.372,0,0,1,1.368,1.368v4.409a1.372,1.372,0,0,1-1.368,1.368h-1.52a1.372,1.372,0,0,1-1.368-1.368v-4.409A1.372,1.372,0,0,1,428.859,231.606Z" transform="translate(-397.321 -231.606)" fill="#697c86" fill-rule="evenodd"/>
        <path id="Trazado_729442" data-name="Trazado 729442" d="M442.721,231.606h.76a1.372,1.372,0,0,1,1.368,1.368v4.409a1.372,1.372,0,0,1-1.368,1.368h-.76Z" transform="translate(-410.423 -231.606)" fill="#3b4a51" fill-rule="evenodd"/>
        <path id="Trazado_729443" data-name="Trazado 729443" d="M260.866,352.419H266.6v5.734h-5.734Z" transform="translate(-253.979 -335.537)" fill="#f9e997" fill-rule="evenodd"/>
        <path id="Trazado_729444" data-name="Trazado 729444" d="M281.384,352.419h2.867v5.734h-2.867Z" transform="translate(-271.63 -335.537)" fill="#f5d844" fill-rule="evenodd"/>
        <path id="Trazado_729445" data-name="Trazado 729445" d="M336.565,352.419H342.3v5.734h-5.734Z" transform="translate(-319.1 -335.537)" fill="#f9e997" fill-rule="evenodd"/>
        <path id="Trazado_729446" data-name="Trazado 729446" d="M357.082,352.419h2.867v5.734h-2.867Z" transform="translate(-336.75 -335.537)" fill="#f5d844" fill-rule="evenodd"/>
        <path id="Trazado_729447" data-name="Trazado 729447" d="M413.68,352.419h5.734v5.734H413.68Z" transform="translate(-385.44 -335.537)" fill="#f9e997" fill-rule="evenodd"/>
        <path id="Trazado_729448" data-name="Trazado 729448" d="M434.2,352.419h2.867v5.734H434.2Z" transform="translate(-403.089 -335.537)" fill="#f5d844" fill-rule="evenodd"/>
        <path id="Trazado_729449" data-name="Trazado 729449" d="M260.866,422.459H266.6v5.734h-5.734Z" transform="translate(-253.979 -395.79)" fill="#f9e997" fill-rule="evenodd"/>
        <path id="Trazado_729450" data-name="Trazado 729450" d="M281.384,422.459h2.867v5.734h-2.867Z" transform="translate(-271.63 -395.79)" fill="#f5d844" fill-rule="evenodd"/>
        <path id="Trazado_729451" data-name="Trazado 729451" d="M336.565,422.459H342.3v5.734h-5.734Z" transform="translate(-319.1 -395.79)" fill="#f9e997" fill-rule="evenodd"/>
        <path id="Trazado_729452" data-name="Trazado 729452" d="M357.082,422.459h2.867v5.734h-2.867Z" transform="translate(-336.75 -395.79)" fill="#f5d844" fill-rule="evenodd"/>
        <path id="Trazado_729453" data-name="Trazado 729453" d="M413.68,422.459h5.734v5.734H413.68Z" transform="translate(-385.44 -395.79)" fill="#f9e997" fill-rule="evenodd"/>
        <path id="Trazado_729454" data-name="Trazado 729454" d="M434.2,422.459h2.867v5.734H434.2Z" transform="translate(-403.089 -395.79)" fill="#f5d844" fill-rule="evenodd"/>
      </g>
      <path id="Trazado_729455" data-name="Trazado 729455" d="M67.309,34.406H65.122v-.673a2.488,2.488,0,0,0-2.488-2.483H61.118a2.488,2.488,0,0,0-2.487,2.483v.673H52.942v-.673a2.488,2.488,0,0,0-2.21-2.467V1.118A1.117,1.117,0,0,0,49.615,0H1.132A1.117,1.117,0,0,0,.015,1.118v69.31a1.117,1.117,0,0,0,1.117,1.117H67.309a4.123,4.123,0,0,0,4.246-3.977V38.379a4.121,4.121,0,0,0-4.246-3.973Zm-6.445-.674a.255.255,0,0,1,.253-.25h1.517a.255.255,0,0,1,.253.25v4.409a.255.255,0,0,1-.253.249H61.117a.255.255,0,0,1-.253-.249ZM58.63,36.64v1.5a2.488,2.488,0,0,0,2.487,2.483h1.517a2.489,2.489,0,0,0,2.488-2.483v-1.5h2.186a1.893,1.893,0,0,1,2.012,1.739v4.092H30.693V38.379a1.893,1.893,0,0,1,2.012-1.739H34.27v1.5a2.488,2.488,0,0,0,2.488,2.483h1.517a2.488,2.488,0,0,0,2.487-2.483v-1.5H46.45v1.5a2.488,2.488,0,0,0,2.488,2.483h1.517a2.489,2.489,0,0,0,2.488-2.483v-1.5ZM36.5,38.141V33.733a.255.255,0,0,1,.253-.25h1.517a.255.255,0,0,1,.253.25v4.409a.255.255,0,0,1-.253.249H36.757A.255.255,0,0,1,36.5,38.141Zm13.95-4.658a.255.255,0,0,1,.253.25v4.409a.255.255,0,0,1-.253.249H48.938a.255.255,0,0,1-.253-.249V33.733a.255.255,0,0,1,.253-.25ZM2.249,2.235H48.5V31.291a2.487,2.487,0,0,0-2.048,2.442v.673H40.762v-.673a2.488,2.488,0,0,0-2.487-2.483H36.758a2.488,2.488,0,0,0-2.488,2.483v.673H32.706a4.121,4.121,0,0,0-4.246,3.973V67.568a3.748,3.748,0,0,0,.43,1.743H2.249Zm65.06,67.076h-34.6a1.918,1.918,0,0,1-2.012-1.743V44.705H69.321V67.568a1.894,1.894,0,0,1-2.012,1.743ZM42.2,48.131a1.117,1.117,0,0,1,1.117,1.117V54.98A1.117,1.117,0,0,1,42.2,56.1H36.464a1.117,1.117,0,0,1-1.117-1.117V49.248a1.117,1.117,0,0,1,1.117-1.117Zm-1.117,5.732h-3.5v-3.5h3.5Zm11.693-5.732a1.117,1.117,0,0,1,1.117,1.117V54.98A1.117,1.117,0,0,1,52.776,56.1H47.044a1.117,1.117,0,0,1-1.117-1.117V49.248a1.117,1.117,0,0,1,1.117-1.117Zm-1.117,5.732h-3.5v-3.5h3.5ZM42.2,57.919a1.117,1.117,0,0,1,1.117,1.117v5.732A1.117,1.117,0,0,1,42.2,65.884H36.464a1.117,1.117,0,0,1-1.117-1.117V59.036a1.117,1.117,0,0,1,1.117-1.117ZM41.083,63.65h-3.5v-3.5h3.5Zm11.693-5.732a1.117,1.117,0,0,1,1.117,1.117v5.732a1.117,1.117,0,0,1-1.117,1.117H47.044a1.117,1.117,0,0,1-1.117-1.117V59.036a1.117,1.117,0,0,1,1.117-1.117ZM51.659,63.65h-3.5v-3.5h3.5Zm11.9-15.519a1.117,1.117,0,0,1,1.117,1.117V54.98A1.117,1.117,0,0,1,63.554,56.1H57.818A1.117,1.117,0,0,1,56.7,54.98V49.248a1.117,1.117,0,0,1,1.117-1.117Zm-1.117,5.732h-3.5v-3.5h3.5Zm1.117,4.056a1.117,1.117,0,0,1,1.117,1.117v5.732a1.117,1.117,0,0,1-1.117,1.117H57.818A1.117,1.117,0,0,1,56.7,64.767V59.036a1.117,1.117,0,0,1,1.117-1.117ZM62.436,63.65h-3.5v-3.5h3.5ZM6.871,19.98V7.974A1.117,1.117,0,0,1,7.988,6.857h12.98a1.117,1.117,0,1,1,0,2.234H9.105v9.772H19.852v-3.4L17.774,17.35a1.117,1.117,0,0,1-1.54-.037L13.687,14.77a1.117,1.117,0,0,1,1.579-1.581l1.794,1.792,5.392-4.894a1.117,1.117,0,0,1,1.5,1.654l-1.868,1.7V19.98A1.117,1.117,0,0,1,20.969,21.1H7.988A1.117,1.117,0,0,1,6.871,19.98Zm0,21.794v-12a1.117,1.117,0,0,1,1.117-1.117h12.98a1.117,1.117,0,1,1,0,2.234H9.105v9.768H19.852v-3.4l-2.077,1.886a1.117,1.117,0,0,1-1.541-.037l-2.547-2.547a1.117,1.117,0,0,1,1.58-1.58l1.794,1.794,5.391-4.893a1.117,1.117,0,1,1,1.5,1.654l-1.868,1.7v6.541a1.117,1.117,0,0,1-1.117,1.117H7.988a1.117,1.117,0,0,1-1.117-1.117ZM24.03,53.758a1.117,1.117,0,0,1-.077,1.578l-1.867,1.694v6.542a1.117,1.117,0,0,1-1.117,1.117H7.988a1.117,1.117,0,0,1-1.117-1.117v-12a1.117,1.117,0,0,1,1.117-1.117h12.98a1.117,1.117,0,1,1,0,2.234H9.105v9.768H19.852v-3.4l-2.078,1.885a1.117,1.117,0,0,1-1.54-.037L13.687,58.36a1.117,1.117,0,1,1,1.579-1.581l1.795,1.792,5.392-4.891a1.117,1.117,0,0,1,1.578.077ZM28.459,7.974a1.117,1.117,0,0,1,1.117-1.117H44.1a1.117,1.117,0,0,1,0,2.234H29.576a1.117,1.117,0,0,1-1.117-1.117Zm0,6a1.117,1.117,0,0,1,1.117-1.117H44.1a1.117,1.117,0,0,1,0,2.234H29.576A1.117,1.117,0,0,1,28.459,13.975Z" transform="translate(0 0)" fill-rule="evenodd"/>
    </g>
  </g>
</svg>
