<svg xmlns="http://www.w3.org/2000/svg" xmlns:xlink="http://www.w3.org/1999/xlink" width="456.797" height="352.718" viewBox="0 0 456.797 352.718">
  <defs>
    <linearGradient id="linear-gradient" x1="0.749" y1="0.901" x2="0.414" y2="0.089" gradientUnits="objectBoundingBox">
      <stop offset="0" stop-color="#d4d6d8"/>
      <stop offset="0.288" stop-color="#d9dadc"/>
      <stop offset="0.639" stop-color="#e8e9ea"/>
      <stop offset="0.999" stop-color="#fff"/>
    </linearGradient>
    <linearGradient id="linear-gradient-2" x1="0.285" y1="0.095" x2="0.557" y2="0.843" gradientUnits="objectBoundingBox">
      <stop offset="0" stop-color="#fff"/>
      <stop offset="0.356" stop-color="#f9fafb"/>
      <stop offset="0.788" stop-color="#eaedef"/>
      <stop offset="1" stop-color="#e1e5e8"/>
    </linearGradient>
    <linearGradient id="linear-gradient-3" x1="0.284" y1="0.097" x2="0.555" y2="0.844" gradientUnits="objectBoundingBox">
      <stop offset="0" stop-color="#e1e5e8"/>
      <stop offset="0.212" stop-color="#eaedef"/>
      <stop offset="0.644" stop-color="#f9fafb"/>
      <stop offset="1" stop-color="#fff"/>
    </linearGradient>
  </defs>
  <g id="Grupo_965523" data-name="Grupo 965523" transform="translate(-6816.984 3708.805)">
    <path id="Trazado_729176" data-name="Trazado 729176" d="M500.808,315.189c13.613-2.7,26.619-8.311,36.68-17.737,17.051-15.973,23.878-41.43,20.606-64.173a81.8,81.8,0,0,0-33.312-54.315c-16.247-11.522-36.6-15.584-51.751-28.884-16.488-14.469-25.533-35.134-39.6-51.644-15.532-18.225-39.933-29.581-63.581-31.527-35.084-2.888-77.034,15.772-88.119,51.446-8.763,28.2,5.865,55.365,3.4,83.681a103.012,103.012,0,0,1-33.084,67.078c-12.2,11.136-25.531,22.114-31.864,37.365-10.03,24.16,1.085,52.749,21.754,67.432,20.931,14.868,48.546,15.384,72.125,7.044a116.408,116.408,0,0,0,38.005-22.435c12.282-10.845,20.54-25.625,34.293-34.894,30.778-20.743,67.114-4.543,100.757-6.672A104.405,104.405,0,0,0,500.808,315.189Z" transform="translate(6658.679 -3765.617)" fill="#ffeeac"/>
    <path id="Trazado_729177" data-name="Trazado 729177" d="M387.942,409.53a100.13,100.13,0,0,1-22.524-2.5c-26.124-6.039-49.719-22.382-63.116-43.717-4.971-7.915-9-16.475-12.9-24.754-5.648-11.992-11.488-24.392-20.155-34.568-7.324-8.6-16.572-14.539-26.363-20.827-7.8-5.008-15.861-10.185-22.811-16.816a89.345,89.345,0,0,1-27.284-63.636c.058-26.826,12.48-52.106,32.42-65.974,11.4-7.927,26.038-12.556,42.342-13.387,1.808-.092,3.657-.139,5.5-.139,3.085,0,6.244.131,9.388.389,11.964.981,23.99,4.167,35.62,7.248,13.644,3.614,27.751,7.351,41.4,7.351a61.279,61.279,0,0,0,27.147-5.957c8.735-4.2,15.844-10.466,23.369-17.1,5.4-4.765,10.991-9.691,17.22-13.757a125.771,125.771,0,0,1,43.937-17.968A103.386,103.386,0,0,1,491.1,81.445c22.278,0,42.351,7.457,56.52,21,21.369,20.42,26.9,53.533,12.864,77.023-8.339,13.958-22.047,23.127-35.3,31.994q-2.188,1.464-4.356,2.926a104.779,104.779,0,0,0-43.332,62.9c-2.813,11.918-2.5,24.451-2.2,36.571.422,17.064.857,34.708-7.172,51.487C455.273,392.185,423.8,409.53,387.942,409.53Z" transform="translate(6658.679 -3765.617)" fill="url(#linear-gradient)"/>
    <path id="Trazado_729178" data-name="Trazado 729178" d="M267.674,126.306c-14.554.741-28.918,4.594-40.8,12.86-20.14,14.009-31.1,39.421-31.149,63.548A85.888,85.888,0,0,0,222.09,264.2c15.132,14.437,35.657,21.746,49.385,37.865,14.934,17.535,21.2,40.378,33.308,59.667,13.372,21.293,37,36.8,61.276,42.406,36.013,8.326,82.43-4.7,99.36-40.077,13.386-27.973,2.31-58.414,9.165-87.46a108.168,108.168,0,0,1,44.555-64.671c14.361-9.719,29.883-19.1,38.777-33.986,14.088-23.578,6.879-54.969-12.368-73.361-19.489-18.624-48.1-23.352-73.867-18.265a122.245,122.245,0,0,0-42.892,17.542c-14.406,9.4-25.229,23.506-40.924,31.048-35.127,16.88-70.421-5.466-105.7-8.359A109.274,109.274,0,0,0,267.674,126.306Z" transform="translate(6658.679 -3765.617)" fill="#34bc85"/>
    <path id="Trazado_729180" data-name="Trazado 729180" d="M292.737,344.426A56.4,56.4,0,0,1,271.646,333.8c-18.25-14.779-24.648-40.918-14.883-60.8,5.558-11.317,14.88-18.727,23.105-25.264q1.227-.977,2.436-1.944a51.282,51.282,0,0,0,18.609-32.423c.872-5.778.181-12.233-.552-19.067-1.2-11.178-2.555-23.845,2.508-37.123,5.232-13.721,16.286-25.039,31.126-31.869a76.686,76.686,0,0,1,42.05-6.166,74.209,74.209,0,0,1,8.417,1.739c16.061,4.3,30.608,13.886,39.91,26.308a150.371,150.371,0,0,1,9.834,15.544c3.774,6.559,7.336,12.747,11.916,17.307,3.566,3.551,8.667,6.263,14.068,9.135,5.468,2.909,11.122,5.916,16.562,10.313a65.714,65.714,0,0,1,24.15,45.63c1.611,20.131-6.329,40.011-20.721,51.882-8.255,6.813-19,11.268-31.081,12.882a80.324,80.324,0,0,1-10.624.7c-8.355,0-16.315-1.42-24.014-2.8-13.415-2.4-24-4.289-33.145,1.072-3.61,2.115-7.02,5.66-10.631,9.414a102.128,102.128,0,0,1-11.03,10.346,88.618,88.618,0,0,1-29.808,15.143A69.879,69.879,0,0,1,292.737,344.426Z" transform="translate(6658.679 -3765.617)" style="mix-blend-mode: overlay;isolation: isolate"/>
    <path id="Trazado_729181" data-name="Trazado 729181" d="M447.24,295.959c8.754-1.171,17.238-4.211,24.005-9.794,11.469-9.462,16.825-25.355,15.658-39.93a52.053,52.053,0,0,0-18.98-35.829c-9.857-7.968-22.618-11.363-31.71-20.417-9.891-9.849-14.807-23.336-23.082-34.385-9.134-12.2-24.176-20.385-39.117-22.569-22.165-3.24-49.554,6.931-58.023,29.142-6.7,17.561,1.507,35.4-1.191,53.281a65.551,65.551,0,0,1-23.7,41.275c-8.191,6.583-17.1,13.021-21.733,22.453-7.338,14.942-1.425,33.544,11.114,43.7,12.7,10.281,30.214,11.715,45.523,7.363a74.062,74.062,0,0,0,25.035-12.726c8.234-6.4,14.071-15.45,23.176-20.786,20.378-11.94,42.806-.2,64.257-.2A66.278,66.278,0,0,0,447.24,295.959Z" transform="translate(6658.679 -3765.617)" fill="url(#linear-gradient-2)"/>
    <path id="Trazado_729182" data-name="Trazado 729182" d="M297.273,327.469a38.983,38.983,0,0,1-14.581-7.315c-12.045-9.754-16.418-26.7-10.172-39.419,3.818-7.775,11.167-13.616,18.275-19.266.839-.668,1.677-1.333,2.506-2a68.793,68.793,0,0,0,24.971-43.487c1.209-8.014.362-15.916-.457-23.556-1.083-10.107-2.105-19.655,1.457-29,7.877-20.661,33.761-29.912,54.234-26.92a56.784,56.784,0,0,1,6.419,1.329c12.33,3.3,23.408,10.541,30.4,19.872a134.76,134.76,0,0,1,8.67,13.777c4.181,7.264,8.5,14.776,14.746,20.991,5.407,5.386,11.916,8.847,18.21,12.195,4.956,2.635,9.637,5.125,13.768,8.465A48.744,48.744,0,0,1,483.4,246.516c1.144,14.284-4.506,28.784-14.392,36.941-5.725,4.722-13.414,7.842-22.236,9.022a63.016,63.016,0,0,1-8.3.542c-6.8,0-13.67-1.226-20.94-2.526-14.923-2.668-30.355-5.426-45.09,3.209-5.7,3.339-10.127,7.94-14.406,12.389a87.362,87.362,0,0,1-9.149,8.653,70.872,70.872,0,0,1-23.842,12.122,53.068,53.068,0,0,1-27.771.6Z" transform="translate(6658.679 -3765.617)" fill="url(#linear-gradient-3)"/>
    <path id="Trazado_730137" data-name="Trazado 730137" d="M7.438,12.656H3.328L2.547,15H.055L4.289,3.625H6.461L10.719,15H8.227Zm-3.477-1.9H6.8L5.375,6.5Zm11.188,2.578a1.481,1.481,0,0,0,1.016-.344,1.2,1.2,0,0,0,.406-.914h2.117a2.9,2.9,0,0,1-.469,1.574,3.093,3.093,0,0,1-1.262,1.109,3.949,3.949,0,0,1-1.77.395A3.67,3.67,0,0,1,12.328,14a4.56,4.56,0,0,1-1.047-3.184v-.148A4.508,4.508,0,0,1,12.32,7.555a3.627,3.627,0,0,1,2.852-1.164,3.555,3.555,0,0,1,2.543.9,3.2,3.2,0,0,1,.973,2.4H16.57a1.539,1.539,0,0,0-.406-1.066,1.513,1.513,0,0,0-2.223.164,3.324,3.324,0,0,0-.4,1.863v.234a3.366,3.366,0,0,0,.4,1.875A1.378,1.378,0,0,0,15.148,13.336Zm8.344,0a1.481,1.481,0,0,0,1.016-.344,1.2,1.2,0,0,0,.406-.914h2.117a2.9,2.9,0,0,1-.469,1.574A3.093,3.093,0,0,1,25.3,14.762a3.949,3.949,0,0,1-1.77.395A3.67,3.67,0,0,1,20.672,14a4.56,4.56,0,0,1-1.047-3.184v-.148a4.508,4.508,0,0,1,1.039-3.117,3.627,3.627,0,0,1,2.852-1.164,3.555,3.555,0,0,1,2.543.9,3.2,3.2,0,0,1,.973,2.4H24.914a1.539,1.539,0,0,0-.406-1.066,1.513,1.513,0,0,0-2.223.164,3.324,3.324,0,0,0-.4,1.863v.234a3.366,3.366,0,0,0,.4,1.875A1.378,1.378,0,0,0,23.492,13.336ZM30.7,15H28.438V6.547H30.7ZM28.3,4.359a1.112,1.112,0,0,1,.34-.836,1.465,1.465,0,0,1,1.848,0,1.105,1.105,0,0,1,.344.836,1.108,1.108,0,0,1-.348.844,1.448,1.448,0,0,1-1.836,0A1.108,1.108,0,0,1,28.3,4.359ZM32.211,10.7A5.013,5.013,0,0,1,32.7,8.453,3.546,3.546,0,0,1,34.09,6.93,4.069,4.069,0,0,1,36.2,6.391,3.849,3.849,0,0,1,39,7.438,4.2,4.2,0,0,1,40.2,10.281l.016.578a4.418,4.418,0,0,1-1.086,3.121,4.209,4.209,0,0,1-5.832,0,4.5,4.5,0,0,1-1.09-3.187Zm2.258.164a3.151,3.151,0,0,0,.453,1.84,1.629,1.629,0,0,0,2.578.008,3.448,3.448,0,0,0,.461-2.012A3.12,3.12,0,0,0,37.5,8.867a1.5,1.5,0,0,0-1.3-.648,1.475,1.475,0,0,0-1.281.645A3.506,3.506,0,0,0,34.469,10.859Zm9.219-4.312.07.977a2.951,2.951,0,0,1,2.43-1.133,2.453,2.453,0,0,1,2,.789,3.682,3.682,0,0,1,.672,2.359V15H46.6V9.594a1.465,1.465,0,0,0-.312-1.043,1.4,1.4,0,0,0-1.039-.324,1.553,1.553,0,0,0-1.43.813V15H41.563V6.547Zm10.773,8.609a4.15,4.15,0,0,1-3.027-1.141,4.054,4.054,0,0,1-1.168-3.039v-.219a5.106,5.106,0,0,1,.492-2.277,3.612,3.612,0,0,1,1.395-1.547,3.914,3.914,0,0,1,2.059-.543,3.508,3.508,0,0,1,2.73,1.094,4.444,4.444,0,0,1,1,3.1v.922H52.555a2.1,2.1,0,0,0,.66,1.328,2,2,0,0,0,1.395.5,2.437,2.437,0,0,0,2.039-.945l1.109,1.242a3.389,3.389,0,0,1-1.375,1.121A4.511,4.511,0,0,1,54.461,15.156ZM54.2,8.219a1.414,1.414,0,0,0-1.09.453,2.341,2.341,0,0,0-.535,1.3h3.141v-.18a1.669,1.669,0,0,0-.406-1.16A1.459,1.459,0,0,0,54.2,8.219ZM63.8,12.664a.727.727,0,0,0-.41-.652,4.659,4.659,0,0,0-1.316-.426q-3.016-.633-3.016-2.562a2.323,2.323,0,0,1,.934-1.879,3.766,3.766,0,0,1,2.441-.754A4.053,4.053,0,0,1,65,7.148a2.388,2.388,0,0,1,.965,1.969H63.711a1.092,1.092,0,0,0-.312-.8A1.322,1.322,0,0,0,62.422,8a1.351,1.351,0,0,0-.883.258.814.814,0,0,0-.312.656.7.7,0,0,0,.355.605,3.657,3.657,0,0,0,1.2.4A9.8,9.8,0,0,1,64.2,10.3a2.336,2.336,0,0,1,1.789,2.273A2.2,2.2,0,0,1,65,14.441a4.28,4.28,0,0,1-2.562.715,4.47,4.47,0,0,1-1.887-.379,3.166,3.166,0,0,1-1.293-1.039,2.414,2.414,0,0,1-.469-1.426H60.93a1.179,1.179,0,0,0,.445.922,1.766,1.766,0,0,0,1.109.32,1.635,1.635,0,0,0,.98-.246A.766.766,0,0,0,63.8,12.664ZM4.758,39.156A4.15,4.15,0,0,1,1.73,38.016,4.054,4.054,0,0,1,.563,34.977v-.219a5.106,5.106,0,0,1,.492-2.277,3.612,3.612,0,0,1,1.395-1.547,3.914,3.914,0,0,1,2.059-.543,3.508,3.508,0,0,1,2.73,1.094,4.444,4.444,0,0,1,1,3.1v.922H2.852a2.1,2.1,0,0,0,.66,1.328,2,2,0,0,0,1.395.5,2.437,2.437,0,0,0,2.039-.945l1.109,1.242A3.389,3.389,0,0,1,6.68,38.754,4.511,4.511,0,0,1,4.758,39.156ZM4.5,32.219a1.414,1.414,0,0,0-1.09.453,2.341,2.341,0,0,0-.535,1.3H6.016v-.18a1.669,1.669,0,0,0-.406-1.16A1.459,1.459,0,0,0,4.5,32.219Zm9.594,4.445a.727.727,0,0,0-.41-.652,4.659,4.659,0,0,0-1.316-.426q-3.016-.633-3.016-2.562a2.323,2.323,0,0,1,.934-1.879,3.766,3.766,0,0,1,2.441-.754,4.053,4.053,0,0,1,2.574.758,2.388,2.388,0,0,1,.965,1.969H14.008a1.092,1.092,0,0,0-.312-.8A1.322,1.322,0,0,0,12.719,32a1.351,1.351,0,0,0-.883.258.814.814,0,0,0-.312.656.7.7,0,0,0,.355.605,3.657,3.657,0,0,0,1.2.4A9.8,9.8,0,0,1,14.5,34.3a2.336,2.336,0,0,1,1.789,2.273,2.2,2.2,0,0,1-.992,1.871,4.28,4.28,0,0,1-2.562.715,4.47,4.47,0,0,1-1.887-.379,3.166,3.166,0,0,1-1.293-1.039,2.414,2.414,0,0,1-.469-1.426h2.141a1.179,1.179,0,0,0,.445.922,1.766,1.766,0,0,0,1.109.32,1.635,1.635,0,0,0,.98-.246A.766.766,0,0,0,14.094,36.664Zm11.258-1.812a5.07,5.07,0,0,1-.887,3.129,2.843,2.843,0,0,1-2.395,1.176A2.633,2.633,0,0,1,20,38.266V42.25H17.742v-11.7h2.094l.078.828a2.654,2.654,0,0,1,2.141-.984,2.862,2.862,0,0,1,2.43,1.156,5.207,5.207,0,0,1,.867,3.188Zm-2.258-.164a3.327,3.327,0,0,0-.418-1.82,1.361,1.361,0,0,0-1.215-.641A1.478,1.478,0,0,0,20,33.039V36.5a1.5,1.5,0,0,0,1.477.836Q23.094,37.336,23.094,34.688Zm7.547,4.469a4.15,4.15,0,0,1-3.027-1.141,4.054,4.054,0,0,1-1.168-3.039v-.219a5.106,5.106,0,0,1,.492-2.277,3.612,3.612,0,0,1,1.395-1.547,3.914,3.914,0,0,1,2.059-.543,3.508,3.508,0,0,1,2.73,1.094,4.444,4.444,0,0,1,1,3.1v.922H28.734a2.1,2.1,0,0,0,.66,1.328,2,2,0,0,0,1.395.5,2.437,2.437,0,0,0,2.039-.945l1.109,1.242a3.389,3.389,0,0,1-1.375,1.121A4.511,4.511,0,0,1,30.641,39.156Zm-.258-6.937a1.414,1.414,0,0,0-1.09.453,2.341,2.341,0,0,0-.535,1.3H31.9v-.18a1.669,1.669,0,0,0-.406-1.16A1.459,1.459,0,0,0,30.383,32.219Zm8.531,5.117a1.481,1.481,0,0,0,1.016-.344,1.2,1.2,0,0,0,.406-.914h2.117a2.9,2.9,0,0,1-.469,1.574,3.093,3.093,0,0,1-1.262,1.109,3.949,3.949,0,0,1-1.77.395A3.67,3.67,0,0,1,36.094,38a4.56,4.56,0,0,1-1.047-3.184v-.148a4.508,4.508,0,0,1,1.039-3.117,3.627,3.627,0,0,1,2.852-1.164,3.555,3.555,0,0,1,2.543.9,3.2,3.2,0,0,1,.973,2.4H40.336a1.539,1.539,0,0,0-.406-1.066,1.513,1.513,0,0,0-2.223.164,3.324,3.324,0,0,0-.4,1.863v.234a3.366,3.366,0,0,0,.4,1.875A1.378,1.378,0,0,0,38.914,37.336ZM46.18,39H43.922V30.547H46.18Zm-.664-11.883h2.461l-2.164,2.422H43.977ZM48.672,39V32.2H47.414V30.547h1.258v-.391a3.17,3.17,0,0,1,.98-2.457,3.945,3.945,0,0,1,2.723-.863,9.031,9.031,0,0,1,2.563.461l-.328,1.867a10,10,0,0,0-1.187-.293,5.834,5.834,0,0,0-.906-.066q-1.578,0-1.578,1.4v.344H52.6V32.2H50.938V39Zm7.32,0H53.727V30.547h2.266Zm5.383-1.664a1.481,1.481,0,0,0,1.016-.344,1.2,1.2,0,0,0,.406-.914h2.117a2.9,2.9,0,0,1-.469,1.574,3.093,3.093,0,0,1-1.262,1.109,3.949,3.949,0,0,1-1.77.395A3.67,3.67,0,0,1,58.555,38a4.56,4.56,0,0,1-1.047-3.184v-.148a4.508,4.508,0,0,1,1.039-3.117A3.627,3.627,0,0,1,61.4,30.391a3.555,3.555,0,0,1,2.543.9,3.2,3.2,0,0,1,.973,2.4H62.8a1.539,1.539,0,0,0-.406-1.066,1.513,1.513,0,0,0-2.223.164,3.324,3.324,0,0,0-.4,1.863v.234a3.366,3.366,0,0,0,.4,1.875A1.378,1.378,0,0,0,61.375,37.336ZM71.1,39a2.507,2.507,0,0,1-.227-.758,2.732,2.732,0,0,1-2.133.914,3,3,0,0,1-2.059-.719,2.312,2.312,0,0,1-.816-1.812,2.389,2.389,0,0,1,1-2.062,4.915,4.915,0,0,1,2.879-.727h1.039v-.484a1.393,1.393,0,0,0-.3-.937,1.183,1.183,0,0,0-.949-.352,1.345,1.345,0,0,0-.895.273.929.929,0,0,0-.324.75H66.055a2.268,2.268,0,0,1,.453-1.359,3,3,0,0,1,1.281-.98,4.669,4.669,0,0,1,1.859-.355,3.689,3.689,0,0,1,2.48.785,2.747,2.747,0,0,1,.918,2.207v3.664a4.041,4.041,0,0,0,.336,1.82V39Zm-1.867-1.57a1.945,1.945,0,0,0,.922-.223,1.462,1.462,0,0,0,.625-.6V35.156h-.844q-1.7,0-1.8,1.172l-.008.133a.9.9,0,0,0,.3.7A1.153,1.153,0,0,0,69.234,37.43Zm10.125-.766a.727.727,0,0,0-.41-.652,4.659,4.659,0,0,0-1.316-.426q-3.016-.633-3.016-2.562a2.323,2.323,0,0,1,.934-1.879,3.766,3.766,0,0,1,2.441-.754,4.053,4.053,0,0,1,2.574.758,2.388,2.388,0,0,1,.965,1.969H79.273a1.092,1.092,0,0,0-.312-.8A1.322,1.322,0,0,0,77.984,32a1.351,1.351,0,0,0-.883.258.814.814,0,0,0-.312.656.7.7,0,0,0,.355.605,3.657,3.657,0,0,0,1.2.4,9.8,9.8,0,0,1,1.422.379,2.336,2.336,0,0,1,1.789,2.273,2.2,2.2,0,0,1-.992,1.871A4.28,4.28,0,0,1,78,39.156a4.47,4.47,0,0,1-1.887-.379,3.166,3.166,0,0,1-1.293-1.039,2.414,2.414,0,0,1-.469-1.426h2.141a1.179,1.179,0,0,0,.445.922,1.766,1.766,0,0,0,1.109.32,1.635,1.635,0,0,0,.98-.246A.766.766,0,0,0,79.359,36.664Z" transform="translate(6955 -3712)" fill="#12263f"/>
    <path id="Trazado_730138" data-name="Trazado 730138" d="M7.438,12.656H3.328L2.547,15H.055L4.289,3.625H6.461L10.719,15H8.227Zm-3.477-1.9H6.8L5.375,6.5Zm11.188,2.578a1.481,1.481,0,0,0,1.016-.344,1.2,1.2,0,0,0,.406-.914h2.117a2.9,2.9,0,0,1-.469,1.574,3.093,3.093,0,0,1-1.262,1.109,3.949,3.949,0,0,1-1.77.395A3.67,3.67,0,0,1,12.328,14a4.56,4.56,0,0,1-1.047-3.184v-.148A4.508,4.508,0,0,1,12.32,7.555a3.627,3.627,0,0,1,2.852-1.164,3.555,3.555,0,0,1,2.543.9,3.2,3.2,0,0,1,.973,2.4H16.57a1.539,1.539,0,0,0-.406-1.066,1.513,1.513,0,0,0-2.223.164,3.324,3.324,0,0,0-.4,1.863v.234a3.366,3.366,0,0,0,.4,1.875A1.378,1.378,0,0,0,15.148,13.336Zm8.344,0a1.481,1.481,0,0,0,1.016-.344,1.2,1.2,0,0,0,.406-.914h2.117a2.9,2.9,0,0,1-.469,1.574A3.093,3.093,0,0,1,25.3,14.762a3.949,3.949,0,0,1-1.77.395A3.67,3.67,0,0,1,20.672,14a4.56,4.56,0,0,1-1.047-3.184v-.148a4.508,4.508,0,0,1,1.039-3.117,3.627,3.627,0,0,1,2.852-1.164,3.555,3.555,0,0,1,2.543.9,3.2,3.2,0,0,1,.973,2.4H24.914a1.539,1.539,0,0,0-.406-1.066,1.513,1.513,0,0,0-2.223.164,3.324,3.324,0,0,0-.4,1.863v.234a3.366,3.366,0,0,0,.4,1.875A1.378,1.378,0,0,0,23.492,13.336ZM30.7,15H28.438V6.547H30.7ZM28.3,4.359a1.112,1.112,0,0,1,.34-.836,1.465,1.465,0,0,1,1.848,0,1.105,1.105,0,0,1,.344.836,1.108,1.108,0,0,1-.348.844,1.448,1.448,0,0,1-1.836,0A1.108,1.108,0,0,1,28.3,4.359ZM32.211,10.7A5.013,5.013,0,0,1,32.7,8.453,3.546,3.546,0,0,1,34.09,6.93,4.069,4.069,0,0,1,36.2,6.391,3.849,3.849,0,0,1,39,7.438,4.2,4.2,0,0,1,40.2,10.281l.016.578a4.418,4.418,0,0,1-1.086,3.121,4.209,4.209,0,0,1-5.832,0,4.5,4.5,0,0,1-1.09-3.187Zm2.258.164a3.151,3.151,0,0,0,.453,1.84,1.629,1.629,0,0,0,2.578.008,3.448,3.448,0,0,0,.461-2.012A3.12,3.12,0,0,0,37.5,8.867a1.5,1.5,0,0,0-1.3-.648,1.475,1.475,0,0,0-1.281.645A3.506,3.506,0,0,0,34.469,10.859Zm9.219-4.312.07.977a2.951,2.951,0,0,1,2.43-1.133,2.453,2.453,0,0,1,2,.789,3.682,3.682,0,0,1,.672,2.359V15H46.6V9.594a1.465,1.465,0,0,0-.312-1.043,1.4,1.4,0,0,0-1.039-.324,1.553,1.553,0,0,0-1.43.813V15H41.563V6.547Zm10.773,8.609a4.15,4.15,0,0,1-3.027-1.141,4.054,4.054,0,0,1-1.168-3.039v-.219a5.106,5.106,0,0,1,.492-2.277,3.612,3.612,0,0,1,1.395-1.547,3.914,3.914,0,0,1,2.059-.543,3.508,3.508,0,0,1,2.73,1.094,4.444,4.444,0,0,1,1,3.1v.922H52.555a2.1,2.1,0,0,0,.66,1.328,2,2,0,0,0,1.395.5,2.437,2.437,0,0,0,2.039-.945l1.109,1.242a3.389,3.389,0,0,1-1.375,1.121A4.511,4.511,0,0,1,54.461,15.156ZM54.2,8.219a1.414,1.414,0,0,0-1.09.453,2.341,2.341,0,0,0-.535,1.3h3.141v-.18a1.669,1.669,0,0,0-.406-1.16A1.459,1.459,0,0,0,54.2,8.219ZM63.8,12.664a.727.727,0,0,0-.41-.652,4.659,4.659,0,0,0-1.316-.426q-3.016-.633-3.016-2.562a2.323,2.323,0,0,1,.934-1.879,3.766,3.766,0,0,1,2.441-.754A4.053,4.053,0,0,1,65,7.148a2.388,2.388,0,0,1,.965,1.969H63.711a1.092,1.092,0,0,0-.312-.8A1.322,1.322,0,0,0,62.422,8a1.351,1.351,0,0,0-.883.258.814.814,0,0,0-.312.656.7.7,0,0,0,.355.605,3.657,3.657,0,0,0,1.2.4A9.8,9.8,0,0,1,64.2,10.3a2.336,2.336,0,0,1,1.789,2.273A2.2,2.2,0,0,1,65,14.441a4.28,4.28,0,0,1-2.562.715,4.47,4.47,0,0,1-1.887-.379,3.166,3.166,0,0,1-1.293-1.039,2.414,2.414,0,0,1-.469-1.426H60.93a1.179,1.179,0,0,0,.445.922,1.766,1.766,0,0,0,1.109.32,1.635,1.635,0,0,0,.98-.246A.766.766,0,0,0,63.8,12.664Zm-58.352,24a.727.727,0,0,0-.41-.652,4.659,4.659,0,0,0-1.316-.426Q.7,34.953.7,33.023a2.323,2.323,0,0,1,.934-1.879,3.766,3.766,0,0,1,2.441-.754,4.053,4.053,0,0,1,2.574.758,2.388,2.388,0,0,1,.965,1.969H5.359a1.092,1.092,0,0,0-.312-.8A1.322,1.322,0,0,0,4.07,32a1.351,1.351,0,0,0-.883.258.814.814,0,0,0-.312.656.7.7,0,0,0,.355.605,3.657,3.657,0,0,0,1.2.4,9.8,9.8,0,0,1,1.422.379A2.336,2.336,0,0,1,7.641,36.57a2.2,2.2,0,0,1-.992,1.871,4.28,4.28,0,0,1-2.562.715A4.47,4.47,0,0,1,2.2,38.777,3.166,3.166,0,0,1,.906,37.738a2.414,2.414,0,0,1-.469-1.426H2.578a1.179,1.179,0,0,0,.445.922,1.766,1.766,0,0,0,1.109.32,1.635,1.635,0,0,0,.98-.246A.766.766,0,0,0,5.445,36.664ZM11.477,39H9.211V30.547h2.266Zm-2.4-10.641a1.112,1.112,0,0,1,.34-.836,1.277,1.277,0,0,1,.926-.328,1.28,1.28,0,0,1,.922.328,1.193,1.193,0,0,1,0,1.68,1.283,1.283,0,0,1-.918.328,1.283,1.283,0,0,1-.918-.328A1.108,1.108,0,0,1,9.078,28.359Zm8.836,8.3a.727.727,0,0,0-.41-.652,4.659,4.659,0,0,0-1.316-.426q-3.016-.633-3.016-2.562a2.323,2.323,0,0,1,.934-1.879,3.766,3.766,0,0,1,2.441-.754,4.053,4.053,0,0,1,2.574.758,2.388,2.388,0,0,1,.965,1.969H17.828a1.092,1.092,0,0,0-.312-.8A1.322,1.322,0,0,0,16.539,32a1.351,1.351,0,0,0-.883.258.814.814,0,0,0-.312.656.7.7,0,0,0,.355.605,3.657,3.657,0,0,0,1.2.4,9.8,9.8,0,0,1,1.422.379,2.336,2.336,0,0,1,1.789,2.273,2.2,2.2,0,0,1-.992,1.871,4.28,4.28,0,0,1-2.562.715,4.47,4.47,0,0,1-1.887-.379,3.166,3.166,0,0,1-1.293-1.039,2.414,2.414,0,0,1-.469-1.426h2.141a1.179,1.179,0,0,0,.445.922,1.766,1.766,0,0,0,1.109.32,1.635,1.635,0,0,0,.98-.246A.766.766,0,0,0,17.914,36.664Zm6.352-8.2v2.078h1.445V32.2H24.266v4.219a1.007,1.007,0,0,0,.18.672.9.9,0,0,0,.688.2,3.6,3.6,0,0,0,.664-.055v1.711a4.648,4.648,0,0,1-1.367.2,2.156,2.156,0,0,1-2.422-2.4V32.2H20.773V30.547h1.234V28.469Zm6.594,10.688a4.15,4.15,0,0,1-3.027-1.141,4.054,4.054,0,0,1-1.168-3.039v-.219a5.106,5.106,0,0,1,.492-2.277,3.612,3.612,0,0,1,1.395-1.547,3.914,3.914,0,0,1,2.059-.543,3.508,3.508,0,0,1,2.73,1.094,4.444,4.444,0,0,1,1,3.1v.922H28.953a2.1,2.1,0,0,0,.66,1.328,2,2,0,0,0,1.395.5,2.437,2.437,0,0,0,2.039-.945l1.109,1.242a3.389,3.389,0,0,1-1.375,1.121A4.511,4.511,0,0,1,30.859,39.156ZM30.6,32.219a1.414,1.414,0,0,0-1.09.453,2.341,2.341,0,0,0-.535,1.3h3.141v-.18a1.669,1.669,0,0,0-.406-1.16A1.459,1.459,0,0,0,30.6,32.219Zm7.133-1.672.07.945a2.971,2.971,0,0,1,2.43-1.1,2.255,2.255,0,0,1,2.242,1.289,2.9,2.9,0,0,1,2.539-1.289,2.521,2.521,0,0,1,2.047.8,3.681,3.681,0,0,1,.672,2.41V39H45.469V33.609a1.61,1.61,0,0,0-.281-1.051,1.246,1.246,0,0,0-.992-.332,1.409,1.409,0,0,0-1.406.969L42.8,39H40.539V33.617a1.59,1.59,0,0,0-.289-1.062,1.259,1.259,0,0,0-.984-.328,1.463,1.463,0,0,0-1.391.8V39H35.617V30.547ZM54.367,39a2.507,2.507,0,0,1-.227-.758,2.732,2.732,0,0,1-2.133.914,3,3,0,0,1-2.059-.719,2.312,2.312,0,0,1-.816-1.812,2.389,2.389,0,0,1,1-2.062,4.915,4.915,0,0,1,2.879-.727h1.039v-.484a1.393,1.393,0,0,0-.3-.937,1.183,1.183,0,0,0-.949-.352,1.345,1.345,0,0,0-.895.273.929.929,0,0,0-.324.75H49.32a2.268,2.268,0,0,1,.453-1.359,3,3,0,0,1,1.281-.98,4.669,4.669,0,0,1,1.859-.355,3.689,3.689,0,0,1,2.48.785,2.747,2.747,0,0,1,.918,2.207v3.664a4.041,4.041,0,0,0,.336,1.82V39ZM52.5,37.43a1.945,1.945,0,0,0,.922-.223,1.462,1.462,0,0,0,.625-.6V35.156H53.2q-1.7,0-1.8,1.172l-.008.133a.9.9,0,0,0,.3.7A1.153,1.153,0,0,0,52.5,37.43Zm8.25-8.961v2.078H62.2V32.2H60.75v4.219a1.007,1.007,0,0,0,.18.672.9.9,0,0,0,.688.2,3.6,3.6,0,0,0,.664-.055v1.711a4.648,4.648,0,0,1-1.367.2,2.156,2.156,0,0,1-2.422-2.4V32.2H57.258V30.547h1.234V28.469ZM65.836,39H63.57V30.547h2.266Zm-2.4-10.641a1.112,1.112,0,0,1,.34-.836,1.465,1.465,0,0,1,1.848,0,1.193,1.193,0,0,1,0,1.68,1.448,1.448,0,0,1-1.836,0A1.108,1.108,0,0,1,63.438,28.359Zm6.852,8.82h4.133V39H67.406V37.625l3.977-5.25H67.523V30.547H74.3v1.336ZM80.734,39a2.507,2.507,0,0,1-.227-.758,2.732,2.732,0,0,1-2.133.914,3,3,0,0,1-2.059-.719,2.312,2.312,0,0,1-.816-1.812,2.389,2.389,0,0,1,1-2.062,4.915,4.915,0,0,1,2.879-.727h1.039v-.484a1.393,1.393,0,0,0-.3-.937,1.183,1.183,0,0,0-.949-.352,1.345,1.345,0,0,0-.895.273.929.929,0,0,0-.324.75H75.688a2.268,2.268,0,0,1,.453-1.359,3,3,0,0,1,1.281-.98,4.669,4.669,0,0,1,1.859-.355,3.689,3.689,0,0,1,2.48.785,2.747,2.747,0,0,1,.918,2.207v3.664a4.041,4.041,0,0,0,.336,1.82V39Zm-1.867-1.57a1.945,1.945,0,0,0,.922-.223,1.462,1.462,0,0,0,.625-.6V35.156H79.57q-1.7,0-1.8,1.172l-.008.133a.9.9,0,0,0,.3.7A1.153,1.153,0,0,0,78.867,37.43Zm5.2-2.719a5.094,5.094,0,0,1,.887-3.148,2.877,2.877,0,0,1,2.426-1.172,2.589,2.589,0,0,1,2.039.922V27H91.68V39H89.641l-.109-.9a2.657,2.657,0,0,1-2.172,1.055,2.869,2.869,0,0,1-2.395-1.176A5.258,5.258,0,0,1,84.063,34.711Zm2.258.164a3.328,3.328,0,0,0,.414,1.82,1.349,1.349,0,0,0,1.2.633,1.511,1.511,0,0,0,1.477-.883V33.109a1.489,1.489,0,0,0-1.461-.883Q86.32,32.227,86.32,34.875ZM98.328,39a2.507,2.507,0,0,1-.227-.758,2.732,2.732,0,0,1-2.133.914,3,3,0,0,1-2.059-.719,2.312,2.312,0,0,1-.816-1.812,2.389,2.389,0,0,1,1-2.062,4.915,4.915,0,0,1,2.879-.727h1.039v-.484a1.393,1.393,0,0,0-.3-.937,1.183,1.183,0,0,0-.949-.352,1.345,1.345,0,0,0-.895.273.929.929,0,0,0-.324.75H93.281a2.268,2.268,0,0,1,.453-1.359,3,3,0,0,1,1.281-.98,4.669,4.669,0,0,1,1.859-.355,3.689,3.689,0,0,1,2.48.785,2.747,2.747,0,0,1,.918,2.207v3.664a4.041,4.041,0,0,0,.336,1.82V39Zm-1.867-1.57a1.945,1.945,0,0,0,.922-.223,1.462,1.462,0,0,0,.625-.6V35.156h-.844q-1.7,0-1.8,1.172l-.008.133a.9.9,0,0,0,.3.7A1.153,1.153,0,0,0,96.461,37.43Zm10.125-.766a.727.727,0,0,0-.41-.652,4.659,4.659,0,0,0-1.316-.426q-3.016-.633-3.016-2.562a2.323,2.323,0,0,1,.934-1.879,3.766,3.766,0,0,1,2.441-.754,4.053,4.053,0,0,1,2.574.758,2.388,2.388,0,0,1,.965,1.969H106.5a1.092,1.092,0,0,0-.312-.8,1.322,1.322,0,0,0-.977-.316,1.351,1.351,0,0,0-.883.258.814.814,0,0,0-.312.656.7.7,0,0,0,.355.605,3.657,3.657,0,0,0,1.2.4,9.8,9.8,0,0,1,1.422.379,2.336,2.336,0,0,1,1.789,2.273,2.2,2.2,0,0,1-.992,1.871,4.28,4.28,0,0,1-2.562.715,4.47,4.47,0,0,1-1.887-.379,3.166,3.166,0,0,1-1.293-1.039,2.414,2.414,0,0,1-.469-1.426h2.141a1.179,1.179,0,0,0,.445.922,1.766,1.766,0,0,0,1.109.32,1.635,1.635,0,0,0,.98-.246A.766.766,0,0,0,106.586,36.664Z" transform="translate(7165 -3502)" fill="#12263f"/>
    <path id="Trazado_730139" data-name="Trazado 730139" d="M3.359,10.992V15H1.016V3.625H5.453a5.134,5.134,0,0,1,2.254.469A3.454,3.454,0,0,1,9.2,5.426a3.714,3.714,0,0,1,.523,1.965,3.266,3.266,0,0,1-1.145,2.637,4.767,4.767,0,0,1-3.168.965Zm0-1.9H5.453a2.059,2.059,0,0,0,1.418-.437,1.591,1.591,0,0,0,.488-1.25,1.876,1.876,0,0,0-.492-1.352,1.839,1.839,0,0,0-1.359-.531H3.359Zm11.617,6.063a4.15,4.15,0,0,1-3.027-1.141,4.054,4.054,0,0,1-1.168-3.039v-.219a5.106,5.106,0,0,1,.492-2.277,3.612,3.612,0,0,1,1.395-1.547,3.914,3.914,0,0,1,2.059-.543,3.508,3.508,0,0,1,2.73,1.094,4.444,4.444,0,0,1,1,3.1v.922H13.07a2.1,2.1,0,0,0,.66,1.328,2,2,0,0,0,1.395.5,2.437,2.437,0,0,0,2.039-.945l1.109,1.242A3.389,3.389,0,0,1,16.9,14.754,4.511,4.511,0,0,1,14.977,15.156Zm-.258-6.937a1.414,1.414,0,0,0-1.09.453,2.341,2.341,0,0,0-.535,1.3h3.141v-.18a1.669,1.669,0,0,0-.406-1.16A1.459,1.459,0,0,0,14.719,8.219Zm9.766.445a6.134,6.134,0,0,0-.812-.062,1.654,1.654,0,0,0-1.68.867V15H19.734V6.547h2.133l.063,1.008a2.092,2.092,0,0,1,1.883-1.164,2.366,2.366,0,0,1,.7.1Zm4.18-4.2V6.547h1.445V8.2H28.664v4.219a1.007,1.007,0,0,0,.18.672.9.9,0,0,0,.688.2,3.6,3.6,0,0,0,.664-.055v1.711a4.648,4.648,0,0,1-1.367.2,2.156,2.156,0,0,1-2.422-2.4V8.2H25.172V6.547h1.234V4.469ZM33.75,15H31.484V6.547H33.75Zm-2.4-10.641a1.112,1.112,0,0,1,.34-.836,1.465,1.465,0,0,1,1.848,0,1.105,1.105,0,0,1,.344.836,1.108,1.108,0,0,1-.348.844,1.448,1.448,0,0,1-1.836,0A1.108,1.108,0,0,1,31.352,4.359Zm6.336,2.188.07.977a2.951,2.951,0,0,1,2.43-1.133,2.453,2.453,0,0,1,2,.789,3.682,3.682,0,0,1,.672,2.359V15H40.6V9.594a1.465,1.465,0,0,0-.312-1.043,1.4,1.4,0,0,0-1.039-.324,1.553,1.553,0,0,0-1.43.813V15H35.563V6.547Zm10.773,8.609a4.15,4.15,0,0,1-3.027-1.141,4.054,4.054,0,0,1-1.168-3.039v-.219a5.106,5.106,0,0,1,.492-2.277,3.612,3.612,0,0,1,1.395-1.547,3.914,3.914,0,0,1,2.059-.543,3.508,3.508,0,0,1,2.73,1.094,4.444,4.444,0,0,1,1,3.1v.922H46.555a2.1,2.1,0,0,0,.66,1.328,2,2,0,0,0,1.395.5,2.437,2.437,0,0,0,2.039-.945l1.109,1.242a3.389,3.389,0,0,1-1.375,1.121A4.511,4.511,0,0,1,48.461,15.156ZM48.2,8.219a1.414,1.414,0,0,0-1.09.453,2.341,2.341,0,0,0-.535,1.3h3.141v-.18a1.669,1.669,0,0,0-.406-1.16A1.459,1.459,0,0,0,48.2,8.219ZM55.3,6.547l.07.977A2.951,2.951,0,0,1,57.8,6.391a2.453,2.453,0,0,1,2,.789,3.682,3.682,0,0,1,.672,2.359V15H58.211V9.594A1.465,1.465,0,0,0,57.9,8.551a1.4,1.4,0,0,0-1.039-.324,1.553,1.553,0,0,0-1.43.813V15H53.172V6.547Zm10.4,6.789a1.481,1.481,0,0,0,1.016-.344,1.2,1.2,0,0,0,.406-.914h2.117a2.9,2.9,0,0,1-.469,1.574A3.093,3.093,0,0,1,67.5,14.762a3.949,3.949,0,0,1-1.77.395A3.67,3.67,0,0,1,62.875,14a4.56,4.56,0,0,1-1.047-3.184v-.148a4.508,4.508,0,0,1,1.039-3.117,3.627,3.627,0,0,1,2.852-1.164,3.555,3.555,0,0,1,2.543.9,3.2,3.2,0,0,1,.973,2.4H67.117a1.539,1.539,0,0,0-.406-1.066,1.513,1.513,0,0,0-2.223.164,3.324,3.324,0,0,0-.4,1.863v.234a3.366,3.366,0,0,0,.4,1.875A1.378,1.378,0,0,0,65.7,13.336ZM72.906,15H70.641V6.547h2.266Zm-2.4-10.641a1.112,1.112,0,0,1,.34-.836,1.465,1.465,0,0,1,1.848,0,1.105,1.105,0,0,1,.344.836,1.108,1.108,0,0,1-.348.844,1.448,1.448,0,0,1-1.836,0A1.108,1.108,0,0,1,70.508,4.359ZM79.664,15a2.507,2.507,0,0,1-.227-.758,2.732,2.732,0,0,1-2.133.914,3,3,0,0,1-2.059-.719,2.312,2.312,0,0,1-.816-1.812,2.389,2.389,0,0,1,1-2.062A4.915,4.915,0,0,1,78.3,9.836h1.039V9.352a1.393,1.393,0,0,0-.3-.937,1.183,1.183,0,0,0-.949-.352,1.345,1.345,0,0,0-.895.273.929.929,0,0,0-.324.75H74.617a2.268,2.268,0,0,1,.453-1.359,3,3,0,0,1,1.281-.98,4.669,4.669,0,0,1,1.859-.355,3.689,3.689,0,0,1,2.48.785,2.747,2.747,0,0,1,.918,2.207v3.664a4.041,4.041,0,0,0,.336,1.82V15ZM77.8,13.43a1.945,1.945,0,0,0,.922-.223,1.462,1.462,0,0,0,.625-.6V11.156H78.5q-1.7,0-1.8,1.172l-.008.133a.9.9,0,0,0,.3.7A1.153,1.153,0,0,0,77.8,13.43Zm9.18-2.719a5.094,5.094,0,0,1,.887-3.148,2.877,2.877,0,0,1,2.426-1.172,2.589,2.589,0,0,1,2.039.922V3h2.266V15H92.555l-.109-.9a2.657,2.657,0,0,1-2.172,1.055,2.869,2.869,0,0,1-2.395-1.176A5.258,5.258,0,0,1,86.977,10.711Zm2.258.164a3.328,3.328,0,0,0,.414,1.82,1.349,1.349,0,0,0,1.2.633,1.511,1.511,0,0,0,1.477-.883V9.109a1.489,1.489,0,0,0-1.461-.883Q89.234,8.227,89.234,10.875Zm11,4.281a4.15,4.15,0,0,1-3.027-1.141,4.054,4.054,0,0,1-1.168-3.039v-.219a5.106,5.106,0,0,1,.492-2.277,3.612,3.612,0,0,1,1.395-1.547,3.914,3.914,0,0,1,2.059-.543,3.508,3.508,0,0,1,2.73,1.094,4.444,4.444,0,0,1,1,3.1v.922H98.328a2.1,2.1,0,0,0,.66,1.328,2,2,0,0,0,1.395.5,2.437,2.437,0,0,0,2.039-.945l1.109,1.242a3.389,3.389,0,0,1-1.375,1.121A4.511,4.511,0,0,1,100.234,15.156Zm-.258-6.937a1.414,1.414,0,0,0-1.09.453,2.341,2.341,0,0,0-.535,1.3h3.141v-.18a1.669,1.669,0,0,0-.406-1.16A1.459,1.459,0,0,0,99.977,8.219ZM3.25,39H.984V27H3.25Zm6.758,0a2.507,2.507,0,0,1-.227-.758,2.732,2.732,0,0,1-2.133.914,3,3,0,0,1-2.059-.719,2.312,2.312,0,0,1-.816-1.812,2.389,2.389,0,0,1,1-2.062,4.915,4.915,0,0,1,2.879-.727H9.688v-.484a1.393,1.393,0,0,0-.3-.937,1.183,1.183,0,0,0-.949-.352,1.345,1.345,0,0,0-.895.273.929.929,0,0,0-.324.75H4.961a2.268,2.268,0,0,1,.453-1.359,3,3,0,0,1,1.281-.98,4.669,4.669,0,0,1,1.859-.355,3.689,3.689,0,0,1,2.48.785,2.747,2.747,0,0,1,.918,2.207v3.664a4.041,4.041,0,0,0,.336,1.82V39ZM8.141,37.43a1.945,1.945,0,0,0,.922-.223,1.462,1.462,0,0,0,.625-.6V35.156H8.844q-1.7,0-1.8,1.172l-.008.133a.9.9,0,0,0,.3.7A1.153,1.153,0,0,0,8.141,37.43Zm10.125-.766a.727.727,0,0,0-.41-.652,4.659,4.659,0,0,0-1.316-.426q-3.016-.633-3.016-2.562a2.323,2.323,0,0,1,.934-1.879,3.766,3.766,0,0,1,2.441-.754,4.053,4.053,0,0,1,2.574.758,2.388,2.388,0,0,1,.965,1.969H18.18a1.092,1.092,0,0,0-.312-.8A1.322,1.322,0,0,0,16.891,32a1.351,1.351,0,0,0-.883.258.814.814,0,0,0-.312.656.7.7,0,0,0,.355.605,3.657,3.657,0,0,0,1.2.4,9.8,9.8,0,0,1,1.422.379,2.336,2.336,0,0,1,1.789,2.273,2.2,2.2,0,0,1-.992,1.871,4.28,4.28,0,0,1-2.562.715,4.47,4.47,0,0,1-1.887-.379,3.166,3.166,0,0,1-1.293-1.039,2.414,2.414,0,0,1-.469-1.426H15.4a1.179,1.179,0,0,0,.445.922,1.766,1.766,0,0,0,1.109.32,1.635,1.635,0,0,0,.98-.246A.766.766,0,0,0,18.266,36.664ZM30.8,39a2.507,2.507,0,0,1-.227-.758,2.732,2.732,0,0,1-2.133.914,3,3,0,0,1-2.059-.719,2.312,2.312,0,0,1-.816-1.812,2.389,2.389,0,0,1,1-2.062,4.915,4.915,0,0,1,2.879-.727h1.039v-.484a1.393,1.393,0,0,0-.3-.937,1.183,1.183,0,0,0-.949-.352,1.345,1.345,0,0,0-.895.273.929.929,0,0,0-.324.75H25.75a2.268,2.268,0,0,1,.453-1.359,3,3,0,0,1,1.281-.98,4.669,4.669,0,0,1,1.859-.355,3.689,3.689,0,0,1,2.48.785,2.747,2.747,0,0,1,.918,2.207v3.664a4.041,4.041,0,0,0,.336,1.82V39ZM28.93,37.43a1.945,1.945,0,0,0,.922-.223,1.462,1.462,0,0,0,.625-.6V35.156h-.844q-1.7,0-1.8,1.172l-.008.133a.9.9,0,0,0,.3.7A1.153,1.153,0,0,0,28.93,37.43Zm9.063-.094a1.481,1.481,0,0,0,1.016-.344,1.2,1.2,0,0,0,.406-.914h2.117a2.9,2.9,0,0,1-.469,1.574A3.093,3.093,0,0,1,39.8,38.762a3.949,3.949,0,0,1-1.77.395A3.67,3.67,0,0,1,35.172,38a4.56,4.56,0,0,1-1.047-3.184v-.148a4.508,4.508,0,0,1,1.039-3.117,3.627,3.627,0,0,1,2.852-1.164,3.555,3.555,0,0,1,2.543.9,3.2,3.2,0,0,1,.973,2.4H39.414a1.539,1.539,0,0,0-.406-1.066,1.513,1.513,0,0,0-2.223.164,3.324,3.324,0,0,0-.4,1.863v.234a3.366,3.366,0,0,0,.4,1.875A1.378,1.378,0,0,0,37.992,37.336Zm8.344,0a1.481,1.481,0,0,0,1.016-.344,1.2,1.2,0,0,0,.406-.914h2.117a2.9,2.9,0,0,1-.469,1.574,3.093,3.093,0,0,1-1.262,1.109,3.949,3.949,0,0,1-1.77.395A3.67,3.67,0,0,1,43.516,38a4.56,4.56,0,0,1-1.047-3.184v-.148a4.508,4.508,0,0,1,1.039-3.117,3.627,3.627,0,0,1,2.852-1.164,3.555,3.555,0,0,1,2.543.9,3.2,3.2,0,0,1,.973,2.4H47.758a1.539,1.539,0,0,0-.406-1.066,1.513,1.513,0,0,0-2.223.164,3.324,3.324,0,0,0-.4,1.863v.234a3.366,3.366,0,0,0,.4,1.875A1.378,1.378,0,0,0,46.336,37.336ZM53.547,39H51.281V30.547h2.266Zm-2.4-10.641a1.112,1.112,0,0,1,.34-.836,1.465,1.465,0,0,1,1.848,0,1.193,1.193,0,0,1,0,1.68,1.448,1.448,0,0,1-1.836,0A1.108,1.108,0,0,1,51.148,28.359ZM55.055,34.7a5.013,5.013,0,0,1,.484-2.242,3.546,3.546,0,0,1,1.395-1.523,4.069,4.069,0,0,1,2.113-.539,3.849,3.849,0,0,1,2.793,1.047,4.2,4.2,0,0,1,1.207,2.844l.016.578a4.418,4.418,0,0,1-1.086,3.121,4.209,4.209,0,0,1-5.832,0,4.5,4.5,0,0,1-1.09-3.187Zm2.258.164a3.151,3.151,0,0,0,.453,1.84,1.629,1.629,0,0,0,2.578.008A3.448,3.448,0,0,0,60.8,34.7a3.12,3.12,0,0,0-.461-1.828,1.5,1.5,0,0,0-1.3-.648,1.475,1.475,0,0,0-1.281.645A3.506,3.506,0,0,0,57.313,34.859Zm9.219-4.312.07.977a2.951,2.951,0,0,1,2.43-1.133,2.453,2.453,0,0,1,2,.789,3.682,3.682,0,0,1,.672,2.359V39H69.445V33.594a1.465,1.465,0,0,0-.312-1.043,1.4,1.4,0,0,0-1.039-.324,1.553,1.553,0,0,0-1.43.813V39H64.406V30.547ZM77.3,39.156a4.15,4.15,0,0,1-3.027-1.141,4.054,4.054,0,0,1-1.168-3.039v-.219A5.106,5.106,0,0,1,73.6,32.48,3.612,3.612,0,0,1,75,30.934a3.914,3.914,0,0,1,2.059-.543,3.508,3.508,0,0,1,2.73,1.094,4.444,4.444,0,0,1,1,3.1v.922H75.4a2.1,2.1,0,0,0,.66,1.328,2,2,0,0,0,1.395.5,2.437,2.437,0,0,0,2.039-.945L80.6,37.633a3.389,3.389,0,0,1-1.375,1.121A4.511,4.511,0,0,1,77.3,39.156Zm-.258-6.937a1.414,1.414,0,0,0-1.09.453,2.341,2.341,0,0,0-.535,1.3h3.141v-.18a1.669,1.669,0,0,0-.406-1.16A1.459,1.459,0,0,0,77.047,32.219Zm9.594,4.445a.727.727,0,0,0-.41-.652,4.659,4.659,0,0,0-1.316-.426Q81.9,34.953,81.9,33.023a2.323,2.323,0,0,1,.934-1.879,3.766,3.766,0,0,1,2.441-.754,4.053,4.053,0,0,1,2.574.758,2.388,2.388,0,0,1,.965,1.969H86.555a1.092,1.092,0,0,0-.312-.8A1.322,1.322,0,0,0,85.266,32a1.351,1.351,0,0,0-.883.258.814.814,0,0,0-.312.656.7.7,0,0,0,.355.605,3.657,3.657,0,0,0,1.2.4,9.8,9.8,0,0,1,1.422.379,2.336,2.336,0,0,1,1.789,2.273,2.2,2.2,0,0,1-.992,1.871,4.28,4.28,0,0,1-2.562.715,4.47,4.47,0,0,1-1.887-.379A3.166,3.166,0,0,1,82.1,37.738a2.414,2.414,0,0,1-.469-1.426h2.141a1.179,1.179,0,0,0,.445.922,1.766,1.766,0,0,0,1.109.32,1.635,1.635,0,0,0,.98-.246A.766.766,0,0,0,86.641,36.664Z" transform="translate(6816 -3422)" fill="#12263f"/>
    <path id="Trazado_730140" data-name="Trazado 730140" d="M35.293,3.047l2.557,7.219,2.543-7.219h2.693V13H41.028V10.279l.205-4.7L38.547,13H37.139l-2.68-7.41.205,4.689V13H32.613V3.047Zm12.858,10.09a3.631,3.631,0,0,1-2.649-1A3.548,3.548,0,0,1,44.48,9.479V9.288A4.468,4.468,0,0,1,44.911,7.3a3.161,3.161,0,0,1,1.22-1.354,3.425,3.425,0,0,1,1.8-.475,3.07,3.07,0,0,1,2.389.957,3.889,3.889,0,0,1,.872,2.714v.807h-4.71a1.835,1.835,0,0,0,.578,1.162,1.746,1.746,0,0,0,1.22.438,2.132,2.132,0,0,0,1.784-.827l.971,1.087a2.966,2.966,0,0,1-1.2.981A3.947,3.947,0,0,1,48.151,13.137Zm-.226-6.07a1.237,1.237,0,0,0-.954.4A2.048,2.048,0,0,0,46.5,8.6h2.748V8.44A1.46,1.46,0,0,0,48.9,7.425,1.277,1.277,0,0,0,47.926,7.066ZM54.68,3.785V5.6h1.265V7.053H54.68v3.691a.881.881,0,0,0,.157.588.79.79,0,0,0,.6.178,3.15,3.15,0,0,0,.581-.048v1.5a4.067,4.067,0,0,1-1.2.178,1.886,1.886,0,0,1-2.119-2.1V7.053h-1.08V5.6H52.7V3.785Zm1.853,5.448a4.387,4.387,0,0,1,.424-1.962,3.1,3.1,0,0,1,1.22-1.333,3.56,3.56,0,0,1,1.849-.472,3.368,3.368,0,0,1,2.444.916,3.676,3.676,0,0,1,1.056,2.488l.014.506a3.866,3.866,0,0,1-.95,2.731,3.683,3.683,0,0,1-5.1,0,3.934,3.934,0,0,1-.954-2.789Zm1.976.144a2.757,2.757,0,0,0,.4,1.61,1.426,1.426,0,0,0,2.256.007,3.017,3.017,0,0,0,.4-1.76,2.73,2.73,0,0,0-.4-1.6,1.312,1.312,0,0,0-1.135-.567A1.29,1.29,0,0,0,58.9,7.63,3.068,3.068,0,0,0,58.508,9.377Zm5.94-.13a4.457,4.457,0,0,1,.776-2.755,2.517,2.517,0,0,1,2.123-1.025,2.265,2.265,0,0,1,1.784.807V2.5h1.982V13H69.329l-.1-.786a2.325,2.325,0,0,1-1.9.923,2.511,2.511,0,0,1-2.1-1.029A4.6,4.6,0,0,1,64.448,9.247Zm1.976.144a2.912,2.912,0,0,0,.362,1.593,1.181,1.181,0,0,0,1.053.554,1.322,1.322,0,0,0,1.292-.772V7.846a1.3,1.3,0,0,0-1.278-.772Q66.424,7.073,66.424,9.391Zm5.913-.157a4.387,4.387,0,0,1,.424-1.962,3.1,3.1,0,0,1,1.22-1.333,3.56,3.56,0,0,1,1.849-.472,3.368,3.368,0,0,1,2.444.916A3.676,3.676,0,0,1,79.33,8.871l.014.506a3.866,3.866,0,0,1-.95,2.731,3.683,3.683,0,0,1-5.1,0,3.934,3.934,0,0,1-.954-2.789Zm1.976.144a2.757,2.757,0,0,0,.4,1.61,1.426,1.426,0,0,0,2.256.007,3.017,3.017,0,0,0,.4-1.76,2.73,2.73,0,0,0-.4-1.6,1.312,1.312,0,0,0-1.135-.567,1.29,1.29,0,0,0-1.121.564A3.068,3.068,0,0,0,74.313,9.377ZM82.646,13H80.663V2.5h1.982Zm1.319-3.767a4.387,4.387,0,0,1,.424-1.962,3.1,3.1,0,0,1,1.22-1.333,3.56,3.56,0,0,1,1.849-.472,3.368,3.368,0,0,1,2.444.916,3.676,3.676,0,0,1,1.056,2.488l.014.506a3.866,3.866,0,0,1-.95,2.731,3.683,3.683,0,0,1-5.1,0,3.934,3.934,0,0,1-.954-2.789Zm1.976.144a2.757,2.757,0,0,0,.4,1.61,1.426,1.426,0,0,0,2.256.007,3.017,3.017,0,0,0,.4-1.76,2.73,2.73,0,0,0-.4-1.6,1.312,1.312,0,0,0-1.135-.567,1.29,1.29,0,0,0-1.121.564A3.068,3.068,0,0,0,85.94,9.377Zm5.961-.13a4.335,4.335,0,0,1,.81-2.741A2.625,2.625,0,0,1,94.9,5.467a2.3,2.3,0,0,1,1.894.834l.082-.7h1.791v7.15a3.161,3.161,0,0,1-.441,1.688,2.832,2.832,0,0,1-1.241,1.094,4.362,4.362,0,0,1-1.873.376,4.056,4.056,0,0,1-1.586-.325,2.815,2.815,0,0,1-1.169-.837l.875-1.2a2.314,2.314,0,0,0,1.791.827,1.694,1.694,0,0,0,1.224-.42,1.577,1.577,0,0,0,.438-1.193v-.4a2.285,2.285,0,0,1-1.8.772,2.618,2.618,0,0,1-2.157-1.042A4.334,4.334,0,0,1,91.9,9.329Zm1.976.144a2.692,2.692,0,0,0,.4,1.576,1.284,1.284,0,0,0,1.107.571,1.372,1.372,0,0,0,1.292-.677V7.75A1.369,1.369,0,0,0,95.4,7.073a1.292,1.292,0,0,0-1.118.581A3.034,3.034,0,0,0,93.877,9.391ZM102.313,13h-1.976V5.6h1.976Zm-.581-10.4h2.153l-1.894,2.119h-1.606ZM108.3,13a2.194,2.194,0,0,1-.2-.663,2.39,2.39,0,0,1-1.866.8,2.626,2.626,0,0,1-1.8-.629,2.023,2.023,0,0,1-.714-1.586,2.09,2.09,0,0,1,.872-1.8,4.3,4.3,0,0,1,2.519-.636h.909V8.058a1.219,1.219,0,0,0-.263-.82,1.035,1.035,0,0,0-.831-.308,1.177,1.177,0,0,0-.783.239.813.813,0,0,0-.284.656h-1.976a1.985,1.985,0,0,1,.4-1.189,2.621,2.621,0,0,1,1.121-.858,4.086,4.086,0,0,1,1.627-.311,3.228,3.228,0,0,1,2.17.687,2.4,2.4,0,0,1,.8,1.931v3.206a3.536,3.536,0,0,0,.294,1.593V13Zm-1.634-1.374a1.7,1.7,0,0,0,.807-.195,1.28,1.28,0,0,0,.547-.523V9.637h-.738q-1.483,0-1.579,1.025l-.007.116a.791.791,0,0,0,.26.608A1.009,1.009,0,0,0,106.667,11.626Zm11.1-1.422,1.367-4.6h2.119l-2.974,8.545-.164.39a2.255,2.255,0,0,1-2.187,1.449,3.108,3.108,0,0,1-.875-.13v-1.5l.3.007a1.625,1.625,0,0,0,.837-.171,1.123,1.123,0,0,0,.434-.567l.232-.608L114.269,5.6h2.126ZM9.491,31a2.194,2.194,0,0,1-.2-.663,2.39,2.39,0,0,1-1.866.8,2.626,2.626,0,0,1-1.8-.629,2.023,2.023,0,0,1-.714-1.586,2.09,2.09,0,0,1,.872-1.8A4.3,4.3,0,0,1,8.3,26.481H9.21v-.424a1.219,1.219,0,0,0-.263-.82,1.035,1.035,0,0,0-.831-.308,1.177,1.177,0,0,0-.783.239.813.813,0,0,0-.284.656H5.075a1.984,1.984,0,0,1,.4-1.189,2.621,2.621,0,0,1,1.121-.858,4.086,4.086,0,0,1,1.627-.311,3.228,3.228,0,0,1,2.17.687,2.4,2.4,0,0,1,.8,1.931v3.206a3.536,3.536,0,0,0,.294,1.593V31ZM7.857,29.626a1.7,1.7,0,0,0,.807-.195,1.28,1.28,0,0,0,.547-.523V27.637H8.472q-1.483,0-1.579,1.025l-.007.116a.791.791,0,0,0,.26.608A1.009,1.009,0,0,0,7.857,29.626Zm7.93-.082a1.3,1.3,0,0,0,.889-.3,1.054,1.054,0,0,0,.355-.8h1.853a2.534,2.534,0,0,1-.41,1.377,2.706,2.706,0,0,1-1.1.971,3.455,3.455,0,0,1-1.548.345,3.211,3.211,0,0,1-2.5-1.008,3.99,3.99,0,0,1-.916-2.786v-.13a3.944,3.944,0,0,1,.909-2.728,3.174,3.174,0,0,1,2.5-1.019,3.111,3.111,0,0,1,2.225.79,2.8,2.8,0,0,1,.851,2.1H17.031a1.346,1.346,0,0,0-.355-.933,1.324,1.324,0,0,0-1.945.144,2.908,2.908,0,0,0-.352,1.63V27.4a2.945,2.945,0,0,0,.349,1.641A1.205,1.205,0,0,0,15.787,29.544Zm6.59-7.759V23.6h1.265v1.449H22.376v3.691a.881.881,0,0,0,.157.588.79.79,0,0,0,.6.178,3.151,3.151,0,0,0,.581-.048v1.5a4.067,4.067,0,0,1-1.2.178,1.886,1.886,0,0,1-2.119-2.1V25.053h-1.08V23.6H20.4V21.785ZM26.827,31H24.844V23.6h1.982Zm-2.1-9.311a.973.973,0,0,1,.3-.731,1.281,1.281,0,0,1,1.617,0,1.044,1.044,0,0,1,0,1.47,1.267,1.267,0,0,1-1.606,0A.97.97,0,0,1,24.728,21.689Zm6.494,6.9L32.6,23.6h2.064l-2.5,7.4H30.279l-2.5-7.4h2.064ZM37.614,31H35.631V23.6h1.982Zm-2.1-9.311a.973.973,0,0,1,.3-.731,1.281,1.281,0,0,1,1.617,0,1.044,1.044,0,0,1,0,1.47,1.267,1.267,0,0,1-1.606,0A.97.97,0,0,1,35.515,21.689Zm3.418,5.558a4.457,4.457,0,0,1,.776-2.755,2.517,2.517,0,0,1,2.123-1.025,2.265,2.265,0,0,1,1.784.807V20.5H45.6V31H43.814l-.1-.786a2.325,2.325,0,0,1-1.9.923,2.511,2.511,0,0,1-2.1-1.029A4.6,4.6,0,0,1,38.933,27.247Zm1.976.144a2.912,2.912,0,0,0,.362,1.593,1.181,1.181,0,0,0,1.053.554,1.322,1.322,0,0,0,1.292-.772V25.846a1.3,1.3,0,0,0-1.278-.772Q40.909,25.073,40.909,27.391ZM51.416,31a2.194,2.194,0,0,1-.2-.663,2.39,2.39,0,0,1-1.866.8,2.626,2.626,0,0,1-1.8-.629,2.023,2.023,0,0,1-.714-1.586,2.09,2.09,0,0,1,.872-1.8,4.3,4.3,0,0,1,2.519-.636h.909v-.424a1.219,1.219,0,0,0-.263-.82,1.035,1.035,0,0,0-.831-.308,1.177,1.177,0,0,0-.783.239.813.813,0,0,0-.284.656H47a1.984,1.984,0,0,1,.4-1.189,2.621,2.621,0,0,1,1.121-.858,4.086,4.086,0,0,1,1.627-.311,3.228,3.228,0,0,1,2.17.687,2.4,2.4,0,0,1,.8,1.931v3.206a3.536,3.536,0,0,0,.294,1.593V31Zm-1.634-1.374a1.7,1.7,0,0,0,.807-.195,1.28,1.28,0,0,0,.547-.523V27.637H50.4q-1.483,0-1.579,1.025l-.007.116a.791.791,0,0,0,.26.608A1.009,1.009,0,0,0,49.782,29.626Zm4.546-2.379a4.457,4.457,0,0,1,.776-2.755,2.517,2.517,0,0,1,2.123-1.025,2.265,2.265,0,0,1,1.784.807V20.5h1.982V31H59.208l-.1-.786a2.325,2.325,0,0,1-1.9.923,2.511,2.511,0,0,1-2.1-1.029A4.6,4.6,0,0,1,54.328,27.247Zm1.976.144a2.912,2.912,0,0,0,.362,1.593,1.181,1.181,0,0,0,1.053.554,1.322,1.322,0,0,0,1.292-.772V25.846a1.3,1.3,0,0,0-1.278-.772Q56.3,25.073,56.3,27.391Zm9.625,3.746a3.631,3.631,0,0,1-2.649-1,3.548,3.548,0,0,1-1.022-2.659v-.191a4.468,4.468,0,0,1,.431-1.993,3.161,3.161,0,0,1,1.22-1.354,3.425,3.425,0,0,1,1.8-.475,3.07,3.07,0,0,1,2.389.957,3.889,3.889,0,0,1,.872,2.714v.807H64.26a1.835,1.835,0,0,0,.578,1.162,1.746,1.746,0,0,0,1.22.438,2.132,2.132,0,0,0,1.784-.827l.971,1.087a2.966,2.966,0,0,1-1.2.981A3.947,3.947,0,0,1,65.928,31.137Zm-.226-6.07a1.237,1.237,0,0,0-.954.4,2.048,2.048,0,0,0-.468,1.135h2.748V26.44a1.46,1.46,0,0,0-.355-1.015A1.277,1.277,0,0,0,65.7,25.066Zm8.395,3.89a.637.637,0,0,0-.359-.571,4.077,4.077,0,0,0-1.152-.373q-2.639-.554-2.639-2.242a2.032,2.032,0,0,1,.817-1.644,3.3,3.3,0,0,1,2.136-.66,3.547,3.547,0,0,1,2.252.663A2.09,2.09,0,0,1,76,25.853H74.022a.956.956,0,0,0-.273-.7,1.157,1.157,0,0,0-.854-.277,1.182,1.182,0,0,0-.772.226.712.712,0,0,0-.273.574.609.609,0,0,0,.311.53,3.2,3.2,0,0,0,1.049.349,8.571,8.571,0,0,1,1.244.332,2.044,2.044,0,0,1,1.565,1.989,1.929,1.929,0,0,1-.868,1.637,3.745,3.745,0,0,1-2.242.625,3.912,3.912,0,0,1-1.651-.332,2.77,2.77,0,0,1-1.131-.909,2.113,2.113,0,0,1-.41-1.248h1.873a1.031,1.031,0,0,0,.39.807,1.546,1.546,0,0,0,.971.28,1.43,1.43,0,0,0,.858-.215A.67.67,0,0,0,74.1,28.956Zm6.371-1.709a4.457,4.457,0,0,1,.776-2.755,2.517,2.517,0,0,1,2.123-1.025,2.265,2.265,0,0,1,1.784.807V20.5h1.982V31H85.349l-.1-.786a2.325,2.325,0,0,1-1.9.923,2.511,2.511,0,0,1-2.1-1.029A4.6,4.6,0,0,1,80.468,27.247Zm1.976.144a2.912,2.912,0,0,0,.362,1.593,1.181,1.181,0,0,0,1.053.554,1.322,1.322,0,0,0,1.292-.772V25.846a1.3,1.3,0,0,0-1.278-.772Q82.444,25.073,82.444,27.391Zm9.625,3.746a3.631,3.631,0,0,1-2.649-1A3.548,3.548,0,0,1,88.4,27.479v-.191a4.468,4.468,0,0,1,.431-1.993,3.161,3.161,0,0,1,1.22-1.354,3.425,3.425,0,0,1,1.8-.475,3.07,3.07,0,0,1,2.389.957,3.889,3.889,0,0,1,.872,2.714v.807H90.4a1.835,1.835,0,0,0,.578,1.162,1.746,1.746,0,0,0,1.22.438,2.132,2.132,0,0,0,1.784-.827l.971,1.087a2.966,2.966,0,0,1-1.2.981A3.947,3.947,0,0,1,92.069,31.137Zm-.226-6.07a1.237,1.237,0,0,0-.954.4,2.048,2.048,0,0,0-.468,1.135h2.748V26.44a1.46,1.46,0,0,0-.355-1.015A1.277,1.277,0,0,0,91.843,25.066ZM98.317,31H96.334V20.5h1.982Zm11.771-3.63a4.436,4.436,0,0,1-.776,2.738,2.488,2.488,0,0,1-2.1,1.029,2.3,2.3,0,0,1-1.812-.779v3.486H103.43V23.6h1.832l.068.725a2.322,2.322,0,0,1,1.873-.861,2.5,2.5,0,0,1,2.126,1.012,4.556,4.556,0,0,1,.759,2.789Zm-1.976-.144a2.911,2.911,0,0,0-.366-1.593,1.191,1.191,0,0,0-1.063-.561,1.294,1.294,0,0,0-1.278.711v3.028a1.316,1.316,0,0,0,1.292.731Q108.113,29.544,108.113,27.227ZM113.4,31h-1.982V20.5H113.4Zm5.913,0a2.194,2.194,0,0,1-.2-.663,2.39,2.39,0,0,1-1.866.8,2.626,2.626,0,0,1-1.8-.629,2.023,2.023,0,0,1-.714-1.586,2.09,2.09,0,0,1,.872-1.8,4.3,4.3,0,0,1,2.519-.636h.909v-.424a1.219,1.219,0,0,0-.263-.82,1.035,1.035,0,0,0-.831-.308,1.177,1.177,0,0,0-.783.239.813.813,0,0,0-.284.656h-1.976a1.985,1.985,0,0,1,.4-1.189,2.621,2.621,0,0,1,1.121-.858,4.086,4.086,0,0,1,1.627-.311,3.228,3.228,0,0,1,2.17.687,2.4,2.4,0,0,1,.8,1.931v3.206a3.536,3.536,0,0,0,.294,1.593V31Zm-1.634-1.374a1.7,1.7,0,0,0,.807-.195,1.28,1.28,0,0,0,.547-.523V27.637h-.738q-1.483,0-1.579,1.025l-.007.116a.791.791,0,0,0,.26.608A1.009,1.009,0,0,0,117.676,29.626Zm6.672-6.022.062.854a2.582,2.582,0,0,1,2.126-.991,2.146,2.146,0,0,1,1.75.69,3.221,3.221,0,0,1,.588,2.064V31H126.9V26.27a1.282,1.282,0,0,0-.273-.913,1.224,1.224,0,0,0-.909-.284,1.359,1.359,0,0,0-1.251.711V31h-1.976V23.6Zm9.2,3.644a4.457,4.457,0,0,1,.776-2.755,2.517,2.517,0,0,1,2.123-1.025,2.265,2.265,0,0,1,1.784.807V20.5h1.982V31H138.43l-.1-.786a2.325,2.325,0,0,1-1.9.923,2.511,2.511,0,0,1-2.1-1.029A4.6,4.6,0,0,1,133.549,27.247Zm1.976.144a2.912,2.912,0,0,0,.362,1.593,1.181,1.181,0,0,0,1.053.554,1.322,1.322,0,0,0,1.292-.772V25.846a1.3,1.3,0,0,0-1.278-.772Q135.525,25.073,135.525,27.391Zm9.625,3.746a3.631,3.631,0,0,1-2.649-1,3.548,3.548,0,0,1-1.022-2.659v-.191a4.468,4.468,0,0,1,.431-1.993,3.161,3.161,0,0,1,1.22-1.354,3.425,3.425,0,0,1,1.8-.475,3.07,3.07,0,0,1,2.389.957,3.889,3.889,0,0,1,.872,2.714v.807h-4.71a1.835,1.835,0,0,0,.578,1.162,1.746,1.746,0,0,0,1.22.438,2.132,2.132,0,0,0,1.784-.827l.971,1.087a2.966,2.966,0,0,1-1.2.981A3.947,3.947,0,0,1,145.15,31.137Zm-.226-6.07a1.237,1.237,0,0,0-.954.4A2.048,2.048,0,0,0,143.5,26.6h2.748V26.44a1.46,1.46,0,0,0-.355-1.015A1.277,1.277,0,0,0,144.924,25.066ZM17.031,44.687H13.093v2.666h4.621V49H11.042V39.047H17.7v1.661H13.093V43.08h3.938Zm1.319.561a4.457,4.457,0,0,1,.776-2.755,2.517,2.517,0,0,1,2.123-1.025,2.265,2.265,0,0,1,1.784.807V38.5h1.982V49H23.231l-.1-.786a2.325,2.325,0,0,1-1.9.923,2.511,2.511,0,0,1-2.1-1.029A4.6,4.6,0,0,1,18.35,45.247Zm1.976.144a2.912,2.912,0,0,0,.362,1.593,1.181,1.181,0,0,0,1.053.554,1.322,1.322,0,0,0,1.292-.772V43.846a1.3,1.3,0,0,0-1.278-.772Q20.326,43.073,20.326,45.391Zm10.65,2.857a2.477,2.477,0,0,1-2.023.889,2.337,2.337,0,0,1-1.815-.684,2.918,2.918,0,0,1-.639-2V41.6h1.976v4.778q0,1.155,1.053,1.155a1.427,1.427,0,0,0,1.381-.7V41.6H32.89V49H31.031Zm6.48-.7a1.3,1.3,0,0,0,.889-.3,1.054,1.054,0,0,0,.355-.8h1.853a2.534,2.534,0,0,1-.41,1.377,2.706,2.706,0,0,1-1.1.971,3.455,3.455,0,0,1-1.548.345,3.211,3.211,0,0,1-2.5-1.008,3.99,3.99,0,0,1-.916-2.786v-.13a3.944,3.944,0,0,1,.909-2.728,3.174,3.174,0,0,1,2.5-1.019,3.111,3.111,0,0,1,2.225.79,2.8,2.8,0,0,1,.851,2.1H38.7a1.346,1.346,0,0,0-.355-.933,1.324,1.324,0,0,0-1.945.144,2.908,2.908,0,0,0-.352,1.63V45.4a2.945,2.945,0,0,0,.349,1.641A1.205,1.205,0,0,0,37.457,47.544ZM45.967,49a2.194,2.194,0,0,1-.2-.663,2.39,2.39,0,0,1-1.866.8,2.626,2.626,0,0,1-1.8-.629,2.023,2.023,0,0,1-.714-1.586,2.09,2.09,0,0,1,.872-1.8,4.3,4.3,0,0,1,2.519-.636h.909v-.424a1.219,1.219,0,0,0-.263-.82,1.035,1.035,0,0,0-.831-.308,1.177,1.177,0,0,0-.783.239.813.813,0,0,0-.284.656H41.551a1.984,1.984,0,0,1,.4-1.189,2.621,2.621,0,0,1,1.121-.858,4.086,4.086,0,0,1,1.627-.311,3.228,3.228,0,0,1,2.17.687,2.4,2.4,0,0,1,.8,1.931v3.206a3.536,3.536,0,0,0,.294,1.593V49Zm-1.634-1.374a1.7,1.7,0,0,0,.807-.195,1.28,1.28,0,0,0,.547-.523V45.637h-.738q-1.483,0-1.579,1.025l-.007.116a.791.791,0,0,0,.26.608A1.009,1.009,0,0,0,44.333,47.626Zm7.93-.082a1.3,1.3,0,0,0,.889-.3,1.054,1.054,0,0,0,.355-.8H55.36a2.534,2.534,0,0,1-.41,1.377,2.706,2.706,0,0,1-1.1.971,3.455,3.455,0,0,1-1.548.345,3.211,3.211,0,0,1-2.5-1.008,3.99,3.99,0,0,1-.916-2.786v-.13a3.944,3.944,0,0,1,.909-2.728,3.174,3.174,0,0,1,2.5-1.019,3.111,3.111,0,0,1,2.225.79,2.8,2.8,0,0,1,.851,2.1H53.507a1.346,1.346,0,0,0-.355-.933,1.324,1.324,0,0,0-1.945.144,2.908,2.908,0,0,0-.352,1.63V45.4a2.945,2.945,0,0,0,.349,1.641A1.205,1.205,0,0,0,52.263,47.544ZM58.573,49H56.59V41.6h1.982Zm-2.1-9.311a.973.973,0,0,1,.3-.731,1.281,1.281,0,0,1,1.617,0,1.044,1.044,0,0,1,0,1.47,1.267,1.267,0,0,1-1.606,0A.97.97,0,0,1,56.474,39.689Zm3.418,5.544a4.387,4.387,0,0,1,.424-1.962,3.1,3.1,0,0,1,1.22-1.333,3.56,3.56,0,0,1,1.849-.472,3.368,3.368,0,0,1,2.444.916,3.676,3.676,0,0,1,1.056,2.488l.014.506a3.866,3.866,0,0,1-.95,2.731,3.683,3.683,0,0,1-5.1,0,3.934,3.934,0,0,1-.954-2.789Zm1.976.144a2.757,2.757,0,0,0,.4,1.61,1.426,1.426,0,0,0,2.256.007,3.017,3.017,0,0,0,.4-1.76,2.73,2.73,0,0,0-.4-1.6,1.312,1.312,0,0,0-1.135-.567,1.29,1.29,0,0,0-1.121.564A3.068,3.068,0,0,0,61.868,45.377ZM63.775,38.5h2.153l-1.894,2.119H62.428Zm6.159,3.1.062.854a2.582,2.582,0,0,1,2.126-.991,2.146,2.146,0,0,1,1.75.69,3.221,3.221,0,0,1,.588,2.064V49H72.484V44.27a1.282,1.282,0,0,0-.273-.913,1.224,1.224,0,0,0-.909-.284,1.359,1.359,0,0,0-1.251.711V49H68.075V41.6Zm15.258,5.346H81.6L80.913,49H78.732l3.705-9.953h1.9L88.063,49H85.882ZM82.15,45.288h2.488l-1.251-3.726ZM90.387,41.6l.062.827a2.6,2.6,0,0,1,2.126-.964,1.973,1.973,0,0,1,1.962,1.128,2.54,2.54,0,0,1,2.222-1.128,2.206,2.206,0,0,1,1.791.7,3.221,3.221,0,0,1,.588,2.109V49H97.155V44.283a1.408,1.408,0,0,0-.246-.919,1.091,1.091,0,0,0-.868-.291,1.233,1.233,0,0,0-1.23.848L94.817,49H92.841V44.29a1.391,1.391,0,0,0-.253-.93,1.1,1.1,0,0,0-.861-.287,1.28,1.28,0,0,0-1.217.7V49H88.535V41.6ZM107.32,45.37a4.479,4.479,0,0,1-.759,2.772,2.513,2.513,0,0,1-2.119.995,2.309,2.309,0,0,1-1.921-.923l-.089.786h-1.777V38.5h1.976v3.767a2.25,2.25,0,0,1,1.8-.8,2.534,2.534,0,0,1,2.123.995,4.485,4.485,0,0,1,.769,2.8Zm-1.976-.144a2.942,2.942,0,0,0-.355-1.637,1.2,1.2,0,0,0-1.06-.516,1.3,1.3,0,0,0-1.3.772v2.919a1.321,1.321,0,0,0,1.313.779A1.22,1.22,0,0,0,105.2,46.6,4.866,4.866,0,0,0,105.344,45.227ZM110.622,49h-1.982V41.6h1.982Zm-2.1-9.311a.973.973,0,0,1,.3-.731,1.281,1.281,0,0,1,1.617,0,1.044,1.044,0,0,1,0,1.47,1.267,1.267,0,0,1-1.606,0A.97.97,0,0,1,108.523,39.689Zm7.13,9.447a3.631,3.631,0,0,1-2.649-1,3.548,3.548,0,0,1-1.022-2.659v-.191a4.468,4.468,0,0,1,.431-1.993,3.161,3.161,0,0,1,1.22-1.354,3.425,3.425,0,0,1,1.8-.475,3.07,3.07,0,0,1,2.389.957,3.889,3.889,0,0,1,.872,2.714v.807h-4.71a1.835,1.835,0,0,0,.578,1.162,1.746,1.746,0,0,0,1.22.438,2.132,2.132,0,0,0,1.784-.827l.971,1.087a2.966,2.966,0,0,1-1.2.981A3.947,3.947,0,0,1,115.653,49.137Zm-.226-6.07a1.237,1.237,0,0,0-.954.4,2.048,2.048,0,0,0-.468,1.135h2.748V44.44a1.46,1.46,0,0,0-.355-1.015A1.277,1.277,0,0,0,115.427,43.066Zm6.207-1.463.062.854a2.582,2.582,0,0,1,2.126-.991,2.146,2.146,0,0,1,1.75.69,3.221,3.221,0,0,1,.588,2.064V49h-1.976V44.27a1.282,1.282,0,0,0-.273-.913,1.224,1.224,0,0,0-.909-.284,1.359,1.359,0,0,0-1.251.711V49h-1.976V41.6Zm8.388-1.818V41.6h1.265v1.449h-1.265v3.691a.881.881,0,0,0,.157.588.79.79,0,0,0,.6.178,3.15,3.15,0,0,0,.581-.048v1.5a4.067,4.067,0,0,1-1.2.178,1.886,1.886,0,0,1-2.119-2.1V43.053h-1.08V41.6h1.08V39.785ZM136.673,49a2.194,2.194,0,0,1-.2-.663,2.39,2.39,0,0,1-1.866.8,2.626,2.626,0,0,1-1.8-.629,2.023,2.023,0,0,1-.714-1.586,2.09,2.09,0,0,1,.872-1.8,4.3,4.3,0,0,1,2.519-.636h.909v-.424a1.219,1.219,0,0,0-.263-.82,1.035,1.035,0,0,0-.831-.308,1.177,1.177,0,0,0-.783.239.813.813,0,0,0-.284.656h-1.976a1.984,1.984,0,0,1,.4-1.189,2.621,2.621,0,0,1,1.121-.858,4.086,4.086,0,0,1,1.627-.311,3.228,3.228,0,0,1,2.17.687,2.4,2.4,0,0,1,.8,1.931v3.206a3.536,3.536,0,0,0,.294,1.593V49Zm-1.634-1.374a1.7,1.7,0,0,0,.807-.195,1.28,1.28,0,0,0,.547-.523V45.637h-.738q-1.483,0-1.579,1.025l-.007.116a.791.791,0,0,0,.26.608A1.009,1.009,0,0,0,135.04,47.626ZM141.978,49H140V38.5h1.982Z" transform="translate(6968 -3554)" fill="#12263f"/>
    <path id="Trazado_729188" data-name="Trazado 729188" d="M37.7,22.583c-5.53-8.136-12.916-12.46-16.784-9.811a4.462,4.462,0,0,0-1.094,1.1c0,.031-8.955,18.153-8.955,18.153l-5,3.387A7.061,7.061,0,0,0,4,45.223l.225.331a7.074,7.074,0,0,0,9.767,1.875l8.03,11.829a4.558,4.558,0,0,0,6.249,1.2,4.23,4.23,0,0,0,1.875-2.874,4.474,4.474,0,0,0-.694-3.374L22.375,43.773S39.1,42.442,39.159,42.417a4.006,4.006,0,0,0,1.456-.625c1.987-1.35,2.7-4.18,2.012-7.973A30.577,30.577,0,0,0,37.7,22.583ZM6.04,44.323l-.225-.331a4.868,4.868,0,0,1,1.3-6.767l4.318-2.937,5.7,8.392-4.318,2.937A4.874,4.874,0,0,1,6.04,44.323ZM27.648,55.44a2.312,2.312,0,0,1-3.837,2.581l-8-11.791,3.218-2.187.85-.069ZM19.2,41.83l-6.211-9.148L18.913,20.6a30.071,30.071,0,0,0,4.943,11.379A30.168,30.168,0,0,0,32.6,40.774Zm18.434-1.456c-2.987-.194-7.848-3.562-11.966-9.629s-5.455-11.81-4.537-14.666a2.662,2.662,0,0,1,2.5-1.875c2.962,0,8,3.387,12.241,9.629a26.66,26.66,0,0,1,4.6,10.4C41.4,40.374,37.634,40.374,37.634,40.374Z" transform="translate(7029.5 -3447.229)" fill="#fff"/>
    <path id="Trazado_729189" data-name="Trazado 729189" d="M43.215,29.244a5.868,5.868,0,0,0-4.449.919,1.1,1.1,0,0,0,1.25,1.806,3.75,3.75,0,0,1,4.212,6.205,1.094,1.094,0,0,0,.625,1.993,1.069,1.069,0,0,0,.625-.187,5.93,5.93,0,0,0-2.218-10.735Z" transform="translate(7016.176 -3453.659)" fill="#fff"/>
    <path id="Trazado_729190" data-name="Trazado 729190" d="M60.241,10.517h.106a1.094,1.094,0,0,0,1.087-.981l.844-8.2A1.094,1.094,0,1,0,60.1,1.112l-.837,8.2a1.094,1.094,0,0,0,.975,1.2Z" transform="translate(7008.311 -3442.768)" fill="#fff"/>
    <path id="Trazado_729191" data-name="Trazado 729191" d="M77.671,13.775a1.1,1.1,0,0,0-1.518-.312l-7.617,5a1.094,1.094,0,0,0,.625,2.006,1.112,1.112,0,0,0,.625-.175l7.617-5A1.094,1.094,0,0,0,77.671,13.775Z" transform="translate(7005.016 -3447.713)" fill="#fff"/>
    <path id="Trazado_729192" data-name="Trazado 729192" d="M81.087,34.463,72.226,32.87a1.1,1.1,0,1,0-.387,2.156l8.855,1.593h.194a1.094,1.094,0,0,0,.194-2.175Z" transform="translate(7003.931 -3455.053)" fill="#fff"/>
    <path id="Trazado_729193" data-name="Trazado 729193" d="M49,0H11A11.013,11.013,0,0,0,0,11v6A11.013,11.013,0,0,0,11,28H28V40.063a4.392,4.392,0,0,1-.974-2.172A3.466,3.466,0,0,0,23.593,35a3.646,3.646,0,0,0-3.575,3.979,15.417,15.417,0,0,0,4.826,10.249l.423.452c.589.636,1.152,1.176,1.7,1.7C28.792,53.136,30,54.3,30,57a3,3,0,0,0,3,3H45a3,3,0,0,0,3-3V54c0-2.917.348-3.616.75-4.427.113-.228.229-.463.344-.737A12.548,12.548,0,0,0,50,44.013v-7.37a3.6,3.6,0,0,0-3.156-3.626,3.55,3.55,0,0,0-2.406.655,3.461,3.461,0,0,0-2.594-1.655,3.55,3.55,0,0,0-2.406.655,3.461,3.461,0,0,0-2.594-1.655A3.5,3.5,0,0,0,35,31.339V28H49A11.013,11.013,0,0,0,60,17V11A11.013,11.013,0,0,0,49,0ZM35.491,33.39a1.491,1.491,0,0,1,1.162-.383A1.593,1.593,0,0,1,38,34.643v.86a1,1,0,0,0,2,0A1.5,1.5,0,0,1,41.653,34,1.593,1.593,0,0,1,43,35.643v.86a1,1,0,0,0,2,0A1.5,1.5,0,0,1,46.653,35,1.593,1.593,0,0,1,48,36.643v7.37a10.564,10.564,0,0,1-.753,4.055c-.095.228-.193.424-.288.616C46.466,49.676,46,50.613,46,54v3a1,1,0,0,1-1,1H33a1,1,0,0,1-1-1c0-3.555-1.692-5.181-3.651-7.063-.524-.5-1.065-1.022-1.616-1.617l-.432-.463a13.371,13.371,0,0,1-4.293-9.074A1.633,1.633,0,0,1,23.654,37a1.438,1.438,0,0,1,1.4,1.238,5.967,5.967,0,0,0,3.529,4.672A1,1,0,0,0,30,42V20.645a1.6,1.6,0,0,1,1.341-1.637A1.525,1.525,0,0,1,33,20.5v14a1,1,0,0,0,2,0A1.489,1.489,0,0,1,35.491,33.39ZM58,17a9.01,9.01,0,0,1-9,9H35V20.5a3.538,3.538,0,0,0-3.859-3.482A3.613,3.613,0,0,0,28,20.645V26H11a9.01,9.01,0,0,1-9-9V11a9.01,9.01,0,0,1,9-9H49a9.01,9.01,0,0,1,9,9Z" transform="translate(7118 -3646)" fill="#fff"/>
    <path id="Trazado_729194" data-name="Trazado 729194" d="M15.035,12.174,9.582,8.408A2.3,2.3,0,0,0,6,10.234v7.532a2.3,2.3,0,0,0,3.583,1.826l5.453-3.767a2.21,2.21,0,0,0,0-3.651ZM13.9,14.181,8.45,17.945c-.153.1-.447.042-.447-.179V10.235c0-.216.3-.284.446-.18L13.9,13.819a.213.213,0,0,1,0,.362Z" transform="translate(7118 -3646)" fill="#fff"/>
    <path id="Trazado_729195" data-name="Trazado 729195" d="M32,6a1,1,0,0,0-1,1v6a1,1,0,0,0,2,0V7A1,1,0,0,0,32,6Z" transform="translate(7118 -3646)" fill="#fff"/>
    <path id="Trazado_729196" data-name="Trazado 729196" d="M41.644,9.234a1,1,0,0,0-1.41.122l-4,4.755A1,1,0,1,0,37.766,15.4l4-4.754a1,1,0,0,0-.122-1.412Z" transform="translate(7118 -3646)" fill="#fff"/>
    <path id="Trazado_729197" data-name="Trazado 729197" d="M23.766,9.356a1,1,0,0,0-1.532,1.288l4,4.754a1,1,0,1,0,1.532-1.287Z" transform="translate(7118 -3646)" fill="#fff"/>
    <path id="Trazado_729198" data-name="Trazado 729198" d="M25,19H19a1,1,0,0,0,0,2h6a1,1,0,0,0,0-2Z" transform="translate(7118 -3646)" fill="#fff"/>
    <path id="Trazado_729199" data-name="Trazado 729199" d="M45,19H39a1,1,0,0,0,0,2h6a1,1,0,0,0,0-2Z" transform="translate(7118 -3646)" fill="#fff"/>
    <path id="Trazado_729200" data-name="Trazado 729200" d="M63,9.279l-2.456-.818L61.7,6.146,57.854,2.3,55.539,3.456,54.721,1H49.28l-.818,2.456L46.147,2.3,42.3,6.146l1.158,2.315L41,9.279V14.72l2.456.818L42.3,17.853,46.146,21.7l2.315-1.158L49.279,23H54.72l.818-2.456L57.853,21.7,61.7,17.854l-1.158-2.315L63,14.721Zm-2,4-2.3.765-.168.443c-.049.129-.1.254-.154.378l-.194.433,1.081,2.162L57.46,19.269,55.3,18.188l-.433.194c-.124.055-.249.1-.378.154l-.443.168L53.279,21H50.72l-.765-2.3-.443-.168c-.129-.049-.254-.1-.378-.154l-.433-.194-2.162,1.081L44.73,17.46,45.811,15.3l-.194-.433c-.055-.124-.1-.249-.154-.378l-.168-.443L43,13.279V10.72l2.3-.765.168-.443c.049-.129.1-.254.154-.378l.194-.433L44.731,6.54,46.54,4.731,48.7,5.812l.433-.194c.124-.055.249-.105.378-.154l.443-.168L50.721,3H53.28l.765,2.3.443.168c.129.049.254.1.378.154l.433.194,2.162-1.081L59.27,6.54,58.189,8.7l.194.433c.055.124.1.249.154.378l.168.443L61,10.721Z" transform="translate(6882 -3600)" fill="#fff"/>
    <path id="Trazado_729201" data-name="Trazado 729201" d="M52,7a5,5,0,1,0,5,5A5.006,5.006,0,0,0,52,7Zm0,8a3,3,0,1,1,3-3A3,3,0,0,1,52,15Z" transform="translate(6882 -3600)" fill="#fff"/>
    <path id="Trazado_729202" data-name="Trazado 729202" d="M21.7,46.146,17.854,42.3l-2.315,1.158L14.721,41H9.279l-.818,2.456L6.146,42.3,2.3,46.146l1.158,2.315L1,49.279V54.72l2.456.818L2.3,57.853,6.146,61.7l2.315-1.158L9.279,63H14.72l.818-2.456L17.853,61.7,21.7,57.854l-1.158-2.315L23,54.721V49.28l-2.456-.818ZM21,50.721V53.28l-2.3.765-.168.443c-.049.129-.1.254-.154.378l-.194.433,1.081,2.162L17.46,59.27,15.3,58.189l-.433.194c-.124.055-.249.1-.378.154l-.443.168L13.279,61H10.72l-.765-2.3-.443-.168c-.129-.049-.254-.1-.378-.154L8.7,58.188,6.54,59.269,4.731,57.46,5.812,55.3l-.194-.433c-.055-.124-.105-.249-.154-.378L5.3,54.044,3,53.279V50.72l2.3-.765.168-.443c.049-.129.1-.254.154-.378l.194-.433L4.731,46.54,6.54,44.731,8.7,45.812l.433-.194c.124-.055.249-.1.378-.154l.443-.168.765-2.3H13.28l.765,2.3.443.168c.129.049.254.1.378.154l.433.194,2.162-1.081L19.27,46.54,18.189,48.7l.194.433c.055.124.1.249.154.378l.168.443Z" transform="translate(6882 -3600)" fill="#fff"/>
    <path id="Trazado_729203" data-name="Trazado 729203" d="M12,47a5,5,0,1,0,5,5A5.006,5.006,0,0,0,12,47Zm0,8a3,3,0,1,1,3-3A3,3,0,0,1,12,55Z" transform="translate(6882 -3600)" fill="#fff"/>
    <path id="Trazado_729204" data-name="Trazado 729204" d="M28,38.25V41a3,3,0,0,0,3,3h2a3,3,0,0,0,3-3V38.209a1.926,1.926,0,0,1,.862-1.64,9,9,0,1,0-9.7.014A1.965,1.965,0,0,1,28,38.25ZM34,41a1,1,0,0,1-1,1H31a1,1,0,0,1-1-1V40h4ZM31,29a1,1,0,1,1,1,1A1,1,0,0,1,31,29Zm-5.94-.926a7.024,7.024,0,0,1,6.12-6.027A7.253,7.253,0,0,1,32.009,22a6.918,6.918,0,0,1,4.652,1.778,7,7,0,0,1-.88,11.11A3.9,3.9,0,0,0,34.013,38H33V31.816a3,3,0,1,0-2,0V38H29.985a3.9,3.9,0,0,0-1.749-3.1,6.971,6.971,0,0,1-3.176-6.823Z" transform="translate(6882 -3600)" fill="#fff"/>
    <path id="Trazado_729205" data-name="Trazado 729205" d="M54.387,28.277a2.869,2.869,0,0,0-4.774,0l-5.188,7.781A2.537,2.537,0,0,0,46.535,40H48v8H31v2H48a2,2,0,0,0,2-2V38H46.535a.535.535,0,0,1-.445-.832l5.188-7.781a.9.9,0,0,1,1.445,0l5.188,7.781a.53.53,0,0,1,.09.3.537.537,0,0,1-.536.535H54V50a4,4,0,0,1-4,4H31v2H50a6.006,6.006,0,0,0,6-6V40h1.465a2.535,2.535,0,0,0,2.109-3.941Z" transform="translate(6882 -3600)" fill="#fff"/>
    <path id="Trazado_729206" data-name="Trazado 729206" d="M27,54h2v2H27Z" transform="translate(6882 -3600)" fill="#fff"/>
    <path id="Trazado_729207" data-name="Trazado 729207" d="M9.613,35.723a2.869,2.869,0,0,0,4.774,0l5.188-7.781A2.537,2.537,0,0,0,17.465,24H16V16H33V14H16a2,2,0,0,0-2,2V26h3.465a.535.535,0,0,1,.445.832l-5.188,7.781a.9.9,0,0,1-1.445,0L6.09,26.832a.53.53,0,0,1-.09-.3A.536.536,0,0,1,6.535,26H10V14a4,4,0,0,1,4-4H33V8H14a6.006,6.006,0,0,0-6,6V24H6.535a2.535,2.535,0,0,0-2.109,3.941Z" transform="translate(6882 -3600)" fill="#fff"/>
    <path id="Trazado_729208" data-name="Trazado 729208" d="M35,8h2v2H35Z" transform="translate(6882 -3600)" fill="#fff"/>
    <path id="Trazado_730156" data-name="Trazado 730156" d="M30,0A30,30,0,1,1,0,30,30,30,0,0,1,30,0Z" transform="translate(6945 -3658)" fill="#dfe6cd"/>
    <g id="Trazado_729187" data-name="Trazado 729187" transform="translate(6950 -3653)" fill="#feb12e">
      <path d="M 25 46.5 C 22.09597969055176 46.5 19.28067970275879 45.93202972412109 16.63229942321777 44.81185913085938 C 14.07252025604248 43.72916030883789 11.77285957336426 42.17845153808594 9.797200202941895 40.20280075073242 C 7.821549892425537 38.22713851928711 6.270840167999268 35.9274787902832 5.188139915466309 33.36769866943359 C 4.067969799041748 30.71932029724121 3.5 27.90402030944824 3.5 25 C 3.5 22.09597969055176 4.067969799041748 19.28067970275879 5.188139915466309 16.63229942321777 C 6.270840167999268 14.07252025604248 7.821549892425537 11.77285957336426 9.797200202941895 9.797200202941895 C 11.77285957336426 7.821549892425537 14.07252025604248 6.270840167999268 16.63229942321777 5.188139915466309 C 19.28067970275879 4.067969799041748 22.09597969055176 3.5 25 3.5 C 27.90402030944824 3.5 30.71932029724121 4.067969799041748 33.36769866943359 5.188139915466309 C 35.9274787902832 6.270840167999268 38.22713851928711 7.821549892425537 40.20280075073242 9.797200202941895 C 42.17845153808594 11.77285957336426 43.72916030883789 14.07252025604248 44.81185913085938 16.63229942321777 C 45.93202972412109 19.28067970275879 46.5 22.09597969055176 46.5 25 C 46.5 27.90402030944824 45.93202972412109 30.71932029724121 44.81185913085938 33.36769866943359 C 43.72916030883789 35.9274787902832 42.17845153808594 38.22713851928711 40.20280075073242 40.20280075073242 C 38.22713851928711 42.17845153808594 35.9274787902832 43.72916030883789 33.36769866943359 44.81185913085938 C 30.71932029724121 45.93202972412109 27.90402030944824 46.5 25 46.5 Z" stroke="none"/>
      <path d="M 25 7 C 15.07476043701172 7 7 15.07476043701172 7 25 C 7 34.92523956298828 15.07476043701172 43 25 43 C 34.92523956298828 43 43 34.92523956298828 43 25 C 43 15.07476043701172 34.92523956298828 7 25 7 M 25 0 C 38.80712127685547 0 50 11.19287872314453 50 25 C 50 38.80712127685547 38.80712127685547 50 25 50 C 11.19287872314453 50 0 38.80712127685547 0 25 C 0 11.19287872314453 11.19287872314453 0 25 0 Z" stroke="none" fill="#0e494d"/>
    </g>
    <path id="Trazado_730155" data-name="Trazado 730155" d="M30,0A30,30,0,1,1,0,30,30,30,0,0,1,30,0Z" transform="translate(7128 -3561)" fill="#dfe6cd"/>
    <g id="Trazado_729187-2" data-name="Trazado 729187" transform="translate(7133 -3556)" fill="#feb12e">
      <path d="M 25 46.5 C 22.09597969055176 46.5 19.28067970275879 45.93202972412109 16.63229942321777 44.81185913085938 C 14.07252025604248 43.72916030883789 11.77285957336426 42.17845153808594 9.797200202941895 40.20280075073242 C 7.821549892425537 38.22713851928711 6.270840167999268 35.9274787902832 5.188139915466309 33.36769866943359 C 4.067969799041748 30.71932029724121 3.5 27.90402030944824 3.5 25 C 3.5 22.09597969055176 4.067969799041748 19.28067970275879 5.188139915466309 16.63229942321777 C 6.270840167999268 14.07252025604248 7.821549892425537 11.77285957336426 9.797200202941895 9.797200202941895 C 11.77285957336426 7.821549892425537 14.07252025604248 6.270840167999268 16.63229942321777 5.188139915466309 C 19.28067970275879 4.067969799041748 22.09597969055176 3.5 25 3.5 C 27.90402030944824 3.5 30.71932029724121 4.067969799041748 33.36769866943359 5.188139915466309 C 35.9274787902832 6.270840167999268 38.22713851928711 7.821549892425537 40.20280075073242 9.797200202941895 C 42.17845153808594 11.77285957336426 43.72916030883789 14.07252025604248 44.81185913085938 16.63229942321777 C 45.93202972412109 19.28067970275879 46.5 22.09597969055176 46.5 25 C 46.5 27.90402030944824 45.93202972412109 30.71932029724121 44.81185913085938 33.36769866943359 C 43.72916030883789 35.9274787902832 42.17845153808594 38.22713851928711 40.20280075073242 40.20280075073242 C 38.22713851928711 42.17845153808594 35.9274787902832 43.72916030883789 33.36769866943359 44.81185913085938 C 30.71932029724121 45.93202972412109 27.90402030944824 46.5 25 46.5 Z" stroke="none"/>
      <path d="M 25 7 C 15.07476043701172 7 7 15.07476043701172 7 25 C 7 34.92523956298828 15.07476043701172 43 25 43 C 34.92523956298828 43 43 34.92523956298828 43 25 C 43 15.07476043701172 34.92523956298828 7 25 7 M 25 0 C 38.80712127685547 0 50 11.19287872314453 50 25 C 50 38.80712127685547 38.80712127685547 50 25 50 C 11.19287872314453 50 0 38.80712127685547 0 25 C 0 11.19287872314453 11.19287872314453 0 25 0 Z" stroke="none" fill="#0e494d"/>
    </g>
    <path id="Trazado_730154" data-name="Trazado 730154" d="M30,0A30,30,0,1,1,0,30,30,30,0,0,1,30,0Z" transform="translate(6928 -3450)" fill="#dfe6cd"/>
    <g id="Trazado_729187-3" data-name="Trazado 729187" transform="translate(6933 -3445)" fill="#feb12e">
      <path d="M 25 46.5 C 22.09597969055176 46.5 19.28067970275879 45.93202972412109 16.63229942321777 44.81185913085938 C 14.07252025604248 43.72916030883789 11.77285957336426 42.17845153808594 9.797200202941895 40.20280075073242 C 7.821549892425537 38.22713851928711 6.270840167999268 35.9274787902832 5.188139915466309 33.36769866943359 C 4.067969799041748 30.71932029724121 3.5 27.90402030944824 3.5 25 C 3.5 22.09597969055176 4.067969799041748 19.28067970275879 5.188139915466309 16.63229942321777 C 6.270840167999268 14.07252025604248 7.821549892425537 11.77285957336426 9.797200202941895 9.797200202941895 C 11.77285957336426 7.821549892425537 14.07252025604248 6.270840167999268 16.63229942321777 5.188139915466309 C 19.28067970275879 4.067969799041748 22.09597969055176 3.5 25 3.5 C 27.90402030944824 3.5 30.71932029724121 4.067969799041748 33.36769866943359 5.188139915466309 C 35.9274787902832 6.270840167999268 38.22713851928711 7.821549892425537 40.20280075073242 9.797200202941895 C 42.17845153808594 11.77285957336426 43.72916030883789 14.07252025604248 44.81185913085938 16.63229942321777 C 45.93202972412109 19.28067970275879 46.5 22.09597969055176 46.5 25 C 46.5 27.90402030944824 45.93202972412109 30.71932029724121 44.81185913085938 33.36769866943359 C 43.72916030883789 35.9274787902832 42.17845153808594 38.22713851928711 40.20280075073242 40.20280075073242 C 38.22713851928711 42.17845153808594 35.9274787902832 43.72916030883789 33.36769866943359 44.81185913085938 C 30.71932029724121 45.93202972412109 27.90402030944824 46.5 25 46.5 Z" stroke="none"/>
      <path d="M 25 7 C 15.07476043701172 7 7 15.07476043701172 7 25 C 7 34.92523956298828 15.07476043701172 43 25 43 C 34.92523956298828 43 43 34.92523956298828 43 25 C 43 15.07476043701172 34.92523956298828 7 25 7 M 25 0 C 38.80712127685547 0 50 11.19287872314453 50 25 C 50 38.80712127685547 38.80712127685547 50 25 50 C 11.19287872314453 50 0 38.80712127685547 0 25 C 0 11.19287872314453 11.19287872314453 0 25 0 Z" stroke="none" fill="#0e494d"/>
    </g>
  </g>
</svg>
