<svg xmlns="http://www.w3.org/2000/svg" width="1030" height="490.558" viewBox="0 0 1030 490.558">
  <g id="Grupo_965523" data-name="Grupo 965523" transform="translate(-292 -8945)">
    <path id="Trazado_730134" data-name="Trazado 730134" d="M20,0h990c11.046,0,20,9.8,20,21.9V468.658c0,12.095-8.954,21.9-20,21.9H20c-11.046,0-20-9.8-20-21.9V21.9C0,9.8,8.954,0,20,0Z" transform="translate(292 8945)" fill="#f3f9ff"/>
    <g id="Grupo_965116" data-name="Grupo 965116" transform="translate(174.12 8871.424)">
      <path id="Trazado_729209" data-name="Trazado 729209" d="M333.787,235.922c98.585-36.6,198.784-4.242,266.74,66.232s210.574-48.642,286.21,21.717c51.619,48.017,27.975,171.47-42.8,224.941-96.2,72.679-388.771,35.8-452.057,23.432C318.965,557.994,265.661,514.761,244,462.288,191.82,335.854,290.221,252.1,333.787,235.922Z" transform="translate(0 -71.814)" fill="#dfe6cd"/>
      <g id="Grupo_965088" data-name="Grupo 965088" transform="translate(303.872 126.563)">
        <g id="Grupo_965083" data-name="Grupo 965083" transform="translate(205.533 0)">
          <path id="Trazado_729210" data-name="Trazado 729210" d="M1571.694,214.954a81.778,81.778,0,0,0,.511-9.087c0-1.621-.053-3.23-.147-4.828l-15.014-4.858a66,66,0,0,0-5.316-17.99l9.955-12.251a81.111,81.111,0,0,0-7.886-11.464l-15.016,4.9a66.728,66.728,0,0,0-14.866-11.427l.854-15.777a80.329,80.329,0,0,0-13.109-4.646l-9.273,12.8a66.762,66.762,0,0,0-18.745-.491l-8.585-13.269a80.3,80.3,0,0,0-13.337,3.941l.019,15.8a66.617,66.617,0,0,0-15.45,10.627l-14.732-5.684a81.224,81.224,0,0,0-8.484,11.031l9.3,12.763a66,66,0,0,0-6.268,17.682l-15.249,4.058a81.786,81.786,0,0,0-.511,9.087c0,1.621.053,3.23.147,4.827l15.014,4.858a66.005,66.005,0,0,0,5.316,17.99l-9.955,12.251a81.1,81.1,0,0,0,7.886,11.464l15.017-4.9a66.713,66.713,0,0,0,14.865,11.426l-.854,15.777a80.328,80.328,0,0,0,13.109,4.646l9.273-12.8a66.761,66.761,0,0,0,18.745.491l8.585,13.27a80.287,80.287,0,0,0,13.337-3.942l-.019-15.8a66.609,66.609,0,0,0,15.45-10.627l14.732,5.684a81.238,81.238,0,0,0,8.484-11.031l-9.3-12.763a65.99,65.99,0,0,0,6.268-17.682Zm-80.42,22.656a31.743,31.743,0,1,1,31.743-31.743A31.743,31.743,0,0,1,1491.275,237.61Z" transform="translate(-1410.344 -126.563)" fill="#badc61"/>
          <g id="Grupo_965080" data-name="Grupo 965080" transform="translate(123.039 60.264)">
            <path id="Trazado_729211" data-name="Trazado 729211" d="M1930.06,435.78a1.187,1.187,0,0,1-.912-1.945,53.7,53.7,0,0,0,9.462-51.725,1.186,1.186,0,0,1,2.244-.773,56.076,56.076,0,0,1-9.881,54.015A1.185,1.185,0,0,1,1930.06,435.78Z" transform="translate(-1928.874 -380.537)" fill="#fff"/>
          </g>
          <g id="Grupo_965081" data-name="Grupo 965081" transform="translate(99.577 26.59)">
            <path id="Trazado_729212" data-name="Trazado 729212" d="M1850.051,252.618a1.183,1.183,0,0,1-.813-.322,53.3,53.3,0,0,0-18.456-11.372,1.186,1.186,0,0,1,.809-2.231,55.663,55.663,0,0,1,19.274,11.875,1.186,1.186,0,0,1-.814,2.05Z" transform="translate(-1829.999 -238.622)" fill="#fff"/>
          </g>
          <g id="Grupo_965082" data-name="Grupo 965082" transform="translate(67.433 23.32)">
            <path id="Trazado_729213" data-name="Trazado 729213" d="M1695.715,228.878a1.187,1.187,0,0,1-.289-2.337,56.208,56.208,0,0,1,13.744-1.7,1.186,1.186,0,0,1,0,2.373,53.821,53.821,0,0,0-13.163,1.628A1.2,1.2,0,0,1,1695.715,228.878Z" transform="translate(-1694.53 -224.841)" fill="#fff"/>
          </g>
        </g>
        <g id="Grupo_965087" data-name="Grupo 965087" transform="translate(0 228.156)">
          <path id="Trazado_729214" data-name="Trazado 729214" d="M655.911,1149.318a56.637,56.637,0,0,0,.354-6.293c0-1.123-.037-2.237-.1-3.344l-10.4-3.365a45.715,45.715,0,0,0-3.682-12.46l6.9-8.485a56.178,56.178,0,0,0-5.463-7.941l-10.4,3.394a46.223,46.223,0,0,0-10.3-7.915l.592-10.927a55.649,55.649,0,0,0-9.079-3.218l-6.423,8.863a46.256,46.256,0,0,0-12.984-.34l-5.946-9.191a55.618,55.618,0,0,0-9.238,2.73l.014,10.944a46.138,46.138,0,0,0-10.7,7.361l-10.2-3.937a56.29,56.29,0,0,0-5.876,7.641l6.439,8.84a45.714,45.714,0,0,0-4.341,12.247l-10.562,2.811a56.586,56.586,0,0,0-.354,6.294c0,1.123.037,2.237.1,3.344l10.4,3.365a45.7,45.7,0,0,0,3.682,12.46l-6.9,8.486a56.188,56.188,0,0,0,5.463,7.941l10.4-3.394a46.214,46.214,0,0,0,10.3,7.914l-.592,10.928a55.616,55.616,0,0,0,9.079,3.218l6.422-8.863a46.223,46.223,0,0,0,12.984.34l5.946,9.191a55.613,55.613,0,0,0,9.238-2.73l-.014-10.944a46.14,46.14,0,0,0,10.7-7.361l10.2,3.937a56.25,56.25,0,0,0,5.877-7.64l-6.44-8.84a45.709,45.709,0,0,0,4.341-12.247Zm-55.7,15.693a21.986,21.986,0,1,1,21.986-21.986A21.986,21.986,0,0,1,600.209,1165.011Z" transform="translate(-544.153 -1088.095)" fill="#feb12e"/>
          <g id="Grupo_965084" data-name="Grupo 965084" transform="translate(84.857 41.377)">
            <path id="Trazado_729215" data-name="Trazado 729215" d="M902.957,1301.464a1.186,1.186,0,0,1-.912-1.945,36.83,36.83,0,0,0,6.489-35.475,1.186,1.186,0,1,1,2.243-.773,39.2,39.2,0,0,1-6.908,37.765A1.184,1.184,0,0,1,902.957,1301.464Z" transform="translate(-901.771 -1262.472)" fill="#fff"/>
          </g>
          <g id="Grupo_965085" data-name="Grupo 965085" transform="translate(68.606 18.052)">
            <path id="Trazado_729216" data-name="Trazado 729216" d="M847.539,1174.6a1.182,1.182,0,0,1-.813-.323,36.556,36.556,0,0,0-12.658-7.8,1.186,1.186,0,1,1,.809-2.23,38.908,38.908,0,0,1,13.476,8.3,1.186,1.186,0,0,1-.814,2.05Z" transform="translate(-833.286 -1164.174)" fill="#fff"/>
          </g>
          <g id="Grupo_965086" data-name="Grupo 965086" transform="translate(46.342 15.788)">
            <path id="Trazado_729217" data-name="Trazado 729217" d="M740.64,1158.155a1.186,1.186,0,0,1-.289-2.337,39.277,39.277,0,0,1,9.609-1.189,1.186,1.186,0,1,1,0,2.373,36.919,36.919,0,0,0-9.028,1.116A1.186,1.186,0,0,1,740.64,1158.155Z" transform="translate(-739.454 -1154.63)" fill="#fff"/>
          </g>
        </g>
        <path id="Trazado_729218" data-name="Trazado 729218" d="M2053.284,623.644q0-.92-.051-1.828l7.792-6.256a41.5,41.5,0,0,0-2.831-8.952l-10.061-.76a33.479,33.479,0,0,0-8.709-9.241l-.034-10.026a41.522,41.522,0,0,0-8.921-3.442l-6.876,7.4a33.451,33.451,0,0,0-12.364.97l-7.885-6.245a41.771,41.771,0,0,0-8.34,4.837l1.491,9.939a33.355,33.355,0,0,0-7.023,10.25l-9.81,2.273a41.759,41.759,0,0,0-1.449,9.456l8.639,5a33.077,33.077,0,0,0,3.7,12.208l-4.325,9.06a42.049,42.049,0,0,0,6.356,6.917l9.264-3.629a33.1,33.1,0,0,0,12.215,4.846l4.367,8.991c.52.019,1.042.032,1.567.032a42.046,42.046,0,0,0,7.661-.7l2.944-9.522a33.27,33.27,0,0,0,11.5-6.673l9.737,2.188a41.889,41.889,0,0,0,5.187-7.661l-5.644-8.289A33.238,33.238,0,0,0,2053.284,623.644Zm-33.664,14.671a14.025,14.025,0,1,1,14.025-14.025A14.025,14.025,0,0,1,2019.62,638.315Z" transform="translate(-1637.936 -474.801)" fill="#9ec8ff"/>
      </g>
      <g id="Grupo_965092" data-name="Grupo 965092" transform="translate(771.655 162.139)">
        <g id="Grupo_965089" data-name="Grupo 965089" transform="translate(56.719 3.53)" opacity="0.8">
          <path id="Trazado_729219" data-name="Trazado 729219" d="M2775.091,320.3h-12.054a8.451,8.451,0,0,1-8.442-8.441V299.808a8.451,8.451,0,0,1,8.442-8.441h12.054a8.451,8.451,0,0,1,8.441,8.441v12.055A8.451,8.451,0,0,1,2775.091,320.3Zm-12.054-25.615a5.125,5.125,0,0,0-5.12,5.119v12.055a5.125,5.125,0,0,0,5.12,5.119h12.054a5.126,5.126,0,0,0,5.12-5.119V299.808a5.126,5.126,0,0,0-5.12-5.119Z" transform="translate(-2754.595 -291.367)" fill="#9ec8ff"/>
        </g>
        <g id="Grupo_965090" data-name="Grupo 965090" transform="translate(0 3.53)" opacity="0.8">
          <path id="Trazado_729220" data-name="Trazado 729220" d="M2536.055,320.3H2524a8.451,8.451,0,0,1-8.441-8.441V299.808a8.451,8.451,0,0,1,8.441-8.441h12.054a8.451,8.451,0,0,1,8.442,8.441v12.055A8.451,8.451,0,0,1,2536.055,320.3ZM2524,294.689a5.125,5.125,0,0,0-5.119,5.119v12.055a5.125,5.125,0,0,0,5.119,5.119h12.054a5.125,5.125,0,0,0,5.12-5.119V299.808a5.125,5.125,0,0,0-5.12-5.119Z" transform="translate(-2515.56 -291.367)" fill="#9ec8ff"/>
        </g>
        <g id="Grupo_965091" data-name="Grupo 965091" transform="translate(5.134)">
          <path id="Trazado_729221" data-name="Trazado 729221" d="M2547.285,301.941l-.069,0a1.424,1.424,0,0,1-1.061-.556l-8.664-11.3a1.424,1.424,0,0,1,2.26-1.732l7.641,9.966,19.948-21.372a1.424,1.424,0,1,1,2.082,1.943l-21.095,22.6A1.425,1.425,0,0,1,2547.285,301.941Z" transform="translate(-2537.197 -276.491)" fill="#feb12e"/>
        </g>
      </g>
      <path id="Trazado_729222" data-name="Trazado 729222" d="M1047.138,1705.134c-49.349-2.412-217.224,1.675-268.28,3.268s-110.321-2.1-141.106-7.537-208.732.462-200.657,15.074,79.283,6.536,160.035,12.409,262.364-.734,303.33,0,78.532-1.468,131.324-4.4S1075.743,1706.532,1047.138,1705.134Z" transform="translate(-158.423 -1199.226)" fill="#badc61"/>
      <g id="Grupo_965097" data-name="Grupo 965097" transform="translate(281.152 200.366)">
        <rect id="Rectángulo_340963" data-name="Rectángulo 340963" width="103.158" height="169.081" transform="translate(0 0)" fill="#99bbeb"/>
        <rect id="Rectángulo_340964" data-name="Rectángulo 340964" width="94.364" height="159.192" transform="translate(5.402 3.445)" fill="#fff"/>
        <g id="Grupo_965096" data-name="Grupo 965096" transform="translate(10.871 9.916)">
          <g id="Grupo_965093" data-name="Grupo 965093" transform="translate(22.757 9.773)">
            <path id="Trazado_729223" data-name="Trazado 729223" d="M590.122,688.719c3.552-7.641,9.563-10.088,19.434-10.088,11.754,0,17.857,4.258,19.587,10.457C608.095,689.376,590.122,688.719,590.122,688.719Z" transform="translate(-590.122 -641.127)" fill="#9bd6e8"/>
            <path id="Trazado_729224" data-name="Trazado 729224" d="M606.98,520.918c-4.976,1.4-4.758,4.192-6.415,6.787s-5.262,4.325-5.695,6.055,1.11,5.334-.721,7.352-2.451,3.027-1.73,5.046,2.307,5.19,2.451,5.622,2.163,3.46,4.613,3.893,7.064,1.153,9.371,2.163,9.723-1.292,13.84-1.148,6.92-2.889,6.631-4.907,3.036-6.055,3.027-9.515c-.009-3.715-4.325-6.487-5.478-8.938s.144-6.776-4.181-9.337c-2.733-1.619-4.614-1.475-6.776-2.2S610.152,520.028,606.98,520.918Z" transform="translate(-591.651 -520.576)" fill="#3a384d"/>
            <path id="Trazado_729225" data-name="Trazado 729225" d="M660.781,624.631c-1.125,1.661-1.95,1.73-3.172,0-.971-1.375-2.883-4.5-2.883-6.087V602.718a2.892,2.892,0,0,1,2.883-2.883h3.172a2.892,2.892,0,0,1,2.883,2.883v15.827C663.664,620.131,661.79,623.142,660.781,624.631Z" transform="translate(-639.397 -581.028)" fill="#f09959"/>
            <path id="Trazado_729226" data-name="Trazado 729226" d="M660.781,599.835h-3.172a2.892,2.892,0,0,0-2.883,2.883v14.121c3.561,1.134,6.811-1.12,8.938-3.659V602.718A2.892,2.892,0,0,0,660.781,599.835Z" transform="translate(-639.397 -581.028)" fill="#e38540"/>
            <ellipse id="Elipse_5858" data-name="Elipse 5858" cx="9.587" cy="13.063" rx="9.587" ry="13.063" transform="translate(10.212 5.904)" fill="#f09959"/>
            <path id="Trazado_729227" data-name="Trazado 729227" d="M644.2,540.122c-6.055,10.236-14.993,9.227-14.993,9.227s.216-13.552,7.316-14.272,11.281,2.129,12.723,6.831,0,7.8,0,7.8a12.445,12.445,0,0,1-3.46-4.685A33.663,33.663,0,0,1,644.2,540.122Z" transform="translate(-619.934 -531.551)" fill="#3a384d"/>
            <ellipse id="Elipse_5859" data-name="Elipse 5859" cx="2.523" cy="3.784" rx="2.523" ry="3.784" transform="translate(5.012 17.512) rotate(-25.405)" fill="#f09959"/>
            <path id="Trazado_729228" data-name="Trazado 729228" d="M706.335,591.612c-.9,1.888-.6,3.9.655,4.5s3.006-.448,3.9-2.336.6-3.9-.655-4.5S707.232,589.725,706.335,591.612Z" transform="translate(-678.364 -572.846)" fill="#f09959"/>
            <path id="Trazado_729229" data-name="Trazado 729229" d="M665.58,630.368s-1.614,2.092-3.6,2.092-3.6-2.092-3.6-2.092Z" transform="translate(-642.177 -604.316)" fill="#fff"/>
          </g>
          <path id="Trazado_729230" data-name="Trazado 729230" d="M634.786,790.38H610.575a2.815,2.815,0,0,1,0-5.63h24.211a2.815,2.815,0,0,1,0,5.63Z" transform="translate(-580.818 -712.292)" fill="#99bbeb"/>
          <path id="Trazado_729231" data-name="Trazado 729231" d="M624.97,826.832H591.894a2.815,2.815,0,0,1,0-5.63H624.97a2.815,2.815,0,1,1,0,5.63Z" transform="translate(-566.57 -740.095)" fill="#99bbeb"/>
          <path id="Trazado_729232" data-name="Trazado 729232" d="M576.308,965.524H495.851a1.634,1.634,0,1,1,0-3.267h80.457a1.634,1.634,0,0,1,0,3.267Z" transform="translate(-494.217 -847.68)" fill="#99bbeb"/>
          <path id="Trazado_729233" data-name="Trazado 729233" d="M576.308,997.52H495.851a1.634,1.634,0,1,1,0-3.267h80.457a1.634,1.634,0,0,1,0,3.267Z" transform="translate(-494.217 -872.084)" fill="#99bbeb"/>
          <path id="Trazado_729234" data-name="Trazado 729234" d="M576.308,1029.516H495.851a1.634,1.634,0,1,1,0-3.267h80.457a1.634,1.634,0,0,1,0,3.267Z" transform="translate(-494.217 -896.488)" fill="#99bbeb"/>
          <g id="Grupo_965094" data-name="Grupo 965094" transform="translate(9.97)">
            <path id="Trazado_729235" data-name="Trazado 729235" d="M597.1,538.63H539.151a2.92,2.92,0,0,1-2.916-2.916V482.3a2.92,2.92,0,0,1,2.916-2.916H597.1a2.92,2.92,0,0,1,2.916,2.916v53.41A2.92,2.92,0,0,1,597.1,538.63Zm-57.951-56.87a.551.551,0,0,0-.544.544v53.41a.551.551,0,0,0,.544.544H597.1a.551.551,0,0,0,.544-.544V482.3a.551.551,0,0,0-.544-.544Z" transform="translate(-536.235 -479.387)" fill="#99bbeb"/>
          </g>
          <g id="Grupo_965095" data-name="Grupo 965095" transform="translate(15.82 94.082)">
            <path id="Trazado_729236" data-name="Trazado 729236" d="M566.317,875.882l1.678,3.4,3.752.545-2.715,2.646.641,3.736-3.356-1.764-3.356,1.764.641-3.736-2.715-2.646,3.752-.545Z" transform="translate(-560.887 -875.882)" fill="#99bbeb"/>
            <path id="Trazado_729237" data-name="Trazado 729237" d="M624.231,875.882l1.678,3.4,3.752.545-2.715,2.646.641,3.736-3.356-1.764-3.356,1.764.641-3.736-2.715-2.646,3.752-.545Z" transform="translate(-605.059 -875.882)" fill="#99bbeb"/>
            <path id="Trazado_729238" data-name="Trazado 729238" d="M682.145,875.882l1.678,3.4,3.752.545-2.715,2.646.641,3.736-3.356-1.764-3.356,1.764.641-3.736-2.715-2.646,3.752-.545Z" transform="translate(-649.232 -875.882)" fill="#99bbeb"/>
            <path id="Trazado_729239" data-name="Trazado 729239" d="M740.059,875.882l1.678,3.4,3.752.545-2.715,2.646.641,3.736-3.356-1.764-3.356,1.764.641-3.736-2.715-2.646,3.752-.545Z" transform="translate(-693.404 -875.882)" fill="#99bbeb"/>
          </g>
        </g>
      </g>
      <g id="Grupo_965102" data-name="Grupo 965102" transform="translate(511.131 200.366)">
        <rect id="Rectángulo_340965" data-name="Rectángulo 340965" width="103.158" height="169.081" transform="translate(0 0)" fill="#99bbeb"/>
        <rect id="Rectángulo_340966" data-name="Rectángulo 340966" width="94.364" height="159.192" transform="translate(5.402 3.445)" fill="#fff"/>
        <g id="Grupo_965101" data-name="Grupo 965101" transform="translate(10.871 9.916)">
          <g id="Grupo_965098" data-name="Grupo 965098" transform="translate(22.756 10.79)">
            <path id="Trazado_729240" data-name="Trazado 729240" d="M1578.225,596.877c0,7.573,4.56,19.793,15.317,19.4s13.136-12.04,13.552-15.327S1578.225,596.877,1578.225,596.877Z" transform="translate(-1573.743 -579.789)" fill="#7a4e34"/>
            <path id="Trazado_729241" data-name="Trazado 729241" d="M1559.335,688.719c3.552-7.641,9.563-10.088,19.434-10.088,11.753,0,17.857,4.258,19.587,10.457C1577.307,689.376,1559.335,688.719,1559.335,688.719Z" transform="translate(-1559.335 -642.144)" fill="#d54a41"/>
            <path id="Trazado_729242" data-name="Trazado 729242" d="M1629.995,624.631c-1.125,1.661-1.95,1.73-3.172,0-.971-1.375-2.883-4.5-2.883-6.087V602.718a2.892,2.892,0,0,1,2.883-2.883h3.172a2.892,2.892,0,0,1,2.883,2.883v15.827C1632.878,620.131,1631,623.142,1629.995,624.631Z" transform="translate(-1608.61 -582.045)" fill="#f09959"/>
            <path id="Trazado_729243" data-name="Trazado 729243" d="M1629.995,599.835h-3.172a2.892,2.892,0,0,0-2.883,2.883v14.121c3.561,1.134,6.811-1.12,8.938-3.659V602.718A2.892,2.892,0,0,0,1629.995,599.835Z" transform="translate(-1608.61 -582.045)" fill="#e38540"/>
            <ellipse id="Elipse_5860" data-name="Elipse 5860" cx="9.587" cy="13.063" rx="9.587" ry="13.063" transform="translate(10.212 4.888)" fill="#f09959"/>
            <path id="Trazado_729244" data-name="Trazado 729244" d="M1598.707,532.882c-1.139,4.017-3.636,3.971-7.117,5.29s-5.145,2.647-6.284,5.217c-1.453,3.277.659,12.832.659,12.832s-8.814-6.6-7.795-16.969,7.135-14.391,12.892-14.391,7.945,3.508,7.945,3.508,3.066.013,5.966,3.448c3.9,4.617,2.7,15.83,0,19.847s-4.5,5.277-4.437,5.1,2.519-9.405,1.2-15.11A36.442,36.442,0,0,0,1598.707,532.882Z" transform="translate(-1573.638 -524.86)" fill="#7a4e34"/>
            <path id="Trazado_729245" data-name="Trazado 729245" d="M1634.793,630.368s-1.614,2.092-3.6,2.092-3.6-2.092-3.6-2.092Z" transform="translate(-1611.39 -605.333)" fill="#fff"/>
          </g>
          <path id="Trazado_729246" data-name="Trazado 729246" d="M1604,790.38h-24.21a2.815,2.815,0,0,1,0-5.63H1604a2.815,2.815,0,0,1,0,5.63Z" transform="translate(-1550.032 -712.292)" fill="#99bbeb"/>
          <path id="Trazado_729247" data-name="Trazado 729247" d="M1594.183,826.832h-33.076a2.815,2.815,0,1,1,0-5.63h33.076a2.815,2.815,0,0,1,0,5.63Z" transform="translate(-1535.783 -740.095)" fill="#99bbeb"/>
          <path id="Trazado_729248" data-name="Trazado 729248" d="M1545.522,965.524h-80.458a1.634,1.634,0,0,1,0-3.267h80.458a1.634,1.634,0,0,1,0,3.267Z" transform="translate(-1463.431 -847.68)" fill="#99bbeb"/>
          <path id="Trazado_729249" data-name="Trazado 729249" d="M1545.522,997.52h-80.458a1.634,1.634,0,0,1,0-3.267h80.458a1.634,1.634,0,0,1,0,3.267Z" transform="translate(-1463.431 -872.084)" fill="#99bbeb"/>
          <path id="Trazado_729250" data-name="Trazado 729250" d="M1545.522,1029.516h-80.458a1.634,1.634,0,0,1,0-3.267h80.458a1.634,1.634,0,0,1,0,3.267Z" transform="translate(-1463.431 -896.488)" fill="#99bbeb"/>
          <g id="Grupo_965099" data-name="Grupo 965099" transform="translate(9.97)">
            <path id="Trazado_729251" data-name="Trazado 729251" d="M1566.317,538.63h-57.952a2.92,2.92,0,0,1-2.916-2.916V482.3a2.92,2.92,0,0,1,2.916-2.916h57.952a2.92,2.92,0,0,1,2.917,2.916v53.41A2.92,2.92,0,0,1,1566.317,538.63Zm-57.952-56.87a.551.551,0,0,0-.543.544v53.41a.551.551,0,0,0,.543.544h57.952a.551.551,0,0,0,.544-.544V482.3a.551.551,0,0,0-.544-.544Z" transform="translate(-1505.449 -479.387)" fill="#99bbeb"/>
          </g>
          <g id="Grupo_965100" data-name="Grupo 965100" transform="translate(15.82 94.082)">
            <path id="Trazado_729252" data-name="Trazado 729252" d="M1535.53,875.882l1.678,3.4,3.752.545-2.715,2.646.641,3.736-3.355-1.764-3.355,1.764.641-3.736-2.715-2.646,3.752-.545Z" transform="translate(-1530.101 -875.882)" fill="#99bbeb"/>
            <path id="Trazado_729253" data-name="Trazado 729253" d="M1593.444,875.882l1.678,3.4,3.752.545-2.715,2.646.641,3.736-3.356-1.764-3.356,1.764.641-3.736-2.715-2.646,3.752-.545Z" transform="translate(-1574.273 -875.882)" fill="#99bbeb"/>
            <path id="Trazado_729254" data-name="Trazado 729254" d="M1651.359,875.882l1.678,3.4,3.752.545-2.715,2.646.641,3.736-3.356-1.764L1648,886.209l.641-3.736-2.715-2.646,3.752-.545Z" transform="translate(-1618.445 -875.882)" fill="#99bbeb"/>
            <path id="Trazado_729255" data-name="Trazado 729255" d="M1709.273,875.882l1.678,3.4,3.751.545-2.715,2.646.641,3.736-3.356-1.764-3.356,1.764.641-3.736-2.715-2.646,3.752-.545Z" transform="translate(-1662.617 -875.882)" fill="#99bbeb"/>
          </g>
        </g>
      </g>
      <path id="Trazado_729256" data-name="Trazado 729256" d="M943.192,607h-162.8l11.516-166.762H949.062Z" transform="translate(-420.465 -239.248)" fill="#99bbeb" opacity="0.2"/>
      <g id="Grupo_965107" data-name="Grupo 965107" transform="translate(377.029 169.437)">
        <rect id="Rectángulo_340967" data-name="Rectángulo 340967" width="140.898" height="230.94" fill="#99bbeb"/>
        <rect id="Rectángulo_340968" data-name="Rectángulo 340968" width="128.887" height="217.432" transform="translate(7.379 4.706)" fill="#fff"/>
        <g id="Grupo_965106" data-name="Grupo 965106" transform="translate(14.848 13.978)">
          <g id="Grupo_965103" data-name="Grupo 965103" transform="translate(29.454 10.046)">
            <path id="Trazado_729257" data-name="Trazado 729257" d="M1096.1,434.849c-.09-.27-2.346-13.221-2.616-18.258s8.095-5.756,8.095-5.756,6.836-3.688,11.783-1.8a19.942,19.942,0,0,1,10.562,9.024c2.249,3.958-1.978,16.291-1.978,16.291Z" transform="translate(-1080.589 -408.497)" fill="#2e2d3d"/>
            <path id="Trazado_729258" data-name="Trazado 729258" d="M1039.168,632.992c-.031-.213.578-5.31.6-5.516,1.139-10.733,14.369-13.752,27.571-13.752,15.511,0,26.034,2.839,27.713,13.992.049.327.944,5.437.9,5.781C1067.2,633.89,1039.168,632.992,1039.168,632.992Z" transform="translate(-1039.167 -565.027)" fill="#d5e1e8"/>
            <path id="Trazado_729259" data-name="Trazado 729259" d="M1136.694,539.969c-1.537,2.269-2.664,2.363-4.332,0-1.326-1.879-5.756-6.165-5.756-8.331l1.818-21.6a3.949,3.949,0,0,1,3.938-3.938h4.332a3.95,3.95,0,0,1,3.938,3.938l.844,21.6C1141.476,533.8,1138.072,537.934,1136.694,539.969Z" transform="translate(-1105.858 -482.941)" fill="#f09959"/>
            <path id="Trazado_729260" data-name="Trazado 729260" d="M1137.465,506.1h-4.332a3.95,3.95,0,0,0-3.938,3.938l-1.578,19.161c4.864,1.549,11.432-1.6,14.337-5.067l-.551-14.094A3.95,3.95,0,0,0,1137.465,506.1Z" transform="translate(-1106.629 -482.941)" fill="#e38540"/>
            <path id="Trazado_729261" data-name="Trazado 729261" d="M1097.339,619.027l6.945,12.836s3.718-3.058,4.078-2.458-.66,8.167-.66,8.167,8.275.112,8.635-.247-1.679-8.219-.84-8.219,3.364,2.279,3.364,2.279l7.754-12.357-1.7-.415-12.7,6.836-13.588-6.686Z" transform="translate(-1083.536 -568.755)" fill="#bdccd4"/>
            <path id="Trazado_729262" data-name="Trazado 729262" d="M1130.81,639.2l5.157,3.461-1.6,9.186,6.956-.388-1.737-8.355,4.275-3.9-2.008-1.893h-9.036Z" transform="translate(-1109.065 -583.018)" fill="#d54a41"/>
            <path id="Trazado_729263" data-name="Trazado 729263" d="M1107.617,591.92l-6.379,6.07s6.5,11.559,6.859,11.559,5.515-6.373,5.515-6.373l3.3-.058,5.215,5.471,6.06-10.719-6.179-6.55s-5.277,10.193-6.236,10.433-.966.36-1.742-.24S1107.617,591.92,1107.617,591.92Z" transform="translate(-1086.51 -547.939)" fill="#d5e1e8"/>
            <ellipse id="Elipse_5861" data-name="Elipse 5861" cx="13.094" cy="17.842" rx="13.094" ry="17.842" transform="translate(15.575 5.536)" fill="#f09959"/>
            <path id="Trazado_729264" data-name="Trazado 729264" d="M1088.166,494.87c1.225,2.579.824,5.331-.9,6.147s-4.105-.612-5.33-3.19-.824-5.331.9-6.148S1086.941,492.291,1088.166,494.87Z" transform="translate(-1071.25 -471.766)" fill="#f09959"/>
            <path id="Trazado_729265" data-name="Trazado 729265" d="M1204.757,494.87c-1.225,2.579-.824,5.331.9,6.147s4.105-.612,5.33-3.19.824-5.331-.9-6.148S1205.982,492.291,1204.757,494.87Z" transform="translate(-1164.924 -471.766)" fill="#f09959"/>
            <path id="Trazado_729266" data-name="Trazado 729266" d="M1147.129,537.875s-2.6,4.213-5.809,4.213-5.809-4.213-5.809-4.213Z" transform="translate(-1112.649 -507.176)" fill="#fff"/>
            <path id="Trazado_729267" data-name="Trazado 729267" d="M1110.006,432.3c5.4-3.778,7.825-3.148,11.872,3.058s8.9,6.315,8.9,6.315l.63-6.435s-6.029-11.662-14.122-10.133-12.7,8.814-12.7,8.814-.394,13.655.735,14.121,1.259-4.407,2.069-5.4-.809-5.667.27-7.825S1110.006,432.3,1110.006,432.3Z" transform="translate(-1089.018 -421.059)" fill="#2e2d3d"/>
            <path id="Trazado_729268" data-name="Trazado 729268" d="M1200.773,485.439c1.884,2.063,1.169,10.253,2.159,10.163s1.349-7.825,1.079-8.634S1200.773,485.439,1200.773,485.439Z" transform="translate(-1162.427 -467.182)" fill="#2e2d3d"/>
          </g>
          <path id="Trazado_729269" data-name="Trazado 729269" d="M1077.051,789.1H1016.9a3.845,3.845,0,0,1,0-7.69h60.147a3.845,3.845,0,0,1,0,7.69Z" transform="translate(-989.8 -682.877)" fill="#99bbeb"/>
          <path id="Trazado_729270" data-name="Trazado 729270" d="M1093.625,838.887h-45.177a3.845,3.845,0,0,1,0-7.69h45.177a3.845,3.845,0,0,1,0,7.69Z" transform="translate(-1013.859 -720.851)" fill="#99bbeb"/>
          <path id="Trazado_729271" data-name="Trazado 729271" d="M1027.16,1028.318H917.268a2.231,2.231,0,0,1,0-4.462H1027.16a2.231,2.231,0,1,1,0,4.462Z" transform="translate(-915.037 -867.796)" fill="#99bbeb"/>
          <path id="Trazado_729272" data-name="Trazado 729272" d="M1027.16,1072.02H917.268a2.231,2.231,0,0,1,0-4.462H1027.16a2.231,2.231,0,1,1,0,4.462Z" transform="translate(-915.037 -901.128)" fill="#99bbeb"/>
          <path id="Trazado_729273" data-name="Trazado 729273" d="M1027.16,1115.721H917.268a2.231,2.231,0,0,1,0-4.462H1027.16a2.231,2.231,0,1,1,0,4.462Z" transform="translate(-915.037 -934.459)" fill="#99bbeb"/>
          <g id="Grupo_965104" data-name="Grupo 965104" transform="translate(14.052)">
            <path id="Trazado_729274" data-name="Trazado 729274" d="M1056.958,446.209H977.805a3.553,3.553,0,0,1-3.549-3.549v-72.95a3.553,3.553,0,0,1,3.549-3.549h79.153a3.553,3.553,0,0,1,3.549,3.549v72.95A3.553,3.553,0,0,1,1056.958,446.209Zm-79.153-77.676a1.178,1.178,0,0,0-1.176,1.176v72.95a1.178,1.178,0,0,0,1.176,1.176h79.153a1.178,1.178,0,0,0,1.176-1.176v-72.95a1.178,1.178,0,0,0-1.176-1.176Z" transform="translate(-974.256 -366.16)" fill="#99bbeb"/>
          </g>
          <g id="Grupo_965105" data-name="Grupo 965105" transform="translate(12.073 128.067)">
            <path id="Trazado_729275" data-name="Trazado 729275" d="M973.334,905.881l2.292,4.643,5.124.745-3.708,3.614.875,5.1-4.583-2.41-4.583,2.41.875-5.1-3.708-3.614,5.124-.745Z" transform="translate(-965.918 -905.881)" fill="#99bbeb"/>
            <path id="Trazado_729276" data-name="Trazado 729276" d="M1052.436,905.881l2.292,4.643,5.124.745-3.708,3.614.875,5.1-4.583-2.41-4.583,2.41.875-5.1-3.708-3.614,5.124-.745Z" transform="translate(-1026.25 -905.881)" fill="#99bbeb"/>
            <path id="Trazado_729277" data-name="Trazado 729277" d="M1131.538,905.881l2.292,4.643,5.124.745-3.708,3.614.875,5.1-4.583-2.41-4.583,2.41.875-5.1-3.708-3.614,5.124-.745Z" transform="translate(-1086.583 -905.881)" fill="#99bbeb"/>
            <path id="Trazado_729278" data-name="Trazado 729278" d="M1210.64,905.881l2.292,4.643,5.124.745-3.708,3.614.875,5.1-4.583-2.41-4.583,2.41.875-5.1-3.708-3.614,5.124-.745Z" transform="translate(-1146.915 -905.881)" fill="#99bbeb"/>
            <path id="Trazado_729279" data-name="Trazado 729279" d="M1291,905.881l2.292,4.643,5.124.745-3.708,3.614.875,5.1-4.583-2.41-4.583,2.41.875-5.1-3.708-3.614,5.124-.745Z" transform="translate(-1208.206 -905.881)" fill="#99bbeb"/>
          </g>
        </g>
      </g>
      <rect id="Rectángulo_340969" data-name="Rectángulo 340969" width="184.737" height="6.884" rx="3.442" transform="translate(561.444 386.07)" fill="#2e5b9a"/>
      <g id="Grupo_965112" data-name="Grupo 965112" transform="translate(634.424 268.446)">
        <path id="Trazado_729280" data-name="Trazado 729280" d="M2516.811,790.847c2.45,8.637-3.533,17.537-10.124,19.406s-11.294-4-13.744-12.636.907-17.154,7.5-19.023S2514.361,782.211,2516.811,790.847Z" transform="translate(-2360.467 -765.483)" fill="#f09959"/>
        <path id="Trazado_729281" data-name="Trazado 729281" d="M2415.836,1536.709s16.892,26.236,19.174,27.377,7.985,1.426,5.846,5.7-2.994,21.1-4.991,21.959-19.107,2.852-16.54,0,4.146-1.426,5.44-6.559,3.115-14.829.691-16.826S2408.2,1548.4,2408.2,1548.4Z" transform="translate(-2296.446 -1343.988)" fill="#f09959"/>
        <path id="Trazado_729282" data-name="Trazado 729282" d="M1971.591,1584.192s-20.534,33.843-24.336,36.885-16.351,7.605-6.084,8.366,15.21-3.422,21.674-5.324,14.449-3.042,11.408-7.985-1.778-15.735,4.779-22.579S1971.591,1584.192,1971.591,1584.192Z" transform="translate(-1937.219 -1380.204)" fill="#f09959"/>
        <path id="Trazado_729283" data-name="Trazado 729283" d="M2158.83,1253.381s-50.831-1.329-70.985,15.21c-11.788,17.872-40.3,70.6-42.521,76.415,1.521,1.521,10.077,4.266,13.879,3.885,11.218-13.376,26.045-24.939,31.942-35.43,7.267-12.929,9.506-19.393,21.294-20.534s38.406-4.943,46.391-4.943S2158.83,1253.381,2158.83,1253.381Z" transform="translate(-2019.672 -1127.87)" fill="#6791c9"/>
        <path id="Trazado_729284" data-name="Trazado 729284" d="M2640.508,1519.039h-2.664l-19.107-79.717h5.862Z" transform="translate(-2457.023 -1269.709)" fill="#2e5b9a"/>
        <path id="Trazado_729285" data-name="Trazado 729285" d="M2374.111,1509.98h2.665l21.925-82.535h-5.862Z" transform="translate(-2270.444 -1260.651)" fill="#2e5b9a"/>
        <path id="Trazado_729286" data-name="Trazado 729286" d="M2324.469,1238.789l-29.553,5.1s-39.272.361-57.223,3.7c-16.332,3.042-18.739,21.6,0,47.151,10.645,14.516,19.645,26.095,38.05,39.15,4.682-3.437,6.473-4.738,7.767-13.008-1.332-1.826-4.78-13.258-5.85-15.495-10.18-21.28-23.768-29.019-23.957-31.112,2.282-3.707,60.432,19.325,71.994,5.776C2336.735,1267.121,2324.469,1238.789,2324.469,1238.789Z" transform="translate(-2156.353 -1116.759)" fill="#75a1de"/>
        <path id="Trazado_729287" data-name="Trazado 729287" d="M2529.686,955.747a30.924,30.924,0,0,0-23.124,5.754c-6.478,6.6-13.809,17.494-13.36,35.458.571,22.814-3.53,24.279.747,30.553,17.841,7.367,48.355,39.022,41.169,5.086-5.2-24.572,11.412-42.888-1.991-70.145C2532.036,960.234,2530.673,958.082,2529.686,955.747Z" transform="translate(-2360.343 -900.622)" fill="#34bc85"/>
        <path id="Trazado_729288" data-name="Trazado 729288" d="M2493.2,1023.864c-.347,11.893-2.026,15.4-.742,19.126,7.273.743,20.578,3.653,23.9,8.308,3.8,5.323,7.6,6.084,5.831,2.155s-6.464-9.506.76-28.646,10.647-32.068,3.549-45.377Z" transform="translate(-2360.345 -918.942)" fill="#34bc85"/>
        <path id="Trazado_729289" data-name="Trazado 729289" d="M2576.565,879.383a92.821,92.821,0,0,1-5.97-24.094L2558.047,859s7.129,15.97.285,21.673a65.379,65.379,0,0,0-4.892,4.467A30.923,30.923,0,0,1,2576.565,879.383Z" transform="translate(-2407.221 -824.258)" fill="#f09959"/>
        <path id="Trazado_729290" data-name="Trazado 729290" d="M2585.842,860.468c-.743-.661-1.673-1.487-2.65-2.35l-10.235,3.024-.021.055a41.783,41.783,0,0,1,3.2,12.5c3.05-1.85,6.39-4.867,10.208-10.138C2586.133,862.39,2585.969,861.347,2585.842,860.468Z" transform="translate(-2422.09 -826.415)" fill="#e38540"/>
        <path id="Trazado_729291" data-name="Trazado 729291" d="M2368.683,970.712c-12.924,4.52-11.49,18.135-23.384,38.214-6.156,10.391-11.873,10.237-11.873,10.237a275.369,275.369,0,0,1-31.9-2.02c-10.934-1.337-11.628,1.918-4.024,4.637,15.337,5.483,31.253,11.386,44.086,9.96s34.782-34.169,35.913-42.692C2379.069,977.26,2375.191,968.436,2368.683,970.712Z" transform="translate(-2208.161 -912.019)" fill="#f09959"/>
        <g id="Grupo_965108" data-name="Grupo 965108" transform="translate(108.434 86.821)">
          <path id="Trazado_729292" data-name="Trazado 729292" d="M2439.632,1176.521q-1.206,0-2.47-.031a122.915,122.915,0,0,1-23.463-2.888c-6.726-1.367-10.431-2.12-14.744-.06a3.322,3.322,0,1,1-2.865-5.995c6.32-3.02,11.61-1.945,18.931-.457a117.042,117.042,0,0,0,22.3,2.757c11.133.278,17.921-1.374,21.362-5.189,3.065-3.4,3.962-9.111,2.823-17.975-.39-3.033-.78-5.557-1.125-7.783-.971-6.28-1.613-10.429-.818-16.843.738-5.956,2.71-13.89,7.278-29.273a3.322,3.322,0,1,1,6.369,1.891c-8.512,28.667-8.08,31.459-6.263,43.21.35,2.266.747,4.833,1.148,7.951,1.406,10.93-.018,18.325-4.478,23.272C2459.028,1174.2,2451.573,1176.521,2439.632,1176.521Z" transform="translate(-2394.199 -1090.406)" fill="#2e5b9a"/>
        </g>
        <path id="Trazado_729293" data-name="Trazado 729293" d="M1972.986,1704.4c-13.625,6.663-20.958,10.482-25.326,10.118-1.031-.086-1.886-.191-2.6-.3-4.859,2.872-12.615,6.265-3.888,6.912,10.267.76,15.21-3.422,21.674-5.324s14.449-3.042,11.408-7.985A10.4,10.4,0,0,1,1972.986,1704.4Z" transform="translate(-1937.219 -1471.889)" fill="#d54a41"/>
        <path id="Trazado_729294" data-name="Trazado 729294" d="M2471.4,1654.431c-.333,10.787-1.816,21.477-8.413,23.5a11.085,11.085,0,0,1-4.754.424c-1.038,1.283-2.3,1.3-4,3.186-2.566,2.852,14.544.856,16.54,0s2.852-17.681,4.991-21.959C2477.521,1656.064,2473.986,1655.244,2471.4,1654.431Z" transform="translate(-2331.354 -1433.776)" fill="#d54a41"/>
        <g id="Grupo_965109" data-name="Grupo 965109" transform="translate(23.47 74.277)">
          <path id="Trazado_729295" data-name="Trazado 729295" d="M2100.228,1081.831h-43.284a3.322,3.322,0,0,1-3.013-1.922l-17.491-37.645a3.322,3.322,0,1,1,6.025-2.8l16.6,35.723h41.164a3.322,3.322,0,1,1,0,6.644Z" transform="translate(-2036.13 -1037.542)" fill="#75a1de"/>
        </g>
        <path id="Trazado_729296" data-name="Trazado 729296" d="M2220.714,1154.168c-8.746-.127-17.42-5.34-21.729-4.579s-18.379,10.52-16.6,10.9,12.929-5.4,13.309-5.489,2.789,4,8.746,5.507.042-4.465,18.509,1.112C2234.951,1165.246,2220.714,1154.168,2220.714,1154.168Z" transform="translate(-2124.09 -1048.667)" fill="#f09959"/>
        <path id="Trazado_729297" data-name="Trazado 729297" d="M2550.31,913.192l1.287,10.354s-11.317.673-16.949,3.842-13.943,12.324-13.943,12.324l6.79-11.69.978-7.478Z" transform="translate(-2382.253 -868.421)" fill="#f2e5de"/>
        <path id="Trazado_729298" data-name="Trazado 729298" d="M2413.267,965.944c-8.406-1.575-12.295,5.957-17.745,18.252s-14.754,27.228-16.6,29.153-31.181,0-31.181,0-.887,8.492,0,9.506,5.958.887,5.958.887,2.028,1.62,3.929,2.9,18,3.69,25.477,3.31,14.323-1.014,15.337-2.155,21.421-32.575,22.689-43.856S2417.557,966.748,2413.267,965.944Z" transform="translate(-2250.027 -908.498)" fill="#f2e5de"/>
        <path id="Trazado_729299" data-name="Trazado 729299" d="M2477.159,730.243c-15.9.76-13.4,24.677-13.4,24.677s4.129,1.275,12.78-.151c-.665-2.567-.38-9.126-.38-9.126a59.759,59.759,0,0,0,2.281,8.556c1.829.838,3.9.095,7.415-.755,1.806,7.6,6.91,10.81,10.4,11.909,3.862,1.214,7.948,2.662,12.511.38s2.054-25.6-.369-30.294c-3.637-7.04-9.682-13.341-20.139-10.013A77.693,77.693,0,0,0,2477.159,730.243Z" transform="translate(-2338.707 -724.512)" fill="#303c60"/>
        <path id="Trazado_729300" data-name="Trazado 729300" d="M2637.22,862.875l6.5,9.494s-7.2,18,13.748,26.153c16.408,6.387,14.476,17.639,7.061,28.955s4.436,21.2,4.436,21.2,1.808-12.536,17.75-14.9c21.738-3.226,27.893-32.411,11.656-47-13.435-12.076-17.523-2.075-26.618-12.912s-26.263-3.517-26.263-3.517l-6.292-9.177Z" transform="translate(-2471.121 -828.739)" fill="#303c60"/>
        <g id="Grupo_965110" data-name="Grupo 965110" transform="translate(173.791 37.466)">
          <path id="Trazado_729301" data-name="Trazado 729301" d="M2730.573,932.373a.578.578,0,0,1-.507-.856c5.466-9.989,1.006-22.091-1.237-25.369-.238-.348-.463-.7-.7-1.072-2.2-3.441-4.947-7.722-19.584-10.357-3.525-.635-6.379-2.73-9.4-4.948-6.241-4.582-13.315-9.776-28.686-2.7a.578.578,0,1,1-.483-1.05c15.988-7.359,23.354-1.952,29.854,2.819,2.911,2.137,5.66,4.155,8.922,4.742,15.133,2.724,18.027,7.242,20.352,10.871.234.365.455.71.683,1.043,2.35,3.435,7.023,16.114,1.3,26.577A.578.578,0,0,1,2730.573,932.373Z" transform="translate(-2669.636 -882.409)" fill="#303c60"/>
        </g>
        <g id="Grupo_965111" data-name="Grupo 965111" transform="translate(145.642 21.251)">
          <path id="Trazado_729302" data-name="Trazado 729302" d="M2567.991,836.685a22.887,22.887,0,0,1-3.376-.272c-5.562-.833-13.024-3.994-13.609-21.745a.578.578,0,1,1,1.155-.038c.241,7.317,1.693,12.73,4.314,16.09a12.126,12.126,0,0,0,8.311,4.549c5.147.771,8.56-.179,10.14-2.825a.578.578,0,1,1,.993.593C2574.47,835.464,2571.81,836.685,2567.991,836.685Z" transform="translate(-2551.006 -814.072)" fill="#303c60"/>
        </g>
      </g>
      <path id="Trazado_729303" data-name="Trazado 729303" d="M1711.333,1366.995h4.271l16.617-127.018h-9.4Z" transform="translate(-1130.508 -849.219)" fill="#2e5b9a"/>
      <path id="Trazado_729304" data-name="Trazado 729304" d="M2255.042,1366.995h-4.271l-16.617-127.018h9.4Z" transform="translate(-1529.273 -849.219)" fill="#2e5b9a"/>
      <g id="Grupo_965113" data-name="Grupo 965113" transform="translate(841.656 380.971)">
        <path id="Trazado_729305" data-name="Trazado 729305" d="M3003.349,1323.431c7.39,6.747,4.177,13.495-1.285,26.026s-6.427,58.8-6.427,58.8l4.5-.643s-.643-47.554,5.462-60.407,8.676-19.279,14.138-15.1S3003.349,1323.431,3003.349,1323.431Z" transform="translate(-2951.724 -1293.842)" fill="#74b570"/>
        <path id="Trazado_729306" data-name="Trazado 729306" d="M3009.744,1219.585c.9-4,6.228-8.326,13.355-12-1.06,5.9-4.458,15.541-.941,17.519,4.742,2.668.462-10.8,2.292-18.2a88.062,88.062,0,0,1,22.157-7.268c-.01.027-.019.054-.03.081-4.177,10.6-9.639,14.781-7.39,16.387,1.692,1.208,7.2-11.04,14.482-17.318,5.463-.291,10.084.45,12.818,2.614,4.226,3.345,7.063,6.313,2.813,16.5a19.1,19.1,0,0,1-9.227,3.344c-9.639.964-14.138,1.285-7.39,4.5,3.3,1.573,8.843-.089,13.333-1.1-1.457,2.684-3.247,5.723-5.424,9.183a34.1,34.1,0,0,1-4.516,5.748c-3.107.6-5.815.6-7.25-.013-4.5-1.928-16.066-8.033-18.958-5.462-2.83,2.516,21.423,4.109,19.742,10.5-11.755,6.773-25.207,3.55-27.585-2.669C3018.833,1233.587,3007.042,1231.622,3009.744,1219.585Z" transform="translate(-2962.179 -1198.733)" fill="#9cd499"/>
        <path id="Trazado_729307" data-name="Trazado 729307" d="M2996.542,1465.938c-12.853-9.64-26.027-.643-32.774,9.639s-1.928,33.417-1.928,33.417,2.571,0,2.571-.964-7.069-27.312,9.639-39.2c10.453-7.437,17.994-3.856,18.958-.321s-4.177,9.961-4.177,9.961Z" transform="translate(-2924.674 -1399.398)" fill="#74b570"/>
        <path id="Trazado_729308" data-name="Trazado 729308" d="M2987.03,1395.649c12.853,0,17.03,19.922,13.5,31.489s-8.354,33.1-8.354,33.1l-3.213-3.213s12.21-30.2,9.318-43.7-9.961-15.745-11.246-15.745S2987.03,1395.649,2987.03,1395.649Z" transform="translate(-2944.723 -1348.924)" fill="#9cd499"/>
        <path id="Trazado_729309" data-name="Trazado 729309" d="M3023.928,1519.594a9.31,9.31,0,0,1,3.384-2.843,25.43,25.43,0,0,1-.668,2.753c-1.611,5.27-3.487,12.608-5.054,19.035-.142-.823-.362-2.091-.7-4.048-.08-.462-.143-.964-.186-1.5A124.512,124.512,0,0,0,3023.928,1519.594Z" transform="translate(-2970.842 -1441.291)" fill="#74b570"/>
        <path id="Trazado_729310" data-name="Trazado 729310" d="M3027.745,1470.906c24.42-10.282,11.554-24.392,33.082-15.074a15.976,15.976,0,0,1,5.215,4.594,16.026,16.026,0,0,1-6.821.547c-6.427-.964-4.177,4.177,6.426,5.463a23.8,23.8,0,0,1,4.969,1.048c5.051,9.7,7.328,22.468-3.362,26.906a24.2,24.2,0,0,1-7.608,1.561c-3.3-2.622.805-17.793-4.281-15.7-4.883,2.011,1.53,13.006.651,15.776a70.436,70.436,0,0,1-15.254-2.138,7.594,7.594,0,0,1-4.033-4.641c-1.607-6.747,9-10.925,9.318-16.708.3-5.317-3.886,11.7-14.965,14.2C3021.063,1482.063,3016.33,1475.713,3027.745,1470.906Z" transform="translate(-2971.144 -1392.506)" fill="#9cd499"/>
        <path id="Trazado_729311" data-name="Trazado 729311" d="M2849.771,1377.65c2.571-5.462-4.177-6.748-3.856-2.571.285,3.7.316,12.7-3.479,15.148a59.563,59.563,0,0,1-22.187-7.368,2.729,2.729,0,0,1,.283-1.675c2.892-5.784,21.528-10.6,15.744-12.531-4.606-1.535-12.677,7.527-19.181,12.092-3.906-2.964-6.524-6.5-6.524-10.441,0-5.338,6.486-11.381,14.874-14.269,3.775.38,7.281,2.444,12.759,5.548,8.091,4.585,6.22-2.828-1.43-7.228a23.045,23.045,0,0,1,18.046,9.9s-.46,2.882,2.59,7.339c8.32,12.16-1.281,19.258-12.759,18.8C2845.3,1387.192,2848,1381.424,2849.771,1377.65Z" transform="translate(-2810.571 -1317.429)" fill="#9cd499"/>
        <path id="Trazado_729312" data-name="Trazado 729312" d="M3100.949,1476.6c6.283,4.856,13.264,10.533,21.833,14.389s6.855,16.423,6.855,16.423,1.285-10.854-5.855-14.567-11.854-8.14-17.281-9a78.69,78.69,0,0,1-8.426-1.713s1.714-3.428.714-4.713S3100.949,1476.6,3100.949,1476.6Z" transform="translate(-3029.855 -1410.602)" fill="#74b570"/>
        <path id="Trazado_729313" data-name="Trazado 729313" d="M3092.444,1236.565c-22.993,6.141-39.845,20.85-42.987,24.421s-3.142,4.57-3.142,4.57l2.428,4.57,1.142-.571s-1.857-3.856,3-8.855c8.374-8.62,18.566-15.424,25.563-18.423S3092.444,1236.565,3092.444,1236.565Z" transform="translate(-2990.377 -1227.588)" fill="#74b570"/>
        <path id="Rectángulo_340970" data-name="Rectángulo 340970" d="M15.7,0h0a15.7,15.7,0,0,1,15.7,15.7V31.494a0,0,0,0,1,0,0H0a0,0,0,0,1,0,0V15.7A15.7,15.7,0,0,1,15.7,0Z" transform="translate(58.694 136.247) rotate(180)" fill="#feb12e"/>
        <rect id="Rectángulo_340971" data-name="Rectángulo 340971" width="31.405" height="2.211" transform="translate(27.288 108.362)" fill="#fff"/>
        <rect id="Rectángulo_340972" data-name="Rectángulo 340972" width="31.405" height="1.3" transform="translate(27.288 112.393)" fill="#fff"/>
      </g>
      <g id="Grupo_965114" data-name="Grupo 965114" transform="translate(256.414 477.841)">
        <rect id="Rectángulo_340973" data-name="Rectángulo 340973" width="13.224" height="11.902" rx="5.951" transform="translate(61.312 11.902) rotate(180)" fill="#9ec8ff"/>
        <rect id="Rectángulo_340974" data-name="Rectángulo 340974" width="13.224" height="11.902" rx="5.951" transform="translate(37.268 11.902) rotate(180)" fill="#9ec8ff"/>
        <rect id="Rectángulo_340975" data-name="Rectángulo 340975" width="13.224" height="11.902" rx="5.951" transform="translate(13.224 11.902) rotate(180)" fill="#9ec8ff"/>
      </g>
      <g id="Grupo_965115" data-name="Grupo 965115" transform="translate(931.633 257.591)">
        <path id="Rectángulo_340976" data-name="Rectángulo 340976" d="M5.95,0H7.274a5.951,5.951,0,0,1,5.951,5.951v0A5.951,5.951,0,0,1,7.273,11.9H5.951A5.951,5.951,0,0,1,0,5.951v0A5.95,5.95,0,0,1,5.95,0Z" transform="translate(11.902) rotate(90)" fill="#9ec8ff"/>
        <path id="Rectángulo_340977" data-name="Rectángulo 340977" d="M5.95,0H7.274a5.95,5.95,0,0,1,5.95,5.95v0A5.951,5.951,0,0,1,7.273,11.9H5.951A5.951,5.951,0,0,1,0,5.951v0A5.95,5.95,0,0,1,5.95,0Z" transform="translate(11.902 24.044) rotate(90)" fill="#9ec8ff"/>
        <path id="Rectángulo_340978" data-name="Rectángulo 340978" d="M5.95,0H7.274a5.95,5.95,0,0,1,5.95,5.95v0A5.951,5.951,0,0,1,7.273,11.9H5.95A5.95,5.95,0,0,1,0,5.951v0A5.95,5.95,0,0,1,5.95,0Z" transform="translate(11.902 48.088) rotate(90)" fill="#9ec8ff"/>
      </g>
    </g>
    <g id="Grupo_965117" data-name="Grupo 965117" transform="translate(-130 1385)">
      <circle id="Elipse_5857" data-name="Elipse 5857" cx="30" cy="30" r="30" transform="translate(520 7622)" fill="#dfe6cd"/>
      <g id="Trazado_729187" data-name="Trazado 729187" transform="translate(525 7627)" fill="#feb12e">
        <path d="M 25 46.5 C 22.09597969055176 46.5 19.28067970275879 45.93202972412109 16.63229942321777 44.81185913085938 C 14.07252025604248 43.72916030883789 11.77285957336426 42.17845153808594 9.797200202941895 40.20280075073242 C 7.821549892425537 38.22713851928711 6.270840167999268 35.9274787902832 5.188139915466309 33.36769866943359 C 4.067969799041748 30.71932029724121 3.5 27.90402030944824 3.5 25 C 3.5 22.09597969055176 4.067969799041748 19.28067970275879 5.188139915466309 16.63229942321777 C 6.270840167999268 14.07252025604248 7.821549892425537 11.77285957336426 9.797200202941895 9.797200202941895 C 11.77285957336426 7.821549892425537 14.07252025604248 6.270840167999268 16.63229942321777 5.188139915466309 C 19.28067970275879 4.067969799041748 22.09597969055176 3.5 25 3.5 C 27.90402030944824 3.5 30.71932029724121 4.067969799041748 33.36769866943359 5.188139915466309 C 35.9274787902832 6.270840167999268 38.22713851928711 7.821549892425537 40.20280075073242 9.797200202941895 C 42.17845153808594 11.77285957336426 43.72916030883789 14.07252025604248 44.81185913085938 16.63229942321777 C 45.93202972412109 19.28067970275879 46.5 22.09597969055176 46.5 25 C 46.5 27.90402030944824 45.93202972412109 30.71932029724121 44.81185913085938 33.36769866943359 C 43.72916030883789 35.9274787902832 42.17845153808594 38.22713851928711 40.20280075073242 40.20280075073242 C 38.22713851928711 42.17845153808594 35.9274787902832 43.72916030883789 33.36769866943359 44.81185913085938 C 30.71932029724121 45.93202972412109 27.90402030944824 46.5 25 46.5 Z" stroke="none"/>
        <path d="M 25 7 C 15.07476043701172 7 7 15.07476043701172 7 25 C 7 34.92523956298828 15.07476043701172 43 25 43 C 34.92523956298828 43 43 34.92523956298828 43 25 C 43 15.07476043701172 34.92523956298828 7 25 7 M 25 0 C 38.80712127685547 0 50 11.19287872314453 50 25 C 50 38.80712127685547 38.80712127685547 50 25 50 C 11.19287872314453 50 0 38.80712127685547 0 25 C 0 11.19287872314453 11.19287872314453 0 25 0 Z" stroke="none" fill="#0e494d"/>
      </g>
    </g>
    <g id="Grupo_965460" data-name="Grupo 965460" transform="translate(220 1585)">
      <circle id="Elipse_5857-2" data-name="Elipse 5857" cx="30" cy="30" r="30" transform="translate(520 7622)" fill="#dfe6cd"/>
      <g id="Trazado_729187-2" data-name="Trazado 729187" transform="translate(525 7627)" fill="#feb12e">
        <path d="M 25 46.5 C 22.09597969055176 46.5 19.28067970275879 45.93202972412109 16.63229942321777 44.81185913085938 C 14.07252025604248 43.72916030883789 11.77285957336426 42.17845153808594 9.797200202941895 40.20280075073242 C 7.821549892425537 38.22713851928711 6.270840167999268 35.9274787902832 5.188139915466309 33.36769866943359 C 4.067969799041748 30.71932029724121 3.5 27.90402030944824 3.5 25 C 3.5 22.09597969055176 4.067969799041748 19.28067970275879 5.188139915466309 16.63229942321777 C 6.270840167999268 14.07252025604248 7.821549892425537 11.77285957336426 9.797200202941895 9.797200202941895 C 11.77285957336426 7.821549892425537 14.07252025604248 6.270840167999268 16.63229942321777 5.188139915466309 C 19.28067970275879 4.067969799041748 22.09597969055176 3.5 25 3.5 C 27.90402030944824 3.5 30.71932029724121 4.067969799041748 33.36769866943359 5.188139915466309 C 35.9274787902832 6.270840167999268 38.22713851928711 7.821549892425537 40.20280075073242 9.797200202941895 C 42.17845153808594 11.77285957336426 43.72916030883789 14.07252025604248 44.81185913085938 16.63229942321777 C 45.93202972412109 19.28067970275879 46.5 22.09597969055176 46.5 25 C 46.5 27.90402030944824 45.93202972412109 30.71932029724121 44.81185913085938 33.36769866943359 C 43.72916030883789 35.9274787902832 42.17845153808594 38.22713851928711 40.20280075073242 40.20280075073242 C 38.22713851928711 42.17845153808594 35.9274787902832 43.72916030883789 33.36769866943359 44.81185913085938 C 30.71932029724121 45.93202972412109 27.90402030944824 46.5 25 46.5 Z" stroke="none"/>
        <path d="M 25 7 C 15.07476043701172 7 7 15.07476043701172 7 25 C 7 34.92523956298828 15.07476043701172 43 25 43 C 34.92523956298828 43 43 34.92523956298828 43 25 C 43 15.07476043701172 34.92523956298828 7 25 7 M 25 0 C 38.80712127685547 0 50 11.19287872314453 50 25 C 50 38.80712127685547 38.80712127685547 50 25 50 C 11.19287872314453 50 0 38.80712127685547 0 25 C 0 11.19287872314453 11.19287872314453 0 25 0 Z" stroke="none" fill="#0e494d"/>
      </g>
    </g>
    <g id="Grupo_965461" data-name="Grupo 965461" transform="translate(568 1605)">
      <circle id="Elipse_5857-3" data-name="Elipse 5857" cx="30" cy="30" r="30" transform="translate(520 7622)" fill="#dfe6cd"/>
      <g id="Trazado_729187-3" data-name="Trazado 729187" transform="translate(525 7627)" fill="#feb12e">
        <path d="M 25 46.5 C 22.09597969055176 46.5 19.28067970275879 45.93202972412109 16.63229942321777 44.81185913085938 C 14.07252025604248 43.72916030883789 11.77285957336426 42.17845153808594 9.797200202941895 40.20280075073242 C 7.821549892425537 38.22713851928711 6.270840167999268 35.9274787902832 5.188139915466309 33.36769866943359 C 4.067969799041748 30.71932029724121 3.5 27.90402030944824 3.5 25 C 3.5 22.09597969055176 4.067969799041748 19.28067970275879 5.188139915466309 16.63229942321777 C 6.270840167999268 14.07252025604248 7.821549892425537 11.77285957336426 9.797200202941895 9.797200202941895 C 11.77285957336426 7.821549892425537 14.07252025604248 6.270840167999268 16.63229942321777 5.188139915466309 C 19.28067970275879 4.067969799041748 22.09597969055176 3.5 25 3.5 C 27.90402030944824 3.5 30.71932029724121 4.067969799041748 33.36769866943359 5.188139915466309 C 35.9274787902832 6.270840167999268 38.22713851928711 7.821549892425537 40.20280075073242 9.797200202941895 C 42.17845153808594 11.77285957336426 43.72916030883789 14.07252025604248 44.81185913085938 16.63229942321777 C 45.93202972412109 19.28067970275879 46.5 22.09597969055176 46.5 25 C 46.5 27.90402030944824 45.93202972412109 30.71932029724121 44.81185913085938 33.36769866943359 C 43.72916030883789 35.9274787902832 42.17845153808594 38.22713851928711 40.20280075073242 40.20280075073242 C 38.22713851928711 42.17845153808594 35.9274787902832 43.72916030883789 33.36769866943359 44.81185913085938 C 30.71932029724121 45.93202972412109 27.90402030944824 46.5 25 46.5 Z" stroke="none"/>
        <path d="M 25 7 C 15.07476043701172 7 7 15.07476043701172 7 25 C 7 34.92523956298828 15.07476043701172 43 25 43 C 34.92523956298828 43 43 34.92523956298828 43 25 C 43 15.07476043701172 34.92523956298828 7 25 7 M 25 0 C 38.80712127685547 0 50 11.19287872314453 50 25 C 50 38.80712127685547 38.80712127685547 50 25 50 C 11.19287872314453 50 0 38.80712127685547 0 25 C 0 11.19287872314453 11.19287872314453 0 25 0 Z" stroke="none" fill="#0e494d"/>
      </g>
    </g>
    <g id="Grupo_965462" data-name="Grupo 965462" transform="translate(456 1487)">
      <circle id="Elipse_5857-4" data-name="Elipse 5857" cx="30" cy="30" r="30" transform="translate(520 7622)" fill="#dfe6cd"/>
      <g id="Trazado_729187-4" data-name="Trazado 729187" transform="translate(525 7627)" fill="#feb12e">
        <path d="M 25 46.5 C 22.09597969055176 46.5 19.28067970275879 45.93202972412109 16.63229942321777 44.81185913085938 C 14.07252025604248 43.72916030883789 11.77285957336426 42.17845153808594 9.797200202941895 40.20280075073242 C 7.821549892425537 38.22713851928711 6.270840167999268 35.9274787902832 5.188139915466309 33.36769866943359 C 4.067969799041748 30.71932029724121 3.5 27.90402030944824 3.5 25 C 3.5 22.09597969055176 4.067969799041748 19.28067970275879 5.188139915466309 16.63229942321777 C 6.270840167999268 14.07252025604248 7.821549892425537 11.77285957336426 9.797200202941895 9.797200202941895 C 11.77285957336426 7.821549892425537 14.07252025604248 6.270840167999268 16.63229942321777 5.188139915466309 C 19.28067970275879 4.067969799041748 22.09597969055176 3.5 25 3.5 C 27.90402030944824 3.5 30.71932029724121 4.067969799041748 33.36769866943359 5.188139915466309 C 35.9274787902832 6.270840167999268 38.22713851928711 7.821549892425537 40.20280075073242 9.797200202941895 C 42.17845153808594 11.77285957336426 43.72916030883789 14.07252025604248 44.81185913085938 16.63229942321777 C 45.93202972412109 19.28067970275879 46.5 22.09597969055176 46.5 25 C 46.5 27.90402030944824 45.93202972412109 30.71932029724121 44.81185913085938 33.36769866943359 C 43.72916030883789 35.9274787902832 42.17845153808594 38.22713851928711 40.20280075073242 40.20280075073242 C 38.22713851928711 42.17845153808594 35.9274787902832 43.72916030883789 33.36769866943359 44.81185913085938 C 30.71932029724121 45.93202972412109 27.90402030944824 46.5 25 46.5 Z" stroke="none"/>
        <path d="M 25 7 C 15.07476043701172 7 7 15.07476043701172 7 25 C 7 34.92523956298828 15.07476043701172 43 25 43 C 34.92523956298828 43 43 34.92523956298828 43 25 C 43 15.07476043701172 34.92523956298828 7 25 7 M 25 0 C 38.80712127685547 0 50 11.19287872314453 50 25 C 50 38.80712127685547 38.80712127685547 50 25 50 C 11.19287872314453 50 0 38.80712127685547 0 25 C 0 11.19287872314453 11.19287872314453 0 25 0 Z" stroke="none" fill="#0e494d"/>
      </g>
    </g>
  </g>
</svg>
