<svg xmlns="http://www.w3.org/2000/svg" width="127" height="127" viewBox="0 0 127 127">
  <g id="Grupo_965476" data-name="Grupo 965476" transform="translate(-6867 1752)">
    <circle id="Elipse_6750" data-name="Elipse 6750" cx="63.5" cy="63.5" r="63.5" transform="translate(6867 -1752)" fill="#fff"/>
    <g id="satisfaccion" transform="translate(6890.319 -1725.445)">
      <path id="Trazado_729677" data-name="Trazado 729677" d="M84.723,37.106H70.914v3.378a1.332,1.332,0,0,1-1.331,1.326H31.251a6.209,6.209,0,0,1-2.5-.636L22.575,37.81c-.353-.193-.51-.452-.476-.7H8.284a.787.787,0,0,0-.785.785v64.4a.787.787,0,0,0,.785.785H84.723a.787.787,0,0,0,.785-.785v-64.4a.787.787,0,0,0-.785-.785Zm0,0" transform="translate(-6.323 -30.86)" fill="#e6e9ed"/>
      <path id="Trazado_729678" data-name="Trazado 729678" d="M217.076,312.4a8.9,8.9,0,1,1-8.9-8.994A8.948,8.948,0,0,1,217.076,312.4Zm0,0" transform="translate(-167.996 -255.367)" fill="#ffc502"/>
      <path id="Trazado_729679" data-name="Trazado 729679" d="M74.533,312.4a8.9,8.9,0,1,1-8.9-8.994A8.948,8.948,0,0,1,74.533,312.4Zm0,0" transform="translate(-47.826 -255.367)" fill="#badc61"/>
      <path id="Trazado_729680" data-name="Trazado 729680" d="M359.647,312.4a8.9,8.9,0,1,1-8.9-8.994A8.949,8.949,0,0,1,359.647,312.4Zm0,0" transform="translate(-288.189 -255.367)" fill="#34bc85"/>
      <g id="Grupo_965262" data-name="Grupo 965262" transform="translate(8.904 17.334)">
        <path id="Trazado_729681" data-name="Trazado 729681" d="M65.834,116.419a.472.472,0,0,1-.471.471H57.2a.472.472,0,0,1-.471-.471v-8.194a.472.472,0,0,1,.471-.471h8.161a.473.473,0,0,1,.471.471Zm0,0" transform="translate(-56.731 -107.754)" fill="#fcdb67"/>
        <path id="Trazado_729682" data-name="Trazado 729682" d="M65.834,211.677a.473.473,0,0,1-.471.471H57.2a.472.472,0,0,1-.471-.471v-8.194a.472.472,0,0,1,.471-.471h8.161a.472.472,0,0,1,.471.471Zm0,0" transform="translate(-56.731 -188.061)" fill="#fcdb67"/>
        <path id="Trazado_729683" data-name="Trazado 729683" d="M285.947,116.419a.472.472,0,0,1-.471.471h-8.161a.472.472,0,0,1-.471-.471v-8.194a.472.472,0,0,1,.471-.471h8.161a.473.473,0,0,1,.471.471Zm0,0" transform="translate(-242.296 -107.754)" fill="#fcdb67"/>
        <path id="Trazado_729684" data-name="Trazado 729684" d="M285.947,211.677a.473.473,0,0,1-.471.471h-8.161a.472.472,0,0,1-.471-.471v-8.194a.472.472,0,0,1,.471-.471h8.161a.472.472,0,0,1,.471.471Zm0,0" transform="translate(-242.296 -188.061)" fill="#fcdb67"/>
      </g>
      <path id="Trazado_729685" data-name="Trazado 729685" d="M147.966,8A1.333,1.333,0,0,1,149.3,9.326v6.621a1.333,1.333,0,0,1-1.331,1.327H109.634a6.2,6.2,0,0,1-2.5-.636l-6.177-3.365c-.643-.35-.643-.922,0-1.272l6.177-3.364a6.2,6.2,0,0,1,2.5-.636Zm0,0" transform="translate(-84.706 -6.323)" fill="#ffc502"/>
      <path id="Trazado_729686" data-name="Trazado 729686" d="M110.171,8h-.536a6.2,6.2,0,0,0-2.5.636L100.958,12c-.643.35-.643.922,0,1.272l6.177,3.365a6.2,6.2,0,0,0,2.5.636h.536Zm0,0" transform="translate(-84.706 -6.323)" fill="#ffd5b3"/>
      <path id="Trazado_729687" data-name="Trazado 729687" d="M105.11,19.082l-4.152,2.261c-.643.35-.643.922,0,1.272l4.152,2.262Zm0,0" transform="translate(-84.706 -15.666)" fill="#775436"/>
      <path id="Trazado_729688" data-name="Trazado 729688" d="M370.062,15.947V9.326A1.333,1.333,0,0,0,368.731,8h-6.388v9.274h6.388a1.333,1.333,0,0,0,1.331-1.327Zm0,0" transform="translate(-305.471 -6.323)" fill="#fb8276"/>
      <path id="Trazado_729689" data-name="Trazado 729689" d="M164.812,29.609H160.5a1.177,1.177,0,0,0,0,2.354h3.924V95.577H103.677a1.177,1.177,0,1,0,0,2.354h61.135a1.964,1.964,0,0,0,1.962-1.962v-64.4A1.964,1.964,0,0,0,164.812,29.609Zm0,0" transform="translate(-86.412 -24.541)"/>
      <path id="Trazado_729690" data-name="Trazado 729690" d="M11.615,71.036H2.354V7.423H15a2.3,2.3,0,0,0,.69.56l6.177,3.365a7.335,7.335,0,0,0,3.062.78H63.261a2.509,2.509,0,0,0,2.508-2.5v-2.2H68.59a1.177,1.177,0,1,0,0-2.354H65.769V3A2.509,2.509,0,0,0,63.261.5H24.929a7.335,7.335,0,0,0-3.062.78L15.689,4.644a2.4,2.4,0,0,0-.568.425H1.962A1.964,1.964,0,0,0,0,7.031v64.4A1.964,1.964,0,0,0,1.962,73.39h9.653a1.177,1.177,0,1,0,0-2.354ZM58.05,2.854h5.211A.156.156,0,0,1,63.414,3V9.624a.156.156,0,0,1-.154.15H58.05Zm-31.407,0H55.7V5.137H26.642Zm0,4.637H55.7V9.774H26.642ZM21.582,4.115l1.411-.768a4.91,4.91,0,0,1,1.295-.421V9.7a4.945,4.945,0,0,1-1.3-.421l-1.411-.768ZM19.227,5.4V7.23l-1.682-.916Zm0,0"/>
      <path id="Trazado_729691" data-name="Trazado 729691" d="M201.853,316.256a10.041,10.041,0,0,0,9.628-7.16,1.177,1.177,0,0,0-2.251-.69,7.7,7.7,0,0,1-7.378,5.5,7.817,7.817,0,1,1,7.287-10.415,1.177,1.177,0,0,0,2.224-.774,10.1,10.1,0,1,0-9.511,13.543Zm0,0" transform="translate(-161.673 -249.047)"/>
      <path id="Trazado_729692" data-name="Trazado 729692" d="M226.7,340.916v-.926a1.177,1.177,0,1,0-2.354,0v.926a1.177,1.177,0,1,0,2.354,0Zm0,0" transform="translate(-189.132 -285.212)"/>
      <path id="Trazado_729693" data-name="Trazado 729693" d="M274.987,340.916v-.926a1.177,1.177,0,0,0-2.354,0v.926a1.177,1.177,0,1,0,2.354,0Zm0,0" transform="translate(-229.841 -285.212)"/>
      <path id="Trazado_729694" data-name="Trazado 729694" d="M233.04,374.174h5.219a1.177,1.177,0,0,0,0-2.354H233.04a1.177,1.177,0,0,0,0,2.354Zm0,0" transform="translate(-195.47 -313.039)"/>
      <path id="Trazado_729695" data-name="Trazado 729695" d="M59.309,316.253A10.172,10.172,0,1,0,49.23,306.082,10.137,10.137,0,0,0,59.309,316.253Zm0-17.988a7.817,7.817,0,1,1-7.725,7.817A7.78,7.78,0,0,1,59.309,298.265Zm0,0" transform="translate(-41.503 -249.044)"/>
      <path id="Trazado_729696" data-name="Trazado 729696" d="M82.978,342.093a1.177,1.177,0,0,0,1.177-1.177v-.926a1.177,1.177,0,1,0-2.354,0v.926A1.177,1.177,0,0,0,82.978,342.093Zm0,0" transform="translate(-68.962 -285.212)"/>
      <path id="Trazado_729697" data-name="Trazado 729697" d="M131.267,342.093a1.177,1.177,0,0,0,1.177-1.177v-.926a1.177,1.177,0,1,0-2.354,0v.926A1.177,1.177,0,0,0,131.267,342.093Zm0,0" transform="translate(-109.671 -285.212)"/>
      <path id="Trazado_729698" data-name="Trazado 729698" d="M87.891,368.091a4.022,4.022,0,0,0,8.023,0,1.177,1.177,0,1,0-2.354,0,1.686,1.686,0,0,1-3.314,0,1.177,1.177,0,1,0-2.354,0Zm0,0" transform="translate(-74.096 -308.903)"/>
      <path id="Trazado_729699" data-name="Trazado 729699" d="M344.422,316.253a10.172,10.172,0,1,0-10.078-10.171A10.137,10.137,0,0,0,344.422,316.253Zm0-17.988a7.817,7.817,0,1,1-7.724,7.817A7.78,7.78,0,0,1,344.422,298.265Zm0,0" transform="translate(-281.866 -249.044)"/>
      <path id="Trazado_729700" data-name="Trazado 729700" d="M368.087,342.093a1.177,1.177,0,0,0,1.177-1.177v-.926a1.177,1.177,0,1,0-2.354,0v.926A1.177,1.177,0,0,0,368.087,342.093Zm0,0" transform="translate(-309.321 -285.212)"/>
      <path id="Trazado_729701" data-name="Trazado 729701" d="M416.38,342.093a1.177,1.177,0,0,0,1.177-1.177v-.926a1.177,1.177,0,1,0-2.354,0v.926A1.177,1.177,0,0,0,416.38,342.093Zm0,0" transform="translate(-350.034 -285.212)"/>
      <path id="Trazado_729702" data-name="Trazado 729702" d="M373,367.439a1.177,1.177,0,0,0,2.354,0,1.687,1.687,0,0,1,3.314,0,1.177,1.177,0,1,0,2.354,0,4.022,4.022,0,0,0-8.023,0Zm0,0" transform="translate(-314.455 -306.203)"/>
      <path id="Trazado_729703" data-name="Trazado 729703" d="M50.879,111.748H59.04a1.65,1.65,0,0,0,1.648-1.648v-6.8l.464-.467a1.177,1.177,0,0,0-.865-2.005,1.643,1.643,0,0,0-1.247-.574H50.879a1.649,1.649,0,0,0-1.648,1.648V110.1a1.649,1.649,0,0,0,1.648,1.647Zm.706-9.136h6.473L55.17,105.52l-.951-.958a1.177,1.177,0,1,0-1.671,1.658L54,107.685a1.631,1.631,0,0,0,1.167.487h0a1.631,1.631,0,0,0,1.167-.486l2-2.01v3.717H51.585Zm0,0" transform="translate(-41.503 -84.1)"/>
      <path id="Trazado_729704" data-name="Trazado 729704" d="M139.474,119.432H153.5a1.177,1.177,0,0,0,0-2.354H139.474a1.177,1.177,0,1,0,0,2.354Zm0,0" transform="translate(-116.59 -98.281)"/>
      <path id="Trazado_729705" data-name="Trazado 729705" d="M139.474,144h7.987a1.177,1.177,0,1,0,0-2.354h-7.987a1.177,1.177,0,1,0,0,2.354Zm0,0" transform="translate(-116.59 -118.988)"/>
      <path id="Trazado_729706" data-name="Trazado 729706" d="M49.23,205.354A1.65,1.65,0,0,0,50.879,207H59.04a1.65,1.65,0,0,0,1.648-1.648V197.16a1.65,1.65,0,0,0-1.648-1.648H50.879a1.65,1.65,0,0,0-1.648,1.648Zm2.354-7.488h6.749v6.781H51.585Zm0,0" transform="translate(-41.503 -164.404)"/>
      <path id="Trazado_729707" data-name="Trazado 729707" d="M139.474,214.69H153.5a1.177,1.177,0,0,0,0-2.354H139.474a1.177,1.177,0,1,0,0,2.354Zm0,0" transform="translate(-116.59 -178.587)"/>
      <path id="Trazado_729708" data-name="Trazado 729708" d="M148.639,238.072a1.177,1.177,0,0,0-1.177-1.177h-7.987a1.177,1.177,0,1,0,0,2.354h7.987A1.177,1.177,0,0,0,148.639,238.072Zm0,0" transform="translate(-116.591 -199.291)"/>
      <path id="Trazado_729709" data-name="Trazado 729709" d="M270.992,111.744h8.161A1.65,1.65,0,0,0,280.8,110.1V101.9a1.65,1.65,0,0,0-1.648-1.648h-8.161a1.65,1.65,0,0,0-1.648,1.648V110.1A1.649,1.649,0,0,0,270.992,111.744Zm.706-9.136h6.749v6.782H271.7Zm0,0" transform="translate(-227.069 -84.097)"/>
      <path id="Trazado_729710" data-name="Trazado 729710" d="M358.406,118.255a1.177,1.177,0,0,0,1.177,1.177h14.026a1.177,1.177,0,1,0,0-2.354H359.583A1.177,1.177,0,0,0,358.406,118.255Zm0,0" transform="translate(-302.152 -98.281)"/>
      <path id="Trazado_729711" data-name="Trazado 729711" d="M359.583,144h7.988a1.177,1.177,0,0,0,0-2.354h-7.988a1.177,1.177,0,1,0,0,2.354Zm0,0" transform="translate(-302.152 -118.988)"/>
      <path id="Trazado_729712" data-name="Trazado 729712" d="M280.8,205.354V197.16a1.65,1.65,0,0,0-1.648-1.648h-8.161a1.65,1.65,0,0,0-1.648,1.648v8.194A1.65,1.65,0,0,0,270.992,207h8.161A1.65,1.65,0,0,0,280.8,205.354Zm-2.354-.706H271.7v-6.782h6.749Zm0,0" transform="translate(-227.068 -164.404)"/>
      <path id="Trazado_729713" data-name="Trazado 729713" d="M373.613,212.336H359.588a1.177,1.177,0,1,0,0,2.354h14.026a1.177,1.177,0,0,0,0-2.354Zm0,0" transform="translate(-302.155 -178.587)"/>
      <path id="Trazado_729714" data-name="Trazado 729714" d="M367.571,239.249a1.177,1.177,0,0,0,0-2.354h-7.988a1.177,1.177,0,0,0,0,2.354Zm0,0" transform="translate(-302.152 -199.291)"/>
    </g>
  </g>
</svg>
