<svg xmlns="http://www.w3.org/2000/svg" width="157" height="157" viewBox="0 0 157 157">
  <g id="Grupo_965482" data-name="Grupo 965482" transform="translate(-1142 -11734)">
    <circle id="Elipse_5836" data-name="Elipse 5836" cx="78.5" cy="78.5" r="78.5" transform="translate(1142 11734)" fill="#34bc85"/>
    <g id="evaluacion_1_" data-name="evaluacion (1)" transform="translate(1183 11766)">
      <g id="Grupo_965308" data-name="Grupo 965308" transform="translate(1.419 1.419)">
        <g id="Grupo_965294" data-name="Grupo 965294" transform="translate(65.29 52.516)">
          <path id="Trazado_729755" data-name="Trazado 729755" d="M66.871,45.1V70.645H62.613L47,47.935,58.355,38Z" transform="translate(-47 -38)" fill="#ff826e"/>
        </g>
        <g id="Grupo_965295" data-name="Grupo 965295" transform="translate(4.258 73.806)">
          <path id="Trazado_729756" data-name="Trazado 729756" d="M20.677,61.516l.355,2.839H4L5.419,53H19.613Z" transform="translate(-4 -53)" fill="#ff826e"/>
        </g>
        <g id="Grupo_965296" data-name="Grupo 965296" transform="translate(5.677 5.677)">
          <path id="Trazado_729757" data-name="Trazado 729757" d="M10.677,24.871V48.276a3.584,3.584,0,0,0,.284,1.391l2,4.67A24.98,24.98,0,0,1,6.05,41.506L5.5,38.738A3.048,3.048,0,0,0,5,37.574V7.839A2.847,2.847,0,0,1,7.839,5H56.1a2.847,2.847,0,0,1,2.839,2.839V32.025a5.081,5.081,0,0,0-2.924,1.448l-.639.639a3.722,3.722,0,0,0-2.115-.724V17.774a1.424,1.424,0,0,0-1.419-1.419H12.1a1.424,1.424,0,0,0-1.419,1.419Z" transform="translate(-5 -5)" fill="#969faa"/>
        </g>
        <g id="Grupo_965297" data-name="Grupo 965297" transform="translate(19.871 59.797)">
          <path id="Trazado_729758" data-name="Trazado 729758" d="M16.135,57.139h31.51a1.424,1.424,0,0,0,1.419-1.419V43.144l.014-.014a15.53,15.53,0,0,0,5.663,1.945V62.816A2.847,2.847,0,0,1,51.9,65.655H16.065L15,57.139l.156-.4Z" transform="translate(-15 -43.13)" fill="#969faa"/>
        </g>
        <g id="Grupo_965298" data-name="Grupo 965298" transform="translate(11.355 17.032)">
          <path id="Trazado_729759" data-name="Trazado 729759" d="M50.161,69.774H9V14.419A1.42,1.42,0,0,1,10.419,13H50.161a1.42,1.42,0,0,1,1.419,1.419V68.355A1.42,1.42,0,0,1,50.161,69.774Z" transform="translate(-9 -13)" fill="#69d6f4"/>
        </g>
        <g id="Grupo_965299" data-name="Grupo 965299" transform="translate(36.903 56.774)">
          <path id="Trazado_729760" data-name="Trazado 729760" d="M38.355,42.419v8.516a1.424,1.424,0,0,1-1.419,1.419H28.419A1.424,1.424,0,0,1,27,50.935V42.419A1.424,1.424,0,0,1,28.419,41h8.516A1.424,1.424,0,0,1,38.355,42.419Z" transform="translate(-27 -41)" fill="#e6e9ed"/>
        </g>
        <g id="Grupo_965300" data-name="Grupo 965300" transform="translate(36.903 39.742)">
          <path id="Trazado_729761" data-name="Trazado 729761" d="M34.707,29l3.662,3.208a3.954,3.954,0,0,0-1.675-.369,4.022,4.022,0,0,0-4.017,4.017v.128a3.973,3.973,0,0,0,1.008,2.668l1.519,1.7H28.419A1.424,1.424,0,0,1,27,38.935V30.419A1.424,1.424,0,0,1,28.419,29h6.274Z" transform="translate(-27 -29)" fill="#e6e9ed"/>
        </g>
        <g id="Grupo_965301" data-name="Grupo 965301" transform="translate(36.903 22.71)">
          <path id="Trazado_729762" data-name="Trazado 729762" d="M30.69,26.368a3.069,3.069,0,0,0-.852,1.987H28.419A1.424,1.424,0,0,1,27,26.935V18.419A1.424,1.424,0,0,1,28.419,17h8.516a1.424,1.424,0,0,1,1.419,1.419v8.516a1.429,1.429,0,0,1-1.093,1.391l-2.328-2.072a2.987,2.987,0,0,0-1.945-.738h-.227A2.954,2.954,0,0,0,30.69,26.368Z" transform="translate(-27 -17)" fill="#e6e9ed"/>
        </g>
        <g id="Grupo_965302" data-name="Grupo 965302" transform="translate(39.742 31.226)">
          <path id="Trazado_729763" data-name="Trazado 729763" d="M45.308,26.563l.639-.639a5.081,5.081,0,0,1,2.924-1.448,3.988,3.988,0,0,1,.71-.057,5.135,5.135,0,0,1,3.634,1.5l1.859,1.859A48.1,48.1,0,0,1,65.307,42.9l.6,1.391L54.548,54.226l-5.521-.7c-.057,0-.1-.014-.156-.014a15.53,15.53,0,0,1-5.663-1.945,14.9,14.9,0,0,1-3.917-3.151l-4.925-5.55-1.519-1.7A3.973,3.973,0,0,1,31.839,38.5v-.128a4.022,4.022,0,0,1,4.017-4.017,3.954,3.954,0,0,1,1.675.369l-3.662-3.208h-.014l-3.861-3.378A2.991,2.991,0,0,1,29,25.924v-.085a3.069,3.069,0,0,1,.852-1.987A2.954,2.954,0,0,1,31.924,23h.227a2.987,2.987,0,0,1,1.945.738l2.328,2.072,2.853,2.526,1.49-1.49a3.416,3.416,0,0,1,2.427-1.008,3.722,3.722,0,0,1,2.115.724Z" transform="translate(-29 -23)" fill="#f0d0b4"/>
        </g>
        <g id="Grupo_965303" data-name="Grupo 965303" transform="translate(0 36.903)">
          <path id="Trazado_729764" data-name="Trazado 729764" d="M14.64,45.111l-2-4.67a3.584,3.584,0,0,1-.284-1.391v-.028a3.489,3.489,0,0,1,3.506-3.506A3.5,3.5,0,0,1,19,37.461l.454.894,1.817,3.619a23.064,23.064,0,0,1,2.285,7.735,23.328,23.328,0,0,1,.156,2.64,23.238,23.238,0,0,1-1.661,8.6l-1.022,2.555-.156.4H6.677A94.173,94.173,0,0,1,1,31.684V30.123A3.1,3.1,0,0,1,4.123,27a3.077,3.077,0,0,1,2.555,1.348,3.048,3.048,0,0,1,.5,1.164l.554,2.768A24.98,24.98,0,0,0,14.64,45.111Z" transform="translate(-1 -27)" fill="#f0d0b4"/>
        </g>
        <g id="Grupo_965304" data-name="Grupo 965304" transform="translate(68.129 22.71)">
          <path id="Trazado_729765" data-name="Trazado 729765" d="M57.516,17v4.258a4.258,4.258,0,0,1-8.516,0V17h8.516Z" transform="translate(-49 -17)" fill="#ccd1d9"/>
        </g>
        <g id="Grupo_965305" data-name="Grupo 965305" transform="translate(59.613)">
          <path id="Trazado_729766" data-name="Trazado 729766" d="M57.449,1H54.1a11.1,11.1,0,0,0-6.16,20.325l3.577,2.385h8.516l3.577-2.385A11.095,11.095,0,0,0,57.449,1Z" transform="translate(-43 -1)" fill="#ffeaa7"/>
        </g>
        <g id="Grupo_965306" data-name="Grupo 965306" transform="translate(74.09 8.516)">
          <path id="Trazado_729767" data-name="Trazado 729767" d="M55.9,12.677H53.484l-.27-2.711A1.718,1.718,0,0,1,53.2,9.7a2.7,2.7,0,0,1,5.394,0v.284a2.7,2.7,0,0,1-2.7,2.7Z" transform="translate(-53.2 -7)" fill="#fcd770"/>
        </g>
        <g id="Grupo_965307" data-name="Grupo 965307" transform="translate(65.29 8.516)">
          <path id="Trazado_729768" data-name="Trazado 729768" d="M49.7,7a2.7,2.7,0,0,1,2.683,2.966l-.27,2.711H49.7a2.7,2.7,0,0,1-2.7-2.7V9.7A2.7,2.7,0,0,1,49.7,7Z" transform="translate(-47 -7)" fill="#fcd770"/>
        </g>
      </g>
      <g id="Grupo_965309" data-name="Grupo 965309" transform="translate(0)">
        <path id="Trazado_729769" data-name="Trazado 729769" d="M20,8H31.355v2.839H20Z" transform="translate(8.387 3.355)"/>
        <path id="Trazado_729770" data-name="Trazado 729770" d="M12,18h5.677v2.839H12Z" transform="translate(5.032 7.548)"/>
        <path id="Trazado_729771" data-name="Trazado 729771" d="M18,18h8.516v2.839H18Z" transform="translate(7.548 7.548)"/>
        <path id="Trazado_729772" data-name="Trazado 729772" d="M12,22H26.194v2.839H12Z" transform="translate(5.032 9.226)"/>
        <path id="Trazado_729773" data-name="Trazado 729773" d="M12,30h5.677v2.839H12Z" transform="translate(5.032 12.581)"/>
        <path id="Trazado_729774" data-name="Trazado 729774" d="M18,30h8.516v2.839H18Z" transform="translate(7.548 12.581)"/>
        <path id="Trazado_729775" data-name="Trazado 729775" d="M78.771,51.984A49.422,49.422,0,0,0,68.238,36.425l-1.859-1.859a6.49,6.49,0,0,0-3.929-1.852v-12.3a12.525,12.525,0,0,0,2.734,2.508l2.945,1.963v3.5a5.677,5.677,0,0,0,11.355,0v-3.5l2.944-1.963A12.513,12.513,0,0,0,75.487,0h-3.36A12.52,12.52,0,0,0,61.019,6.775a4.225,4.225,0,0,0-2.826-1.1H9.935A4.263,4.263,0,0,0,5.677,9.935V37.066A4.464,4.464,0,0,0,4.539,36.9,4.545,4.545,0,0,0,0,41.442V43A95.439,95.439,0,0,0,5.648,75.373L4.069,88H24.318l-.355-2.839H58.194A4.263,4.263,0,0,0,62.452,80.9V64.769l3.45.431L81.576,88H88V60.367l-8.765-7.3ZM66.231,38.432A46.6,46.6,0,0,1,76.163,53.1l.19.444-10.1,8.837-4.893-.612a14.192,14.192,0,0,1-8.848-4.654l-6.438-7.243a2.7,2.7,0,0,1-.654-1.861,2.6,2.6,0,0,1,4.431-1.835l4.5,4.5,2.007-2.007-4.5-4.5a5.417,5.417,0,0,0-1.3-.931l-7.466-6.532a1.51,1.51,0,0,1,.995-2.644h.216a1.511,1.511,0,0,1,1,.382L57.251,45.062l1.886-2.121L53.5,37.929l.436-.439a2.053,2.053,0,0,1,2.839,0l3.255,3.255,2.007-2.007-2.5-2.5a3.813,3.813,0,0,1,4.84.339Zm-41.1,29.7h8.931V65.29H25.472c.035-.541.077-1.08.077-1.625,0-.4-.016-.809-.035-1.214h8.552V59.613H25.2a24.751,24.751,0,0,0-2.253-6.949L22.167,51.1h9.058V48.258H20.748l-.058-.115a4.883,4.883,0,0,0-6.5-2.241V19.871H53.935V34.334a4.616,4.616,0,0,0-2.007,1.15l-.555.555-.644-.573a2.84,2.84,0,0,0,.368-1.4V25.548a2.842,2.842,0,0,0-2.839-2.839H39.742A2.842,2.842,0,0,0,36.9,25.548v8.516A2.842,2.842,0,0,0,39.742,36.9h.233a4.333,4.333,0,0,0,1.25,1.943l1.025.9H39.742A2.842,2.842,0,0,0,36.9,42.581V51.1a2.842,2.842,0,0,0,2.839,2.839h6.144l2.538,2.856c-.055,0-.109-.017-.166-.017H39.742A2.842,2.842,0,0,0,36.9,59.613v8.516a2.842,2.842,0,0,0,2.839,2.839h8.516A2.842,2.842,0,0,0,51.1,68.129v-8.4a16.975,16.975,0,0,0,2.839,2.3V73.806H23.387l.4-1.006a24.558,24.558,0,0,0,1.344-4.671ZM40.027,34.065h-.285V25.548h8.516V33.27l-1.063-.944a4.343,4.343,0,0,0-2.89-1.1h-.216A4.346,4.346,0,0,0,40.027,34.065ZM43.463,51.1H39.742V42.581h5.751l.47.41a5.526,5.526,0,0,0-3.382,5.161A5.414,5.414,0,0,0,43.463,51.1Zm4.8,17.032H39.742V59.613h8.516ZM70.535,14.194H69.406a1.279,1.279,0,0,1-1.277-1.277v-.284a1.279,1.279,0,0,1,1.277-1.277,1.277,1.277,0,0,1,1.27,1.4Zm6.4-1.435a1.277,1.277,0,0,1,1.272-1.4,1.279,1.279,0,0,1,1.277,1.277v.284a1.279,1.279,0,0,1-1.277,1.277H77.079ZM73.806,31.226a2.842,2.842,0,0,1-2.839-2.839V25.548h5.677v2.839A2.842,2.842,0,0,1,73.806,31.226Zm-1.27-8.516.568-5.677h1.405l.568,5.677Zm-.41-19.871h3.36a9.674,9.674,0,0,1,5.367,17.725l-2.941,1.962-.549-5.493h.845a4.121,4.121,0,0,0,4.116-4.116v-.284a4.116,4.116,0,1,0-8.211.409l.114,1.153h-.837l.115-1.153a4.116,4.116,0,1,0-8.212-.409v.284a4.12,4.12,0,0,0,4.116,4.116h.845L69.7,22.525l-2.941-1.962A9.674,9.674,0,0,1,72.126,2.839ZM9.935,8.516H58.194a1.421,1.421,0,0,1,1.419,1.419v23.09a6.512,6.512,0,0,0-2.39,1.443c-.146-.058-.3-.089-.449-.133V19.871a2.842,2.842,0,0,0-2.839-2.839H14.194a2.842,2.842,0,0,0-2.839,2.839v28.9a23.517,23.517,0,0,1-1.81-5.44L8.99,40.551a4.507,4.507,0,0,0-.474-1.267V9.935A1.421,1.421,0,0,1,9.935,8.516Zm-7.1,32.926a1.7,1.7,0,0,1,3.368-.334l.555,2.775a26.27,26.27,0,0,0,7.1,13.346l.619,1.443a5.418,5.418,0,0,1-.135,4.563l2.539,1.27a8.247,8.247,0,0,0,.2-6.949L14.364,51.2a2.118,2.118,0,0,1-.17-.856,2.089,2.089,0,0,1,3.957-.935l2.261,4.522a21.867,21.867,0,0,1,2.3,9.731,21.649,21.649,0,0,1-1.557,8.08l-.823,2.061H8.114A92.583,92.583,0,0,1,2.839,43ZM7.286,85.161,8.35,76.645H20.037L21.1,85.161Zm50.908-2.839H23.608l-.71-5.677H53.935a2.842,2.842,0,0,0,2.839-2.839V63.485a16.989,16.989,0,0,0,2.839.864V80.9A1.421,1.421,0,0,1,58.194,82.323Zm26.968,2.839H83.069L68.595,64.108,78.087,55.8l7.074,5.9Z" transform="translate(0)"/>
      </g>
    </g>
  </g>
</svg>
