<svg xmlns="http://www.w3.org/2000/svg" width="105" height="105" viewBox="0 0 105 105">
  <g id="Grupo_965421" data-name="Grupo 965421" transform="translate(-1220 -2704)">
    <circle id="Elipse_5793" data-name="Elipse 5793" cx="52.5" cy="52.5" r="52.5" transform="translate(1220 2704)" fill="#feb12e"/>
    <g id="responsabilidad" transform="translate(1197.283 2722)">
      <g id="Grupo_964521" data-name="Grupo 964521" transform="translate(82.793 15.274)">
        <path id="Trazado_728002" data-name="Trazado 728002" d="M319.839,113.106l1.326,2.686a.806.806,0,0,0,.607.441l2.964.431a.806.806,0,0,1,.447,1.375l-2.145,2.091a.806.806,0,0,0-.232.713l.506,2.952a.806.806,0,0,1-1.17.85l-2.651-1.394a.806.806,0,0,0-.75,0l-2.651,1.394a.806.806,0,0,1-1.169-.85l.506-2.952a.806.806,0,0,0-.232-.713l-2.145-2.091a.806.806,0,0,1,.447-1.375l2.964-.431a.806.806,0,0,0,.607-.441l1.326-2.686A.806.806,0,0,1,319.839,113.106Z" transform="translate(-312.805 -112.657)" fill="#fed402"/>
      </g>
      <g id="Grupo_964523" data-name="Grupo 964523" transform="translate(82.792 18.84)">
        <g id="Grupo_964522" data-name="Grupo 964522">
          <path id="Trazado_728003" data-name="Trazado 728003" d="M318.595,145.09l.506-2.952a.806.806,0,0,0-.232-.713l-2.145-2.091a.8.8,0,0,1-.217-.371c-.016,0-.031.008-.047.01l-2.964.431a.806.806,0,0,0-.447,1.375l2.145,2.091a.806.806,0,0,1,.232.713l-.506,2.952a.806.806,0,0,0,1.169.85l2.651-1.394a.8.8,0,0,1,.229-.078A.8.8,0,0,1,318.595,145.09Z" transform="translate(-312.805 -138.963)" fill="#fac600"/>
        </g>
      </g>
      <g id="Grupo_964524" data-name="Grupo 964524" transform="translate(75.255 1.017)">
        <path id="Trazado_728004" data-name="Trazado 728004" d="M262.482,7.837l.994,2.015a.6.6,0,0,0,.455.331l2.223.323a.6.6,0,0,1,.335,1.031L264.881,13.1a.6.6,0,0,0-.174.535l.38,2.214a.6.6,0,0,1-.877.637l-1.989-1.045a.6.6,0,0,0-.563,0l-1.989,1.045a.6.6,0,0,1-.877-.637l.38-2.214A.6.6,0,0,0,259,13.1l-1.609-1.568a.6.6,0,0,1,.335-1.031l2.223-.323a.6.6,0,0,0,.455-.331l.994-2.015a.6.6,0,0,1,1.084,0Z" transform="translate(-257.207 -7.5)" fill="#fed402"/>
      </g>
      <g id="Grupo_964525" data-name="Grupo 964525" transform="translate(67.829 31.861)">
        <path id="Trazado_728005" data-name="Trazado 728005" d="M206.352,253.886h7.241a3.024,3.024,0,0,1,2.8,1.873,10.644,10.644,0,1,0-10.037-1.873Z" transform="translate(-202.44 -235)" fill="#97d729"/>
        <path id="Trazado_728006" data-name="Trazado 728006" d="M206.351,253.886h5.5a10.64,10.64,0,0,1,3.977-18.525,10.643,10.643,0,0,0-9.481,18.525Z" transform="translate(-202.439 -235)" fill="#8bc727"/>
      </g>
      <g id="Grupo_964529" data-name="Grupo 964529" transform="translate(47.734 47.188)">
        <g id="Grupo_964526" data-name="Grupo 964526" transform="translate(33.709 1.897)">
          <path id="Trazado_728007" data-name="Trazado 728007" d="M306.673,372.316a3.023,3.023,0,0,0,2.138-.886l8.442-8.441c-.02-.021-.038-.044-.059-.065a3.024,3.024,0,0,0-4.276,0l-8.58,8.58a3.022,3.022,0,0,1-1.484.812h3.82Z" transform="translate(-302.853 -362.039)" fill="#ffe5c2"/>
        </g>
        <path id="Trazado_728008" data-name="Trazado 728008" d="M226.706,372.828a2.034,2.034,0,0,0,2.033,2h13.4a3.023,3.023,0,0,0,2.138-.886l8.58-8.58a3.024,3.024,0,0,1,3.816-.377,3.022,3.022,0,0,0-5.122-2.612l-8.58,8.58a3.024,3.024,0,0,1-2.138.886H226.692Z" transform="translate(-203.308 -359.67)" fill="#fed2a4"/>
        <path id="Trazado_728009" data-name="Trazado 728009" d="M183.167,376.438a3.024,3.024,0,0,0-4.276,0l-8.58,8.58a3.024,3.024,0,0,1-2.138.886h-13.4a2.033,2.033,0,0,1-2.033-2l-.021-1.489a2.034,2.034,0,0,1,2.034-2.062h5.759a3.076,3.076,0,0,0,3.1-2.92,3.024,3.024,0,0,0-3.022-3.128H141.118v14.644l4,1.6a19.715,19.715,0,0,0,7.317,1.408h16.99a6.04,6.04,0,0,0,4.271-1.769l9.468-9.469A3.024,3.024,0,0,0,183.167,376.438Z" transform="translate(-129.336 -370.741)" fill="#ffe5c2"/>
        <path id="Trazado_728010" data-name="Trazado 728010" d="M173.66,389.173H156.67a19.715,19.715,0,0,1-7.317-1.408l-2.433-.972a2.712,2.712,0,0,1-1.705-2.518V374.3h-4.1v14.644l4,1.6a19.715,19.715,0,0,0,7.317,1.408h16.99a6.04,6.04,0,0,0,4.271-1.769l1.124-1.124A6.048,6.048,0,0,1,173.66,389.173Z" transform="translate(-129.337 -370.741)" fill="#fed2a4"/>
        <g id="Grupo_964527" data-name="Grupo 964527">
          <path id="Trazado_728011" data-name="Trazado 728011" d="M55.094,369.208H65.122a.877.877,0,0,0,.877-.877V348.926a.877.877,0,0,0-.877-.876H55.094a.877.877,0,0,0-.877.876v19.405A.877.877,0,0,0,55.094,369.208Z" transform="translate(-54.217 -348.05)" fill="#b3dafe"/>
        </g>
        <g id="Grupo_964528" data-name="Grupo 964528" transform="translate(0)">
          <path id="Trazado_728012" data-name="Trazado 728012" d="M59.9,368.332V348.926a.876.876,0,0,1,.877-.876H55.094a.877.877,0,0,0-.877.876v19.405a.877.877,0,0,0,.877.877h5.679A.877.877,0,0,1,59.9,368.332Z" transform="translate(-54.217 -348.05)" fill="#8ac9fe"/>
        </g>
      </g>
      <g id="Grupo_964536" data-name="Grupo 964536" transform="translate(48.035 6.101)">
        <g id="Grupo_964530" data-name="Grupo 964530" transform="translate(0 0)">
          <path id="Trazado_728013" data-name="Trazado 728013" d="M83.437,60.279V56.717a.745.745,0,0,0-.745-.745H80.1a.748.748,0,0,1-.71-.523,9.88,9.88,0,0,0-.613-1.476.748.748,0,0,1,.132-.873l1.835-1.835a.745.745,0,0,0,0-1.053l-2.518-2.518a.745.745,0,0,0-1.053,0L75.335,49.53a.748.748,0,0,1-.873.132,9.857,9.857,0,0,0-1.475-.613.748.748,0,0,1-.523-.71V45.745A.745.745,0,0,0,71.719,45H68.157a.745.745,0,0,0-.745.745v2.594a.748.748,0,0,1-.523.71,9.858,9.858,0,0,0-1.475.613.748.748,0,0,1-.873-.132l-1.835-1.835a.745.745,0,0,0-1.053,0l-2.518,2.519a.745.745,0,0,0,0,1.053L60.97,53.1a.748.748,0,0,1,.132.873,9.839,9.839,0,0,0-.613,1.476.748.748,0,0,1-.71.523H57.185a.745.745,0,0,0-.745.745v3.562a.745.745,0,0,0,.745.745h2.594a.748.748,0,0,1,.71.523,9.857,9.857,0,0,0,.613,1.475.748.748,0,0,1-.132.873l-1.835,1.835a.745.745,0,0,0,0,1.053L61.653,69.3a.745.745,0,0,0,1.053,0l1.835-1.835a.748.748,0,0,1,.873-.132,9.858,9.858,0,0,0,1.475.613.748.748,0,0,1,.523.71v2.594a.745.745,0,0,0,.745.745h3.562a.745.745,0,0,0,.745-.745V68.658a.748.748,0,0,1,.523-.71,9.858,9.858,0,0,0,1.475-.613.748.748,0,0,1,.873.132L77.171,69.3a.745.745,0,0,0,1.053,0l2.518-2.518a.745.745,0,0,0,0-1.053L78.907,63.9a.748.748,0,0,1-.132-.873,9.858,9.858,0,0,0,.613-1.475.748.748,0,0,1,.71-.523h2.594A.744.744,0,0,0,83.437,60.279Z" transform="translate(-56.44 -45)" fill="#baafb9"/>
        </g>
        <g id="Grupo_964532" data-name="Grupo 964532" transform="translate(0)">
          <g id="Grupo_964531" data-name="Grupo 964531">
            <path id="Trazado_728014" data-name="Trazado 728014" d="M63.974,58.5a10.17,10.17,0,0,1,8.5-10.031.741.741,0,0,1-.012-.129V45.745A.745.745,0,0,0,71.719,45H68.157a.745.745,0,0,0-.745.745v2.594a.748.748,0,0,1-.523.71,9.858,9.858,0,0,0-1.475.613.748.748,0,0,1-.873-.132l-1.835-1.835a.745.745,0,0,0-1.053,0l-2.518,2.519a.745.745,0,0,0,0,1.053L60.97,53.1a.748.748,0,0,1,.132.873,9.838,9.838,0,0,0-.613,1.476.748.748,0,0,1-.71.523H57.185a.745.745,0,0,0-.745.745v3.562a.745.745,0,0,0,.745.745h2.594a.748.748,0,0,1,.71.523,9.858,9.858,0,0,0,.613,1.475.748.748,0,0,1-.132.873l-1.835,1.835a.745.745,0,0,0,0,1.053L61.653,69.3a.745.745,0,0,0,1.053,0l1.835-1.835a.748.748,0,0,1,.873-.132,9.857,9.857,0,0,0,1.475.613.748.748,0,0,1,.523.71v2.594a.745.745,0,0,0,.745.745h3.562a.745.745,0,0,0,.745-.745V68.658a.738.738,0,0,1,.012-.129A10.17,10.17,0,0,1,63.974,58.5Z" transform="translate(-56.44 -45)" fill="#aa9ea9"/>
          </g>
        </g>
        <g id="Grupo_964533" data-name="Grupo 964533" transform="translate(7.642 7.642)">
          <circle id="Elipse_5794" data-name="Elipse 5794" cx="5.857" cy="5.857" r="5.857" fill="#e5e1e5"/>
        </g>
        <g id="Grupo_964534" data-name="Grupo 964534" transform="translate(11.521 11.521)">
          <circle id="Elipse_5795" data-name="Elipse 5795" cx="1.978" cy="1.978" r="1.978" fill="#baafb9"/>
        </g>
        <g id="Grupo_964535" data-name="Grupo 964535" transform="translate(11.52 11.52)">
          <path id="Trazado_728015" data-name="Trazado 728015" d="M143.232,131.951A1.976,1.976,0,0,1,144.3,130.2a1.978,1.978,0,1,0,0,3.51A1.976,1.976,0,0,1,143.232,131.951Z" transform="translate(-141.413 -129.973)" fill="#aa9ea9"/>
        </g>
      </g>
      <g id="Grupo_964537" data-name="Grupo 964537" transform="translate(46.717 0)">
        <path id="Trazado_728016" data-name="Trazado 728016" d="M305.392,110.415a1.812,1.812,0,0,0,.461,1.869l2.066,2.014-.488,2.843a1.821,1.821,0,0,0,2.645,1.922l2.553-1.342,2.553,1.342a1.823,1.823,0,0,0,2.645-1.921l-.488-2.843,2.066-2.014a1.823,1.823,0,0,0-1.01-3.109l-2.855-.415-1.277-2.587a1.823,1.823,0,0,0-3.269,0l-1.277,2.587-2.855.415A1.811,1.811,0,0,0,305.392,110.415Zm4.728.341a1.823,1.823,0,0,0,1.373-1l1.137-2.3,1.137,2.3a1.822,1.822,0,0,0,1.372,1l2.542.369-1.839,1.793a1.823,1.823,0,0,0-.524,1.614l.434,2.531-2.273-1.2a1.823,1.823,0,0,0-1.7,0l-2.273,1.2.434-2.531a1.822,1.822,0,0,0-.524-1.614l-1.839-1.793Z" transform="translate(-270.244 -90.9)"/>
        <path id="Trazado_728017" data-name="Trazado 728017" d="M251.648,7.2l-.343,2a1.619,1.619,0,0,0,2.353,1.709l1.8-.945,1.8.945A1.621,1.621,0,0,0,259.6,9.2l-.343-2,1.454-1.417a1.621,1.621,0,0,0-.9-2.766l-2.009-.292-.9-1.82A1.621,1.621,0,0,0,254,.9l-.9,1.82-2.009.292a1.621,1.621,0,0,0-.9,2.765ZM255.084,1.8h0Zm-1.475,2.9a1.621,1.621,0,0,0,1.22-.887l.624-1.265.624,1.265a1.621,1.621,0,0,0,1.221.887l1.4.2-1.01.985a1.621,1.621,0,0,0-.466,1.435l.238,1.391-1.249-.657a1.621,1.621,0,0,0-1.509,0l-1.249.657.238-1.391a1.621,1.621,0,0,0-.466-1.435l-1.011-.985Z" transform="translate(-222.183 0)"/>
        <path id="Trazado_728018" data-name="Trazado 728018" d="M246.215,286.727l-5.12,5.12-3.681-3.681a1.017,1.017,0,0,0-1.438,1.438l4.4,4.4a1.017,1.017,0,0,0,1.438,0l5.839-5.839a1.017,1.017,0,0,0-1.438-1.438Z" transform="translate(-210.058 -247.596)"/>
        <path id="Trazado_728019" data-name="Trazado 728019" d="M102.284,248.822c-.041-.041-.083-.08-.125-.119a4.039,4.039,0,0,0-6.331-3.34,4.042,4.042,0,0,0-5.039.544l-8.581,8.58a2,2,0,0,1-.882.514H72.249a1.021,1.021,0,0,1,.171-.231,1.009,1.009,0,0,1,.724-.3H78.9a4.042,4.042,0,0,0,4.086-4.564,11.666,11.666,0,0,0,6.739-7.7,1.017,1.017,0,1,0-1.963-.53,9.632,9.632,0,0,1-5.537,6.346,4.112,4.112,0,0,0-.34-.4,4.008,4.008,0,0,0-2.9-1.232h-6.86a9.623,9.623,0,1,1,15.809-9.005,1.017,1.017,0,0,0,2-.374,11.658,11.658,0,1,0-20.6,9.379h-8.8V244.72a1.9,1.9,0,0,0-1.893-1.893H48.61a1.9,1.9,0,0,0-1.893,1.893v19.405a1.9,1.9,0,0,0,1.893,1.893H58.639a1.9,1.9,0,0,0,1.893-1.893v-.577l2.608,1.042a20.643,20.643,0,0,0,7.695,1.481h16.99A7.01,7.01,0,0,0,92.815,264l3.307-3.307a1.017,1.017,0,0,0-1.438-1.438l-3.307,3.307a4.99,4.99,0,0,1-3.552,1.471H70.836A18.617,18.617,0,0,1,63.9,262.7l-3.363-1.344V248.42h18.45a2.007,2.007,0,0,1,2.006,2.077,2.065,2.065,0,0,1-2.085,1.937H73.144a3.051,3.051,0,0,0-3.05,3.094l.021,1.489a3.063,3.063,0,0,0,3.05,3.008h13.4a4.014,4.014,0,0,0,2.857-1.184l8.581-8.58a2.007,2.007,0,0,1,2.838,2.838L98.039,255.9a1.017,1.017,0,1,0,1.438,1.438l2.806-2.806a4.046,4.046,0,0,0,0-5.715ZM58.5,263.985H48.751V244.861H58.5Zm39.621-17.3a2.008,2.008,0,0,1,1.724.979,4.034,4.034,0,0,0-3.275,1.159l-8.581,8.58a1.994,1.994,0,0,1-1.419.588h-13.4a1.021,1.021,0,0,1-1.014-.955H85.263a4.015,4.015,0,0,0,2.857-1.183l8.581-8.58A1.994,1.994,0,0,1,98.12,246.683Zm-5.893.662a1.994,1.994,0,0,1,1.419-.588,2.014,2.014,0,0,1,.6.092l-7.564,7.564a2,2,0,0,1-1.419.588H84.57Z" transform="translate(-46.717 -196.656)"/>
        <path id="Trazado_728020" data-name="Trazado 728020" d="M50.7,55.558h2.4a10.931,10.931,0,0,0,.53,1.275l-1.7,1.7a1.761,1.761,0,0,0,0,2.491l2.518,2.519a1.764,1.764,0,0,0,2.491,0l1.7-1.7a10.932,10.932,0,0,0,1.275.53v2.4a1.764,1.764,0,0,0,1.762,1.762h3.562A1.764,1.764,0,0,0,67,64.769v-2.4a10.908,10.908,0,0,0,1.275-.53l1.7,1.7a1.764,1.764,0,0,0,2.491,0l2.518-2.518a1.761,1.761,0,0,0,0-2.491l-1.7-1.7a10.933,10.933,0,0,0,.53-1.275h2.4A1.764,1.764,0,0,0,77.97,53.8V50.235a1.764,1.764,0,0,0-1.762-1.762h-2.4a10.927,10.927,0,0,0-.53-1.275l1.7-1.7a1.763,1.763,0,0,0,0-2.491l-2.518-2.518a1.763,1.763,0,0,0-2.491,0l-1.7,1.7A10.936,10.936,0,0,0,67,41.658v-2.4A1.764,1.764,0,0,0,65.235,37.5H61.674a1.764,1.764,0,0,0-1.762,1.762v2.4a10.937,10.937,0,0,0-1.275.53l-1.7-1.7a1.764,1.764,0,0,0-2.491,0l-2.519,2.518a1.763,1.763,0,0,0,0,2.491l1.7,1.7a10.923,10.923,0,0,0-.53,1.275H50.7a1.764,1.764,0,0,0-1.762,1.762V53.8A1.764,1.764,0,0,0,50.7,55.558Zm.272-5.051h2.322a1.761,1.761,0,0,0,1.678-1.227,8.857,8.857,0,0,1,.55-1.324A1.761,1.761,0,0,0,55.2,45.9l-1.643-1.643L55.7,42.123l1.643,1.643a1.761,1.761,0,0,0,2.057.317,8.866,8.866,0,0,1,1.323-.55,1.761,1.761,0,0,0,1.227-1.678V39.534h3.017v2.322a1.761,1.761,0,0,0,1.227,1.678,8.884,8.884,0,0,1,1.324.55,1.761,1.761,0,0,0,2.057-.317l1.643-1.643,2.134,2.134L71.7,45.9a1.761,1.761,0,0,0-.317,2.057,8.88,8.88,0,0,1,.55,1.323,1.761,1.761,0,0,0,1.678,1.227h2.322v3.017H73.614a1.761,1.761,0,0,0-1.678,1.227,8.881,8.881,0,0,1-.55,1.324,1.761,1.761,0,0,0,.317,2.057l1.643,1.643-2.133,2.134L69.57,60.265a1.761,1.761,0,0,0-2.057-.317,8.869,8.869,0,0,1-1.323.55,1.761,1.761,0,0,0-1.227,1.678V64.5H61.946V62.175A1.761,1.761,0,0,0,60.718,60.5a8.866,8.866,0,0,1-1.323-.55,1.761,1.761,0,0,0-2.057.317L55.7,61.908l-2.133-2.134L55.2,58.131a1.761,1.761,0,0,0,.317-2.057,8.868,8.868,0,0,1-.55-1.323,1.761,1.761,0,0,0-1.678-1.227H50.973Z" transform="translate(-48.638 -32.416)"/>
        <path id="Trazado_728021" data-name="Trazado 728021" d="M112.178,107.611a6.879,6.879,0,0,0,6.288-4.1,1.017,1.017,0,1,0-1.86-.822,4.84,4.84,0,1,1-.006-3.92,1.017,1.017,0,0,0,1.858-.828,6.873,6.873,0,1,0-6.279,9.668Z" transform="translate(-97.361 -81.138)"/>
        <path id="Trazado_728022" data-name="Trazado 728022" d="M133.913,125.469a2.995,2.995,0,1,0,2.995-2.995A3,3,0,0,0,133.913,125.469Zm3.956,0a.961.961,0,1,1-.961-.961A.962.962,0,0,1,137.869,125.469Z" transform="translate(-122.091 -105.869)"/>
      </g>
    </g>
  </g>
</svg>
