<svg xmlns="http://www.w3.org/2000/svg" width="125" height="125" viewBox="0 0 125 125">
  <g id="Grupo_965525" data-name="Grupo 965525" transform="translate(-895 -12874)">
    <circle id="Elipse_5839" data-name="Elipse 5839" cx="62.5" cy="62.5" r="62.5" transform="translate(895 12874)" fill="#34bc85"/>
    <g id="observacion_1_" data-name="observacion (1)" transform="translate(922 12901)">
      <g id="Grupo_965335" data-name="Grupo 965335" transform="translate(6.645 6.645)">
        <g id="Grupo_965326" data-name="Grupo 965326" transform="translate(13.548 18.065)">
          <path id="Trazado_729801" data-name="Trazado 729801" d="M18,66.032v-42.9A1.132,1.132,0,0,1,19.129,22H48.484a1.132,1.132,0,0,1,1.129,1.129v42.9a1.132,1.132,0,0,1-1.129,1.129H19.129A1.132,1.132,0,0,1,18,66.032Z" transform="translate(-18 -22)" fill="#f0d0b4"/>
        </g>
        <g id="Grupo_965327" data-name="Grupo 965327" transform="translate(18.065 22.581)">
          <path id="Trazado_729802" data-name="Trazado 729802" d="M22,26H44.581v4.516H22Z" transform="translate(-22 -26)" fill="#fcd770"/>
        </g>
        <g id="Grupo_965328" data-name="Grupo 965328" transform="translate(29.355)">
          <path id="Trazado_729803" data-name="Trazado 729803" d="M61.355,19.548A37.576,37.576,0,0,1,47.806,29.811V25.194a1.132,1.132,0,0,0-1.129-1.129h-1.9A13.566,13.566,0,0,0,32,6h.429A37.691,37.691,0,0,1,61.355,19.548Z" transform="translate(-32 -6)" fill="#ccd1d9"/>
        </g>
        <g id="Grupo_965329" data-name="Grupo 965329">
          <path id="Trazado_729804" data-name="Trazado 729804" d="M34.926,6h.429A13.566,13.566,0,0,0,22.574,24.065h-1.9a1.132,1.132,0,0,0-1.129,1.129v4.618a37.993,37.993,0,0,1-7.327-4.324A37.25,37.25,0,0,1,6,19.548,37.668,37.668,0,0,1,34.926,6Z" transform="translate(-6 -6)" fill="#ccd1d9"/>
        </g>
        <g id="Grupo_965330" data-name="Grupo 965330" transform="translate(15.806)">
          <path id="Trazado_729805" data-name="Trazado 729805" d="M47.1,19.548a13.6,13.6,0,0,1-.768,4.516H41.373a8.788,8.788,0,0,0,.96-2.439,8.376,8.376,0,0,0,.248-2.077,9.032,9.032,0,1,0-16.856,4.516H20.768A13.551,13.551,0,1,1,47.1,19.548Z" transform="translate(-20 -6)" fill="#69d6f4"/>
        </g>
        <g id="Grupo_965331" data-name="Grupo 965331" transform="translate(20.323 4.516)">
          <path id="Trazado_729806" data-name="Trazado 729806" d="M32.829,14.516a3.382,3.382,0,1,0-4.313,4.313v.2a4.515,4.515,0,0,0,4.516,4.516H25.208a9.033,9.033,0,1,1,16.856-4.516,8.376,8.376,0,0,1-.248,2.077l-.023-.011a3.388,3.388,0,0,0-3.116-2.066,3.13,3.13,0,0,0-1.129.2v-.2a4.515,4.515,0,0,0-4.516-4.516H32.84Z" transform="translate(-24 -10)" fill="#3bafda"/>
        </g>
        <g id="Grupo_965332" data-name="Grupo 965332" transform="translate(24.839 9.032)">
          <path id="Trazado_729807" data-name="Trazado 729807" d="M29.129,18.516a3.383,3.383,0,0,0,3.387-3.387,3.13,3.13,0,0,0-.2-1.129h.2a4.515,4.515,0,0,1,4.516,4.516v.2A3.351,3.351,0,0,0,34.774,21.9a3.84,3.84,0,0,0,.034.508A4.521,4.521,0,0,1,28,18.516v-.2a3.13,3.13,0,0,0,1.129.2Z" transform="translate(-28 -14)" fill="#4fc1e9"/>
        </g>
        <g id="Grupo_965333" data-name="Grupo 965333" transform="translate(31.613 13.548)">
          <path id="Trazado_729808" data-name="Trazado 729808" d="M37.387,18A3.388,3.388,0,0,1,40.5,20.066l.023.011a8.788,8.788,0,0,1-.96,2.439H34.192A3.152,3.152,0,0,1,34,21.387,3.351,3.351,0,0,1,36.258,18.2,3.13,3.13,0,0,1,37.387,18Z" transform="translate(-34 -18)" fill="#e6e9ed"/>
        </g>
        <g id="Grupo_965334" data-name="Grupo 965334" transform="translate(22.581 6.774)">
          <path id="Trazado_729809" data-name="Trazado 729809" d="M32.774,15.387a3.383,3.383,0,0,1-3.387,3.387,3.13,3.13,0,0,1-1.129-.2,3.382,3.382,0,1,1,4.313-4.313A3.13,3.13,0,0,1,32.774,15.387Z" transform="translate(-26 -12)" fill="#e6e9ed"/>
        </g>
      </g>
      <g id="Grupo_965336" data-name="Grupo 965336" transform="translate(1 1)">
        <path id="Trazado_729810" data-name="Trazado 729810" d="M21,31.774H45.839V25H21Zm13.548-2.258H32.29V27.258h2.258Zm2.258-2.258h2.258v2.258H36.806Zm-6.774,2.258H27.774V27.258h2.258Zm13.548,0H41.323V27.258h2.258ZM23.258,27.258h2.258v2.258H23.258Z" transform="translate(1.581 2.097)"/>
        <path id="Trazado_729811" data-name="Trazado 729811" d="M28.664,33.889l-1.6-1.6-3.718,3.718-1.46-1.46-1.6,1.6L23.349,39.2Z" transform="translate(1.489 3.038)"/>
        <path id="Trazado_729812" data-name="Trazado 729812" d="M29,35H44.806v2.258H29Z" transform="translate(2.613 3.387)"/>
        <path id="Trazado_729813" data-name="Trazado 729813" d="M28.664,41.889l-1.6-1.6-3.718,3.718-1.46-1.46-1.6,1.6L23.349,47.2Z" transform="translate(1.489 4.07)"/>
        <path id="Trazado_729814" data-name="Trazado 729814" d="M29,43H44.806v2.258H29Z" transform="translate(2.613 4.419)"/>
        <path id="Trazado_729815" data-name="Trazado 729815" d="M27.067,48.293l-3.718,3.718-1.46-1.46-1.6,1.6L23.349,55.2l5.314-5.314Z" transform="translate(1.489 5.102)"/>
        <path id="Trazado_729816" data-name="Trazado 729816" d="M29,51H44.806v2.258H29Z" transform="translate(2.613 5.452)"/>
        <path id="Trazado_729817" data-name="Trazado 729817" d="M31,57h2.258v2.258H31Z" transform="translate(2.871 6.226)"/>
        <path id="Trazado_729818" data-name="Trazado 729818" d="M35,57h2.258v2.258H35Z" transform="translate(3.387 6.226)"/>
        <path id="Trazado_729819" data-name="Trazado 729819" d="M27,57h2.258v2.258H27Z" transform="translate(2.355 6.226)"/>
        <path id="Trazado_729820" data-name="Trazado 729820" d="M7,57H9.258v2.258H7Z" transform="translate(-0.226 6.226)"/>
        <path id="Trazado_729821" data-name="Trazado 729821" d="M55,57h2.258v2.258H55Z" transform="translate(5.968 6.226)"/>
        <path id="Trazado_729822" data-name="Trazado 729822" d="M65.745,20.4l.6-.724-.6-.724A38.682,38.682,0,0,0,35.951,5h-.857A38.681,38.681,0,0,0,5.3,18.954l-.6.724.6.724a39,39,0,0,0,13.286,10.25V68.226a2.26,2.26,0,0,0,2.258,2.258H50.2a2.26,2.26,0,0,0,2.258-2.258V30.65A39,39,0,0,0,65.745,20.4Zm-2.353-.724a36.791,36.791,0,0,1-10.934,8.47V25.323A2.26,2.26,0,0,0,50.2,23.065h-.4a14.612,14.612,0,0,0-4.929-14.7A36.4,36.4,0,0,1,63.392,19.677ZM28.4,23.065a7.7,7.7,0,0,1-.524-5.341,4.509,4.509,0,0,0,2.057,2.485,5.59,5.59,0,0,0,1.1,2.858H28.4Zm12.656-4.5a5.639,5.639,0,0,0-5-4.474,4.513,4.513,0,0,0-2.485-2.057A7.863,7.863,0,0,1,43.4,19.15a4.5,4.5,0,0,0-2.231-.6c-.038,0-.075.01-.113.011Zm-8.919-.011a2.258,2.258,0,1,1,2.258-2.258A2.26,2.26,0,0,1,32.136,18.548Zm.2,2.238a4.5,4.5,0,0,0,4.294-4.294A3.377,3.377,0,0,1,38.863,19.2a4.5,4.5,0,0,0-2.187,3.633,3.293,3.293,0,0,1-4.338-2.05Zm6.572,2.278a2.26,2.26,0,0,1,2.258-2.258,2.237,2.237,0,0,1,1.922,1.118,7.81,7.81,0,0,1-.443,1.14Zm6.774-3.387a10.161,10.161,0,1,0-19.721,3.387H23.579a12.419,12.419,0,1,1,23.888,0H45.082a10.153,10.153,0,0,0,.6-3.387Zm-27.1,5.645v2.825a36.777,36.777,0,0,1-10.934-8.47A36.4,36.4,0,0,1,26.178,8.369a14.612,14.612,0,0,0-4.929,14.7h-.4A2.26,2.26,0,0,0,18.587,25.323Zm2.258,42.9v-42.9H50.2v42.9Z" transform="translate(-0.523 -0.484)"/>
        <path id="Trazado_729823" data-name="Trazado 729823" d="M6.344,13.838a45.649,45.649,0,0,1,58.445,0l.539.448,1.446-1.733-.539-.449A47.907,47.907,0,0,0,4.9,12.1l-.539.448,1.446,1.733Z" transform="translate(-0.567 -1)"/>
        <path id="Trazado_729824" data-name="Trazado 729824" d="M8.9,33A7.913,7.913,0,0,0,1,40.9v1.129H3.258V40.9A5.645,5.645,0,1,1,8.9,46.548H7.774v11.29h2.258V48.726A7.9,7.9,0,0,0,8.9,33Z" transform="translate(-1 3.129)"/>
        <path id="Trazado_729825" data-name="Trazado 729825" d="M56.9,33A7.913,7.913,0,0,0,49,40.9v1.129h2.258V40.9A5.645,5.645,0,1,1,56.9,46.548H55.774v11.29h2.258V48.726A7.9,7.9,0,0,0,56.9,33Z" transform="translate(5.194 3.129)"/>
      </g>
    </g>
  </g>
</svg>
