<svg xmlns="http://www.w3.org/2000/svg" width="112" height="111.905" viewBox="0 0 112 111.905">
  <g id="encuesta" transform="translate(-192.961 -49)">
    <g id="Grupo_965348" data-name="Grupo 965348" transform="translate(251.346 107.385)">
      <circle id="Elipse_5883" data-name="Elipse 5883" cx="2.5" cy="2.5" r="2.5" transform="translate(-0.385 -0.48)" fill="#12263f"/>
    </g>
    <g id="Grupo_965349" data-name="Grupo 965349" transform="translate(227.02 73.328)">
      <path id="Trazado_729877" data-name="Trazado 729877" d="M63.712,142.017l4.865,4.865a2.43,2.43,0,0,0,3.44,0l9.731-9.731a2.432,2.432,0,0,0-3.44-3.44L70.3,141.723l-3.145-3.146a2.432,2.432,0,0,0-3.44,3.44Z" transform="translate(-63.001 -133)" fill="#12263f" fill-rule="evenodd"/>
    </g>
    <g id="Grupo_965350" data-name="Grupo 965350" transform="translate(227.02 97.656)">
      <path id="Trazado_729878" data-name="Trazado 729878" d="M63.712,142.017l4.865,4.865a2.43,2.43,0,0,0,3.44,0l9.731-9.731a2.432,2.432,0,0,0-3.44-3.44L70.3,141.723l-3.145-3.146a2.432,2.432,0,0,0-3.44,3.44Z" transform="translate(-63.001 -133)" fill="#12263f" fill-rule="evenodd"/>
    </g>
    <g id="Grupo_965351" data-name="Grupo 965351" transform="translate(251.346 73.327)">
      <path id="Trazado_729879" data-name="Trazado 729879" d="M75.433,139.865H99.76a2.433,2.433,0,1,0,0-4.865H75.433a2.433,2.433,0,1,0,0,4.865Z" transform="translate(-73 -135)" fill="#12263f" fill-rule="evenodd"/>
    </g>
    <g id="Grupo_965352" data-name="Grupo 965352" transform="translate(251.346 97.654)">
      <path id="Trazado_729880" data-name="Trazado 729880" d="M75.433,139.865h9.826a2.433,2.433,0,1,0,0-4.865H75.433a2.433,2.433,0,1,0,0,4.865Z" transform="translate(-73 -135)" fill="#12263f" fill-rule="evenodd"/>
    </g>
    <g id="Grupo_965353" data-name="Grupo 965353" transform="translate(251.346 83.058)">
      <path id="Trazado_729881" data-name="Trazado 729881" d="M75.433,143.865h14.6a2.433,2.433,0,1,0,0-4.865h-14.6a2.433,2.433,0,1,0,0,4.865Z" transform="translate(-73 -139)" fill="#12263f" fill-rule="evenodd"/>
    </g>
    <g id="Grupo_965354" data-name="Grupo 965354" transform="translate(212.423 58.731)">
      <path id="Trazado_729882" data-name="Trazado 729882" d="M61.865,166.356V131.082a1.213,1.213,0,0,1,1.216-1.216h6.177a2.433,2.433,0,0,0,0-4.865H63.082A6.08,6.08,0,0,0,57,131.082v35.274a2.433,2.433,0,0,0,4.865,0Z" transform="translate(-57 -125)" fill="#12263f" fill-rule="evenodd"/>
    </g>
    <path id="Trazado_729883" data-name="Trazado 729883" d="M238.1,58.731V56.3a7.3,7.3,0,0,0-14.6,0v2.433H211.433a2.433,2.433,0,0,0,0,4.865h54.641a1.217,1.217,0,0,1,1.216,1.216l.095,10.969a2.433,2.433,0,1,0,4.865-.044l-.095-10.947a6.084,6.084,0,0,0-6.082-6.06ZM233.232,56.3a2.433,2.433,0,1,0-4.865,0v2.433h4.865Z" transform="translate(22.979)" fill="#12263f" fill-rule="evenodd"/>
    <g id="Grupo_965355" data-name="Grupo 965355" transform="translate(241.71 136.578)">
      <path id="Trazado_729884" data-name="Trazado 729884" d="M117.693,159.418l-.095,15.827a1.213,1.213,0,0,1-1.216,1.216H71.472a2.433,2.433,0,1,0,0,4.865h44.91a6.08,6.08,0,0,0,6.082-6.082c0,.015.095-15.8.095-15.8a2.433,2.433,0,0,0-4.865-.029Z" transform="translate(-69.039 -157)" fill="#12263f" fill-rule="evenodd"/>
    </g>
    <path id="Trazado_729885" data-name="Trazado 729885" d="M203.113,102.358a12.166,12.166,0,0,0-10.152,12v6.082a6.081,6.081,0,0,0,6.082,6.082h31.625a6.082,6.082,0,0,0,6.082-6.082v-6.082a12.168,12.168,0,0,0-10.154-12,17.028,17.028,0,1,0-23.483,0Zm23.906,19.3h3.649a1.217,1.217,0,0,0,1.216-1.216v-6.082a7.3,7.3,0,0,0-7.3-7.3H205.125a7.3,7.3,0,0,0-7.3,7.3v6.082a1.217,1.217,0,0,0,1.216,1.216h3.649v-7.3a2.433,2.433,0,1,1,4.865,0v7.3h14.6v-7.3a2.433,2.433,0,1,1,4.865,0ZM214.855,77.865a12.164,12.164,0,1,1-12.164,12.164A12.17,12.17,0,0,1,214.855,77.865Z" transform="translate(0 34.385)" fill="#12263f" fill-rule="evenodd"/>
    <path id="Trazado_729886" data-name="Trazado 729886" d="M261.212,64.781c-2.8,2.8-47.445,47.689-47.445,47.689a2.427,2.427,0,0,0-.705,1.713v9.731a2.431,2.431,0,0,0,2.433,2.433h9.731a2.432,2.432,0,0,0,1.725-.718s22.31-22.456,37.092-37.3l.671.671a1.219,1.219,0,0,1,0,1.72l-9.437,9.437a6.082,6.082,0,0,0,0,8.6c1.165,1.165,2.287,2.284,2.287,2.284A2.432,2.432,0,0,0,261,107.6l-2.287-2.284a1.219,1.219,0,0,1,0-1.72l9.436-9.437a6.082,6.082,0,0,0,0-8.6l-.676-.679c2.849-2.861,5.25-5.267,6.906-6.926a6.082,6.082,0,0,0,0-8.6l-4.571-4.571A6.082,6.082,0,0,0,261.212,64.781ZM249.554,83.372l6.291,6.291c-12.679,12.743-28.161,28.324-31.633,31.818h-6.286v-6.293C221.383,111.705,236.868,96.121,249.554,83.372Zm9.724,2.841-6.291-6.289c4.924-4.946,9.149-9.188,11.665-11.7a1.217,1.217,0,0,1,1.72,0l4.571,4.571a1.217,1.217,0,0,1,0,1.72C268.425,77.027,264.2,81.27,259.278,86.213Z" transform="translate(28.798 20.058)" fill="#12263f" fill-rule="evenodd"/>
  </g>
</svg>
