<svg xmlns="http://www.w3.org/2000/svg" width="101" height="101" viewBox="0 0 101 101">
  <path id="objetivo" d="M58.051,23.007A28.471,28.471,0,1,0,77.992,42.948,3.156,3.156,0,0,1,84.08,41.28a34.784,34.784,0,1,1-24.36-24.36,3.156,3.156,0,0,1-1.669,6.088ZM95.007,34.016a3.156,3.156,0,0,0-2.13,3.922A44.141,44.141,0,1,1,63.06,8.123,3.156,3.156,0,1,0,64.852,2.07,50.454,50.454,0,1,0,98.929,36.146a3.157,3.157,0,0,0-3.922-2.13ZM50.5,37.875a12.829,12.829,0,0,1,1.393.076,3.156,3.156,0,0,0,.688-6.275A18.938,18.938,0,1,0,69.437,50.5a3.156,3.156,0,0,0-6.313,0A12.625,12.625,0,1,1,50.5,37.875Zm16.115-7.954L68.188,14.15a3.155,3.155,0,0,1,.909-1.919L80.4.924a3.156,3.156,0,0,1,5.378,1.985l.9,11.412,11.412.9a3.156,3.156,0,0,1,1.985,5.378L88.768,31.9a3.155,3.155,0,0,1-1.919.909l-15.77,1.573L52.732,52.731a3.156,3.156,0,0,1-4.464-4.464Zm6.552-2.088L85.1,26.642l5.668-5.668L83.5,20.4a3.157,3.157,0,0,1-2.9-2.9l-.571-7.273L74.357,15.9Z" transform="translate(0 0)" fill="#12263f"/>
</svg>
