<svg xmlns="http://www.w3.org/2000/svg" width="295" height="107" viewBox="0 0 295 107">
  <g id="Grupo_965526" data-name="Grupo 965526" transform="translate(-1125 -19227)">
    <path id="Trazado_730163" data-name="Trazado 730163" d="M0,0H250V107H0Z" transform="translate(1170 19227)" fill="#ecf7f4"/>
    <path id="Trazado_730164" data-name="Trazado 730164" d="M45,0A45,45,0,1,1,0,45,45,45,0,0,1,45,0Z" transform="translate(1125 19236)" fill="#34bc85"/>
    <path id="Trazado_730165" data-name="Trazado 730165" d="M12.859,5.625l3.719,9.281L20.3,5.625h1.945V17h-1.5V12.57l.141-4.781L17.148,17H16L12.273,7.813l.148,4.758V17h-1.5V5.625ZM29.883,17a3.036,3.036,0,0,1-.2-.891,3.225,3.225,0,0,1-2.406,1.047,2.984,2.984,0,0,1-2.051-.707,2.287,2.287,0,0,1-.8-1.793,2.39,2.39,0,0,1,1-2.051,4.733,4.733,0,0,1,2.824-.73h1.406v-.664A1.623,1.623,0,0,0,29.2,10a1.821,1.821,0,0,0-1.336-.449,2.107,2.107,0,0,0-1.3.391,1.151,1.151,0,0,0-.523.945H24.594a2,2,0,0,1,.449-1.223,3.066,3.066,0,0,1,1.219-.934,4.1,4.1,0,0,1,1.691-.344,3.342,3.342,0,0,1,2.289.73,2.635,2.635,0,0,1,.859,2.012v3.891a4.757,4.757,0,0,0,.3,1.852V17Zm-2.4-1.1a2.54,2.54,0,0,0,1.289-.352,2.127,2.127,0,0,0,.883-.914V12.9H28.523q-2.656,0-2.656,1.555a1.316,1.316,0,0,0,.453,1.063A1.742,1.742,0,0,0,27.484,15.9Zm7.25-7.352.047,1.063a3.08,3.08,0,0,1,2.531-1.219q2.68,0,2.7,3.023V17H38.57V11.406a1.946,1.946,0,0,0-.418-1.352,1.675,1.675,0,0,0-1.277-.437,2.086,2.086,0,0,0-1.234.375,2.546,2.546,0,0,0-.828.984V17H33.367V8.547ZM45.7,17.156a3.693,3.693,0,0,1-2.8-1.129,4.19,4.19,0,0,1-1.078-3.02v-.266a5.073,5.073,0,0,1,.48-2.246,3.748,3.748,0,0,1,1.344-1.547,3.378,3.378,0,0,1,1.871-.559,3.166,3.166,0,0,1,2.563,1.086A4.7,4.7,0,0,1,49,12.586v.6H43.273a3,3,0,0,0,.73,2.02,2.3,2.3,0,0,0,1.777.77,2.517,2.517,0,0,0,1.3-.312,3.259,3.259,0,0,0,.93-.828l.883.688A3.55,3.55,0,0,1,45.7,17.156Zm-.18-7.578a1.928,1.928,0,0,0-1.469.637A3.1,3.1,0,0,0,43.32,12h4.234v-.109a2.753,2.753,0,0,0-.594-1.707A1.815,1.815,0,0,0,45.523,9.578Zm6.641-1.031v9.43q0,2.438-2.211,2.438a2.7,2.7,0,0,1-.883-.14V19.125a2.794,2.794,0,0,0,.656.063.982.982,0,0,0,.738-.262,1.3,1.3,0,0,0,.254-.911V8.547ZM50.57,6.3a.867.867,0,0,1,.215-.59.79.79,0,0,1,.629-.246.819.819,0,0,1,.641.242.854.854,0,0,1,.219.594.826.826,0,0,1-.219.586.834.834,0,0,1-.641.234.808.808,0,0,1-.633-.234A.843.843,0,0,1,50.57,6.3ZM54.109,12.7a4.993,4.993,0,0,1,.488-2.234A3.643,3.643,0,0,1,55.957,8.93a3.7,3.7,0,0,1,1.988-.539,3.565,3.565,0,0,1,2.793,1.2,4.6,4.6,0,0,1,1.066,3.18v.1a5.036,5.036,0,0,1-.473,2.215,3.589,3.589,0,0,1-1.352,1.527,3.743,3.743,0,0,1-2.02.547,3.556,3.556,0,0,1-2.785-1.2A4.575,4.575,0,0,1,54.109,12.8Zm1.453.172a3.616,3.616,0,0,0,.652,2.258,2.211,2.211,0,0,0,3.5-.012,3.955,3.955,0,0,0,.648-2.418,3.61,3.61,0,0,0-.66-2.254,2.1,2.1,0,0,0-1.754-.863,2.075,2.075,0,0,0-1.727.852A3.925,3.925,0,0,0,55.563,12.867ZM67.227,12.7a4.952,4.952,0,0,1,.922-3.129,3.137,3.137,0,0,1,4.766-.168V5h1.445V17H73.031l-.07-.906a2.943,2.943,0,0,1-2.414,1.063,2.887,2.887,0,0,1-2.395-1.2,5.008,5.008,0,0,1-.926-3.141Zm1.445.164a3.749,3.749,0,0,0,.594,2.25,1.92,1.92,0,0,0,1.641.813A2.108,2.108,0,0,0,72.914,14.7V10.813a2.125,2.125,0,0,0-1.992-1.2,1.929,1.929,0,0,0-1.656.82A4.128,4.128,0,0,0,68.672,12.867Zm11.438,4.289a3.693,3.693,0,0,1-2.8-1.129,4.19,4.19,0,0,1-1.078-3.02v-.266a5.073,5.073,0,0,1,.48-2.246,3.748,3.748,0,0,1,1.344-1.547,3.378,3.378,0,0,1,1.871-.559,3.166,3.166,0,0,1,2.563,1.086,4.7,4.7,0,0,1,.914,3.109v.6H77.68a3,3,0,0,0,.73,2.02,2.3,2.3,0,0,0,1.777.77,2.517,2.517,0,0,0,1.3-.312,3.259,3.259,0,0,0,.93-.828l.883.688A3.55,3.55,0,0,1,80.109,17.156Zm-.18-7.578a1.928,1.928,0,0,0-1.469.637A3.1,3.1,0,0,0,77.727,12h4.234v-.109a2.753,2.753,0,0,0-.594-1.707A1.815,1.815,0,0,0,79.93,9.578Zm13.2.266a4.331,4.331,0,0,0-.711-.055A1.9,1.9,0,0,0,90.484,11v6H89.039V8.547h1.406l.023.977a2.251,2.251,0,0,1,2.016-1.133,1.477,1.477,0,0,1,.641.109Zm4.836,7.313a3.693,3.693,0,0,1-2.8-1.129,4.19,4.19,0,0,1-1.078-3.02v-.266a5.073,5.073,0,0,1,.48-2.246A3.748,3.748,0,0,1,95.91,8.949a3.378,3.378,0,0,1,1.871-.559,3.166,3.166,0,0,1,2.563,1.086,4.7,4.7,0,0,1,.914,3.109v.6H95.531a3,3,0,0,0,.73,2.02,2.3,2.3,0,0,0,1.777.77,2.517,2.517,0,0,0,1.3-.312,3.259,3.259,0,0,0,.93-.828l.883.688A3.55,3.55,0,0,1,97.961,17.156Zm-.18-7.578a1.928,1.928,0,0,0-1.469.637A3.1,3.1,0,0,0,95.578,12h4.234v-.109a2.753,2.753,0,0,0-.594-1.707A1.815,1.815,0,0,0,97.781,9.578Zm10.07,5.18a1.064,1.064,0,0,0-.441-.91,4.249,4.249,0,0,0-1.539-.559,7.277,7.277,0,0,1-1.742-.562,2.479,2.479,0,0,1-.953-.781,1.869,1.869,0,0,1-.309-1.078,2.193,2.193,0,0,1,.879-1.758,3.432,3.432,0,0,1,2.246-.719,3.532,3.532,0,0,1,2.332.742,2.357,2.357,0,0,1,.895,1.9h-1.453a1.3,1.3,0,0,0-.5-1.023,1.888,1.888,0,0,0-1.27-.43,1.976,1.976,0,0,0-1.234.344,1.082,1.082,0,0,0-.445.9.877.877,0,0,0,.414.789,5.1,5.1,0,0,0,1.5.508,7.8,7.8,0,0,1,1.754.578,2.558,2.558,0,0,1,1,.809,1.988,1.988,0,0,1,.324,1.152,2.163,2.163,0,0,1-.906,1.816,3.8,3.8,0,0,1-2.352.684,4.257,4.257,0,0,1-1.8-.359,2.922,2.922,0,0,1-1.223-1,2.42,2.42,0,0,1-.441-1.395h1.445a1.5,1.5,0,0,0,.582,1.152,2.258,2.258,0,0,0,1.434.426,2.331,2.331,0,0,0,1.316-.332A1.02,1.02,0,0,0,107.852,14.758ZM112.75,17H111.3V8.547h1.445ZM111.188,6.3a.863.863,0,0,1,.215-.594.807.807,0,0,1,.637-.242.819.819,0,0,1,.641.242.854.854,0,0,1,.219.594.826.826,0,0,1-.219.586.834.834,0,0,1-.641.234.821.821,0,0,1-.637-.234A.834.834,0,0,1,111.188,6.3Zm3.523,6.4a4.952,4.952,0,0,1,.922-3.129,3.137,3.137,0,0,1,4.766-.168V5h1.445V17h-1.328l-.07-.906a2.943,2.943,0,0,1-2.414,1.063,2.887,2.887,0,0,1-2.395-1.2,5.008,5.008,0,0,1-.926-3.141Zm1.445.164a3.749,3.749,0,0,0,.594,2.25,1.92,1.92,0,0,0,1.641.813A2.108,2.108,0,0,0,120.4,14.7V10.813a2.125,2.125,0,0,0-1.992-1.2,1.929,1.929,0,0,0-1.656.82A4.128,4.128,0,0,0,116.156,12.867Zm13.148,3.3a3.07,3.07,0,0,1-2.477.992,2.628,2.628,0,0,1-2.059-.785,3.4,3.4,0,0,1-.715-2.324v-5.5H125.5v5.461q0,1.922,1.563,1.922a2.163,2.163,0,0,0,2.2-1.234V8.547h1.445V17h-1.375Zm3.219-3.469a4.993,4.993,0,0,1,.488-2.234,3.642,3.642,0,0,1,1.359-1.531,3.7,3.7,0,0,1,1.988-.539,3.565,3.565,0,0,1,2.793,1.2,4.6,4.6,0,0,1,1.066,3.18v.1a5.036,5.036,0,0,1-.473,2.215,3.589,3.589,0,0,1-1.352,1.527,3.743,3.743,0,0,1-2.02.547,3.556,3.556,0,0,1-2.785-1.2,4.575,4.575,0,0,1-1.066-3.164Zm1.453.172a3.616,3.616,0,0,0,.652,2.258,2.211,2.211,0,0,0,3.5-.012,3.954,3.954,0,0,0,.648-2.418,3.61,3.61,0,0,0-.66-2.254,2.1,2.1,0,0,0-1.754-.863,2.075,2.075,0,0,0-1.727.852A3.925,3.925,0,0,0,133.977,12.867Zm12.977,1.891a1.064,1.064,0,0,0-.441-.91,4.249,4.249,0,0,0-1.539-.559,7.277,7.277,0,0,1-1.742-.562,2.479,2.479,0,0,1-.953-.781,1.869,1.869,0,0,1-.309-1.078,2.193,2.193,0,0,1,.879-1.758,3.432,3.432,0,0,1,2.246-.719,3.532,3.532,0,0,1,2.332.742,2.357,2.357,0,0,1,.895,1.9h-1.453a1.3,1.3,0,0,0-.5-1.023,1.888,1.888,0,0,0-1.27-.43,1.976,1.976,0,0,0-1.234.344,1.082,1.082,0,0,0-.445.9.877.877,0,0,0,.414.789,5.1,5.1,0,0,0,1.5.508,7.8,7.8,0,0,1,1.754.578,2.558,2.558,0,0,1,1,.809,1.988,1.988,0,0,1,.324,1.152,2.163,2.163,0,0,1-.906,1.816,3.8,3.8,0,0,1-2.352.684,4.257,4.257,0,0,1-1.8-.359,2.922,2.922,0,0,1-1.223-1,2.42,2.42,0,0,1-.441-1.395h1.445a1.5,1.5,0,0,0,.582,1.152,2.258,2.258,0,0,0,1.434.426,2.331,2.331,0,0,0,1.316-.332A1.02,1.02,0,0,0,146.953,14.758Zm3.359,1.484a.905.905,0,0,1,.223-.625.848.848,0,0,1,.668-.25.874.874,0,0,1,.676.25.887.887,0,0,1,.23.625.839.839,0,0,1-.23.6.89.89,0,0,1-.676.242.8.8,0,0,1-.891-.844Z" transform="translate(1230 19268)" fill="#12263f"/>
    <g id="adolescente" transform="translate(1090.887 19252)">
      <g id="Grupo_965371" data-name="Grupo 965371" transform="translate(56.958 0.845)">
        <path id="Trazado_729941" data-name="Trazado 729941" d="M199.887,256h12.648v16.262H199.887Z" transform="translate(-184.529 -227.994)" fill="#e2a975"/>
        <path id="Trazado_729942" data-name="Trazado 729942" d="M229.356,404.922h-3.614l-1.807-12.648h7.228Z" transform="translate(-205.866 -348.909)" fill="#f4dbb3"/>
        <path id="Trazado_729943" data-name="Trazado 729943" d="M73.551,328.145l-5.775,2.1a6.324,6.324,0,0,0-4.163,5.943V348.02H83.488v-9.034Z" transform="translate(-63.613 -292.008)" fill="#ff8086"/>
        <path id="Trazado_729944" data-name="Trazado 729944" d="M199.887,260.852a14.321,14.321,0,0,0,12.648,0V256H199.887Z" transform="translate(-184.529 -227.994)" fill="#d19a6e"/>
        <path id="Trazado_729945" data-name="Trazado 729945" d="M148.184,109.114h-1.355v-5.421H123.34v5.421h-.9c-1.247,0-2.71,1.011-2.71,2.259a2.259,2.259,0,0,0,2.259,2.259h1.4a11.733,11.733,0,0,0,23.4,0h1.4a2.259,2.259,0,0,0,0-4.517Z" transform="translate(-113.402 -92.852)" fill="#ecbd83"/>
        <path id="Trazado_729946" data-name="Trazado 729946" d="M126.953,112.728v-9.034H123.34v5.421h-1.355a2.259,2.259,0,0,0,0,4.517h1.4A11.661,11.661,0,0,0,136.9,124.321a11.737,11.737,0,0,1-9.943-11.592Z" transform="translate(-113.402 -92.853)" fill="#e2a975"/>
        <path id="Trazado_729947" data-name="Trazado 729947" d="M151.79,87.661l3.616,6.869a21.08,21.08,0,0,0,9.935-5.062l.9,3.614s4.517-.9,7.227-3.614v3.614a1.807,1.807,0,0,0,1.807,1.807h1.807V87.661Z" transform="translate(-141.852 -78.627)" fill="#6e4848"/>
        <path id="Trazado_729948" data-name="Trazado 729948" d="M141.179,87.661h-3.614l-1.807,1.807v5.324a17.713,17.713,0,0,0,5.421-.274Z" transform="translate(-127.627 -78.627)" fill="#643c3e"/>
        <path id="Trazado_729949" data-name="Trazado 729949" d="M153.827,7.5h-9.034a9.034,9.034,0,0,0-9.034,9.034v1.807h27.1V16.534A9.034,9.034,0,0,0,153.827,7.5Z" transform="translate(-127.628 -7.5)" fill="#ff8086"/>
        <path id="Trazado_729950" data-name="Trazado 729950" d="M161.728,321.414a2.719,2.719,0,0,0-1.011-2.105,17.621,17.621,0,0,1-4.044-4.663.9.9,0,0,0-1.116-.385l-3.767,1.507a27.851,27.851,0,0,0,9.938,10.7v-5.05Z" transform="translate(-141.852 -279.631)" fill="#f5ebcd"/>
        <path id="Trazado_729951" data-name="Trazado 729951" d="M150.213,7.5h-5.421a9.034,9.034,0,0,0-9.034,9.034v1.807h5.421V16.534A9.034,9.034,0,0,1,150.213,7.5Z" transform="translate(-127.627 -7.5)" fill="#e5646e"/>
        <path id="Trazado_729952" data-name="Trazado 729952" d="M326.272,71.629h-4.336a1.807,1.807,0,0,0-1.807,1.807v1.807h6.324V73.436A9.081,9.081,0,0,0,326.272,71.629Z" transform="translate(-291.22 -64.402)" fill="#e5646e"/>
        <path id="Trazado_729953" data-name="Trazado 729953" d="M281.97,328.145l5.775,2.1a6.324,6.324,0,0,1,4.163,5.943V348.02H272.032v-9.034Z" transform="translate(-248.543 -292.008)" fill="#ff8086"/>
        <path id="Trazado_729954" data-name="Trazado 729954" d="M272.032,321.414a2.719,2.719,0,0,1,1.011-2.105,17.622,17.622,0,0,0,4.044-4.663.9.9,0,0,1,1.116-.385l3.767,1.507a27.851,27.851,0,0,1-9.938,10.7v-5.05Z" transform="translate(-248.543 -279.631)" fill="#f5ebcd"/>
      </g>
      <g id="Grupo_965372" data-name="Grupo 965372" transform="translate(56.113 0)">
        <path id="Trazado_729955" data-name="Trazado 729955" d="M210.11,154.055v-.9a.845.845,0,0,0-1.691,0v.9a.845.845,0,0,0,1.691,0Z" transform="translate(-191.254 -135.141)"/>
        <path id="Trazado_729956" data-name="Trazado 729956" d="M289.426,154.9a.845.845,0,0,0,.845-.845v-.9a.845.845,0,1,0-1.691,0v.9A.845.845,0,0,0,289.426,154.9Z" transform="translate(-262.382 -135.141)"/>
        <path id="Trazado_729957" data-name="Trazado 729957" d="M121.087,440.887a.845.845,0,0,0-.845.845v6.324a.845.845,0,0,0,1.691,0v-6.324A.845.845,0,0,0,121.087,440.887Z" transform="translate(-113.015 -391.198)"/>
        <path id="Trazado_729958" data-name="Trazado 729958" d="M96.449,38.288l-5.762-2.1-3.755-1.5a1.744,1.744,0,0,0-1.122-.062V31.063a12.608,12.608,0,0,0,5.3-8.594h.5a3.2,3.2,0,0,0,3.217-2.787,3.1,3.1,0,0,0-1.791-3.135V9.88A9.891,9.891,0,0,0,83.158,0H74.124a9.891,9.891,0,0,0-9.88,9.88v.962H57.862a.845.845,0,1,0,0,1.691h6.383v.962a.845.845,0,1,0,1.691,0v-.962H77.8a22.874,22.874,0,0,1-11.81,3.73H65.67a3.2,3.2,0,0,0-3.217,2.787,3.1,3.1,0,0,0,3.088,3.421h.631a12.6,12.6,0,0,0,5.3,8.6v3.564a1.744,1.744,0,0,0-1.122.062l-3.755,1.5-5.762,2.1a7.191,7.191,0,0,0-4.719,6.738V56.858a.845.845,0,0,0,1.691,0V45.026a5.5,5.5,0,0,1,3.606-5.149l5.074-1.845a29.135,29.135,0,0,0,9.5,10.11v8.717a.845.845,0,0,0,1.691,0v-11.8H79.6v11.8a.845.845,0,0,0,1.691,0V48.141A29.4,29.4,0,0,0,87.8,42.359a.845.845,0,0,0-1.3-1.086A27.849,27.849,0,0,1,81.293,46.1V42.629a1.865,1.865,0,0,1,.7-1.449,18.376,18.376,0,0,0,4.241-4.895.056.056,0,0,1,.071-.025l2.9,1.159c-.144.256-.327.567-.55.919a.845.845,0,0,0,1.43.9c.3-.484.541-.894.714-1.209l5.076,1.846a5.5,5.5,0,0,1,3.606,5.149V56.858a.845.845,0,0,0,1.691,0V45.026A7.192,7.192,0,0,0,96.449,38.288ZM91.347,9.88v.962H86.713V9.88a.963.963,0,0,1,.962-.962h3.614A8.233,8.233,0,0,1,91.347,9.88Zm-6.035,2.652a15.428,15.428,0,0,1-3.36,1.691l-.423-1.691Zm4.111,0h1.923v3.73h-.962a.963.963,0,0,1-.962-.962ZM65.935,9.88a8.2,8.2,0,0,1,8.189-8.189h9.034A8.2,8.2,0,0,1,90.9,7.227H87.675A2.655,2.655,0,0,0,85.023,9.88v.962H65.935Zm1.807,10.841a.845.845,0,1,0-1.691,0v.058h-.51a1.414,1.414,0,0,1-1.406-1.562,1.5,1.5,0,0,1,1.535-1.265h.323A24.948,24.948,0,0,0,79.94,13.143l.591,2.362a.844.844,0,0,0,1.025.615,16.189,16.189,0,0,0,6.177-3.327V15.3a2.655,2.655,0,0,0,2.652,2.652h1.355a1.414,1.414,0,0,1,1.406,1.562,1.5,1.5,0,0,1-1.535,1.265H91.23v-.049a.845.845,0,0,0-.845-.845h0a.845.845,0,0,0-.845.845,10.9,10.9,0,0,1-21.8-.008Zm.341,16.7,2.9-1.158a.056.056,0,0,1,.071.025A18.375,18.375,0,0,0,75.29,41.18a1.865,1.865,0,0,1,.7,1.45V46.1A27.953,27.953,0,0,1,68.082,37.418Zm12.843,2.449A3.549,3.549,0,0,0,79.6,42.629v.735H77.679v-.735a3.549,3.549,0,0,0-1.323-2.762,17.276,17.276,0,0,1-3.194-3.422V32.054a12.572,12.572,0,0,0,10.958,0v4.392A17.281,17.281,0,0,1,80.925,39.868Z" transform="translate(-56.113 0)"/>
        <path id="Trazado_729959" data-name="Trazado 729959" d="M377.6,440.887a.845.845,0,0,0-.845.845v6.324a.845.845,0,0,0,1.691,0v-6.324A.845.845,0,0,0,377.6,440.887Z" transform="translate(-340.621 -391.198)"/>
        <path id="Trazado_729960" data-name="Trazado 729960" d="M226.22,209.986a.845.845,0,1,0-.879-1.444,6.115,6.115,0,0,1-5.978,0,.845.845,0,1,0-.879,1.444,7.8,7.8,0,0,0,7.735,0Z" transform="translate(-199.825 -184.929)"/>
      </g>
    </g>
  </g>
</svg>
