<svg xmlns="http://www.w3.org/2000/svg" width="295" height="107" viewBox="0 0 295 107">
  <g id="Grupo_965529" data-name="Grupo 965529" transform="translate(-810 -19358)">
    <path id="Trazado_730172" data-name="Trazado 730172" d="M0,0H250V107H0Z" transform="translate(855 19358)" fill="#ecf7f4"/>
    <path id="Trazado_730174" data-name="Trazado 730174" d="M45,0A45,45,0,1,1,0,45,45,45,0,0,1,45,0Z" transform="translate(810 19367)" fill="#34bc85"/>
    <path id="Trazado_730173" data-name="Trazado 730173" d="M54.77,17H53.262L47.535,8.234V17H46.027V5.625h1.508l5.742,8.8v-8.8H54.77Zm4.008,0H57.332V8.547h1.445ZM57.215,6.3a.863.863,0,0,1,.215-.594.807.807,0,0,1,.637-.242.819.819,0,0,1,.641.242.854.854,0,0,1,.219.594.826.826,0,0,1-.219.586.834.834,0,0,1-.641.234.821.821,0,0,1-.637-.234A.834.834,0,0,1,57.215,6.3Zm6.664,8.734,2.094-6.492h1.477L64.418,17h-1.1L60.254,8.547H61.73Zm8.469,2.117a3.693,3.693,0,0,1-2.8-1.129,4.19,4.19,0,0,1-1.078-3.02v-.266a5.073,5.073,0,0,1,.48-2.246A3.748,3.748,0,0,1,70.3,8.949a3.378,3.378,0,0,1,1.871-.559A3.166,3.166,0,0,1,74.73,9.477a4.7,4.7,0,0,1,.914,3.109v.6H69.918a3,3,0,0,0,.73,2.02,2.3,2.3,0,0,0,1.777.77,2.517,2.517,0,0,0,1.3-.312,3.259,3.259,0,0,0,.93-.828l.883.688A3.55,3.55,0,0,1,72.348,17.156Zm-.18-7.578a1.928,1.928,0,0,0-1.469.637A3.1,3.1,0,0,0,69.965,12H74.2v-.109a2.753,2.753,0,0,0-.594-1.707A1.815,1.815,0,0,0,72.168,9.578ZM78.887,17H77.441V5h1.445Zm5.82.156a3.693,3.693,0,0,1-2.8-1.129,4.19,4.19,0,0,1-1.078-3.02v-.266a5.073,5.073,0,0,1,.48-2.246,3.748,3.748,0,0,1,1.344-1.547,3.378,3.378,0,0,1,1.871-.559A3.166,3.166,0,0,1,87.09,9.477,4.7,4.7,0,0,1,88,12.586v.6H82.277a3,3,0,0,0,.73,2.02,2.3,2.3,0,0,0,1.777.77,2.517,2.517,0,0,0,1.3-.312,3.259,3.259,0,0,0,.93-.828l.883.688A3.55,3.55,0,0,1,84.707,17.156Zm-.18-7.578a1.928,1.928,0,0,0-1.469.637A3.1,3.1,0,0,0,82.324,12h4.234v-.109a2.753,2.753,0,0,0-.594-1.707A1.815,1.815,0,0,0,84.527,9.578Zm10.07,5.18a1.064,1.064,0,0,0-.441-.91,4.249,4.249,0,0,0-1.539-.559,7.277,7.277,0,0,1-1.742-.562,2.479,2.479,0,0,1-.953-.781,1.869,1.869,0,0,1-.309-1.078,2.193,2.193,0,0,1,.879-1.758,3.432,3.432,0,0,1,2.246-.719,3.532,3.532,0,0,1,2.332.742,2.357,2.357,0,0,1,.895,1.9H94.512a1.3,1.3,0,0,0-.5-1.023,1.888,1.888,0,0,0-1.27-.43,1.976,1.976,0,0,0-1.234.344,1.082,1.082,0,0,0-.445.9.877.877,0,0,0,.414.789,5.1,5.1,0,0,0,1.5.508,7.8,7.8,0,0,1,1.754.578,2.558,2.558,0,0,1,1,.809,1.988,1.988,0,0,1,.324,1.152,2.163,2.163,0,0,1-.906,1.816,3.8,3.8,0,0,1-2.352.684,4.257,4.257,0,0,1-1.8-.359,2.922,2.922,0,0,1-1.223-1,2.42,2.42,0,0,1-.441-1.395H90.77a1.5,1.5,0,0,0,.582,1.152,2.258,2.258,0,0,0,1.434.426,2.331,2.331,0,0,0,1.316-.332A1.02,1.02,0,0,0,94.6,14.758Zm6.938-2.055a4.952,4.952,0,0,1,.922-3.129,3.137,3.137,0,0,1,4.766-.168V5h1.445V17H107.34l-.07-.906a2.943,2.943,0,0,1-2.414,1.063,2.887,2.887,0,0,1-2.395-1.2,5.008,5.008,0,0,1-.926-3.141Zm1.445.164a3.749,3.749,0,0,0,.594,2.25,1.92,1.92,0,0,0,1.641.813,2.108,2.108,0,0,0,2.008-1.234V10.813a2.125,2.125,0,0,0-1.992-1.2,1.929,1.929,0,0,0-1.656.82A4.128,4.128,0,0,0,102.98,12.867Zm11.438,4.289a3.693,3.693,0,0,1-2.8-1.129,4.19,4.19,0,0,1-1.078-3.02v-.266a5.073,5.073,0,0,1,.48-2.246,3.748,3.748,0,0,1,1.344-1.547,3.378,3.378,0,0,1,1.871-.559A3.166,3.166,0,0,1,116.8,9.477a4.7,4.7,0,0,1,.914,3.109v.6h-5.727a3,3,0,0,0,.73,2.02,2.3,2.3,0,0,0,1.777.77,2.517,2.517,0,0,0,1.3-.312,3.259,3.259,0,0,0,.93-.828l.883.688A3.55,3.55,0,0,1,114.418,17.156Zm-.18-7.578a1.928,1.928,0,0,0-1.469.637A3.1,3.1,0,0,0,112.035,12h4.234v-.109a2.753,2.753,0,0,0-.594-1.707A1.815,1.815,0,0,0,114.238,9.578ZM24.215,33.844a4.331,4.331,0,0,0-.711-.055A1.9,1.9,0,0,0,21.574,35v6H20.129V32.547h1.406l.023.977a2.251,2.251,0,0,1,2.016-1.133,1.477,1.477,0,0,1,.641.109Zm4.836,7.313a3.693,3.693,0,0,1-2.8-1.129,4.19,4.19,0,0,1-1.078-3.02v-.266a5.073,5.073,0,0,1,.48-2.246A3.748,3.748,0,0,1,27,32.949a3.378,3.378,0,0,1,1.871-.559,3.166,3.166,0,0,1,2.563,1.086,4.7,4.7,0,0,1,.914,3.109v.6H26.621a3,3,0,0,0,.73,2.02,2.3,2.3,0,0,0,1.777.77,2.517,2.517,0,0,0,1.3-.312,3.259,3.259,0,0,0,.93-.828l.883.688A3.55,3.55,0,0,1,29.051,41.156Zm-.18-7.578a1.928,1.928,0,0,0-1.469.637A3.1,3.1,0,0,0,26.668,36H30.9v-.109a2.753,2.753,0,0,0-.594-1.707A1.815,1.815,0,0,0,28.871,33.578Zm10.07,5.18a1.064,1.064,0,0,0-.441-.91,4.249,4.249,0,0,0-1.539-.559,7.277,7.277,0,0,1-1.742-.562,2.479,2.479,0,0,1-.953-.781,1.869,1.869,0,0,1-.309-1.078,2.193,2.193,0,0,1,.879-1.758,3.432,3.432,0,0,1,2.246-.719,3.532,3.532,0,0,1,2.332.742,2.357,2.357,0,0,1,.895,1.9H38.855a1.3,1.3,0,0,0-.5-1.023,1.888,1.888,0,0,0-1.27-.43,1.976,1.976,0,0,0-1.234.344,1.082,1.082,0,0,0-.445.9.877.877,0,0,0,.414.789,5.1,5.1,0,0,0,1.5.508,7.8,7.8,0,0,1,1.754.578,2.558,2.558,0,0,1,1,.809,1.988,1.988,0,0,1,.324,1.152,2.163,2.163,0,0,1-.906,1.816,3.8,3.8,0,0,1-2.352.684,4.257,4.257,0,0,1-1.8-.359,2.922,2.922,0,0,1-1.223-1,2.42,2.42,0,0,1-.441-1.395h1.445a1.5,1.5,0,0,0,.582,1.152,2.258,2.258,0,0,0,1.434.426,2.331,2.331,0,0,0,1.316-.332A1.02,1.02,0,0,0,38.941,38.758ZM49.41,36.867a5.062,5.062,0,0,1-.883,3.109,2.829,2.829,0,0,1-2.391,1.18,3.1,3.1,0,0,1-2.422-.977v4.07H42.27v-11.7h1.32l.07.938a2.977,2.977,0,0,1,2.453-1.094,2.882,2.882,0,0,1,2.41,1.148,5.117,5.117,0,0,1,.887,3.2ZM47.965,36.7a3.735,3.735,0,0,0-.609-2.258,1.963,1.963,0,0,0-1.672-.828,2.125,2.125,0,0,0-1.969,1.164V38.82A2.129,2.129,0,0,0,45.7,39.977a1.954,1.954,0,0,0,1.652-.824A4.077,4.077,0,0,0,47.965,36.7Zm2.9-.008a4.993,4.993,0,0,1,.488-2.234,3.643,3.643,0,0,1,1.359-1.531,3.7,3.7,0,0,1,1.988-.539,3.565,3.565,0,0,1,2.793,1.2,4.6,4.6,0,0,1,1.066,3.18v.1a5.036,5.036,0,0,1-.473,2.215,3.589,3.589,0,0,1-1.352,1.527,3.743,3.743,0,0,1-2.02.547,3.556,3.556,0,0,1-2.785-1.2A4.575,4.575,0,0,1,50.863,36.8Zm1.453.172a3.616,3.616,0,0,0,.652,2.258,2.211,2.211,0,0,0,3.5-.012,3.955,3.955,0,0,0,.648-2.418,3.61,3.61,0,0,0-.66-2.254,2.1,2.1,0,0,0-1.754-.863,2.075,2.075,0,0,0-1.727.852A3.925,3.925,0,0,0,52.316,36.867Zm9.422-4.32.047,1.063a3.08,3.08,0,0,1,2.531-1.219q2.68,0,2.7,3.023V41H65.574V35.406a1.946,1.946,0,0,0-.418-1.352,1.675,1.675,0,0,0-1.277-.437,2.086,2.086,0,0,0-1.234.375,2.546,2.546,0,0,0-.828.984V41H60.371V32.547Zm12.383,6.211a1.064,1.064,0,0,0-.441-.91,4.249,4.249,0,0,0-1.539-.559,7.277,7.277,0,0,1-1.742-.562,2.479,2.479,0,0,1-.953-.781,1.869,1.869,0,0,1-.309-1.078,2.193,2.193,0,0,1,.879-1.758,3.432,3.432,0,0,1,2.246-.719,3.532,3.532,0,0,1,2.332.742,2.357,2.357,0,0,1,.895,1.9H74.035a1.3,1.3,0,0,0-.5-1.023,1.888,1.888,0,0,0-1.27-.43,1.976,1.976,0,0,0-1.234.344,1.082,1.082,0,0,0-.445.9.877.877,0,0,0,.414.789,5.1,5.1,0,0,0,1.5.508,7.8,7.8,0,0,1,1.754.578,2.558,2.558,0,0,1,1,.809,1.988,1.988,0,0,1,.324,1.152,2.163,2.163,0,0,1-.906,1.816,3.8,3.8,0,0,1-2.352.684,4.257,4.257,0,0,1-1.8-.359,2.922,2.922,0,0,1-1.223-1,2.42,2.42,0,0,1-.441-1.395h1.445a1.5,1.5,0,0,0,.582,1.152,2.258,2.258,0,0,0,1.434.426,2.331,2.331,0,0,0,1.316-.332A1.02,1.02,0,0,0,74.121,38.758ZM82.668,41a3.036,3.036,0,0,1-.2-.891,3.225,3.225,0,0,1-2.406,1.047,2.984,2.984,0,0,1-2.051-.707,2.288,2.288,0,0,1-.8-1.793,2.39,2.39,0,0,1,1-2.051,4.733,4.733,0,0,1,2.824-.73h1.406v-.664A1.623,1.623,0,0,0,81.988,34a1.821,1.821,0,0,0-1.336-.449,2.107,2.107,0,0,0-1.3.391,1.151,1.151,0,0,0-.523.945H77.379a2,2,0,0,1,.449-1.223,3.066,3.066,0,0,1,1.219-.934,4.1,4.1,0,0,1,1.691-.344,3.342,3.342,0,0,1,2.289.73,2.635,2.635,0,0,1,.859,2.012v3.891a4.757,4.757,0,0,0,.3,1.852V41Zm-2.4-1.1a2.54,2.54,0,0,0,1.289-.352,2.127,2.127,0,0,0,.883-.914V36.9H81.309q-2.656,0-2.656,1.555a1.316,1.316,0,0,0,.453,1.063A1.742,1.742,0,0,0,80.27,39.9Zm13.039-3.031a5.026,5.026,0,0,1-.891,3.113,2.846,2.846,0,0,1-2.391,1.176,2.947,2.947,0,0,1-2.477-1.133L87.48,41H86.152V29H87.6v4.477a2.93,2.93,0,0,1,2.414-1.086,2.863,2.863,0,0,1,2.418,1.164,5.177,5.177,0,0,1,.879,3.188ZM91.863,36.7a3.906,3.906,0,0,0-.57-2.281,1.888,1.888,0,0,0-1.641-.8A2.122,2.122,0,0,0,87.6,34.945V38.6a2.181,2.181,0,0,0,2.07,1.328,1.878,1.878,0,0,0,1.617-.8A4.153,4.153,0,0,0,91.863,36.7ZM96.7,41H95.254V32.547H96.7ZM95.137,30.3a.863.863,0,0,1,.215-.594.807.807,0,0,1,.637-.242.819.819,0,0,1,.641.242.854.854,0,0,1,.219.594.826.826,0,0,1-.219.586.834.834,0,0,1-.641.234.821.821,0,0,1-.637-.234A.834.834,0,0,1,95.137,30.3ZM100.582,41H99.137V29h1.445Zm3.883,0H103.02V32.547h1.445ZM102.9,30.3a.863.863,0,0,1,.215-.594.807.807,0,0,1,.637-.242.819.819,0,0,1,.641.242.854.854,0,0,1,.219.594.826.826,0,0,1-.219.586.834.834,0,0,1-.641.234.821.821,0,0,1-.637-.234A.834.834,0,0,1,102.9,30.3Zm3.523,6.4a4.952,4.952,0,0,1,.922-3.129,3.137,3.137,0,0,1,4.766-.168V29h1.445V41H112.23l-.07-.906a2.943,2.943,0,0,1-2.414,1.063,2.887,2.887,0,0,1-2.395-1.2,5.008,5.008,0,0,1-.926-3.141Zm1.445.164a3.749,3.749,0,0,0,.594,2.25,1.92,1.92,0,0,0,1.641.813,2.108,2.108,0,0,0,2.008-1.234V34.813a2.125,2.125,0,0,0-1.992-1.2,1.929,1.929,0,0,0-1.656.82A4.128,4.128,0,0,0,107.871,36.867ZM121.02,41a3.036,3.036,0,0,1-.2-.891,3.225,3.225,0,0,1-2.406,1.047,2.984,2.984,0,0,1-2.051-.707,2.288,2.288,0,0,1-.8-1.793,2.39,2.39,0,0,1,1-2.051,4.733,4.733,0,0,1,2.824-.73h1.406v-.664A1.623,1.623,0,0,0,120.34,34,1.821,1.821,0,0,0,119,33.555a2.107,2.107,0,0,0-1.3.391,1.151,1.151,0,0,0-.523.945H115.73a2,2,0,0,1,.449-1.223,3.066,3.066,0,0,1,1.219-.934,4.1,4.1,0,0,1,1.691-.344,3.342,3.342,0,0,1,2.289.73,2.635,2.635,0,0,1,.859,2.012v3.891a4.757,4.757,0,0,0,.3,1.852V41Zm-2.4-1.1a2.54,2.54,0,0,0,1.289-.352,2.127,2.127,0,0,0,.883-.914V36.9H119.66Q117,36.9,117,38.453a1.316,1.316,0,0,0,.453,1.063A1.742,1.742,0,0,0,118.621,39.9Zm5.531-3.2a4.952,4.952,0,0,1,.922-3.129,3.137,3.137,0,0,1,4.766-.168V29h1.445V41h-1.328l-.07-.906a2.943,2.943,0,0,1-2.414,1.063,2.887,2.887,0,0,1-2.395-1.2,5.008,5.008,0,0,1-.926-3.141Zm1.445.164a3.749,3.749,0,0,0,.594,2.25,1.92,1.92,0,0,0,1.641.813A2.108,2.108,0,0,0,129.84,38.7V34.813a2.125,2.125,0,0,0-1.992-1.2,1.929,1.929,0,0,0-1.656.82A4.128,4.128,0,0,0,125.6,36.867Zm14.656,2.016,1.969-6.336h1.547l-3.4,9.758q-.789,2.109-2.508,2.109l-.273-.023-.539-.1V43.117l.391.031a1.923,1.923,0,0,0,1.145-.3,2.148,2.148,0,0,0,.676-1.086l.32-.859-3.016-8.359h1.578ZM12.469,60.867a5.062,5.062,0,0,1-.883,3.109A2.829,2.829,0,0,1,9.2,65.156a3.1,3.1,0,0,1-2.422-.977v4.07H5.328v-11.7h1.32l.07.938a2.977,2.977,0,0,1,2.453-1.094,2.882,2.882,0,0,1,2.41,1.148,5.117,5.117,0,0,1,.887,3.2ZM11.023,60.7a3.735,3.735,0,0,0-.609-2.258,1.963,1.963,0,0,0-1.672-.828,2.125,2.125,0,0,0-1.969,1.164V62.82a2.129,2.129,0,0,0,1.984,1.156,1.954,1.954,0,0,0,1.652-.824A4.077,4.077,0,0,0,11.023,60.7Zm2.9-.008a4.993,4.993,0,0,1,.488-2.234A3.643,3.643,0,0,1,15.77,56.93a3.7,3.7,0,0,1,1.988-.539,3.565,3.565,0,0,1,2.793,1.2,4.6,4.6,0,0,1,1.066,3.18v.1a5.036,5.036,0,0,1-.473,2.215,3.589,3.589,0,0,1-1.352,1.527,3.743,3.743,0,0,1-2.02.547,3.556,3.556,0,0,1-2.785-1.2A4.575,4.575,0,0,1,13.922,60.8Zm1.453.172a3.616,3.616,0,0,0,.652,2.258,2.211,2.211,0,0,0,3.5-.012,3.955,3.955,0,0,0,.648-2.418,3.61,3.61,0,0,0-.66-2.254,2.1,2.1,0,0,0-1.754-.863,2.075,2.075,0,0,0-1.727.852A3.925,3.925,0,0,0,15.375,60.867Zm12.977,1.891a1.064,1.064,0,0,0-.441-.91,4.249,4.249,0,0,0-1.539-.559,7.277,7.277,0,0,1-1.742-.562,2.479,2.479,0,0,1-.953-.781,1.869,1.869,0,0,1-.309-1.078,2.193,2.193,0,0,1,.879-1.758,3.432,3.432,0,0,1,2.246-.719,3.532,3.532,0,0,1,2.332.742,2.357,2.357,0,0,1,.895,1.9H28.266a1.3,1.3,0,0,0-.5-1.023,1.888,1.888,0,0,0-1.27-.43,1.976,1.976,0,0,0-1.234.344,1.082,1.082,0,0,0-.445.9.877.877,0,0,0,.414.789,5.1,5.1,0,0,0,1.5.508,7.8,7.8,0,0,1,1.754.578,2.558,2.558,0,0,1,1,.809,1.988,1.988,0,0,1,.324,1.152,2.163,2.163,0,0,1-.906,1.816,3.8,3.8,0,0,1-2.352.684,4.257,4.257,0,0,1-1.8-.359,2.922,2.922,0,0,1-1.223-1,2.42,2.42,0,0,1-.441-1.395h1.445a1.5,1.5,0,0,0,.582,1.152,2.258,2.258,0,0,0,1.434.426,2.331,2.331,0,0,0,1.316-.332A1.02,1.02,0,0,0,28.352,62.758ZM33.25,65H31.8V56.547H33.25ZM31.688,54.3a.863.863,0,0,1,.215-.594.807.807,0,0,1,.637-.242.819.819,0,0,1,.641.242.854.854,0,0,1,.219.594.826.826,0,0,1-.219.586.834.834,0,0,1-.641.234.821.821,0,0,1-.637-.234A.834.834,0,0,1,31.688,54.3Zm11.031,6.563a5.026,5.026,0,0,1-.891,3.113,2.846,2.846,0,0,1-2.391,1.176,2.947,2.947,0,0,1-2.477-1.133l-.07.977H35.563V53h1.445v4.477a2.93,2.93,0,0,1,2.414-1.086,2.863,2.863,0,0,1,2.418,1.164,5.177,5.177,0,0,1,.879,3.188ZM41.273,60.7a3.906,3.906,0,0,0-.57-2.281,1.888,1.888,0,0,0-1.641-.8,2.122,2.122,0,0,0-2.055,1.328V62.6a2.181,2.181,0,0,0,2.07,1.328,1.878,1.878,0,0,0,1.617-.8A4.153,4.153,0,0,0,41.273,60.7ZM46.109,65H44.664V56.547h1.445ZM44.547,54.3a.863.863,0,0,1,.215-.594.807.807,0,0,1,.637-.242.819.819,0,0,1,.641.242.854.854,0,0,1,.219.594.826.826,0,0,1-.219.586.834.834,0,0,1-.641.234.821.821,0,0,1-.637-.234A.834.834,0,0,1,44.547,54.3ZM49.992,65H48.547V53h1.445Zm3.883,0H52.43V56.547h1.445ZM52.313,54.3a.863.863,0,0,1,.215-.594.807.807,0,0,1,.637-.242.819.819,0,0,1,.641.242.854.854,0,0,1,.219.594.826.826,0,0,1-.219.586.834.834,0,0,1-.641.234.821.821,0,0,1-.637-.234A.834.834,0,0,1,52.313,54.3Zm3.523,6.4a4.952,4.952,0,0,1,.922-3.129,3.137,3.137,0,0,1,4.766-.168V53h1.445V65H61.641l-.07-.906a2.943,2.943,0,0,1-2.414,1.063,2.887,2.887,0,0,1-2.395-1.2,5.008,5.008,0,0,1-.926-3.141Zm1.445.164a3.749,3.749,0,0,0,.594,2.25,1.919,1.919,0,0,0,1.641.813A2.108,2.108,0,0,0,61.523,62.7V58.813a2.125,2.125,0,0,0-1.992-1.2,1.929,1.929,0,0,0-1.656.82A4.128,4.128,0,0,0,57.281,60.867ZM70.43,65a3.036,3.036,0,0,1-.2-.891,3.225,3.225,0,0,1-2.406,1.047,2.984,2.984,0,0,1-2.051-.707,2.288,2.288,0,0,1-.8-1.793,2.39,2.39,0,0,1,1-2.051,4.733,4.733,0,0,1,2.824-.73H70.2v-.664A1.623,1.623,0,0,0,69.75,58a1.821,1.821,0,0,0-1.336-.449,2.107,2.107,0,0,0-1.3.391,1.151,1.151,0,0,0-.523.945H65.141a2,2,0,0,1,.449-1.223,3.066,3.066,0,0,1,1.219-.934,4.1,4.1,0,0,1,1.691-.344,3.342,3.342,0,0,1,2.289.73,2.635,2.635,0,0,1,.859,2.012v3.891a4.757,4.757,0,0,0,.3,1.852V65Zm-2.4-1.1a2.54,2.54,0,0,0,1.289-.352,2.127,2.127,0,0,0,.883-.914V60.9H69.07q-2.656,0-2.656,1.555a1.316,1.316,0,0,0,.453,1.063A1.742,1.742,0,0,0,68.031,63.9Zm5.531-3.2a4.952,4.952,0,0,1,.922-3.129,3.137,3.137,0,0,1,4.766-.168V53H80.7V65H79.367l-.07-.906a2.943,2.943,0,0,1-2.414,1.063,2.887,2.887,0,0,1-2.395-1.2,5.008,5.008,0,0,1-.926-3.141Zm1.445.164a3.749,3.749,0,0,0,.594,2.25,1.92,1.92,0,0,0,1.641.813A2.108,2.108,0,0,0,79.25,62.7V58.813a2.125,2.125,0,0,0-1.992-1.2,1.929,1.929,0,0,0-1.656.82A4.128,4.128,0,0,0,75.008,60.867ZM86.547,60.7a4.952,4.952,0,0,1,.922-3.129,3.137,3.137,0,0,1,4.766-.168V53H93.68V65H92.352l-.07-.906a2.943,2.943,0,0,1-2.414,1.063,2.887,2.887,0,0,1-2.395-1.2,5.008,5.008,0,0,1-.926-3.141Zm1.445.164a3.749,3.749,0,0,0,.594,2.25,1.92,1.92,0,0,0,1.641.813A2.108,2.108,0,0,0,92.234,62.7V58.813a2.125,2.125,0,0,0-1.992-1.2,1.929,1.929,0,0,0-1.656.82A4.128,4.128,0,0,0,87.992,60.867ZM99.43,65.156a3.693,3.693,0,0,1-2.8-1.129,4.19,4.19,0,0,1-1.078-3.02v-.266a5.073,5.073,0,0,1,.48-2.246,3.748,3.748,0,0,1,1.344-1.547,3.378,3.378,0,0,1,1.871-.559,3.166,3.166,0,0,1,2.563,1.086,4.7,4.7,0,0,1,.914,3.109v.6H97a3,3,0,0,0,.73,2.02,2.3,2.3,0,0,0,1.777.77,2.517,2.517,0,0,0,1.3-.312,3.259,3.259,0,0,0,.93-.828l.883.688A3.55,3.55,0,0,1,99.43,65.156Zm-.18-7.578a1.928,1.928,0,0,0-1.469.637A3.1,3.1,0,0,0,97.047,60h4.234v-.109a2.753,2.753,0,0,0-.594-1.707A1.815,1.815,0,0,0,99.25,57.578ZM113.578,65a3.036,3.036,0,0,1-.2-.891,3.225,3.225,0,0,1-2.406,1.047,2.984,2.984,0,0,1-2.051-.707,2.288,2.288,0,0,1-.8-1.793,2.39,2.39,0,0,1,1-2.051,4.733,4.733,0,0,1,2.824-.73h1.406v-.664A1.623,1.623,0,0,0,112.9,58a1.821,1.821,0,0,0-1.336-.449,2.107,2.107,0,0,0-1.3.391,1.151,1.151,0,0,0-.523.945h-1.453a2,2,0,0,1,.449-1.223,3.066,3.066,0,0,1,1.219-.934,4.1,4.1,0,0,1,1.691-.344,3.342,3.342,0,0,1,2.289.73,2.635,2.635,0,0,1,.859,2.012v3.891a4.757,4.757,0,0,0,.3,1.852V65Zm-2.4-1.1a2.54,2.54,0,0,0,1.289-.352,2.127,2.127,0,0,0,.883-.914V60.9h-1.133q-2.656,0-2.656,1.555a1.316,1.316,0,0,0,.453,1.063A1.742,1.742,0,0,0,111.18,63.9Zm9.273.078a2.082,2.082,0,0,0,1.352-.469,1.649,1.649,0,0,0,.641-1.172h1.367a2.621,2.621,0,0,1-.5,1.383,3.293,3.293,0,0,1-1.23,1.047,3.55,3.55,0,0,1-1.629.391A3.482,3.482,0,0,1,117.707,64a4.59,4.59,0,0,1-1.02-3.152v-.242a5.089,5.089,0,0,1,.453-2.2,3.451,3.451,0,0,1,1.3-1.492,3.7,3.7,0,0,1,2-.531,3.39,3.39,0,0,1,2.363.852,3.043,3.043,0,0,1,1,2.211h-1.367a1.992,1.992,0,0,0-.621-1.348,1.932,1.932,0,0,0-1.379-.527,2.023,2.023,0,0,0-1.707.793,3.724,3.724,0,0,0-.605,2.293v.273a3.65,3.65,0,0,0,.6,2.25A2.033,2.033,0,0,0,120.453,63.977Zm8.375,0a2.082,2.082,0,0,0,1.352-.469,1.649,1.649,0,0,0,.641-1.172h1.367a2.621,2.621,0,0,1-.5,1.383,3.293,3.293,0,0,1-1.23,1.047,3.55,3.55,0,0,1-1.629.391A3.482,3.482,0,0,1,126.082,64a4.59,4.59,0,0,1-1.02-3.152v-.242a5.089,5.089,0,0,1,.453-2.2,3.451,3.451,0,0,1,1.3-1.492,3.7,3.7,0,0,1,2-.531,3.39,3.39,0,0,1,2.363.852,3.043,3.043,0,0,1,1,2.211H130.82a1.992,1.992,0,0,0-.621-1.348,1.932,1.932,0,0,0-1.379-.527,2.023,2.023,0,0,0-1.707.793,3.724,3.724,0,0,0-.605,2.293v.273a3.65,3.65,0,0,0,.6,2.25A2.033,2.033,0,0,0,128.828,63.977ZM135.383,65h-1.445V56.547h1.445ZM133.82,54.3a.863.863,0,0,1,.215-.594.807.807,0,0,1,.637-.242.819.819,0,0,1,.641.242.854.854,0,0,1,.219.594.826.826,0,0,1-.219.586.834.834,0,0,1-.641.234.821.821,0,0,1-.637-.234A.834.834,0,0,1,133.82,54.3Zm3.492,6.391a4.993,4.993,0,0,1,.488-2.234,3.642,3.642,0,0,1,1.359-1.531,3.7,3.7,0,0,1,1.988-.539,3.565,3.565,0,0,1,2.793,1.2,4.6,4.6,0,0,1,1.066,3.18v.1a5.036,5.036,0,0,1-.473,2.215,3.589,3.589,0,0,1-1.352,1.527,3.743,3.743,0,0,1-2.02.547,3.556,3.556,0,0,1-2.785-1.2,4.575,4.575,0,0,1-1.066-3.164Zm1.453.172a3.616,3.616,0,0,0,.652,2.258,2.211,2.211,0,0,0,3.5-.012,3.954,3.954,0,0,0,.648-2.418,3.61,3.61,0,0,0-.66-2.254,2.1,2.1,0,0,0-1.754-.863,2.075,2.075,0,0,0-1.727.852A3.925,3.925,0,0,0,138.766,60.867ZM141.8,53h1.75l-2.094,2.3-1.164,0Zm6.383,3.547.047,1.063a3.08,3.08,0,0,1,2.531-1.219q2.68,0,2.7,3.023V65h-1.445V59.406a1.946,1.946,0,0,0-.418-1.352,1.675,1.675,0,0,0-1.277-.437,2.086,2.086,0,0,0-1.234.375,2.546,2.546,0,0,0-.828.984V65H146.82V56.547Zm7.492,7.7a.905.905,0,0,1,.223-.625.848.848,0,0,1,.668-.25.874.874,0,0,1,.676.25.887.887,0,0,1,.23.625.839.839,0,0,1-.23.6.89.89,0,0,1-.676.242.8.8,0,0,1-.891-.844Z" transform="translate(915 19378)" fill="#12263f"/>
    <g id="hombre_1_" data-name="hombre (1)" transform="translate(825.001 19380)">
      <path id="Trazado_729924" data-name="Trazado 729924" d="M124.465,28.26c-.015-1.012.022-1.633.022-1.633a24.981,24.981,0,0,0,7.3-9.921s4.5,6.849,15.061,9.847c0,0,.043.661.031,1.733a2.569,2.569,0,0,1,3.08.263C155.093,12,140.249,7.811,136.414,7.575a8.08,8.08,0,0,0-6.453,2.962c-3.614-2.777-7.616.555-9.035,5.738-.869,3.172-.258,8.657.347,12.435a2.538,2.538,0,0,1,3.191-.449Zm0,0" transform="translate(-105.667 -6.631)" fill="#945b44"/>
      <path id="Trazado_729925" data-name="Trazado 729925" d="M327.924,174a2.57,2.57,0,0,0-3.561-.811,29.531,29.531,0,0,1-1.476,9.18C328.159,184.137,329.767,176.561,327.924,174Zm0,0" transform="translate(-283.151 -151.533)" fill="#ffbd86"/>
      <path id="Trazado_729926" data-name="Trazado 729926" d="M122.519,173.161a2.558,2.558,0,0,0-3.51.837c-1.841,2.56-.237,10.127,5.027,8.373a29.727,29.727,0,0,1-1.517-9.21Zm0,0" transform="translate(-103.72 -151.532)" fill="#ffbd86"/>
      <path id="Trazado_729927" data-name="Trazado 729927" d="M323.505,201.229a21.53,21.53,0,0,1-.619,2.065c4.347,1.458,6.2-3.435,5.687-6.634C328.195,199.272,326.521,201.858,323.505,201.229Zm0,0" transform="translate(-283.152 -172.459)" fill="#ffa664"/>
      <path id="Trazado_729928" data-name="Trazado 729928" d="M118.361,196.66c-.514,3.2,1.337,8.084,5.677,6.638-.246-.682-.453-1.375-.627-2.065-3,.615-4.671-1.966-5.05-4.573Zm0,0" transform="translate(-103.722 -172.459)" fill="#ffa664"/>
      <path id="Trazado_729929" data-name="Trazado 729929" d="M200.773,297.866a9.209,9.209,0,0,1-6.106-2.064v5.322a6.075,6.075,0,0,0,12.15,0V295.8a9.22,9.22,0,0,1-6.044,2.065Zm0,0" transform="translate(-170.712 -259.399)" fill="#ffbd86"/>
      <path id="Trazado_729930" data-name="Trazado 729930" d="M175.114,91.721s1.223,18.5-11.119,18.545S152.754,91.8,152.754,91.8a24.982,24.982,0,0,0,7.3-9.921s4.5,6.849,15.06,9.847Zm0,0" transform="translate(-133.934 -71.799)" fill="#fed2a4"/>
      <path id="Trazado_729931" data-name="Trazado 729931" d="M163.993,179.306c-9.614.032-11.071-11.193-11.246-16.157-.06,1.3-.628,18.429,11.246,18.39,11.461-.038,11.224-16,11.132-18.273-.172,5.056-1.639,16.009-11.132,16.04Zm0,0" transform="translate(-133.932 -143.072)" fill="#ffbd86"/>
      <path id="Trazado_729932" data-name="Trazado 729932" d="M194.668,295.8v2.23a9.96,9.96,0,0,0,12.15,0V295.8a9.969,9.969,0,0,1-12.15,0Zm0,0" transform="translate(-170.712 -259.399)" fill="#ffa664"/>
      <path id="Trazado_729933" data-name="Trazado 729933" d="M61.994,350.093c-3.341-2.7-19.259-11.042-19.259-11.042a6.075,6.075,0,1,1-12.15,0s-15.919,8.341-19.259,11.042S7.559,359.4,7.559,359.4h58.2s-.426-6.61-3.767-9.312Zm0,0" transform="translate(-6.63 -297.326)" fill="#8bcaff"/>
      <path id="Trazado_729934" data-name="Trazado 729934" d="M7.87,486.3a19.889,19.889,0,0,0-.311,2.233h58.2a19.807,19.807,0,0,0-.311-2.233Zm0,0" transform="translate(-6.629 -426.452)" fill="#60b8ff"/>
      <path id="Trazado_729935" data-name="Trazado 729935" d="M188.067,162.527a1.562,1.562,0,1,0-1.528,1.89A1.719,1.719,0,0,0,188.067,162.527Zm0,0" transform="translate(-162.244 -140.869)"/>
      <path id="Trazado_729936" data-name="Trazado 729936" d="M279.754,164.417a1.933,1.933,0,1,0-1.527-1.89A1.719,1.719,0,0,0,279.754,164.417Zm0,0" transform="translate(-243.988 -140.868)"/>
      <path id="Trazado_729937" data-name="Trazado 729937" d="M228.716,184.9c.1,0,.192,0,.29-.006a.931.931,0,0,0-.077-1.859c-.454.019-1.255-.008-1.5-.4-.319-.507.048-1.711.4-2.367a.93.93,0,0,0-1.639-.881c-.141.262-1.351,2.61-.336,4.233a3.122,3.122,0,0,0,2.867,1.28Zm0,0" transform="translate(-197.703 -156.879)"/>
      <path id="Trazado_729938" data-name="Trazado 729938" d="M202.153,234.581a.931.931,0,0,0-.268,1.288,5.975,5.975,0,0,0,10.106,0,.93.93,0,0,0-1.554-1.024,4.116,4.116,0,0,1-7,0A.93.93,0,0,0,202.153,234.581Zm0,0" transform="translate(-176.908 -205.58)"/>
      <path id="Trazado_729939" data-name="Trazado 729939" d="M12.321,61.147H1.968a21.347,21.347,0,0,1,.492-2.475c.443-1.682,1.292-3.945,2.821-5.182,2.7-2.185,14.135-8.308,17.9-10.3a7,7,0,0,0,13.7,0c1.408.747,3.887,2.069,6.565,3.539a.931.931,0,0,0,.9-1.632c-3.229-1.772-6.169-3.33-7.306-3.931V36.824c.221-.2.436-.408.644-.631a13.846,13.846,0,0,0,2.633-4.252,5.238,5.238,0,0,0,.917.083,4.566,4.566,0,0,0,3.756-1.969c1.694-2.3,1.952-6.173.543-8.132-.062-.087-.127-.17-.192-.249C47,15.944,46.5,11.09,43.836,7.238c-3.8-5.5-10.7-7.08-13.032-7.223a8.767,8.767,0,0,0-6.661,2.671,4.956,4.956,0,0,0-4.18-.446c-2.473.831-4.619,3.574-5.6,7.158a13.626,13.626,0,0,0-.408,2.615.93.93,0,1,0,1.856.13,11.859,11.859,0,0,1,.347-2.254c.808-2.949,2.534-5.26,4.4-5.886a3.276,3.276,0,0,1,3.172.64.933.933,0,0,0,1.305-.172,7.207,7.207,0,0,1,5.657-2.6c1.946.12,8.255,1.557,11.616,6.423,2.228,3.227,2.7,7.331,1.421,12.213a3.289,3.289,0,0,0-1.6-.129c-.01-.309-.021-.492-.023-.519a.93.93,0,0,0-.674-.834c-10.064-2.858-14.5-9.4-14.537-9.463a.93.93,0,0,0-1.645.175,24.257,24.257,0,0,1-6.994,9.515.932.932,0,0,0-.368.687c0,.025-.01.175-.017.431a3.268,3.268,0,0,0-1.561.146c-.254-1.792-.424-3.448-.5-4.934a.931.931,0,0,0-1.858.1c.1,1.82.324,3.878.671,6.12-.03.039-.06.079-.089.12-1.408,1.957-1.151,5.832.539,8.128a4.566,4.566,0,0,0,3.759,1.974,5.26,5.26,0,0,0,.906-.082,13.882,13.882,0,0,0,2.69,4.3c.193.2.394.4.6.58v4.338C20.254,42.623,7.188,49.556,4.112,52.043.5,54.967.019,61.732,0,62.018a.94.94,0,0,0,.928.99H12.321a.93.93,0,1,0,0-1.861ZM41.838,25.906a35.258,35.258,0,0,0,.292-3.622,1.574,1.574,0,0,1,1.887.725c.857,1.19.78,4.165-.53,5.941a2.7,2.7,0,0,1-2.546,1.2,27.252,27.252,0,0,0,.9-4.245ZM35.175,41.725a5.144,5.144,0,1,1-10.288,0V38.158a10.513,10.513,0,0,0,5.134,1.24h.044a10.545,10.545,0,0,0,5.111-1.243Zm-18.6-12.777c-1.307-1.776-1.383-4.75-.527-5.939a1.567,1.567,0,0,1,1.839-.74,35.2,35.2,0,0,0,.319,3.716,27.308,27.308,0,0,0,.9,4.168,2.7,2.7,0,0,1-2.533-1.205Zm3.163-8.493a26.2,26.2,0,0,0,6.618-8.568,29.715,29.715,0,0,0,13.923,8.738c.048,2.294-.091,10.16-3.959,14.3a8.25,8.25,0,0,1-6.258,2.609,8.245,8.245,0,0,1-6.275-2.568C19.74,30.7,19.689,22.38,19.734,20.455Zm0,0" transform="translate(0 0)"/>
      <path id="Trazado_729940" data-name="Trazado 729940" d="M167.76,395.4c-.019-.287-.495-7.051-4.111-9.975a76.138,76.138,0,0,0-8.349-5.139.93.93,0,1,0-.912,1.621,70.459,70.459,0,0,1,8.091,4.965c2.254,1.822,3.055,5.8,3.313,7.657H123.742a.93.93,0,0,0,0,1.861h43.088a.94.94,0,0,0,.929-.99Zm0,0" transform="translate(-107.699 -333.38)"/>
    </g>
  </g>
</svg>
