<svg xmlns="http://www.w3.org/2000/svg" width="295" height="107" viewBox="0 0 295 107">
  <g id="Grupo_965531" data-name="Grupo 965531" transform="translate(-1125 -19359)">
    <g id="Grupo_965530" data-name="Grupo 965530">
      <path id="Trazado_730175" data-name="Trazado 730175" d="M0,0H250V107H0Z" transform="translate(1170 19359)" fill="#ecf7f4"/>
      <path id="Trazado_730177" data-name="Trazado 730177" d="M45,0A45,45,0,1,1,0,45,45,45,0,0,1,45,0Z" transform="translate(1125 19368)" fill="#feb12e"/>
      <path id="Trazado_730176" data-name="Trazado 730176" d="M16.707,5.625l3.719,9.281,3.719-9.281H26.09V17h-1.5V12.57l.141-4.781L21,17H19.848L16.121,7.813l.148,4.758V17h-1.5V5.625ZM33.73,17a3.036,3.036,0,0,1-.2-.891,3.225,3.225,0,0,1-2.406,1.047,2.984,2.984,0,0,1-2.051-.707,2.287,2.287,0,0,1-.8-1.793,2.39,2.39,0,0,1,1-2.051,4.733,4.733,0,0,1,2.824-.73H33.5v-.664A1.623,1.623,0,0,0,33.051,10a1.821,1.821,0,0,0-1.336-.449,2.107,2.107,0,0,0-1.3.391,1.151,1.151,0,0,0-.523.945H28.441a2,2,0,0,1,.449-1.223,3.066,3.066,0,0,1,1.219-.934A4.1,4.1,0,0,1,31.8,8.391a3.342,3.342,0,0,1,2.289.73,2.635,2.635,0,0,1,.859,2.012v3.891a4.757,4.757,0,0,0,.3,1.852V17Zm-2.4-1.1a2.54,2.54,0,0,0,1.289-.352,2.127,2.127,0,0,0,.883-.914V12.9H32.371q-2.656,0-2.656,1.555a1.316,1.316,0,0,0,.453,1.063A1.742,1.742,0,0,0,31.332,15.9Zm7.25-7.352.047,1.063A3.08,3.08,0,0,1,41.16,8.391q2.68,0,2.7,3.023V17H42.418V11.406A1.946,1.946,0,0,0,42,10.055a1.675,1.675,0,0,0-1.277-.437,2.086,2.086,0,0,0-1.234.375,2.546,2.546,0,0,0-.828.984V17H37.215V8.547Zm10.969,8.609a3.693,3.693,0,0,1-2.8-1.129,4.19,4.19,0,0,1-1.078-3.02v-.266a5.073,5.073,0,0,1,.48-2.246A3.748,3.748,0,0,1,47.5,8.949a3.378,3.378,0,0,1,1.871-.559,3.166,3.166,0,0,1,2.563,1.086,4.7,4.7,0,0,1,.914,3.109v.6H47.121a3,3,0,0,0,.73,2.02,2.3,2.3,0,0,0,1.777.77,2.517,2.517,0,0,0,1.3-.312,3.259,3.259,0,0,0,.93-.828l.883.688A3.55,3.55,0,0,1,49.551,17.156Zm-.18-7.578a1.928,1.928,0,0,0-1.469.637A3.1,3.1,0,0,0,47.168,12H51.4v-.109a2.753,2.753,0,0,0-.594-1.707A1.815,1.815,0,0,0,49.371,9.578Zm6.641-1.031v9.43q0,2.438-2.211,2.438a2.7,2.7,0,0,1-.883-.14V19.125a2.794,2.794,0,0,0,.656.063.982.982,0,0,0,.738-.262,1.3,1.3,0,0,0,.254-.911V8.547ZM54.418,6.3a.867.867,0,0,1,.215-.59.79.79,0,0,1,.629-.246.819.819,0,0,1,.641.242.854.854,0,0,1,.219.594.826.826,0,0,1-.219.586.834.834,0,0,1-.641.234.808.808,0,0,1-.633-.234A.843.843,0,0,1,54.418,6.3ZM57.957,12.7a4.993,4.993,0,0,1,.488-2.234A3.643,3.643,0,0,1,59.8,8.93a3.7,3.7,0,0,1,1.988-.539,3.565,3.565,0,0,1,2.793,1.2,4.6,4.6,0,0,1,1.066,3.18v.1a5.036,5.036,0,0,1-.473,2.215,3.589,3.589,0,0,1-1.352,1.527,3.743,3.743,0,0,1-2.02.547,3.556,3.556,0,0,1-2.785-1.2A4.575,4.575,0,0,1,57.957,12.8Zm1.453.172a3.616,3.616,0,0,0,.652,2.258,2.211,2.211,0,0,0,3.5-.012,3.955,3.955,0,0,0,.648-2.418,3.61,3.61,0,0,0-.66-2.254,2.1,2.1,0,0,0-1.754-.863,2.075,2.075,0,0,0-1.727.852A3.925,3.925,0,0,0,59.41,12.867ZM71.074,12.7A4.952,4.952,0,0,1,72,9.574a3.137,3.137,0,0,1,4.766-.168V5h1.445V17H76.879l-.07-.906a2.943,2.943,0,0,1-2.414,1.063A2.887,2.887,0,0,1,72,15.953a5.008,5.008,0,0,1-.926-3.141Zm1.445.164a3.749,3.749,0,0,0,.594,2.25,1.92,1.92,0,0,0,1.641.813A2.108,2.108,0,0,0,76.762,14.7V10.813a2.125,2.125,0,0,0-1.992-1.2,1.929,1.929,0,0,0-1.656.82A4.128,4.128,0,0,0,72.52,12.867Zm11.438,4.289a3.693,3.693,0,0,1-2.8-1.129,4.19,4.19,0,0,1-1.078-3.02v-.266a5.073,5.073,0,0,1,.48-2.246,3.748,3.748,0,0,1,1.344-1.547,3.378,3.378,0,0,1,1.871-.559A3.166,3.166,0,0,1,86.34,9.477a4.7,4.7,0,0,1,.914,3.109v.6H81.527a3,3,0,0,0,.73,2.02,2.3,2.3,0,0,0,1.777.77,2.517,2.517,0,0,0,1.3-.312,3.259,3.259,0,0,0,.93-.828l.883.688A3.55,3.55,0,0,1,83.957,17.156Zm-.18-7.578a1.928,1.928,0,0,0-1.469.637A3.1,3.1,0,0,0,81.574,12h4.234v-.109a2.753,2.753,0,0,0-.594-1.707A1.815,1.815,0,0,0,83.777,9.578ZM90.5,17H89.051V5H90.5Zm10.359-7.156a4.331,4.331,0,0,0-.711-.055A1.9,1.9,0,0,0,98.215,11v6H96.77V8.547h1.406l.023.977a2.251,2.251,0,0,1,2.016-1.133,1.477,1.477,0,0,1,.641.109Zm4.836,7.313a3.693,3.693,0,0,1-2.8-1.129,4.19,4.19,0,0,1-1.078-3.02v-.266a5.073,5.073,0,0,1,.48-2.246,3.748,3.748,0,0,1,1.344-1.547,3.378,3.378,0,0,1,1.871-.559,3.166,3.166,0,0,1,2.563,1.086,4.7,4.7,0,0,1,.914,3.109v.6h-5.727a3,3,0,0,0,.73,2.02,2.3,2.3,0,0,0,1.777.77,2.517,2.517,0,0,0,1.3-.312,3.259,3.259,0,0,0,.93-.828l.883.688A3.55,3.55,0,0,1,105.691,17.156Zm-.18-7.578a1.928,1.928,0,0,0-1.469.637A3.1,3.1,0,0,0,103.309,12h4.234v-.109a2.753,2.753,0,0,0-.594-1.707A1.815,1.815,0,0,0,105.512,9.578Zm8.539,6.4a2.082,2.082,0,0,0,1.352-.469,1.649,1.649,0,0,0,.641-1.172h1.367a2.621,2.621,0,0,1-.5,1.383,3.293,3.293,0,0,1-1.23,1.047,3.55,3.55,0,0,1-1.629.391A3.482,3.482,0,0,1,111.3,16a4.59,4.59,0,0,1-1.02-3.152v-.242a5.089,5.089,0,0,1,.453-2.2,3.451,3.451,0,0,1,1.3-1.492,3.7,3.7,0,0,1,2-.531,3.39,3.39,0,0,1,2.363.852,3.043,3.043,0,0,1,1,2.211h-1.367a1.992,1.992,0,0,0-.621-1.348,1.932,1.932,0,0,0-1.379-.527,2.023,2.023,0,0,0-1.707.793,3.724,3.724,0,0,0-.605,2.293v.273a3.65,3.65,0,0,0,.6,2.25A2.033,2.033,0,0,0,114.051,15.977Zm10.2.188a3.07,3.07,0,0,1-2.477.992,2.628,2.628,0,0,1-2.059-.785A3.4,3.4,0,0,1,119,14.047v-5.5h1.445v5.461q0,1.922,1.563,1.922a2.163,2.163,0,0,0,2.2-1.234V8.547h1.445V17h-1.375Zm7.688-6.32a4.331,4.331,0,0,0-.711-.055A1.9,1.9,0,0,0,129.3,11v6h-1.445V8.547h1.406l.023.977A2.251,2.251,0,0,1,131.3,8.391a1.477,1.477,0,0,1,.641.109Zm6.25,4.914a1.064,1.064,0,0,0-.441-.91,4.249,4.249,0,0,0-1.539-.559,7.277,7.277,0,0,1-1.742-.562,2.479,2.479,0,0,1-.953-.781,1.869,1.869,0,0,1-.309-1.078,2.193,2.193,0,0,1,.879-1.758,3.432,3.432,0,0,1,2.246-.719,3.532,3.532,0,0,1,2.332.742,2.357,2.357,0,0,1,.895,1.9h-1.453a1.3,1.3,0,0,0-.5-1.023,1.888,1.888,0,0,0-1.27-.43,1.976,1.976,0,0,0-1.234.344,1.082,1.082,0,0,0-.445.9.877.877,0,0,0,.414.789,5.1,5.1,0,0,0,1.5.508,7.8,7.8,0,0,1,1.754.578,2.558,2.558,0,0,1,1,.809,1.988,1.988,0,0,1,.324,1.152,2.163,2.163,0,0,1-.906,1.816,3.8,3.8,0,0,1-2.352.684,4.257,4.257,0,0,1-1.8-.359,2.922,2.922,0,0,1-1.223-1,2.42,2.42,0,0,1-.441-1.395h1.445a1.5,1.5,0,0,0,.582,1.152,2.258,2.258,0,0,0,1.434.426,2.331,2.331,0,0,0,1.316-.332A1.02,1.02,0,0,0,138.191,14.758Zm2.945-2.062a4.993,4.993,0,0,1,.488-2.234,3.642,3.642,0,0,1,1.359-1.531,3.7,3.7,0,0,1,1.988-.539,3.565,3.565,0,0,1,2.793,1.2,4.6,4.6,0,0,1,1.066,3.18v.1a5.036,5.036,0,0,1-.473,2.215,3.589,3.589,0,0,1-1.352,1.527,3.743,3.743,0,0,1-2.02.547,3.556,3.556,0,0,1-2.785-1.2,4.575,4.575,0,0,1-1.066-3.164Zm1.453.172a3.616,3.616,0,0,0,.652,2.258,2.211,2.211,0,0,0,3.5-.012,3.954,3.954,0,0,0,.648-2.418,3.61,3.61,0,0,0-.66-2.254,2.1,2.1,0,0,0-1.754-.863,2.075,2.075,0,0,0-1.727.852A3.925,3.925,0,0,0,142.59,12.867ZM57.641,33.57a3.073,3.073,0,0,1,2.5-1.18q2.68,0,2.7,3.023V41H61.4V35.406a1.946,1.946,0,0,0-.418-1.352,1.675,1.675,0,0,0-1.277-.437,2.086,2.086,0,0,0-1.234.375,2.546,2.546,0,0,0-.828.984V41H56.2V29h1.445ZM66.578,41H65.125V32.547h1.453Zm.016-11.992h1.75L66.25,31.3l-1.164,0Zm2.016,7.7a4.952,4.952,0,0,1,.922-3.129,3.137,3.137,0,0,1,4.766-.168V29h1.445V41H74.414l-.07-.906a2.943,2.943,0,0,1-2.414,1.063,2.887,2.887,0,0,1-2.395-1.2,5.008,5.008,0,0,1-.926-3.141Zm1.445.164a3.749,3.749,0,0,0,.594,2.25,1.92,1.92,0,0,0,1.641.813A2.108,2.108,0,0,0,74.3,38.7V34.813a2.125,2.125,0,0,0-1.992-1.2,1.929,1.929,0,0,0-1.656.82A4.128,4.128,0,0,0,70.055,36.867ZM82.07,33.844a4.331,4.331,0,0,0-.711-.055A1.9,1.9,0,0,0,79.43,35v6H77.984V32.547h1.406l.023.977a2.251,2.251,0,0,1,2.016-1.133,1.477,1.477,0,0,1,.641.109ZM84.969,41H83.523V32.547h1.445ZM83.406,30.3a.863.863,0,0,1,.215-.594.807.807,0,0,1,.637-.242.819.819,0,0,1,.641.242.854.854,0,0,1,.219.594.826.826,0,0,1-.219.586.834.834,0,0,1-.641.234.821.821,0,0,1-.637-.234A.834.834,0,0,1,83.406,30.3Zm7.266,9.672a2.082,2.082,0,0,0,1.352-.469,1.649,1.649,0,0,0,.641-1.172h1.367a2.621,2.621,0,0,1-.5,1.383,3.293,3.293,0,0,1-1.23,1.047,3.55,3.55,0,0,1-1.629.391A3.482,3.482,0,0,1,87.926,40a4.59,4.59,0,0,1-1.02-3.152v-.242a5.089,5.089,0,0,1,.453-2.2,3.451,3.451,0,0,1,1.3-1.492,3.7,3.7,0,0,1,2-.531,3.39,3.39,0,0,1,2.363.852,3.043,3.043,0,0,1,1,2.211H92.664a1.992,1.992,0,0,0-.621-1.348,1.932,1.932,0,0,0-1.379-.527,2.023,2.023,0,0,0-1.707.793,3.724,3.724,0,0,0-.605,2.293v.273a3.65,3.65,0,0,0,.6,2.25A2.033,2.033,0,0,0,90.672,39.977Zm4.6-3.281a4.993,4.993,0,0,1,.488-2.234,3.643,3.643,0,0,1,1.359-1.531,3.7,3.7,0,0,1,1.988-.539,3.565,3.565,0,0,1,2.793,1.2,4.6,4.6,0,0,1,1.066,3.18v.1a5.036,5.036,0,0,1-.473,2.215,3.589,3.589,0,0,1-1.352,1.527,3.743,3.743,0,0,1-2.02.547,3.556,3.556,0,0,1-2.785-1.2A4.575,4.575,0,0,1,95.273,36.8Zm1.453.172a3.616,3.616,0,0,0,.652,2.258,2.211,2.211,0,0,0,3.5-.012,3.955,3.955,0,0,0,.648-2.418,3.61,3.61,0,0,0-.66-2.254,2.1,2.1,0,0,0-1.754-.863,2.075,2.075,0,0,0-1.727.852A3.925,3.925,0,0,0,96.727,36.867Zm8.086,3.375a.905.905,0,0,1,.223-.625.848.848,0,0,1,.668-.25.874.874,0,0,1,.676.25.887.887,0,0,1,.23.625.839.839,0,0,1-.23.6.89.89,0,0,1-.676.242.8.8,0,0,1-.891-.844Z" transform="translate(1230 19390)" fill="#12263f"/>
    </g>
    <g id="mujer-joven" transform="translate(1130.822 19378.443)">
      <path id="Trazado_730019" data-name="Trazado 730019" d="M51.017,45.474a27.689,27.689,0,0,0,12.726-3.128c-3.555-5-3.555-11.927-3.555-11.927l-.009-5.054C60.541,6.819,49.94,8.4,49.94,8.4s-2.31-2.639-7.72-1.992S30.007,10.947,30.078,22.1c.008,1.274-.019,2.346-.072,3.264v5.054s0,6.927-3.555,11.925a27.689,27.689,0,0,0,12.726,3.128Z" transform="translate(-6.179 -0.882)" fill="#ff9664"/>
      <path id="Trazado_730020" data-name="Trazado 730020" d="M62.642,87.969a6.456,6.456,0,0,0-4.92-5.6l-12-2.867-.476-5.6a18.122,18.122,0,0,1-2.465,1.522,6.55,6.55,0,0,1-5.955,0,18.061,18.061,0,0,1-2.465-1.521l-.475,5.6L21.876,82.373a6.456,6.456,0,0,0-4.919,5.6l-1.029,9.668H63.672Z" transform="translate(-0.881 -34.913)" fill="#f7d291"/>
      <path id="Trazado_730021" data-name="Trazado 730021" d="M35.284,44.427s-2.777-1.332-3.711,1.124A3.7,3.7,0,0,0,36.1,50.315H59.062a3.7,3.7,0,0,0,4.522-4.764c-.934-2.456-3.711-1.124-3.711-1.124Z" transform="translate(-8.66 -19.89)" fill="#f7d291"/>
      <path id="Trazado_730022" data-name="Trazado 730022" d="M63.831,34.847s-2.169-1.535-3.414-5.752c-1.2-4.058-5.232-2.558-5.232-2.558-3.411-2.963-8-1.257-10.494,2.693-2.759,4.373-5.449,5.618-5.449,5.618,0,9.669,5.678,14.121,9.317,15.98a6.55,6.55,0,0,0,5.955,0C58.152,48.967,63.831,44.516,63.831,34.847Z" transform="translate(-12.618 -10.31)" fill="#ffe1a0"/>
      <path id="Trazado_730023" data-name="Trazado 730023" d="M63.252,101.207S56,101.207,56,89.5l-2.589-.6c-.609,1.886-3.661,9.429-13.611,9.429-9.977,0-13.018-7.585-13.614-9.445l-2.582.617c0,11.709-7.25,11.709-7.25,11.709l-.422,3.967H63.678Z" transform="translate(-0.884 -42.45)" fill="#a5cdff"/>
      <g id="Grupo_965380" data-name="Grupo 965380" transform="translate(14.177 4.556)">
        <path id="Trazado_730024" data-name="Trazado 730024" d="M63.654,62.632l-.676-6.356a.869.869,0,1,0-1.729.184l.134,1.253c-1.706-.5-5.058-2.38-5.371-9.558l.628.149A5.6,5.6,0,0,1,60.7,52.166a.869.869,0,1,0,1.668-.489,7.34,7.34,0,0,0-5.327-5.065L50.1,44.957A27.06,27.06,0,0,0,58,42.214a.869.869,0,0,0,.272-1.255c-2.919-4.1-3.327-9.687-3.385-11.091a4.731,4.731,0,0,0,.848-4.515,3.311,3.311,0,0,0-.865-1.3c.075-7.265-1.508-12.383-4.717-15.2A8.718,8.718,0,0,0,44.08,6.623c-.87-.758-3.451-2.52-8.141-1.958a14.709,14.709,0,0,0-7.2,2.87A.869.869,0,1,0,29.8,8.913,12.969,12.969,0,0,1,36.144,6.39c4.832-.577,6.883,1.613,6.963,1.7a.863.863,0,0,0,.783.287A6.867,6.867,0,0,1,49,10.153c2.676,2.35,4.095,6.889,4.134,13.168a4.569,4.569,0,0,0-1.746.218,11.485,11.485,0,0,1-2.759-5,4.6,4.6,0,0,0-2.308-2.985,5.349,5.349,0,0,0-3.56-.288A6.546,6.546,0,0,0,37.71,13.93a9.4,9.4,0,0,0-6.373,4.524,15.828,15.828,0,0,1-4.779,5.122,4.658,4.658,0,0,0-1.814-.258c.019-.658.028-1.358.023-2.1a23.213,23.213,0,0,1,.179-3.093.869.869,0,1,0-1.724-.223,24.963,24.963,0,0,0-.194,3.327c.006,1.031-.012,1.972-.05,2.816a3.3,3.3,0,0,0-.878,1.313,4.732,4.732,0,0,0,.848,4.515c-.057,1.4-.466,6.988-3.385,11.091a.869.869,0,0,0,.272,1.255,27.053,27.053,0,0,0,7.9,2.743l-6.94,1.658a7.337,7.337,0,0,0-5.582,6.349l-1.029,9.669a.87.87,0,0,0,.773.956c.031,0,.062,0,.093,0a.87.87,0,0,0,.863-.777l.348-3.288c1.994-.387,7.077-2.312,7.315-11.791l1.177-.282c1.043,2.628,4.635,9.289,14.166,9.289s13.128-6.676,14.168-9.289l1.177.282c.238,9.479,5.32,11.4,7.315,11.791l.348,3.288a.869.869,0,0,0,.863.777.65.65,0,0,0,.093,0,.87.87,0,0,0,.775-.956ZM45.635,43.708l-.366-4.313a17.072,17.072,0,0,0,5.737-8.02c.145.01.289.021.43.021a4.817,4.817,0,0,0,1.785-.33A23.732,23.732,0,0,0,56.3,41.133,27.65,27.65,0,0,1,45.635,43.708ZM53.4,25.146a1.317,1.317,0,0,1,.714.824,3,3,0,0,1-.555,2.781,2.624,2.624,0,0,1-2.051.9,21.59,21.59,0,0,0,.565-4.5,2.212,2.212,0,0,1,1.327-.005Zm-20.59-5.764a7.792,7.792,0,0,1,5.156-3.732A4.916,4.916,0,0,1,42,16.882a.871.871,0,0,0,.872.158,3.873,3.873,0,0,1,2.677.067,2.939,2.939,0,0,1,1.419,1.921,12.837,12.837,0,0,0,3.377,5.909c-.156,9.02-5.585,13.142-8.839,14.8a5.689,5.689,0,0,1-5.164,0c-3.243-1.657-8.64-5.753-8.839-14.7a17.56,17.56,0,0,0,5.307-5.661Zm-7.041,5.771a21.626,21.626,0,0,0,.565,4.5,2.624,2.624,0,0,1-2.051-.908,3,3,0,0,1-.555-2.781,1.316,1.316,0,0,1,.714-.824,2.214,2.214,0,0,1,1.327.009Zm-1.149,5.914a4.817,4.817,0,0,0,1.785.33c.141,0,.285-.011.43-.021a17.076,17.076,0,0,0,5.737,8.02L32.2,43.708a27.741,27.741,0,0,1-10.668-2.576,23.764,23.764,0,0,0,3.083-10.066ZM16.453,57.721l.487-4.573A5.6,5.6,0,0,1,21.2,48.3l.629-.149c-.312,7.225-3.66,9.087-5.373,9.565Zm22.465-2.714c-8.178,0-11.376-5.3-12.464-7.958L33.2,45.438c.007,0,.013-.007.021-.009a.864.864,0,0,0,.208-.086c.011-.006.022-.011.033-.018a.879.879,0,0,0,.178-.151l.031-.038a.86.86,0,0,0,.185-.44c0-.01.006-.019.007-.029l.351-4.127c.466.289.915.539,1.33.751a7.433,7.433,0,0,0,6.746,0c.416-.212.864-.462,1.33-.751l.351,4.127a.211.211,0,0,0,.007.029.86.86,0,0,0,.185.44l.031.038a.879.879,0,0,0,.178.151c.011.007.022.011.033.018a.864.864,0,0,0,.208.086c.007,0,.014.007.021.009l6.748,1.611C50.3,49.7,47.1,55.007,38.918,55.007Z" transform="translate(-14.177 -4.556)"/>
        <path id="Trazado_730025" data-name="Trazado 730025" d="M55.907,61.665a.87.87,0,0,0,.328,1.185,8.74,8.74,0,0,0,7.268,0,.869.869,0,0,0-.851-1.516,7.092,7.092,0,0,1-5.561,0,.87.87,0,0,0-1.184.328Z" transform="translate(-35.128 -33.083)"/>
        <path id="Trazado_730026" data-name="Trazado 730026" d="M51.359,40.95a2.281,2.281,0,0,1,1.4.4.869.869,0,1,0,1.157-1.3,4.319,4.319,0,0,0-5.118,0,.862.862,0,0,0-.065,1.208.877.877,0,0,0,1.22.091,2.271,2.271,0,0,1,1.4-.4Z" transform="translate(-31.466 -22)"/>
        <path id="Trazado_730027" data-name="Trazado 730027" d="M54.221,46.991a1.2,1.2,0,1,0-1.2,1.2,1.2,1.2,0,0,0,1.2-1.2Z" transform="translate(-33.129 -25.315)"/>
        <path id="Trazado_730028" data-name="Trazado 730028" d="M69.478,41.357a2.663,2.663,0,0,1,2.807,0,.869.869,0,1,0,1.157-1.3,4.32,4.32,0,0,0-5.118,0,.862.862,0,0,0-.065,1.208.877.877,0,0,0,1.22.09Z" transform="translate(-41.294 -22.006)"/>
        <circle id="Elipse_5892" data-name="Elipse 5892" cx="1.199" cy="1.199" r="1.199" transform="translate(28.373 22.86) rotate(-89.599)"/>
        <path id="Trazado_730029" data-name="Trazado 730029" d="M35.093,21.013a.869.869,0,0,0,1.13-.485,13.2,13.2,0,0,1,.894-1.826.869.869,0,1,0-1.5-.885,14.964,14.964,0,0,0-1.013,2.066A.869.869,0,0,0,35.093,21.013Z" transform="translate(-24.431 -11.017)"/>
      </g>
    </g>
  </g>
</svg>
