<svg xmlns="http://www.w3.org/2000/svg" width="105" height="104" viewBox="0 0 105 104">
  <g id="Grupo_965415" data-name="Grupo 965415" transform="translate(-370 -4516)">
    <rect id="Rectángulo_341025" data-name="Rectángulo 341025" width="105" height="104" rx="52" transform="translate(370 4516)" fill="#fff"/>
    <g id="voluntario" transform="translate(354.089 4526)">
      <g id="Grupo_965395" data-name="Grupo 965395" transform="translate(54.513 1.105)">
        <path id="Trazado_730079" data-name="Trazado 730079" d="M133.266,21.485v-1.19a12.795,12.795,0,0,1,25.59,0v1.19Z" transform="translate(-133.266 -7.5)" fill="#badc61"/>
      </g>
      <g id="Grupo_965396" data-name="Grupo 965396" transform="translate(54.513 12.709)">
        <path id="Trazado_730080" data-name="Trazado 730080" d="M133.323,86.293c-.036.392-.057.789-.057,1.19v1.19h25.59v-1.19c.007-.4-.007-.8-.038-1.19Z" transform="translate(-133.266 -86.293)" fill="#34bc85"/>
      </g>
      <g id="Grupo_965397" data-name="Grupo 965397" transform="translate(42.016 44.25)">
        <path id="Trazado_730081" data-name="Trazado 730081" d="M78.911,300.447l12.354,3.294A10.414,10.414,0,0,1,99,313.8v16.7H48.412V313.8a10.415,10.415,0,0,1,7.731-10.063L68.5,300.447Z" transform="translate(-48.412 -300.447)" fill="#badc61"/>
      </g>
      <g id="Grupo_965398" data-name="Grupo 965398" transform="translate(74.152 44.686)">
        <path id="Trazado_730082" data-name="Trazado 730082" d="M277.325,306.268l-10.717-2.858v17.066A11.884,11.884,0,0,0,272.63,330.8l3.929,2.223h8.5v-16.7A10.414,10.414,0,0,0,277.325,306.268Z" transform="translate(-266.608 -303.41)" fill="#a95e2c"/>
      </g>
      <g id="Grupo_965399" data-name="Grupo 965399" transform="translate(67.308 44.25)">
        <path id="Trazado_730083" data-name="Trazado 730083" d="M220.14,305.654l4.166,4.612,4.91-8.788-3.868-1.032Z" transform="translate(-220.14 -300.447)" fill="#df9874"/>
      </g>
      <g id="Grupo_965400" data-name="Grupo 965400" transform="translate(58.232 44.25)">
        <path id="Trazado_730084" data-name="Trazado 730084" d="M167.6,305.654l-4.166,4.612-4.91-8.788,3.868-1.032Z" transform="translate(-158.52 -300.447)" fill="#df9874"/>
      </g>
      <g id="Grupo_965401" data-name="Grupo 965401" transform="translate(62.101 37.852)">
        <path id="Trazado_730085" data-name="Trazado 730085" d="M189.991,268.615l-5.207-5.207v-6.4H195.2v6.4Z" transform="translate(-184.784 -257.01)" fill="#fcd0a3"/>
      </g>
      <g id="Grupo_965402" data-name="Grupo 965402" transform="translate(62.101 37.852)">
        <path id="Trazado_730086" data-name="Trazado 730086" d="M184.784,260.4a14.876,14.876,0,0,0,10.414,0V257.01H184.784V260.4Z" transform="translate(-184.784 -257.01)" fill="#ffb983"/>
      </g>
      <g id="Grupo_965403" data-name="Grupo 965403" transform="translate(55.406 19.85)">
        <path id="Trazado_730087" data-name="Trazado 730087" d="M139.327,134.78v7.452a11.9,11.9,0,0,0,23.8,0V134.78Z" transform="translate(-139.327 -134.78)" fill="#fcd0a3"/>
      </g>
      <g id="Grupo_965404" data-name="Grupo 965404" transform="translate(74.565 19.85)">
        <path id="Trazado_730088" data-name="Trazado 730088" d="M274.06,142.232V134.78h-2.827v10.563a11.843,11.843,0,0,1-1.818,6.32A11.88,11.88,0,0,0,274.06,142.232Z" transform="translate(-269.415 -134.78)" fill="#ffb983"/>
      </g>
      <g id="Grupo_965405" data-name="Grupo 965405" transform="translate(79.21 19.85)">
        <path id="Trazado_730089" data-name="Trazado 730089" d="M301.846,141.921h-.893V134.78h.893a2.975,2.975,0,0,1,2.975,2.975v1.19A2.975,2.975,0,0,1,301.846,141.921Z" transform="translate(-300.953 -134.78)" fill="#fcd0a3"/>
      </g>
      <g id="Grupo_965406" data-name="Grupo 965406" transform="translate(51.538 19.85)">
        <path id="Trazado_730090" data-name="Trazado 730090" d="M116.038,141.921h.893V134.78h-.893a2.975,2.975,0,0,0-2.975,2.975v1.19A2.975,2.975,0,0,0,116.038,141.921Z" transform="translate(-113.063 -134.78)" fill="#fcd0a3"/>
      </g>
      <g id="Grupo_965407" data-name="Grupo 965407" transform="translate(48.86 15.09)">
        <path id="Trazado_730091" data-name="Trazado 730091" d="M113.328,102.455h12.795l5.653,4.761H94.88l5.653-4.761Z" transform="translate(-94.88 -102.455)" fill="#badc61"/>
      </g>
      <g id="Grupo_965408" data-name="Grupo 965408" transform="translate(77.127 43.06)">
        <path id="Trazado_730092" data-name="Trazado 730092" d="M299.829,323.609l8.506-4.813a8.89,8.89,0,0,0,4.512-7.737V295.478l-13.018-3.112-13.018,3.112v15.581a8.89,8.89,0,0,0,4.512,7.737Z" transform="translate(-286.811 -292.366)" fill="#feb12e"/>
      </g>
      <g id="Grupo_965409" data-name="Grupo 965409" transform="translate(87.034 45.398)">
        <path id="Trazado_730093" data-name="Trazado 730093" d="M366.97,308.24v14.666a8.89,8.89,0,0,1-4.512,7.737l-8.38,4.742,3.111,1.76,8.506-4.813a8.89,8.89,0,0,0,4.512-7.737V309.014Z" transform="translate(-354.078 -308.24)" fill="#fbd307"/>
      </g>
      <g id="Grupo_965413" data-name="Grupo 965413" transform="translate(82.26 47.672)">
        <g id="Grupo_965410" data-name="Grupo 965410" transform="translate(0 6.987)">
          <path id="Trazado_730094" data-name="Trazado 730094" d="M321.765,371.224a6.622,6.622,0,0,0,7.676,7.687,6.611,6.611,0,0,0-7.676-7.687Z" transform="translate(-321.661 -371.119)" fill="#93d87b"/>
        </g>
        <g id="Grupo_965411" data-name="Grupo 965411" transform="translate(7.885 6.987)">
          <path id="Trazado_730095" data-name="Trazado 730095" d="M382.981,371.224a6.622,6.622,0,0,1-7.676,7.687,6.611,6.611,0,0,1,7.676-7.687Z" transform="translate(-375.2 -371.119)" fill="#93d87b"/>
        </g>
        <g id="Grupo_965412" data-name="Grupo 965412" transform="translate(5.058)">
          <path id="Trazado_730096" data-name="Trazado 730096" d="M358.834,323.681a6.637,6.637,0,0,1,.008,10.863,6.626,6.626,0,0,1-.008-10.863Z" transform="translate(-356.007 -323.681)" fill="#93d87b"/>
        </g>
      </g>
      <g id="Grupo_965414" data-name="Grupo 965414" transform="translate(40.911 0)">
        <path id="Trazado_730097" data-name="Trazado 730097" d="M144.646,436.579a1.1,1.1,0,1,0,0-2.209h-5.653a1.1,1.1,0,1,0,0,2.209Z" transform="translate(-123.605 -370.396)"/>
        <path id="Trazado_730098" data-name="Trazado 730098" d="M103.163,51.447a1.1,1.1,0,0,0,1.1-1.1V46.171a1.1,1.1,0,0,0-.848-1.074L90.4,41.985a1.108,1.108,0,0,0-.514,0l-11.379,2.72-4.89-1.3v-4.73a13.023,13.023,0,0,0,6.67-10.58,4.085,4.085,0,0,0,3.893-4.075v-1.19a4.054,4.054,0,0,0-.456-1.871h2.03a1.1,1.1,0,0,0,.712-1.95l-5.26-4.43v-.667A13.475,13.475,0,0,0,77.29,4.182,13.931,13.931,0,0,0,53.408,13.9v.676l-5.26,4.43a1.1,1.1,0,0,0,.712,1.95h2.03a4.054,4.054,0,0,0-.456,1.871v1.19a4.085,4.085,0,0,0,3.893,4.075A13.023,13.023,0,0,0,61,38.672V43.4L49.462,46.478a11.532,11.532,0,0,0-8.551,11.129v3.01a1.1,1.1,0,0,0,2.209,0v-3.01a9.32,9.32,0,0,1,6.911-8.995l7.657-2.042,4.49,8.038a1.1,1.1,0,0,0,1.784.2L66.2,52.328V73.2H52.493v-8.12a1.1,1.1,0,0,0-2.209,0V73.2H43.12V65.776a1.1,1.1,0,1,0-2.209,0V74.3a1.1,1.1,0,0,0,1.1,1.1H92.6a1.1,1.1,0,0,0,1.1-1.1v-.745l5.49-3.107a10.011,10.011,0,0,0,5.073-8.7V55.5a1.1,1.1,0,1,0-2.209,0v6.249a7.8,7.8,0,0,1-3.951,6.776l-7.962,4.505-7.962-4.505a7.8,7.8,0,0,1-3.951-6.776V47.043L90.145,44.2l11.913,2.848v3.3a1.1,1.1,0,0,0,1.1,1.1ZM72.845,45.482l1.881.5-3.465,6.2L68.831,49.5Zm9.128-21.465a1.874,1.874,0,0,1-1.659,1.859V20.967a1.874,1.874,0,0,1,1.659,1.859ZM79,13.881c0,.006,0,.012,0,.018v.086H73.917v-.078c.031-4.32-.889-8.354-2.422-10.935a11.744,11.744,0,0,1,4.22,2.758A11.282,11.282,0,0,1,79,13.881Zm-16.09.1V13.9c0-6.691,2.323-11.69,4.4-11.69h0a2.078,2.078,0,0,1,1.421.734c1.511,1.522,3.018,5.5,2.979,10.956v.086Zm.21-11C61.624,5.493,60.7,9.379,60.7,13.9v.086H55.618V13.9A11.707,11.707,0,0,1,63.118,2.988ZM52.642,24.016v-1.19A1.874,1.874,0,0,1,54.3,20.967v4.908a1.873,1.873,0,0,1-1.659-1.859ZM56.51,27.3V20.955h2.514a1.1,1.1,0,0,0,0-2.209H51.886l3.03-2.552H79.7l3.03,2.552H64.184a1.1,1.1,0,0,0,0,2.209H78.105V27.3a10.8,10.8,0,1,1-21.595,0Zm10.8,13.007a12.956,12.956,0,0,0,4.1-.663v4.146l-4.1,4.1-4.1-4.1V39.646A12.953,12.953,0,0,0,67.308,40.309ZM63.355,52.185l-3.465-6.2,1.88-.5L65.784,49.5ZM81.1,70.451,85.95,73.2H68.412V52.328l2.241,2.482a1.1,1.1,0,0,0,1.784-.2l3.585-6.416v13.56a9.96,9.96,0,0,0,.252,2.222H72.664a1.1,1.1,0,0,0,0,2.209h4.4A10,10,0,0,0,81.1,70.451Z" transform="translate(-40.911 0)"/>
        <path id="Trazado_730099" data-name="Trazado 730099" d="M323.161,338.026a1.1,1.1,0,0,0,1.1-1.1v-3.656h.121a7.725,7.725,0,0,0,7.623-9.145,1.1,1.1,0,0,0-.824-.824,7.775,7.775,0,0,0-4.159.363,8.057,8.057,0,0,0,.057-.948,7.725,7.725,0,0,0-3.347-6.369,1.1,1.1,0,0,0-1.168,0,7.725,7.725,0,0,0-3.347,6.369,7.991,7.991,0,0,0,.058.948,7.773,7.773,0,0,0-4.159-.363,1.1,1.1,0,0,0-.824.824,7.725,7.725,0,0,0,7.623,9.145h.137v3.656A1.1,1.1,0,0,0,323.161,338.026Zm2.707-11.037a5.478,5.478,0,0,1,4.067-1.616,5.534,5.534,0,0,1-5.68,5.689A5.7,5.7,0,0,1,325.868,326.989Zm-2.715-8.291a5.553,5.553,0,0,1,.006,8.033,5.558,5.558,0,0,1-1.728-4.017A5.49,5.49,0,0,1,323.153,318.7Zm-5.167,10.742a5.478,5.478,0,0,1-1.616-4.067,5.474,5.474,0,0,1,4.067,1.616,5.758,5.758,0,0,1,1.612,4.072A5.484,5.484,0,0,1,317.987,329.44Z" transform="translate(-273.919 -269.612)"/>
      </g>
    </g>
  </g>
</svg>
