<svg xmlns="http://www.w3.org/2000/svg" width="101" height="101" viewBox="0 0 101 101">
  <g id="Grupo_957864" data-name="Grupo 957864" transform="translate(-745 -4205)">
    <circle id="Elipse_6744" data-name="Elipse 6744" cx="50.5" cy="50.5" r="50.5" transform="translate(745 4205)" fill="#badc61"/>
    <g id="hecho" transform="translate(765.984 4219.471)">
      <path id="Trazado_725335" data-name="Trazado 725335" d="M41.409,96.57H8.72a1.22,1.22,0,0,1-1.22-1.22V44.913a1.22,1.22,0,0,1,1.22-1.22H41.409a1.22,1.22,0,0,1,1.22,1.22V95.349A1.22,1.22,0,0,1,41.409,96.57Z" transform="translate(0 -32.027)" fill="#e7e2e6"/>
      <path id="Trazado_725336" data-name="Trazado 725336" d="M7.5,52.372V95.349a1.22,1.22,0,0,0,1.22,1.22H41.409a1.22,1.22,0,0,0,1.22-1.22V44.913a1.22,1.22,0,0,0-1.22-1.22H8.72a1.22,1.22,0,0,0-1.22,1.22v4.131" transform="translate(0 -32.027)" fill="none" stroke="#000" stroke-linecap="round" stroke-linejoin="round" stroke-miterlimit="10" stroke-width="2"/>
      <path id="Trazado_725337" data-name="Trazado 725337" d="M87.6,60.392H54.91a1.22,1.22,0,0,1-1.22-1.22V8.735a1.22,1.22,0,0,1,1.22-1.22H87.6a1.22,1.22,0,0,1,1.22,1.22V59.171A1.22,1.22,0,0,1,87.6,60.392Z" transform="translate(-40.89)" fill="#faf7f8"/>
      <path id="Trazado_725338" data-name="Trazado 725338" d="M329.645,7.516h-2.536a1.22,1.22,0,0,1,1.22,1.22V59.172a1.22,1.22,0,0,1-1.22,1.22h2.536a1.22,1.22,0,0,0,1.22-1.22V8.736A1.22,1.22,0,0,0,329.645,7.516Z" transform="translate(-282.936 -0.001)" fill="#f0eef0"/>
      <path id="Trazado_725339" data-name="Trazado 725339" d="M70.123,60.392H87.6a1.22,1.22,0,0,0,1.22-1.22V8.735a1.22,1.22,0,0,0-1.22-1.22H54.91a1.22,1.22,0,0,0-1.22,1.22V59.171a1.22,1.22,0,0,0,1.22,1.22H66.8" transform="translate(-40.89)" fill="none" stroke="#000" stroke-linecap="round" stroke-linejoin="round" stroke-miterlimit="10" stroke-width="2"/>
      <path id="Trazado_725340" data-name="Trazado 725340" d="M136.723,45.623H118.555a1.172,1.172,0,0,1-1.172-1.172V41.6a1.172,1.172,0,0,1,1.172-1.172h18.168A1.172,1.172,0,0,1,137.9,41.6V44.45A1.172,1.172,0,0,1,136.723,45.623Z" transform="translate(-97.275 -29.136)" fill="#feb12e"/>
      <path id="Trazado_725341" data-name="Trazado 725341" d="M268.676,40.426h-2.237a1.172,1.172,0,0,1,1.172,1.172v2.851a1.172,1.172,0,0,1-1.172,1.172h2.237a1.172,1.172,0,0,0,1.172-1.172V41.6A1.172,1.172,0,0,0,268.676,40.426Z" transform="translate(-229.227 -29.135)" fill="#ffdb9f"/>
      <path id="Trazado_725342" data-name="Trazado 725342" d="M136.723,45.623H118.555a1.172,1.172,0,0,1-1.172-1.172V41.6a1.172,1.172,0,0,1,1.172-1.172h18.168A1.172,1.172,0,0,1,137.9,41.6V44.45A1.172,1.172,0,0,1,136.723,45.623Z" transform="translate(-97.275 -29.136)" fill="none" stroke="#000" stroke-linecap="round" stroke-linejoin="round" stroke-miterlimit="10" stroke-width="2"/>
      <g id="Grupo_957781" data-name="Grupo 957781" transform="translate(17.687 20.808)">
        <line id="Línea_157" data-name="Línea 157" x2="25.355" transform="translate(0 32.906)" fill="none" stroke="#000" stroke-linecap="round" stroke-linejoin="round" stroke-miterlimit="10" stroke-width="2"/>
        <line id="Línea_158" data-name="Línea 158" x2="25.355" transform="translate(0 28.793)" fill="none" stroke="#000" stroke-linecap="round" stroke-linejoin="round" stroke-miterlimit="10" stroke-width="2"/>
        <line id="Línea_159" data-name="Línea 159" x2="25.355" transform="translate(0 24.68)" fill="none" stroke="#000" stroke-linecap="round" stroke-linejoin="round" stroke-miterlimit="10" stroke-width="2"/>
        <line id="Línea_160" data-name="Línea 160" x2="25.355" transform="translate(0 20.566)" fill="none" stroke="#000" stroke-linecap="round" stroke-linejoin="round" stroke-miterlimit="10" stroke-width="2"/>
        <line id="Línea_161" data-name="Línea 161" x2="25.355" transform="translate(0 16.453)" fill="none" stroke="#000" stroke-linecap="round" stroke-linejoin="round" stroke-miterlimit="10" stroke-width="2"/>
        <line id="Línea_162" data-name="Línea 162" x2="25.355" transform="translate(0 12.34)" fill="none" stroke="#000" stroke-linecap="round" stroke-linejoin="round" stroke-miterlimit="10" stroke-width="2"/>
        <line id="Línea_163" data-name="Línea 163" x2="25.355" transform="translate(0 8.227)" fill="none" stroke="#000" stroke-linecap="round" stroke-linejoin="round" stroke-miterlimit="10" stroke-width="2"/>
        <line id="Línea_164" data-name="Línea 164" x2="25.355" transform="translate(0 4.113)" fill="none" stroke="#000" stroke-linecap="round" stroke-linejoin="round" stroke-miterlimit="10" stroke-width="2"/>
        <line id="Línea_165" data-name="Línea 165" x2="25.355" transform="translate(0)" fill="none" stroke="#000" stroke-linecap="round" stroke-linejoin="round" stroke-miterlimit="10" stroke-width="2"/>
      </g>
      <circle id="Elipse_6719" data-name="Elipse 6719" cx="13.654" cy="13.654" r="13.654" transform="translate(37.223 29.035)" fill="#34bc85"/>
      <path id="Trazado_725343" data-name="Trazado 725343" d="M373.473,195.063a13.789,13.789,0,0,0-1.564.09,13.654,13.654,0,0,1,0,27.129,13.792,13.792,0,0,0,1.564.09,13.654,13.654,0,0,0,0-27.308Z" transform="translate(-322.596 -166.028)" fill="#acffdd"/>
      <g id="Grupo_957782" data-name="Grupo 957782" transform="translate(42.657 36.539)">
        <path id="Trazado_725344" data-name="Trazado 725344" d="M319.959,272.764a1.913,1.913,0,0,1-1.357-.562l-4.141-4.141a1.919,1.919,0,0,1,2.714-2.714l2.783,2.783,7.1-7.1a1.919,1.919,0,0,1,2.714,2.714l-8.46,8.46A1.913,1.913,0,0,1,319.959,272.764Z" transform="translate(-313.899 -260.465)" fill="#faf7f8"/>
      </g>
      <g id="Grupo_957783" data-name="Grupo 957783" transform="translate(42.657 36.539)">
        <path id="Trazado_725345" data-name="Trazado 725345" d="M319.959,272.764a1.913,1.913,0,0,1-1.357-.562l-4.141-4.141a1.919,1.919,0,0,1,2.714-2.714l2.783,2.783,7.1-7.1a1.919,1.919,0,0,1,2.714,2.714l-8.46,8.46A1.913,1.913,0,0,1,319.959,272.764Z" transform="translate(-313.899 -260.465)" fill="none" stroke="#000" stroke-linecap="round" stroke-linejoin="round" stroke-miterlimit="10" stroke-width="2"/>
      </g>
      <path id="Trazado_725346" data-name="Trazado 725346" d="M289,198.279a13.647,13.647,0,1,0,2.265,2.44" transform="translate(-229.317 -166.028)" fill="none" stroke="#000" stroke-linecap="round" stroke-linejoin="round" stroke-miterlimit="10" stroke-width="2"/>
    </g>
  </g>
</svg>
