<svg xmlns="http://www.w3.org/2000/svg" width="127" height="127" viewBox="0 0 127 127">
  <g id="Grupo_965428" data-name="Grupo 965428" transform="translate(-527 -2032)">
    <path id="Trazado_730100" data-name="Trazado 730100" d="M63.5,0A63.5,63.5,0,1,1,0,63.5,63.5,63.5,0,0,1,63.5,0Z" transform="translate(527 2032)" fill="#badc61"/>
    <g id="comunidad_1_" data-name="comunidad (1)" transform="translate(551 2056)">
      <path id="Trazado_728796" data-name="Trazado 728796" d="M17.1,39.548v2.516H2V39.548a7.548,7.548,0,0,1,15.1,0Z" transform="translate(0.258 8)" fill="#fcd770"/>
      <path id="Trazado_728797" data-name="Trazado 728797" d="M37.562,55.157A7.532,7.532,0,0,1,41.1,61.548v2.516H26V61.548a7.546,7.546,0,0,1,11.562-6.391Z" transform="translate(6.452 13.677)" fill="#fcd770"/>
      <path id="Trazado_728798" data-name="Trazado 728798" d="M23.1,59.548v2.516H8V59.548a7.548,7.548,0,0,1,15.1,0Z" transform="translate(1.806 13.161)" fill="#ff826e"/>
      <path id="Trazado_728799" data-name="Trazado 728799" d="M65.1,39.548v2.516H50V39.548a7.548,7.548,0,0,1,15.1,0Z" transform="translate(12.645 8)" fill="#ff826e"/>
      <path id="Trazado_728800" data-name="Trazado 728800" d="M19.562,13.157A7.532,7.532,0,0,1,23.1,19.548v2.516H8V19.548a7.546,7.546,0,0,1,11.562-6.391Z" transform="translate(1.806 2.839)" fill="#e6e9ed"/>
      <path id="Trazado_728801" data-name="Trazado 728801" d="M47.535,13.157A7.546,7.546,0,0,1,59.1,19.548v2.516H44V19.548A7.532,7.532,0,0,1,47.535,13.157Z" transform="translate(11.097 2.839)" fill="#e6e9ed"/>
      <path id="Trazado_728802" data-name="Trazado 728802" d="M41.1,17.548v2.516H26V17.548a7.548,7.548,0,0,1,15.1,0Z" transform="translate(6.452 2.323)" fill="#b4dd7f"/>
      <path id="Trazado_728803" data-name="Trazado 728803" d="M41.1,39.548v2.516H26V39.548a7.548,7.548,0,0,1,15.1,0Z" transform="translate(6.452 8)" fill="#b4dd7f"/>
      <path id="Trazado_728804" data-name="Trazado 728804" d="M59.1,59.548v2.516H44V59.548a7.548,7.548,0,1,1,15.1,0Z" transform="translate(11.097 13.161)" fill="#b4dd7f"/>
      <g id="Grupo_964868" data-name="Grupo 964868" transform="translate(4.774 2.258)">
        <path id="Trazado_728805" data-name="Trazado 728805" d="M46.793,51.737a4.977,4.977,0,0,1-.793-2.7A5.032,5.032,0,0,1,51.032,44a5.052,5.052,0,0,1,5.032,5.032,5.03,5.03,0,0,1-9.272,2.7Z" transform="translate(6.839 8.839)" fill="#f0d0b4"/>
        <circle id="Elipse_5822" data-name="Elipse 5822" cx="5" cy="5" r="5" transform="translate(30.226 55.742)" fill="#f0d0b4"/>
        <path id="Trazado_728806" data-name="Trazado 728806" d="M19.272,51.737A5.03,5.03,0,0,1,10,49.032,5.052,5.052,0,0,1,15.032,44a5.032,5.032,0,0,1,5.032,5.032A4.977,4.977,0,0,1,19.272,51.737Z" transform="translate(-2.452 8.839)" fill="#f0d0b4"/>
        <circle id="Elipse_5823" data-name="Elipse 5823" cx="5" cy="5" r="5" transform="translate(30.226 27.742)" fill="#f0d0b4"/>
        <path id="Trazado_728807" data-name="Trazado 728807" d="M57.032,24a5.036,5.036,0,1,1-1.22.151A4.914,4.914,0,0,1,57.032,24Z" transform="translate(8.387 3.677)" fill="#f0d0b4"/>
        <circle id="Elipse_5824" data-name="Elipse 5824" cx="5" cy="5" r="5" transform="translate(53.226 2.742)" fill="#f0d0b4"/>
        <path id="Trazado_728808" data-name="Trazado 728808" d="M37.272,9.737a5.028,5.028,0,1,1,.793-2.7A5.023,5.023,0,0,1,37.272,9.737Z" transform="translate(2.194 -2)" fill="#f0d0b4"/>
        <circle id="Elipse_5825" data-name="Elipse 5825" cx="5" cy="5" r="5" transform="translate(7.226 2.742)" fill="#f0d0b4"/>
        <path id="Trazado_728809" data-name="Trazado 728809" d="M10.253,24.151A5.03,5.03,0,1,1,9.032,24,4.914,4.914,0,0,1,10.253,24.151Z" transform="translate(-4 3.677)" fill="#f0d0b4"/>
      </g>
      <path id="Trazado_728810" data-name="Trazado 728810" d="M79,51.323V47.548a8.81,8.81,0,0,0-4.754-7.81,6.263,6.263,0,0,0-4.052-11.061c-.156,0-.3.035-.457.047l-1.282-2.563h3V22.387a8.81,8.81,0,0,0-4.754-7.81,6.29,6.29,0,1,0-8.1,0,.505.505,0,0,0-.045.023L45.919,9.337A6.212,6.212,0,0,0,46.29,7.29a6.29,6.29,0,1,0-12.581,0,6.212,6.212,0,0,0,.371,2.047L21.454,14.6c-.015-.008-.031-.014-.045-.023a6.291,6.291,0,1,0-8.106,0,8.81,8.81,0,0,0-4.754,7.81v3.774h3l-1.281,2.563c-.155-.011-.3-.047-.458-.047A6.263,6.263,0,0,0,5.754,39.738,8.81,8.81,0,0,0,1,47.548v3.774h9.273L12.567,56.1a6.184,6.184,0,0,0,.736,8.8,8.81,8.81,0,0,0-4.754,7.81v3.774H26.161V72.71a8.81,8.81,0,0,0-4.754-7.81,6.229,6.229,0,0,0,.57-.538L33.594,69.2a8.765,8.765,0,0,0-2.4,6.024V79H48.806V75.226a8.765,8.765,0,0,0-2.4-6.024l11.617-4.841a6.229,6.229,0,0,0,.57.538,8.81,8.81,0,0,0-4.754,7.81v3.774H71.452V72.71A8.81,8.81,0,0,0,66.7,64.9a6.184,6.184,0,0,0,.736-8.8l2.293-4.776Zm-2.516-3.774v1.258H63.9V47.548a6.29,6.29,0,0,1,12.581,0ZM73.968,34.968a3.774,3.774,0,1,1-3.774-3.774A3.779,3.779,0,0,1,73.968,34.968Zm-6.692-5.539a6.209,6.209,0,0,0-2.082,9.313H45a6.227,6.227,0,0,0,1.232-3.194l9.386-9.386H65.642ZM46.29,47.548v1.258H33.71V47.548a6.29,6.29,0,1,1,12.581,0ZM40,66.419a3.774,3.774,0,1,1,3.774-3.774A3.779,3.779,0,0,1,40,66.419ZM36.226,34.968A3.774,3.774,0,1,1,40,38.742,3.779,3.779,0,0,1,36.226,34.968ZM33.71,21.129V19.871a6.29,6.29,0,1,1,12.581,0v1.258Zm35.226,1.258v1.258H56.355V22.387a6.29,6.29,0,1,1,12.581,0ZM58.871,9.806a3.774,3.774,0,1,1,3.774,3.774A3.779,3.779,0,0,1,58.871,9.806Zm-2.632,6.557a8.765,8.765,0,0,0-2.4,6.024v2l-8.077,8.077a6.308,6.308,0,0,0-4.5-3.655V23.645h7.548V19.871a8.81,8.81,0,0,0-4.754-7.81,6.229,6.229,0,0,0,.57-.538ZM40,3.516A3.774,3.774,0,1,1,36.226,7.29,3.779,3.779,0,0,1,40,3.516Zm-4.052,8.545a8.81,8.81,0,0,0-4.754,7.81v3.774h7.548V28.8a6.308,6.308,0,0,0-4.5,3.655l-8.077-8.077v-2a8.765,8.765,0,0,0-2.4-6.024l11.617-4.841a6.23,6.23,0,0,0,.57.538ZM13.581,9.806a3.774,3.774,0,1,1,3.774,3.774A3.779,3.779,0,0,1,13.581,9.806ZM11.065,22.387a6.29,6.29,0,0,1,12.581,0v1.258H11.065Zm3.294,3.774H24.382l9.386,9.386A6.227,6.227,0,0,0,35,38.742H14.806a6.209,6.209,0,0,0-2.082-9.313ZM6.032,34.968a3.774,3.774,0,1,1,3.774,3.774A3.779,3.779,0,0,1,6.032,34.968ZM3.516,47.548a6.29,6.29,0,1,1,12.581,0v1.258H3.516Zm15.1,3.774V47.548a8.773,8.773,0,0,0-2.656-6.29H33.848A8.774,8.774,0,0,0,31.22,47l-9.087,9.087a6.151,6.151,0,0,0-7.54-1.581l-1.53-3.183ZM23.645,72.71v1.258H11.065V72.71a6.29,6.29,0,1,1,12.581,0ZM13.581,60.129A3.774,3.774,0,1,1,17.355,63.9,3.779,3.779,0,0,1,13.581,60.129Zm10.065,0a6.211,6.211,0,0,0-.27-1.725l7.819-7.819v.737h7.548v5.159a6.259,6.259,0,0,0-2.794,10.934c-.015.008-.031.014-.045.023L23.275,62.177a6.258,6.258,0,0,0,.37-2.048ZM46.29,76.484H33.71V75.226a6.29,6.29,0,0,1,12.581,0ZM44.1,67.438a.506.506,0,0,1-.045-.023,6.259,6.259,0,0,0-2.8-10.934V51.323h7.548v-.737L56.625,58.4a5.739,5.739,0,0,0,.1,3.772ZM68.935,72.71v1.258H56.355V72.71a6.29,6.29,0,1,1,12.581,0ZM58.871,60.129A3.774,3.774,0,1,1,62.645,63.9,3.779,3.779,0,0,1,58.871,60.129Zm6.536-5.624a6.153,6.153,0,0,0-7.541,1.581L48.779,47a8.774,8.774,0,0,0-2.628-5.742H64.042a8.777,8.777,0,0,0-2.655,6.29v3.774h5.549Z" transform="translate(0 0)" fill="#12263f"/>
    </g>
  </g>
</svg>
