<svg xmlns="http://www.w3.org/2000/svg" xmlns:xlink="http://www.w3.org/1999/xlink" width="127" height="127" viewBox="0 0 127 127">
  <defs>
    <clipPath id="clip-path">
      <path id="path4029" d="M0-682.665H73.533v74.832H0Z" transform="translate(0 682.665)"/>
    </clipPath>
  </defs>
  <g id="Grupo_965424" data-name="Grupo 965424" transform="translate(2255 9802)">
    <circle id="Elipse_5811" data-name="Elipse 5811" cx="63.5" cy="63.5" r="63.5" transform="translate(-2255 -9802)" fill="#badc61"/>
    <g id="g4023" transform="translate(-2225.533 -9091.167)">
      <g id="g4025" transform="translate(0 -682.665)">
        <g id="g4027" clip-path="url(#clip-path)">
          <g id="g4033" transform="translate(7.1 19.293)">
            <path id="path4035" d="M-393.939-197.071a24.023,24.023,0,0,1-23.778,24.262,24.023,24.023,0,0,1-23.777-24.262,24.023,24.023,0,0,1,23.777-24.262,24.023,24.023,0,0,1,23.778,24.262" transform="translate(441.494 221.333)" fill="#97c9e8"/>
          </g>
          <g id="g4037" transform="translate(27.287 19.293)">
            <path id="path4039" d="M-29.743,0a23.5,23.5,0,0,0-3.59.275A24.12,24.12,0,0,1-13.146,24.262,24.12,24.12,0,0,1-33.333,48.249a23.5,23.5,0,0,0,3.59.275A24.023,24.023,0,0,0-5.965,24.262,24.023,24.023,0,0,0-29.743,0" transform="translate(33.333 0)" fill="#60b6ff"/>
          </g>
          <g id="g4041" transform="translate(22.731 19.341)">
            <path id="path4043" d="M-41.885-76.193c-3.663,2.336-6.41,6.073-4.35,10.278s6.639,2.569,10.874,1.986,1.03,12.731,3.548,16S-22.2-51.2-22.884-55.4c-1.017-6.226-1.374-8.409,6.868-12.847l.022-.008A23.9,23.9,0,0,0-37.306-85.573v.037s-.916,7.008-4.579,9.344" transform="translate(46.941 85.573)" fill="#baeb6c"/>
          </g>
          <g id="g4045" transform="translate(32.367 19.341)">
            <path id="path4047" d="M0,0Z" fill="#baeb6c"/>
          </g>
          <g id="g4049" transform="translate(45.776 24.646)">
            <path id="path4051" d="M0,0,0,0,0,0" fill="#baeb6c"/>
          </g>
          <g id="g4053" transform="translate(48.683 27.477)">
            <path id="path4055" d="M0,0H0" fill="#baeb6c"/>
          </g>
          <g id="g4057" transform="translate(7.1 35.1)">
            <path id="path4059" d="M-66.118-157.847c-1.1-1.707,1.946-5.723,2.633-8.76s-3.434-2.8-4.693-3.854-2.976-5.606-4.235-6.657l-.2-.162a24.648,24.648,0,0,0-1.485,8.454,24.386,24.386,0,0,0,9.691,19.546l.007-.508a11.337,11.337,0,0,0-1.717-8.059" transform="translate(74.1 177.28)" fill="#baeb6c"/>
          </g>
          <g id="g4061" transform="translate(44.798 49.42)">
            <path id="path4063" d="M-16.487-.737-16.5-.828A24.4,24.4,0,0,1-18.477,4.5c1.353-1.624,2.257-3.6,1.99-5.235" transform="translate(18.477 0.828)" fill="#baeb6c"/>
          </g>
          <g id="g4065" transform="translate(32.093 19.341)">
            <path id="path4067" d="M-2.274,0V.037s-.077.585-.273,1.472A24.215,24.215,0,0,1,12.735,21.984c1.051-1.462,2.973-2.881,6.281-4.662l.022-.008A23.9,23.9,0,0,0-2.274,0" transform="translate(2.548)" fill="#96d629"/>
          </g>
          <g id="g4069" transform="translate(5.675 1.141)">
            <path id="path4071" d="M-154.34-215.068c-11.5-1.985-18.631-16.718-18.631-16.718s11.51-11.514,23.008-9.529,18.631,16.718,18.631,16.718-11.509,11.514-23.008,9.529" transform="translate(172.972 241.546)" fill="#49cb5c"/>
          </g>
          <g id="g4073" transform="translate(22.176 1.142)">
            <path id="path4075" d="M-53.9-1.866a17.543,17.543,0,0,0-6.507.166C-49.393.819-42.6,14.852-42.6,14.852s-7.534,7.536-16.5,9.363c.27.062.542.119.817.166,11.5,1.985,23.008-9.529,23.008-9.529S-42.4.119-53.9-1.866" transform="translate(60.411 2.095)" fill="#07b128"/>
          </g>
          <g id="g4077" transform="translate(54.218 3.389)">
            <path id="path4079" d="M-7.6-80.648c3.085-7.428,13.772-9.929,13.772-9.929s5.687,9.542,2.6,16.97S-4.994-63.678-4.994-63.678s-5.687-9.542-2.6-16.97" transform="translate(8.513 90.577)" fill="#49cb5c"/>
          </g>
          <g id="g4081" transform="translate(56.726 3.389)">
            <path id="path4083" d="M-100.909,0a28.247,28.247,0,0,0-5.308,1.97c1.476,3.183,3.816,9.641,1.591,15-1.614,3.886-5.308,6.423-8.464,7.959.57,1.229,1.011,1.97,1.011,1.97s10.688-2.5,13.772-9.929S-100.909,0-100.909,0" transform="translate(113.09)" fill="#07b128"/>
          </g>
          <g id="g4085" transform="translate(0.026 0.006)">
            <path id="path4087" d="M-433.855-295.2c-3.883,2.105-5.785,3.759-6.687,5.777-.969,2.166-.614,4.492-.122,7.71.29,1.9-1.926,5.431-4.83,6.7-1.074.468-1.839.412-2.275-.165-.856-1.134-.833-4.564-.814-7.321.026-3.814.048-7.107-1.5-8.507a2.51,2.51,0,0,0-2.058-.617c-.677.086-1.364.2-2.028.3-3.959.643-6.451.9-7.742-1.8-2.091-4.374,2.142-7.614,4.059-8.8a6.885,6.885,0,0,0,1.09-.845,31.006,31.006,0,0,0,12.914-5.121,23.194,23.194,0,0,1,9.992,12.693m-29.229-21.406,8.934,1.772-11.466,8.553a22.293,22.293,0,0,1-5.811-4.1Zm.67-2.1-6.336-8.8a23.9,23.9,0,0,1,6.02-1.7l8.766,12.167Zm-8.343-7.873,5.226,7.254-12.573-2.494a42.325,42.325,0,0,1,7.346-4.76m-2.207,14.625a42.657,42.657,0,0,1-5.491-7.7l12.492,2.478Zm10.9,6.859c-.381-.076-.756-.169-1.127-.274l11.922-8.894,9.815,1.947c-3.575,2.867-12.278,8.881-20.611,7.22m38.841.624a28.408,28.408,0,0,1-3.3,1.42l3.245-7.9,8.26-3.469a10.76,10.76,0,0,1-.72,2.771c-1.459,3.514-4.878,5.841-7.489,7.174m-6.9-13.362a10.455,10.455,0,0,1,1.2-2.128l3.485,8.593-3.128,7.609a29.578,29.578,0,0,1-1.4-3.61c-.88-2.834-1.624-6.95-.164-10.465m12.879-7.782a29.56,29.56,0,0,1,1.347,3.5,21.248,21.248,0,0,1,.976,5.285l-7.174,3.012Zm-7.018,11.393-3.061-7.549a20.145,20.145,0,0,1,4.69-3.236,28.453,28.453,0,0,1,3.4-1.458Zm-52.115,21.542A13.679,13.679,0,0,0-474.035-289a6.121,6.121,0,0,0,2.156.975c2.105.659,2.35.982,2.148,1.829a19.348,19.348,0,0,1-1.423,3.489c-1.112,2.316-2.163,4.5-1.167,6.083a10.568,10.568,0,0,1,1.63,5.816,23.63,23.63,0,0,1-6.638-23.639c.317.552.65,1.194.948,1.768m62.519-30.142a30.4,30.4,0,0,0-2.563-5.936,1.091,1.091,0,0,0-1.162-.5,29.288,29.288,0,0,0-5.969,2.266c-4.233,2.151-7.191,5.023-8.554,8.3a16.35,16.35,0,0,0-.492,9.762,30.72,30.72,0,0,0-5.743-5.087,45.42,45.42,0,0,0-4.992-7.786c-.873-1.092-2.554.279-1.672,1.383a43.885,43.885,0,0,1,3.974,5.949l-9.811-1.946-9.323-12.941a15,15,0,0,1,2.718.283,18.489,18.489,0,0,1,8.414,4.413c1.065.924,2.448-.757,1.4-1.669a20.588,20.588,0,0,0-9.4-4.9c-4.935-.983-10.692.307-16.648,3.732a43.064,43.064,0,0,0-7.532,5.475,1.175,1.175,0,0,0-.128,1.5,44.88,44.88,0,0,0,4.831,7.718,34,34,0,0,0,5.092,5.326q-.752.641-1.463,1.346a25.308,25.308,0,0,0-5.725,8.716,25.715,25.715,0,0,0-1.758,9.117,25.506,25.506,0,0,0,4.275,14.478,24.957,24.957,0,0,0,11.265,9.285,1.1,1.1,0,0,0,.81-2.032,22.616,22.616,0,0,1-4.659-2.608,12.532,12.532,0,0,0-1.829-8.646c-.341-.541.68-2.666,1.29-3.936a20.787,20.787,0,0,0,1.582-3.935,3.029,3.029,0,0,0-1.048-3.286,7.876,7.876,0,0,0-2.561-1.155,5.427,5.427,0,0,1-1.407-.561,14.622,14.622,0,0,1-1.824-3.02A18.792,18.792,0,0,0-476.445-297a23.277,23.277,0,0,1,6.8-9.117,18.637,18.637,0,0,0,9.077,3.432c-3.807,3-5.038,6.835-3.278,10.517,2.055,4.3,6.286,3.613,10.018,3.007.646-.1,1.314-.213,1.954-.294.24-.031.312.036.361.079.817.74.793,4.274.776,6.854-.024,3.569-.047,6.94,1.26,8.672a3.267,3.267,0,0,0,2.705,1.333,5.356,5.356,0,0,0,2.126-.489c3.249-1.416,6.626-5.677,6.111-9.049-.45-2.948-.748-4.9-.046-6.465.65-1.453,2.22-2.8,5.311-4.514a23.511,23.511,0,0,1,.538,5.273,23.188,23.188,0,0,1-6.836,16.29,22.634,22.634,0,0,1-18.419,6.46,1.1,1.1,0,0,0-.236,2.179,24.778,24.778,0,0,0,20.161-7.072,25.385,25.385,0,0,0,7.484-17.833,25.457,25.457,0,0,0-11.315-21.5c1.423-1.033,2.483-1.926,3.071-2.444a28.9,28.9,0,0,1,6.591,6.723,29.3,29.3,0,0,1,4.968,21.688,28.684,28.684,0,0,1-32.87,23.966,28.347,28.347,0,0,1-18.583-11.76,29.3,29.3,0,0,1-4.969-21.688,1.078,1.078,0,0,0-2.125-.357,31.51,31.51,0,0,0,5.343,23.322,30.483,30.483,0,0,0,19.984,12.646,30.61,30.61,0,0,0,5.076.426,30.165,30.165,0,0,0,17.843-5.862,31.159,31.159,0,0,0,12.428-20.335,31.571,31.571,0,0,0-2.135-17.586,30.742,30.742,0,0,0,4.966-1.991c4.233-2.151,7.191-5.023,8.554-8.3s1.324-7.441-.11-12.03" transform="translate(486.228 331.542)"/>
          </g>
        </g>
      </g>
    </g>
  </g>
</svg>
