<svg xmlns="http://www.w3.org/2000/svg" xmlns:xlink="http://www.w3.org/1999/xlink" width="127" height="127" viewBox="0 0 127 127">
  <defs>
    <clipPath id="clip-path">
      <path id="path6700" d="M0-682.665H77.66V-605H0Z" transform="translate(0 682.665)"/>
    </clipPath>
  </defs>
  <g id="Grupo_965426" data-name="Grupo 965426" transform="translate(1834 9802)">
    <circle id="Elipse_5812" data-name="Elipse 5812" cx="63.5" cy="63.5" r="63.5" transform="translate(-1834 -9802)" fill="#badc61"/>
    <g id="g6690" transform="translate(-1809 -9094.335)">
      <g id="g6692" transform="translate(4.475 -678.19)">
        <path id="path6694" d="M-85.969-180.887l12.184-12.184L-84.82-204.106-97-191.922Z" transform="translate(97.004 204.106)" fill="#a2e62e"/>
      </g>
      <g id="g6696" transform="translate(0 -682.665)">
        <g id="g6698" clip-path="url(#clip-path)">
          <g id="g6704" transform="translate(3.094 14.263)">
            <path id="path6706" d="M-115.4-138.424h0a4.761,4.761,0,0,1-6.733,0l-5.99-5.99a7.136,7.136,0,0,1,0-10.091l1.688-1.688,11.035,11.035a4.761,4.761,0,0,1,0,6.733" transform="translate(130.212 156.193)" fill="#bbec6c"/>
          </g>
          <g id="g6708" transform="translate(3.094 14.263)">
            <path id="path6710" d="M-123.429-126.437a4.741,4.741,0,0,1-1.03,1.54,4.762,4.762,0,0,1-6.734,0l-5.988-5.99a7.133,7.133,0,0,1,0-10.091l1.687-1.688.079.079a7.133,7.133,0,0,0,.807,9.128l5.988,5.99a4.765,4.765,0,0,0,5.192,1.033" transform="translate(139.273 142.666)" fill="#a2e62e"/>
          </g>
          <g id="g6712" transform="translate(4.475 49.966)">
            <path id="path6714" d="M-180.887-94.917-193.071-107.1l-11.035,11.035,12.184,12.184Z" transform="translate(204.106 107.101)" fill="#5f99d7"/>
          </g>
          <g id="g6716" transform="translate(14.263 58.359)">
            <path id="path6718" d="M-138.424-10.864h0a4.761,4.761,0,0,1,0,6.733l-5.99,5.99a7.136,7.136,0,0,1-10.091,0L-156.193.172l11.035-11.035a4.761,4.761,0,0,1,6.733,0" transform="translate(156.193 12.258)" fill="#7bacdf"/>
          </g>
          <g id="g6720" transform="translate(14.262 58.359)">
            <path id="path6722" d="M-145.3-20.333a4.757,4.757,0,0,0-5.521.878l-11.02,11.018c-.144-.121-.285-.252-.422-.388l-1.688-1.688,11.035-11.036a4.765,4.765,0,0,1,6.735,0,4.7,4.7,0,0,1,.881,1.216" transform="translate(163.946 22.943)" fill="#5f99d7"/>
          </g>
          <g id="g6724" transform="translate(49.966 4.475)">
            <path id="path6726" d="M0-85.969,12.184-73.785,23.219-84.82,11.035-97Z" transform="translate(0 97.004)" fill="#dedbee"/>
          </g>
          <g id="g6728" transform="translate(44.234 3.094)">
            <path id="path6730" d="M-10.864-115.4h0a4.761,4.761,0,0,1,0-6.733l5.99-5.99a7.136,7.136,0,0,1,10.091,0L6.9-126.434-4.131-115.4a4.761,4.761,0,0,1-6.733,0" transform="translate(12.259 130.212)" fill="#faf7f7"/>
          </g>
          <g id="g6732" transform="translate(44.234 3.093)">
            <path id="path6734" d="M-22.859-123.429a4.741,4.741,0,0,1-1.54-1.03,4.762,4.762,0,0,1,0-6.735l5.99-5.988a7.133,7.133,0,0,1,10.091,0l1.688,1.687-.079.079a7.133,7.133,0,0,0-9.128.807l-5.99,5.988a4.766,4.766,0,0,0-1.033,5.192" transform="translate(25.793 139.273)" fill="#dedbee"/>
          </g>
          <g id="g6736" transform="translate(49.966 49.966)">
            <path id="path6738" d="M-94.917,0-107.1,12.184l11.035,11.035,12.184-12.184Z" transform="translate(107.101)" fill="#fd4755"/>
          </g>
          <g id="g6740" transform="translate(58.359 44.234)">
            <path id="path6742" d="M-10.864-10.864h0a4.761,4.761,0,0,1,6.733,0l5.99,5.99a7.136,7.136,0,0,1,0,10.091L.172,6.9-10.864-4.131a4.761,4.761,0,0,1,0-6.733" transform="translate(12.258 12.259)" fill="#fe646f"/>
          </g>
          <g id="g6744" transform="translate(58.359 44.747)">
            <path id="path6746" d="M-20.333,0a4.757,4.757,0,0,0,.878,5.521l11.018,11.02c-.121.144-.252.285-.388.422l-1.688,1.688L-21.55,7.616a4.765,4.765,0,0,1,0-6.735A4.7,4.7,0,0,1-20.333,0" transform="translate(22.943)" fill="#fd4755"/>
          </g>
          <g id="g6748" transform="translate(3.037 3.037)">
            <path id="path6750" d="M-257.053-9.025l-31.838,31.838a3.956,3.956,0,0,0,0,5.594l31.838,31.838a3.956,3.956,0,0,0,5.594,0l31.838-31.838a3.956,3.956,0,0,0,0-5.594L-251.459-9.025a3.955,3.955,0,0,0-5.594,0" transform="translate(290.049 10.184)" fill="#d9e2f4"/>
          </g>
          <g id="g6752" transform="translate(3.037 3.036)">
            <path id="path6754" d="M-62.291-300.626l31.216,31.216-.622.622a3.954,3.954,0,0,1-5.594,0l-31.838-31.838a3.955,3.955,0,0,1,0-5.592l31.838-31.838a3.954,3.954,0,0,1,5.594,0l.622.622-31.216,31.216a3.955,3.955,0,0,0,0,5.592" transform="translate(70.286 339.215)" fill="#a7bce6"/>
          </g>
          <g id="g6756" transform="translate(27.047 32.909)">
            <path id="path6758" d="M-71.582-167.163l-9.188-9.188L-68.5-188.621l9.188,9.188Z" transform="translate(80.77 188.621)" fill="#dedbee"/>
          </g>
          <g id="g6760" transform="translate(31.677 32.909)">
            <path id="path6762" d="M-5.613-53.9l6.918-6.918,9.189,9.189L-1.775-39.355l-4.558-4.558" transform="translate(6.333 60.813)" fill="none" stroke="#000" stroke-linecap="round" stroke-linejoin="round" stroke-miterlimit="10" stroke-width="2"/>
          </g>
          <g id="g6764" transform="translate(15.57 35.269)">
            <path id="path6766" d="M-71.582-167.164l-9.188-9.188L-68.5-188.622l9.188,9.188Z" transform="translate(80.77 188.622)" fill="#faf7f7"/>
          </g>
          <g id="g6768" transform="translate(19.15 35.269)">
            <path id="path6770" d="M0-123.482l5.608,5.608,6.92-6.918,5.35-5.351-4.629-4.631L8.69-139.333.645-131.288" transform="translate(0 139.333)" fill="none" stroke="#000" stroke-linecap="round" stroke-linejoin="round" stroke-miterlimit="10" stroke-width="2"/>
          </g>
          <g id="g6772" transform="translate(53.851 30.544)">
            <path id="path6774" d="M-110.035,0l5.489,5.489a3.957,3.957,0,0,1,0,5.594L-124.16,30.7" transform="translate(124.16)" fill="none" stroke="#000" stroke-linecap="round" stroke-linejoin="round" stroke-miterlimit="10" stroke-width="2"/>
          </g>
          <g id="g6776" transform="translate(3.037 16.419)">
            <path id="path6778" d="M-51.786-239.142l-5.489-5.489a3.957,3.957,0,0,1,0-5.594l19.615-19.614" transform="translate(58.433 269.839)" fill="none" stroke="#000" stroke-linecap="round" stroke-linejoin="round" stroke-miterlimit="10" stroke-width="2"/>
          </g>
          <g id="g6780" transform="translate(16.419 53.851)">
            <path id="path6782" d="M0,0,19.614,19.614a3.956,3.956,0,0,0,5.594,0L30.7,14.124" fill="none" stroke="#000" stroke-linecap="round" stroke-linejoin="round" stroke-miterlimit="10" stroke-width="2"/>
          </g>
          <g id="g6784" transform="translate(30.544 3.037)">
            <path id="path6786" d="M0-51.786l5.489-5.489a3.957,3.957,0,0,1,5.594,0L30.7-37.66" transform="translate(0 58.433)" fill="none" stroke="#000" stroke-linecap="round" stroke-linejoin="round" stroke-miterlimit="10" stroke-width="2"/>
          </g>
          <g id="g6788" transform="translate(67.975 47.116)">
            <path id="path6790" d="M0,0,4.5,4.5a7.139,7.139,0,0,1,1.1,8.683" fill="none" stroke="#000" stroke-linecap="round" stroke-linejoin="round" stroke-miterlimit="10" stroke-width="2"/>
          </g>
          <g id="g6792" transform="translate(61.241 53.85)">
            <path id="path6794" d="M0,0,4.069,4.069" fill="none" stroke="#000" stroke-linecap="round" stroke-linejoin="round" stroke-miterlimit="10" stroke-width="2"/>
          </g>
          <g id="g6796" transform="translate(42.125 56.25)">
            <path id="path6798" d="M-10.864-10.864h0a4.761,4.761,0,0,0,0,6.733l8.1,8.1a7.136,7.136,0,0,0,10.091,0L9.014,2.28-4.13-10.864a4.761,4.761,0,0,0-6.733,0" transform="translate(12.258 12.259)" fill="#fe646f"/>
          </g>
          <g id="g6800" transform="translate(42.125 56.765)">
            <path id="path6802" d="M-20.318,0a4.758,4.758,0,0,0,.88,5.52l8.1,8.1a7.133,7.133,0,0,0,9.67.39l.017.017-1.688,1.688a7.136,7.136,0,0,1-10.091,0l-8.1-8.1a4.76,4.76,0,0,1,0-6.733A4.691,4.691,0,0,1-20.318,0" transform="translate(22.927 0)" fill="#fd4755"/>
          </g>
          <g id="g6804" transform="translate(42.125 56.25)">
            <path id="path6806" d="M-141.6-134.95a7.139,7.139,0,0,1-8.683-1.1l-8.1-8.1a4.761,4.761,0,0,1,0-6.732,4.761,4.761,0,0,1,6.734,0l7.666,7.666" transform="translate(159.776 152.273)" fill="none" stroke="#000" stroke-linecap="round" stroke-linejoin="round" stroke-miterlimit="10" stroke-width="2"/>
          </g>
          <g id="g6808" transform="translate(57.742 57.742)">
            <path id="path6810" d="M-21.427-124.879a9.39,9.39,0,0,1,0-13.279,9.39,9.39,0,0,1,13.279,0c.142.142.28.288.409.437-1.248,1.959,0,8.145-2.553,10.7s-8.661.992-10.7,2.551c-.149-.129-.294-.266-.436-.408" transform="translate(24.177 140.909)" fill="#ffdfcf"/>
          </g>
          <g id="g6812" transform="translate(57.742 58.926)">
            <path id="path6814" d="M-91.418-108.1c-2.921.839-6.964.167-8.549,1.379-.149-.13-.294-.267-.435-.408a9.389,9.389,0,0,1,0-13.28,9.408,9.408,0,0,1,2.069-1.567,9.39,9.39,0,0,0,1.562,11.214c.143.143.287.279.435.408a9.333,9.333,0,0,0,4.917,2.254" transform="translate(103.153 121.973)" fill="#ffcebf"/>
          </g>
          <g id="g6816" transform="translate(60.929 60.93)">
            <path id="path6818" d="M0-103.222a13.847,13.847,0,0,1,4.057-9.195,13.835,13.835,0,0,1,9.2-4.055,9.388,9.388,0,0,1-.409,12.842A9.389,9.389,0,0,1,0-103.222" transform="translate(0 116.472)" fill="#ffd15b"/>
          </g>
          <g id="g6820" transform="translate(60.928 68.156)">
            <path id="path6822" d="M-112.257-27.639a9.353,9.353,0,0,1-1.565,2.069,9.39,9.39,0,0,1-12.844.408,13.883,13.883,0,0,1,1.679-6.025A9.329,9.329,0,0,0-123.47-29.2c.143.143.287.279.435.408a9.393,9.393,0,0,0,10.778,1.156" transform="translate(126.666 31.187)" fill="#ffc344"/>
          </g>
          <g id="g6824" transform="translate(57.742 57.742)">
            <path id="path6826" d="M-21.426-124.88a9.39,9.39,0,0,1,0-13.28,9.39,9.39,0,0,1,13.28,0,9.39,9.39,0,0,1,0,13.28A9.39,9.39,0,0,1-21.426-124.88Z" transform="translate(24.176 140.91)" fill="none" stroke="#000" stroke-linecap="round" stroke-linejoin="round" stroke-miterlimit="10" stroke-width="2"/>
          </g>
          <g id="g6828" transform="translate(60.93 60.93)">
            <path id="path6830" d="M-103.232,0a13.835,13.835,0,0,0-9.2,4.055,13.835,13.835,0,0,0-4.055,9.2" transform="translate(116.484)" fill="none" stroke="#000" stroke-linecap="round" stroke-linejoin="round" stroke-miterlimit="10" stroke-width="2"/>
          </g>
          <g id="g6832" transform="translate(47.116 3.093)">
            <path id="path6834" d="M0-51.355l4.5-4.5a7.14,7.14,0,0,1,8.683-1.1" transform="translate(0 57.947)" fill="none" stroke="#000" stroke-linecap="round" stroke-linejoin="round" stroke-miterlimit="10" stroke-width="2"/>
          </g>
          <g id="g6836" transform="translate(53.85 12.35)">
            <path id="path6838" d="M0-31.7l4.069-4.069" transform="translate(0 35.771)" fill="none" stroke="#000" stroke-linecap="round" stroke-linejoin="round" stroke-miterlimit="10" stroke-width="2"/>
          </g>
          <g id="g6840" transform="translate(56.25 14.263)">
            <path id="path6842" d="M-10.864-154.855h0a4.761,4.761,0,0,0,6.733,0l8.1-8.1a7.136,7.136,0,0,0,0-10.091l-1.688-1.688-13.144,13.144a4.761,4.761,0,0,0,0,6.733" transform="translate(12.258 174.733)" fill="#faf7f7"/>
          </g>
          <g id="g6844" transform="translate(56.25 14.262)">
            <path id="path6846" d="M-22.871-162.89a4.751,4.751,0,0,1-1.541-1.031,4.76,4.76,0,0,1,0-6.733L-11.267-183.8l1.688,1.688a7.072,7.072,0,0,1,.807.962l-13.067,13.067a4.761,4.761,0,0,0-1.031,5.192" transform="translate(25.807 183.8)" fill="#dedbee"/>
          </g>
          <g id="g6848" transform="translate(56.25 17.359)">
            <path id="path6850" d="M-134.95,0a7.139,7.139,0,0,1-1.1,8.683l-8.1,8.1a4.761,4.761,0,0,1-6.732,0,4.761,4.761,0,0,1,0-6.734l7.666-7.666" transform="translate(152.273)" fill="none" stroke="#000" stroke-linecap="round" stroke-linejoin="round" stroke-miterlimit="10" stroke-width="2"/>
          </g>
          <g id="g6852" transform="translate(57.742 3.479)">
            <path id="path6854" d="M-124.879-106.64a9.39,9.39,0,0,1-13.279,0,9.39,9.39,0,0,1,0-13.279c.142-.142.288-.28.437-.409,1.959,1.248,8.145,0,10.7,2.553s.992,8.661,2.551,10.7c-.129.149-.266.294-.408.436" transform="translate(140.909 120.329)" fill="#d78878"/>
          </g>
          <g id="g6856" transform="translate(57.742 3.478)">
            <path id="path6858" d="M-35.621-117.716a9.391,9.391,0,0,1-1.822-1.421,9.389,9.389,0,0,1,0-13.28c.143-.143.288-.281.437-.41,1.359.866,4.748.531,7.551,1.1a9.324,9.324,0,0,0-4.306,2.148c-.15.13-.3.268-.438.41a9.39,9.39,0,0,0-1.421,11.458" transform="translate(40.193 132.826)" fill="#ca6e59"/>
          </g>
          <g id="g6860" transform="translate(60.93 1.138)">
            <path id="path6862" d="M-103.222-121.482a13.847,13.847,0,0,1-9.195-4.057,13.835,13.835,0,0,1-4.055-9.2,9.388,9.388,0,0,1,12.842.409,9.389,9.389,0,0,1,.408,12.844" transform="translate(116.472 137.076)" fill="#7a6d79"/>
          </g>
          <g id="g6864" transform="translate(60.93 1.138)">
            <path id="path6866" d="M-10.824-60.822a13.842,13.842,0,0,1-1.389-5.467,9.39,9.39,0,0,1,12.843.41,9.391,9.391,0,0,1,1.421,1.822,9.39,9.39,0,0,0-11.02,1.012c-.15.13-.3.268-.438.41a9.334,9.334,0,0,0-1.417,1.814" transform="translate(12.213 68.629)" fill="#685e68"/>
          </g>
          <g id="g6868" transform="translate(57.742 1.138)">
            <path id="path6870" d="M-124.88-124.88a9.39,9.39,0,0,1-13.28,0,9.39,9.39,0,0,1,0-13.28,9.39,9.39,0,0,1,13.28,0A9.39,9.39,0,0,1-124.88-124.88Z" transform="translate(140.91 140.91)" fill="none" stroke="#000" stroke-linecap="round" stroke-linejoin="round" stroke-miterlimit="10" stroke-width="2"/>
          </g>
          <g id="g6872" transform="translate(60.93 3.479)">
            <path id="path6874" d="M0,0A13.835,13.835,0,0,0,4.055,9.2a13.835,13.835,0,0,0,9.2,4.055" fill="none" stroke="#000" stroke-linecap="round" stroke-linejoin="round" stroke-miterlimit="10" stroke-width="2"/>
          </g>
          <g id="g6876" transform="translate(17.359 67.975)">
            <path id="path6878" d="M-102.718,0l-4.5,4.5A7.139,7.139,0,0,1-115.9,5.6" transform="translate(115.904)" fill="none" stroke="#000" stroke-linecap="round" stroke-linejoin="round" stroke-miterlimit="10" stroke-width="2"/>
          </g>
          <g id="g6880" transform="translate(19.74 61.241)">
            <path id="path6882" d="M-31.7,0l-4.069,4.069" transform="translate(35.772)" fill="none" stroke="#000" stroke-linecap="round" stroke-linejoin="round" stroke-miterlimit="10" stroke-width="2"/>
          </g>
          <g id="g6884" transform="translate(3.094 42.125)">
            <path id="path6886" d="M-131.83-10.864h0a4.761,4.761,0,0,0-6.733,0l-8.1,8.1a7.136,7.136,0,0,0,0,10.091l1.688,1.688L-131.83-4.13a4.761,4.761,0,0,0,0-6.733" transform="translate(148.752 12.258)" fill="#7bacdf"/>
          </g>
          <g id="g6888" transform="translate(3.093 42.125)">
            <path id="path6890" d="M-138.687-20.318a4.758,4.758,0,0,0-5.52.88l-8.1,8.1a7.133,7.133,0,0,0-.39,9.67l-.017.017L-154.4-3.342a7.136,7.136,0,0,1,0-10.091l8.1-8.1a4.76,4.76,0,0,1,6.733,0,4.691,4.691,0,0,1,.88,1.213" transform="translate(156.49 22.927)" fill="#5f99d7"/>
          </g>
          <g id="g6892" transform="translate(3.093 42.125)">
            <path id="path6894" d="M-7.747-141.6a7.139,7.139,0,0,1,1.1-8.683l8.1-8.1a4.761,4.761,0,0,1,6.732,0,4.761,4.761,0,0,1,0,6.734L.516-143.982" transform="translate(8.741 159.776)" fill="none" stroke="#000" stroke-linecap="round" stroke-linejoin="round" stroke-miterlimit="10" stroke-width="2"/>
          </g>
          <g id="g6896" transform="translate(3.48 57.742)">
            <path id="path6898" d="M-3.176-21.427a9.39,9.39,0,0,1,13.279,0,9.39,9.39,0,0,1,0,13.279c-.142.142-.288.28-.437.409-1.959-1.248-8.145,0-10.7-2.553s-.992-8.661-2.551-10.7c.129-.149.266-.294.408-.436" transform="translate(3.584 24.177)" fill="#ffdfcf"/>
          </g>
          <g id="g6900" transform="translate(3.48 57.742)">
            <path id="path6902" d="M-10.741-91.418c-.839-2.921-.167-6.964-1.379-8.549.13-.149.267-.294.408-.435a9.389,9.389,0,0,1,13.28,0,9.408,9.408,0,0,1,1.567,2.069A9.39,9.39,0,0,0-8.079-96.771c-.143.143-.279.287-.408.435a9.333,9.333,0,0,0-2.254,4.917" transform="translate(12.12 103.153)" fill="#ffcebf"/>
          </g>
          <g id="g6904" transform="translate(1.138 60.929)">
            <path id="path6906" d="M-18.248,0A13.847,13.847,0,0,1-9.053,4.057,13.835,13.835,0,0,1-5,13.253a9.388,9.388,0,0,1-12.842-.409A9.389,9.389,0,0,1-18.248,0" transform="translate(20.59)" fill="#7a6d79"/>
          </g>
          <g id="g6908" transform="translate(1.138 60.928)">
            <path id="path6910" d="M-37.542-112.257a9.353,9.353,0,0,1-2.069-1.565,9.39,9.39,0,0,1-.408-12.844,13.879,13.879,0,0,1,6.025,1.679,9.329,9.329,0,0,0-1.984,1.517c-.143.143-.279.287-.408.435a9.393,9.393,0,0,0-1.156,10.778" transform="translate(42.361 126.666)" fill="#685e68"/>
          </g>
          <g id="g6912" transform="translate(1.138 57.742)">
            <path id="path6914" d="M-21.426-21.426a9.39,9.39,0,0,1,13.28,0,9.39,9.39,0,0,1,0,13.28,9.39,9.39,0,0,1-13.28,0A9.39,9.39,0,0,1-21.426-21.426Z" transform="translate(24.176 24.176)" fill="none" stroke="#000" stroke-linecap="round" stroke-linejoin="round" stroke-miterlimit="10" stroke-width="2"/>
          </g>
          <g id="g6916" transform="translate(3.479 60.93)">
            <path id="path6918" d="M-103.232-103.232a13.835,13.835,0,0,0-4.055-9.2,13.835,13.835,0,0,0-9.2-4.055" transform="translate(116.484 116.484)" fill="none" stroke="#000" stroke-linecap="round" stroke-linejoin="round" stroke-miterlimit="10" stroke-width="2"/>
          </g>
          <g id="g6920" transform="translate(3.093 17.359)">
            <path id="path6922" d="M-51.355-102.718l-4.5-4.5a7.139,7.139,0,0,1-1.1-8.683" transform="translate(57.947 115.904)" fill="none" stroke="#000" stroke-linecap="round" stroke-linejoin="round" stroke-miterlimit="10" stroke-width="2"/>
          </g>
          <g id="g6924" transform="translate(12.35 19.741)">
            <path id="path6926" d="M-31.7-31.7l-4.069-4.069" transform="translate(35.771 35.772)" fill="none" stroke="#000" stroke-linecap="round" stroke-linejoin="round" stroke-miterlimit="10" stroke-width="2"/>
          </g>
          <g id="g6928" transform="translate(14.263 3.094)">
            <path id="path6930" d="M-154.855-131.83h0a4.761,4.761,0,0,0,0-6.733l-8.1-8.1a7.136,7.136,0,0,0-10.091,0l-1.688,1.688,13.144,13.144a4.761,4.761,0,0,0,6.733,0" transform="translate(174.733 148.752)" fill="#bbec6c"/>
          </g>
          <g id="g6932" transform="translate(14.263 4.376)">
            <path id="path6934" d="M-162.89-109.834a4.751,4.751,0,0,1-1.031,1.541,4.76,4.76,0,0,1-6.733,0L-183.8-121.438l1.688-1.688a7.062,7.062,0,0,1,.962-.807l13.067,13.067a4.761,4.761,0,0,0,5.192,1.031" transform="translate(183.8 123.933)" fill="#a2e62e"/>
          </g>
          <g id="g6936" transform="translate(17.359 3.093)">
            <path id="path6938" d="M0-7.747a7.139,7.139,0,0,1,8.683,1.1l8.1,8.1a4.762,4.762,0,0,1-6.734,6.734L2.382.516" transform="translate(0 8.741)" fill="none" stroke="#000" stroke-linecap="round" stroke-linejoin="round" stroke-miterlimit="10" stroke-width="2"/>
          </g>
          <g id="g6940" transform="translate(3.479 3.48)">
            <path id="path6942" d="M-106.64-3.176a9.39,9.39,0,0,1,0,13.279,9.39,9.39,0,0,1-13.279,0c-.142-.142-.28-.288-.409-.437,1.248-1.959,0-8.145,2.553-10.7s8.661-.992,10.7-2.551c.149.129.294.266.436.408" transform="translate(120.329 3.584)" fill="#ffdfcf"/>
          </g>
          <g id="g6944" transform="translate(3.478 9.18)">
            <path id="path6946" d="M-117.716-48.033a9.391,9.391,0,0,1-1.421,1.822,9.389,9.389,0,0,1-13.28,0c-.143-.143-.281-.288-.41-.437.866-1.359.531-4.747,1.1-7.55a9.324,9.324,0,0,0,2.148,4.306c.13.15.268.3.41.438a9.39,9.39,0,0,0,11.458,1.421" transform="translate(132.826 54.199)" fill="#ffcebf"/>
          </g>
          <g id="g6948" transform="translate(1.138 1.138)">
            <path id="path6950" d="M-121.482-18.248a13.847,13.847,0,0,1-4.057,9.195A13.835,13.835,0,0,1-134.735-5a9.388,9.388,0,0,1,.409-12.842,9.389,9.389,0,0,1,12.844-.408" transform="translate(137.076 20.59)" fill="#b98080"/>
          </g>
          <g id="g6952" transform="translate(1.138 2.467)">
            <path id="path6954" d="M-60.822-100.3a13.841,13.841,0,0,1-5.467,1.389,9.39,9.39,0,0,1,.41-12.843,9.391,9.391,0,0,1,1.822-1.421,9.39,9.39,0,0,0,1.012,11.02c.13.15.268.3.41.438a9.333,9.333,0,0,0,1.814,1.417" transform="translate(68.629 113.173)" fill="#ae6c6c"/>
          </g>
          <g id="g6956" transform="translate(1.138 1.138)">
            <path id="path6958" d="M-124.88-21.426a9.39,9.39,0,0,1,0,13.28,9.39,9.39,0,0,1-13.28,0,9.39,9.39,0,0,1,0-13.28A9.39,9.39,0,0,1-124.88-21.426Z" transform="translate(140.91 24.176)" fill="none" stroke="#000" stroke-linecap="round" stroke-linejoin="round" stroke-miterlimit="10" stroke-width="2"/>
          </g>
          <g id="g6960" transform="translate(3.479 3.479)">
            <path id="path6962" d="M0-103.232a13.835,13.835,0,0,0,9.2-4.055,13.835,13.835,0,0,0,4.055-9.2" transform="translate(0 116.484)" fill="none" stroke="#000" stroke-linecap="round" stroke-linejoin="round" stroke-miterlimit="10" stroke-width="2"/>
          </g>
        </g>
      </g>
    </g>
  </g>
</svg>
