<svg xmlns="http://www.w3.org/2000/svg" width="100" height="100" viewBox="0 0 100 100">
  <g id="Grupo_965430" data-name="Grupo 965430" transform="translate(-758 -6663)">
    <circle id="Elipse_5815" data-name="Elipse 5815" cx="50" cy="50" r="50" transform="translate(758 6663)" fill="#feb12e"/>
    <g id="capacitacion_1_" data-name="capacitacion (1)" transform="translate(780.468 6685)">
      <path id="Trazado_728977" data-name="Trazado 728977" d="M23,1V18.813h.891a2.668,2.668,0,0,0,2.672-2.672,1.781,1.781,0,0,1,3.563,0,6.23,6.23,0,0,1-6.234,6.234H23v5.344H58.625V1Z" transform="translate(-2.516 -0.109)" fill="#ccd1d9"/>
      <path id="Trazado_728978" data-name="Trazado 728978" d="M18.563,7.943v1.22C17.031,7.168,16.1,6.8,15,7.035V7.026L16.772,3.41A6.609,6.609,0,0,1,18.563,7.943Z" transform="translate(-1.641 -0.373)" fill="#f6bb42"/>
      <path id="Trazado_728979" data-name="Trazado 728979" d="M15.569,3.146,13.8,6.762v.009c-1.665.338-3.732,2.075-8.906,1.47C4.606,8.205,4.3,8.161,4,8.116V7.68A6.668,6.668,0,0,1,15.569,3.146Z" transform="translate(-0.438 -0.109)" fill="#ffce54"/>
      <path id="Trazado_728980" data-name="Trazado 728980" d="M14.344,18.319V20.7l-.891.891L11.672,20.7l-1.781.891L9,20.706v-2.4a6.188,6.188,0,0,0,5.344,0Z" transform="translate(-0.984 -2.003)" fill="#f5f7fa"/>
      <path id="Trazado_728981" data-name="Trazado 728981" d="M5,11.489V8.942c5.175.606,7.241-1.131,8.906-1.469,1.1-.232,2.031.133,3.563,2.129v1.9a6.21,6.21,0,0,1-3.562,5.62,6.188,6.188,0,0,1-5.344,0A6.21,6.21,0,0,1,5,11.5Z" transform="translate(-0.547 -0.811)" fill="#eac6bb"/>
      <path id="Trazado_728982" data-name="Trazado 728982" d="M16.342,7.855v3.692a6.21,6.21,0,0,1-3.562,5.62A6.067,6.067,0,0,1,11,17.7a6.039,6.039,0,0,0,3.563-.535,6.209,6.209,0,0,0,3.563-5.62V9.65a7.49,7.49,0,0,0-1.783-1.795Z" transform="translate(-1.203 -0.859)" fill="#d3b1a9"/>
      <g id="Grupo_964924" data-name="Grupo 964924" transform="translate(0.891 4.453)">
        <path id="Trazado_728983" data-name="Trazado 728983" d="M4.563,29.359H1V24.016a3.562,3.562,0,0,1,3.563-3.562H8.125l.891.882,1.781-.891,1.781.891.891-.891,7.125.009h.891a2.668,2.668,0,0,0,2.672-2.672,1.781,1.781,0,0,1,3.563,0,6.23,6.23,0,0,1-6.234,6.234H17.031v5.344Z" transform="translate(-1 -6.203)" fill="#e6e9ed"/>
        <path id="Trazado_728984" data-name="Trazado 728984" d="M42.125,23a1.781,1.781,0,0,1,0,3.563H36.781a1.781,1.781,0,0,1,0-3.562h5.344Z" transform="translate(-4.719 -6.969)" fill="#e6e9ed"/>
        <path id="Trazado_728985" data-name="Trazado 728985" d="M42.125,5a1.781,1.781,0,0,1,0,3.563H36.781a1.781,1.781,0,0,1,0-3.562Z" transform="translate(-4.719 -5)" fill="#e6e9ed"/>
      </g>
      <path id="Trazado_728986" data-name="Trazado 728986" d="M43.906,15.672l-4.453,2.672L35,15.672,39.453,13Z" transform="translate(-3.828 -1.422)" fill="#48cfad"/>
      <path id="Trazado_728987" data-name="Trazado 728987" d="M53.453,17.563H49V14h8.906v3.563Z" transform="translate(-5.359 -1.531)" fill="#e6e9ed"/>
      <path id="Trazado_728988" data-name="Trazado 728988" d="M53.234,50.563A7.075,7.075,0,0,0,59.469,47a6.21,6.21,0,0,1-3.562,5.62,6.188,6.188,0,0,1-5.344,0A6.209,6.209,0,0,1,47,47,7.075,7.075,0,0,0,53.234,50.563Z" transform="translate(-5.141 -5.141)" fill="#eac6bb"/>
      <path id="Trazado_728989" data-name="Trazado 728989" d="M56.8,36v2.672a2.666,2.666,0,0,1,2.672,2.663V45.8A7.236,7.236,0,0,1,47,45.8V41.335A5.335,5.335,0,0,1,52.344,36Z" transform="translate(-5.141 -3.938)" fill="#965353"/>
      <path id="Trazado_728990" data-name="Trazado 728990" d="M57.842,49.421a6.217,6.217,0,0,1-3.062,3.2A6.021,6.021,0,0,1,53,53.155a6.033,6.033,0,0,0,3.562-.535A6.209,6.209,0,0,0,60.125,47,6.985,6.985,0,0,1,57.842,49.421Z" transform="translate(-5.797 -5.141)" fill="#d3b1a9"/>
      <path id="Trazado_728991" data-name="Trazado 728991" d="M57.781,38.672V36H56v2.672h0a1.783,1.783,0,0,0,1.782,1.781.884.884,0,0,1,.889.882V45.8a6.18,6.18,0,0,1-.5,2.421A6.983,6.983,0,0,0,60.453,45.8V41.335A2.666,2.666,0,0,0,57.781,38.672Z" transform="translate(-6.125 -3.938)" fill="#844747"/>
      <path id="Trazado_728992" data-name="Trazado 728992" d="M53.672,53.916a6.084,6.084,0,0,0,2.672-.607v3.278H51V53.31a6.124,6.124,0,0,0,2.672.606Z" transform="translate(-5.578 -5.831)" fill="#87bcf4"/>
      <path id="Trazado_728993" data-name="Trazado 728993" d="M61.031,59.662v2.681H45V59.662a2.674,2.674,0,0,1,2.672-2.672V57h2.672V56.99h5.344V57h2.672V56.99A2.674,2.674,0,0,1,61.031,59.662Z" transform="translate(-4.922 -6.233)" fill="#5d9cec"/>
      <path id="Trazado_728994" data-name="Trazado 728994" d="M55,56.99h1.783V57H55Z" transform="translate(-6.015 -6.233)" fill="#4a89dc"/>
      <path id="Trazado_728995" data-name="Trazado 728995" d="M59.792,56.99V57H58.1a2.669,2.669,0,0,1,2.585,2.663v2.681h1.783V59.662A2.674,2.674,0,0,0,59.792,56.99Z" transform="translate(-6.354 -6.233)" fill="#4a89dc"/>
      <path id="Trazado_728996" data-name="Trazado 728996" d="M47.989,57V56.99c-.029,0-.056.008-.086.009Z" transform="translate(-5.239 -6.233)" fill="#4a89dc"/>
      <path id="Trazado_728997" data-name="Trazado 728997" d="M29,56.663V54h5.344v2.663l-2.672.891Z" transform="translate(-3.172 -5.906)" fill="#eac6bb"/>
      <path id="Trazado_728998" data-name="Trazado 728998" d="M39.031,43.056v8.871H23V43.056a8.016,8.016,0,0,1,16.031,0Z" transform="translate(-2.516 -3.832)" fill="#ffce54"/>
      <path id="Trazado_728999" data-name="Trazado 728999" d="M31.891,35.04a7.961,7.961,0,0,0-.892.053,8.017,8.017,0,0,1,7.124,7.963v8.871h1.783V43.056A8.016,8.016,0,0,0,31.891,35.04Z" transform="translate(-3.391 -3.832)" fill="#f6bb42"/>
      <path id="Trazado_729000" data-name="Trazado 729000" d="M25.672,57h2.672V56.99l2.672.891,2.672-.891V57h2.672V56.99a2.674,2.674,0,0,1,2.672,2.672v2.681H23V59.662a2.674,2.674,0,0,1,2.672-2.672Z" transform="translate(-2.516 -6.233)" fill="#48cfad"/>
      <path id="Trazado_729001" data-name="Trazado 729001" d="M37.792,56.99V57H36.1a2.669,2.669,0,0,1,2.585,2.663v2.681h1.783V59.662A2.674,2.674,0,0,0,37.792,56.99Z" transform="translate(-3.948 -6.233)" fill="#37bc9b"/>
      <path id="Trazado_729002" data-name="Trazado 729002" d="M12.344,56.588H7V53.31a6.188,6.188,0,0,0,5.344,0v3.278Z" transform="translate(-0.766 -5.831)" fill="#f5f7fa"/>
      <path id="Trazado_729003" data-name="Trazado 729003" d="M17.031,59.662v2.681H1V59.662A2.674,2.674,0,0,1,3.672,56.99V57H6.344V56.99h5.344V57h2.672V56.99A2.674,2.674,0,0,1,17.031,59.662Z" transform="translate(-0.109 -6.233)" fill="#e6e9ed"/>
      <path id="Trazado_729004" data-name="Trazado 729004" d="M3.989,57V56.99c-.029,0-.056.008-.086.009Z" transform="translate(-0.427 -6.233)" fill="#ccd1d9"/>
      <path id="Trazado_729005" data-name="Trazado 729005" d="M15.792,56.99V57H14.1a2.669,2.669,0,0,1,2.585,2.663v2.681h1.783V59.662a2.674,2.674,0,0,0-2.672-2.672Z" transform="translate(-1.542 -6.233)" fill="#ccd1d9"/>
      <path id="Trazado_729006" data-name="Trazado 729006" d="M9.234,53.225a6.112,6.112,0,0,1-2.672-.607A6.208,6.208,0,0,1,3,47a7.075,7.075,0,0,0,6.234,3.563A7.075,7.075,0,0,0,15.469,47a6.21,6.21,0,0,1-3.562,5.62A6.1,6.1,0,0,1,9.234,53.225Z" transform="translate(-0.328 -5.141)" fill="#eac6bb"/>
      <path id="Trazado_729007" data-name="Trazado 729007" d="M15.469,45.788V45.8a7.075,7.075,0,0,1-6.234,3.563A7.075,7.075,0,0,1,3,45.8V42.225a6.234,6.234,0,0,1,12.469,0Z" transform="translate(-0.328 -3.938)" fill="#656d78"/>
      <path id="Trazado_729008" data-name="Trazado 729008" d="M13.842,49.421a6.217,6.217,0,0,1-3.062,3.2A6.021,6.021,0,0,1,9,53.155a6.235,6.235,0,0,0,.89.07,6.084,6.084,0,0,0,2.672-.607A6.209,6.209,0,0,0,16.125,47,6.975,6.975,0,0,1,13.842,49.421Z" transform="translate(-0.984 -5.141)" fill="#d3b1a9"/>
      <path id="Trazado_729009" data-name="Trazado 729009" d="M9.891,36A6.2,6.2,0,0,0,9,36.07H9a6.222,6.222,0,0,1,5.342,6.155V45.8a6.18,6.18,0,0,1-.5,2.421A6.983,6.983,0,0,0,16.125,45.8V42.225A6.228,6.228,0,0,0,9.891,36Z" transform="translate(-0.984 -3.938)" fill="#545c66"/>
      <path id="Trazado_729010" data-name="Trazado 729010" d="M58.516,28.5H22.891A.89.89,0,0,1,22,27.609V22.266a.891.891,0,0,1,1.781,0v4.453H57.625V1.781H23.781V18.7A.891.891,0,0,1,22,18.7V.891A.89.89,0,0,1,22.891,0H58.516a.89.89,0,0,1,.891.891V27.609A.89.89,0,0,1,58.516,28.5Z" transform="translate(-2.406)"/>
      <path id="Trazado_729011" data-name="Trazado 729011" d="M4.891,31.234A.89.89,0,0,1,4,30.344V25.891a.891.891,0,0,1,1.781,0v4.453A.89.89,0,0,1,4.891,31.234Z" transform="translate(-0.438 -2.734)"/>
      <path id="Trazado_729012" data-name="Trazado 729012" d="M8.453,21.783H4.891a.891.891,0,0,1,0-1.781H8.453a.891.891,0,0,1,0,1.781Z" transform="translate(-0.438 -2.188)"/>
      <path id="Trazado_729013" data-name="Trazado 729013" d="M.891,25.344A.89.89,0,0,1,0,24.453,4.458,4.458,0,0,1,4.453,20a.891.891,0,0,1,0,1.781,2.675,2.675,0,0,0-2.672,2.672A.89.89,0,0,1,.891,25.344Z" transform="translate(0 -2.188)"/>
      <path id="Trazado_729014" data-name="Trazado 729014" d="M.891,31.125A.89.89,0,0,1,0,30.234V24.891a.891.891,0,0,1,1.781,0v5.344A.89.89,0,0,1,.891,31.125Z" transform="translate(0 -2.625)"/>
      <path id="Trazado_729015" data-name="Trazado 729015" d="M18.891,31.125A.89.89,0,0,1,18,30.234V24.891a.891.891,0,0,1,1.781,0v5.344A.89.89,0,0,1,18.891,31.125Z" transform="translate(-1.969 -2.625)"/>
      <path id="Trazado_729016" data-name="Trazado 729016" d="M23.344,25.781H18.891a.891.891,0,0,1,0-1.781h4.453a.891.891,0,0,1,0,1.781Z" transform="translate(-1.969 -2.625)"/>
      <path id="Trazado_729017" data-name="Trazado 729017" d="M30.453,18.563a.89.89,0,0,1-.891-.891.891.891,0,0,0-1.781,0,.891.891,0,0,1-1.781,0,2.672,2.672,0,0,1,5.344,0A.89.89,0,0,1,30.453,18.563Z" transform="translate(-2.844 -1.641)"/>
      <path id="Trazado_729018" data-name="Trazado 729018" d="M23.891,25.016a.891.891,0,0,1,0-1.781,5.349,5.349,0,0,0,5.344-5.344.891.891,0,0,1,1.781,0A7.133,7.133,0,0,1,23.891,25.016Z" transform="translate(-2.516 -1.859)"/>
      <path id="Trazado_729019" data-name="Trazado 729019" d="M23.891,21.453a.891.891,0,0,1,0-1.781,1.783,1.783,0,0,0,1.781-1.781.891.891,0,0,1,1.781,0A3.566,3.566,0,0,1,23.891,21.453Z" transform="translate(-2.516 -1.859)"/>
      <path id="Trazado_729020" data-name="Trazado 729020" d="M60.564,42.454a.89.89,0,0,1-.891-.891,1.784,1.784,0,0,0-1.783-1.782.891.891,0,0,1,0-1.781,3.568,3.568,0,0,1,3.564,3.563A.89.89,0,0,1,60.564,42.454Z" transform="translate(-6.234 -4.156)"/>
      <path id="Trazado_729021" data-name="Trazado 729021" d="M57.891,39.453A.89.89,0,0,1,57,38.563V35.891a.891.891,0,0,1,1.781,0v2.672A.89.89,0,0,1,57.891,39.453Z" transform="translate(-6.234 -3.828)"/>
      <path id="Trazado_729022" data-name="Trazado 729022" d="M46.891,42.125A.89.89,0,0,1,46,41.234,6.242,6.242,0,0,1,52.234,35a.891.891,0,0,1,0,1.781,4.458,4.458,0,0,0-4.453,4.453A.89.89,0,0,1,46.891,42.125Z" transform="translate(-5.031 -3.828)"/>
      <path id="Trazado_729023" data-name="Trazado 729023" d="M57.344,36.781H52.891a.891.891,0,0,1,0-1.781h4.453a.891.891,0,0,1,0,1.781Z" transform="translate(-5.688 -3.828)"/>
      <path id="Trazado_729024" data-name="Trazado 729024" d="M53.125,51.344a7.927,7.927,0,0,1-7.031-4.055.891.891,0,0,1,1.592-.8,6.35,6.35,0,0,0,10.877,0,.891.891,0,0,1,1.593.8,7.925,7.925,0,0,1-7.031,4.054Z" transform="translate(-5.031 -5.031)"/>
      <path id="Trazado_729025" data-name="Trazado 729025" d="M46.891,47.234A.89.89,0,0,1,46,46.343V41.887a.891.891,0,0,1,1.781,0v4.457A.89.89,0,0,1,46.891,47.234Z" transform="translate(-5.031 -4.484)"/>
      <path id="Trazado_729026" data-name="Trazado 729026" d="M60.891,47.234A.89.89,0,0,1,60,46.343V41.887a.891.891,0,0,1,1.781,0v4.457A.89.89,0,0,1,60.891,47.234Z" transform="translate(-6.563 -4.484)"/>
      <path id="Trazado_729027" data-name="Trazado 729027" d="M44.891,60.448A.89.89,0,0,1,44,59.558,3.566,3.566,0,0,1,47.563,56a.891.891,0,0,1,0,1.781,1.782,1.782,0,0,0-1.781,1.78A.89.89,0,0,1,44.891,60.448Z" transform="translate(-4.813 -6.125)"/>
      <path id="Trazado_729028" data-name="Trazado 729028" d="M50.563,57.783H47.891a.891.891,0,0,1,0-1.781h2.672a.891.891,0,0,1,0,1.781Z" transform="translate(-5.141 -6.125)"/>
      <path id="Trazado_729029" data-name="Trazado 729029" d="M44.891,63.453A.89.89,0,0,1,44,62.562V59.886a.891.891,0,1,1,1.781,0v2.676A.89.89,0,0,1,44.891,63.453Z" transform="translate(-4.813 -6.453)"/>
      <path id="Trazado_729030" data-name="Trazado 729030" d="M62.563,60.448a.89.89,0,0,1-.891-.891,1.782,1.782,0,0,0-1.781-1.78.891.891,0,0,1,0-1.781,3.566,3.566,0,0,1,3.563,3.562A.89.89,0,0,1,62.563,60.448Z" transform="translate(-6.453 -6.125)"/>
      <path id="Trazado_729031" data-name="Trazado 729031" d="M59.563,57.783H56.891a.891.891,0,0,1,0-1.781h2.672a.891.891,0,0,1,0,1.781Z" transform="translate(-6.125 -6.125)"/>
      <path id="Trazado_729032" data-name="Trazado 729032" d="M62.891,63.453A.89.89,0,0,1,62,62.562V59.886a.891.891,0,1,1,1.781,0v2.676A.89.89,0,0,1,62.891,63.453Z" transform="translate(-6.781 -6.453)"/>
      <path id="Trazado_729033" data-name="Trazado 729033" d="M60.922,63.781H44.891a.891.891,0,0,1,0-1.781H60.922a.891.891,0,0,1,0,1.781Z" transform="translate(-4.813 -6.781)"/>
      <path id="Trazado_729034" data-name="Trazado 729034" d="M50.891,57.38A.89.89,0,0,1,50,56.49V53.209a.891.891,0,0,1,1.781,0V56.49A.89.89,0,0,1,50.891,57.38Z" transform="translate(-5.469 -5.722)"/>
      <path id="Trazado_729035" data-name="Trazado 729035" d="M56.891,57.374A.89.89,0,0,1,56,56.483V53.209a.891.891,0,0,1,1.781,0v3.275a.89.89,0,0,1-.891.891Z" transform="translate(-6.125 -5.722)"/>
      <path id="Trazado_729036" data-name="Trazado 729036" d="M53.125,54.008A7.132,7.132,0,0,1,46,46.886a.891.891,0,1,1,1.781,0,5.344,5.344,0,0,0,10.688,0,.891.891,0,1,1,1.781,0A7.132,7.132,0,0,1,53.125,54.008Z" transform="translate(-5.031 -5.031)"/>
      <path id="Trazado_729037" data-name="Trazado 729037" d="M56.234,57.776H50.891a.891.891,0,0,1,0-1.781h5.344a.891.891,0,0,1,0,1.781Z" transform="translate(-5.469 -6.124)"/>
      <path id="Trazado_729038" data-name="Trazado 729038" d="M9.125,51.344a7.927,7.927,0,0,1-7.031-4.055.891.891,0,0,1,1.592-.8,6.15,6.15,0,0,0,5.44,3.074,6.184,6.184,0,0,0,5.437-3.07.891.891,0,0,1,1.593.8,7.925,7.925,0,0,1-7.031,4.054Z" transform="translate(-0.219 -5.031)"/>
      <path id="Trazado_729039" data-name="Trazado 729039" d="M2.891,47.343A.89.89,0,0,1,2,46.453V42.887a.891.891,0,0,1,1.781,0v3.566A.89.89,0,0,1,2.891,47.343Z" transform="translate(-0.219 -4.593)"/>
      <path id="Trazado_729040" data-name="Trazado 729040" d="M16.891,47.343A.89.89,0,0,1,16,46.453V42.887a.891.891,0,0,1,1.781,0v3.566A.89.89,0,0,1,16.891,47.343Z" transform="translate(-1.75 -4.593)"/>
      <path id="Trazado_729041" data-name="Trazado 729041" d="M.891,60.448A.89.89,0,0,1,0,59.558,3.566,3.566,0,0,1,3.563,56a.891.891,0,0,1,0,1.781,1.782,1.782,0,0,0-1.781,1.78A.89.89,0,0,1,.891,60.448Z" transform="translate(0 -6.125)"/>
      <path id="Trazado_729042" data-name="Trazado 729042" d="M6.563,57.783H3.891a.891.891,0,0,1,0-1.781H6.563a.891.891,0,0,1,0,1.781Z" transform="translate(-0.328 -6.125)"/>
      <path id="Trazado_729043" data-name="Trazado 729043" d="M.891,63.453A.89.89,0,0,1,0,62.562V59.886a.891.891,0,0,1,1.781,0v2.676A.89.89,0,0,1,.891,63.453Z" transform="translate(0 -6.453)"/>
      <path id="Trazado_729044" data-name="Trazado 729044" d="M18.563,60.448a.89.89,0,0,1-.891-.891,1.782,1.782,0,0,0-1.781-1.78.891.891,0,0,1,0-1.781,3.566,3.566,0,0,1,3.563,3.562A.89.89,0,0,1,18.563,60.448Z" transform="translate(-1.641 -6.125)"/>
      <path id="Trazado_729045" data-name="Trazado 729045" d="M15.563,57.783H12.891a.891.891,0,0,1,0-1.781h2.672a.891.891,0,0,1,0,1.781Z" transform="translate(-1.313 -6.125)"/>
      <path id="Trazado_729046" data-name="Trazado 729046" d="M18.891,63.453A.89.89,0,0,1,18,62.562V59.886a.891.891,0,1,1,1.781,0v2.676A.89.89,0,0,1,18.891,63.453Z" transform="translate(-1.969 -6.453)"/>
      <path id="Trazado_729047" data-name="Trazado 729047" d="M16.922,63.781H.891A.891.891,0,0,1,.891,62H16.922a.891.891,0,0,1,0,1.781Z" transform="translate(0 -6.781)"/>
      <path id="Trazado_729048" data-name="Trazado 729048" d="M6.891,57.38A.89.89,0,0,1,6,56.49V53.209a.891.891,0,0,1,1.781,0V56.49A.89.89,0,0,1,6.891,57.38Z" transform="translate(-0.656 -5.722)"/>
      <path id="Trazado_729049" data-name="Trazado 729049" d="M12.891,57.374A.89.89,0,0,1,12,56.483V53.209a.891.891,0,0,1,1.781,0v3.275a.89.89,0,0,1-.891.891Z" transform="translate(-1.313 -5.722)"/>
      <path id="Trazado_729050" data-name="Trazado 729050" d="M9.125,54.008A7.132,7.132,0,0,1,2,46.886a.891.891,0,0,1,1.781,0,5.344,5.344,0,0,0,10.688,0,.891.891,0,0,1,1.781,0A7.132,7.132,0,0,1,9.125,54.008Z" transform="translate(-0.219 -5.031)"/>
      <path id="Trazado_729051" data-name="Trazado 729051" d="M15.359,43.012a.89.89,0,0,1-.891-.891,5.344,5.344,0,0,0-10.687,0,.891.891,0,0,1-1.781,0,7.125,7.125,0,0,1,14.25,0A.89.89,0,0,1,15.359,43.012Z" transform="translate(-0.219 -3.828)"/>
      <path id="Trazado_729052" data-name="Trazado 729052" d="M12.234,57.776H6.891a.891.891,0,0,1,0-1.781h5.344a.891.891,0,0,1,0,1.781Z" transform="translate(-0.656 -6.124)"/>
      <path id="Trazado_729053" data-name="Trazado 729053" d="M40.891,53.692A.89.89,0,0,1,40,52.8V43.933a.891.891,0,0,1,1.781,0V52.8A.89.89,0,0,1,40.891,53.692Z" transform="translate(-4.375 -4.708)"/>
      <path id="Trazado_729054" data-name="Trazado 729054" d="M38.922,54.781H22.891a.891.891,0,0,1,0-1.781H38.922a.891.891,0,0,1,0,1.781Z" transform="translate(-2.406 -5.797)"/>
      <path id="Trazado_729055" data-name="Trazado 729055" d="M22.891,53.692A.89.89,0,0,1,22,52.8V43.933a.891.891,0,0,1,1.781,0V52.8A.89.89,0,0,1,22.891,53.692Z" transform="translate(-2.406 -4.708)"/>
      <path id="Trazado_729056" data-name="Trazado 729056" d="M38.922,43.839a.89.89,0,0,1-.891-.891,7.125,7.125,0,0,0-14.25,0,.891.891,0,0,1-1.781,0,8.906,8.906,0,0,1,17.813,0A.89.89,0,0,1,38.922,43.839Z" transform="translate(-2.406 -3.723)"/>
      <path id="Trazado_729057" data-name="Trazado 729057" d="M22.891,60.448A.89.89,0,0,1,22,59.558,3.566,3.566,0,0,1,25.563,56a.891.891,0,0,1,0,1.781,1.782,1.782,0,0,0-1.781,1.78A.89.89,0,0,1,22.891,60.448Z" transform="translate(-2.406 -6.125)"/>
      <path id="Trazado_729058" data-name="Trazado 729058" d="M28.563,57.783H25.891a.891.891,0,0,1,0-1.781h2.672a.891.891,0,0,1,0,1.781Z" transform="translate(-2.734 -6.125)"/>
      <path id="Trazado_729059" data-name="Trazado 729059" d="M22.891,63.453A.89.89,0,0,1,22,62.562V59.886a.891.891,0,1,1,1.781,0v2.676A.89.89,0,0,1,22.891,63.453Z" transform="translate(-2.406 -6.453)"/>
      <path id="Trazado_729060" data-name="Trazado 729060" d="M40.563,60.448a.89.89,0,0,1-.891-.891,1.782,1.782,0,0,0-1.781-1.78.891.891,0,0,1,0-1.781,3.566,3.566,0,0,1,3.563,3.562A.89.89,0,0,1,40.563,60.448Z" transform="translate(-4.047 -6.125)"/>
      <path id="Trazado_729061" data-name="Trazado 729061" d="M37.563,57.783H34.891a.891.891,0,0,1,0-1.781h2.672a.891.891,0,0,1,0,1.781Z" transform="translate(-3.719 -6.125)"/>
      <path id="Trazado_729062" data-name="Trazado 729062" d="M40.891,63.453A.89.89,0,0,1,40,62.562V59.886a.891.891,0,1,1,1.781,0v2.676A.89.89,0,0,1,40.891,63.453Z" transform="translate(-4.375 -6.453)"/>
      <path id="Trazado_729063" data-name="Trazado 729063" d="M38.922,63.781H22.891a.891.891,0,0,1,0-1.781H38.922a.891.891,0,0,1,0,1.781Z" transform="translate(-2.406 -6.781)"/>
      <path id="Trazado_729064" data-name="Trazado 729064" d="M28.891,57.6A.89.89,0,0,1,28,56.708v-1.5a.891.891,0,0,1,1.781,0v1.5A.89.89,0,0,1,28.891,57.6Z" transform="translate(-3.063 -5.941)"/>
      <path id="Trazado_729065" data-name="Trazado 729065" d="M34.891,57.593A.89.89,0,0,1,34,56.7V55.209a.891.891,0,0,1,1.781,0V56.7a.89.89,0,0,1-.891.891Z" transform="translate(-3.719 -5.941)"/>
      <path id="Trazado_729066" data-name="Trazado 729066" d="M31.563,58.667a.891.891,0,0,1-.281-.046l-2.672-.891a.891.891,0,1,1,.564-1.69l2.672.891a.891.891,0,0,1-.282,1.736Z" transform="translate(-3.063 -6.124)"/>
      <path id="Trazado_729067" data-name="Trazado 729067" d="M31.891,58.667a.891.891,0,0,1-.281-1.736l2.672-.891a.891.891,0,0,1,.564,1.69l-2.672.891a.876.876,0,0,1-.282.046Z" transform="translate(-3.391 -6.124)"/>
      <path id="Trazado_729068" data-name="Trazado 729068" d="M4.891,12.468A.89.89,0,0,1,4,11.577V9.023a.891.891,0,0,1,1.781,0v2.554A.89.89,0,0,1,4.891,12.468Z" transform="translate(-0.438 -0.889)"/>
      <path id="Trazado_729069" data-name="Trazado 729069" d="M18.891,12.4A.89.89,0,0,1,18,11.508V8.39a.891.891,0,0,1,1.781,0v3.118A.89.89,0,0,1,18.891,12.4Z" transform="translate(-1.969 -0.82)"/>
      <path id="Trazado_729070" data-name="Trazado 729070" d="M17.25,8.46a.89.89,0,0,1-.891-.891,5.789,5.789,0,0,0-11.578,0A.891.891,0,1,1,3,7.569a7.57,7.57,0,0,1,15.141,0A.89.89,0,0,1,17.25,8.46Z" transform="translate(-0.328)"/>
      <path id="Trazado_729071" data-name="Trazado 729071" d="M17.251,10.383a.89.89,0,0,1-.708-.349c-1.719-2.246-2.186-2.061-3.931-1.37a15,15,0,0,1-8.86.928A.89.89,0,1,1,4.03,7.834a13.282,13.282,0,0,0,7.926-.826c2.147-.851,3.587-1.21,6,1.942a.891.891,0,0,1-.706,1.432Z" transform="translate(-0.328 -0.702)"/>
      <path id="Trazado_729072" data-name="Trazado 729072" d="M14.89,7.812a.891.891,0,0,1-.8-1.283L15.873,2.9a.89.89,0,1,1,1.6.785L15.69,7.313a.891.891,0,0,1-.8.5Z" transform="translate(-1.531 -0.263)"/>
      <path id="Trazado_729073" data-name="Trazado 729073" d="M22.906,21.781l-8.017,0a.891.891,0,0,1,0-1.781h0l8.016,0a.891.891,0,0,1,0,1.781Z" transform="translate(-1.531 -2.187)"/>
      <path id="Trazado_729074" data-name="Trazado 729074" d="M8.891,21.49A.89.89,0,0,1,8,20.6v-2.39a.891.891,0,0,1,1.781,0V20.6A.89.89,0,0,1,8.891,21.49Z" transform="translate(-0.875 -1.894)"/>
      <path id="Trazado_729075" data-name="Trazado 729075" d="M14.891,21.483A.89.89,0,0,1,14,20.593V18.209a.891.891,0,0,1,1.781,0v2.384A.89.89,0,0,1,14.891,21.483Z" transform="translate(-1.531 -1.894)"/>
      <path id="Trazado_729076" data-name="Trazado 729076" d="M11.125,19.008A7.132,7.132,0,0,1,4,11.886a.891.891,0,1,1,1.781,0,5.344,5.344,0,0,0,10.688,0,.891.891,0,1,1,1.781,0A7.132,7.132,0,0,1,11.125,19.008Z" transform="translate(-0.438 -1.203)"/>
      <path id="Trazado_729077" data-name="Trazado 729077" d="M9.891,22.667a.891.891,0,0,1-.4-1.688l1.781-.891a.891.891,0,0,1,.8,1.593l-1.781.891a.882.882,0,0,1-.4.094Z" transform="translate(-0.984 -2.187)"/>
      <path id="Trazado_729078" data-name="Trazado 729078" d="M13.891,22.667a.891.891,0,0,1-.63-1.52l.891-.891a.89.89,0,1,1,1.259,1.259l-.891.891a.888.888,0,0,1-.63.261Z" transform="translate(-1.422 -2.187)"/>
      <path id="Trazado_729079" data-name="Trazado 729079" d="M9.781,22.667a.888.888,0,0,1-.63-.261l-.891-.891A.89.89,0,1,1,9.52,20.256l.891.891a.891.891,0,0,1-.63,1.52Z" transform="translate(-0.875 -2.187)"/>
      <path id="Trazado_729080" data-name="Trazado 729080" d="M13.671,22.667a.893.893,0,0,1-.4-.094l-1.781-.891a.891.891,0,0,1,.8-1.593l1.781.891a.89.89,0,0,1-.4,1.687Z" transform="translate(-1.203 -2.187)"/>
      <path id="Trazado_729081" data-name="Trazado 729081" d="M3.891,9.722A.89.89,0,0,1,3,8.831V8.39a.891.891,0,0,1,1.781,0v.442A.89.89,0,0,1,3.891,9.722Z" transform="translate(-0.328 -0.82)"/>
      <path id="Trazado_729082" data-name="Trazado 729082" d="M36.67,9.344A2.672,2.672,0,0,1,36.67,4a.891.891,0,0,1,0,1.781.891.891,0,0,0,0,1.781.891.891,0,0,1,0,1.781Z" transform="translate(-3.719 -0.438)"/>
      <path id="Trazado_729083" data-name="Trazado 729083" d="M42.887,9.344a.891.891,0,0,1,0-1.781.891.891,0,0,0,0-1.781.891.891,0,0,1,0-1.781,2.672,2.672,0,0,1,0,5.344Z" transform="translate(-4.593 -0.438)"/>
      <path id="Trazado_729084" data-name="Trazado 729084" d="M42.231,5.781H36.889a.891.891,0,0,1,0-1.781h5.342a.891.891,0,0,1,0,1.781Z" transform="translate(-3.937 -0.438)"/>
      <path id="Trazado_729085" data-name="Trazado 729085" d="M42.231,9.781H36.889a.891.891,0,0,1,0-1.781h5.342a.891.891,0,0,1,0,1.781Z" transform="translate(-3.937 -0.875)"/>
      <path id="Trazado_729086" data-name="Trazado 729086" d="M36.67,27.343a2.672,2.672,0,0,1,0-5.344.891.891,0,0,1,0,1.781.891.891,0,0,0,0,1.781.891.891,0,0,1,0,1.781Z" transform="translate(-3.719 -2.406)"/>
      <path id="Trazado_729087" data-name="Trazado 729087" d="M42.887,27.343a.891.891,0,0,1,0-1.781.891.891,0,0,0,0-1.781.891.891,0,0,1,0-1.781,2.672,2.672,0,0,1,0,5.344Z" transform="translate(-4.593 -2.406)"/>
      <path id="Trazado_729088" data-name="Trazado 729088" d="M42.231,23.78H36.889a.891.891,0,0,1,0-1.781h5.342a.891.891,0,0,1,0,1.781Z" transform="translate(-3.937 -2.406)"/>
      <path id="Trazado_729089" data-name="Trazado 729089" d="M42.231,27.78H36.889a.891.891,0,0,1,0-1.781h5.342a.891.891,0,0,1,0,1.781Z" transform="translate(-3.937 -2.844)"/>
      <path id="Trazado_729090" data-name="Trazado 729090" d="M39.888,13.34A.89.89,0,0,1,39,12.45V8.891a.891.891,0,0,1,1.781,0V12.45A.89.89,0,0,1,39.888,13.34Z" transform="translate(-4.265 -0.875)"/>
      <path id="Trazado_729091" data-name="Trazado 729091" d="M39.341,19.126A.894.894,0,0,1,38.882,19L34.43,16.327a.89.89,0,0,1,0-1.527l4.452-2.672a.9.9,0,0,1,.916,0L44.251,14.8a.89.89,0,0,1,0,1.527L39.8,19A.886.886,0,0,1,39.341,19.126Zm-2.722-3.563L39.341,17.2l2.722-1.633L39.341,13.93Z" transform="translate(-3.719 -1.313)"/>
      <path id="Trazado_729092" data-name="Trazado 729092" d="M57.8,18.345H48.891A.89.89,0,0,1,48,17.454V13.891A.89.89,0,0,1,48.891,13H57.8a.89.89,0,0,1,.891.891v3.563A.89.89,0,0,1,57.8,18.345Zm-8.016-1.781h7.125V14.781H49.781Z" transform="translate(-5.25 -1.422)"/>
      <path id="Trazado_729093" data-name="Trazado 729093" d="M39.888,23.343A.89.89,0,0,1,39,22.452V18.892a.891.891,0,1,1,1.781,0v3.561A.89.89,0,0,1,39.888,23.343Z" transform="translate(-4.265 -1.969)"/>
      <path id="Trazado_729094" data-name="Trazado 729094" d="M48.453,16.782H44.887a.891.891,0,0,1,0-1.781h3.566a.891.891,0,0,1,0,1.781Z" transform="translate(-4.812 -1.641)"/>
      <path id="Trazado_729095" data-name="Trazado 729095" d="M53.891,25.016A.89.89,0,0,1,53,24.125V17.892a.891.891,0,0,1,1.781,0v6.233A.89.89,0,0,1,53.891,25.016Z" transform="translate(-5.797 -1.859)"/>
      <path id="Trazado_729096" data-name="Trazado 729096" d="M52.906,25.781H44.887a.891.891,0,0,1,0-1.781h8.019a.891.891,0,0,1,0,1.781Z" transform="translate(-4.812 -2.625)"/>
    </g>
  </g>
</svg>
