<svg xmlns="http://www.w3.org/2000/svg" width="100" height="100" viewBox="0 0 100 100">
  <g id="Grupo_965431" data-name="Grupo 965431" transform="translate(-1125 -6663)">
    <circle id="Elipse_5816" data-name="Elipse 5816" cx="50" cy="50" r="50" transform="translate(1125 6663)" fill="#feb12e"/>
    <g id="capacitacion_3_" data-name="capacitacion (3)" transform="translate(1147 6685)">
      <g id="Grupo_964921" data-name="Grupo 964921" transform="translate(0.835 0.835)">
        <path id="Trazado_728895" data-name="Trazado 728895" d="M47.5,34.7H95.2V71.62H47.5Z" transform="translate(-43.047 -31.675)" fill="#f5f8f9"/>
        <path id="Trazado_728896" data-name="Trazado 728896" d="M36,34.7h2.561V71.616H36Z" transform="translate(-32.827 -31.672)" fill="#e8edf2"/>
        <path id="Trazado_728897" data-name="Trazado 728897" d="M64.5,11.4H15.464l-4.9-.182a.557.557,0,0,1-.557-.557l.258-2.335a.557.557,0,0,1,.557-.557L15.464,7.5H64.5a.557.557,0,0,1,.557.557V10.84A.557.557,0,0,1,64.5,11.4Z" transform="translate(-9.731 -7.5)" fill="#2baef7"/>
        <path id="Trazado_728898" data-name="Trazado 728898" d="M76.812,361.84H29.275l-3.125-.369a.557.557,0,0,1-.557-.557l-.042-1.546a.557.557,0,0,1,.557-.557l3.167-.312H76.812a.557.557,0,0,1,.557.557v2.227A.557.557,0,0,1,76.812,361.84Z" transform="translate(-23.541 -319.424)" fill="#2baef7"/>
        <path id="Trazado_728899" data-name="Trazado 728899" d="M13.233,7.5v3.9H8.057A.557.557,0,0,1,7.5,10.84V8.057A.557.557,0,0,1,8.057,7.5Z" transform="translate(-7.5 -7.5)" fill="#21a1e8"/>
        <path id="Trazado_728900" data-name="Trazado 728900" d="M25.23,358.5v3.34H21.557a.557.557,0,0,1-.557-.557v-2.227a.557.557,0,0,1,.557-.557Z" transform="translate(-19.497 -319.424)" fill="#21a1e8"/>
        <g id="Grupo_964919" data-name="Grupo 964919" transform="translate(16.903 18.16)">
          <path id="Trazado_728901" data-name="Trazado 728901" d="M223.751,331.9v7.033a3.888,3.888,0,0,1-2.218,3.51l-.788-.1-.88.478v4.008a.445.445,0,0,1-.445.445H214.01l-.761-.562-.909.562H208.5L206.867,347a.445.445,0,0,1-.445-.445l-.411-11.548c0-.092-.056-.1-.2-.141a.219.219,0,0,0-.2.008l-8.236,4.588a2.227,2.227,0,0,1-2.549-.269c-1.464-1.28-4.037-3.532-6.242-5.461V331.2l2.555-.578,4.793,3.634a.222.222,0,0,0,.264,0l6.744-4.826a8.9,8.9,0,0,1,4.07-1.594l2.117-.267.01.027c1.129,1.453,2.124,2.606,4.037,2.606,1.864,0,2.415-.838,4-2.47l3.986.906A3.341,3.341,0,0,1,223.751,331.9Z" transform="translate(-185.324 -310.097)" fill="#ffe97b"/>
          <path id="Trazado_728902" data-name="Trazado 728902" d="M346.039,395.062v10.431h-2.115a.445.445,0,0,1-.445-.445V393.292a.221.221,0,0,0-.128-.2l.923.069A1.908,1.908,0,0,1,346.039,395.062Z" transform="translate(-322.864 -368.323)" fill="#ffde2e"/>
          <path id="Trazado_728903" data-name="Trazado 728903" d="M165.145,334.912l-2.555,3.109-2.611-2.286a1.892,1.892,0,0,1-.168-2.68l.03-.034a1.831,1.831,0,0,1,2.483-.249Z" transform="translate(-159.335 -314.389)" fill="#ffd8a1"/>
          <path id="Trazado_728904" data-name="Trazado 728904" d="M381.152,295.207a4.206,4.206,0,0,1-8.032-.136l-.01-.027.878-.11a1.117,1.117,0,0,0,.974-1.109l.449-2.856h3.426l.578,2.8v.158a1.113,1.113,0,0,0,.866,1.085Z" transform="translate(-349.311 -277.572)" fill="#ffd8a1"/>
          <path id="Trazado_728905" data-name="Trazado 728905" d="M358.717,171.028a5.037,5.037,0,0,0-4.144.079.433.433,0,0,1-.38,0,4.507,4.507,0,0,0-.773-.294,5.916,5.916,0,0,0-3.249.425,4.415,4.415,0,0,0-2.693,4.259l.073,3.282v2.784c0,1.23.949,1.851,2.179,1.851l3.5.376h6.162a2.227,2.227,0,0,0,2.227-2.227V175.5A4.888,4.888,0,0,0,358.717,171.028Z" transform="translate(-326.532 -170.62)" fill="#a6764a"/>
          <path id="Trazado_728906" data-name="Trazado 728906" d="M352.294,183.794h-5.566a2.227,2.227,0,0,1-2.228-2.227V175.5a4.89,4.89,0,0,1,2.9-4.468,5.056,5.056,0,0,1,3.371-.216,4.313,4.313,0,0,0-.588.216,4.89,4.89,0,0,0-2.9,4.468v3.282a5.01,5.01,0,0,0,5.011,5.011Z" transform="translate(-323.886 -170.627)" fill="#926540"/>
          <path id="Trazado_728907" data-name="Trazado 728907" d="M394.2,290.97v2.8a3.13,3.13,0,0,1-4.453.06V290.97Z" transform="translate(-364.098 -277.572)" fill="#fac78c"/>
          <path id="Trazado_728908" data-name="Trazado 728908" d="M378.407,208.965a.221.221,0,0,0-.209-.222,4.326,4.326,0,0,1-3.311-1.807l-.157-.22a2.565,2.565,0,0,0-2.057-1.085,3.146,3.146,0,0,0-3.171,3.118v1.924a6.256,6.256,0,0,0,3.4,5.565.226.226,0,0,1,.092.089,1.133,1.133,0,0,0,1.928,0,.224.224,0,0,1,.089-.085,6.256,6.256,0,0,0,3.4-5.567Z" transform="translate(-346.104 -201.733)" fill="#ffd8a1"/>
        </g>
        <path id="Trazado_728909" data-name="Trazado 728909" d="M123.629,77.951H86.223A.223.223,0,0,1,86,77.729V74.723a.223.223,0,0,1,.223-.223h37.406a.223.223,0,0,1,.223.223v3.006A.223.223,0,0,1,123.629,77.951Z" transform="translate(-77.261 -67.041)" fill="#f90"/>
        <g id="Grupo_964920" data-name="Grupo 964920" transform="translate(23.824 22.6)">
          <path id="Trazado_728910" data-name="Trazado 728910" d="M224.951,214.4h-3.006a.445.445,0,0,1-.445-.445v-3.006a.445.445,0,0,1,.445-.445h3.006a.445.445,0,0,1,.445.445v3.006A.445.445,0,0,1,224.951,214.4Z" transform="translate(-221.5 -210.5)" fill="#3fe0c1"/>
          <path id="Trazado_728911" data-name="Trazado 728911" d="M224.951,279.4h-3.006a.445.445,0,0,1-.445-.445v-3.006a.445.445,0,0,1,.445-.445h3.006a.445.445,0,0,1,.445.445v3.006A.445.445,0,0,1,224.951,279.4Z" transform="translate(-221.5 -268.264)" fill="#3fe0c1"/>
        </g>
      </g>
      <g id="Grupo_964922" data-name="Grupo 964922">
        <path id="Trazado_728912" data-name="Trazado 728912" d="M53.66,5.566h1.948A1.393,1.393,0,0,0,57,4.175V1.392A1.393,1.393,0,0,0,55.608,0H1.392A1.393,1.393,0,0,0,0,1.392V4.175A1.393,1.393,0,0,0,1.392,5.566H3.34V21.906a.835.835,0,1,0,1.67,0V5.566H16.055a.835.835,0,1,0,0-1.67H1.67V1.67H55.33V3.9H19.951a.835.835,0,0,0,0,1.67H51.99V19.83a5.716,5.716,0,0,0-6.4-1.179,5.721,5.721,0,0,0-5.519.454.835.835,0,0,0,.925,1.39,4.081,4.081,0,0,1,.6-.329,4.037,4.037,0,0,1,3.458.079l.164.082a.834.834,0,0,0,.747,0l.164-.082A4.052,4.052,0,0,1,51.99,23.87v6.066A1.393,1.393,0,0,1,50.6,31.328h-.58a7.091,7.091,0,0,0,.858-3.393V26.011a.835.835,0,0,0-.835-.835A3.5,3.5,0,0,1,47.2,23.713l-.172-.241a3.383,3.383,0,0,0-2.748-1.414,3.994,3.994,0,0,0-3.98,3.953v1.924a7.091,7.091,0,0,0,.858,3.393h-.58a1.393,1.393,0,0,1-1.392-1.392V23.87a4.061,4.061,0,0,1,.065-.722.835.835,0,0,0-1.643-.3,5.746,5.746,0,0,0-.091,1.019v6.066A3.065,3.065,0,0,0,40.579,33h1.841c.044.043.089.086.135.128v2.127a.279.279,0,0,1-.244.276l-3,.377a9.771,9.771,0,0,0-4.452,1.743l-1.838,1.315H24.2l-2.969-2.252a2.676,2.676,0,0,0-2.708-.3l-5.1-9.476a.835.835,0,0,0-1.471.791l5.3,9.851a2.71,2.71,0,0,0-.352,1.387H5.01V25.8a.835.835,0,0,0-1.67,0V38.965H2.895A1.393,1.393,0,0,0,1.5,40.356v2.227a1.393,1.393,0,0,0,1.392,1.392H21.268l5.419,4.742a3.044,3.044,0,0,0,.978.574v2.271a2.783,2.783,0,1,0,1.67,0V49.406a3.044,3.044,0,0,0,.858-.319l7.325-4.081V56.165a.835.835,0,1,0,1.67,0V43.585a.835.835,0,0,0-1.241-.729L29.38,47.628a1.4,1.4,0,0,1-1.593-.168l-5.632-4.928,1.531-1.863,4.283,3.248a.834.834,0,0,0,.99.014l6.878-4.922a8.1,8.1,0,0,1,3.689-1.444l1.661-.209a4.9,4.9,0,0,0,3.568,2.923v7.537a.835.835,0,0,0,1.67,0V40.281a4.7,4.7,0,0,0,3.5-2.718l3.462.788a2.492,2.492,0,0,1,1.949,2.443v7.033a3.055,3.055,0,0,1-2.215,2.933V45.589a.835.835,0,1,0-1.67,0V56.165a.835.835,0,1,0,1.67,0V52.473A4.728,4.728,0,0,0,57,47.827V40.794A4.2,4.2,0,0,0,53.66,36.7ZM28.5,55.33a1.113,1.113,0,1,1,1.113-1.113A1.115,1.115,0,0,1,28.5,55.33ZM3.173,42.3v-1.67H17.511a2.749,2.749,0,0,0,.323.335L19.359,42.3ZM20.9,41.431l-1.964-1.718a1.046,1.046,0,0,1-.357-.724,1.119,1.119,0,0,1,.267-.776,1.063,1.063,0,0,1,1.382-.17l2.129,1.615Zm7.59.783L26.4,40.635h4.289ZM44.281,23.727a1.71,1.71,0,0,1,1.389.715l.172.241a5.173,5.173,0,0,0,3.365,2.094v1.158a5.392,5.392,0,0,1-3,4.849h0a1.4,1.4,0,0,1-1.245,0,5.391,5.391,0,0,1-3-4.849V26.018a2.318,2.318,0,0,1,2.31-2.29Zm1.3,14.958a3.169,3.169,0,0,1-2.661-1.6,1.952,1.952,0,0,0,1.3-1.836V34.28a3.064,3.064,0,0,0,1.364.319,3.373,3.373,0,0,0,1.419-.348v1.1a1.936,1.936,0,0,0,1.239,1.814,3.106,3.106,0,0,1-2.662,1.525Zm3.31-3.067a.277.277,0,0,1-.217-.271V33.073L48.757,33H50.6a3.042,3.042,0,0,0,1.392-.336v3.66Z"/>
        <path id="Trazado_728913" data-name="Trazado 728913" d="M402.835,457a.835.835,0,0,0-.835.835v4.4a.835.835,0,0,0,1.67,0v-4.4A.835.835,0,0,0,402.835,457Z" transform="translate(-357.246 -406.119)"/>
        <path id="Trazado_728914" data-name="Trazado 728914" d="M118.021,71.286V67.835a.835.835,0,0,0-.835-.835H79.335a.835.835,0,0,0-.835.835v3.451a.835.835,0,0,0,.835.835h37.852A.835.835,0,0,0,118.021,71.286Zm-1.67-.835H80.17V68.67h36.182Z" transform="translate(-69.761 -59.541)"/>
        <path id="Trazado_728915" data-name="Trazado 728915" d="M98.761,133H79.835a.835.835,0,0,0,0,1.67H98.761a.835.835,0,1,0,0-1.67Z" transform="translate(-70.205 -118.193)"/>
        <path id="Trazado_728916" data-name="Trazado 728916" d="M98.761,168H79.835a.835.835,0,0,0,0,1.67H98.761a.835.835,0,1,0,0-1.67Z" transform="translate(-70.205 -149.297)"/>
        <path id="Trazado_728917" data-name="Trazado 728917" d="M219.566,203.835a.835.835,0,0,0-.835-.835h-3.9a.835.835,0,0,0-.835.835v3.9a.835.835,0,0,0,.835.835h3.9a.835.835,0,0,0,.835-.835ZM217.9,206.9H215.67V204.67H217.9Z" transform="translate(-190.176 -180.4)"/>
        <path id="Trazado_728918" data-name="Trazado 728918" d="M218.731,268h-3.9a.835.835,0,0,0-.835.835v3.9a.835.835,0,0,0,.835.835h3.9a.835.835,0,0,0,.835-.835v-3.9A.835.835,0,0,0,218.731,268Zm-.835,3.9H215.67V269.67H217.9Z" transform="translate(-190.176 -238.164)"/>
        <path id="Trazado_728919" data-name="Trazado 728919" d="M150.953,238h-3.618a.835.835,0,1,0,0,1.67h3.618a.835.835,0,1,0,0-1.67Z" transform="translate(-130.19 -211.504)"/>
        <path id="Trazado_728920" data-name="Trazado 728920" d="M90.968,203H79.835a.835.835,0,0,0,0,1.67H90.968a.835.835,0,0,0,0-1.67Z" transform="translate(-70.205 -180.4)"/>
      </g>
    </g>
  </g>
</svg>
