<svg xmlns="http://www.w3.org/2000/svg" width="124.526" height="132" viewBox="0 0 124.526 132">
  <g id="idea_1_" data-name="idea (1)" transform="translate(-14.496)">
    <path id="Trazado_729314" data-name="Trazado 729314" d="M320.5,287.584a1.938,1.938,0,0,0-2.582.92,5.072,5.072,0,0,1-9.166,0,1.938,1.938,0,1,0-3.5,1.662,8.948,8.948,0,0,0,16.17,0A1.938,1.938,0,0,0,320.5,287.584Z" transform="translate(-215.657 -213.302)" fill="#12263f"/>
    <path id="Trazado_729315" data-name="Trazado 729315" d="M273.129,234.446c-1.554,0-2.818,1.882-2.818,4.2s1.264,4.2,2.818,4.2,2.818-1.882,2.818-4.2S274.683,234.446,273.129,234.446Z" transform="translate(-189.863 -174.003)" fill="#12263f"/>
    <path id="Trazado_729316" data-name="Trazado 729316" d="M384.949,234.446c-1.554,0-2.818,1.882-2.818,4.2s1.264,4.2,2.818,4.2,2.818-1.882,2.818-4.2S386.5,234.446,384.949,234.446Z" transform="translate(-272.854 -174.003)" fill="#12263f"/>
    <path id="Trazado_729317" data-name="Trazado 729317" d="M188.939,29.544c.714-2.528.511-4.55-.6-6.01a4.991,4.991,0,0,0-4.052-2.071h-.027c-2.081,0-4.279,1.218-6.2,2.73a6.938,6.938,0,0,0-.877-4.132,5.252,5.252,0,0,0-4.787-2.347c-3.654,0-6.523,2.057-8.616,4.428a6.438,6.438,0,0,0-1.108-2.57,4.716,4.716,0,0,0-3.91-1.858c-3.16,0-5.654,2.626-8.137,5.807a37.826,37.826,0,0,0-4.2-2.037c-.8-.325-1.6-.617-2.379-.87a22.418,22.418,0,0,0-7.993-1.192l-.065,0h-.019c-.357.02-.717.053-1.078.1a13.33,13.33,0,0,0-9.9,6.363c-.358-.123-.765-.25-1.208-.371a21.19,21.19,0,0,0,.491-4.54A20.928,20.928,0,0,0,108.266.592l-.427-.1A21.022,21.022,0,0,0,92.687,2.877,1.938,1.938,0,0,0,94.65,6.219a17.144,17.144,0,0,1,12.341-1.941l.38.086a17.11,17.11,0,0,1,5.779,30.6,6.917,6.917,0,0,0-1.749-.224h-6.167V29.222a7.5,7.5,0,0,0,5.549-7.231,1.938,1.938,0,0,0-3.876,0,3.611,3.611,0,1,1-7.222,0,1.938,1.938,0,0,0-3.876,0,7.5,7.5,0,0,0,5.549,7.231v5.516H95.19a6.974,6.974,0,0,0-1.751.223,17.107,17.107,0,0,1-3.808-24.267,1.938,1.938,0,1,0-3.095-2.334,20.99,20.99,0,0,0,3.393,28.8A6.926,6.926,0,0,0,92.687,48.13a6.933,6.933,0,0,0,5.971,10.455h9.273a6.957,6.957,0,0,0,1.936-.274q.307,1.361.652,2.762a8.7,8.7,0,0,0,4.511,14.454q.063,1.941.16,3.873a19.2,19.2,0,0,0,9.148,15.447A20.177,20.177,0,0,0,115,111.8V124.8s0,.008,0,.012a7.212,7.212,0,0,0,7.2,7.19h51.625a7.212,7.212,0,0,0,7.2-7.2V111.8a20.087,20.087,0,0,0-.71-5.309,1.938,1.938,0,0,0-3.739,1.025,16.208,16.208,0,0,1,.572,4.284v1.128h-8.484v-1.417a1.938,1.938,0,1,0-3.876,0v6.548h-7.637a10.917,10.917,0,0,0-7.2,2.708V107.147a28.955,28.955,0,0,0,9.312,3.656,1.937,1.937,0,0,0,2.076-.944,12.7,12.7,0,0,0-.221-12.139c.456-.019.914-.035,1.37-.056a19.5,19.5,0,0,0,4.711-.808,16.254,16.254,0,0,1,6.179,4.557,1.938,1.938,0,0,0,2.973-2.488,20.157,20.157,0,0,0-4.659-4.08A19.208,19.208,0,0,0,180.842,79.4q.1-1.934.16-3.873a8.709,8.709,0,0,0-.133-17.049q-.353-7.341-1.213-14.642c4.567-4.872,8.157-10.3,9.284-14.29ZM122.6,29.215a14.393,14.393,0,0,1,2.372.834,1.937,1.937,0,0,0,2.579-.851c1.792-3.477,4.351-5.383,7.816-5.826.262-.032.529-.057.793-.072l.125-.008a18.654,18.654,0,0,1,6.565,1.012c.69.222,1.4.481,2.1.768a33.8,33.8,0,0,1,3.293,1.565c-2.051,2.685-4.167,5.215-6.37,6.029a1.938,1.938,0,0,0,1.343,3.636c3.6-1.33,6.366-5,9.041-8.545,2.18-2.891,4.651-6.168,6.493-6.168.53,0,.7.169.823.327.964,1.265.5,5.176-.119,7.419a1.938,1.938,0,0,0,3.681,1.2c.034-.089,3.544-8.95,9.249-8.95,1.169,0,1.422.4,1.505.533.907,1.44-.33,5.579-1.451,7.92a1.938,1.938,0,0,0,3.276,2.031,35.3,35.3,0,0,1,3.251-3.528c3.085-2.9,4.723-3.212,5.3-3.207a1.135,1.135,0,0,1,.989.546,3.449,3.449,0,0,1-.046,2.605c-1.916,6.786-12.892,19.128-21.492,22.45-11.219,4.335-26.216,1.992-33.43-5.222A1.938,1.938,0,0,0,127,46.809a21.041,21.041,0,0,1-2.007,5.958c-1.931,3.677-4.613,5.542-7.97,5.542h-.007l-.138,0a8.668,8.668,0,0,0-2.915.5q-.338-1.43-.632-2.809a6.922,6.922,0,0,0,.57-7.866,6.925,6.925,0,0,0,2.759-10.974,20.846,20.846,0,0,0,5.946-7.945ZM93.031,39.508a3.035,3.035,0,0,1,2.16-.894H111.4a3.054,3.054,0,1,1,0,6.109H95.191a3.054,3.054,0,0,1-2.16-5.215Zm5.629,15.2a3.054,3.054,0,1,1,0-6.109h9.273a3.054,3.054,0,1,1,0,6.109Zm13.385,12.309A4.841,4.841,0,0,1,115,62.561c-.085,2.952-.1,5.917-.065,8.876a4.836,4.836,0,0,1-2.892-4.422Zm16.782,29.838a19.485,19.485,0,0,0,4.712.809c.456.022.914.037,1.371.056a12.7,12.7,0,0,0-.221,12.139,1.938,1.938,0,0,0,2.076.944,28.947,28.947,0,0,0,9.314-3.657v13.627a10.917,10.917,0,0,0-7.205-2.71h-7.637v-6.548a1.938,1.938,0,1,0-3.876,0v1.417h-8.485V111.8a16.272,16.272,0,0,1,9.951-14.95Zm9.115,3.428a10.7,10.7,0,0,0,5.2,4.084,25.179,25.179,0,0,1-5.6,2.27A8.8,8.8,0,0,1,137.941,100.283Zm10.076,1.1c-3.136,0-5.894-1.462-6.978-3.46q3.484.079,6.976.08t6.977-.08C153.909,99.922,151.152,101.383,148.017,101.383ZM122.2,128.124a3.331,3.331,0,0,1-3.328-3.328v-7.987h8.484V120a1.938,1.938,0,0,0,1.938,1.938h9.575a7.1,7.1,0,0,1,7.032,6.184Zm34.955-6.184h9.575A1.938,1.938,0,0,0,168.672,120v-3.192h8.484V124.8s0,0,0,.007a3.331,3.331,0,0,1-3.327,3.319h-23.7A7.1,7.1,0,0,1,157.158,121.94Zm1.734-17.48a9.624,9.624,0,0,1-.4,2.176,25.2,25.2,0,0,1-5.6-2.269,10.691,10.691,0,0,0,5.209-4.1,8.327,8.327,0,0,1,.794,4.189ZM176.971,79.2a15.352,15.352,0,0,1-14.662,14.592c-9.485.448-19.1.448-28.588,0A15.347,15.347,0,0,1,119.062,79.2c-.293-5.684-.346-11.445-.164-17.154,3.988-.6,7.257-3.154,9.527-7.477a24.038,24.038,0,0,0,1.624-3.952,33.521,33.521,0,0,0,15.13,5.9,40.051,40.051,0,0,0,19.936-1.959,37.735,37.735,0,0,0,11.024-7.267A208.147,208.147,0,0,1,176.971,79.2Zm7.017-12.183a4.836,4.836,0,0,1-2.893,4.422q.058-4.435-.07-8.879A4.841,4.841,0,0,1,183.987,67.016Z" transform="translate(-50.335)" fill="#12263f"/>
    <path id="Trazado_729318" data-name="Trazado 729318" d="M41.839,98.834l-5.5,5.5a1.938,1.938,0,1,0,2.741,2.741l5.5-5.5a1.938,1.938,0,0,0-2.741-2.741Z" transform="translate(-15.793 -72.932)" fill="#12263f"/>
    <path id="Trazado_729319" data-name="Trazado 729319" d="M41.836,25.619a1.938,1.938,0,0,0,2.741-2.741l-5.495-5.495a1.938,1.938,0,0,0-2.741,2.741Z" transform="translate(-15.793 -12.481)" fill="#12263f"/>
    <path id="Trazado_729320" data-name="Trazado 729320" d="M26.142,70.136A1.938,1.938,0,0,0,24.2,68.2h-7.7a1.939,1.939,0,1,0-.073,3.876H24.2a1.938,1.938,0,0,0,1.938-1.938Z" transform="translate(0 -50.614)" fill="#12263f"/>
  </g>
</svg>
