<svg xmlns="http://www.w3.org/2000/svg" width="80" height="80" viewBox="0 0 80 80">
  <g id="investigacion_1_" data-name="investigacion (1)" transform="translate(0.001 -0.001)">
    <path id="Trazado_729321" data-name="Trazado 729321" d="M78.972,53.774,66.949,41.75a26.024,26.024,0,0,0,1.042-30.021,1.172,1.172,0,1,0-1.958,1.288,23.694,23.694,0,1,1-3.061-3.754l.064.065A1.172,1.172,0,0,0,64.7,7.677l-.067-.068a26.044,26.044,0,0,0-36.793,0q-.478.478-.925.974H1.171A1.172,1.172,0,0,0,0,9.755v5.183a1.172,1.172,0,1,0,2.344,0V10.928H25.035a25.814,25.814,0,0,0-2.311,3.943H8.124a1.172,1.172,0,0,0,0,2.344h13.63a25.962,25.962,0,0,0-.841,2.865H8.124a1.172,1.172,0,0,0,0,2.344H20.48a26.186,26.186,0,0,0-.236,2.864H8.124a1.172,1.172,0,0,0,0,2.344H20.285a26.042,26.042,0,0,0,2.623,9.9H20.937A1.172,1.172,0,0,0,19.765,38.7V73.395a1.172,1.172,0,0,0,1.172,1.172h9.375a1.172,1.172,0,0,0,1.172-1.172V47.442a25.821,25.821,0,0,0,3.281,1.921V73.395a1.172,1.172,0,0,0,1.172,1.172h9.375a1.172,1.172,0,0,0,1.172-1.172V52.013a26.44,26.44,0,0,0,2.735-.168v18.1a1.172,1.172,0,1,0,2.344,0V51.467a25.84,25.84,0,0,0,10.415-4.743L74,58.746a3.516,3.516,0,0,0,4.974-4.972ZM29.141,72.223H22.109V39.874H24.22a26.031,26.031,0,0,0,3.62,4.532q.634.634,1.3,1.213Zm7.969,0V50.371a26.086,26.086,0,0,0,7.031,1.558V72.223Zm40.2-15.134a1.172,1.172,0,0,1-1.658,0L63.785,45.216c.287-.263.571-.532.848-.809s.547-.56.81-.848L77.314,55.431a1.173,1.173,0,0,1,0,1.657Zm0,0" fill="#12263f"/>
    <path id="Trazado_729322" data-name="Trazado 729322" d="M50.392,175.591a1.172,1.172,0,0,0-1.172,1.172v2.657H2.344V121.781a1.172,1.172,0,0,0-2.344,0v58.811a1.172,1.172,0,0,0,1.172,1.172h49.22a1.171,1.171,0,0,0,1.172-1.172v-3.829A1.171,1.171,0,0,0,50.392,175.591Zm0,0" transform="translate(-0.001 -101.763)" fill="#12263f"/>
    <path id="Trazado_729323" data-name="Trazado 729323" d="M32.5,301.367v25.317a1.172,1.172,0,0,0,1.172,1.172h9.376a1.172,1.172,0,0,0,1.172-1.172V301.367a1.172,1.172,0,0,0-1.172-1.172H33.672A1.172,1.172,0,0,0,32.5,301.367Zm2.344,1.172h7.032v22.972H34.844Zm0,0" transform="translate(-27.423 -253.289)" fill="#12263f"/>
    <path id="Trazado_729324" data-name="Trazado 729324" d="M54.435,197.524a1.172,1.172,0,0,0,0-2.344H45.672a1.172,1.172,0,0,0,0,2.344Zm0,0" transform="translate(-37.548 -164.683)" fill="#12263f"/>
    <path id="Trazado_729325" data-name="Trazado 729325" d="M180.8,29.988a21.3,21.3,0,1,0,15.082,6.238A21.183,21.183,0,0,0,180.8,29.988ZM194.22,64.736a19.012,19.012,0,1,1,5.551-13.426A18.854,18.854,0,0,1,194.22,64.736Zm0,0" transform="translate(-134.559 -25.302)" fill="#12263f"/>
  </g>
</svg>
