<svg xmlns="http://www.w3.org/2000/svg" width="127" height="127" viewBox="0 0 127 127">
  <g id="Grupo_965449" data-name="Grupo 965449" transform="translate(-4809 7520)">
    <circle id="Elipse_5829" data-name="Elipse 5829" cx="63.5" cy="63.5" r="63.5" transform="translate(4809 -7520)" fill="#34bc85"/>
    <g id="pruebas" transform="translate(4839.023 -7489.977)">
      <path id="Trazado_729340" data-name="Trazado 729340" d="M13.383,60.472a3.191,3.191,0,0,1-6.383,0V35.91a5.819,5.819,0,0,0,1.064.1h11.7V60.472a3.191,3.191,0,1,1-6.383,0Z" transform="translate(0.383 2.226)" fill="#838f9b"/>
      <path id="Trazado_729341" data-name="Trazado 729341" d="M24.286,33.255a2.908,2.908,0,0,1,.053.532,2.651,2.651,0,0,1-2.659,2.659H8.383a5.819,5.819,0,0,1-1.064-.1A6.372,6.372,0,0,1,2,30.064V29H7.319a2.134,2.134,0,0,0,2.128,2.128H21.68A2.66,2.66,0,0,1,24.286,33.255Z" transform="translate(0.064 1.785)" fill="#f0d0b4"/>
      <path id="Trazado_729342" data-name="Trazado 729342" d="M7.319,29.829H2V24.51A8.508,8.508,0,0,1,10.51,16H12.5l-.925,9.574L13.7,27.7l2.128-2.128L14.893,16H31.456A19.17,19.17,0,0,0,26.9,21.319H22.743a2.66,2.66,0,0,0-2.659,2.659v7.978H9.446a2.134,2.134,0,0,1-2.128-2.128Z" transform="translate(0.064 0.956)" fill="#34bc85"/>
      <path id="Trazado_729343" data-name="Trazado 729343" d="M14.319,16l.936,9.574L13.128,27.7,11,25.574,11.925,16h2.393Z" transform="translate(0.638 0.956)" fill="#e6e9ed"/>
      <path id="Trazado_729344" data-name="Trazado 729344" d="M63.53,47.485v6.383l-2.883.723c-.043.106-.074.213-.128.319l1.532,2.532-4.521,4.521L55,60.431c-.106.053-.213.085-.319.128l-.723,2.883H47.574l-.723-2.883c-.106-.043-.213-.074-.319-.128L44,61.963l-4.521-4.521L41.01,54.91c-.053-.106-.085-.213-.128-.319L38,53.868v-5.6a18.545,18.545,0,0,0,3.191.277,19.135,19.135,0,0,0,3.691-.362,6.458,6.458,0,0,0-.5,2.489,6.383,6.383,0,1,0,8.4-6.042A19.053,19.053,0,0,0,57.52,39.39h.011l4.521,4.521L60.52,46.443c.053.106.085.213.128.319Z" transform="translate(2.359 2.448)" fill="#ffc729"/>
      <path id="Trazado_729345" data-name="Trazado 729345" d="M58.51,2a4.255,4.255,0,1,1,0,8.51H50V6.255A4.254,4.254,0,0,1,54.255,2Z" transform="translate(3.124 0.064)" fill="#ffeaa7"/>
      <path id="Trazado_729346" data-name="Trazado 729346" d="M53.743,46.381A19.175,19.175,0,0,1,42.148,50.3a18.546,18.546,0,0,1-3.191-.277,18.932,18.932,0,0,1-8.659-3.83A19.688,19.688,0,0,1,27.106,43a18.981,18.981,0,0,1-3.84-8.712A17.934,17.934,0,0,1,23,31.148,19.143,19.143,0,1,1,53.743,46.381Z" transform="translate(1.403 0.701)" fill="#e6e9ed"/>
      <ellipse id="Elipse_5862" data-name="Elipse 5862" cx="15.5" cy="14.5" rx="15.5" ry="14.5" transform="translate(27.977 17.977)" fill="#feb12e"/>
      <g id="Grupo_965129" data-name="Grupo 965129" transform="translate(32.913 21.211)">
        <path id="Trazado_729347" data-name="Trazado 729347" d="M51.255,26V40.669a14.964,14.964,0,0,1-4.244,3.042L47,43.69V26Z" transform="translate(-29.98 -19.617)" fill="#ffeaa7"/>
        <path id="Trazado_729348" data-name="Trazado 729348" d="M47.255,43.435l.011.021A15.253,15.253,0,0,1,43,44.744V30h4.255Z" transform="translate(-30.235 -19.362)" fill="#ffeaa7"/>
        <path id="Trazado_729349" data-name="Trazado 729349" d="M43.255,45.36v.021a15.271,15.271,0,0,1-4.255,0V20h4.255V45.36Z" transform="translate(-30.49 -20)" fill="#ffeaa7"/>
        <path id="Trazado_729350" data-name="Trazado 729350" d="M39.256,44.467v.021A15.253,15.253,0,0,1,34.99,43.2L35,43.18V34h4.255Z" transform="translate(-30.746 -19.107)" fill="#ffeaa7"/>
        <path id="Trazado_729351" data-name="Trazado 729351" d="M35.255,34.383v9.18l-.011.021A14.964,14.964,0,0,1,31,40.542V28h4.255Z" transform="translate(-31 -19.49)" fill="#ffeaa7"/>
      </g>
      <path id="Trazado_729352" data-name="Trazado 729352" d="M30.3,44.331l-4.106,4.106L23,45.246l4.106-4.106A19.687,19.687,0,0,0,30.3,44.331Z" transform="translate(1.403 2.559)" fill="#ccd1d9"/>
      <path id="Trazado_729353" data-name="Trazado 729353" d="M27.51,49.319,19,57.829V47.191L22.191,44l1.064,1.064,3.191,3.191Z" transform="translate(1.148 2.742)" fill="#cf9e76"/>
      <ellipse id="Elipse_5863" data-name="Elipse 5863" cx="7.5" cy="8" rx="7.5" ry="8" transform="translate(5.977 1.977)" fill="#f0d0b4"/>
      <path id="Trazado_729354" data-name="Trazado 729354" d="M65.747,46.189l-4.536-4.536a20.182,20.182,0,0,0-30.02-25.76H19.375a8.507,8.507,0,1,0-10.932.248A9.585,9.585,0,0,0,1,25.466v6.383a7.457,7.457,0,0,0,5.319,7.133V62.7a4.237,4.237,0,0,0,7.446,2.785A4.237,4.237,0,0,0,21.211,62.7V61.011l8.95-8.95L29.1,51l2.721-2.721A20.093,20.093,0,0,0,39.3,51.6v5.545l2.57.641L40.5,60.06l5.688,5.688,2.27-1.364.641,2.569h8.044l.641-2.57,2.27,1.364,5.688-5.688-1.363-2.272,2.57-.64V49.1l-2.57-.641ZM61.634,31.849A18.084,18.084,0,1,1,43.55,13.765,18.1,18.1,0,0,1,61.634,31.849ZM58.443,53.124a5.319,5.319,0,1,1-10.367-1.594,20.1,20.1,0,0,0,7.2-3.251A5.3,5.3,0,0,1,58.443,53.124Zm-35.1-7.887-2.128,2.128V39.3h.532A3.713,3.713,0,0,0,24.377,38.2a20.151,20.151,0,0,0,2.747,5.379L24.4,46.3Zm0-13.388c0,.13.017.255.019.384a3.68,3.68,0,0,0-1.615-.384h-.532V24.935a1.6,1.6,0,0,1,1.6-1.6h2.436A20.07,20.07,0,0,0,23.339,31.849Zm-8.554-5.716-1.02,1.02-1.02-1.02.788-8.113H14ZM7.383,9.51a6.383,6.383,0,1,1,6.383,6.383A6.389,6.389,0,0,1,7.383,9.51Zm3.191,8.51H11.4l-.866,8.907,3.235,3.235L17,26.927l-.866-8.907H28.851A20.355,20.355,0,0,0,26.4,21.211h-3.59a3.727,3.727,0,0,0-3.723,3.723v6.914H9.51a1.065,1.065,0,0,1-1.064-1.064V23.339H6.319v6.383H3.128V25.466A7.455,7.455,0,0,1,10.574,18.02ZM3.128,31.849H6.515a3.187,3.187,0,0,0,3,2.128H21.743a1.6,1.6,0,1,1,0,3.191H8.446A5.325,5.325,0,0,1,3.128,31.849ZM16.956,64.826A2.13,2.13,0,0,1,14.829,62.7V43.55H12.7V62.7a2.128,2.128,0,1,1-4.255,0V39.3H19.084V62.7A2.13,2.13,0,0,1,16.956,64.826ZM21.211,58V50.373l2.128-2.128,3.815,3.815Zm6.383-8.51-1.687-1.687,2.555-2.555a20.2,20.2,0,0,0,1.687,1.687Zm37.232,1.271v4.721L62.752,56l-.568.219-.5,1.212,1.379,2.3-3.338,3.338-2.3-1.378-1.3.528-.651,2.608H50.764l-.518-2.073-.216-.569-1.215-.494-2.3,1.378-3.338-3.338,1.379-2.3-.532-1.3-2.605-.65V51.947a19.583,19.583,0,0,0,4.359-.016,7.445,7.445,0,1,0,11.282-5.1,20.4,20.4,0,0,0,2.977-3.341l3.025,3.025-1.379,2.3.535,1.3Z" transform="translate(0)"/>
      <path id="Trazado_729355" data-name="Trazado 729355" d="M63.893,6.319A5.325,5.325,0,0,0,58.574,1H54.319A5.325,5.325,0,0,0,49,6.319v5.319h9.574A5.325,5.325,0,0,0,63.893,6.319Zm-12.765,0a3.2,3.2,0,0,1,3.191-3.191h4.255a3.191,3.191,0,0,1,0,6.383H51.128Z" transform="translate(3.06)"/>
      <path id="Trazado_729356" data-name="Trazado 729356" d="M53,5h2.128V7.128H53Z" transform="translate(3.316 0.255)"/>
      <path id="Trazado_729357" data-name="Trazado 729357" d="M57,5h2.128V7.128H57Z" transform="translate(3.571 0.255)"/>
      <path id="Trazado_729358" data-name="Trazado 729358" d="M41.956,46.913A15.956,15.956,0,1,0,26,30.956,15.975,15.975,0,0,0,41.956,46.913ZM36.638,36.275h2.128V44.4a13.586,13.586,0,0,1-2.128-.681ZM34.51,42.591a13.883,13.883,0,0,1-2.128-1.679V29.893H34.51Zm6.383,2.14V21.383H43.02V44.731c-.352.028-.7.054-1.064.054S41.245,44.759,40.893,44.731ZM45.148,32.02h2.128v11.7a13.813,13.813,0,0,1-2.128.681Zm6.383,8.892A13.883,13.883,0,0,1,49.4,42.591V27.765H51.53ZM41.956,17.128a13.8,13.8,0,0,1,11.7,21.165V25.638H47.275v4.255H45.148V19.255H38.765V34.148H36.638V27.765H30.255V38.292a13.8,13.8,0,0,1,11.7-21.165Z" transform="translate(1.594 0.893)"/>
    </g>
  </g>
</svg>
