<svg xmlns="http://www.w3.org/2000/svg" width="127" height="127" viewBox="0 0 127 127">
  <g id="Grupo_965450" data-name="Grupo 965450" transform="translate(-4809 7222)">
    <circle id="Elipse_5829" data-name="Elipse 5829" cx="63.5" cy="63.5" r="63.5" transform="translate(4809 -7222)" fill="#34bc85"/>
    <g id="proyecto" transform="translate(4821.435 -7217.313)">
      <path id="Trazado_729359" data-name="Trazado 729359" d="M88.017,115.863a4.742,4.742,0,0,0,4.742-4.742V72H24v39.121a4.742,4.742,0,0,0,4.742,4.742Z" transform="translate(-6.815 -40.887)" fill="#34bc85"/>
      <path id="Trazado_729360" data-name="Trazado 729360" d="M440.3,77.049a4.742,4.742,0,0,0-4.742-4.742H432V32h3.557a4.742,4.742,0,0,1,4.742,4.742Z" transform="translate(-354.354 -6.815)" fill="#34bc85"/>
      <path id="Trazado_729361" data-name="Trazado 729361" d="M24,77.049a4.742,4.742,0,0,1,4.742-4.742H32.3V32H28.742A4.742,4.742,0,0,0,24,36.742Z" transform="translate(-6.815 -6.815)" fill="#34bc85"/>
      <path id="Trazado_729362" data-name="Trazado 729362" d="M216,312h11.855v9.484H216Z" transform="translate(-170.363 -245.322)" fill="#badc61"/>
      <path id="Trazado_729363" data-name="Trazado 729363" d="M205.339,178.669a11.747,11.747,0,0,1-1.973,6.516l-2.769,4.153H188.742l-2.77-4.154A11.747,11.747,0,0,1,184,178.669a10.669,10.669,0,0,1,21.339,0Z" transform="translate(-143.105 -122.661)" fill="#ffc431"/>
      <path id="Trazado_729364" data-name="Trazado 729364" d="M216,376l2.371,4.742h7.113L227.855,376Z" transform="translate(-170.363 -299.838)" fill="#34bc85"/>
      <path id="Trazado_729365" data-name="Trazado 729365" d="M44.357,328a3.353,3.353,0,0,0-2.371.982L24.736,346.231a2.515,2.515,0,0,0,1.778,4.293H44.153a3.556,3.556,0,0,0,3.556-3.556V331.353A3.353,3.353,0,0,0,44.357,328ZM40.6,343.411H34.669l5.927-5.927Z" transform="translate(-6.814 -258.951)" fill="#feb12e"/>
      <path id="Trazado_729366" data-name="Trazado 729366" d="M359.113,440l-3.556,5.927L352,440Z" transform="translate(-286.209 -354.354)" fill="#ffceb6"/>
      <path id="Trazado_729367" data-name="Trazado 729367" d="M352,264h7.113v4.742H352Z" transform="translate(-286.209 -204.435)" fill="#e8f2ff"/>
      <path id="Trazado_729368" data-name="Trazado 729368" d="M352,320h7.113v17.782H352Z" transform="translate(-286.209 -252.137)" fill="#ffc431"/>
      <path id="Trazado_729369" data-name="Trazado 729369" d="M352,296h7.113v3.556H352Z" transform="translate(-286.209 -231.693)" fill="#ffe28f"/>
      <path id="Trazado_729370" data-name="Trazado 729370" d="M81.2,24H77.646a1.186,1.186,0,0,0-1.185,1.185v4.742H26.669V25.185A1.186,1.186,0,0,0,25.484,24H21.927A5.934,5.934,0,0,0,16,29.927V70.234a5.934,5.934,0,0,0,5.927,5.927H24.3V73.791H21.927a3.556,3.556,0,0,1,0-7.113h3.556a1.185,1.185,0,0,0,1.185-1.185V32.3H76.46V65.492a1.186,1.186,0,0,0,1.185,1.186H81.2a3.556,3.556,0,0,1,0,7.113H76.46v2.371H81.2a5.934,5.934,0,0,0,5.927-5.927V29.927A5.934,5.934,0,0,0,81.2,24ZM24.3,64.307H21.927A5.9,5.9,0,0,0,18.371,65.5V29.927a3.561,3.561,0,0,1,3.556-3.556H24.3Zm56.9,0H78.831V26.371H81.2a3.561,3.561,0,0,1,3.556,3.556V65.5A5.9,5.9,0,0,0,81.2,64.307Z" transform="translate(0)"/>
      <path id="Trazado_729371" data-name="Trazado 729371" d="M176,171.855a12.891,12.891,0,0,0,2.172,7.173l2.57,3.855v9.125a1.178,1.178,0,0,0,.126.53h0l2.371,4.742a1.185,1.185,0,0,0,1.06.655h7.113a1.185,1.185,0,0,0,1.06-.655l2.371-4.742h0a1.178,1.178,0,0,0,.126-.53v-9.125l2.57-3.855a12.891,12.891,0,0,0,2.172-7.173,11.855,11.855,0,1,0-23.71,0Zm8.884,1.625,2.26,1.695a1.185,1.185,0,0,0,1.423,0l2.26-1.695-1.572,7.859h-2.8Zm7.713,10.23v7.113h-9.484V183.71Zm-1.918,11.855h-5.648l-1.185-2.371h8.019Zm-2.824-33.194a9.495,9.495,0,0,1,9.484,9.484,10.528,10.528,0,0,1-1.774,5.858l-2.417,3.626h-1.476l2.087-10.437a1.185,1.185,0,0,0-1.874-1.181l-4.031,3.023-4.031-3.023a1.185,1.185,0,0,0-1.874,1.181l2.087,10.437h-1.476l-2.417-3.626a10.528,10.528,0,0,1-1.774-5.858A9.495,9.495,0,0,1,187.855,162.371Z" transform="translate(-136.29 -115.847)"/>
      <path id="Trazado_729372" data-name="Trazado 729372" d="M16,341.194a3.7,3.7,0,0,0,3.7,3.7H37.339a4.747,4.747,0,0,0,4.742-4.742V324.537a4.539,4.539,0,0,0-7.748-3.209L17.084,338.577A3.676,3.676,0,0,0,16,341.194ZM36.01,323a2.167,2.167,0,0,1,3.7,1.533v1.389H37.339V328.3H39.71v2.371H37.339v2.371H39.71v2.371H37.339v2.371H39.71v2.371a2.374,2.374,0,0,1-2.371,2.371H34.968v-2.371H32.6v2.371H30.226v-2.371H27.855v2.371H25.484v-2.371H23.113v2.371H19.7a1.329,1.329,0,0,1-.94-2.269Z" transform="translate(0 -252.135)"/>
      <path id="Trazado_729373" data-name="Trazado 729373" d="M89.186,392.3h5.927a1.186,1.186,0,0,0,1.185-1.186v-5.927a1.186,1.186,0,0,0-2.024-.838l-5.927,5.927a1.186,1.186,0,0,0,.838,2.024Zm4.742-4.251v1.88h-1.88Z" transform="translate(-61.331 -306.652)"/>
      <path id="Trazado_729374" data-name="Trazado 729374" d="M344,257.186v26.081a1.187,1.187,0,0,0,.169.61l3.557,5.928a1.186,1.186,0,0,0,2.033,0l3.557-5.927a1.187,1.187,0,0,0,.169-.61V257.186A1.186,1.186,0,0,0,352.3,256h-7.113A1.185,1.185,0,0,0,344,257.185Zm5.927,24.9V266.669h1.186v15.411Zm-3.556,0V266.669h1.185v15.411Zm0-17.782v-1.186h4.742V264.3Zm2.371,22.591-1.463-2.438H350.2Zm2.371-28.519v2.371h-4.742v-2.371Z" transform="translate(-279.395 -197.621)"/>
      <path id="Trazado_729375" data-name="Trazado 729375" d="M0,0H2.371V3.556H0Z" transform="translate(38.148 43.087) rotate(-45)"/>
      <path id="Trazado_729376" data-name="Trazado 729376" d="M248,112h2.371v3.557H248Z" transform="translate(-197.621 -74.96)"/>
      <path id="Trazado_729377" data-name="Trazado 729377" d="M0,0H3.556V2.371H0Z" transform="translate(60.779 43.93) rotate(-45)"/>
      <path id="Trazado_729378" data-name="Trazado 729378" d="M352,224h3.557v2.371H352Z" transform="translate(-286.209 -170.363)"/>
      <path id="Trazado_729379" data-name="Trazado 729379" d="M136,224h3.556v2.371H136Z" transform="translate(-102.218 -170.363)"/>
    </g>
  </g>
</svg>
