<svg xmlns="http://www.w3.org/2000/svg" width="127" height="127" viewBox="0 0 127 127">
  <g id="Grupo_965454" data-name="Grupo 965454" transform="translate(-4809 6626)">
    <circle id="Elipse_5829" data-name="Elipse 5829" cx="63.5" cy="63.5" r="63.5" transform="translate(4809 -6626)" fill="#34bc85"/>
    <g id="gestion-de-proyectos_3_" data-name="gestion-de-proyectos (3)" transform="translate(4839.133 -6608.41)">
      <path id="Trazado_729408" data-name="Trazado 729408" d="M7.5,117.944v47.288a1.994,1.994,0,0,0,1.994,1.994H71.216a1.994,1.994,0,0,0,1.994-1.994V117.944Z" transform="translate(-6.508 -90.371)" fill="#f1f4f6"/>
      <g id="Grupo_965146" data-name="Grupo 965146" transform="translate(6.467 14.797)">
        <path id="Trazado_729409" data-name="Trazado 729409" d="M52.425,28.607H49.059a.142.142,0,0,1-.142-.142V21.448a.142.142,0,0,1,.142-.142h3.366a.142.142,0,0,1,.142.142v7.017A.142.142,0,0,1,52.425,28.607Z" transform="translate(-48.917 -21.306)" fill="#d0e2e7"/>
        <path id="Trazado_729410" data-name="Trazado 729410" d="M149.064,28.607H145.7a.142.142,0,0,1-.142-.142V21.448a.142.142,0,0,1,.142-.142h3.366a.142.142,0,0,1,.142.142v7.017A.142.142,0,0,1,149.064,28.607Z" transform="translate(-132.779 -21.306)" fill="#d0e2e7"/>
        <path id="Trazado_729411" data-name="Trazado 729411" d="M245.7,28.607h-3.366a.142.142,0,0,1-.142-.142V21.448a.142.142,0,0,1,.142-.142H245.7a.142.142,0,0,1,.142.142v7.017A.142.142,0,0,1,245.7,28.607Z" transform="translate(-216.641 -21.306)" fill="#d0e2e7"/>
        <path id="Trazado_729412" data-name="Trazado 729412" d="M342.341,28.607h-3.366a.142.142,0,0,1-.142-.142V21.448a.142.142,0,0,1,.142-.142h3.366a.142.142,0,0,1,.142.142v7.017A.142.142,0,0,1,342.341,28.607Z" transform="translate(-300.503 -21.306)" fill="#d0e2e7"/>
        <path id="Trazado_729413" data-name="Trazado 729413" d="M438.98,28.607h-3.366a.142.142,0,0,1-.142-.142V21.448a.142.142,0,0,1,.142-.142h3.366a.142.142,0,0,1,.142.142v7.017A.142.142,0,0,1,438.98,28.607Z" transform="translate(-384.365 -21.306)" fill="#d0e2e7"/>
      </g>
      <path id="Trazado_729414" data-name="Trazado 729414" d="M71.216,48.917H67.734v3.508a.142.142,0,0,1-.142.142H64.225a.142.142,0,0,1-.142-.142V48.917H54.957v3.508a.142.142,0,0,1-.142.142H51.448a.142.142,0,0,1-.142-.142V48.917H42.18v3.508a.142.142,0,0,1-.142.142H38.672a.142.142,0,0,1-.142-.142V48.917H29.4v3.508a.142.142,0,0,1-.142.142H25.895a.142.142,0,0,1-.142-.142V48.917H16.626v3.508a.142.142,0,0,1-.142.142H13.118a.142.142,0,0,1-.142-.142V48.917H9.494A1.994,1.994,0,0,0,7.5,50.911v7.133H73.209V50.911a1.994,1.994,0,0,0-1.994-1.994Z" transform="translate(-6.508 -30.47)" fill="#34bc85"/>
      <path id="Trazado_729415" data-name="Trazado 729415" d="M67.921,117.944v36.547a10.09,10.09,0,0,1-10.09,10.09H7.5v.651a1.994,1.994,0,0,0,1.994,1.994H71.216a1.994,1.994,0,0,0,1.994-1.994V117.944Z" transform="translate(-6.508 -90.371)" fill="#dfeaef"/>
      <path id="Trazado_729416" data-name="Trazado 729416" d="M47.753,164.839H35.263a.144.144,0,0,1-.143-.143v-5.189a.144.144,0,0,1,.143-.143H47.753a.144.144,0,0,1,.143.143V164.7A.143.143,0,0,1,47.753,164.839Z" transform="translate(-30.477 -126.314)" fill="#9bd069"/>
      <path id="Trazado_729417" data-name="Trazado 729417" d="M77.188,206.254H62.873a.144.144,0,0,1-.143-.144v-5.189a.143.143,0,0,1,.143-.143H77.188a.143.143,0,0,1,.143.143v5.189A.143.143,0,0,1,77.188,206.254Z" transform="translate(-54.436 -162.254)" fill="#8bc852"/>
      <path id="Trazado_729418" data-name="Trazado 729418" d="M106.623,247.669H90.483a.143.143,0,0,1-.143-.143v-5.189a.143.143,0,0,1,.143-.143h16.14a.143.143,0,0,1,.143.143v5.189A.143.143,0,0,1,106.623,247.669Z" transform="translate(-78.396 -198.193)" fill="#9bd069"/>
      <path id="Trazado_729419" data-name="Trazado 729419" d="M236.344,289.084H214.585v-5.332a.143.143,0,0,1,.143-.143h21.615a.143.143,0,0,1,.143.143v5.189a.144.144,0,0,1-.143.144Z" transform="translate(-186.214 -234.132)" fill="#feb12e"/>
      <path id="Trazado_729420" data-name="Trazado 729420" d="M225.393,330.5H214.728a.143.143,0,0,1-.143-.143v-5.332h10.951v5.332A.143.143,0,0,1,225.393,330.5Z" transform="translate(-186.214 -270.071)" fill="#feb12e"/>
      <path id="Trazado_729421" data-name="Trazado 729421" d="M379.216,371.914H366.583a.143.143,0,0,1-.143-.143v-5.189a.143.143,0,0,1,.143-.143h12.489a.144.144,0,0,1,.143.143v5.332Z" transform="translate(-317.992 -306.012)" fill="#0e494d"/>
      <path id="Trazado_729422" data-name="Trazado 729422" d="M403.033,413.329h-8.839a.143.143,0,0,1-.143-.143v-5.332h9.126v5.332A.144.144,0,0,1,403.033,413.329Z" transform="translate(-341.953 -341.95)" fill="#0e494d"/>
      <path id="Trazado_729423" data-name="Trazado 729423" d="M444.094,414.283v-5.165a10.073,10.073,0,0,1-2.892,5.308h2.748A.143.143,0,0,0,444.094,414.283Z" transform="translate(-382.87 -343.048)" fill="#dd542e"/>
      <path id="Trazado_729424" data-name="Trazado 729424" d="M64.707,17.456h-2.49V14.939A1.135,1.135,0,0,0,61.083,13.8H57.717a1.135,1.135,0,0,0-1.134,1.134v2.517H49.44V14.939A1.135,1.135,0,0,0,48.306,13.8H44.94a1.135,1.135,0,0,0-1.134,1.134v2.517H36.663V14.939A1.135,1.135,0,0,0,35.53,13.8H32.163a1.135,1.135,0,0,0-1.134,1.134v2.517H23.886V14.939A1.135,1.135,0,0,0,22.753,13.8H19.387a1.135,1.135,0,0,0-1.134,1.134v2.517H11.11V14.939A1.135,1.135,0,0,0,9.976,13.8H6.61a1.135,1.135,0,0,0-1.134,1.134v2.517H2.985A2.989,2.989,0,0,0,0,20.441V74.862a2.989,2.989,0,0,0,2.985,2.985H16.442a.992.992,0,0,0,0-1.983H12.936v-25.4H21.9v25.4H21.07a.992.992,0,1,0,0,1.983H64.707a2.989,2.989,0,0,0,2.985-2.985V20.441a2.989,2.989,0,0,0-2.985-2.985Zm-6.141-1.667h1.667v5.318H58.566Zm-12.777,0h1.667v5.318H45.789Zm-12.777,0H34.68v5.318H33.013Zm-12.777,0H21.9v5.318H20.236Zm-12.777,0H9.126v5.318H7.459ZM2.985,19.439h2.49v2.517A1.135,1.135,0,0,0,6.61,23.089H9.976a1.135,1.135,0,0,0,1.134-1.134V19.439h7.143v2.517a1.135,1.135,0,0,0,1.134,1.134h3.366a1.135,1.135,0,0,0,1.134-1.134V19.439h7.143v2.517a1.135,1.135,0,0,0,1.134,1.134h3.366a1.135,1.135,0,0,0,1.134-1.134V19.439h7.143v2.517a1.135,1.135,0,0,0,1.134,1.134h3.366a1.135,1.135,0,0,0,1.134-1.134V19.439h7.143v2.517a1.135,1.135,0,0,0,1.134,1.134h3.366a1.135,1.135,0,0,0,1.134-1.134V19.439h2.49a1,1,0,0,1,1,1v6.141H18.756a.992.992,0,1,0,0,1.983H21.9v8.968H18.411V33.193a1.136,1.136,0,0,0-1.135-1.135h-4.34V28.565h1.192a.992.992,0,0,0,0-1.983H1.983V20.441a1,1,0,0,1,1-1Zm50.1,50.948V66.895h7.143v3.492Zm7.143-5.476H49.439V61.419H60.233ZM48.591,59.436a1.136,1.136,0,0,0-1.135,1.135v5.189a1.136,1.136,0,0,0,1.135,1.135h2.515v4.34a1.137,1.137,0,0,0,1.135,1.135h2.516v3.494H45.79V55.943h4.34a1.136,1.136,0,0,0,1.135-1.135V49.62a1.136,1.136,0,0,0-1.135-1.135H45.79V28.565h8.968V59.436ZM12.936,48.485V44.992H27.379v3.492Zm3.492-14.444v3.492H5.635V34.041ZM9.285,39.517H21.9v3.492H9.285Zm23.57-10.952V48.485H29.362V44.144a1.136,1.136,0,0,0-1.135-1.135h-4.34V28.565Zm8.654,19.919a.992.992,0,0,0,0,1.983h7.772V53.96H29.362V50.468h7.52a.992.992,0,1,0,0-1.983H34.839V28.565h8.968V48.485ZM29.362,55.943H38.33v3.492H29.362Zm9.816,5.476a1.136,1.136,0,0,0,1.135-1.135v-4.34h3.493V75.864H34.839V61.419ZM2.985,75.864a1,1,0,0,1-1-1v-46.3h8.97v3.493H4.787a1.136,1.136,0,0,0-1.135,1.135v5.189a1.136,1.136,0,0,0,1.135,1.135H7.3v4.34a1.136,1.136,0,0,0,1.135,1.135h2.515c0,5.413,0,8.954,0,30.872Zm20.9-25.4h3.492v9.816a1.136,1.136,0,0,0,1.135,1.135h4.341V75.864H23.887v-25.4ZM65.709,74.862a1,1,0,0,1-1,1H56.741V72.37h4.34a1.136,1.136,0,0,0,1.135-1.135V60.571a1.136,1.136,0,0,0-1.135-1.135h-4.34V28.565h8.969Z" transform="translate(0 0)"/>
    </g>
  </g>
</svg>
