<svg xmlns="http://www.w3.org/2000/svg" width="127" height="127" viewBox="0 0 127 127">
  <g id="Grupo_965453" data-name="Grupo 965453" transform="translate(-4809.457 6328)">
    <circle id="Elipse_5829" data-name="Elipse 5829" cx="63.5" cy="63.5" r="63.5" transform="translate(4809.457 -6328)" fill="#34bc85"/>
    <g id="gestion-de-proyectos" transform="translate(4835.4 -6302.362)">
      <path id="Trazado_729326" data-name="Trazado 729326" d="M59.4,29.7A22.7,22.7,0,1,0,24.451,48.81a7.23,7.23,0,0,1,3.42,6.055v5.1a3.783,3.783,0,0,0,3.783,3.783H41.742a3.783,3.783,0,0,0,3.783-3.783V54.97a7.428,7.428,0,0,1,3.493-6.207A22.677,22.677,0,0,0,59.4,29.7Z" transform="translate(3.2 1.37)" fill="#e39d10"/>
      <path id="Trazado_729327" data-name="Trazado 729327" d="M27,59.566a3.783,3.783,0,0,0,3.783,3.783h5.044a3.783,3.783,0,0,0,3.783-3.783V52H27Z" transform="translate(6.593 13.113)" fill="#ebebeb"/>
      <path id="Trazado_729328" data-name="Trazado 729328" d="M63.427,17.4l3.965-2.973L62.852,8.376l-3.965,2.973a2.522,2.522,0,0,1-4.009-2.374l.7-4.9L48.089,3l-.7,4.9a2.522,2.522,0,0,1-4.514,1.158L39.9,5.1,33.85,9.636,36.822,13.6a2.522,2.522,0,0,1-2.374,4.009l-4.9-.7L28.473,24.4l4.905.7a2.522,2.522,0,0,1,1.156,4.514l-3.963,2.973,4.539,6.053,3.963-2.972a2.522,2.522,0,0,1,4.01,2.374l-.706,4.9,7.49,1.071.706-4.905a2.522,2.522,0,0,1,4.514-1.156l2.973,3.963,6.053-4.54L61.14,33.415a2.522,2.522,0,0,1,2.374-4.01l4.9.7,1.071-7.49-4.9-.7A2.522,2.522,0,0,1,63.427,17.4ZM48.981,32.334a8.827,8.827,0,1,1,8.827-8.827,8.827,8.827,0,0,1-8.827,8.827Z" transform="translate(6.978 0.326)" fill="#34bc85"/>
      <path id="Trazado_729329" data-name="Trazado 729329" d="M27.39,44.113a22.759,22.759,0,0,1-3.107-2.406,6.295,6.295,0,1,1-6.083-7.88c.193,0,.378.04.562.057A22.68,22.68,0,0,1,16.952,25H15.347l-.871,4.145a1.261,1.261,0,0,1-1.949.779l-3.484-2.4L5.259,31.3l2.4,3.484a1.261,1.261,0,0,1-.779,1.949l-4.139.871v5.044l4.144.871a1.261,1.261,0,0,1,.779,1.949l-2.4,3.484,3.783,3.783,3.484-2.4a1.261,1.261,0,0,1,1.951.779l.87,4.139h5.044l.87-4.145a1.261,1.261,0,0,1,1.951-.779l3.484,2.4,3.958-3.958a7.341,7.341,0,0,0-3.263-4.671Z" transform="translate(0.261 6.067)" fill="#c9dfff"/>
      <path id="Trazado_729330" data-name="Trazado 729330" d="M76.645,21.628l-4.905-.7a1.261,1.261,0,0,1-.579-2.257L75.126,15.7a1.261,1.261,0,0,0,.252-1.765L70.839,7.88a1.261,1.261,0,0,0-1.765-.252L65.11,10.6A1.261,1.261,0,0,1,63.1,9.415l.7-4.905a1.261,1.261,0,0,0-1.071-1.427L55.245,2.013a1.261,1.261,0,0,0-1.427,1.069l-.7,4.905a1.261,1.261,0,0,1-2.257.579L47.888,4.6a1.261,1.261,0,0,0-1.765-.252L42.333,7.193a24.4,24.4,0,0,0-5.157,0A23.958,23.958,0,0,0,16.051,28.676c-.034.357-.047.711-.064,1.066h-.378a1.261,1.261,0,0,0-1.233,1.009L13.5,34.894l-3.49-2.407a1.261,1.261,0,0,0-1.608.146L4.622,36.416a1.261,1.261,0,0,0-.146,1.606l2.4,3.484-4.145.871a1.261,1.261,0,0,0-.991,1.234v5.044a1.261,1.261,0,0,0,1,1.234l4.145.871-2.4,3.484a1.261,1.261,0,0,0,.146,1.606l3.783,3.783a1.261,1.261,0,0,0,1.608.146l3.484-2.4.871,4.145a1.261,1.261,0,0,0,1.233,1.009h5.044a1.261,1.261,0,0,0,1.234-1l.871-4.145,3.484,2.4a1.261,1.261,0,0,0,1.606-.146l1.958-1.965v3.594a5.028,5.028,0,0,0,2.522,4.343v7.006a5.044,5.044,0,0,0,5.044,5.044H42.42a5.044,5.044,0,0,0,5.044-5.044V65.609a5.028,5.028,0,0,0,2.522-4.343V56.275A6.179,6.179,0,0,1,52.9,51.128a24.192,24.192,0,0,0,2.968-2.27l-1.682-1.879a21.462,21.462,0,0,1-2.657,2.031,8.686,8.686,0,0,0-4.068,7.264v4.991a2.522,2.522,0,0,1-2.522,2.522H34.854a2.522,2.522,0,0,1-2.522-2.522v-5.1a8.484,8.484,0,0,0-4-7.117A21.372,21.372,0,0,1,39.627,9.585a1.375,1.375,0,0,0-.049.137,1.261,1.261,0,0,0,.241.934l2.972,3.963a1.235,1.235,0,0,1,.076,1.4,1.253,1.253,0,0,1-1.261.607l-4.905-.7A1.261,1.261,0,0,0,35.273,17L34.2,24.484a1.261,1.261,0,0,0,1.071,1.427l4.905.7a1.261,1.261,0,0,1,.579,2.257l-3.963,2.972a1.261,1.261,0,0,0-.252,1.765l4.54,6.053a1.261,1.261,0,0,0,1.765.252l3.965-2.972a1.261,1.261,0,0,1,2,1.187l-.7,4.905a1.261,1.261,0,0,0,1.069,1.427l7.49,1.071a1.4,1.4,0,0,0,.178.011A1.261,1.261,0,0,0,58.1,44.46l.7-4.905a1.261,1.261,0,0,1,2.257-.579l2.973,3.963a1.261,1.261,0,0,0,1.765.252l6.053-4.539a1.261,1.261,0,0,0,.252-1.765L69.13,32.923a1.24,1.24,0,0,1-.076-1.4,1.224,1.224,0,0,1,1.261-.605l4.905.7a1.261,1.261,0,0,0,1.427-1.069l1.069-7.49a1.261,1.261,0,0,0-1.069-1.427ZM18.177,41.09a23.879,23.879,0,0,0,4.681,6.741,5.036,5.036,0,1,1-4.729-6.741ZM42.42,75.136H37.376a2.522,2.522,0,0,1-2.522-2.522V71.354H44.942v1.261A2.522,2.522,0,0,1,42.42,75.136Zm2.522-8.827v2.522H34.854V66.31ZM29.511,54.4l-2.7,2.7L24.188,55.3a2.522,2.522,0,0,0-3.9,1.557L19.628,60h-3l-.661-3.144a2.522,2.522,0,0,0-3.9-1.557l-2.62,1.8-2.3-2.292,1.8-2.618a2.522,2.522,0,0,0-1.556-3.9l-3.144-.662v-3L7.4,43.974a2.522,2.522,0,0,0,1.557-3.893L7.153,37.456l2.3-2.292,2.622,1.806a2.522,2.522,0,0,0,3.9-1.559l.221-1.049a24.009,24.009,0,0,0,1,4.276,7.566,7.566,0,1,0,7.625,10.97,23.837,23.837,0,0,0,2.155,1.57A6.155,6.155,0,0,1,29.511,54.4ZM74.323,28.939l-3.657-.522A3.783,3.783,0,0,0,67.1,34.432l2.216,2.954-4.035,3.026L63.068,37.46A3.783,3.783,0,0,0,56.3,39.194l-.511,3.662-4.992-.714.522-3.657A3.783,3.783,0,0,0,45.3,34.923l-2.954,2.216L39.321,33.1l2.953-2.217a3.783,3.783,0,0,0-1.734-6.771l-3.657-.522L37.6,18.6l3.657.522a3.783,3.783,0,0,0,3.562-6.015l-2.223-2.957,4.035-3.026,2.217,2.954a3.783,3.783,0,0,0,6.771-1.734l.522-3.657L61.13,5.4l-.522,3.657a3.783,3.783,0,0,0,6.015,3.561L69.578,10.4,72.6,14.438l-2.954,2.217a3.783,3.783,0,0,0,1.734,6.771l3.657.522Z" transform="translate(0 0.065)"/>
      <path id="Trazado_729331" data-name="Trazado 729331" d="M46.824,11.264A10.088,10.088,0,1,0,56.912,21.352,10.088,10.088,0,0,0,46.824,11.264Zm0,17.654a7.566,7.566,0,1,1,7.566-7.566,7.566,7.566,0,0,1-7.566,7.566Z" transform="translate(9.134 2.482)"/>
      <path id="Trazado_729332" data-name="Trazado 729332" d="M31,46h2.522v3.783H31Z" transform="translate(7.637 11.548)"/>
      <path id="Trazado_729333" data-name="Trazado 729333" d="M30.14,42.188a15.132,15.132,0,0,1-2.555-26.9l-1.348-2.134a17.654,17.654,0,0,0,2.987,31.381,8.05,8.05,0,0,1,5.17,7.515h2.522A10.551,10.551,0,0,0,30.14,42.188Z" transform="translate(4.243 2.976)"/>
      <path id="Trazado_729334" data-name="Trazado 729334" d="M51,39h8.827v2.522H51Z" transform="translate(12.857 9.721)"/>
      <path id="Trazado_729335" data-name="Trazado 729335" d="M0,0H2.522V9.848H0Z" transform="matrix(0.64, -0.768, 0.768, 0.64, 61.788, 57.256)"/>
      <path id="Trazado_729336" data-name="Trazado 729336" d="M45,47h2.522v8.827H45Z" transform="translate(11.291 11.809)"/>
      <path id="Trazado_729337" data-name="Trazado 729337" d="M0,0H10.4V2.521H0Z" transform="matrix(0.97, -0.243, 0.243, 0.97, 3.024, 23.539)"/>
      <path id="Trazado_729338" data-name="Trazado 729338" d="M0,0H2.521V10.847H0Z" transform="matrix(0.581, -0.814, 0.814, 0.581, 5.119, 10.657)"/>
      <path id="Trazado_729339" data-name="Trazado 729339" d="M0,0H2.522V10.412H0Z" transform="matrix(0.969, -0.248, 0.248, 0.969, 15.923, 2.376)"/>
    </g>
  </g>
</svg>
