<svg xmlns="http://www.w3.org/2000/svg" width="127" height="127" viewBox="0 0 127 127">
  <g id="Grupo_965452" data-name="Grupo 965452" transform="translate(-4809 6022)">
    <circle id="Elipse_5829" data-name="Elipse 5829" cx="63.5" cy="63.5" r="63.5" transform="translate(4809 -6022)" fill="#34bc85"/>
    <g id="ley" transform="translate(4834.466 -6007.464)">
      <g id="Grupo_965156" data-name="Grupo 965156" transform="translate(16.67 58.823)">
        <g id="Grupo_965151" data-name="Grupo 965151" transform="translate(0 4.087)">
          <path id="Trazado_729456" data-name="Trazado 729456" d="M158.646,359.153a13.01,13.01,0,0,0,3.123,8.568H114.69a1.489,1.489,0,0,1-1.216-.622,15.167,15.167,0,0,1,0-15.892,1.49,1.49,0,0,1,1.216-.622h47.079A13.011,13.011,0,0,0,158.646,359.153Z" transform="translate(-111.226 -350.585)" fill="#feb12e"/>
          <path id="Trazado_729457" data-name="Trazado 729457" d="M125.593,350.587l-13.276,14.381a15.044,15.044,0,0,1-1.087-5.812,13.6,13.6,0,0,1,2.248-7.946,1.488,1.488,0,0,1,1.215-.622Z" transform="translate(-111.229 -350.587)" fill="#feb12e"/>
          <path id="Trazado_729458" data-name="Trazado 729458" d="M193.211,359.153a13.01,13.01,0,0,0,3.123,8.568h-47.8s-2.747-2.782-2.747-8.568,2.747-8.568,2.747-8.568h47.8A13.011,13.011,0,0,0,193.211,359.153Z" transform="translate(-140.61 -350.585)" fill="#e0d3ce"/>
          <g id="Grupo_965150" data-name="Grupo 965150" transform="translate(5.18 0)">
            <path id="Trazado_729459" data-name="Trazado 729459" d="M154.973,350.587l-9.133,9.893c-.031-.423-.049-.865-.049-1.325,0-5.787,2.747-8.568,2.747-8.568Z" transform="translate(-145.79 -350.587)" fill="#cdbfbb"/>
            <path id="Trazado_729460" data-name="Trazado 729460" d="M430.062,359.16a13.009,13.009,0,0,0,3.123,8.568h-5.663a13.312,13.312,0,0,1,0-17.135h5.663A13.005,13.005,0,0,0,430.062,359.16Z" transform="translate(-382.642 -350.591)" fill="#cdbfbb"/>
          </g>
        </g>
        <g id="Grupo_965155" data-name="Grupo 965155" transform="translate(6.449)">
          <g id="Grupo_965153" data-name="Grupo 965153" transform="translate(0)">
            <path id="Trazado_729461" data-name="Trazado 729461" d="M206.751,325.8a2.487,2.487,0,0,1-2.486,2.486H156.746a2.487,2.487,0,0,1,0-4.974h47.518a2.487,2.487,0,0,1,2.486,2.488Z" transform="translate(-154.26 -323.317)" fill="#feb12e"/>
            <g id="Grupo_965152" data-name="Grupo 965152">
              <path id="Trazado_729462" data-name="Trazado 729462" d="M165.946,323.317l-4.591,4.974h-4.609a2.487,2.487,0,0,1,0-4.974Z" transform="translate(-154.26 -323.317)" fill="#feb12e"/>
              <path id="Trazado_729463" data-name="Trazado 729463" d="M463.025,325.807a2.489,2.489,0,0,1-2.488,2.488h-4.824a2.487,2.487,0,0,0,0-4.975h4.824A2.488,2.488,0,0,1,463.025,325.807Z" transform="translate(-410.532 -323.32)" fill="#feb12e"/>
            </g>
          </g>
          <g id="Grupo_965154" data-name="Grupo 965154" transform="translate(0 20.335)">
            <path id="Trazado_729464" data-name="Trazado 729464" d="M204.262,463.97H156.744a2.487,2.487,0,1,1,0-4.974h47.518a2.487,2.487,0,1,1,0,4.974Z" transform="translate(-154.257 -458.996)" fill="#feb12e"/>
            <path id="Trazado_729465" data-name="Trazado 729465" d="M463.025,461.486a2.486,2.486,0,0,1-2.488,2.486h-4.824a2.486,2.486,0,1,0,0-4.973h4.824A2.488,2.488,0,0,1,463.025,461.486Z" transform="translate(-410.532 -458.999)" fill="#feb12e"/>
          </g>
        </g>
      </g>
      <g id="Grupo_965164" data-name="Grupo 965164" transform="translate(-0.001 12.193)">
        <g id="Grupo_965159" data-name="Grupo 965159" transform="translate(1.124 29.704)">
          <g id="Grupo_965157" data-name="Grupo 965157" transform="translate(0 9.513)">
            <path id="Trazado_729466" data-name="Trazado 729466" d="M40.24,277.872l-4.015-4.015L8.893,299.088a4.328,4.328,0,1,0,6.116,6.116Z" transform="translate(-7.5 -273.857)" fill="#badc61"/>
            <path id="Trazado_729467" data-name="Trazado 729467" d="M16.093,312.335a4.33,4.33,0,0,1-6.119,0,4.285,4.285,0,0,1-1.056-1.725,4.322,4.322,0,0,0,4.392-1.052c.042-.042.083-.086.123-.128L38.665,282.1l2.78,2.78L16.214,312.209C16.173,312.252,16.133,312.294,16.093,312.335Z" transform="translate(-8.706 -280.861)" fill="#d9eaac"/>
          </g>
          <path id="Trazado_729468" data-name="Trazado 729468" d="M199.881,210.382l-9.245,11.029,3.777,3.777,11.028-9.245Z" transform="translate(-163.188 -210.382)" fill="#badc61"/>
          <path id="Trazado_729469" data-name="Trazado 729469" d="M208.32,210.382l-2.987,3.564.9.9a1.69,1.69,0,0,1,0,2.389l-5.667,5.667,2.289,2.289,11.028-9.245Z" transform="translate(-171.627 -210.382)" fill="#badc61"/>
          <g id="Grupo_965158" data-name="Grupo 965158" transform="translate(24.388 8.77)">
            <path id="Trazado_729470" data-name="Trazado 729470" d="M174.683,277.2l-3.666-3.666a2.714,2.714,0,0,1,3.838-3.838l3.666,3.666a2.714,2.714,0,1,1-3.838,3.838Z" transform="translate(-170.222 -268.899)" fill="#ba5d4f"/>
            <path id="Trazado_729471" data-name="Trazado 729471" d="M188.058,286.74a2.714,2.714,0,0,1-3.838,0l-2.779-2.779a2.714,2.714,0,0,0,3.838-3.838l2.779,2.779A2.713,2.713,0,0,1,188.058,286.74Z" transform="translate(-179.76 -278.441)" fill="#a34f41"/>
          </g>
        </g>
        <g id="Grupo_965160" data-name="Grupo 965160" transform="translate(29.827 4.497)">
          <path id="Trazado_729472" data-name="Trazado 729472" d="M0,0H11.514V18.077H0Z" transform="translate(12.78 0) rotate(45)" fill="#badc61"/>
          <path id="Trazado_729473" data-name="Trazado 729473" d="M0,0H11.514V18.077H0Z" transform="translate(25.972 38.764) rotate(-135)" fill="#badc61"/>
        </g>
        <g id="Grupo_965163" data-name="Grupo 965163" transform="translate(0 0)">
          <path id="Trazado_729474" data-name="Trazado 729474" d="M177.567,38.653l-.283-.283a2.746,2.746,0,0,1,0-3.883L191.273,20.5a2.746,2.746,0,0,1,3.883,0l.283.283a2.746,2.746,0,0,1,0,3.883L181.45,38.653a2.746,2.746,0,0,1-3.883,0Z" transform="translate(-150.029 -18.57)" fill="#badc61"/>
          <path id="Trazado_729475" data-name="Trazado 729475" d="M349.048,210.133l.283.283a2.746,2.746,0,0,0,3.883,0L367.2,196.427a2.746,2.746,0,0,0,0-3.883l-.283-.283a2.746,2.746,0,0,0-3.883,0L349.048,206.25A2.746,2.746,0,0,0,349.048,210.133Z" transform="translate(-296.05 -164.589)" fill="#badc61"/>
          <g id="Grupo_965162" data-name="Grupo 965162">
            <path id="Trazado_729476" data-name="Trazado 729476" d="M0,0H12.93V27.3H0Z" transform="translate(54.281 9.648) rotate(45)" fill="#fcc16d"/>
            <path id="Trazado_729477" data-name="Trazado 729477" d="M0,0H27.3V6.545H0Z" transform="translate(39.488 33.475) rotate(-45)" fill="#fca62f"/>
            <path id="Trazado_729478" data-name="Trazado 729478" d="M244.458,67.935l-2.24-.916a2.059,2.059,0,0,0-2.236.45L224.255,83.2a2.06,2.06,0,0,0-.45,2.236l.916,2.24a1.373,1.373,0,0,0,2.242.451l17.947-17.946A1.373,1.373,0,0,0,244.458,67.935Z" transform="translate(-190.132 -58.672)" fill="#badc61"/>
            <path id="Trazado_729479" data-name="Trazado 729479" d="M309.011,132.489l.916,2.24a2.06,2.06,0,0,1-.45,2.236l-15.727,15.727a2.06,2.06,0,0,1-2.236.45l-2.24-.916a1.373,1.373,0,0,1-.451-2.242l17.946-17.946A1.373,1.373,0,0,1,309.011,132.489Z" transform="translate(-245.193 -113.734)" fill="#badc61"/>
            <g id="Grupo_965161" data-name="Grupo 965161">
              <path id="Trazado_729480" data-name="Trazado 729480" d="M73.124,78.034h-.836a11.626,11.626,0,0,1-.968-1.846,1.124,1.124,0,1,0-2.077.86c.139.336.294.663.458.986H25.606a3.6,3.6,0,0,0-.98.136,13.067,13.067,0,0,1-1.652-6.692c0-.49.022-.973.064-1.447H44.575a1.124,1.124,0,0,0,0-2.248H23.985l2.641-2.861H69.695a14.032,14.032,0,0,0-1.082,2.861H53.837a1.124,1.124,0,0,0,0,2.248H68.219c-.044.457-.07.918-.071,1.383a1.124,1.124,0,0,0,1.119,1.129h0A1.124,1.124,0,0,0,70.4,71.424a12.028,12.028,0,0,1,1.89-6.5h.838a3.611,3.611,0,1,0,0-7.222H59.073L71.947,44.826a3.87,3.87,0,0,0,0-5.473l-.283-.283a3.868,3.868,0,0,0-5.274-.184L64.4,36.9l.677-.677a3.176,3.176,0,0,0,.7-3.456l-.916-2.24a2.491,2.491,0,0,0-1.808-1.5l-1.563-1.563a1.124,1.124,0,0,0-1.59,1.59l.769.769L42.95,47.533l-5.21-5.21L55.456,24.608l.69.69a1.124,1.124,0,1,0,1.59-1.59l-1.484-1.484a2.492,2.492,0,0,0-1.5-1.809h0l-2.24-.916a3.177,3.177,0,0,0-3.456.7l-.677.677-1.99-1.99A3.868,3.868,0,0,0,46.2,13.61l-.283-.283a3.87,3.87,0,0,0-5.473,0L26.459,27.315a3.87,3.87,0,0,0,0,5.473l.283.283a3.868,3.868,0,0,0,5.274.184l1.99,1.99-.678.678a3.176,3.176,0,0,0-.7,3.456l.916,2.24a2.49,2.49,0,0,0,1.783,1.495l-5.636,6.723A3.84,3.84,0,0,0,24.622,54.7l-2.556,2.36a1.124,1.124,0,0,0,1.525,1.652l2.362-2.18,2.785,2.785L7.806,81.995a3.2,3.2,0,1,1-4.527-4.527L19.7,62.311a1.124,1.124,0,1,0-1.525-1.652L1.753,75.816a5.452,5.452,0,0,0,3.694,9.458H5.56a5.406,5.406,0,0,0,3.9-1.753l6.737-7.3A12.955,12.955,0,0,0,18,80.076a2.618,2.618,0,0,0,2.132,1.095h1.894a3.605,3.605,0,0,0,3.579,4.086H73.124a3.611,3.611,0,0,0,0-7.222Zm1.363-16.723a1.365,1.365,0,0,1-1.363,1.363H28.7L30.57,60.65a3.842,3.842,0,0,0,3.834-.7h38.72a1.364,1.364,0,0,1,1.363,1.363ZM40.576,48.338l-6.509,5.457-2.588-2.588L36.936,44.7Zm-4.9,9.362a3.86,3.86,0,0,0-.234-2.121l6.723-5.636a2.491,2.491,0,0,0,1.495,1.783l2.24.916a3.177,3.177,0,0,0,3.456-.7l.678-.678,1.99,1.99a3.877,3.877,0,0,0-.447,4.442h-15.9ZM68.928,40.185a1.611,1.611,0,0,1,1.147.475l.283.283a1.621,1.621,0,0,1,0,2.293L56.368,57.225a1.621,1.621,0,0,1-2.293,0l-.283-.283a1.623,1.623,0,0,1,0-2.293L67.781,40.66a1.61,1.61,0,0,1,1.147-.475Zm-4.135.283L53.6,51.66l-1.982-1.982L62.811,38.486Zm-20.369,8.77L62.371,31.292a.236.236,0,0,1,.172-.073.274.274,0,0,1,.053.005.239.239,0,0,1,.181.15l.916,2.24a.933.933,0,0,1-.2,1.015L47.761,50.356a.933.933,0,0,1-1.015.2l-2.24-.916a.249.249,0,0,1-.082-.406ZM29.478,31.956a1.61,1.61,0,0,1-1.147-.475l-.283-.283a1.622,1.622,0,0,1,0-2.293L42.038,14.917a1.622,1.622,0,0,1,2.293,0l.283.283a1.622,1.622,0,0,1,0,2.293L30.625,31.482a1.613,1.613,0,0,1-1.147.475Zm4.135-.283L44.806,20.48l1.982,1.982L35.6,33.656Zm1.3,5.839L50.645,21.785a.933.933,0,0,1,1.015-.2l2.24.916a.249.249,0,0,1,.082.406L36.035,40.849a.249.249,0,0,1-.406-.082l-.916-2.24a.933.933,0,0,1,.2-1.015ZM26.636,53.381a1.59,1.59,0,0,1,2.714-1.124l3.666,3.666a1.59,1.59,0,1,1-2.249,2.249L27.1,54.506a1.58,1.58,0,0,1-.466-1.124Zm-6.8,25.391a11.34,11.34,0,0,1-1.8-4.543l2.694-2.919c0,.056,0,.111,0,.167a15.6,15.6,0,0,0,1.744,7.444H20.134A.366.366,0,0,1,19.834,78.773Zm53.29,4.236H25.606a1.363,1.363,0,1,1,0-2.726H73.124a1.363,1.363,0,0,1,0,2.726Z" transform="translate(0.001 -12.193)"/>
              <path id="Trazado_729481" data-name="Trazado 729481" d="M203.451,417.166a1.124,1.124,0,1,0,0,2.248h26.188a1.124,1.124,0,0,0,0-2.248Z" transform="translate(-172.003 -356.47)"/>
            </g>
          </g>
        </g>
      </g>
    </g>
  </g>
</svg>
