<svg xmlns="http://www.w3.org/2000/svg" width="1029.999" height="330.042" viewBox="0 0 1029.999 330.042">
  <g id="Grupo_965523" data-name="Grupo 965523" transform="translate(-285 -5078.107)">
    <path id="Trazado_729111" data-name="Trazado 729111" d="M446.2,311.277a66.2,66.2,0,0,1,132.277.607l100.155.458a166.319,166.319,0,0,0-332.585-1.526Z" transform="translate(403.842 4932.078)" fill="#b0c0d2"/>
    <path id="Trazado_729112" data-name="Trazado 729112" d="M439.579,245.818A66.2,66.2,0,0,1,307.3,245.21l-100.153-.458a166.319,166.319,0,0,0,332.585,1.526Z" transform="translate(310.379 4997.078)" fill="#b0c0d2"/>
    <path id="Trazado_729113" data-name="Trazado 729113" d="M400.754,311.075l-100.17-.46a66.192,66.192,0,0,0-132.261-.606l-100.17-.46c2-90.521,76.161-163.08,167.033-162.663A166.352,166.352,0,0,1,400.754,311.075Z" transform="translate(216.848 4931.223)" fill="#b0c0d2"/>
    <path id="Trazado_729114" data-name="Trazado 729114" d="M717.471,247.093a66.2,66.2,0,0,1-132.276-.607l-100.155-.46a166.32,166.32,0,0,0,332.586,1.527Z" transform="translate(497.373 4997.935)" fill="#b0c0d2"/>
    <path id="Trazado_730154" data-name="Trazado 730154" d="M107.846,0A107.846,107.846,0,1,1,0,107.846,107.846,107.846,0,0,1,107.846,0Z" transform="translate(330.147 5334.181) rotate(-82.41)" fill="#fff" opacity="0.64"/>
    <g id="Grupo_965024" data-name="Grupo 965024" transform="translate(376.571 5166.802)">
      <path id="Trazado_729115" data-name="Trazado 729115" d="M197.269,349.35a74.724,74.724,0,1,1,75.063-74.381A74.809,74.809,0,0,1,197.269,349.35Z" transform="translate(-122.89 -199.904)" fill="#feb12e"/>
    </g>
    <path id="Trazado_730155" data-name="Trazado 730155" d="M107.846,0A107.846,107.846,0,1,1,0,107.846,107.846,107.846,0,0,1,107.846,0Z" transform="translate(564.187 5147.994) rotate(-6.666)" fill="#fff" opacity="0.64"/>
    <path id="Trazado_730156" data-name="Trazado 730156" d="M74.723,0A74.723,74.723,0,1,1,0,74.723,74.723,74.723,0,0,1,74.723,0Z" transform="matrix(1, -0.02, 0.02, 1, 607.602, 5169.395)" fill="#34bc85"/>
    <path id="Trazado_730157" data-name="Trazado 730157" d="M107.846,0A107.846,107.846,0,1,1,0,107.846,107.846,107.846,0,0,1,107.846,0Z" transform="translate(801.107 5343.757) rotate(-86.019)" fill="#fff" opacity="0.64"/>
    <g id="Grupo_965027" data-name="Grupo 965027" transform="translate(825.106 5152.585)">
      <circle id="Elipse_5853" data-name="Elipse 5853" cx="74.723" cy="74.723" r="74.723" transform="matrix(0.251, -0.968, 0.968, 0.251, 0, 144.671)" fill="#0e494d"/>
    </g>
    <path id="Trazado_730158" data-name="Trazado 730158" d="M107.846,0A107.846,107.846,0,1,1,0,107.846,107.846,107.846,0,0,1,107.846,0Z" transform="translate(1040.861 5136.879)" fill="#fff" opacity="0.64"/>
    <g id="Grupo_965029" data-name="Grupo 965029" transform="translate(1057.396 5153.413)">
      <circle id="Elipse_5855" data-name="Elipse 5855" cx="74.723" cy="74.723" r="74.723" transform="translate(0 144.502) rotate(-75.222)" fill="#badc61"/>
    </g>
    <path id="Trazado_730145" data-name="Trazado 730145" d="M28.984,9.57a6.867,6.867,0,0,1-.594,2.945,4.472,4.472,0,0,1-1.7,1.953,5.021,5.021,0,0,1-5.059.008,4.515,4.515,0,0,1-1.719-1.941,6.67,6.67,0,0,1-.617-2.9V9.07A6.831,6.831,0,0,1,19.9,6.113a4.508,4.508,0,0,1,1.711-1.961,5.014,5.014,0,0,1,5.055,0,4.508,4.508,0,0,1,1.711,1.961,6.811,6.811,0,0,1,.605,2.949Zm-2.375-.516a4.787,4.787,0,0,0-.641-2.719,2.263,2.263,0,0,0-3.648-.012,4.732,4.732,0,0,0-.648,2.691V9.57a4.847,4.847,0,0,0,.641,2.7,2.243,2.243,0,0,0,3.656.035,4.819,4.819,0,0,0,.641-2.7Zm11.547,1.8a5.119,5.119,0,0,1-.867,3.168,2.872,2.872,0,0,1-2.422,1.137,2.639,2.639,0,0,1-2.2-1.055l-.1.9H30.539V3H32.8V7.3a2.571,2.571,0,0,1,2.055-.914,2.9,2.9,0,0,1,2.426,1.137,5.126,5.126,0,0,1,.879,3.2ZM35.9,10.688a3.363,3.363,0,0,0-.406-1.871,1.374,1.374,0,0,0-1.211-.59,1.489,1.489,0,0,0-1.484.883v3.336a1.509,1.509,0,0,0,1.5.891,1.394,1.394,0,0,0,1.438-1.078A5.562,5.562,0,0,0,35.9,10.688Zm6.039-4.141v8.914a3.024,3.024,0,0,1-.742,2.176,2.821,2.821,0,0,1-2.141.777,4.591,4.591,0,0,1-1.117-.133V16.492a4.238,4.238,0,0,0,.711.07q1.023,0,1.023-1.086V6.547ZM39.492,4.359a1.112,1.112,0,0,1,.34-.836,1.47,1.47,0,0,1,1.852,0,1.112,1.112,0,0,1,.34.836,1.108,1.108,0,0,1-.348.844,1.448,1.448,0,0,1-1.836,0A1.108,1.108,0,0,1,39.492,4.359Zm8.1,10.8a4.15,4.15,0,0,1-3.027-1.141A4.054,4.054,0,0,1,43.4,10.977v-.219a5.106,5.106,0,0,1,.492-2.277,3.612,3.612,0,0,1,1.395-1.547,3.914,3.914,0,0,1,2.059-.543,3.508,3.508,0,0,1,2.73,1.094,4.444,4.444,0,0,1,1,3.1v.922H45.688a2.1,2.1,0,0,0,.66,1.328,2,2,0,0,0,1.395.5,2.437,2.437,0,0,0,2.039-.945l1.109,1.242a3.389,3.389,0,0,1-1.375,1.121A4.511,4.511,0,0,1,47.594,15.156Zm-.258-6.937a1.414,1.414,0,0,0-1.09.453,2.341,2.341,0,0,0-.535,1.3h3.141v-.18a1.669,1.669,0,0,0-.406-1.16A1.459,1.459,0,0,0,47.336,8.219Zm7.719-3.75V6.547H56.5V8.2H55.055v4.219a1.007,1.007,0,0,0,.18.672.9.9,0,0,0,.688.2,3.6,3.6,0,0,0,.664-.055v1.711a4.648,4.648,0,0,1-1.367.2,2.156,2.156,0,0,1-2.422-2.4V8.2H51.563V6.547H52.8V4.469ZM60.141,15H57.875V6.547h2.266Zm-2.4-10.641a1.112,1.112,0,0,1,.34-.836,1.465,1.465,0,0,1,1.848,0,1.105,1.105,0,0,1,.344.836,1.108,1.108,0,0,1-.348.844,1.448,1.448,0,0,1-1.836,0A1.108,1.108,0,0,1,57.742,4.359Zm7.422,7.883,1.57-5.7h2.359L66.242,15H64.086L61.234,6.547h2.359ZM69.617,10.7A5.013,5.013,0,0,1,70.1,8.453,3.546,3.546,0,0,1,71.5,6.93a4.069,4.069,0,0,1,2.113-.539A3.849,3.849,0,0,1,76.4,7.438a4.2,4.2,0,0,1,1.207,2.844l.016.578a4.418,4.418,0,0,1-1.086,3.121,4.209,4.209,0,0,1-5.832,0,4.5,4.5,0,0,1-1.09-3.187Zm2.258.164a3.151,3.151,0,0,0,.453,1.84,1.629,1.629,0,0,0,2.578.008,3.448,3.448,0,0,0,.461-2.012,3.12,3.12,0,0,0-.461-1.828,1.5,1.5,0,0,0-1.3-.648,1.475,1.475,0,0,0-1.281.645A3.506,3.506,0,0,0,71.875,10.859Zm11.719,1.8a.727.727,0,0,0-.41-.652,4.659,4.659,0,0,0-1.316-.426q-3.016-.633-3.016-2.562a2.323,2.323,0,0,1,.934-1.879,3.766,3.766,0,0,1,2.441-.754,4.053,4.053,0,0,1,2.574.758,2.388,2.388,0,0,1,.965,1.969H83.508a1.092,1.092,0,0,0-.312-.8A1.322,1.322,0,0,0,82.219,8a1.351,1.351,0,0,0-.883.258.814.814,0,0,0-.312.656.7.7,0,0,0,.355.605,3.657,3.657,0,0,0,1.2.4A9.8,9.8,0,0,1,84,10.3a2.336,2.336,0,0,1,1.789,2.273,2.2,2.2,0,0,1-.992,1.871,4.28,4.28,0,0,1-2.562.715,4.47,4.47,0,0,1-1.887-.379,3.166,3.166,0,0,1-1.293-1.039,2.414,2.414,0,0,1-.469-1.426h2.141a1.179,1.179,0,0,0,.445.922,1.766,1.766,0,0,0,1.109.32,1.635,1.635,0,0,0,.98-.246A.766.766,0,0,0,83.594,12.664ZM17.7,30.711a4.954,4.954,0,0,1,.926-3.133,3,3,0,0,1,2.5-1.187,2.631,2.631,0,0,1,2.164.953l.094-.8h2.047v8.172a3.613,3.613,0,0,1-.5,1.93A3.236,3.236,0,0,1,23.5,37.9a4.985,4.985,0,0,1-2.141.43,4.635,4.635,0,0,1-1.812-.371A3.217,3.217,0,0,1,18.211,37l1-1.375a2.645,2.645,0,0,0,2.047.945,1.936,1.936,0,0,0,1.4-.48,1.8,1.8,0,0,0,.5-1.363v-.453a2.612,2.612,0,0,1-2.055.883,2.992,2.992,0,0,1-2.465-1.191A4.953,4.953,0,0,1,17.7,30.8Zm2.258.164a3.076,3.076,0,0,0,.461,1.8,1.467,1.467,0,0,0,1.266.652,1.568,1.568,0,0,0,1.477-.773V29a1.565,1.565,0,0,0-1.461-.773,1.476,1.476,0,0,0-1.277.664A3.467,3.467,0,0,0,19.953,30.875Zm11.094,4.281a4.15,4.15,0,0,1-3.027-1.141,4.054,4.054,0,0,1-1.168-3.039v-.219a5.106,5.106,0,0,1,.492-2.277,3.612,3.612,0,0,1,1.395-1.547,3.914,3.914,0,0,1,2.059-.543,3.508,3.508,0,0,1,2.73,1.094,4.444,4.444,0,0,1,1,3.1v.922H29.141a2.1,2.1,0,0,0,.66,1.328,2,2,0,0,0,1.395.5,2.437,2.437,0,0,0,2.039-.945l1.109,1.242a3.389,3.389,0,0,1-1.375,1.121A4.511,4.511,0,0,1,31.047,35.156Zm-.258-6.937a1.414,1.414,0,0,0-1.09.453,2.341,2.341,0,0,0-.535,1.3H32.3v-.18a1.669,1.669,0,0,0-.406-1.16A1.459,1.459,0,0,0,30.789,28.219Zm7.094-1.672.07.977a2.951,2.951,0,0,1,2.43-1.133,2.453,2.453,0,0,1,2,.789,3.682,3.682,0,0,1,.672,2.359V35H40.8V29.594a1.465,1.465,0,0,0-.312-1.043,1.4,1.4,0,0,0-1.039-.324,1.553,1.553,0,0,0-1.43.813V35H35.758V26.547Zm10.773,8.609a4.15,4.15,0,0,1-3.027-1.141,4.054,4.054,0,0,1-1.168-3.039v-.219a5.106,5.106,0,0,1,.492-2.277,3.612,3.612,0,0,1,1.395-1.547,3.914,3.914,0,0,1,2.059-.543,3.508,3.508,0,0,1,2.73,1.094,4.444,4.444,0,0,1,1,3.1v.922H46.75a2.1,2.1,0,0,0,.66,1.328,2,2,0,0,0,1.395.5,2.437,2.437,0,0,0,2.039-.945l1.109,1.242a3.389,3.389,0,0,1-1.375,1.121A4.511,4.511,0,0,1,48.656,35.156ZM48.4,28.219a1.414,1.414,0,0,0-1.09.453,2.341,2.341,0,0,0-.535,1.3h3.141v-.18a1.669,1.669,0,0,0-.406-1.16A1.459,1.459,0,0,0,48.4,28.219Zm9.766.445a6.134,6.134,0,0,0-.812-.062,1.654,1.654,0,0,0-1.68.867V35H53.414V26.547h2.133l.063,1.008a2.092,2.092,0,0,1,1.883-1.164,2.366,2.366,0,0,1,.7.1ZM63.914,35a2.507,2.507,0,0,1-.227-.758,2.732,2.732,0,0,1-2.133.914,3,3,0,0,1-2.059-.719,2.312,2.312,0,0,1-.816-1.812,2.389,2.389,0,0,1,1-2.062,4.915,4.915,0,0,1,2.879-.727h1.039v-.484a1.393,1.393,0,0,0-.3-.937,1.183,1.183,0,0,0-.949-.352,1.345,1.345,0,0,0-.895.273.929.929,0,0,0-.324.75H58.867a2.268,2.268,0,0,1,.453-1.359,3,3,0,0,1,1.281-.98,4.669,4.669,0,0,1,1.859-.355,3.689,3.689,0,0,1,2.48.785,2.747,2.747,0,0,1,.918,2.207v3.664a4.041,4.041,0,0,0,.336,1.82V35Zm-1.867-1.57a1.945,1.945,0,0,0,.922-.223,1.462,1.462,0,0,0,.625-.6V31.156H62.75q-1.7,0-1.8,1.172l-.008.133a.9.9,0,0,0,.3.7A1.153,1.153,0,0,0,62.047,33.43ZM69.977,35H67.711V23h2.266Zm5.75.156A4.15,4.15,0,0,1,72.7,34.016a4.054,4.054,0,0,1-1.168-3.039v-.219a5.106,5.106,0,0,1,.492-2.277,3.612,3.612,0,0,1,1.395-1.547,3.914,3.914,0,0,1,2.059-.543,3.508,3.508,0,0,1,2.73,1.094,4.444,4.444,0,0,1,1,3.1v.922H73.82a2.1,2.1,0,0,0,.66,1.328,2,2,0,0,0,1.395.5,2.437,2.437,0,0,0,2.039-.945l1.109,1.242a3.389,3.389,0,0,1-1.375,1.121A4.511,4.511,0,0,1,75.727,35.156Zm-.258-6.937a1.414,1.414,0,0,0-1.09.453,2.341,2.341,0,0,0-.535,1.3h3.141v-.18a1.669,1.669,0,0,0-.406-1.16A1.459,1.459,0,0,0,75.469,28.219Zm9.594,4.445a.727.727,0,0,0-.41-.652,4.659,4.659,0,0,0-1.316-.426q-3.016-.633-3.016-2.562a2.323,2.323,0,0,1,.934-1.879,3.766,3.766,0,0,1,2.441-.754,4.053,4.053,0,0,1,2.574.758,2.388,2.388,0,0,1,.965,1.969H84.977a1.092,1.092,0,0,0-.312-.8A1.322,1.322,0,0,0,83.688,28a1.351,1.351,0,0,0-.883.258.814.814,0,0,0-.312.656.7.7,0,0,0,.355.605,3.657,3.657,0,0,0,1.2.4,9.8,9.8,0,0,1,1.422.379,2.336,2.336,0,0,1,1.789,2.273,2.2,2.2,0,0,1-.992,1.871,4.28,4.28,0,0,1-2.562.715,4.47,4.47,0,0,1-1.887-.379,3.166,3.166,0,0,1-1.293-1.039,2.414,2.414,0,0,1-.469-1.426H82.2a1.179,1.179,0,0,0,.445.922,1.766,1.766,0,0,0,1.109.32,1.635,1.635,0,0,0,.98-.246A.766.766,0,0,0,85.063,32.664Z" transform="translate(397 5251)" fill="#12263f"/>
    <path id="Trazado_730146" data-name="Trazado 730146" d="M28.984,9.57a6.867,6.867,0,0,1-.594,2.945,4.472,4.472,0,0,1-1.7,1.953,5.021,5.021,0,0,1-5.059.008,4.515,4.515,0,0,1-1.719-1.941,6.67,6.67,0,0,1-.617-2.9V9.07A6.831,6.831,0,0,1,19.9,6.113a4.508,4.508,0,0,1,1.711-1.961,5.014,5.014,0,0,1,5.055,0,4.508,4.508,0,0,1,1.711,1.961,6.811,6.811,0,0,1,.605,2.949Zm-2.375-.516a4.787,4.787,0,0,0-.641-2.719,2.263,2.263,0,0,0-3.648-.012,4.732,4.732,0,0,0-.648,2.691V9.57a4.847,4.847,0,0,0,.641,2.7,2.243,2.243,0,0,0,3.656.035,4.819,4.819,0,0,0,.641-2.7Zm11.547,1.8a5.119,5.119,0,0,1-.867,3.168,2.872,2.872,0,0,1-2.422,1.137,2.639,2.639,0,0,1-2.2-1.055l-.1.9H30.539V3H32.8V7.3a2.571,2.571,0,0,1,2.055-.914,2.9,2.9,0,0,1,2.426,1.137,5.126,5.126,0,0,1,.879,3.2ZM35.9,10.688a3.363,3.363,0,0,0-.406-1.871,1.374,1.374,0,0,0-1.211-.59,1.489,1.489,0,0,0-1.484.883v3.336a1.509,1.509,0,0,0,1.5.891,1.394,1.394,0,0,0,1.438-1.078A5.562,5.562,0,0,0,35.9,10.688Zm6.039-4.141v8.914a3.024,3.024,0,0,1-.742,2.176,2.821,2.821,0,0,1-2.141.777,4.591,4.591,0,0,1-1.117-.133V16.492a4.238,4.238,0,0,0,.711.07q1.023,0,1.023-1.086V6.547ZM39.492,4.359a1.112,1.112,0,0,1,.34-.836,1.47,1.47,0,0,1,1.852,0,1.112,1.112,0,0,1,.34.836,1.108,1.108,0,0,1-.348.844,1.448,1.448,0,0,1-1.836,0A1.108,1.108,0,0,1,39.492,4.359Zm8.1,10.8a4.15,4.15,0,0,1-3.027-1.141A4.054,4.054,0,0,1,43.4,10.977v-.219a5.106,5.106,0,0,1,.492-2.277,3.612,3.612,0,0,1,1.395-1.547,3.914,3.914,0,0,1,2.059-.543,3.508,3.508,0,0,1,2.73,1.094,4.444,4.444,0,0,1,1,3.1v.922H45.688a2.1,2.1,0,0,0,.66,1.328,2,2,0,0,0,1.395.5,2.437,2.437,0,0,0,2.039-.945l1.109,1.242a3.389,3.389,0,0,1-1.375,1.121A4.511,4.511,0,0,1,47.594,15.156Zm-.258-6.937a1.414,1.414,0,0,0-1.09.453,2.341,2.341,0,0,0-.535,1.3h3.141v-.18a1.669,1.669,0,0,0-.406-1.16A1.459,1.459,0,0,0,47.336,8.219Zm7.719-3.75V6.547H56.5V8.2H55.055v4.219a1.007,1.007,0,0,0,.18.672.9.9,0,0,0,.688.2,3.6,3.6,0,0,0,.664-.055v1.711a4.648,4.648,0,0,1-1.367.2,2.156,2.156,0,0,1-2.422-2.4V8.2H51.563V6.547H52.8V4.469ZM60.141,15H57.875V6.547h2.266Zm-2.4-10.641a1.112,1.112,0,0,1,.34-.836,1.465,1.465,0,0,1,1.848,0,1.105,1.105,0,0,1,.344.836,1.108,1.108,0,0,1-.348.844,1.448,1.448,0,0,1-1.836,0A1.108,1.108,0,0,1,57.742,4.359Zm7.422,7.883,1.57-5.7h2.359L66.242,15H64.086L61.234,6.547h2.359ZM69.617,10.7A5.013,5.013,0,0,1,70.1,8.453,3.546,3.546,0,0,1,71.5,6.93a4.069,4.069,0,0,1,2.113-.539A3.849,3.849,0,0,1,76.4,7.438a4.2,4.2,0,0,1,1.207,2.844l.016.578a4.418,4.418,0,0,1-1.086,3.121,4.209,4.209,0,0,1-5.832,0,4.5,4.5,0,0,1-1.09-3.187Zm2.258.164a3.151,3.151,0,0,0,.453,1.84,1.629,1.629,0,0,0,2.578.008,3.448,3.448,0,0,0,.461-2.012,3.12,3.12,0,0,0-.461-1.828,1.5,1.5,0,0,0-1.3-.648,1.475,1.475,0,0,0-1.281.645A3.506,3.506,0,0,0,71.875,10.859Zm11.719,1.8a.727.727,0,0,0-.41-.652,4.659,4.659,0,0,0-1.316-.426q-3.016-.633-3.016-2.562a2.323,2.323,0,0,1,.934-1.879,3.766,3.766,0,0,1,2.441-.754,4.053,4.053,0,0,1,2.574.758,2.388,2.388,0,0,1,.965,1.969H83.508a1.092,1.092,0,0,0-.312-.8A1.322,1.322,0,0,0,82.219,8a1.351,1.351,0,0,0-.883.258.814.814,0,0,0-.312.656.7.7,0,0,0,.355.605,3.657,3.657,0,0,0,1.2.4A9.8,9.8,0,0,1,84,10.3a2.336,2.336,0,0,1,1.789,2.273,2.2,2.2,0,0,1-.992,1.871,4.28,4.28,0,0,1-2.562.715,4.47,4.47,0,0,1-1.887-.379,3.166,3.166,0,0,1-1.293-1.039,2.414,2.414,0,0,1-.469-1.426h2.141a1.179,1.179,0,0,0,.445.922,1.766,1.766,0,0,0,1.109.32,1.635,1.635,0,0,0,.98-.246A.766.766,0,0,0,83.594,12.664ZM15.953,35.156a4.15,4.15,0,0,1-3.027-1.141,4.054,4.054,0,0,1-1.168-3.039v-.219a5.106,5.106,0,0,1,.492-2.277,3.612,3.612,0,0,1,1.395-1.547,3.914,3.914,0,0,1,2.059-.543,3.508,3.508,0,0,1,2.73,1.094,4.444,4.444,0,0,1,1,3.1v.922H14.047a2.1,2.1,0,0,0,.66,1.328,2,2,0,0,0,1.395.5,2.437,2.437,0,0,0,2.039-.945l1.109,1.242a3.389,3.389,0,0,1-1.375,1.121A4.511,4.511,0,0,1,15.953,35.156ZM15.7,28.219a1.414,1.414,0,0,0-1.09.453,2.341,2.341,0,0,0-.535,1.3h3.141v-.18a1.669,1.669,0,0,0-.406-1.16A1.459,1.459,0,0,0,15.7,28.219Zm9.594,4.445a.727.727,0,0,0-.41-.652,4.659,4.659,0,0,0-1.316-.426q-3.016-.633-3.016-2.562a2.323,2.323,0,0,1,.934-1.879,3.766,3.766,0,0,1,2.441-.754,4.053,4.053,0,0,1,2.574.758,2.388,2.388,0,0,1,.965,1.969H25.2a1.092,1.092,0,0,0-.312-.8A1.322,1.322,0,0,0,23.914,28a1.351,1.351,0,0,0-.883.258.814.814,0,0,0-.312.656.7.7,0,0,0,.355.605,3.657,3.657,0,0,0,1.2.4A9.8,9.8,0,0,1,25.7,30.3a2.336,2.336,0,0,1,1.789,2.273,2.2,2.2,0,0,1-.992,1.871,4.28,4.28,0,0,1-2.562.715,4.47,4.47,0,0,1-1.887-.379,3.166,3.166,0,0,1-1.293-1.039,2.414,2.414,0,0,1-.469-1.426h2.141a1.179,1.179,0,0,0,.445.922,1.766,1.766,0,0,0,1.109.32,1.635,1.635,0,0,0,.98-.246A.766.766,0,0,0,25.289,32.664Zm11.258-1.812a5.07,5.07,0,0,1-.887,3.129,2.843,2.843,0,0,1-2.395,1.176,2.633,2.633,0,0,1-2.07-.891V38.25H28.938v-11.7h2.094l.078.828a2.654,2.654,0,0,1,2.141-.984,2.862,2.862,0,0,1,2.43,1.156,5.207,5.207,0,0,1,.867,3.188Zm-2.258-.164a3.327,3.327,0,0,0-.418-1.82,1.361,1.361,0,0,0-1.215-.641,1.478,1.478,0,0,0-1.461.813V32.5a1.5,1.5,0,0,0,1.477.836Q34.289,33.336,34.289,30.688Zm7.547,4.469a4.15,4.15,0,0,1-3.027-1.141,4.054,4.054,0,0,1-1.168-3.039v-.219a5.106,5.106,0,0,1,.492-2.277,3.612,3.612,0,0,1,1.395-1.547,3.914,3.914,0,0,1,2.059-.543,3.508,3.508,0,0,1,2.73,1.094,4.444,4.444,0,0,1,1,3.1v.922H39.93a2.1,2.1,0,0,0,.66,1.328,2,2,0,0,0,1.395.5,2.437,2.437,0,0,0,2.039-.945l1.109,1.242a3.389,3.389,0,0,1-1.375,1.121A4.511,4.511,0,0,1,41.836,35.156Zm-.258-6.937a1.414,1.414,0,0,0-1.09.453,2.341,2.341,0,0,0-.535,1.3h3.141v-.18a1.669,1.669,0,0,0-.406-1.16A1.459,1.459,0,0,0,41.578,28.219Zm8.531,5.117a1.481,1.481,0,0,0,1.016-.344,1.2,1.2,0,0,0,.406-.914h2.117a2.9,2.9,0,0,1-.469,1.574,3.093,3.093,0,0,1-1.262,1.109,3.949,3.949,0,0,1-1.77.395A3.67,3.67,0,0,1,47.289,34a4.56,4.56,0,0,1-1.047-3.184v-.148a4.508,4.508,0,0,1,1.039-3.117,3.627,3.627,0,0,1,2.852-1.164,3.555,3.555,0,0,1,2.543.9,3.2,3.2,0,0,1,.973,2.4H51.531a1.539,1.539,0,0,0-.406-1.066,1.513,1.513,0,0,0-2.223.164,3.324,3.324,0,0,0-.4,1.863v.234a3.366,3.366,0,0,0,.4,1.875A1.378,1.378,0,0,0,50.109,33.336ZM57.375,35H55.117V26.547h2.258Zm-.664-11.883h2.461l-2.164,2.422H55.172ZM59.867,35V28.2H58.609V26.547h1.258v-.391a3.17,3.17,0,0,1,.98-2.457,3.945,3.945,0,0,1,2.723-.863,9.031,9.031,0,0,1,2.563.461L65.8,25.164a10,10,0,0,0-1.187-.293,5.835,5.835,0,0,0-.906-.066q-1.578,0-1.578,1.4v.344H63.8V28.2H62.133V35Zm7.32,0H64.922V26.547h2.266Zm5.383-1.664a1.481,1.481,0,0,0,1.016-.344,1.2,1.2,0,0,0,.406-.914h2.117a2.9,2.9,0,0,1-.469,1.574,3.093,3.093,0,0,1-1.262,1.109,3.949,3.949,0,0,1-1.77.395A3.67,3.67,0,0,1,69.75,34,4.56,4.56,0,0,1,68.7,30.82v-.148a4.508,4.508,0,0,1,1.039-3.117,3.627,3.627,0,0,1,2.852-1.164,3.555,3.555,0,0,1,2.543.9,3.2,3.2,0,0,1,.973,2.4H73.992a1.539,1.539,0,0,0-.406-1.066,1.513,1.513,0,0,0-2.223.164,3.324,3.324,0,0,0-.4,1.863v.234a3.366,3.366,0,0,0,.4,1.875A1.378,1.378,0,0,0,72.57,33.336ZM77.047,30.7a5.013,5.013,0,0,1,.484-2.242,3.546,3.546,0,0,1,1.395-1.523,4.069,4.069,0,0,1,2.113-.539,3.849,3.849,0,0,1,2.793,1.047,4.2,4.2,0,0,1,1.207,2.844l.016.578a4.418,4.418,0,0,1-1.086,3.121,4.209,4.209,0,0,1-5.832,0,4.5,4.5,0,0,1-1.09-3.187Zm2.258.164a3.151,3.151,0,0,0,.453,1.84,1.629,1.629,0,0,0,2.578.008A3.448,3.448,0,0,0,82.8,30.7a3.12,3.12,0,0,0-.461-1.828,1.5,1.5,0,0,0-1.3-.648,1.475,1.475,0,0,0-1.281.645A3.506,3.506,0,0,0,79.3,30.859Zm11.719,1.8a.727.727,0,0,0-.41-.652,4.659,4.659,0,0,0-1.316-.426q-3.016-.633-3.016-2.562a2.323,2.323,0,0,1,.934-1.879,3.766,3.766,0,0,1,2.441-.754,4.053,4.053,0,0,1,2.574.758,2.388,2.388,0,0,1,.965,1.969H90.938a1.092,1.092,0,0,0-.312-.8A1.322,1.322,0,0,0,89.648,28a1.351,1.351,0,0,0-.883.258.814.814,0,0,0-.312.656.7.7,0,0,0,.355.605,3.657,3.657,0,0,0,1.2.4,9.8,9.8,0,0,1,1.422.379,2.336,2.336,0,0,1,1.789,2.273,2.2,2.2,0,0,1-.992,1.871,4.28,4.28,0,0,1-2.562.715,4.47,4.47,0,0,1-1.887-.379,3.166,3.166,0,0,1-1.293-1.039,2.414,2.414,0,0,1-.469-1.426h2.141a1.179,1.179,0,0,0,.445.922,1.766,1.766,0,0,0,1.109.32,1.635,1.635,0,0,0,.98-.246A.766.766,0,0,0,91.023,32.664Z" transform="translate(631 5251)" fill="#12263f"/>
    <path id="Trazado_730147" data-name="Trazado 730147" d="M17.246,12.656H13.137L12.355,15H9.863L14.1,3.625H16.27L20.527,15H18.035Zm-3.477-1.9h2.844L15.184,6.5ZM27.809,15H25.543V3h2.266Zm6.758,0a2.507,2.507,0,0,1-.227-.758,2.732,2.732,0,0,1-2.133.914,3,3,0,0,1-2.059-.719,2.312,2.312,0,0,1-.816-1.812,2.389,2.389,0,0,1,1-2.062,4.915,4.915,0,0,1,2.879-.727h1.039V9.352a1.393,1.393,0,0,0-.3-.937A1.183,1.183,0,0,0,33,8.063a1.345,1.345,0,0,0-.895.273.929.929,0,0,0-.324.75H29.52a2.268,2.268,0,0,1,.453-1.359,3,3,0,0,1,1.281-.98,4.669,4.669,0,0,1,1.859-.355,3.689,3.689,0,0,1,2.48.785,2.747,2.747,0,0,1,.918,2.207v3.664a4.041,4.041,0,0,0,.336,1.82V15ZM32.7,13.43a1.945,1.945,0,0,0,.922-.223,1.462,1.462,0,0,0,.625-.6V11.156H33.4q-1.7,0-1.8,1.172l-.008.133a.9.9,0,0,0,.3.7A1.153,1.153,0,0,0,32.7,13.43ZM44.434,7.469a2.818,2.818,0,0,1,2.258-1.078q2.75,0,2.789,3.2V15H47.223V9.648a1.57,1.57,0,0,0-.312-1.074,1.34,1.34,0,0,0-1.039-.348,1.537,1.537,0,0,0-1.437.766V15H42.176V3h2.258Zm6.4,3.227a5.013,5.013,0,0,1,.484-2.242A3.546,3.546,0,0,1,52.711,6.93a4.069,4.069,0,0,1,2.113-.539,3.849,3.849,0,0,1,2.793,1.047,4.2,4.2,0,0,1,1.207,2.844l.016.578a4.418,4.418,0,0,1-1.086,3.121,4.209,4.209,0,0,1-5.832,0,4.5,4.5,0,0,1-1.09-3.187Zm2.258.164a3.151,3.151,0,0,0,.453,1.84,1.629,1.629,0,0,0,2.578.008,3.448,3.448,0,0,0,.461-2.012,3.12,3.12,0,0,0-.461-1.828,1.5,1.5,0,0,0-1.3-.648,1.475,1.475,0,0,0-1.281.645A3.506,3.506,0,0,0,53.09,10.859Zm11.891-2.2a6.134,6.134,0,0,0-.812-.062,1.654,1.654,0,0,0-1.68.867V15H60.23V6.547h2.133l.063,1.008a2.092,2.092,0,0,1,1.883-1.164,2.366,2.366,0,0,1,.7.1ZM70.73,15a2.507,2.507,0,0,1-.227-.758,2.732,2.732,0,0,1-2.133.914,3,3,0,0,1-2.059-.719,2.312,2.312,0,0,1-.816-1.812,2.389,2.389,0,0,1,1-2.062,4.915,4.915,0,0,1,2.879-.727H70.41V9.352a1.393,1.393,0,0,0-.3-.937,1.183,1.183,0,0,0-.949-.352,1.345,1.345,0,0,0-.895.273.929.929,0,0,0-.324.75H65.684a2.268,2.268,0,0,1,.453-1.359,3,3,0,0,1,1.281-.98,4.669,4.669,0,0,1,1.859-.355,3.689,3.689,0,0,1,2.48.785,2.747,2.747,0,0,1,.918,2.207v3.664a4.041,4.041,0,0,0,.336,1.82V15Zm-1.867-1.57a1.945,1.945,0,0,0,.922-.223,1.462,1.462,0,0,0,.625-.6V11.156h-.844q-1.7,0-1.8,1.172l-.008.133a.9.9,0,0,0,.3.7A1.153,1.153,0,0,0,68.863,13.43Zm9.18-2.719a5.094,5.094,0,0,1,.887-3.148,2.877,2.877,0,0,1,2.426-1.172,2.589,2.589,0,0,1,2.039.922V3H85.66V15H83.621l-.109-.9a2.657,2.657,0,0,1-2.172,1.055,2.869,2.869,0,0,1-2.395-1.176A5.258,5.258,0,0,1,78.043,10.711Zm2.258.164a3.328,3.328,0,0,0,.414,1.82,1.349,1.349,0,0,0,1.2.633,1.511,1.511,0,0,0,1.477-.883V9.109a1.489,1.489,0,0,0-1.461-.883Q80.3,8.227,80.3,10.875Zm11,4.281a4.15,4.15,0,0,1-3.027-1.141,4.054,4.054,0,0,1-1.168-3.039v-.219A5.106,5.106,0,0,1,87.6,8.48a3.612,3.612,0,0,1,1.395-1.547,3.914,3.914,0,0,1,2.059-.543,3.508,3.508,0,0,1,2.73,1.094,4.444,4.444,0,0,1,1,3.1v.922H89.395a2.1,2.1,0,0,0,.66,1.328,2,2,0,0,0,1.395.5,2.437,2.437,0,0,0,2.039-.945L94.6,13.633a3.389,3.389,0,0,1-1.375,1.121A4.511,4.511,0,0,1,91.3,15.156Zm-.258-6.937a1.414,1.414,0,0,0-1.09.453,2.341,2.341,0,0,0-.535,1.3h3.141v-.18a1.669,1.669,0,0,0-.406-1.16A1.459,1.459,0,0,0,91.043,8.219Zm-72,22.492a5.094,5.094,0,0,1,.887-3.148,2.877,2.877,0,0,1,2.426-1.172,2.589,2.589,0,0,1,2.039.922V23h2.266V35H24.617l-.109-.9a2.657,2.657,0,0,1-2.172,1.055,2.869,2.869,0,0,1-2.395-1.176A5.258,5.258,0,0,1,19.039,30.711Zm2.258.164a3.328,3.328,0,0,0,.414,1.82,1.349,1.349,0,0,0,1.2.633,1.511,1.511,0,0,0,1.477-.883V29.109a1.489,1.489,0,0,0-1.461-.883Q21.3,28.227,21.3,30.875Zm11,4.281a4.15,4.15,0,0,1-3.027-1.141A4.054,4.054,0,0,1,28.1,30.977v-.219a5.106,5.106,0,0,1,.492-2.277,3.612,3.612,0,0,1,1.395-1.547,3.914,3.914,0,0,1,2.059-.543,3.508,3.508,0,0,1,2.73,1.094,4.444,4.444,0,0,1,1,3.1v.922H30.391a2.1,2.1,0,0,0,.66,1.328,2,2,0,0,0,1.395.5,2.437,2.437,0,0,0,2.039-.945l1.109,1.242a3.389,3.389,0,0,1-1.375,1.121A4.511,4.511,0,0,1,32.3,35.156Zm-.258-6.937a1.414,1.414,0,0,0-1.09.453,2.341,2.341,0,0,0-.535,1.3h3.141v-.18a1.669,1.669,0,0,0-.406-1.16A1.459,1.459,0,0,0,32.039,28.219ZM37.6,35V28.2H36.344V26.547H37.6v-.391a3.17,3.17,0,0,1,.98-2.457,3.945,3.945,0,0,1,2.723-.863,9.031,9.031,0,0,1,2.563.461l-.328,1.867a10,10,0,0,0-1.187-.293,5.834,5.834,0,0,0-.906-.066q-1.578,0-1.578,1.4v.344h1.664V28.2H39.867V35Zm7.32,0H42.656V26.547h2.266Zm3.945-8.453.07.977a2.951,2.951,0,0,1,2.43-1.133,2.453,2.453,0,0,1,2,.789,3.682,3.682,0,0,1,.672,2.359V35H51.781V29.594a1.465,1.465,0,0,0-.312-1.043,1.4,1.4,0,0,0-1.039-.324,1.553,1.553,0,0,0-1.43.813V35H46.742V26.547ZM58.133,35H55.867V26.547h2.266Zm-2.4-10.641a1.112,1.112,0,0,1,.34-.836,1.465,1.465,0,0,1,1.848,0,1.193,1.193,0,0,1,0,1.68,1.448,1.448,0,0,1-1.836,0A1.108,1.108,0,0,1,55.734,24.359Zm9.008,4.3a6.134,6.134,0,0,0-.812-.062,1.654,1.654,0,0,0-1.68.867V35H59.992V26.547h2.133l.063,1.008a2.092,2.092,0,0,1,1.883-1.164,2.366,2.366,0,0,1,.7.1ZM68.211,35H65.945V23h2.266Zm1.508-4.3a5.013,5.013,0,0,1,.484-2.242A3.546,3.546,0,0,1,71.6,26.93a4.069,4.069,0,0,1,2.113-.539A3.849,3.849,0,0,1,76.5,27.438a4.2,4.2,0,0,1,1.207,2.844l.016.578a4.418,4.418,0,0,1-1.086,3.121,4.209,4.209,0,0,1-5.832,0,4.5,4.5,0,0,1-1.09-3.187Zm2.258.164a3.151,3.151,0,0,0,.453,1.84,1.629,1.629,0,0,0,2.578.008,3.448,3.448,0,0,0,.461-2.012,3.12,3.12,0,0,0-.461-1.828,1.5,1.5,0,0,0-1.3-.648,1.475,1.475,0,0,0-1.281.645A3.506,3.506,0,0,0,71.977,30.859Zm11.719,1.8a.727.727,0,0,0-.41-.652,4.659,4.659,0,0,0-1.316-.426q-3.016-.633-3.016-2.562a2.323,2.323,0,0,1,.934-1.879,3.766,3.766,0,0,1,2.441-.754,4.053,4.053,0,0,1,2.574.758,2.388,2.388,0,0,1,.965,1.969H83.609a1.092,1.092,0,0,0-.312-.8A1.322,1.322,0,0,0,82.32,28a1.351,1.351,0,0,0-.883.258.814.814,0,0,0-.312.656.7.7,0,0,0,.355.605,3.657,3.657,0,0,0,1.2.4A9.8,9.8,0,0,1,84.1,30.3a2.336,2.336,0,0,1,1.789,2.273,2.2,2.2,0,0,1-.992,1.871,4.28,4.28,0,0,1-2.562.715,4.47,4.47,0,0,1-1.887-.379,3.166,3.166,0,0,1-1.293-1.039,2.414,2.414,0,0,1-.469-1.426h2.141a1.179,1.179,0,0,0,.445.922,1.766,1.766,0,0,0,1.109.32,1.635,1.635,0,0,0,.98-.246A.766.766,0,0,0,83.7,32.664Z" transform="translate(864 5251)" fill="#fff"/>
    <path id="Trazado_730148" data-name="Trazado 730148" d="M18,9.57a6.867,6.867,0,0,1-.594,2.945,4.472,4.472,0,0,1-1.7,1.953,4.7,4.7,0,0,1-2.535.688,4.732,4.732,0,0,1-2.523-.68,4.515,4.515,0,0,1-1.719-1.941,6.67,6.67,0,0,1-.617-2.9V9.07a6.831,6.831,0,0,1,.605-2.957,4.508,4.508,0,0,1,1.711-1.961,4.706,4.706,0,0,1,2.527-.684,4.706,4.706,0,0,1,2.527.684A4.508,4.508,0,0,1,17.4,6.113,6.811,6.811,0,0,1,18,9.063Zm-2.375-.516a4.787,4.787,0,0,0-.641-2.719,2.088,2.088,0,0,0-1.828-.93,2.088,2.088,0,0,0-1.82.918,4.732,4.732,0,0,0-.648,2.691V9.57a4.847,4.847,0,0,0,.641,2.7,2.082,2.082,0,0,0,1.844.961,2.064,2.064,0,0,0,1.813-.926,4.819,4.819,0,0,0,.641-2.7Zm6.633-4.586V6.547h1.445V8.2H22.262v4.219a1.007,1.007,0,0,0,.18.672.9.9,0,0,0,.688.2,3.6,3.6,0,0,0,.664-.055v1.711a4.648,4.648,0,0,1-1.367.2A2.156,2.156,0,0,1,20,12.758V8.2H18.77V6.547H20V4.469Zm7.453,4.2A6.134,6.134,0,0,0,28.9,8.6a1.654,1.654,0,0,0-1.68.867V15H24.965V6.547H27.1l.063,1.008a2.092,2.092,0,0,1,1.883-1.164,2.366,2.366,0,0,1,.7.1Zm.453,2.031a5.013,5.013,0,0,1,.484-2.242A3.546,3.546,0,0,1,32.047,6.93a4.069,4.069,0,0,1,2.113-.539,3.849,3.849,0,0,1,2.793,1.047,4.2,4.2,0,0,1,1.207,2.844l.016.578A4.418,4.418,0,0,1,37.09,13.98a3.775,3.775,0,0,1-2.914,1.176,3.793,3.793,0,0,1-2.918-1.172,4.5,4.5,0,0,1-1.09-3.187Zm2.258.164a3.151,3.151,0,0,0,.453,1.84,1.629,1.629,0,0,0,2.578.008,3.448,3.448,0,0,0,.461-2.012,3.12,3.12,0,0,0-.461-1.828,1.5,1.5,0,0,0-1.3-.648,1.475,1.475,0,0,0-1.281.645A3.506,3.506,0,0,0,32.426,10.859Zm11.719,1.8a.727.727,0,0,0-.41-.652,4.659,4.659,0,0,0-1.316-.426Q39.4,10.953,39.4,9.023a2.323,2.323,0,0,1,.934-1.879,3.766,3.766,0,0,1,2.441-.754,4.053,4.053,0,0,1,2.574.758,2.388,2.388,0,0,1,.965,1.969H44.059a1.092,1.092,0,0,0-.312-.8A1.322,1.322,0,0,0,42.77,8a1.351,1.351,0,0,0-.883.258.814.814,0,0,0-.312.656.7.7,0,0,0,.355.605,3.657,3.657,0,0,0,1.2.4,9.8,9.8,0,0,1,1.422.379A2.336,2.336,0,0,1,46.34,12.57a2.2,2.2,0,0,1-.992,1.871,4.28,4.28,0,0,1-2.562.715,4.47,4.47,0,0,1-1.887-.379,3.166,3.166,0,0,1-1.293-1.039,2.414,2.414,0,0,1-.469-1.426h2.141a1.179,1.179,0,0,0,.445.922,1.766,1.766,0,0,0,1.109.32,1.635,1.635,0,0,0,.98-.246A.766.766,0,0,0,44.145,12.664Zm11.523,2.492a4.15,4.15,0,0,1-3.027-1.141,4.054,4.054,0,0,1-1.168-3.039v-.219a5.106,5.106,0,0,1,.492-2.277,3.612,3.612,0,0,1,1.395-1.547,3.914,3.914,0,0,1,2.059-.543,3.508,3.508,0,0,1,2.73,1.094,4.444,4.444,0,0,1,1,3.1v.922H53.762a2.1,2.1,0,0,0,.66,1.328,2,2,0,0,0,1.395.5,2.437,2.437,0,0,0,2.039-.945l1.109,1.242a3.389,3.389,0,0,1-1.375,1.121A4.511,4.511,0,0,1,55.668,15.156ZM55.41,8.219a1.414,1.414,0,0,0-1.09.453,2.341,2.341,0,0,0-.535,1.3h3.141v-.18a1.669,1.669,0,0,0-.406-1.16A1.459,1.459,0,0,0,55.41,8.219ZM62.809,15H60.543V3h2.266Zm5.75.156a4.15,4.15,0,0,1-3.027-1.141,4.054,4.054,0,0,1-1.168-3.039v-.219a5.106,5.106,0,0,1,.492-2.277A3.612,3.612,0,0,1,66.25,6.934a3.914,3.914,0,0,1,2.059-.543,3.508,3.508,0,0,1,2.73,1.094,4.444,4.444,0,0,1,1,3.1v.922H66.652a2.1,2.1,0,0,0,.66,1.328,2,2,0,0,0,1.395.5,2.437,2.437,0,0,0,2.039-.945l1.109,1.242a3.389,3.389,0,0,1-1.375,1.121A4.511,4.511,0,0,1,68.559,15.156ZM68.3,8.219a1.414,1.414,0,0,0-1.09.453,2.341,2.341,0,0,0-.535,1.3h3.141v-.18a1.669,1.669,0,0,0-.406-1.16A1.459,1.459,0,0,0,68.3,8.219Zm7.133-1.672.07.945a2.971,2.971,0,0,1,2.43-1.1A2.255,2.255,0,0,1,80.176,7.68a2.9,2.9,0,0,1,2.539-1.289,2.521,2.521,0,0,1,2.047.8,3.681,3.681,0,0,1,.672,2.41V15H83.168V9.609a1.61,1.61,0,0,0-.281-1.051,1.246,1.246,0,0,0-.992-.332,1.409,1.409,0,0,0-1.406.969L80.5,15H78.238V9.617a1.59,1.59,0,0,0-.289-1.062,1.259,1.259,0,0,0-.984-.328,1.463,1.463,0,0,0-1.391.8V15H73.316V6.547Zm15.625,8.609a4.15,4.15,0,0,1-3.027-1.141,4.054,4.054,0,0,1-1.168-3.039v-.219a5.106,5.106,0,0,1,.492-2.277A3.612,3.612,0,0,1,88.75,6.934a3.914,3.914,0,0,1,2.059-.543,3.508,3.508,0,0,1,2.73,1.094,4.444,4.444,0,0,1,1,3.1v.922H89.152a2.1,2.1,0,0,0,.66,1.328,2,2,0,0,0,1.395.5,2.437,2.437,0,0,0,2.039-.945l1.109,1.242a3.389,3.389,0,0,1-1.375,1.121A4.511,4.511,0,0,1,91.059,15.156ZM90.8,8.219a1.414,1.414,0,0,0-1.09.453,2.341,2.341,0,0,0-.535,1.3h3.141v-.18a1.669,1.669,0,0,0-.406-1.16A1.459,1.459,0,0,0,90.8,8.219Zm7.094-1.672.07.977a2.951,2.951,0,0,1,2.43-1.133,2.453,2.453,0,0,1,2,.789,3.682,3.682,0,0,1,.672,2.359V15h-2.258V9.594a1.465,1.465,0,0,0-.312-1.043,1.4,1.4,0,0,0-1.039-.324,1.553,1.553,0,0,0-1.43.813V15H95.77V6.547Zm9.586-2.078V6.547h1.445V8.2H107.48v4.219a1.007,1.007,0,0,0,.18.672.9.9,0,0,0,.688.2,3.6,3.6,0,0,0,.664-.055v1.711a4.648,4.648,0,0,1-1.367.2,2.156,2.156,0,0,1-2.422-2.4V8.2h-1.234V6.547h1.234V4.469ZM109.6,10.7a5.013,5.013,0,0,1,.484-2.242,3.546,3.546,0,0,1,1.395-1.523,4.069,4.069,0,0,1,2.113-.539,3.849,3.849,0,0,1,2.793,1.047,4.2,4.2,0,0,1,1.207,2.844l.016.578a4.418,4.418,0,0,1-1.086,3.121,4.209,4.209,0,0,1-5.832,0A4.5,4.5,0,0,1,109.6,10.8Zm2.258.164a3.151,3.151,0,0,0,.453,1.84,1.629,1.629,0,0,0,2.578.008,3.448,3.448,0,0,0,.461-2.012,3.12,3.12,0,0,0-.461-1.828,1.5,1.5,0,0,0-1.3-.648,1.475,1.475,0,0,0-1.281.645A3.506,3.506,0,0,0,111.855,10.859Zm11.719,1.8a.727.727,0,0,0-.41-.652,4.659,4.659,0,0,0-1.316-.426q-3.016-.633-3.016-2.562a2.323,2.323,0,0,1,.934-1.879,3.766,3.766,0,0,1,2.441-.754,4.053,4.053,0,0,1,2.574.758,2.388,2.388,0,0,1,.965,1.969h-2.258a1.092,1.092,0,0,0-.312-.8A1.322,1.322,0,0,0,122.2,8a1.351,1.351,0,0,0-.883.258.814.814,0,0,0-.312.656.7.7,0,0,0,.355.605,3.657,3.657,0,0,0,1.2.4,9.8,9.8,0,0,1,1.422.379,2.336,2.336,0,0,1,1.789,2.273,2.2,2.2,0,0,1-.992,1.871,4.28,4.28,0,0,1-2.562.715,4.47,4.47,0,0,1-1.887-.379,3.166,3.166,0,0,1-1.293-1.039,2.414,2.414,0,0,1-.469-1.426h2.141a1.179,1.179,0,0,0,.445.922,1.766,1.766,0,0,0,1.109.32,1.635,1.635,0,0,0,.98-.246A.766.766,0,0,0,123.574,12.664ZM14.582,35V28.2H13.324V26.547h1.258v-.719a2.918,2.918,0,0,1,.816-2.207,3.162,3.162,0,0,1,2.285-.785,5.278,5.278,0,0,1,1.148.156l-.023,1.75a2.878,2.878,0,0,0-.687-.07q-1.273,0-1.273,1.2v.68h1.68V28.2h-1.68V35Zm10.18-.859a2.831,2.831,0,0,1-2.312,1.016,2.67,2.67,0,0,1-2.074-.781,3.335,3.335,0,0,1-.73-2.289V26.547H21.9v5.461q0,1.32,1.2,1.32a1.631,1.631,0,0,0,1.578-.8V26.547h2.266V35H24.824Zm5.969-7.594.07.977a2.951,2.951,0,0,1,2.43-1.133,2.453,2.453,0,0,1,2,.789,3.682,3.682,0,0,1,.672,2.359V35H33.645V29.594a1.465,1.465,0,0,0-.312-1.043,1.4,1.4,0,0,0-1.039-.324,1.553,1.553,0,0,0-1.43.813V35H28.605V26.547Zm6.531,4.164a5.094,5.094,0,0,1,.887-3.148,2.877,2.877,0,0,1,2.426-1.172,2.589,2.589,0,0,1,2.039.922V23h2.266V35H42.84l-.109-.9a2.657,2.657,0,0,1-2.172,1.055,2.869,2.869,0,0,1-2.395-1.176A5.258,5.258,0,0,1,37.262,30.711Zm2.258.164a3.328,3.328,0,0,0,.414,1.82,1.349,1.349,0,0,0,1.2.633,1.511,1.511,0,0,0,1.477-.883V29.109a1.489,1.489,0,0,0-1.461-.883Q39.52,28.227,39.52,30.875ZM51.527,35a2.507,2.507,0,0,1-.227-.758,2.732,2.732,0,0,1-2.133.914,3,3,0,0,1-2.059-.719,2.312,2.312,0,0,1-.816-1.812,2.389,2.389,0,0,1,1-2.062,4.915,4.915,0,0,1,2.879-.727h1.039v-.484a1.393,1.393,0,0,0-.3-.937,1.183,1.183,0,0,0-.949-.352,1.345,1.345,0,0,0-.895.273.929.929,0,0,0-.324.75H46.48a2.268,2.268,0,0,1,.453-1.359,3,3,0,0,1,1.281-.98,4.669,4.669,0,0,1,1.859-.355,3.689,3.689,0,0,1,2.48.785,2.747,2.747,0,0,1,.918,2.207v3.664a4.041,4.041,0,0,0,.336,1.82V35ZM49.66,33.43a1.945,1.945,0,0,0,.922-.223,1.462,1.462,0,0,0,.625-.6V31.156h-.844q-1.7,0-1.8,1.172l-.008.133a.9.9,0,0,0,.3.7A1.153,1.153,0,0,0,49.66,33.43Zm7.664-6.883.07.945a2.971,2.971,0,0,1,2.43-1.1,2.255,2.255,0,0,1,2.242,1.289,2.9,2.9,0,0,1,2.539-1.289,2.521,2.521,0,0,1,2.047.8,3.681,3.681,0,0,1,.672,2.41V35H65.059V29.609a1.61,1.61,0,0,0-.281-1.051,1.246,1.246,0,0,0-.992-.332,1.409,1.409,0,0,0-1.406.969l.008,5.8H60.129V29.617a1.59,1.59,0,0,0-.289-1.062,1.259,1.259,0,0,0-.984-.328,1.463,1.463,0,0,0-1.391.8V35H55.207V26.547Zm15.625,8.609a4.15,4.15,0,0,1-3.027-1.141,4.054,4.054,0,0,1-1.168-3.039v-.219a5.106,5.106,0,0,1,.492-2.277,3.612,3.612,0,0,1,1.395-1.547,3.914,3.914,0,0,1,2.059-.543,3.508,3.508,0,0,1,2.73,1.094,4.444,4.444,0,0,1,1,3.1v.922H71.043a2.1,2.1,0,0,0,.66,1.328,2,2,0,0,0,1.395.5,2.437,2.437,0,0,0,2.039-.945l1.109,1.242a3.389,3.389,0,0,1-1.375,1.121A4.511,4.511,0,0,1,72.949,35.156Zm-.258-6.937a1.414,1.414,0,0,0-1.09.453,2.341,2.341,0,0,0-.535,1.3h3.141v-.18a1.669,1.669,0,0,0-.406-1.16A1.459,1.459,0,0,0,72.691,28.219Zm7.094-1.672.07.977a2.951,2.951,0,0,1,2.43-1.133,2.453,2.453,0,0,1,2,.789,3.682,3.682,0,0,1,.672,2.359V35H82.7V29.594a1.465,1.465,0,0,0-.312-1.043,1.4,1.4,0,0,0-1.039-.324,1.553,1.553,0,0,0-1.43.813V35H77.66V26.547Zm9.586-2.078v2.078h1.445V28.2H89.371v4.219a1.007,1.007,0,0,0,.18.672.9.9,0,0,0,.688.2,3.6,3.6,0,0,0,.664-.055v1.711a4.648,4.648,0,0,1-1.367.2,2.156,2.156,0,0,1-2.422-2.4V28.2H85.879V26.547h1.234V24.469ZM96.973,35a2.507,2.507,0,0,1-.227-.758,2.732,2.732,0,0,1-2.133.914,3,3,0,0,1-2.059-.719,2.312,2.312,0,0,1-.816-1.812,2.389,2.389,0,0,1,1-2.062,4.915,4.915,0,0,1,2.879-.727h1.039v-.484a1.393,1.393,0,0,0-.3-.937,1.183,1.183,0,0,0-.949-.352,1.345,1.345,0,0,0-.895.273.929.929,0,0,0-.324.75H91.926a2.268,2.268,0,0,1,.453-1.359,3,3,0,0,1,1.281-.98,4.669,4.669,0,0,1,1.859-.355,3.689,3.689,0,0,1,2.48.785,2.747,2.747,0,0,1,.918,2.207v3.664a4.041,4.041,0,0,0,.336,1.82V35Zm-1.867-1.57a1.945,1.945,0,0,0,.922-.223,1.462,1.462,0,0,0,.625-.6V31.156h-.844q-1.7,0-1.8,1.172L94,32.461a.9.9,0,0,0,.3.7A1.153,1.153,0,0,0,95.105,33.43Zm7.93,1.57H100.77V23h2.266Zm5.75.156a4.15,4.15,0,0,1-3.027-1.141,4.054,4.054,0,0,1-1.168-3.039v-.219a5.106,5.106,0,0,1,.492-2.277,3.612,3.612,0,0,1,1.395-1.547,3.914,3.914,0,0,1,2.059-.543,3.508,3.508,0,0,1,2.73,1.094,4.444,4.444,0,0,1,1,3.1v.922h-5.383a2.1,2.1,0,0,0,.66,1.328,2,2,0,0,0,1.395.5,2.437,2.437,0,0,0,2.039-.945l1.109,1.242a3.389,3.389,0,0,1-1.375,1.121A4.511,4.511,0,0,1,108.785,35.156Zm-.258-6.937a1.414,1.414,0,0,0-1.09.453,2.341,2.341,0,0,0-.535,1.3h3.141v-.18a1.669,1.669,0,0,0-.406-1.16A1.459,1.459,0,0,0,108.527,28.219Zm9.594,4.445a.727.727,0,0,0-.41-.652,4.659,4.659,0,0,0-1.316-.426q-3.016-.633-3.016-2.562a2.323,2.323,0,0,1,.934-1.879,3.766,3.766,0,0,1,2.441-.754,4.053,4.053,0,0,1,2.574.758,2.388,2.388,0,0,1,.965,1.969h-2.258a1.092,1.092,0,0,0-.312-.8,1.322,1.322,0,0,0-.977-.316,1.351,1.351,0,0,0-.883.258.814.814,0,0,0-.312.656.7.7,0,0,0,.355.605,3.657,3.657,0,0,0,1.2.4,9.8,9.8,0,0,1,1.422.379,2.336,2.336,0,0,1,1.789,2.273,2.2,2.2,0,0,1-.992,1.871,4.28,4.28,0,0,1-2.562.715,4.47,4.47,0,0,1-1.887-.379,3.166,3.166,0,0,1-1.293-1.039,2.414,2.414,0,0,1-.469-1.426h2.141a1.179,1.179,0,0,0,.445.922,1.766,1.766,0,0,0,1.109.32,1.635,1.635,0,0,0,.98-.246A.766.766,0,0,0,118.121,32.664Z" transform="translate(1085 5251)" fill="#12263f"/>
    <g id="Grupo_965041" data-name="Grupo 965041" transform="translate(1132.934 5203.288)">
      <path id="Trazado_729120" data-name="Trazado 729120" d="M330.779,52.914l6.047-3.789h5.432c.339,0,.461.241.285.518L340.779,52.4a.808.808,0,0,0,0,1.038l1.764,2.752c.176.276.041.52-.285.52H331.395c-.439,0-.616-.207-.616-.616Z" transform="translate(-305.975 -45.932)" fill="#cf4351" fill-rule="evenodd"/>
      <path id="Trazado_729121" data-name="Trazado 729121" d="M263.536,15.09H251.975V7.512h11.561a.547.547,0,0,1,.533.559v6.46A.547.547,0,0,1,263.536,15.09Z" transform="translate(-233.218 -7.512)" fill="#ff6978" fill-rule="evenodd"/>
      <path id="Trazado_729122" data-name="Trazado 729122" d="M8.276,370.237H18.559a.739.739,0,0,1,.735.737l.3,2.19-.3,2.813a.738.738,0,0,1-.735.735H8.276a.737.737,0,0,1-.735-.735v-5a.739.739,0,0,1,.735-.737Z" transform="translate(-7.541 -342.403)" fill="#ccf49f" fill-rule="evenodd"/>
      <path id="Trazado_729123" data-name="Trazado 729123" d="M166.248,365.206l2.125-.3,1.823.3a1.038,1.038,0,0,1,1.042.968v4.762a.971.971,0,0,1-.968.968h-4.32a5.338,5.338,0,0,1-2.569-.631c-.485-.265-.37-.215-.944-.215H160.7v-5h2.641c.764,0,.555-.05,1.207-.355A3.056,3.056,0,0,1,166.248,365.206Z" transform="translate(-148.946 -337.483)" fill="#ffcbbe" fill-rule="evenodd"/>
      <path id="Trazado_729124" data-name="Trazado 729124" d="M219.038,277.954l-2.3-.3-1.721.3a.971.971,0,0,0-.968.968v4.759a.972.972,0,0,0,.968.968h4.32a5.359,5.359,0,0,0,2.623-.659.868.868,0,0,1,.724-.187h1.906l.894-2.758-.894-2.245h-2.582c-.787,0-.555-.013-1.225-.333A3.084,3.084,0,0,0,219.038,277.954Z" transform="translate(-198.201 -256.926)" fill="#ffcbbe" fill-rule="evenodd"/>
      <path id="Trazado_729125" data-name="Trazado 729125" d="M8.276,195.706H18.559a.737.737,0,0,1,.735.735l.3,2.334-.3,2.669a.74.74,0,0,1-.735.737H8.276a.739.739,0,0,1-.735-.737v-5a.737.737,0,0,1,.735-.735Z" transform="translate(-7.541 -181.265)" fill="#a5cdff" fill-rule="evenodd"/>
      <path id="Trazado_729126" data-name="Trazado 729126" d="M170.269,171.544a.97.97,0,0,1,.968.968v4.762a.973.973,0,0,1-.968.968h-4.32a5.488,5.488,0,0,1-2.127-.418,3.118,3.118,0,0,0-2.1-.431H160.7v-5h3.172c.392-1.34,2.088-2.549,4.2-2.723a.964.964,0,0,1,.139-.011.944.944,0,0,1,0,1.888h2.056Z" transform="translate(-148.945 -157.214)" fill="#ffcbbe" fill-rule="evenodd"/>
      <path id="Trazado_729127" data-name="Trazado 729127" d="M362.43,282.986H352.15a.737.737,0,0,0-.735.735v5a.737.737,0,0,0,.735.735h10.28a.737.737,0,0,0,.735-.735v-5A.737.737,0,0,0,362.43,282.986Z" transform="translate(-325.027 -261.847)" fill="#ebd2ff" fill-rule="evenodd"/>
      <path id="Trazado_729128" data-name="Trazado 729128" d="M434.557,52.4a.808.808,0,0,0,0,1.038l1.762,2.752c.178.276.044.52-.283.52H437.9c.326,0,.461-.244.285-.52l-1.764-2.752a.808.808,0,0,1,0-1.038l1.764-2.754c.176-.276.054-.518-.285-.518h-1.862c.339,0,.461.241.283.518Z" transform="translate(-401.615 -45.932)" fill="#bd3341" fill-rule="evenodd"/>
      <path id="Trazado_729129" data-name="Trazado 729129" d="M361.3,286.863a.737.737,0,0,1-.735.735h-9.153v1.127a.737.737,0,0,0,.735.735h10.28a.737.737,0,0,0,.735-.735v-5a.737.737,0,0,0-.735-.735H361.3Z" transform="translate(-325.027 -261.848)" fill="#d7bef0" fill-rule="evenodd"/>
      <path id="Trazado_729130" data-name="Trazado 729130" d="M17.431,199.582a.741.741,0,0,1-.737.737H7.54v1.125a.739.739,0,0,0,.735.737H18.558a.74.74,0,0,0,.735-.737v-5a.737.737,0,0,0-.735-.735H17.431Z" transform="translate(-7.54 -181.265)" fill="#8abfff" fill-rule="evenodd"/>
      <path id="Trazado_729131" data-name="Trazado 729131" d="M17.431,374.115a.739.739,0,0,1-.737.735H7.54v1.127a.737.737,0,0,0,.735.735H18.558a.738.738,0,0,0,.735-.735v-5.005a.739.739,0,0,0-.735-.735H17.431Z" transform="translate(-7.54 -342.403)" fill="#b3e59f" fill-rule="evenodd"/>
      <g id="Grupo_965040" data-name="Grupo 965040" transform="translate(11.753 14.33)">
        <path id="Trazado_729132" data-name="Trazado 729132" d="M222.682,333.5a2.546,2.546,0,0,0-1.642.429,3.5,3.5,0,0,1-1.705.418h-5.288v.894a.972.972,0,0,0,.968.968h.487c1.31,0,2.634.024,3.942,0a5.332,5.332,0,0,0,2.515-.659.868.868,0,0,1,.724-.187h1.906V333.5Z" transform="translate(-209.952 -322.815)" fill="#f7beaf" fill-rule="evenodd"/>
        <path id="Trazado_729133" data-name="Trazado 729133" d="M168.284,373.535H165.95a3.52,3.52,0,0,1-1.673-.4,2.739,2.739,0,0,0-1.716-.446H160.7v1.862h1.738c.574,0,.459-.05.944.215a5.339,5.339,0,0,0,2.569.631h4.32a.971.971,0,0,0,.968-.968v-4.762a1.038,1.038,0,0,0-1.042-.968c-.144-.022-.64.009-.82.009v3.881a.982.982,0,0,1-1.092.946Z" transform="translate(-160.699 -355.306)" fill="#f7beaf" fill-rule="evenodd"/>
        <path id="Trazado_729134" data-name="Trazado 729134" d="M169.373,198.125c0,.787-.379.968-1.114.968h-2.312a3.662,3.662,0,0,1-1.405-.27,4.71,4.71,0,0,0-1.984-.566H160.7v1.851h1.027a3.118,3.118,0,0,1,2.1.431,5.486,5.486,0,0,0,2.127.418h4.32a.973.973,0,0,0,.968-.968v-4.762a.97.97,0,0,0-.968-.968h-.894v3.865Z" transform="translate(-160.696 -194.26)" fill="#f7beaf" fill-rule="evenodd"/>
      </g>
    </g>
    <path id="Trazado_729135" data-name="Trazado 729135" d="M5.149,34.312a.575.575,0,0,1,0,1.151H1.312A1.315,1.315,0,0,1,0,34.151v-5a1.315,1.315,0,0,1,1.312-1.312h10.28a1.309,1.309,0,0,1,.927.385,1.256,1.256,0,0,1,.25.35h2.2c.4,0,.426-.013.542-.078.094-.052.215-.122.424-.22l.174-.085a1.545,1.545,0,0,1-.261-.857V22.572a1.538,1.538,0,0,1,.124-.6,5.843,5.843,0,0,1-.742-.254c-.215-.091-.335-.146-.435-.189a2.843,2.843,0,0,0-.45-.174,4.028,4.028,0,0,0-.672-.022h-.9a1.357,1.357,0,0,1-.252.352,1.309,1.309,0,0,1-.927.385H7.755a.575.575,0,0,1,0-1.151h3.837a.163.163,0,0,0,.161-.161v-5a.163.163,0,0,0-.161-.161H1.312a.163.163,0,0,0-.161.161v5a.163.163,0,0,0,.161.161H5.149a.575.575,0,0,1,0,1.151H1.312A1.315,1.315,0,0,1,0,20.756v-5a1.315,1.315,0,0,1,1.312-1.312h10.28a1.309,1.309,0,0,1,.927.385,1.287,1.287,0,0,1,.25.35H15.1a4.3,4.3,0,0,1,1.59-1.738,6.334,6.334,0,0,1,2.062-.848V.576A.577.577,0,0,1,19.333,0h4.742a.575.575,0,1,1,0,1.151H19.908v6.43H30.851V1.151H26.684a.575.575,0,1,1,0-1.151h4.744A.576.576,0,0,1,32,.576V3.193h5.473a.578.578,0,0,1,.463.918L35.73,7.559l2.227,3.48a.576.576,0,0,1-.483.885H25.381a.576.576,0,0,1-.576-.574V8.732h-4.9v3.713a1.521,1.521,0,0,1,1.455,1.518,1.581,1.581,0,0,1-.046.37H21.9a1.541,1.541,0,0,1,1.544,1.542v4.762a1.529,1.529,0,0,1-.259.853c.2.1.407.2.6.309a1.141,1.141,0,0,0,.594.078h2.136a1.355,1.355,0,0,1,.252-.352,1.313,1.313,0,0,1,.927-.385H37.98a1.315,1.315,0,0,1,1.31,1.312v5a1.315,1.315,0,0,1-1.31,1.312H34.142a.575.575,0,1,1,0-1.151H37.98a.163.163,0,0,0,.159-.161v-5a.162.162,0,0,0-.159-.161H27.7a.162.162,0,0,0-.159.161v5a.162.162,0,0,0,.159.161h3.837a.575.575,0,1,1,0,1.151H27.7a1.312,1.312,0,0,1-.927-.385,1.336,1.336,0,0,1-.25-.35H25.365a1.2,1.2,0,0,0-.748.109,5.572,5.572,0,0,1-1.307.531,1.416,1.416,0,0,1,.133.6v4.762A1.545,1.545,0,0,1,21.9,35.574h-1.99v3.141a.575.575,0,0,1-1.151,0V35.574H17.58a6.278,6.278,0,0,1-1.488-.178,5.717,5.717,0,0,1-1.36-.524,1.536,1.536,0,0,0-.972-.144h-.992a1.288,1.288,0,0,1-.25.35,1.309,1.309,0,0,1-.927.385H7.755a.575.575,0,0,1,0-1.151h3.837a.164.164,0,0,0,.161-.161v-5a.163.163,0,0,0-.161-.161H1.312a.163.163,0,0,0-.161.161v5a.164.164,0,0,0,.161.161H5.149ZM19.842,15.481a.575.575,0,1,1,0-1.151.363.363,0,0,0,.257-.107.374.374,0,0,0,.107-.261c0-.272-.211-.381-.459-.361a5.314,5.314,0,0,0-2.43.8,2.929,2.929,0,0,0-1.257,1.473.576.576,0,0,1-.563.455H12.9v3.857h.768a4.529,4.529,0,0,1,.9.044,3.226,3.226,0,0,1,.677.248,6.076,6.076,0,0,0,1.338.459,5.219,5.219,0,0,0,.992.094H21.9a.391.391,0,0,0,.278-.115.4.4,0,0,0,.115-.276V15.875a.391.391,0,0,0-.115-.276.4.4,0,0,0-.278-.117H19.842Zm1.869,12.244a5.182,5.182,0,0,0,1.242-.15c.646-.163,1.112-.546,1.573-.663a2.071,2.071,0,0,1,.533-.033h1.329V23.023H24.382c-.737,0-.757-.009-1.142-.218-.211-.115-.424-.215-.639-.324a2.136,2.136,0,0,0-1.188-.3H17.391a.4.4,0,0,0-.276.115.391.391,0,0,0-.115.278v4.759a.4.4,0,0,0,.392.394Zm0,1.151H17.876a2.073,2.073,0,0,0-1.138.283c-.224.111-.446.209-.663.333a1.616,1.616,0,0,1-1.107.231H12.9v3.854l1.381,0a1.619,1.619,0,0,1,.429.028c.459.1,1.018.52,1.653.676a5.057,5.057,0,0,0,1.214.144H21.9a.4.4,0,0,0,.394-.394V29.268a.355.355,0,0,0-.126-.252A.56.56,0,0,0,21.711,28.876ZM25.955,8.731v2.043H36.424l-1.853-2.9a.573.573,0,0,1-.007-.629l1.86-2.9H32V8.155a.576.576,0,0,1-.574.577H25.955Z" transform="translate(1132.355 5202.711)"/>
    <g id="Grupo_965060" data-name="Grupo 965060" transform="translate(431.607 5204.941)">
      <g id="Grupo_965042" data-name="Grupo 965042" transform="translate(0 1.215)">
        <path id="Trazado_729136" data-name="Trazado 729136" d="M26.3,34.376v2.43a2.429,2.429,0,0,1-2.43,2.43H4.43A2.429,2.429,0,0,1,2,36.806V6.43A2.429,2.429,0,0,1,4.43,4H9.29V6.43H5.038a.609.609,0,0,0-.608.608V36.2a.609.609,0,0,0,.608.608H23.263a.609.609,0,0,0,.608-.608V34.376Z" transform="translate(-2 -4)" fill="#ffeaa7"/>
      </g>
      <g id="Grupo_965043" data-name="Grupo 965043" transform="translate(21.871 11.64)">
        <path id="Trazado_729137" data-name="Trazado 729137" d="M40.43,21.166V36.251H38V21.67a6,6,0,0,0,2.43-.51Z" transform="translate(-38 -21.16)" fill="#ffeaa7"/>
      </g>
      <g id="Grupo_965044" data-name="Grupo 965044" transform="translate(2.43 3.645)">
        <path id="Trazado_729138" data-name="Trazado 729138" d="M21.759,15.26a6.057,6.057,0,0,1-2.394-4.83,6.212,6.212,0,0,1,.122-1.221.814.814,0,0,1-.122.006h-7.29A1.219,1.219,0,0,1,10.86,8H6.608A.609.609,0,0,0,6,8.608V37.769a.609.609,0,0,0,.608.608H24.833a.609.609,0,0,0,.608-.608V16.505A6.02,6.02,0,0,1,21.759,15.26Z" transform="translate(-6 -8)" fill="#f0d0b4"/>
      </g>
      <g id="Grupo_965045" data-name="Grupo 965045" transform="translate(13.366 26.731)">
        <path id="Trazado_729139" data-name="Trazado 729139" d="M28.86,48.43v2.43l-4.289-1.61a.874.874,0,0,1,0-1.64L28.86,46Z" transform="translate(-24 -46)" fill="#aab2bd"/>
      </g>
      <g id="Grupo_965046" data-name="Grupo 965046" transform="translate(31.591 26.731)">
        <path id="Trazado_729140" data-name="Trazado 729140" d="M58.149,46.711A2.431,2.431,0,0,1,56.43,50.86H54V46h2.43A2.445,2.445,0,0,1,58.149,46.711Z" transform="translate(-54 -46)" fill="#aab2bd"/>
      </g>
      <g id="Grupo_965047" data-name="Grupo 965047" transform="translate(18.226 29.161)">
        <path id="Trazado_729141" data-name="Trazado 729141" d="M45.366,50v2.43H32V50Z" transform="translate(-32 -50)" fill="#4fc1e9"/>
      </g>
      <g id="Grupo_965048" data-name="Grupo 965048" transform="translate(18.226 26.731)">
        <path id="Trazado_729142" data-name="Trazado 729142" d="M45.366,46v2.43H32V46H45.366Z" transform="translate(-32 -46)" fill="#b4dd7f"/>
      </g>
      <g id="Grupo_965049" data-name="Grupo 965049" transform="translate(4.86 11.543)">
        <path id="Trazado_729143" data-name="Trazado 729143" d="M21.713,22.488a7.3,7.3,0,1,0,2.868,5.8A7.263,7.263,0,0,0,21.713,22.488Z" transform="translate(-10 -21)" fill="#e6e9ed"/>
      </g>
      <g id="Grupo_965050" data-name="Grupo 965050" transform="translate(13.366 16.403)">
        <path id="Trazado_729144" data-name="Trazado 729144" d="M24,29h2.43v6.075H24Z" transform="translate(-24 -29)" fill="#fcd770"/>
      </g>
      <g id="Grupo_965051" data-name="Grupo 965051" transform="translate(10.935 15.188)">
        <path id="Trazado_729145" data-name="Trazado 729145" d="M22.43,28.215V34.29H20V27h2.43Z" transform="translate(-20 -27)" fill="#fcd770"/>
      </g>
      <g id="Grupo_965052" data-name="Grupo 965052" transform="translate(8.505 18.833)">
        <path id="Trazado_729146" data-name="Trazado 729146" d="M16,33h2.43v3.645H16Z" transform="translate(-16 -33)" fill="#fcd770"/>
      </g>
      <g id="Grupo_965053" data-name="Grupo 965053" transform="translate(7.29)">
        <path id="Trazado_729147" data-name="Trazado 729147" d="M23.72,3.215V4.43a6.032,6.032,0,0,0-1.094,2.424.814.814,0,0,1-.122.006h-7.29A1.219,1.219,0,0,1,14,5.645V3.215A1.219,1.219,0,0,1,15.215,2h7.29A1.219,1.219,0,0,1,23.72,3.215Z" transform="translate(-14 -2)" fill="#b4dd7f"/>
      </g>
      <g id="Grupo_965054" data-name="Grupo 965054" transform="translate(30.984 6.075)">
        <path id="Trazado_729148" data-name="Trazado 729148" d="M56.645,12l1.215,2.43H54.215L53,12h3.645Z" transform="translate(-53 -12)" fill="#cf9e76"/>
      </g>
      <g id="Grupo_965055" data-name="Grupo 965055" transform="translate(30.984 3.645)">
        <path id="Trazado_729149" data-name="Trazado 729149" d="M57.86,8l-1.215,2.43H53L54.215,8Z" transform="translate(-53 -8)" fill="#cf9e76"/>
      </g>
      <g id="Grupo_965056" data-name="Grupo 965056" transform="translate(15.796 0)">
        <path id="Trazado_729150" data-name="Trazado 729150" d="M40.15,8.075a6.044,6.044,0,0,1-3.645,5.565A6.075,6.075,0,0,1,28,8.075a6.212,6.212,0,0,1,.122-1.221A6.077,6.077,0,0,1,40.15,8.075Z" transform="translate(-28 -2)" fill="#e6e9ed"/>
      </g>
      <g id="Grupo_965057" data-name="Grupo 965057" transform="translate(19.63 3.624)">
        <circle id="Elipse_5856" data-name="Elipse 5856" cx="2.5" cy="2.5" r="2.5" transform="translate(-0.237 0.435)" fill="#ff826e"/>
      </g>
      <g id="Grupo_965058" data-name="Grupo 965058" transform="translate(26.731 13.366)">
        <path id="Trazado_729151" data-name="Trazado 729151" d="M50.86,24a4.854,4.854,0,1,1-3.038,1.063A4.859,4.859,0,0,1,50.86,24Z" transform="translate(-46 -24)" fill="#e6e9ed"/>
      </g>
      <g id="Grupo_965059" data-name="Grupo 965059" transform="translate(29.161 15.796)">
        <path id="Trazado_729152" data-name="Trazado 729152" d="M54.319,29.549a.988.988,0,0,1,0,1.762l-2.9,1.446A.983.983,0,0,1,50,31.876V28.984a.983.983,0,0,1,1.422-.881Z" transform="translate(-50 -28)" fill="#ff826e"/>
      </g>
    </g>
    <g id="Grupo_965061" data-name="Grupo 965061" transform="translate(431 5204.333)">
      <path id="Trazado_729153" data-name="Trazado 729153" d="M35.629,27.731H26.516v-14.1a6.663,6.663,0,0,0,.642-.372l2.173,2.716a5.546,5.546,0,1,0,.952-.756l-2.178-2.722a6.662,6.662,0,0,0,2.025-4.2h2.085l1.215,2.43h5L36.916,7.683l1.519-3.038h-5l-1.215,2.43H30.131A6.674,6.674,0,0,0,19.2,2.556,1.82,1.82,0,0,0,17.4,1h-7.29A1.82,1.82,0,0,0,8.4,2.215H4.038A3.041,3.041,0,0,0,1,5.253V35.629a3.041,3.041,0,0,0,3.038,3.038H23.478a3.041,3.041,0,0,0,3.038-3.038V33.806h9.113a3.038,3.038,0,1,0,0-6.075Zm1.823-7.9A4.253,4.253,0,1,1,33.2,15.581,4.258,4.258,0,0,1,37.451,19.833ZM34.182,9.505,33.574,8.29h2.287l.608,1.215Zm0-3.645h2.287l-.608,1.215H33.574ZM8.4,5.86a1.82,1.82,0,0,0,1.711,1.215h6.714c-.018.2-.031.4-.031.608A6.659,6.659,0,0,0,18.969,12.6l-.926,1.216a7.969,7.969,0,1,0,.964.739l.928-1.217a6.627,6.627,0,0,0,2.937,1v13.4H19.723l-4.394,1.648a1.484,1.484,0,0,0,0,2.779l4.394,1.648h3.148v1.215H4.645V5.86ZM16.8,23.478H15.581v-4.86H16.8Zm-2.43,0H13.15V17.4h1.215Zm-2.43,0H10.72v-2.43h1.215Zm6.974,1.215a6.675,6.675,0,0,1-10.3,0Zm.794-1.215H18.011V17.4h-2.43V16.188H11.935v3.645H9.505v3.645H7.813a6.683,6.683,0,1,1,11.89,0Zm-3.948,7.543a.27.27,0,0,1,0-.5l3.47-1.3v3.107Zm4.685,1.57V31.376h12.15v1.215Zm12.15-2.43H20.441V28.946h12.15Zm-7.29-2.43H24.086v-13.4a6.574,6.574,0,0,0,1.215-.228ZM23.478,2.215a5.474,5.474,0,0,1,5.432,4.86H26.455a3.038,3.038,0,1,0,0,1.215H28.91a5.467,5.467,0,1,1-5.432-6.075ZM25.189,8.29a1.823,1.823,0,1,1,0-1.215H22.871V8.29ZM9.505,2.823a.608.608,0,0,1,.608-.608H17.4a.608.608,0,0,1,.608.608v1.03a6.645,6.645,0,0,0-.955,2l-6.943,0a.608.608,0,0,1-.608-.608ZM25.3,35.629a1.825,1.825,0,0,1-1.823,1.823H4.038a1.825,1.825,0,0,1-1.823-1.823V5.253A1.825,1.825,0,0,1,4.038,3.43H8.29V4.645H4.645A1.216,1.216,0,0,0,3.43,5.86V35.021a1.216,1.216,0,0,0,1.215,1.215H22.871a1.216,1.216,0,0,0,1.215-1.215V33.806H25.3Zm10.328-3.038H33.806V28.946h1.823a1.823,1.823,0,0,1,0,3.645Z" transform="translate(-1 -1)"/>
      <path id="Trazado_729154" data-name="Trazado 729154" d="M49,31.485a1.591,1.591,0,0,0,2.3,1.423L54.2,31.46a1.591,1.591,0,0,0,0-2.846L51.3,27.168A1.591,1.591,0,0,0,49,28.59Zm1.215-2.894a.376.376,0,0,1,.375-.375.372.372,0,0,1,.168.039L53.652,29.7a.376.376,0,0,1,0,.672l-2.894,1.447a.386.386,0,0,1-.543-.336Z" transform="translate(-19.839 -11.204)"/>
      <path id="Trazado_729155" data-name="Trazado 729155" d="M9,49h7.29v1.215H9Z" transform="translate(-4.14 -19.839)"/>
      <path id="Trazado_729156" data-name="Trazado 729156" d="M9,53h7.29v1.215H9Z" transform="translate(-4.14 -21.409)"/>
      <path id="Trazado_729157" data-name="Trazado 729157" d="M9,13h1.215v1.215H9Z" transform="translate(-4.14 -5.71)"/>
      <path id="Trazado_729158" data-name="Trazado 729158" d="M13,13h7.29v1.215H13Z" transform="translate(-5.71 -5.71)"/>
      <path id="Trazado_729159" data-name="Trazado 729159" d="M9,17h1.215v1.215H9Z" transform="translate(-4.14 -7.28)"/>
      <path id="Trazado_729160" data-name="Trazado 729160" d="M13,17h7.29v1.215H13Z" transform="translate(-5.71 -7.28)"/>
    </g>
    <g id="_042---Checklist-Goals" data-name="042---Checklist-Goals" transform="translate(897 5204)">
      <g id="Cartoony" transform="translate(0.643 0.643)">
        <path id="Shape" d="M24.433,19.181V7.929A1.929,1.929,0,0,0,22.5,6H1.929A1.929,1.929,0,0,0,0,7.929v27a1.929,1.929,0,0,0,1.929,1.929h22.5Z" transform="translate(0 -2.142)" fill="#feb12e"/>
        <path id="Shape-2" data-name="Shape" d="M33.929,6H32a1.929,1.929,0,0,1,1.929,1.929V36.862h1.929V7.929A1.929,1.929,0,0,0,33.929,6Z" transform="translate(-11.425 -2.142)" fill="#ffdb9f"/>
        <path id="Shape-3" data-name="Shape" d="M23.289,21.663V10.643A.643.643,0,0,0,22.646,10h-18A.643.643,0,0,0,4,10.643V35.075a.643.643,0,0,0,.643.643H23.289Z" transform="translate(-1.428 -3.57)" fill="#ffe0b2"/>
        <path id="Shape-4" data-name="Shape" d="M31.929,10H30a.643.643,0,0,1,.643.643V35.718h1.929V10.643A.643.643,0,0,0,31.929,10Z" transform="translate(-10.711 -3.57)" fill="#dfc49c"/>
        <path id="Shape-5" data-name="Shape" d="M8,5.144V6.43a.643.643,0,0,0,.643.643H21.5a.643.643,0,0,0,.643-.643V5.144a1.929,1.929,0,0,0-1.929-1.929H17.644V2.572a2.572,2.572,0,1,0-5.144,0v.643H9.929A1.929,1.929,0,0,0,8,5.144Z" transform="translate(-2.856)" fill="#ffdc00"/>
        <path id="Shape-6" data-name="Shape" d="M25.929,5H24a1.929,1.929,0,0,1,1.929,1.929V8.215a.643.643,0,0,1-.643.643h1.929a.643.643,0,0,0,.643-.643V6.929A1.929,1.929,0,0,0,25.929,5Z" transform="translate(-8.569 -1.785)" fill="#fec108"/>
        <path id="Shape-7" data-name="Shape" d="M19.107,2.572v.643h1.929V2.572A2.563,2.563,0,0,0,17.5.194a2.572,2.572,0,0,1,1.607,2.379Z" transform="translate(-6.248 -0.001)" fill="#fec108"/>
        <circle id="Oval" cx="9.905" cy="9.905" r="9.905" transform="translate(17.082 17.073)" fill="#badc61"/>
        <path id="Shape-8" data-name="Shape" d="M41.464,26c-.325,0-.647.019-.964.049a10.284,10.284,0,0,1,0,20.477c.318.03.639.049.964.049a10.287,10.287,0,1,0,0-20.575Z" transform="translate(-14.46 -9.283)" fill="#badc61"/>
        <circle id="Oval-2" data-name="Oval" cx="7.82" cy="7.82" r="7.82" transform="translate(19.167 19.159)" fill="#f5f5f5"/>
        <path id="Shape-9" data-name="Shape" d="M41.464,30a7.7,7.7,0,0,0-.964.064,7.708,7.708,0,0,1,0,15.3A7.716,7.716,0,1,0,41.464,30Z" transform="translate(-14.46 -10.711)" fill="#cfd8dc"/>
        <circle id="Oval-3" data-name="Oval" cx="4.692" cy="4.692" r="4.692" transform="translate(22.295 22.286)" fill="#34bc85"/>
        <path id="Shape-10" data-name="Shape" d="M41.464,34a5.131,5.131,0,0,0-.964.094,5.144,5.144,0,0,1,0,10.1A5.144,5.144,0,1,0,41.464,34Z" transform="translate(-14.46 -12.139)" fill="#34bc85"/>
        <circle id="Oval-4" data-name="Oval" cx="2.607" cy="2.607" r="2.607" transform="translate(24.38 24.372)" fill="#607d8b"/>
        <path id="Shape-11" data-name="Shape" d="M41.464,38a2.549,2.549,0,0,0-.964.193,2.566,2.566,0,0,1,0,4.758A2.572,2.572,0,1,0,41.464,38Z" transform="translate(-14.46 -13.567)" fill="#37474f"/>
      </g>
      <g id="Icons">
        <ellipse id="Oval-5" data-name="Oval" cx="0.521" cy="1.043" rx="0.521" ry="1.043" transform="translate(12.512 2.077)"/>
        <path id="Shape-12" data-name="Shape" d="M38.389,16.905a.643.643,0,0,0-.909,0l-.233.233a.64.64,0,0,0-1.241.222v1.02L34.9,19.489A10.772,10.772,0,0,0,25.718,16.9V6.43a2.572,2.572,0,0,0-2.572-2.572h-3.46A2.55,2.55,0,0,0,18,3.215H16.074a3.215,3.215,0,1,0-6.43,0H7.716a2.55,2.55,0,0,0-1.683.643H2.572A2.572,2.572,0,0,0,0,6.43v27a2.572,2.572,0,0,0,2.572,2.572H20.618c.221.186.45.359.688.527L20.663,37.6a.643.643,0,1,0,1.1.66l.621-1.039a10.9,10.9,0,0,0,10.514,0l.621,1.039a.643.643,0,0,0,1.1-.66l-.643-1.072A10.883,10.883,0,0,0,35.8,20.4l1.114-1.109h1.02a.643.643,0,0,0,.222-1.242l.233-.233a.643.643,0,0,0,0-.909ZM24.433,6.43V17.2a10.738,10.738,0,0,0-1.286.5V7.716A1.286,1.286,0,0,0,21.861,6.43H20.575V5.787a2.533,2.533,0,0,0-.091-.643h2.663A1.286,1.286,0,0,1,24.433,6.43Zm-18-.643A1.286,1.286,0,0,1,7.716,4.5H9.644v.643a.643.643,0,1,0,1.286,0V3.215a1.929,1.929,0,1,1,3.858,0V5.144a.643.643,0,0,0,1.286,0V4.5H18a1.286,1.286,0,0,1,1.286,1.286V7.073H6.43ZM19.289,8.358A1.281,1.281,0,0,0,20.4,7.716h1.465V18.389A10.876,10.876,0,0,0,17.7,32.148H3.858V7.716H5.322a1.281,1.281,0,0,0,1.107.643Zm-18,25.075v-27A1.286,1.286,0,0,1,2.572,5.144H5.235a2.533,2.533,0,0,0-.091.643V6.43H3.858A1.286,1.286,0,0,0,2.572,7.716V32.148a1.286,1.286,0,0,0,1.286,1.286H18.389a10.922,10.922,0,0,0,.937,1.286H2.572A1.286,1.286,0,0,1,1.286,33.434Zm36.006-5.787a9.678,9.678,0,1,1-3.3-7.249l-.909.909a8.384,8.384,0,1,0,.909.909l.909-.909a9.594,9.594,0,0,1,2.4,6.34Zm-5.144,0a4.519,4.519,0,1,1-1.811-3.6l-.92.92a3.224,3.224,0,1,0,.909.909l.921-.919a4.471,4.471,0,0,1,.9,2.69Zm-2.572,0a1.929,1.929,0,1,1-1.929-1.929,1.9,1.9,0,0,1,.826.193l-1.281,1.281a.643.643,0,1,0,.909.909l1.281-1.28A1.9,1.9,0,0,1,29.576,27.647Zm1.679-4.517a5.8,5.8,0,1,0,.909.909l.915-.915a7.084,7.084,0,1,1-.909-.909Z" transform="translate(0 0)"/>
        <path id="Shape-13" data-name="Shape" d="M9.836,19.028a.643.643,0,0,0,.455.188h.064a.643.643,0,0,0,.471-.283L12.112,17a.643.643,0,0,0-1.07-.714l-.851,1.277-.089-.089a.643.643,0,0,0-.909.909Z" transform="translate(-3.218 -5.714)"/>
        <path id="Shape-14" data-name="Shape" d="M16.643,19.286H25A.643.643,0,1,0,25,18H16.643a.643.643,0,1,0,0,1.286Z" transform="translate(-5.713 -6.427)"/>
        <path id="Shape-15" data-name="Shape" d="M9.836,27.028a.643.643,0,0,0,.455.188h.064a.643.643,0,0,0,.471-.283L12.112,25a.643.643,0,1,0-1.07-.714l-.851,1.277-.089-.089a.643.643,0,0,0-.909.909Z" transform="translate(-3.218 -8.571)"/>
        <path id="Shape-16" data-name="Shape" d="M16.643,27.286H25A.643.643,0,1,0,25,26H16.643a.643.643,0,1,0,0,1.286Z" transform="translate(-5.713 -9.283)"/>
        <path id="Shape-17" data-name="Shape" d="M16.643,43.286H20.5A.643.643,0,1,0,20.5,42H16.643a.643.643,0,1,0,0,1.286Z" transform="translate(-5.713 -14.996)"/>
        <path id="Shape-18" data-name="Shape" d="M9.836,35.026a.643.643,0,0,0,.455.188.439.439,0,0,0,.064,0,.643.643,0,0,0,.471-.283L12.112,33a.643.643,0,0,0-1.07-.714l-.851,1.277-.089-.089a.643.643,0,0,0-.909.909Z" transform="translate(-3.218 -11.425)"/>
        <path id="Shape-19" data-name="Shape" d="M9.836,43.026a.643.643,0,0,0,.455.188.439.439,0,0,0,.064,0,.643.643,0,0,0,.471-.283L12.112,41a.643.643,0,0,0-1.07-.714l-.851,1.277-.089-.089a.643.643,0,0,0-.909.909Z" transform="translate(-3.218 -14.281)"/>
        <path id="Shape-20" data-name="Shape" d="M16.643,35.286h4.932a.643.643,0,1,0,0-1.286H16.643a.643.643,0,1,0,0,1.286Z" transform="translate(-5.713 -12.139)"/>
      </g>
    </g>
    <path id="Trazado_729161" data-name="Trazado 729161" d="M41.286,456.45H33.023v-2.915A1.535,1.535,0,0,1,34.559,452h5.192a1.535,1.535,0,0,1,1.535,1.535Zm0,0" transform="translate(633.776 4785.506)" fill="#a7c7d3"/>
    <path id="Trazado_729162" data-name="Trazado 729162" d="M138.759,415.3H130.5V408.57a1.535,1.535,0,0,1,1.535-1.535h5.192a1.535,1.535,0,0,1,1.535,1.535Zm0,0" transform="translate(544.566 4826.66)" fill="#89b4c9"/>
    <path id="Trazado_729163" data-name="Trazado 729163" d="M236.235,371.087h-8.263V360.266a1.535,1.535,0,0,1,1.535-1.535H234.7a1.536,1.536,0,0,1,1.535,1.535Zm0,0" transform="translate(455.353 4870.869)" fill="#6c96b3"/>
    <path id="Trazado_729164" data-name="Trazado 729164" d="M333.712,304.028h-8.263V287a1.535,1.535,0,0,1,1.535-1.535h5.192A1.535,1.535,0,0,1,333.712,287Zm0,0" transform="translate(366.139 4937.928)" fill="#618aaa"/>
    <path id="Trazado_729165" data-name="Trazado 729165" d="M351.906,24.1h8.311a.279.279,0,0,0,.184-.489l-2.159-1.9a.28.28,0,0,1,0-.419l2.159-1.9a.279.279,0,0,0-.184-.489h-8.311Zm0,0" transform="translate(341.925 5181.891)" fill="#fdb659"/>
    <path id="Trazado_729166" data-name="Trazado 729166" d="M229.109,108.93l-9,4.889c-.8.436-1.023,1.2-1.3,2.191l-1.79,6.331,4.387-1.8,1.7-5.148,4.531-2.753A3.316,3.316,0,0,0,229.109,108.93Zm0,0" transform="translate(465.384 5099.494)" fill="#83d9ff"/>
    <path id="Trazado_729167" data-name="Trazado 729167" d="M229.109,108.93l-1.039.564a3.315,3.315,0,0,1-1.532,2.2L222.41,114.2a1.281,1.281,0,0,0-.551.692l-.589,1.782a6.682,6.682,0,0,1-3.81,4.084l-.448,1.583,4.388-1.8,1.7-5.147,4.531-2.753a3.316,3.316,0,0,0,1.476-3.713Zm0,0" transform="translate(465.384 5099.495)" fill="#5fc9ed"/>
    <path id="Trazado_729168" data-name="Trazado 729168" d="M221.4,245.926l2.593,3.064c.429.569.8.969.726,1.595l-.607,4.9H222.53l-.414-4.214a.7.7,0,0,0-.422-.577l-4.682-2.971Zm0,0" transform="translate(465.384 4974.111)" fill="#38627c"/>
    <path id="Trazado_729169" data-name="Trazado 729169" d="M180.825,247.724l-.253,4.645a2.041,2.041,0,0,1-.113.932l-2.986,6.282h1.679l4.489-5.963a2.427,2.427,0,0,0,.381-1.1l1.19-6.592Zm0,0" transform="translate(501.571 4974.111)" fill="#4f7693"/>
    <path id="Trazado_729170" data-name="Trazado 729170" d="M230.783,112.681l.736,1.437a1.374,1.374,0,0,1-.6,1.85l-.569.291a1.374,1.374,0,0,1-1.849-.6l-.736-1.437a1.374,1.374,0,0,1,.6-1.85l.569-.291A1.374,1.374,0,0,1,230.783,112.681Zm0,0" transform="translate(455.678 5096.746)" fill="#fecbaa"/>
    <path id="Trazado_729171" data-name="Trazado 729171" d="M38.747,5.835,36.892,4.2l1.855-1.633a.916.916,0,0,0-.6-1.6H30.467V.636a.636.636,0,1,0-1.272,0V9.215l-5.224,2.837a2.013,2.013,0,0,0-.207-.668l-.736-1.437a2.012,2.012,0,0,0-2.705-.873l-.569.291a2.01,2.01,0,0,0-.873,2.706l.736,1.437a2,2,0,0,0,.725.787,5.572,5.572,0,0,0-.767,1.845l-.137.485a.636.636,0,0,0,.439.785.626.626,0,0,0,.173.024.637.637,0,0,0,.612-.463l.137-.484c.279-.983.45-1.51,1-1.806l.977-.531.121-.062c.04-.021.077-.044.116-.067l6.964-3.782A2.692,2.692,0,0,1,28.687,12.4l-4.529,2.752-.016.009-1.41.856a.636.636,0,0,0,.608,1.116l-1.07,3.233-.782.321-2.126.871.613-2.166a.636.636,0,0,0-1.225-.346l-.968,3.423a.61.61,0,0,0-.023.138l-.253,4.653a2.129,2.129,0,0,1-.052.686l-2.813,5.919H12.6a2.174,2.174,0,0,0-2.172,2.172v1.836a2.155,2.155,0,0,0-.9-.2H4.335a2.174,2.174,0,0,0-2.172,2.172V42.13H.636a.636.636,0,1,0,0,1.272H38.141a.636.636,0,0,0,0-1.272H36.487v-16.4a2.174,2.174,0,0,0-2.172-2.172H30.467v-11.1a3.967,3.967,0,0,0,.639-3.4.636.636,0,0,0-.639-.467V7.437h7.675a.916.916,0,0,0,.605-1.6Zm-18.78,5.093a.733.733,0,0,1,.366-.43l.569-.291a.738.738,0,0,1,.993.32l.736,1.437a.739.739,0,0,1-.245.948l-.207.112-.437.224a.739.739,0,0,1-.993-.321l-.736-1.437a.733.733,0,0,1-.045-.563ZM18.689,34.064a2.159,2.159,0,0,0-.7-.186l.7-.928Zm3.02-5.126a2.4,2.4,0,0,0,.459-1.14c.017-.082.331-1.8.331-1.8s.3.185.328.2a.068.068,0,0,1,.039.056l.346,3.518H21.081Zm3.762-3.511-.537,4.343h-.443l-.358-3.639a1.34,1.34,0,0,0-.749-1.076l-.64-.406.426-2.362s1.8,2.133,1.837,2.187c.372.483.5.677.464.952ZM18.6,28.506a3.449,3.449,0,0,0,.178-1.181l.231-4.244,2.942-1.206-.535,2.962c0,.008,0,.016,0,.024l-.442,2.449a2.423,2.423,0,0,1-.266.847l-4.3,5.709h-.354ZM3.435,39.851a.9.9,0,0,1,.9-.9H9.527a.9.9,0,0,1,.9.9V42.13H3.435Zm8.263,0V36.04a.9.9,0,0,1,.9-.9H17.79a.9.9,0,0,1,.9.9v6.09H11.7V39.851ZM35.215,25.734v16.4H28.224V38.316a.636.636,0,0,0-1.273,0V42.13H19.961V31.945a.9.9,0,0,1,.9-.9h5.192a.9.9,0,0,1,.9.9v3.189a.636.636,0,1,0,1.272,0v-9.4a.9.9,0,0,1,.9-.9h5.191a.9.9,0,0,1,.9.9Zm-6.091-2.172a2.174,2.174,0,0,0-2.172,2.172v4.235a2.153,2.153,0,0,0-.737-.189l.519-4.2a2.457,2.457,0,0,0-.719-1.884c-.043-.056-2.515-2.991-2.515-2.991l1.517-4.586,4.178-2.538v9.979Zm1.343-17.4V2.238H37.2L35.747,3.515a.915.915,0,0,0,0,1.374L37.2,6.165h-6.73Zm0,0" transform="translate(664 5199.19)"/>
    <g id="Trazado_729172" data-name="Trazado 729172" transform="translate(425 5104)" fill="#feb12e">
      <path d="M 25 46.5 C 22.09597969055176 46.5 19.28067970275879 45.93202972412109 16.63229942321777 44.81185913085938 C 14.07252025604248 43.72916030883789 11.77285957336426 42.17845153808594 9.797200202941895 40.20280075073242 C 7.821549892425537 38.22713851928711 6.270840167999268 35.9274787902832 5.188139915466309 33.36769866943359 C 4.067969799041748 30.71932029724121 3.5 27.90402030944824 3.5 25 C 3.5 22.09597969055176 4.067969799041748 19.28067970275879 5.188139915466309 16.63229942321777 C 6.270840167999268 14.07252025604248 7.821549892425537 11.77285957336426 9.797200202941895 9.797200202941895 C 11.77285957336426 7.821549892425537 14.07252025604248 6.270840167999268 16.63229942321777 5.188139915466309 C 19.28067970275879 4.067969799041748 22.09597969055176 3.5 25 3.5 C 27.90402030944824 3.5 30.71932029724121 4.067969799041748 33.36769866943359 5.188139915466309 C 35.9274787902832 6.270840167999268 38.22713851928711 7.821549892425537 40.20280075073242 9.797200202941895 C 42.17845153808594 11.77285957336426 43.72916030883789 14.07252025604248 44.81185913085938 16.63229942321777 C 45.93202972412109 19.28067970275879 46.5 22.09597969055176 46.5 25 C 46.5 27.90402030944824 45.93202972412109 30.71932029724121 44.81185913085938 33.36769866943359 C 43.72916030883789 35.9274787902832 42.17845153808594 38.22713851928711 40.20280075073242 40.20280075073242 C 38.22713851928711 42.17845153808594 35.9274787902832 43.72916030883789 33.36769866943359 44.81185913085938 C 30.71932029724121 45.93202972412109 27.90402030944824 46.5 25 46.5 Z" stroke="none"/>
      <path d="M 25 7 C 15.07476043701172 7 7 15.07476043701172 7 25 C 7 34.92523956298828 15.07476043701172 43 25 43 C 34.92523956298828 43 43 34.92523956298828 43 25 C 43 15.07476043701172 34.92523956298828 7 25 7 M 25 0 C 38.80712127685547 0 50 11.19287872314453 50 25 C 50 38.80712127685547 38.80712127685547 50 25 50 C 11.19287872314453 50 0 38.80712127685547 0 25 C 0 11.19287872314453 11.19287872314453 0 25 0 Z" stroke="none" fill="#ffe88a"/>
    </g>
    <g id="Trazado_729173" data-name="Trazado 729173" transform="translate(655 5328)" fill="#34bc85">
      <path d="M 25 46.5 C 22.09597969055176 46.5 19.28067970275879 45.93202972412109 16.63229942321777 44.81185913085938 C 14.07252025604248 43.72916030883789 11.77285957336426 42.17845153808594 9.797200202941895 40.20280075073242 C 7.821549892425537 38.22713851928711 6.270840167999268 35.9274787902832 5.188139915466309 33.36769866943359 C 4.067969799041748 30.71932029724121 3.5 27.90402030944824 3.5 25 C 3.5 22.09597969055176 4.067969799041748 19.28067970275879 5.188139915466309 16.63229942321777 C 6.270840167999268 14.07252025604248 7.821549892425537 11.77285957336426 9.797200202941895 9.797200202941895 C 11.77285957336426 7.821549892425537 14.07252025604248 6.270840167999268 16.63229942321777 5.188139915466309 C 19.28067970275879 4.067969799041748 22.09597969055176 3.5 25 3.5 C 27.90402030944824 3.5 30.71932029724121 4.067969799041748 33.36769866943359 5.188139915466309 C 35.9274787902832 6.270840167999268 38.22713851928711 7.821549892425537 40.20280075073242 9.797200202941895 C 42.17845153808594 11.77285957336426 43.72916030883789 14.07252025604248 44.81185913085938 16.63229942321777 C 45.93202972412109 19.28067970275879 46.5 22.09597969055176 46.5 25 C 46.5 27.90402030944824 45.93202972412109 30.71932029724121 44.81185913085938 33.36769866943359 C 43.72916030883789 35.9274787902832 42.17845153808594 38.22713851928711 40.20280075073242 40.20280075073242 C 38.22713851928711 42.17845153808594 35.9274787902832 43.72916030883789 33.36769866943359 44.81185913085938 C 30.71932029724121 45.93202972412109 27.90402030944824 46.5 25 46.5 Z" stroke="none"/>
      <path d="M 25 7 C 15.07476043701172 7 7 15.07476043701172 7 25 C 7 34.92523956298828 15.07476043701172 43 25 43 C 34.92523956298828 43 43 34.92523956298828 43 25 C 43 15.07476043701172 34.92523956298828 7 25 7 M 25 0 C 38.80712127685547 0 50 11.19287872314453 50 25 C 50 38.80712127685547 38.80712127685547 50 25 50 C 11.19287872314453 50 0 38.80712127685547 0 25 C 0 11.19287872314453 11.19287872314453 0 25 0 Z" stroke="none" fill="#c1d28e"/>
    </g>
    <g id="Trazado_729174" data-name="Trazado 729174" transform="translate(891 5104)" fill="#0e494d">
      <path d="M 25 46.5 C 22.09597969055176 46.5 19.28067970275879 45.93202972412109 16.63229942321777 44.81185913085938 C 14.07252025604248 43.72916030883789 11.77285957336426 42.17845153808594 9.797200202941895 40.20280075073242 C 7.821549892425537 38.22713851928711 6.270840167999268 35.9274787902832 5.188139915466309 33.36769866943359 C 4.067969799041748 30.71932029724121 3.5 27.90402030944824 3.5 25 C 3.5 22.09597969055176 4.067969799041748 19.28067970275879 5.188139915466309 16.63229942321777 C 6.270840167999268 14.07252025604248 7.821549892425537 11.77285957336426 9.797200202941895 9.797200202941895 C 11.77285957336426 7.821549892425537 14.07252025604248 6.270840167999268 16.63229942321777 5.188139915466309 C 19.28067970275879 4.067969799041748 22.09597969055176 3.5 25 3.5 C 27.90402030944824 3.5 30.71932029724121 4.067969799041748 33.36769866943359 5.188139915466309 C 35.9274787902832 6.270840167999268 38.22713851928711 7.821549892425537 40.20280075073242 9.797200202941895 C 42.17845153808594 11.77285957336426 43.72916030883789 14.07252025604248 44.81185913085938 16.63229942321777 C 45.93202972412109 19.28067970275879 46.5 22.09597969055176 46.5 25 C 46.5 27.90402030944824 45.93202972412109 30.71932029724121 44.81185913085938 33.36769866943359 C 43.72916030883789 35.9274787902832 42.17845153808594 38.22713851928711 40.20280075073242 40.20280075073242 C 38.22713851928711 42.17845153808594 35.9274787902832 43.72916030883789 33.36769866943359 44.81185913085938 C 30.71932029724121 45.93202972412109 27.90402030944824 46.5 25 46.5 Z" stroke="none"/>
      <path d="M 25 7 C 15.07476043701172 7 7 15.07476043701172 7 25 C 7 34.92523956298828 15.07476043701172 43 25 43 C 34.92523956298828 43 43 34.92523956298828 43 25 C 43 15.07476043701172 34.92523956298828 7 25 7 M 25 0 C 38.80712127685547 0 50 11.19287872314453 50 25 C 50 38.80712127685547 38.80712127685547 50 25 50 C 11.19287872314453 50 0 38.80712127685547 0 25 C 0 11.19287872314453 11.19287872314453 0 25 0 Z" stroke="none" fill="#d9e2f4"/>
    </g>
    <g id="Trazado_729175" data-name="Trazado 729175" transform="translate(1117 5328)" fill="#badc61">
      <path d="M 25 46.5 C 22.09597969055176 46.5 19.28067970275879 45.93202972412109 16.63229942321777 44.81185913085938 C 14.07252025604248 43.72916030883789 11.77285957336426 42.17845153808594 9.797200202941895 40.20280075073242 C 7.821549892425537 38.22713851928711 6.270840167999268 35.9274787902832 5.188139915466309 33.36769866943359 C 4.067969799041748 30.71932029724121 3.5 27.90402030944824 3.5 25 C 3.5 22.09597969055176 4.067969799041748 19.28067970275879 5.188139915466309 16.63229942321777 C 6.270840167999268 14.07252025604248 7.821549892425537 11.77285957336426 9.797200202941895 9.797200202941895 C 11.77285957336426 7.821549892425537 14.07252025604248 6.270840167999268 16.63229942321777 5.188139915466309 C 19.28067970275879 4.067969799041748 22.09597969055176 3.5 25 3.5 C 27.90402030944824 3.5 30.71932029724121 4.067969799041748 33.36769866943359 5.188139915466309 C 35.9274787902832 6.270840167999268 38.22713851928711 7.821549892425537 40.20280075073242 9.797200202941895 C 42.17845153808594 11.77285957336426 43.72916030883789 14.07252025604248 44.81185913085938 16.63229942321777 C 45.93202972412109 19.28067970275879 46.5 22.09597969055176 46.5 25 C 46.5 27.90402030944824 45.93202972412109 30.71932029724121 44.81185913085938 33.36769866943359 C 43.72916030883789 35.9274787902832 42.17845153808594 38.22713851928711 40.20280075073242 40.20280075073242 C 38.22713851928711 42.17845153808594 35.9274787902832 43.72916030883789 33.36769866943359 44.81185913085938 C 30.71932029724121 45.93202972412109 27.90402030944824 46.5 25 46.5 Z" stroke="none"/>
      <path d="M 25 7 C 15.07476043701172 7 7 15.07476043701172 7 25 C 7 34.92523956298828 15.07476043701172 43 25 43 C 34.92523956298828 43 43 34.92523956298828 43 25 C 43 15.07476043701172 34.92523956298828 7 25 7 M 25 0 C 38.80712127685547 0 50 11.19287872314453 50 25 C 50 38.80712127685547 38.80712127685547 50 25 50 C 11.19287872314453 50 0 38.80712127685547 0 25 C 0 11.19287872314453 11.19287872314453 0 25 0 Z" stroke="none" fill="#ecf7f4"/>
    </g>
  </g>
</svg>
