<svg xmlns="http://www.w3.org/2000/svg" width="105" height="105" viewBox="0 0 105 105">
  <g id="Grupo_965419" data-name="Grupo 965419" transform="translate(-590 -2704)">
    <circle id="Elipse_5791" data-name="Elipse 5791" cx="52.5" cy="52.5" r="52.5" transform="translate(590 2704)" fill="#feb12e"/>
    <g id="Layer_17" transform="translate(606 2720)">
      <g id="Grupo_964595" data-name="Grupo 964595">
        <g id="Grupo_964538" data-name="Grupo 964538" transform="translate(27.163 35.136)">
          <path id="Trazado_728023" data-name="Trazado 728023" d="M112.956,125.285a1.627,1.627,0,0,0-2.186-.145,8.917,8.917,0,0,1-10.849-.006,1.626,1.626,0,0,0-2.183.148l0,0a4.59,4.59,0,0,0-1.269,3.168V135.9a8.879,8.879,0,1,0,17.758,0v-7.452A4.588,4.588,0,0,0,112.956,125.285Z" transform="translate(-96.466 -124.782)" fill="#f9d0b4"/>
        </g>
        <g id="Grupo_964539" data-name="Grupo 964539" transform="translate(44.899 39.492)">
          <path id="Trazado_728024" data-name="Trazado 728024" d="M160.046,140.25a3.72,3.72,0,0,0-.57.045v6.722c0,.2-.009.4-.022.6a3.705,3.705,0,1,0,.592-7.362Z" transform="translate(-159.454 -140.25)" fill="#f9d0b4"/>
        </g>
        <g id="Grupo_964540" data-name="Grupo 964540" transform="translate(22.887 39.492)">
          <path id="Trazado_728025" data-name="Trazado 728025" d="M85.556,147.017V140.3a3.709,3.709,0,1,0,.023,7.317h0c-.013-.2-.023-.395-.023-.595Z" transform="translate(-81.279 -140.25)" fill="#f9d0b4"/>
        </g>
        <g id="Grupo_964541" data-name="Grupo 964541" transform="translate(24.727 26.142)">
          <path id="Trazado_728026" data-name="Trazado 728026" d="M107.977,98.617a.549.549,0,0,1-.559-.527c-.068-4.948-5.718-5.877-11.345-4.906a9.948,9.948,0,0,0-8.257,9.8V106.7a3.684,3.684,0,0,1,1.866-.508,3.723,3.723,0,0,1,.57.045v-.73a4.59,4.59,0,0,1,1.269-3.168l0,0a1.626,1.626,0,0,1,2.183-.148,8.917,8.917,0,0,0,10.849.006,1.627,1.627,0,0,1,2.186.145,4.59,4.59,0,0,1,1.269,3.168v.73a3.727,3.727,0,0,1,.57-.045,3.685,3.685,0,0,1,1.886.52v-3.048c0-4.43-1.6-5.045-2.489-5.045Z" transform="translate(-87.816 -92.842)" fill="#5b5d60"/>
        </g>
        <g id="Grupo_964542" data-name="Grupo 964542" transform="translate(31.42 54.13)">
          <path id="Trazado_728027" data-name="Trazado 728027" d="M114.906,198.9a.557.557,0,0,1,.161.367h2.279a.554.554,0,0,1,.161-.367l3.322-3.322a2.987,2.987,0,0,1-.5-1.372c-.021-.2-.031-.381-.031-.529v-1.445a8.808,8.808,0,0,1-8.181,0v1.445c0,.148-.011.329-.031.529a2.988,2.988,0,0,1-.5,1.371Z" transform="translate(-111.584 -192.236)" fill="#f9d0b4"/>
        </g>
        <g id="Grupo_964544" data-name="Grupo 964544" transform="translate(18.025 59.087)">
          <g id="Grupo_964543" data-name="Grupo 964543">
            <path id="Trazado_728028" data-name="Trazado 728028" d="M98.594,222.135a1.455,1.455,0,0,0,1.452-1.541l-.255-4.28a4.6,4.6,0,0,0-2.917-4.024l-7.333-2.448a.955.955,0,0,1-.269.711l-3.428,3.511a.56.56,0,0,1-.792,0l-.49-.49-1.241,2.166H80.742L79.5,213.574l-.49.49a.56.56,0,0,1-.792,0l-3.428-3.511a.954.954,0,0,1-.269-.711l-7.333,2.448a4.6,4.6,0,0,0-2.917,4.024l-.255,4.28a1.455,1.455,0,0,0,1.452,1.541Z" transform="translate(-64.015 -209.842)" fill="#dae6f1"/>
          </g>
        </g>
        <g id="Grupo_964545" data-name="Grupo 964545" transform="translate(37.179 56.87)">
          <path id="Trazado_728029" data-name="Trazado 728029" d="M136.756,202.131a.56.56,0,0,0-.792,0l-3.763,3.763a.56.56,0,0,0,0,.792l1.72,1.72a.56.56,0,0,0,.792,0l3.428-3.511a.96.96,0,0,0,0-1.341Z" transform="translate(-132.036 -201.967)" fill="#edf4fc"/>
        </g>
        <g id="Grupo_964546" data-name="Grupo 964546" transform="translate(28.528 56.87)">
          <path id="Trazado_728030" data-name="Trazado 728030" d="M102.973,202.131a.56.56,0,0,1,.792,0l3.763,3.763a.56.56,0,0,1,0,.792l-1.72,1.72a.56.56,0,0,1-.792,0l-3.428-3.511a.96.96,0,0,1,0-1.341Z" transform="translate(-101.315 -201.967)" fill="#edf4fc"/>
        </g>
        <g id="Grupo_964548" data-name="Grupo 964548" transform="translate(34.071 64.985)">
          <g id="Grupo_964547" data-name="Grupo 964547">
            <path id="Trazado_728031" data-name="Trazado 728031" d="M124.942,237.183l-.681-6.4h-2.579l-.681,6.4Z" transform="translate(-121 -230.788)" fill="#fc657e"/>
          </g>
        </g>
        <g id="Grupo_964549" data-name="Grupo 964549" transform="translate(33.511 61.165)">
          <path id="Trazado_728032" data-name="Trazado 728032" d="M122.843,217.645a.557.557,0,0,1-.161-.425H120.4a.556.556,0,0,1-.161.425l-1.23,1.23,1.241,2.166h2.579l1.241-2.166Z" transform="translate(-119.011 -217.22)" fill="#fc657e"/>
        </g>
        <g id="Grupo_964550" data-name="Grupo 964550" transform="translate(4.598 18.644)">
          <path id="Trazado_728033" data-name="Trazado 728033" d="M19.678,66.213h9.791a3.358,3.358,0,0,1,3.348,3.348v6.805a3.358,3.358,0,0,1-3.348,3.348H25.223a.733.733,0,0,0-.733.733v1.939a.535.535,0,0,1-.914.378l-2.845-2.846a.7.7,0,0,0-.492-.2h-.559a3.358,3.358,0,0,1-3.348-3.348V69.561A3.358,3.358,0,0,1,19.678,66.213Z" transform="translate(-16.33 -66.213)" fill="#70d6f9"/>
        </g>
        <g id="Grupo_964551" data-name="Grupo 964551" transform="translate(0.704 15.009)">
          <path id="Trazado_728034" data-name="Trazado 728034" d="M6.394,60.287a3.358,3.358,0,0,1,3.348-3.348h9.244v-.287A3.358,3.358,0,0,0,15.638,53.3H5.848A3.358,3.358,0,0,0,2.5,56.652v6.805A3.358,3.358,0,0,0,5.848,66.8h.547V60.287Z" transform="translate(-2.5 -53.304)" fill="#f5c84c"/>
        </g>
        <g id="Grupo_964552" data-name="Grupo 964552" transform="translate(25.848 7.553)">
          <circle id="Elipse_5796" data-name="Elipse 5796" cx="2.843" cy="2.843" r="2.843" fill="#f5c84c"/>
        </g>
        <g id="Grupo_964553" data-name="Grupo 964553" transform="translate(36.186 0.704)">
          <circle id="Elipse_5797" data-name="Elipse 5797" cx="2.843" cy="2.843" r="2.843" fill="#70d6f9"/>
        </g>
        <g id="Grupo_964554" data-name="Grupo 964554" transform="translate(36.186 14.403)">
          <circle id="Elipse_5798" data-name="Elipse 5798" cx="2.843" cy="2.843" r="2.843" fill="#fc657e"/>
        </g>
        <g id="Grupo_964555" data-name="Grupo 964555" transform="translate(46.147 17.87)">
          <path id="Trazado_728035" data-name="Trazado 728035" d="M169.048,63.607l1.934,1.2a.944.944,0,0,1,.3,1.3l-3.717,5.976a.944.944,0,0,1-1.3.3l-1.934-1.2a.944.944,0,0,1-.3-1.3l3.717-5.976A.944.944,0,0,1,169.048,63.607Z" transform="translate(-163.888 -63.464)" fill="#fc657e"/>
        </g>
        <g id="Grupo_964556" data-name="Grupo 964556" transform="translate(63.841 17.87)">
          <path id="Trazado_728036" data-name="Trazado 728036" d="M229.1,63.607l-1.934,1.2a.944.944,0,0,0-.3,1.3l3.717,5.976a.944.944,0,0,0,1.3.3l1.934-1.2a.944.944,0,0,0,.3-1.3L230.4,63.91A.944.944,0,0,0,229.1,63.607Z" transform="translate(-226.723 -63.464)" fill="#70d6f9"/>
        </g>
        <g id="Grupo_964557" data-name="Grupo 964557" transform="translate(57.107 19.87)">
          <path id="Trazado_728037" data-name="Trazado 728037" d="M209.718,71.266l-.677.421a1.74,1.74,0,0,1-1.639.107l-2.373-1.078a1.584,1.584,0,0,0-1.79.3,1.53,1.53,0,0,0,.3,2.368l.7.431a.5.5,0,0,1,.228.532.491.491,0,0,0,.223.325l2.36,1.468a2.344,2.344,0,0,1,.752,3.228l-1.61,2.588a2.338,2.338,0,0,1-1.726,1.089,2.333,2.333,0,0,0,1.5-.337l4.288-2.667a3.952,3.952,0,0,0,1.39-1.478,3.953,3.953,0,0,1,1.39-1.478l.22-.137Z" transform="translate(-202.808 -70.566)" fill="#f9d0b4"/>
        </g>
        <g id="Grupo_964558" data-name="Grupo 964558" transform="translate(49.975 20.32)">
          <path id="Trazado_728038" data-name="Trazado 728038" d="M188.854,77.29l-2.36-1.468a.511.511,0,0,1-.226-.522.488.488,0,0,0-.225-.334l-.7-.431a1.53,1.53,0,0,1-.3-2.368l0,0-1.713.778a1.741,1.741,0,0,1-1.639-.107l-.677-.421L177.481,78.1l.22.137a3.953,3.953,0,0,1,1.39,1.478,3.952,3.952,0,0,0,1.39,1.478l4.288,2.667A2.349,2.349,0,0,0,188,83.107l1.61-2.588A2.344,2.344,0,0,0,188.854,77.29Z" transform="translate(-177.481 -72.166)" fill="#f9d0b4"/>
        </g>
        <g id="Grupo_964559" data-name="Grupo 964559" transform="translate(56.101 40.273)">
          <path id="Trazado_728039" data-name="Trazado 728039" d="M202.835,144.764a2.195,2.195,0,0,1-1.746-1.718c0-.028-.084-.028-.084,0a2.2,2.2,0,0,1-1.746,1.718c-.028,0-.028.056,0,.084A2.2,2.2,0,0,1,201,146.566c0,.028.084.028.084,0a2.2,2.2,0,0,1,1.746-1.718C202.863,144.82,202.863,144.764,202.835,144.764Z" transform="translate(-199.238 -143.025)" fill="#fc657e"/>
        </g>
        <g id="Grupo_964560" data-name="Grupo 964560" transform="translate(13.205 51.416)">
          <path id="Trazado_728040" data-name="Trazado 728040" d="M47.8,185.951h.648v.648a.89.89,0,0,0,.9.9.9.9,0,0,0,.9-.873v-.676h.648a.89.89,0,0,0,.9-.9.9.9,0,0,0-.873-.9h-.676V183.5a.89.89,0,0,0-.9-.9.9.9,0,0,0-.9.873v.676H47.8a.89.89,0,0,0-.9.9.872.872,0,0,0,.9.9Z" transform="translate(-46.895 -182.6)" fill="#87d147"/>
        </g>
        <g id="Grupo_964561" data-name="Grupo 964561" transform="translate(10.447 42.941)">
          <circle id="Elipse_5799" data-name="Elipse 5799" cx="0.957" cy="0.957" r="0.957" fill="#f5c84c"/>
        </g>
        <g id="Grupo_964562" data-name="Grupo 964562" transform="translate(58.034 10.137)">
          <circle id="Elipse_5800" data-name="Elipse 5800" cx="0.957" cy="0.957" r="0.957" fill="#70d6f9"/>
        </g>
        <g id="Grupo_964563" data-name="Grupo 964563" transform="translate(49.488 0)">
          <path id="Trazado_728041" data-name="Trazado 728041" d="M175.792,2.492A3.125,3.125,0,0,0,178.3.042c0-.056.113-.056.113,0a3.125,3.125,0,0,0,2.506,2.45c.056,0,.056.084,0,.113a3.125,3.125,0,0,0-2.506,2.45c0,.056-.113.056-.113,0a3.125,3.125,0,0,0-2.506-2.45c-.056-.028-.056-.113,0-.113Z" transform="translate(-175.75 0)" fill="#f5c84c"/>
        </g>
        <g id="Grupo_964564" data-name="Grupo 964564" transform="translate(26.459 34.43)">
          <path id="Trazado_728042" data-name="Trazado 728042" d="M103.55,143.686a9.594,9.594,0,0,1-9.583-9.583v-7.452A5.273,5.273,0,0,1,95.43,123a2.325,2.325,0,0,1,3.129-.22,8.214,8.214,0,0,0,9.981.007,2.325,2.325,0,0,1,3.13.213,5.273,5.273,0,0,1,1.463,3.654V134.1a9.593,9.593,0,0,1-9.583,9.583Zm-6.439-20a.908.908,0,0,0-.659.282,3.874,3.874,0,0,0-1.077,2.686V134.1a8.175,8.175,0,0,0,16.35,0v-7.452a3.869,3.869,0,0,0-1.074-2.682.922.922,0,0,0-1.242-.077,9.621,9.621,0,0,1-11.718-.005.941.941,0,0,0-.581-.2Z" transform="translate(-93.967 -122.275)"/>
        </g>
        <g id="Grupo_964565" data-name="Grupo 964565" transform="translate(44.195 38.788)">
          <path id="Trazado_728043" data-name="Trazado 728043" d="M158.25,146.572a4.406,4.406,0,0,1-.7-.061.7.7,0,0,1-.591-.742c.014-.212.021-.387.021-.549V138.5a.7.7,0,0,1,.6-.7,4.477,4.477,0,0,1,.677-.053,4.411,4.411,0,0,1,0,8.822Zm.134-7.411v6a3,3,0,0,0,0-6Z" transform="translate(-156.953 -137.75)"/>
        </g>
        <g id="Grupo_964566" data-name="Grupo 964566" transform="translate(22.182 38.788)">
          <path id="Trazado_728044" data-name="Trazado 728044" d="M83.189,146.572a4.411,4.411,0,1,1,0-8.822,4.473,4.473,0,0,1,.677.053.7.7,0,0,1,.6.7v6.722c0,.163.006.337.021.548a.7.7,0,0,1-.59.742A4.37,4.37,0,0,1,83.189,146.572Zm-.134-7.411a3,3,0,0,0,0,6Z" transform="translate(-78.778 -137.75)"/>
        </g>
        <g id="Grupo_964567" data-name="Grupo 964567" transform="translate(33.062 47.899)">
          <path id="Trazado_728045" data-name="Trazado 728045" d="M120.524,172.548a3.85,3.85,0,0,1-2.945-1.283.7.7,0,1,1,1.079-.9,2.624,2.624,0,0,0,3.732,0,.7.7,0,1,1,1.079.9A3.849,3.849,0,0,1,120.524,172.548Z" transform="translate(-117.415 -170.11)"/>
        </g>
        <g id="Grupo_964568" data-name="Grupo 964568" transform="translate(24.023 25.435)">
          <path id="Trazado_728046" data-name="Trazado 728046" d="M108.669,105.611a.7.7,0,0,1-.359-.1,3,3,0,0,0-1.527-.421,3.032,3.032,0,0,0-.462.037.7.7,0,0,1-.812-.7v-.73a3.869,3.869,0,0,0-1.074-2.682.922.922,0,0,0-1.242-.077,9.622,9.622,0,0,1-11.718-.005.921.921,0,0,0-1.24.08,3.874,3.874,0,0,0-1.077,2.686v.73a.7.7,0,0,1-.812.7,3.034,3.034,0,0,0-.462-.037,3,3,0,0,0-1.511.411.7.7,0,0,1-1.059-.608v-3.712a10.629,10.629,0,0,1,8.841-10.5c2.642-.456,7.491-.875,10.285,1.445a5.193,5.193,0,0,1,1.88,3.98c1.2.06,3.052.935,3.052,5.746v3.048a.7.7,0,0,1-.7.7Zm-1.751-1.925a4.392,4.392,0,0,1,1.048.161v-1.987c0-2.759-.65-4.341-1.785-4.341a1.256,1.256,0,0,1-1.263-1.221,3.829,3.829,0,0,0-1.375-3.08c-1.724-1.431-5.057-1.847-9.146-1.141a9.225,9.225,0,0,0-7.673,9.108v2.658a4.386,4.386,0,0,1,1.028-.155,5.272,5.272,0,0,1,1.463-3.637,2.325,2.325,0,0,1,3.129-.22,8.214,8.214,0,0,0,9.981.007,2.325,2.325,0,0,1,3.13.213A5.272,5.272,0,0,1,106.917,103.685Zm-.592-7.408h0Z" transform="translate(-85.315 -90.331)"/>
        </g>
        <g id="Grupo_964569" data-name="Grupo 964569" transform="translate(47.02 66.101)">
          <path id="Trazado_728047" data-name="Trazado 728047" d="M167.692,240.513a.7.7,0,0,1-.7-.7v-4.356a.7.7,0,1,1,1.408,0v4.356A.7.7,0,0,1,167.692,240.513Z" transform="translate(-166.988 -234.749)"/>
        </g>
        <g id="Grupo_964570" data-name="Grupo 964570" transform="translate(23.656 66.101)">
          <path id="Trazado_728048" data-name="Trazado 728048" d="M84.716,240.513a.7.7,0,0,1-.7-.7v-4.356a.7.7,0,1,1,1.408,0v4.356A.7.7,0,0,1,84.716,240.513Z" transform="translate(-84.012 -234.749)"/>
        </g>
        <g id="Grupo_964571" data-name="Grupo 964571" transform="translate(38.984 42.415)">
          <circle id="Elipse_5801" data-name="Elipse 5801" cx="1.193" cy="1.193" r="1.193"/>
        </g>
        <g id="Grupo_964572" data-name="Grupo 964572" transform="translate(30.973 42.415)">
          <circle id="Elipse_5802" data-name="Elipse 5802" cx="1.193" cy="1.193" r="1.193"/>
        </g>
        <g id="Grupo_964573" data-name="Grupo 964573" transform="translate(30.715 53.426)">
          <path id="Trazado_728049" data-name="Trazado 728049" d="M115.548,198.179h-2.279a.7.7,0,0,1-.7-.612l-3.283-3.283a.7.7,0,0,1-.085-.893,2.3,2.3,0,0,0,.383-1.049c.018-.174.028-.331.028-.456v-1.445a.7.7,0,0,1,1.031-.624,8.1,8.1,0,0,0,7.528,0,.7.7,0,0,1,1.031.624v1.445c0,.125.01.282.028.456a2.3,2.3,0,0,0,.383,1.049.7.7,0,0,1-.085.893l-3.283,3.283A.7.7,0,0,1,115.548,198.179Zm-2.938-.574h0Zm1.132-.834h1.334a1.232,1.232,0,0,1,.136-.161l2.945-2.945a3.7,3.7,0,0,1-.326-1.178c-.023-.221-.035-.429-.035-.6v-.358a9.617,9.617,0,0,1-6.773,0v.358c0,.172-.012.38-.035.6a3.7,3.7,0,0,1-.326,1.179l2.945,2.945a1.194,1.194,0,0,1,.137.161Z" transform="translate(-109.081 -189.737)"/>
        </g>
        <g id="Grupo_964574" data-name="Grupo 964574" transform="translate(7.936 22.016)">
          <path id="Trazado_728050" data-name="Trazado 728050" d="M37.42,79.6H28.888a.7.7,0,1,1,0-1.408H37.42a.7.7,0,0,1,0,1.408Z" transform="translate(-28.184 -78.189)"/>
        </g>
        <g id="Grupo_964575" data-name="Grupo 964575" transform="translate(7.936 24.82)">
          <path id="Trazado_728051" data-name="Trazado 728051" d="M37.42,89.555H28.888a.7.7,0,1,1,0-1.408H37.42a.7.7,0,0,1,0,1.408Z" transform="translate(-28.184 -88.147)"/>
        </g>
        <g id="Grupo_964576" data-name="Grupo 964576" transform="translate(7.936 27.624)">
          <path id="Trazado_728052" data-name="Trazado 728052" d="M37.42,99.512H28.888a.7.7,0,1,1,0-1.408H37.42a.7.7,0,1,1,0,1.408Z" transform="translate(-28.184 -98.104)"/>
        </g>
        <g id="Grupo_964577" data-name="Grupo 964577" transform="translate(30.486 4.525)">
          <path id="Trazado_728053" data-name="Trazado 728053" d="M108.972,21.087a.7.7,0,0,1-.394-1.288l5.348-3.61a.7.7,0,0,1,.788,1.167l-5.348,3.61A.7.7,0,0,1,108.972,21.087Z" transform="translate(-108.267 -16.069)"/>
        </g>
        <g id="Grupo_964578" data-name="Grupo 964578" transform="translate(30.375 11.374)">
          <path id="Trazado_728054" data-name="Trazado 728054" d="M114.091,45.386a.7.7,0,0,1-.383-.114L108.2,41.689a.7.7,0,0,1,.767-1.18l5.513,3.583a.7.7,0,0,1-.384,1.294Z" transform="translate(-107.875 -40.395)"/>
        </g>
        <g id="Grupo_964580" data-name="Grupo 964580" transform="translate(17.321 58.383)">
          <g id="Grupo_964579" data-name="Grupo 964579">
            <path id="Trazado_728055" data-name="Trazado 728055" d="M96.8,221.043H63.672a2.159,2.159,0,0,1-2.155-2.287l.255-4.28a5.318,5.318,0,0,1,3.363-4.638l.034-.012,7.333-2.448a.7.7,0,0,1,.926.7.25.25,0,0,0,.07.189l3.322,3.4.387-.387a.7.7,0,0,1,1.108.148l1.038,1.812h1.764l1.038-1.812a.7.7,0,0,1,1.108-.148l.387.387,3.321-3.4a.251.251,0,0,0,.07-.19.7.7,0,0,1,.926-.7l7.333,2.448.034.012a5.319,5.319,0,0,1,3.363,4.64l.255,4.278a2.159,2.159,0,0,1-2.155,2.287Zm-31.165-9.887a3.907,3.907,0,0,0-2.455,3.4l-.255,4.282a.751.751,0,0,0,.75.8H96.8a.751.751,0,0,0,.75-.8l-.255-4.28a3.908,3.908,0,0,0-2.455-3.4l-6.624-2.211a1.628,1.628,0,0,1-.234.3l-3.428,3.511a1.265,1.265,0,0,1-1.623.149l-.793,1.385a.7.7,0,0,1-.611.354H78.945a.7.7,0,0,1-.611-.354l-.793-1.385a1.264,1.264,0,0,1-1.617-.143l-3.434-3.517a1.641,1.641,0,0,1-.234-.3Z" transform="translate(-61.514 -207.341)"/>
          </g>
        </g>
        <g id="Grupo_964581" data-name="Grupo 964581" transform="translate(36.475 56.167)">
          <path id="Trazado_728056" data-name="Trazado 728056" d="M132.52,207.481a1.256,1.256,0,0,1-.894-.37l-1.72-1.72a1.264,1.264,0,0,1,0-1.787l3.763-3.763a1.265,1.265,0,0,1,1.787,0l.007.007,1.386,1.424a1.655,1.655,0,0,1,0,2.323l-3.428,3.512A1.259,1.259,0,0,1,132.52,207.481ZM131,204.5l1.515,1.515,3.322-3.4a.254.254,0,0,0,0-.358l-1.279-1.314Z" transform="translate(-129.536 -199.47)"/>
        </g>
        <g id="Grupo_964582" data-name="Grupo 964582" transform="translate(27.821 56.167)">
          <path id="Trazado_728057" data-name="Trazado 728057" d="M103.607,207.481a1.256,1.256,0,0,1-.894-.37l-3.434-3.517a1.655,1.655,0,0,1,0-2.323l1.386-1.424.007-.007a1.265,1.265,0,0,1,1.787,0l3.763,3.763a1.264,1.264,0,0,1,0,1.788l-1.72,1.72a1.257,1.257,0,0,1-.894.37Zm.108-1.36h0Zm-2.15-5.183-1.279,1.314a.255.255,0,0,0,0,.358l3.322,3.4,1.515-1.515Z" transform="translate(-98.802 -199.47)"/>
        </g>
        <g id="Grupo_964584" data-name="Grupo 964584" transform="translate(33.367 64.281)">
          <g id="Grupo_964583" data-name="Grupo 964583">
            <path id="Trazado_728058" data-name="Trazado 728058" d="M123.146,236.091H119.2a.7.7,0,0,1-.7-.779l.681-6.395a.7.7,0,0,1,.7-.629h2.579a.7.7,0,0,1,.7.629l.681,6.395a.7.7,0,0,1-.7.779Zm-3.159-1.408h2.376l-.531-4.987h-1.314Z" transform="translate(-118.5 -228.288)"/>
          </g>
        </g>
        <g id="Grupo_964585" data-name="Grupo 964585" transform="translate(32.807 60.461)">
          <path id="Trazado_728059" data-name="Trazado 728059" d="M121.036,219.949h-2.579a.7.7,0,0,1-.611-.354l-1.241-2.166a.7.7,0,0,1,.113-.848L117.9,215.4a.7.7,0,0,1,.7-.675h2.279a.7.7,0,0,1,.7.675l1.186,1.186a.7.7,0,0,1,.113.848l-1.241,2.166A.7.7,0,0,1,121.036,219.949Zm-2.171-1.408h1.764l.771-1.345-.85-.85a1.252,1.252,0,0,1-.174-.218h-1.258a1.259,1.259,0,0,1-.175.219l-.849.849Z" transform="translate(-116.512 -214.721)"/>
        </g>
        <g id="Grupo_964586" data-name="Grupo 964586" transform="translate(3.894 17.94)">
          <path id="Trazado_728060" data-name="Trazado 728060" d="M22.156,81.828a1.234,1.234,0,0,1-.875-.364l-2.845-2.846-.554,0A4.056,4.056,0,0,1,13.83,74.57V67.765a4.056,4.056,0,0,1,4.052-4.052h9.791a4.056,4.056,0,0,1,4.051,4.052V74.57a4.056,4.056,0,0,1-4.051,4.051H23.427a.029.029,0,0,0-.029.029v1.939a1.241,1.241,0,0,1-1.241,1.239ZM17.882,65.121a2.647,2.647,0,0,0-2.644,2.644V74.57a2.647,2.647,0,0,0,2.644,2.643h.559a1.391,1.391,0,0,1,.99.41l2.558,2.558V78.65a1.439,1.439,0,0,1,1.437-1.436h4.245a2.646,2.646,0,0,0,2.643-2.643V67.765a2.647,2.647,0,0,0-2.643-2.644Z" transform="translate(-13.83 -63.713)"/>
        </g>
        <g id="Grupo_964587" data-name="Grupo 964587" transform="translate(0 14.306)">
          <path id="Trazado_728061" data-name="Trazado 728061" d="M4.6,65.713H4.052A4.056,4.056,0,0,1,0,61.662V54.856a4.056,4.056,0,0,1,4.052-4.051h9.791a4.056,4.056,0,0,1,4.052,4.051v.287a.7.7,0,0,1-.7.7H7.946A2.647,2.647,0,0,0,5.3,58.491v6.518a.7.7,0,0,1-.7.7Zm-.547-13.5a2.647,2.647,0,0,0-2.644,2.643v6.805A2.647,2.647,0,0,0,3.894,64.3V58.491A4.056,4.056,0,0,1,7.946,54.44h8.507a2.647,2.647,0,0,0-2.611-2.227Z" transform="translate(0 -50.805)"/>
        </g>
        <g id="Grupo_964588" data-name="Grupo 964588" transform="translate(25.144 6.849)">
          <path id="Trazado_728062" data-name="Trazado 728062" d="M92.842,31.419a3.547,3.547,0,1,1,3.547-3.547A3.551,3.551,0,0,1,92.842,31.419Zm0-5.686a2.139,2.139,0,1,0,2.139,2.139A2.142,2.142,0,0,0,92.842,25.733Z" transform="translate(-89.295 -24.325)"/>
        </g>
        <g id="Grupo_964589" data-name="Grupo 964589" transform="translate(35.482)">
          <path id="Trazado_728063" data-name="Trazado 728063" d="M129.558,7.094a3.547,3.547,0,1,1,3.547-3.547A3.551,3.551,0,0,1,129.558,7.094Zm0-5.686A2.139,2.139,0,1,0,131.7,3.547,2.142,2.142,0,0,0,129.558,1.408Z" transform="translate(-126.011 0)"/>
        </g>
        <g id="Grupo_964590" data-name="Grupo 964590" transform="translate(35.482 13.699)">
          <path id="Trazado_728064" data-name="Trazado 728064" d="M129.558,55.743a3.547,3.547,0,1,1,3.547-3.547A3.551,3.551,0,0,1,129.558,55.743Zm0-5.686A2.139,2.139,0,1,0,131.7,52.2,2.142,2.142,0,0,0,129.558,50.057Z" transform="translate(-126.011 -48.649)"/>
        </g>
        <g id="Grupo_964591" data-name="Grupo 964591" transform="translate(45.444 17.165)">
          <path id="Trazado_728065" data-name="Trazado 728065" d="M164.968,71.438a1.637,1.637,0,0,1-.868-.249l-1.933-1.2a1.651,1.651,0,0,1-.529-2.27l3.718-5.976a1.648,1.648,0,0,1,2.27-.529l1.933,1.2a1.65,1.65,0,0,1,.529,2.27l-3.717,5.976a1.656,1.656,0,0,1-1.4.779Zm1.788-9.068a.251.251,0,0,0-.055.006.239.239,0,0,0-.15.107l-3.717,5.976a.241.241,0,0,0,.077.331l1.933,1.2a.24.24,0,0,0,.331-.077l3.717-5.976a.241.241,0,0,0-.077-.331l-1.934-1.2A.235.235,0,0,0,166.756,62.37Z" transform="translate(-161.39 -60.961)"/>
        </g>
        <g id="Grupo_964592" data-name="Grupo 964592" transform="translate(63.138 17.166)">
          <path id="Trazado_728066" data-name="Trazado 728066" d="M229.594,71.438a1.654,1.654,0,0,1-1.4-.778l-3.717-5.976a1.65,1.65,0,0,1,.529-2.27l1.934-1.2a1.648,1.648,0,0,1,2.27.529l3.717,5.976a1.65,1.65,0,0,1-.529,2.27l-1.934,1.2A1.638,1.638,0,0,1,229.594,71.438Zm-1.788-9.068a.237.237,0,0,0-.126.036l-1.934,1.2a.241.241,0,0,0-.077.331l3.717,5.976a.24.24,0,0,0,.331.077l1.934-1.2a.241.241,0,0,0,.077-.331l-3.717-5.976a.239.239,0,0,0-.15-.107.257.257,0,0,0-.055-.006Zm-.5-.561h0Z" transform="translate(-224.226 -60.962)"/>
        </g>
        <g id="Grupo_964593" data-name="Grupo 964593" transform="translate(56.403 19.165)">
          <path id="Trazado_728067" data-name="Trazado 728067" d="M202.944,81.969a3.137,3.137,0,0,1-.355-.02.7.7,0,0,1,0-1.4,1.633,1.633,0,0,0,1.209-.762l1.61-2.588a1.64,1.64,0,0,0-.526-2.259l-2.36-1.468a1.19,1.19,0,0,1-.541-.783.714.714,0,0,1-.014-.138l-.593-.364a2.234,2.234,0,0,1-.436-3.457,2.286,2.286,0,0,1,2.587-.454l2.373,1.078a1.035,1.035,0,0,0,.977-.064l.677-.421a.7.7,0,0,1,.97.226l3.536,5.685a.7.7,0,0,1-.226.97l-.22.137a3.256,3.256,0,0,0-1.142,1.214,4.662,4.662,0,0,1-1.637,1.741l-4.288,2.667A3.009,3.009,0,0,1,202.944,81.969Zm.437-9.62,2.244,1.4a3.047,3.047,0,0,1,.978,4.2l-.636,1.023,2.121-1.319a3.253,3.253,0,0,0,1.142-1.214,4.663,4.663,0,0,1,1.27-1.488l-2.8-4.507-.079.049a2.44,2.44,0,0,1-2.3.15l-2.373-1.078a.888.888,0,0,0-.993.151.826.826,0,0,0,.161,1.278l.7.431A1.21,1.21,0,0,1,203.381,72.349Z" transform="translate(-200.309 -68.064)"/>
        </g>
        <g id="Grupo_964594" data-name="Grupo 964594" transform="translate(49.271 19.616)">
          <path id="Trazado_728068" data-name="Trazado 728068" d="M184.2,83.12a3.023,3.023,0,0,1-1.6-.46l-4.287-2.667a4.662,4.662,0,0,1-1.637-1.741,3.253,3.253,0,0,0-1.142-1.215l-.22-.136a.7.7,0,0,1-.226-.97l3.536-5.685a.7.7,0,0,1,.969-.226l.677.421a1.036,1.036,0,0,0,.976.064l1.713-.778a.7.7,0,0,1,.789,1.139l-.008.008a.826.826,0,0,0,.175,1.264l.7.431a1.186,1.186,0,0,1,.549.805.679.679,0,0,1,.012.119l2.253,1.4a3.048,3.048,0,0,1,.978,4.2l-1.61,2.589a3.026,3.026,0,0,1-1.9,1.356A3.079,3.079,0,0,1,184.2,83.12ZM176.643,76.1a4.663,4.663,0,0,1,1.27,1.488,3.252,3.252,0,0,0,1.142,1.214l4.288,2.667a1.645,1.645,0,0,0,2.259-.526l1.61-2.589a1.64,1.64,0,0,0-.526-2.259l-2.36-1.468a1.213,1.213,0,0,1-.562-.925l-.587-.36a2.222,2.222,0,0,1-1.047-1.624c0-.021-.005-.041-.007-.061l-.3.134a2.44,2.44,0,0,1-2.3-.15l-.079-.049Z" transform="translate(-174.98 -69.665)"/>
        </g>
      </g>
    </g>
  </g>
</svg>
