<svg xmlns="http://www.w3.org/2000/svg" width="136" height="135.65" viewBox="0 0 136 135.65">
  <g id="Page-1" transform="translate(-0.424)">
    <g id="_026---Idea" data-name="026---Idea" transform="translate(0.424)">
      <path id="Shape" d="M126.232,60.773a4.6,4.6,0,0,0-4.513-3.732h-4.44l-.326-1.957a4.621,4.621,0,0,0-3.842-3.81c-.437-.069-.878-.115-1.313-.175a14.025,14.025,0,0,0-1.747-10.252,9.408,9.408,0,0,0-6.817-12.586A19.564,19.564,0,0,0,84.12,12.293c-.23,0-.435.03-.653.037A9.353,9.353,0,0,0,69.16,10.55,15.782,15.782,0,0,0,60.575,8a15.963,15.963,0,0,0-12.549,6.18A11.452,11.452,0,0,0,33.389,24.471a9.463,9.463,0,0,0-5.8,8.718,9.351,9.351,0,0,0,.23,1.961,18.5,18.5,0,0,0-2.2,15.864c-.616.085-1.246.161-1.839.248a4.626,4.626,0,0,0-3.872,3.807l-.326,1.963H15.13a4.6,4.6,0,0,0-4.511,3.722L.551,112.446a6.9,6.9,0,0,0,6.785,8.213H55.282c1.9,3.141,7.688,4.6,13.142,4.6,5.4,0,11.126-1.423,13.085-4.6h48a6.9,6.9,0,0,0,6.785-8.21ZM34.546,37.351a4.856,4.856,0,0,1,2.483-9.017,4.768,4.768,0,0,1,3.86,1.95,2.3,2.3,0,0,0,3.692-2.741,9.289,9.289,0,0,0-6.52-3.679,6.989,6.989,0,0,1,6.817-5.534,7.166,7.166,0,0,1,.837.092,15.1,15.1,0,0,0-.483,1.439,2.3,2.3,0,0,0,4.451,1.15,11.181,11.181,0,0,1,1.193-2.879,11.353,11.353,0,0,1,9.7-5.534,11.167,11.167,0,0,1,6.09,1.839,9.346,9.346,0,0,0-.54,3.014,2.3,2.3,0,1,0,4.6,0,4.836,4.836,0,1,1,9.673,0,2.3,2.3,0,1,0,4.6,0c0-.177-.044-.345-.053-.522A14.924,14.924,0,0,1,98.557,28.44a9.33,9.33,0,0,0-2.975,1.483A2.3,2.3,0,0,0,98.341,33.6a4.847,4.847,0,0,1,7.109,6.27,4.9,4.9,0,0,1-2.177,2.014,2.3,2.3,0,0,0,.979,4.368,2.269,2.269,0,0,0,.975-.218,9.443,9.443,0,0,0,1.717-1.074A9.82,9.82,0,0,1,105,54.767l-.055.057a9.93,9.93,0,0,1-11.726,2.152,9.124,9.124,0,0,1-1.113-.694,7.831,7.831,0,0,0,.607-8.093A2.3,2.3,0,1,0,88.6,50.259,3.423,3.423,0,0,1,87.5,54.593,3.469,3.469,0,0,1,82.5,53.319a2.3,2.3,0,1,0-4.113,2.058,7.971,7.971,0,0,0,7.164,4.433,7.886,7.886,0,0,0,2.885-.568,13.609,13.609,0,0,0,2.695,1.839,14.163,14.163,0,0,0,10.62.982,14.655,14.655,0,0,1-9.468,5.805,2.3,2.3,0,0,0,.361,4.568,2.447,2.447,0,0,0,.366-.028,18.894,18.894,0,0,0,4.079-1.191,20.559,20.559,0,0,1,1.715,3.948,2.371,2.371,0,0,1,.12.743,2.481,2.481,0,0,1-1.508,2.281,2.6,2.6,0,0,1-2.968-.8,14.675,14.675,0,0,0-6.73-4.472c-4.968-1.665-6.886-3.152-7.7-4.771a22.07,22.07,0,0,0,3.525-.736,2.3,2.3,0,0,0-1.352-4.4,17.423,17.423,0,0,1-3.968.729A17.064,17.064,0,0,1,70.6,62.6a2.3,2.3,0,0,0-2.577.641A9.845,9.845,0,0,1,52.148,51.726a2.306,2.306,0,0,0-3.957-2.37,14.358,14.358,0,0,0-1.315,2.959,3.449,3.449,0,0,1-3.267-3.389v-.057a2.274,2.274,0,0,0-2.3-2.269,2.322,2.322,0,0,0-2.3,2.327A8,8,0,0,0,46.15,56.86a14.435,14.435,0,0,0,.209,2.3,14.05,14.05,0,0,1-15.9-19.242,9.268,9.268,0,0,0,1.711,1.363,2.3,2.3,0,0,0,2.373-3.938ZM24.43,55.82c1.06-.156,2.154-.294,3.242-.437a18.563,18.563,0,0,0,20.164,8.18,14.4,14.4,0,0,0,22.559,3.824,22.072,22.072,0,0,0,4.8.869c1.11,4.212,4.32,6.764,11.064,9.024a10.19,10.19,0,0,1,4.681,3.083,7.323,7.323,0,0,0,5.555,2.61,6.983,6.983,0,0,0,2.729-.556,7.079,7.079,0,0,0,4.3-6.509,6.822,6.822,0,0,0-.349-2.175,25.133,25.133,0,0,0-2.032-4.679,19.382,19.382,0,0,0,7.64-11.684,14.4,14.4,0,0,0,1.324-1.853c.77.1,1.54.186,2.315.315l8.3,49.924a78.921,78.921,0,0,0-49.993,0V76.975a2.3,2.3,0,1,0-4.6,0v28.79a78.935,78.935,0,0,0-49.993-.018ZM5.544,115.215a2.281,2.281,0,0,1-.483-1.885L15.13,61.64h3.679L11.593,105a4.614,4.614,0,0,0,5.934,5.136,76.919,76.919,0,0,1,37.975-2.41l-.685,8.334H7.335a2.315,2.315,0,0,1-1.791-.846Zm62.88,5.444c-5.539,0-8.716-1.637-9.183-2.366l.791-9.542a49.134,49.134,0,0,1,7.4,2.481,2.32,2.32,0,0,0,.993.23,2.286,2.286,0,0,0,1-.23,48.973,48.973,0,0,1,7.4-2.5l.791,9.555c-.467.731-3.644,2.368-9.183,2.368Zm62.88-5.444a2.315,2.315,0,0,1-1.791.846H82.037l-.69-8.351a76.942,76.942,0,0,1,37.991,2.43,4.612,4.612,0,0,0,5.913-5.148l-7.208-43.351h3.679l10.07,51.685A2.281,2.281,0,0,1,131.3,115.215Z" transform="translate(-0.424 10.393)"/>
      <path id="Shape-2" data-name="Shape" d="M27.114,26.19a2.3,2.3,0,0,0-.163,3.246,13.864,13.864,0,0,0,7.369,4.249,6.849,6.849,0,0,1-5.6,2.885,2.3,2.3,0,1,0,0,4.6A11.4,11.4,0,0,0,39.435,33.8,13.875,13.875,0,0,0,50.786,22.76,2.3,2.3,0,1,0,46.27,21.9a9.164,9.164,0,0,1-3.807,5.838,9.385,9.385,0,0,1-12.1-1.379,2.3,2.3,0,0,0-3.246-.163Z" transform="translate(33.267 25.966)"/>
      <path id="Shape-3" data-name="Shape" d="M24.5,28.875a2.3,2.3,0,0,0,2.3-2.3A5.978,5.978,0,0,1,32.776,20.6a2.3,2.3,0,1,0,0-4.6A10.588,10.588,0,0,0,22.2,26.576a2.3,2.3,0,0,0,2.3,2.3Z" transform="translate(27.867 20.787)"/>
      <path id="Shape-4" data-name="Shape" d="M33.6,4.6V2.3a2.3,2.3,0,0,0-4.6,0V4.6a2.3,2.3,0,0,0,4.6,0Z" transform="translate(36.701)"/>
      <path id="Shape-5" data-name="Shape" d="M48.106,7.573l-2.3,2.3a2.3,2.3,0,1,0,3.251,3.251l2.3-2.3a2.3,2.3,0,1,0-3.251-3.251Z" transform="translate(57.624 8.926)"/>
      <path id="Shape-6" data-name="Shape" d="M16.5,13.8a2.3,2.3,0,0,0,1.626-3.925l-2.3-2.3a2.3,2.3,0,1,0-3.251,3.251l2.3,2.3A2.3,2.3,0,0,0,16.5,13.8Z" transform="translate(14.447 8.926)"/>
      <path id="Shape-7" data-name="Shape" d="M24.383,11.9a2.331,2.331,0,0,0,.881-.175,2.3,2.3,0,0,0,1.244-3.005L23.866,2.347a2.3,2.3,0,1,0-4.247,1.761l2.639,6.373A2.3,2.3,0,0,0,24.383,11.9Z" transform="translate(24.261 1.147)"/>
      <path id="Shape-8" data-name="Shape" d="M43.239,1.078a2.3,2.3,0,0,0-3,1.244L37.595,8.7A2.3,2.3,0,0,0,38.838,11.7a2.331,2.331,0,0,0,.881.175,2.3,2.3,0,0,0,2.124-1.419l2.639-6.373a2.3,2.3,0,0,0-1.244-3.007Z" transform="translate(47.638 1.173)"/>
      <path id="Shape-9" data-name="Shape" d="M51.628,21.673a2.3,2.3,0,0,0,.881-.177l6.371-2.639a2.3,2.3,0,1,0-1.759-4.249l-6.373,2.639a2.3,2.3,0,0,0,.881,4.426Z" transform="translate(63.102 18.751)"/>
      <path id="Shape-10" data-name="Shape" d="M13.695,21.5a2.3,2.3,0,0,0,1.761-4.249L9.082,14.608a2.3,2.3,0,0,0-1.759,4.249Z" transform="translate(6.694 18.75)"/>
    </g>
  </g>
</svg>
