<svg xmlns="http://www.w3.org/2000/svg" width="127" height="127" viewBox="0 0 127 127">
  <g id="Grupo_965475" data-name="Grupo 965475" transform="translate(-622 -10224)">
    <circle id="Elipse_6750" data-name="Elipse 6750" cx="63.5" cy="63.5" r="63.5" transform="translate(622 10224)" fill="#fff"/>
    <g id="lista-de-verificacion" transform="translate(653.262 10248.519)">
      <path id="Trazado_729715" data-name="Trazado 729715" d="M13.608,10H64.115a3.608,3.608,0,0,1,3.608,3.608V80.35a3.608,3.608,0,0,1-3.608,3.608H13.608A3.608,3.608,0,0,1,10,80.35V13.608A3.608,3.608,0,0,1,13.608,10Zm0,0" transform="translate(-8.497 -8.497)" fill="#feb12e"/>
      <path id="Trazado_729716" data-name="Trazado 729716" d="M84.623,50H95.7v61.932H50V50H61.074" transform="translate(-42.484 -42.485)" fill="#fff"/>
      <path id="Trazado_729717" data-name="Trazado 729717" d="M130.026,20.823h16.209a3.194,3.194,0,0,0,3.194-3.194V10h-22.6v7.629A3.2,3.2,0,0,0,130.026,20.823Zm0,0" transform="translate(-107.767 -8.497)" fill="#ff6977"/>
      <path id="Trazado_729718" data-name="Trazado 729718" d="M130.026,20.823h16.209a3.194,3.194,0,0,0,3.194-3.194V10h-22.6v7.629A3.2,3.2,0,0,0,130.026,20.823Zm0,0" transform="translate(-107.767 -8.497)" fill="#34bc85"/>
      <path id="Trazado_729719" data-name="Trazado 729719" d="M314.177,154.422l17.613-17.613a3.976,3.976,0,0,1,5.622,5.622L319.8,160.044l-10.135,4.512Zm0,0" transform="translate(-263.116 -115.255)" fill="#ffc15a"/>
      <path id="Trazado_729720" data-name="Trazado 729720" d="M319.8,266.181l-5.622-5.622-4.513,10.134Zm0,0" transform="translate(-263.116 -221.392)" fill="#98a1b3"/>
      <path id="Trazado_729721" data-name="Trazado 729721" d="M449.615,144.364l1.933-1.933a3.976,3.976,0,0,0-5.622-5.622l-1.933,1.932Zm0,0" transform="translate(-377.252 -115.255)" fill="#ff6977"/>
      <path id="Trazado_729722" data-name="Trazado 729722" d="M98,130h9.62v9.62H98Zm0,0" transform="translate(-83.269 -110.459)" fill="#cbe558"/>
      <path id="Trazado_729723" data-name="Trazado 729723" d="M98,240h9.62v9.62H98Zm0,0" transform="translate(-83.269 -203.924)" fill="#cbe558"/>
      <path id="Trazado_729724" data-name="Trazado 729724" d="M98,350h9.62v9.62H98Zm0,0" transform="translate(-83.269 -297.389)" fill="#ff6977"/>
      <path id="Trazado_729725" data-name="Trazado 729725" d="M193.5,452a1.5,1.5,0,1,0,1.063.44A1.515,1.515,0,0,0,193.5,452Zm0,0" transform="translate(-163.139 -384.056)"/>
      <path id="Trazado_729726" data-name="Trazado 729726" d="M75.359,20.491a5.485,5.485,0,0,0-7.748,0l-6.882,6.882V5.11A5.117,5.117,0,0,0,55.618,0H5.111A5.117,5.117,0,0,0,0,5.11V71.852a5.117,5.117,0,0,0,5.111,5.111H55.618a5.117,5.117,0,0,0,5.111-5.111V42.869l14.63-14.63a5.485,5.485,0,0,0,0-7.748ZM57.722,5.11V30.379l-3.006,3.006V7.515a1.5,1.5,0,0,0-1.5-1.5H43.167V3.006H55.618a2.107,2.107,0,0,1,2.1,2.1ZM49.515,46.335l2.029-4.559,2.53,2.53ZM40.16,3.006V9.131a1.693,1.693,0,0,1-1.691,1.691H22.259a1.693,1.693,0,0,1-1.691-1.691V3.006ZM55.618,73.957H5.111a2.107,2.107,0,0,1-2.1-2.1V5.11a2.107,2.107,0,0,1,2.1-2.1H17.562V6.012H7.516a1.5,1.5,0,0,0-1.5,1.5V69.447a1.5,1.5,0,0,0,1.5,1.5H24.351a1.5,1.5,0,0,0,0-3.006H9.019V9.019h8.543v.113a4.7,4.7,0,0,0,4.7,4.7h16.21a4.7,4.7,0,0,0,4.7-4.7V9.019H51.71V36.392L50,38.1a1.521,1.521,0,0,0-.31.452L45.175,48.689a1.5,1.5,0,0,0,1.985,1.985l4.55-2.026V67.944H36.377a1.5,1.5,0,1,0,0,3.006H53.213a1.5,1.5,0,0,0,1.5-1.5V47.31l2.578-1.148a1.5,1.5,0,0,0,.428-.289V71.852a2.107,2.107,0,0,1-2.1,2.1ZM67.63,31.716,56.683,42.663l-3.5-3.5L66.74,25.612l3.5,3.5Zm5.6-5.6-.87.87-3.5-3.5.87-.87a2.472,2.472,0,0,1,3.5,3.5Zm0,0" transform="translate(0)"/>
      <path id="Trazado_729727" data-name="Trazado 729727" d="M99.124,120H89.5a1.5,1.5,0,0,0-1.5,1.5v9.62a1.5,1.5,0,0,0,1.5,1.5h9.62a1.5,1.5,0,0,0,1.5-1.5V121.5A1.5,1.5,0,0,0,99.124,120Zm-1.5,9.62H91.006v-6.614H97.62Zm0,0" transform="translate(-74.772 -101.962)"/>
      <path id="Trazado_729728" data-name="Trazado 729728" d="M99.124,230H89.5a1.5,1.5,0,0,0-1.5,1.5v9.62a1.5,1.5,0,0,0,1.5,1.5h9.62a1.5,1.5,0,0,0,1.5-1.5V231.5A1.5,1.5,0,0,0,99.124,230Zm-1.5,9.62H91.006v-6.614H97.62Zm0,0" transform="translate(-74.772 -195.427)"/>
      <path id="Trazado_729729" data-name="Trazado 729729" d="M99.124,340H89.5a1.5,1.5,0,0,0-1.5,1.5v9.62a1.5,1.5,0,0,0,1.5,1.5h9.62a1.5,1.5,0,0,0,1.5-1.5V341.5A1.5,1.5,0,0,0,99.124,340Zm-1.5,9.62H91.006v-6.614H97.62Zm0,0" transform="translate(-74.772 -288.892)"/>
      <path id="Trazado_729730" data-name="Trazado 729730" d="M212.186,138.779a1.5,1.5,0,0,0,2.126,0l6.787-6.787a1.5,1.5,0,0,0-2.126-2.126l-5.723,5.723-2.281-2.281a1.5,1.5,0,0,0-2.126,2.126Zm0,0" transform="translate(-177.075 -109.972)"/>
      <path id="Trazado_729731" data-name="Trazado 729731" d="M212.186,248.781a1.5,1.5,0,0,0,2.126,0L221.1,242a1.5,1.5,0,0,0-2.126-2.126l-5.723,5.724-2.281-2.281a1.5,1.5,0,0,0-2.126,2.126Zm0,0" transform="translate(-177.075 -203.439)"/>
      <path id="Trazado_729732" data-name="Trazado 729732" d="M224.423,356.449l2.331,2.33a1.5,1.5,0,0,0,2.126-2.126l-2.33-2.331,2.33-2.331a1.5,1.5,0,0,0-2.126-2.126l-2.331,2.33-2.33-2.33a1.5,1.5,0,0,0-2.126,2.126l2.331,2.331-2.331,2.331a1.5,1.5,0,0,0,2.126,2.126Zm0,0" transform="translate(-186.528 -296.901)"/>
    </g>
  </g>
</svg>
