<svg xmlns="http://www.w3.org/2000/svg" width="105" height="105" viewBox="0 0 105 105">
  <g id="Grupo_965420" data-name="Grupo 965420" transform="translate(-905 -2704)">
    <circle id="Elipse_5792" data-name="Elipse 5792" cx="52.5" cy="52.5" r="52.5" transform="translate(905 2704)" fill="#feb12e"/>
    <g id="competencia" transform="translate(924 2723)">
      <g id="Grupo_964611" data-name="Grupo 964611" transform="translate(2.046 2.043)">
        <g id="Grupo_964596" data-name="Grupo 964596" transform="translate(28.196 49.086)">
          <path id="Trazado_728069" data-name="Trazado 728069" d="M33.752,50.619l1.514,11.958H29l.971-12.616A6.233,6.233,0,0,0,30.044,49h2.089Z" transform="translate(-29 -49)" fill="#ff826e"/>
        </g>
        <g id="Grupo_964597" data-name="Grupo 964597" transform="translate(19.799 50.047)">
          <path id="Trazado_728070" data-name="Trazado 728070" d="M20.96,51.413c1.305,1.535,3.5,2.7,4.219,4.856,3.572-1.786,4.856-4.344,5.149-6.35l-.971,12.616H21V52.092H20.96Z" transform="translate(-20.96 -49.92)" fill="#b4dd7f"/>
        </g>
        <g id="Grupo_964598" data-name="Grupo 964598" transform="translate(6.264 35.509)">
          <path id="Trazado_728071" data-name="Trazado 728071" d="M20.532,49.576a3.685,3.685,0,0,0,1,2.454v.679h-1l-5.18.647A6.54,6.54,0,0,1,8,46.872V36h6.266v9.775a1.6,1.6,0,0,0,1.6,1.608,2.028,2.028,0,0,0,.251-.021l5.378-.825A4.766,4.766,0,0,0,20.532,49.576Z" transform="translate(-8 -36)" fill="#b4dd7f"/>
        </g>
        <g id="Grupo_964599" data-name="Grupo 964599" transform="translate(32.947 35.509)">
          <path id="Trazado_728072" data-name="Trazado 728072" d="M47.586,47.164l1.295.2a1.582,1.582,0,0,0,1.379-.449,1.6,1.6,0,0,0,.47-1.138V36H57V46.872a6.543,6.543,0,0,1-6.538,6.538,7.109,7.109,0,0,1-.815-.052l-5.18-.647H43.419V63.153H35.064L33.55,51.2l2.559,2.559,1.8-8.083Z" transform="translate(-33.55 -36)" fill="#b4dd7f"/>
        </g>
        <g id="Grupo_964600" data-name="Grupo 964600" transform="translate(31.329 44.908)">
          <path id="Trazado_728073" data-name="Trazado 728073" d="M37.974,45.272l-1.8,8.083L33.619,50.8,32,49.177,36.177,45Z" transform="translate(-32 -45)" fill="#a0d468"/>
        </g>
        <g id="Grupo_964601" data-name="Grupo 964601" transform="translate(16.708 16.711)">
          <path id="Trazado_728074" data-name="Trazado 728074" d="M21.07,47.325C19.41,45.957,18,44.161,18,42.02c0-4.177,3.133-5.222,3.133-5.222V28.966a10.966,10.966,0,1,1,21.931,0v.522a7.99,7.99,0,0,1,2.089,5.222c0,3.133-1.044,4.177-1.044,7.31,0,2.256,3.885,3.07,4.167,5.942l-9.681-1.493L36.8,46.2V43.064l-.094-.2A7.294,7.294,0,0,0,39.931,36.8v-7.31H35.346a12.473,12.473,0,0,1-6.9-2.089L25.31,29.488V36.8a7.267,7.267,0,0,0,2.141,5.169A7.173,7.173,0,0,0,29.488,43.4v.01a4.366,4.366,0,0,1-.877,2.955,4.964,4.964,0,0,1,1.922,4.01l-.073.961c-.292,2.005-1.577,4.564-5.149,6.35-.721-2.151-2.914-3.321-4.219-4.856a3.685,3.685,0,0,1-1-2.454,4.766,4.766,0,0,1,.961-3.039h.031Z" transform="translate(-18 -18)" fill="#656d78"/>
        </g>
        <g id="Grupo_964602" data-name="Grupo 964602" transform="translate(6.264 27.155)">
          <path id="Trazado_728075" data-name="Trazado 728075" d="M16.355,33.431a2.016,2.016,0,0,1-.6,1.431l-1.493,1.493H8V30.089A2.1,2.1,0,0,1,10.089,28h2.089a2.1,2.1,0,0,1,2.089,2.089v1.044l.971.48A2.022,2.022,0,0,1,16.355,33.431Z" transform="translate(-8 -28)" fill="#f0d0b4"/>
        </g>
        <g id="Grupo_964603" data-name="Grupo 964603" transform="translate(48.038 27.155)">
          <path id="Trazado_728076" data-name="Trazado 728076" d="M56.355,30.089v6.266H50.089L48.6,34.861a2.028,2.028,0,0,1,.522-3.248l.971-.48V30.089A2.1,2.1,0,0,1,52.177,28h2.089a2.1,2.1,0,0,1,2.089,2.089Z" transform="translate(-48 -28)" fill="#f0d0b4"/>
        </g>
        <g id="Grupo_964604" data-name="Grupo 964604" transform="translate(27.318 41.577)">
          <path id="Trazado_728077" data-name="Trazado 728077" d="M36.348,42.008v3.133L32.17,49.319H30.082a4.964,4.964,0,0,0-1.922-4.01,4.366,4.366,0,0,0,.877-2.955v-.01a7.148,7.148,0,0,0,3.133.71,7.254,7.254,0,0,0,4.083-1.243Z" transform="translate(-28.16 -41.81)" fill="#f0d0b4"/>
        </g>
        <g id="Grupo_964605" data-name="Grupo 964605" transform="translate(24.018 26.11)">
          <path id="Trazado_728078" data-name="Trazado 728078" d="M39.621,29.089V36.4a7.3,7.3,0,0,1-7.31,7.31,7.367,7.367,0,0,1-5.169-2.141A7.267,7.267,0,0,1,25,36.4v-7.31L28.133,27a12.473,12.473,0,0,0,6.9,2.089Z" transform="translate(-25 -27)" fill="#f0d0b4"/>
        </g>
        <g id="Grupo_964606" data-name="Grupo 964606" transform="translate(24.746 0.032)">
          <circle id="Elipse_5803" data-name="Elipse 5803" cx="6.448" cy="6.448" r="6.448" transform="translate(0 0)" fill="#ff826e"/>
        </g>
        <g id="Grupo_964607" data-name="Grupo 964607" transform="translate(5.22 18.8)">
          <path id="Trazado_728079" data-name="Trazado 728079" d="M13.266,20v1.044a3.133,3.133,0,0,1-6.266,0V20h6.266Z" transform="translate(-7 -20)" fill="#aab2bd"/>
        </g>
        <g id="Grupo_964608" data-name="Grupo 964608">
          <path id="Trazado_728080" data-name="Trazado 728080" d="M13.488,19.973V20.8H7.222v-.783a3.092,3.092,0,0,0-1.358-2.621,8.352,8.352,0,1,1,9-.01A3.057,3.057,0,0,0,13.488,19.973Z" transform="translate(-2.002 -1.998)" fill="#ffeaa7"/>
        </g>
        <g id="Grupo_964609" data-name="Grupo 964609" transform="translate(6.208 6.48)">
          <circle id="Elipse_5804" data-name="Elipse 5804" cx="2.015" cy="2.015" r="2.015" transform="translate(0 0)" fill="#fcd770"/>
        </g>
        <g id="Grupo_964610" data-name="Grupo 964610" transform="translate(41.772 0.002)">
          <path id="Trazado_728081" data-name="Trazado 728081" d="M62.887,10.355v4.177l-2.642.877c-.063.157-.115.3-.188.449l1.253,2.5L58.354,21.31l-2.5-1.253c-.146.073-.292.125-.449.188l-.877,2.642H50.355l-.877-2.642c-.157-.063-.3-.115-.449-.188l-2.5,1.253-2.955-2.955,1.253-2.5c-.073-.146-.125-.292-.188-.449L42,14.532V10.355l2.642-.877c.063-.157.115-.3.188-.449l-1.253-2.5,2.955-2.955,2.5,1.253c.146-.073.292-.125.449-.188L50.355,2h4.177l.877,2.642c.157.063.3.115.449.188l2.5-1.253L61.31,6.532l-1.253,2.5c.073.146.125.292.188.449Zm-6.266,2.089a4.177,4.177,0,1,0-4.177,4.177A4.176,4.176,0,0,0,56.621,12.443Z" transform="translate(-42 -2)" fill="#fcd770"/>
        </g>
      </g>
      <g id="Grupo_964612" data-name="Grupo 964612" transform="translate(1 1)">
        <path id="Trazado_728082" data-name="Trazado 728082" d="M56.084,27.443H54a3.137,3.137,0,0,0-3.133,3.133v.4l-.393.2a3.068,3.068,0,0,0-.8,4.913l1.191,1.191v9.347a.56.56,0,0,1-.644.554l-.591-.091a6.985,6.985,0,0,0-2.5-3.179c-.924-.775-1.486-1.287-1.486-1.841a12.65,12.65,0,0,1,.491-3.4,14.58,14.58,0,0,0,.553-3.909A9.023,9.023,0,0,0,44.6,29.136V29.01a12.01,12.01,0,0,0-24.02,0v7.176a6.36,6.36,0,0,0-3.133,5.879,7.038,7.038,0,0,0,1.9,4.6L16,47.174a.56.56,0,0,1-.645-.554V37.274l1.191-1.191a3.068,3.068,0,0,0-.8-4.912l-.393-.2v-.4a3.137,3.137,0,0,0-3.133-3.133H10.133A3.137,3.137,0,0,0,7,30.576V47.71a7.583,7.583,0,0,0,8.525,7.526l5.051-.631V65.04H45.641V54.6l5.051.631a7.584,7.584,0,0,0,8.525-7.526V30.576A3.137,3.137,0,0,0,56.084,27.443Zm-4.68,5.6,1.547-.774v-1.69A1.045,1.045,0,0,1,54,29.532h2.089a1.045,1.045,0,0,1,1.044,1.044V35.8H52.339l-1.191-1.191A.979.979,0,0,1,51.4,33.04ZM21.951,37.834l.714-.238V29.01a9.921,9.921,0,0,1,19.842,0v.955l.306.306A6.9,6.9,0,0,1,44.6,34.754a12.65,12.65,0,0,1-.491,3.4,14.58,14.58,0,0,0-.554,3.909c0,1.57,1.186,2.564,2.233,3.441a10.715,10.715,0,0,1,1.269,1.182L38.33,45.345V43.354a8.34,8.34,0,0,0,3.133-6.511V28.488H35.829a11.352,11.352,0,0,1-6.319-1.913l-.579-.386-4.177,2.785v7.869A8.354,8.354,0,0,0,28.9,44.05a2.747,2.747,0,0,1-.581,1.651l-.673.738.706.706c1,1,1.61,1.614,1.618,3.249l-.067.868a7.163,7.163,0,0,1-3.636,5.01,11.668,11.668,0,0,0-2.478-2.71c-.437-.384-.811-.726-1.128-1.053v0h0a2.953,2.953,0,0,1-1.042-2.089,4.361,4.361,0,0,1,.251-1.5,22.447,22.447,0,0,0,4.6,2.48l.734-1.956c-2.136-.8-7.678-3.687-7.678-7.376,0-3.328,2.329-4.2,2.419-4.231Zm11.158,5.275a6.272,6.272,0,0,1-6.266-6.266V30.091l2.105-1.4a13.431,13.431,0,0,0,6.881,1.889h3.546v6.266A6.272,6.272,0,0,1,33.108,43.108Zm0,2.089a8.3,8.3,0,0,0,3.133-.615v1.227l-3.565,3.565h-.693a5.49,5.49,0,0,0-1.545-3.086,4.866,4.866,0,0,0,.457-1.4,8.332,8.332,0,0,0,2.213.307Zm-1.12,6.266h.687l1.056,1.056,1.324,10.432H31.1L31.985,51.5c0-.011,0-.022,0-.033Zm2.6-1.044,3.065-3.065.169.026-1.14,5.132ZM10.133,29.532h2.089a1.045,1.045,0,0,1,1.044,1.044v1.69l1.547.774a.979.979,0,0,1,.256,1.568L13.878,35.8H9.089V30.576A1.045,1.045,0,0,1,10.133,29.532Zm5.133,23.631A5.494,5.494,0,0,1,9.089,47.71V37.887h4.177v8.735a2.631,2.631,0,0,0,.776,1.872,2.66,2.66,0,0,0,2.276.745l3.434-.528a6.613,6.613,0,0,0-.219,1.709,4.346,4.346,0,0,0,.565,2.148Zm7.4,2.192a6.7,6.7,0,0,1,2.143,2.7l.38,1.143,1.077-.539a12.045,12.045,0,0,0,3.251-2.311l-.508,6.6H22.665ZM55.519,51.6a5.457,5.457,0,0,1-4.568,1.568l-5.181-.647-2.218-.008V62.951h-6.39L36.143,54.93l1.749,1.749,2-8.981L49.9,49.239a2.665,2.665,0,0,0,2.275-.745,2.631,2.631,0,0,0,.776-1.873V37.887h4.177V47.71A5.465,5.465,0,0,1,55.519,51.6Z" transform="translate(-0.734 -0.291)"/>
        <path id="Trazado_728083" data-name="Trazado 728083" d="M32.31,15.621A7.31,7.31,0,1,0,25,8.31,7.319,7.319,0,0,0,32.31,15.621Zm0-12.532A5.222,5.222,0,1,1,27.089,8.31,5.228,5.228,0,0,1,32.31,3.089Z" transform="translate(0.064 -1)"/>
        <path id="Trazado_728084" data-name="Trazado 728084" d="M36.036,6.77,34.559,5.293,31.12,8.732l-1.35-1.35L28.293,8.858l2.827,2.827Z" transform="translate(0.211 -0.81)"/>
        <path id="Trazado_728085" data-name="Trazado 728085" d="M10.4,26.064a4.182,4.182,0,0,0,4.177-4.177V20.015a2.038,2.038,0,0,1,.9-1.712,9.4,9.4,0,1,0-10.132.015,2.055,2.055,0,0,1,.877,1.741v1.828A4.182,4.182,0,0,0,10.4,26.064Zm0-2.089A2.091,2.091,0,0,1,8.31,21.887h4.177A2.091,2.091,0,0,1,10.4,23.975ZM9.355,10.4A1.044,1.044,0,1,1,10.4,11.443,1.045,1.045,0,0,1,9.355,10.4Zm-6.2-.966a7.338,7.338,0,0,1,6.391-6.3,7.8,7.8,0,0,1,.865-.048,7.23,7.23,0,0,1,4.86,1.857,7.307,7.307,0,0,1-.92,11.6A4.068,4.068,0,0,0,12.5,19.8H11.443V13.34a3.133,3.133,0,1,0-2.089,0V19.8H8.295a4.066,4.066,0,0,0-1.827-3.24A7.284,7.284,0,0,1,3.151,9.433Z" transform="translate(-1 -1)"/>
        <path id="Trazado_728086" data-name="Trazado 728086" d="M63.975,9.646l-2.564-.855L62.62,6.374,58.6,2.356,56.184,3.565,55.329,1H49.647l-.854,2.565L46.375,2.356,42.357,6.374l1.208,2.417L41,9.646v5.682l2.564.855L42.356,18.6l4.019,4.019,2.418-1.209.854,2.566h5.682l.854-2.565L58.6,22.62,62.619,18.6l-1.208-2.417,2.565-.855Zm-2.089,4.177-2.4.8-.176.461c-.052.134-.1.266-.162.4l-.2.452,1.129,2.258L58.19,20.078l-2.258-1.129-.452.2c-.128.057-.259.11-.392.16l-.465.175-.8,2.4H51.151l-.8-2.4-.465-.175c-.133-.05-.263-.1-.392-.16l-.452-.2-2.258,1.129L44.9,18.189l1.129-2.258-.2-.452c-.058-.131-.11-.262-.162-.4l-.176-.461-2.395-.8V11.151l2.4-.8.176-.461c.052-.134.1-.266.162-.4l.2-.452L44.9,6.786,46.786,4.9l2.258,1.129.452-.2c.128-.057.259-.11.392-.16l.465-.175.8-2.4h2.672l.8,2.4.465.175c.133.05.263.1.392.16l.452.2L58.191,4.9,60.08,6.787,58.951,9.045l.2.452c.058.131.11.262.162.4l.176.461,2.395.8Z" transform="translate(0.774 -1)"/>
        <path id="Trazado_728087" data-name="Trazado 728087" d="M52.222,7a5.222,5.222,0,1,0,5.222,5.222A5.228,5.228,0,0,0,52.222,7Zm0,8.355a3.133,3.133,0,1,1,3.133-3.133A3.137,3.137,0,0,1,52.222,15.355Z" transform="translate(1.04 -0.734)"/>
      </g>
    </g>
  </g>
</svg>
