<svg xmlns="http://www.w3.org/2000/svg" width="127" height="127" viewBox="0 0 127 127">
  <g id="Grupo_965478" data-name="Grupo 965478" transform="translate(-6867 1512)">
    <g id="Grupo_965477" data-name="Grupo 965477" transform="translate(0 240)">
      <circle id="Elipse_6750" data-name="Elipse 6750" cx="63.5" cy="63.5" r="63.5" transform="translate(6867 -1752)" fill="#fff"/>
    </g>
    <g id="evaluacion" transform="translate(6893.317 -1486.551)">
      <g id="Grupo_965260" data-name="Grupo 965260" transform="translate(1.199 1.936)">
        <g id="Grupo_965241" data-name="Grupo 965241" transform="translate(2.399 7.197)">
          <g id="Grupo_965240" data-name="Grupo 965240">
            <path id="Trazado_729642" data-name="Trazado 729642" d="M46.18,57.99v-.108a4.048,4.048,0,0,0-2.519-3.754c-.012-.012-.024-.012-.048-.024a4.042,4.042,0,0,0-4.426.876l-.084.084-6.789-6.789.084-.084a4.042,4.042,0,0,0,.876-4.426c-.012-.024-.012-.036-.024-.048A4.048,4.048,0,0,0,29.5,41.2h-.108V31.6H29.5A4.05,4.05,0,0,0,33.25,29.1l.024-.072A4.023,4.023,0,0,0,32.4,24.61l-.084-.084L38.4,18.445,37.6,16.862a9.745,9.745,0,0,1-1.02-4.342,9.6,9.6,0,0,1,1.331-4.906H4.2A1.2,1.2,0,0,0,3,8.813V62.788H50.977v-4.8Z" transform="translate(-3 -7.614)" fill="#e6e9ed"/>
          </g>
        </g>
        <g id="Grupo_965242" data-name="Grupo 965242" transform="translate(7.197 33.584)">
          <path id="Trazado_729643" data-name="Trazado 729643" d="M16.6,30.813v7.2a1.2,1.2,0,0,1-1.2,1.2H8.2A1.2,1.2,0,0,1,7,38.01v-7.2a1.2,1.2,0,0,1,1.2-1.2h7.2A1.2,1.2,0,0,1,16.6,30.813Z" transform="translate(-7 -29.614)" fill="#ff826e"/>
        </g>
        <g id="Grupo_965243" data-name="Grupo 965243" transform="translate(7.197 11.994)">
          <path id="Trazado_729644" data-name="Trazado 729644" d="M32.188,18.811H8.2a1.2,1.2,0,0,1-1.2-1.2v-4.8a1.2,1.2,0,0,1,1.2-1.2H32.188Z" transform="translate(-7 -11.614)" fill="#b4dd7f"/>
        </g>
        <g id="Grupo_965244" data-name="Grupo 965244" transform="translate(7.197 47.977)">
          <path id="Trazado_729645" data-name="Trazado 729645" d="M16.6,42.813v7.2a1.2,1.2,0,0,1-1.2,1.2H8.2A1.2,1.2,0,0,1,7,50.01v-7.2a1.2,1.2,0,0,1,1.2-1.2h7.2A1.2,1.2,0,0,1,16.6,42.813Z" transform="translate(-7 -41.614)" fill="#ff826e"/>
        </g>
        <g id="Grupo_965245" data-name="Grupo 965245" transform="translate(14.393 62.371)">
          <path id="Trazado_729646" data-name="Trazado 729646" d="M48.983,53.662v9.5a2.065,2.065,0,0,1-.468.048H13v-9.6H48.515A2.065,2.065,0,0,1,48.983,53.662Z" transform="translate(-13 -53.614)" fill="#b4dd7f"/>
        </g>
        <g id="Grupo_965246" data-name="Grupo 965246" transform="translate(9.595 62.371)">
          <path id="Trazado_729647" data-name="Trazado 729647" d="M9,53.614h4.8v9.6H9Z" transform="translate(-9 -53.614)" fill="#ffeaa7"/>
        </g>
        <g id="Grupo_965247" data-name="Grupo 965247" transform="translate(0 62.371)">
          <path id="Trazado_729648" data-name="Trazado 729648" d="M3.4,54.262a4.785,4.785,0,0,1,2.4-.648h4.8v9.6H5.8A4.8,4.8,0,0,1,2.4,55.017a5.068,5.068,0,0,1,1-.756Z" transform="translate(-1 -53.614)" fill="#ccd1d9"/>
        </g>
        <g id="Grupo_965248" data-name="Grupo 965248" transform="translate(50.376 62.419)">
          <path id="Trazado_729649" data-name="Trazado 729649" d="M53.843,56.868a1.6,1.6,0,0,1,0,3.071L43.432,63.034a2.9,2.9,0,0,1-.432.12v-9.5a2.9,2.9,0,0,1,.432.12Z" transform="translate(-43 -53.654)" fill="#ccd1d9"/>
        </g>
        <g id="Grupo_965249" data-name="Grupo 965249" transform="translate(47.222 43.18)">
          <path id="Trazado_729650" data-name="Trazado 729650" d="M44.724,37.614l1.955,6.849a14.478,14.478,0,0,1-6.309,0l1.955-6.849Z" transform="translate(-40.37 -37.614)" fill="#e6e9ed"/>
        </g>
        <g id="Grupo_965250" data-name="Grupo 965250" transform="translate(48.061 37.182)">
          <path id="Trazado_729651" data-name="Trazado 729651" d="M43.385,32.614,45.7,34.161l-1.115,4.45h-2.4l-1.115-4.45Z" transform="translate(-41.07 -32.614)" fill="#ccd1d9"/>
        </g>
        <g id="Grupo_965251" data-name="Grupo 965251" transform="translate(51.576 34.28)">
          <path id="Trazado_729652" data-name="Trazado 729652" d="M53.727,36.671l.792,3.586a14.388,14.388,0,0,1-8.564,5.685L44,39.094l1.115-4.45L46.4,35.5l2.123-5.3a9.1,9.1,0,0,1,2.6,1.8A9.426,9.426,0,0,1,53.727,36.671Z" transform="translate(-44 -30.194)" fill="#ff826e"/>
        </g>
        <g id="Grupo_965252" data-name="Grupo 965252" transform="translate(38.658 34.28)">
          <path id="Trazado_729653" data-name="Trazado 729653" d="M42.634,34.644l1.115,4.45-1.955,6.849a14.388,14.388,0,0,1-8.564-5.685l.792-3.586a9.426,9.426,0,0,1,2.6-4.678,9.1,9.1,0,0,1,2.6-1.8l2.123,5.3Z" transform="translate(-33.23 -30.194)" fill="#ff826e"/>
        </g>
        <g id="Grupo_965253" data-name="Grupo 965253" transform="translate(44.655 33.584)">
          <path id="Trazado_729654" data-name="Trazado 729654" d="M49.673,30.31l-2.123,5.3-1.283-.852-2.315-1.547L41.636,34.76l-1.283.852-2.123-5.3a9.176,9.176,0,0,1,2.123-.7l3.6,2.4,3.6-2.4a9.176,9.176,0,0,1,2.123.7Z" transform="translate(-38.23 -29.614)" fill="#fc6e51"/>
        </g>
        <g id="Grupo_965254" data-name="Grupo 965254" transform="translate(59.672 19.191)">
          <path id="Trazado_729655" data-name="Trazado 729655" d="M53.449,17.614a2.406,2.406,0,0,1,2.4,2.4,2.416,2.416,0,0,1-2.4,2.4h-2.7a9.882,9.882,0,0,0,.3-2.4v-2.4Z" transform="translate(-50.75 -17.614)" fill="#f0d0b4"/>
        </g>
        <g id="Grupo_965255" data-name="Grupo 965255" transform="translate(40.781 11.994)">
          <path id="Trazado_729656" data-name="Trazado 729656" d="M54.191,18.811v2.4a9.882,9.882,0,0,1-.3,2.4c-.072.276-.156.54-.252.8a9.551,9.551,0,0,1-6.369,6.009,9.512,9.512,0,0,1-5.349,0,9.531,9.531,0,0,1-6.369-6.009c-.1-.264-.18-.528-.252-.8a9.882,9.882,0,0,1-.3-2.4V16.316a4.694,4.694,0,0,1,4.7-4.7,4.628,4.628,0,0,1,2.411.672l4.882,2.927v-1.4a7.383,7.383,0,0,0-.24-1.919h.012a13.922,13.922,0,0,1,6.789,4.882l.636.84Z" transform="translate(-35 -11.614)" fill="#f0d0b4"/>
        </g>
        <g id="Grupo_965256" data-name="Grupo 965256" transform="translate(46.778 30.801)">
          <path id="Trazado_729657" data-name="Trazado 729657" d="M46.273,27.306l.924,2.771-3.6,2.4-3.6-2.4.924-2.771v-.012a9.512,9.512,0,0,0,5.349,0Z" transform="translate(-40 -27.294)" fill="#f0d0b4"/>
        </g>
        <g id="Grupo_965257" data-name="Grupo 965257" transform="translate(28.786 17.692)">
          <path id="Trazado_729658" data-name="Trazado 729658" d="M68.18,29.858v9.6h-.108a4.048,4.048,0,0,0-3.754,2.519c-.012.012-.012.024-.024.048a4.042,4.042,0,0,0,.876,4.426l.084.084-6.789,6.789-.084-.084a4.042,4.042,0,0,0-4.426-.876c-.024.012-.036.012-.048.024a4.048,4.048,0,0,0-2.519,3.754v.108h-9.6v-.108a4.048,4.048,0,0,0-2.519-3.754c-.012-.012-.024-.012-.048-.024a4.042,4.042,0,0,0-4.426.876l-.084.084L27.927,46.53l.084-.084a4.042,4.042,0,0,0,.876-4.426c-.012-.024-.012-.036-.024-.048a4.048,4.048,0,0,0-3.754-2.519H25v-9.6h.108a4.05,4.05,0,0,0,3.754-2.507l.024-.072a4.023,4.023,0,0,0-.876-4.414l-.084-.084L34.008,16.7l.588,1.163a2.406,2.406,0,0,0-2.4,2.4,2.416,2.416,0,0,0,2.4,2.4h2.7c.072.276.156.54.252.8a14.393,14.393,0,1,0,18.087,0c.1-.264.18-.528.252-.8h2.7a2.416,2.416,0,0,0,2.4-2.4,2.406,2.406,0,0,0-2.4-2.4L58.8,16.58l.036-.216,6.417,6.417-.084.084a4.042,4.042,0,0,0-.876,4.426c.012.024.012.036.024.048a4.048,4.048,0,0,0,3.754,2.519Z" transform="translate(-25 -16.364)" fill="#fcd770"/>
        </g>
        <g id="Grupo_965258" data-name="Grupo 965258" transform="translate(35.983)">
          <path id="Trazado_729659" data-name="Trazado 729659" d="M54.989,19.606l-.636-.84a13.922,13.922,0,0,0-6.789-4.882h-.012a7.383,7.383,0,0,1,.24,1.919v1.4L42.91,14.28a4.628,4.628,0,0,0-2.411-.672,4.694,4.694,0,0,0-4.7,4.7V20.8H33.4l-.588-1.163-.792-1.583A9.745,9.745,0,0,1,31,13.716a9.6,9.6,0,0,1,1.331-4.906,9.168,9.168,0,0,1,1.511-1.955A9.642,9.642,0,0,1,40.7,4.013h6.621a33.573,33.573,0,0,0,12.462-2.4l-1.2,6,3.6,1.2a24.707,24.707,0,0,0-4.546,10.5l-.036.216L57.388,20.8h-2.4Z" transform="translate(-31 -1.614)" fill="#b27946"/>
        </g>
        <g id="Grupo_965259" data-name="Grupo 965259" transform="translate(35.983 19.191)">
          <path id="Trazado_729660" data-name="Trazado 729660" d="M36.1,22.412H33.4a2.416,2.416,0,0,1-2.4-2.4,2.406,2.406,0,0,1,2.4-2.4h2.4v2.4A9.882,9.882,0,0,0,36.1,22.412Z" transform="translate(-31 -17.614)" fill="#f0d0b4"/>
        </g>
      </g>
      <g id="Grupo_965261" data-name="Grupo 965261" transform="translate(0 0)">
        <circle id="Elipse_5867" data-name="Elipse 5867" cx="1.199" cy="1.199" r="1.199" transform="translate(55.174 19.927)"/>
        <circle id="Elipse_5868" data-name="Elipse 5868" cx="1.199" cy="1.199" r="1.199" transform="translate(45.579 19.927)"/>
        <path id="Trazado_729661" data-name="Trazado 729661" d="M46.175,21.42a2.682,2.682,0,0,1-4.8,0l-.126-.253-2.146,1.073.126.252a5.081,5.081,0,0,0,9.089,0l.126-.253L46.3,21.166Z" transform="translate(7.799 4.221)"/>
        <path id="Trazado_729662" data-name="Trazado 729662" d="M74.252,31.922h-1.2a2.916,2.916,0,0,1-1.971-5.029l.848-.848-6.806-6.806a23.517,23.517,0,0,1,4.2-9.388l1-1.331L66.152,7.128,67.58,0,65.524.823A32.212,32.212,0,0,1,53.513,3.135H46.886a10.9,10.9,0,0,0-9.028,4.8H4.8a2.4,2.4,0,0,0-2.4,2.4V64.338A5.976,5.976,0,0,0,6,75.1H51.114a3.333,3.333,0,0,0,1.231-.221L62.76,71.795a2.806,2.806,0,0,0,0-5.381L52.45,63.365a3.56,3.56,0,0,0-1.336-.258H6a5.991,5.991,0,0,0-1.2.121v-52.9H36.645a10.832,10.832,0,0,0-.662,3.707,10.944,10.944,0,0,0,1.151,4.876l.405.812L32.068,25.2l-.769.927.848.848a2.915,2.915,0,0,1-2.163,4.949h-1.2v4.8h-7.2v2.4h7.2v3.6l.113,1.2h1.2a2.916,2.916,0,0,1,1.971,5.029l-.848.848,7.633,7.633.927.769.848-.848a2.916,2.916,0,0,1,4.95,2.161v1.2H56.373l1.2-.113V59.4A2.916,2.916,0,0,1,62.6,57.425l.848.848,7.633-7.633.769-.927L71,48.865a2.915,2.915,0,0,1,2.163-4.949h1.2V33.121ZM52.775,65.958l2.4.711v4.876l-2.4.712Zm-2.4,6.744H16.792v-7.2H50.376Zm-35.983,0h-2.4v-7.2h2.4Zm47.977-3.6a.4.4,0,0,1-.291.39l-4.506,1.339V67.379l4.506,1.335A.4.4,0,0,1,62.371,69.1ZM9.6,65.506v7.2H6a3.6,3.6,0,1,1,0-7.2ZM59.124,41.869a5.256,5.256,0,0,0-1.551,3.743v4.044a13.133,13.133,0,0,1-2.013.838l-1.544-5.4.623-2.49,1.1.733,2.157-5.388a8.178,8.178,0,0,1,3.433,5L62,45.978a13.346,13.346,0,0,1-2.027,2.111V45.612a2.876,2.876,0,0,1,.848-2.047Zm-15.1,0-1.7,1.7a2.871,2.871,0,0,1,.848,2.046v2.477a13.292,13.292,0,0,1-2.027-2.111l.673-3.027a8.18,8.18,0,0,1,3.433-5l2.157,5.388,1.1-.733.623,2.49-1.544,5.4a12.974,12.974,0,0,1-2.014-.837V45.612a5.256,5.256,0,0,0-1.551-3.743ZM39.581,22.326h1.2v1.2a10.717,10.717,0,0,0,.071,1.2h-1.27a1.2,1.2,0,1,1,0-2.4ZM55.173,16.1a12.658,12.658,0,0,1,4.408,3.707l.391.522v3.2a8.4,8.4,0,0,1-16.792,0v-4.9a3.5,3.5,0,0,1,5.3-3l6.7,4.018V16.123C55.174,16.116,55.173,16.107,55.173,16.1ZM51.84,43.916h-.528l-.681-2.726.945-.63.945.63Zm-4.074-7.1,2.548,1.7L48.541,39.7l-1.114-2.785c.113-.034.225-.064.338-.094Zm6.844,2.88-1.772-1.18,2.548-1.7c.114.03.227.06.338.094Zm-.862-4.669-2.171,1.448L49.4,35.031l.294-.884a10.751,10.751,0,0,0,1.876.174,10.868,10.868,0,0,0,1.876-.174Zm-6.352-1.553-.343,1.029a10.6,10.6,0,0,0-7.57,7.923l-.109.491a13.162,13.162,0,0,1,2.747-14.2,10.861,10.861,0,0,0,5.275,4.755Zm3.887,12.838h.589L53.209,51a13.11,13.11,0,0,1-1.634.112A13.359,13.359,0,0,1,49.942,51Zm12.5-3.394-.109-.491a10.6,10.6,0,0,0-7.57-7.922l-.343-1.029a10.861,10.861,0,0,0,5.275-4.755,13.16,13.16,0,0,1,2.747,14.2ZM62.3,24.725a10.718,10.718,0,0,0,.071-1.2v-1.2h1.2a1.2,1.2,0,0,1,0,2.4ZM46.886,5.534h6.627a34.559,34.559,0,0,0,10.862-1.74l-.988,4.943,3.077,1.026A25.936,25.936,0,0,0,62.6,19.649l-.047.278h-.182v-3.8a9.329,9.329,0,0,0-2.75-6.64l-1.7,1.7a6.946,6.946,0,0,1,2.047,4.944v.5a15.039,15.039,0,0,0-5.226-3.306,9.337,9.337,0,0,0-2.322-3.832l-1.7,1.7a6.948,6.948,0,0,1,2.01,4.208l-3.027-1.816a5.895,5.895,0,0,0-8.929,5.056v1.3h-.458l-1.042-2.087a8.5,8.5,0,0,1,7.6-12.307Zm25.08,36.1A5.315,5.315,0,0,0,68.628,49.7L63.37,54.961a5.276,5.276,0,0,0-4.939-.426A5.221,5.221,0,0,0,55.3,58.308H47.866a5.28,5.28,0,0,0-3.19-3.794,5.222,5.222,0,0,0-4.883.455l-5.258-5.257a5.287,5.287,0,0,0,.427-4.939,5.224,5.224,0,0,0-3.775-3.132V34.207a5.3,5.3,0,0,0,3.8-3.2,5.216,5.216,0,0,0-.462-4.869l1.616-1.616a3.592,3.592,0,0,0,3.441,2.605h.754a15.593,15.593,0,1,0,22.48,0h.754a3.59,3.59,0,0,0,3.441-2.606l1.607,1.607a5.287,5.287,0,0,0-.427,4.939,5.224,5.224,0,0,0,3.775,3.132Z" transform="translate(0 0)"/>
        <path id="Trazado_729663" data-name="Trazado 729663" d="M16,56.614h2.4v2.4H16Z" transform="translate(3.191 11.291)"/>
        <path id="Trazado_729664" data-name="Trazado 729664" d="M20,56.614h2.4v2.4H20Z" transform="translate(3.989 11.291)"/>
        <path id="Trazado_729665" data-name="Trazado 729665" d="M24,56.614h2.4v2.4H24Z" transform="translate(4.786 11.291)"/>
        <path id="Trazado_729666" data-name="Trazado 729666" d="M28,56.614h2.4v2.4H28Z" transform="translate(5.584 11.291)"/>
        <path id="Trazado_729667" data-name="Trazado 729667" d="M15.6,40.755H8.4a2.4,2.4,0,0,0-2.4,2.4v7.2a2.4,2.4,0,0,0,2.4,2.4h7.2a2.4,2.4,0,0,0,2.4-2.4v-6.7L20.042,41.6l-1.7-1.7-1.327,1.327a2.381,2.381,0,0,0-1.424-.479Zm0,9.6H8.4v-7.2h6.7l-3.1,3.1L10.446,44.7l-1.7,1.7L12,49.648l3.6-3.6Z" transform="translate(1.197 7.959)"/>
        <path id="Trazado_729668" data-name="Trazado 729668" d="M18,42.614h9.6v2.4H18Z" transform="translate(3.59 8.499)"/>
        <path id="Trazado_729669" data-name="Trazado 729669" d="M18,46.614h4.8v2.4H18Z" transform="translate(3.59 9.296)"/>
        <path id="Trazado_729670" data-name="Trazado 729670" d="M24,46.614h2.4v2.4H24Z" transform="translate(4.786 9.296)"/>
        <path id="Trazado_729671" data-name="Trazado 729671" d="M18.346,27.907l-1.327,1.327a2.373,2.373,0,0,0-1.424-.479H8.4a2.4,2.4,0,0,0-2.4,2.4v7.2a2.4,2.4,0,0,0,2.4,2.4h7.2a2.4,2.4,0,0,0,2.4-2.4v-6.7L20.042,29.6ZM15.6,38.35H8.4v-7.2h6.7l-3.1,3.1L10.446,32.7l-1.7,1.7L12,37.648l3.6-3.6Z" transform="translate(1.197 5.566)"/>
        <path id="Trazado_729672" data-name="Trazado 729672" d="M18,34.614h4.8v2.4H18Z" transform="translate(3.59 6.903)"/>
        <path id="Trazado_729673" data-name="Trazado 729673" d="M6,24.614H25.191v2.4H6Z" transform="translate(1.197 4.909)"/>
        <path id="Trazado_729674" data-name="Trazado 729674" d="M6,20.614h4.8v2.4H6Z" transform="translate(1.197 4.111)"/>
        <path id="Trazado_729675" data-name="Trazado 729675" d="M12,20.614H26.393v2.4H12Z" transform="translate(2.393 4.111)"/>
        <path id="Trazado_729676" data-name="Trazado 729676" d="M32.388,13.013v-2.4H8.4a2.4,2.4,0,0,0-2.4,2.4v4.8a2.4,2.4,0,0,0,2.4,2.4H32.388v-2.4H8.4v-4.8Z" transform="translate(1.197 2.117)"/>
      </g>
    </g>
  </g>
</svg>
