<svg xmlns="http://www.w3.org/2000/svg" width="157" height="157" viewBox="0 0 157 157">
  <g id="Grupo_965480" data-name="Grupo 965480" transform="translate(-302 -11734)">
    <circle id="Elipse_5834" data-name="Elipse 5834" cx="78.5" cy="78.5" r="78.5" transform="translate(302 11734)" fill="#34bc85"/>
    <g id="observar" transform="translate(299.5 11767)">
      <rect id="Rectángulo_340997" data-name="Rectángulo 340997" width="53.532" height="75.994" transform="translate(64.41 13.968)" fill="#59b6d6"/>
      <rect id="Rectángulo_340998" data-name="Rectángulo 340998" width="53.528" height="75.994" transform="translate(54.333 9.428)" fill="#c0e8f4"/>
      <rect id="Rectángulo_340999" data-name="Rectángulo 340999" width="7.172" height="10.715" transform="translate(93.595 16.272)" fill="#fad06a"/>
      <rect id="Rectángulo_341000" data-name="Rectángulo 341000" width="5.294" height="12.266" transform="translate(89.332 42.095) rotate(135)" fill="#2c394b"/>
      <circle id="Elipse_5869" data-name="Elipse 5869" cx="20.819" cy="20.819" r="20.819" transform="translate(44.832 1.337)" fill="#ec7462"/>
      <circle id="Elipse_5870" data-name="Elipse 5870" cx="15.819" cy="15.819" r="15.819" transform="translate(49.832 6.337)" fill="#59b6d6"/>
      <circle id="Elipse_5871" data-name="Elipse 5871" cx="12.252" cy="12.252" r="12.252" transform="translate(53.398 9.904)" fill="#c0e8f4"/>
      <rect id="Rectángulo_341001" data-name="Rectángulo 341001" width="9.135" height="36.334" transform="translate(114.155 64.201) rotate(135)" fill="#4b596e"/>
      <rect id="Rectángulo_341002" data-name="Rectángulo 341002" width="3.515" height="36.334" transform="translate(114.154 64.201) rotate(135)" fill="#2c394b"/>
      <rect id="Rectángulo_341003" data-name="Rectángulo 341003" width="9.137" height="6.136" transform="translate(100.281 50.326) rotate(135)" fill="#ec7462"/>
      <rect id="Rectángulo_341004" data-name="Rectángulo 341004" width="3.515" height="6.136" transform="translate(100.279 50.325) rotate(135)" fill="#db4e40"/>
      <path id="Trazado_729776" data-name="Trazado 729776" d="M117.948,80.779a1.337,1.337,0,0,0,1.338-1.337V13.968a1.337,1.337,0,0,0-1.338-1.337H109.2v-3.2a1.337,1.337,0,0,0-1.338-1.337H102.61a1.337,1.337,0,1,0,0,2.675h3.916V54.677l-5.3-5.3h0l-4.339-4.339h0L89.41,37.563a1.338,1.338,0,0,0-1.892,0l-.413.413-3.221-3.221a22.2,22.2,0,0,0,.782-23.99H96.234a1.337,1.337,0,1,0,0-2.675H82.773q-.684-.829-1.454-1.6A22.163,22.163,0,0,0,46.307,32.982a1.338,1.338,0,0,0,2.334-1.308A19.488,19.488,0,0,1,79.427,8.381a19.818,19.818,0,0,1,1.61,1.819c.021.029.042.058.065.086a19.491,19.491,0,0,1,0,23.743c-.026.031-.05.063-.073.1a19.762,19.762,0,0,1-3.463,3.448l-.032.024A19.517,19.517,0,0,1,51.87,35.933a1.337,1.337,0,1,0-1.892,1.891,22.418,22.418,0,0,0,3.013,2.526V85.422A1.337,1.337,0,0,0,54.33,86.76H63.07v3.2A1.337,1.337,0,0,0,64.408,91.3h53.54a1.337,1.337,0,0,0,1.338-1.337v-4.54a1.338,1.338,0,0,0-2.675,0v3.2H65.746V86.76h42.119a1.337,1.337,0,0,0,1.338-1.337V71.05l5.9-5.9a1.337,1.337,0,0,0,0-1.891l-5.9-5.9V15.305h7.409V79.441A1.337,1.337,0,0,0,117.948,80.779ZM91.373,52.446l4.57-4.569,2.448,2.447-4.57,4.569Zm2.678-6.46-4.57,4.569-5.587-5.586,4.57-4.569Zm-8.838-6.119-1.852,1.851-3-3q.487-.434.954-.9t.9-.954ZM55.667,84.085V41.952A22.222,22.222,0,0,0,78.249,40.39l3.221,3.221-.413.413a1.337,1.337,0,0,0,0,1.891l7.478,7.477h0l4.339,4.339h0L106.526,71.38v12.7ZM107.7,68.77,95.712,56.785l4.57-4.569L112.269,64.2Z"/>
      <path id="Trazado_729777" data-name="Trazado 729777" d="M158.872,309.224H138.82a1.337,1.337,0,1,0,0,2.675h20.053a1.337,1.337,0,1,0,0-2.675Z" transform="translate(-77.223 -254.083)"/>
      <path id="Trazado_729778" data-name="Trazado 729778" d="M158.872,349.473H138.82a1.337,1.337,0,1,0,0,2.675h20.053a1.337,1.337,0,1,0,0-2.675Z" transform="translate(-77.223 -287.155)"/>
      <path id="Trazado_729779" data-name="Trazado 729779" d="M158.872,389.722H138.82a1.337,1.337,0,1,0,0,2.675h20.053a1.337,1.337,0,1,0,0-2.675Z" transform="translate(-77.223 -320.227)"/>
      <path id="Trazado_729780" data-name="Trazado 729780" d="M158.872,429.972H138.82a1.337,1.337,0,1,0,0,2.675h20.053a1.337,1.337,0,1,0,0-2.675Z" transform="translate(-77.223 -353.3)"/>
      <path id="Trazado_729781" data-name="Trazado 729781" d="M326.788,85.086a1.337,1.337,0,0,0-1.338-1.337h-7.174a1.337,1.337,0,0,0-1.338,1.337V95.8a1.337,1.337,0,0,0,1.338,1.337h7.174a1.337,1.337,0,0,0,1.338-1.337Zm-2.675,9.379h-4.5V86.424h4.5Z" transform="translate(-224.68 -68.815)"/>
      <path id="Trazado_729782" data-name="Trazado 729782" d="M325.45,171.1h-7.174a1.337,1.337,0,1,0,0,2.675h7.174a1.337,1.337,0,1,0,0-2.675Z" transform="translate(-224.68 -140.593)"/>
      <path id="Trazado_729783" data-name="Trazado 729783" d="M325.45,429.972h-7.174a1.337,1.337,0,1,0,0,2.675h7.174a1.337,1.337,0,1,0,0-2.675Z" transform="translate(-224.68 -353.3)"/>
      <path id="Trazado_729784" data-name="Trazado 729784" d="M325.45,388.321h-7.174a1.337,1.337,0,1,0,0,2.675h7.174a1.337,1.337,0,1,0,0-2.675Z" transform="translate(-224.68 -319.076)"/>
      <path id="Trazado_729785" data-name="Trazado 729785" d="M88.678,62.386a17.148,17.148,0,1,0-12.133-5.017A17.107,17.107,0,0,0,88.678,62.386ZM78.437,35a14.482,14.482,0,1,1,0,20.48A14.439,14.439,0,0,1,78.437,35Z" transform="translate(-23.03 -23.081)"/>
      <path id="Trazado_729786" data-name="Trazado 729786" d="M104.206,70.382a9.125,9.125,0,0,1,9.113-9.662,1.337,1.337,0,1,0,0-2.675,11.8,11.8,0,0,0-11.784,12.491A1.338,1.338,0,0,0,102.87,71.8l.078,0A1.337,1.337,0,0,0,104.206,70.382Z" transform="translate(-47.671 -47.694)"/>
    </g>
  </g>
</svg>
