<svg xmlns="http://www.w3.org/2000/svg" width="157" height="157" viewBox="0 0 157 157">
  <g id="Grupo_965481" data-name="Grupo 965481" transform="translate(-722 -11734)">
    <g id="Grupo_965479" data-name="Grupo 965479" transform="translate(0 -16)">
      <circle id="Elipse_5835" data-name="Elipse 5835" cx="78.5" cy="78.5" r="78.5" transform="translate(722 11750)" fill="#feb12e"/>
      <g id="entrevista-de-trabajo" transform="translate(757 11784.99)">
        <g id="Grupo_965292" data-name="Grupo 965292" transform="translate(1.289 1.299)">
          <g id="Grupo_965275" data-name="Grupo 965275" transform="translate(41.79 15.179)">
            <path id="Trazado_729733" data-name="Trazado 729733" d="M330.7,98.6a2.777,2.777,0,0,0-2.777-2.777h-9.571a6.392,6.392,0,0,0-6.392,6.392v7.1h22.548v-7a2.777,2.777,0,0,0-2.777-2.777h-.094A.938.938,0,0,1,330.7,98.6Z" transform="translate(-301.425 -95.825)" fill="#efc984"/>
            <path id="Trazado_729734" data-name="Trazado 729734" d="M288.746,276.792l-9.137-2.682h-14.3l-9.14,2.683a7.693,7.693,0,0,0-5.527,7.382v14.6h43.632v-14.6A7.693,7.693,0,0,0,288.746,276.792Z" transform="translate(-250.64 -243.467)" fill="#4a80aa"/>
            <g id="Grupo_965263" data-name="Grupo 965263" transform="translate(18.147 30.643)">
              <path id="Trazado_729735" data-name="Trazado 729735" d="M376.18,276.792l-9.137-2.682H356.228l-.008,2.633,9.137,2.682a7.693,7.693,0,0,1,5.526,7.382v11.968h10.823v-14.6A7.693,7.693,0,0,0,376.18,276.792Z" transform="translate(-356.22 -274.11)" fill="#407093"/>
            </g>
            <path id="Trazado_729736" data-name="Trazado 729736" d="M357.781,345.5l-3.357-14.968h-3.636L347.431,345.5Z" transform="translate(-330.795 -290.191)" fill="#dd636e"/>
            <g id="Grupo_965273" data-name="Grupo 965273" transform="translate(10.54)">
              <g id="Grupo_965270" data-name="Grupo 965270" transform="translate(6.254 25.099)">
                <g id="Grupo_965269" data-name="Grupo 965269">
                  <g id="Grupo_965268" data-name="Grupo 965268">
                    <g id="Grupo_965267" data-name="Grupo 965267">
                      <g id="Grupo_965266" data-name="Grupo 965266">
                        <g id="Grupo_965265" data-name="Grupo 965265">
                          <g id="Grupo_965264" data-name="Grupo 965264">
                            <path id="Trazado_729737" data-name="Trazado 729737" d="M358.393,249.922v-8.069h-10.04v8.069c0,2.772,5.02,3.019,5.02,3.019S358.393,252.694,358.393,249.922Z" transform="translate(-348.353 -241.853)" fill="#ffddce"/>
                          </g>
                        </g>
                      </g>
                    </g>
                  </g>
                </g>
              </g>
              <path id="Trazado_729738" data-name="Trazado 729738" d="M334.512,144.638h-1.919a1.933,1.933,0,0,1-1.933-1.933v-1.058a2.04,2.04,0,0,0-2.68-1.937,15.11,15.11,0,0,1-9.481,0h0a2.04,2.04,0,0,0-2.68,1.937v1.058a1.933,1.933,0,0,1-1.933,1.933h-1.919v3.16a1.462,1.462,0,0,0,1.462,1.462.481.481,0,0,1,.478.454,9.353,9.353,0,0,0,18.668,0,.481.481,0,0,1,.478-.454,1.462,1.462,0,0,0,1.462-1.462Z" transform="translate(-311.964 -132.081)" fill="#ffddce"/>
              <g id="Grupo_965271" data-name="Grupo 965271" transform="translate(11.675)">
                <path id="Trazado_729739" data-name="Trazado 729739" d="M387.986,99.539h-.093a.938.938,0,0,1-.938-.938,2.777,2.777,0,0,0-2.777-2.777H379.89v13.488h10.874v-7A2.778,2.778,0,0,0,387.986,99.539Z" transform="translate(-379.89 -95.824)" fill="#eabc6b"/>
              </g>
              <g id="Grupo_965272" data-name="Grupo 965272" transform="translate(8.302 7.526)">
                <path id="Trazado_729740" data-name="Trazado 729740" d="M372.593,144.641a1.933,1.933,0,0,1-1.933-1.932v-1.058a2.04,2.04,0,0,0-2.68-1.937,15.1,15.1,0,0,1-4.342.755v10.342a9.143,9.143,0,0,1-3.373,7.179,9.354,9.354,0,0,0,12.306-8.273.481.481,0,0,1,.478-.454,1.462,1.462,0,0,0,1.462-1.462v-3.16Z" transform="translate(-360.266 -139.61)" fill="#ffcbbe"/>
              </g>
            </g>
            <g id="Grupo_965274" data-name="Grupo 965274" transform="translate(12.653 29.952)">
              <path id="Trazado_729741" data-name="Trazado 729741" d="M326.441,270.246l-1.43.642a1.278,1.278,0,0,0-.381,2.069l3.959,3.965a1.368,1.368,0,0,0,1.831.07l3.1-2.593-5.293-3.955A1.777,1.777,0,0,0,326.441,270.246Z" transform="translate(-324.256 -270.091)" fill="#365e7d"/>
              <path id="Trazado_729742" data-name="Trazado 729742" d="M383.259,270.5l-5.076,3.93,2.918,2.495a1.367,1.367,0,0,0,1.836-.053l3.961-3.858a1.278,1.278,0,0,0-.372-2.083l-1.457-.649A1.776,1.776,0,0,0,383.259,270.5Z" transform="translate(-368.914 -270.121)" fill="#365e7d"/>
            </g>
          </g>
          <path id="Trazado_729743" data-name="Trazado 729743" d="M187.21,416.513H125.667V398.349h65.112v14.6A3.568,3.568,0,0,1,187.21,416.513Z" transform="translate(-105.357 -331.174)" fill="#ddb7a0"/>
          <path id="Trazado_729744" data-name="Trazado 729744" d="M432.092,398.349v16.284a1.88,1.88,0,0,1-1.88,1.881h9.2a3.568,3.568,0,0,0,3.568-3.568v-14.6Z" transform="translate(-357.559 -331.174)" fill="#d6a889"/>
          <g id="Grupo_965290" data-name="Grupo 965290" transform="translate(6.672 27.818)">
            <g id="Grupo_965289" data-name="Grupo 965289" transform="translate(9.66 26.683)">
              <g id="Grupo_965288" data-name="Grupo 965288" transform="translate(0)">
                <g id="Grupo_965287" data-name="Grupo 965287">
                  <g id="Grupo_965286" data-name="Grupo 965286">
                    <g id="Grupo_965285" data-name="Grupo 965285">
                      <g id="Grupo_965284" data-name="Grupo 965284">
                        <g id="Grupo_965283" data-name="Grupo 965283">
                          <g id="Grupo_965282" data-name="Grupo 965282">
                            <g id="Grupo_965281" data-name="Grupo 965281">
                              <g id="Grupo_965280" data-name="Grupo 965280">
                                <g id="Grupo_965279" data-name="Grupo 965279">
                                  <g id="Grupo_965278" data-name="Grupo 965278">
                                    <g id="Grupo_965277" data-name="Grupo 965277">
                                      <g id="Grupo_965276" data-name="Grupo 965276">
                                        <path id="Trazado_729745" data-name="Trazado 729745" d="M112.29,332.45V324.6h-9.764v7.847c0,2.7,4.882,2.936,4.882,2.936S112.29,335.146,112.29,332.45Z" transform="translate(-102.526 -324.603)" fill="#ffddce"/>
                                      </g>
                                    </g>
                                  </g>
                                </g>
                              </g>
                            </g>
                          </g>
                        </g>
                      </g>
                    </g>
                  </g>
                </g>
              </g>
            </g>
            <path id="Trazado_729746" data-name="Trazado 729746" d="M74.822,188.92a22.891,22.891,0,0,1-.964-6.566v-.005a12.994,12.994,0,0,0-25.987,0v.005a22.89,22.89,0,0,1-.964,6.566,13.918,13.918,0,0,0-.586,3.993,5.742,5.742,0,0,0,3.859,5.426,32.579,32.579,0,0,0,21.37,0,5.742,5.742,0,0,0,3.859-5.426,13.924,13.924,0,0,0-.586-3.993Z" transform="translate(-46.321 -169.359)" fill="#407093"/>
            <path id="Trazado_729747" data-name="Trazado 729747" d="M118.7,188.92a22.892,22.892,0,0,1-.964-6.566v-.005a12.993,12.993,0,0,0-18.43-11.8,12.993,12.993,0,0,1,7.557,11.8v.005a22.89,22.89,0,0,0,.964,6.566,13.917,13.917,0,0,1,.586,3.993,5.742,5.742,0,0,1-3.859,5.426,32.565,32.565,0,0,1-5.248,1.345,32.58,32.58,0,0,0,16.122-1.345,5.742,5.742,0,0,0,3.859-5.426,13.918,13.918,0,0,0-.586-3.993Z" transform="translate(-90.2 -169.359)" fill="#365e7d"/>
          </g>
          <path id="Trazado_729748" data-name="Trazado 729748" d="M45.629,7.511H78.886a3.782,3.782,0,0,1,3.782,3.782V25.561a3.782,3.782,0,0,1-3,3.7.545.545,0,0,0-.426.536v4.9a.667.667,0,0,1-1.139.472L72.444,29.5a.551.551,0,0,0-.39-.161H45.629a3.782,3.782,0,0,1-3.782-3.782V11.293a3.782,3.782,0,0,1,3.782-3.782Z" transform="translate(-35.944 -7.511)" fill="#cbe2ff"/>
          <path id="Trazado_729749" data-name="Trazado 729749" d="M204.521,7.511H193.557a3.782,3.782,0,0,1,3.782,3.782V25.561a3.782,3.782,0,0,1-3,3.7.522.522,0,0,0-.188.082h3.536a.551.551,0,0,1,.39.161l5.661,5.661a.667.667,0,0,0,1.139-.472V29.8a.545.545,0,0,1,.426-.536,3.782,3.782,0,0,0,3-3.7V11.293a3.781,3.781,0,0,0-3.781-3.782Z" transform="translate(-161.579 -7.511)" fill="#bed8fb"/>
          <path id="Trazado_729750" data-name="Trazado 729750" d="M44.558,360.941,33.6,358.854a5.255,5.255,0,0,1-9.752,0l-.012-.029-10.958,2.119A7.482,7.482,0,0,0,7.5,368.12v12.17a3.568,3.568,0,0,0,3.576,3.568l37.237-.075a1.623,1.623,0,0,0,1.62-1.623V368.12A7.482,7.482,0,0,0,44.558,360.941Z" transform="translate(-7.5 -298.441)" fill="#e28086"/>
          <path id="Trazado_729751" data-name="Trazado 729751" d="M150.7,383.946a1.623,1.623,0,0,0,1.61-1.623v-14.05a7.482,7.482,0,0,0-5.374-7.179l-10.962-2.087a5.174,5.174,0,0,1-4.847,3.293,3.672,3.672,0,0,0,2.954,3.143l1.982.377c3.507.753,5.374,2.356,5.374,5.677v12.522Z" transform="translate(-109.882 -298.594)" fill="#dd636e"/>
          <g id="Grupo_965291" data-name="Grupo 965291" transform="translate(59.929 49.439)">
            <path id="Trazado_729752" data-name="Trazado 729752" d="M362.879,297.654l-2.918-2.495-3.1,2.593a1.364,1.364,0,0,1-.677.3l1.853,3.183h3.636l1.833-3.284A1.357,1.357,0,0,1,362.879,297.654Z" transform="translate(-356.179 -295.159)" fill="#e28086"/>
          </g>
        </g>
        <g id="Grupo_965293" data-name="Grupo 965293" transform="translate(0 0.01)">
          <path id="Trazado_729753" data-name="Trazado 729753" d="M39.419,24.42h26.12l5.444,5.444a1.956,1.956,0,0,0,3.34-1.383V24.145a5.1,5.1,0,0,0,3.423-4.8V5.081A5.076,5.076,0,0,0,72.676.01H39.419a5.076,5.076,0,0,0-5.071,5.071V6.123a1.289,1.289,0,0,0,2.578,0V5.081a2.5,2.5,0,0,1,2.493-2.493H72.676a2.5,2.5,0,0,1,2.493,2.493V19.349a2.5,2.5,0,0,1-1.974,2.438,1.841,1.841,0,0,0-1.449,1.8V26.98l-4.6-4.6a1.827,1.827,0,0,0-1.3-.54H39.419a2.5,2.5,0,0,1-2.493-2.493V12.16a1.289,1.289,0,0,0-2.578,0v7.19a5.076,5.076,0,0,0,5.071,5.071Z" transform="translate(-28.444 -0.01)"/>
          <path id="Trazado_729754" data-name="Trazado 729754" d="M86.711,132.6A1.289,1.289,0,0,0,88,131.314v-.992a9.032,9.032,0,0,0-6.452-8.618l-6.989-2.052a2.566,2.566,0,0,0-.69-.452l-1.457-.649a3.065,3.065,0,0,0-1.209-.266v-3.067a10.633,10.633,0,0,0,4.25-7.236,2.756,2.756,0,0,0,2-2.648V96.107a4.071,4.071,0,0,0-3.823-4.059,4.072,4.072,0,0,0-4.052-3.722H60.01a7.689,7.689,0,0,0-7.681,7.681v9.325a2.756,2.756,0,0,0,2,2.648,10.636,10.636,0,0,0,4.25,7.236v3.062a3.062,3.062,0,0,0-1.2.268l-1.429.642a2.564,2.564,0,0,0-.685.451L48.242,121.7a9.031,9.031,0,0,0-6.453,8.619v7A8.761,8.761,0,0,0,38.71,135.7c-.113-.033.547.1-10.036-1.917v-.028a33.622,33.622,0,0,0,4.939-1.3c3.579-1.242,5.908-4.924,4.085-11.008a21.6,21.6,0,0,1-.91-6.2,14.3,14.3,0,0,0-14.283-14.278h0A14.3,14.3,0,0,0,8.222,115.248a21.588,21.588,0,0,1-.91,6.2c-1.8,6.022.452,9.746,4.084,11.008a33.617,33.617,0,0,0,4.935,1.3C5.794,135.794,6.411,135.668,6.3,135.7A8.818,8.818,0,0,0,0,144.115v12.17a4.855,4.855,0,0,0,4.858,4.858h.01l78.275-.079A4.863,4.863,0,0,0,88,156.207V137.34a1.289,1.289,0,0,0-2.578,0v2.982H70.354l-2.281-10.169,1.234-2.211a2.672,2.672,0,0,0,1.346-.7l3.961-3.858a2.567,2.567,0,0,0,.581-.858l5.625,1.652a6.439,6.439,0,0,1,4.6,6.145v.992A1.289,1.289,0,0,0,86.711,132.6Zm-31.8-36.6a5.108,5.108,0,0,1,5.1-5.1h9.57a1.49,1.49,0,0,1,1.488,1.488A2.229,2.229,0,0,0,73.3,94.619h.094a1.49,1.49,0,0,1,1.488,1.488v4.776h-.63a.644.644,0,0,1-.643-.643V99.182a3.333,3.333,0,0,0-4.374-3.161,13.917,13.917,0,0,1-8.676,0,3.327,3.327,0,0,0-4.373,3.161v1.058a.644.644,0,0,1-.643.643h-.63V96.007Zm1.938,11.16a1.774,1.774,0,0,0-1.765-1.661.173.173,0,0,1-.173-.173v-1.871h.63a3.225,3.225,0,0,0,3.222-3.221V99.181a.75.75,0,0,1,.99-.712,16.506,16.506,0,0,0,10.29,0,.75.75,0,0,1,.986.713v1.058a3.225,3.225,0,0,0,3.221,3.221h.63v1.871a.173.173,0,0,1-.173.173,1.774,1.774,0,0,0-1.765,1.662,8.064,8.064,0,0,1-16.094,0Zm9.105,21.5H63.812l-.83-1.426,2.008-1.677,1.822,1.558Zm1.761,11.656H62.067l2.036-9.078h1.572Zm-2.725-18.066L61.162,119.4v-2.78a10.624,10.624,0,0,0,7.461,0v2.821ZM58.444,120.9a.487.487,0,0,1,.491.054l3.986,2.979-1.853,1.548a.08.08,0,0,1-.031.016l-.016,0a.078.078,0,0,1-.055-.02l-3.938-3.944Zm-46.2,9.118c-3.259-1.131-3.447-4.541-2.46-7.832a24.175,24.175,0,0,0,1.018-6.941,11.7,11.7,0,0,1,23.41.005,24.164,24.164,0,0,0,1.018,6.936c.987,3.292.8,6.7-2.46,7.832a31.421,31.421,0,0,1-20.525,0ZM26.1,134.128v.456a3.967,3.967,0,0,1-7.185-.028v-.428A34.161,34.161,0,0,0,26.1,134.128Zm16.336,24.028a.332.332,0,0,1-.32.332H42.1l-.029,0-37.205.075h0a2.279,2.279,0,0,1-2.28-2.279v-12.17a6.227,6.227,0,0,1,4.393-5.925l9.93-1.921a6.553,6.553,0,0,0,11.2.028l9.94,1.893a6.2,6.2,0,0,1,4.391,5.925Zm1.935-27.834a6.439,6.439,0,0,1,4.6-6.145l5.67-1.664a2.563,2.563,0,0,0,.555.831l3.959,3.965.013.013a2.653,2.653,0,0,0,1.285.694l1.252,2.15-2.278,10.156H44.368ZM85.422,142.9v13.307a2.282,2.282,0,0,1-2.279,2.279H44.992a2.957,2.957,0,0,0,.018-.331v-14.04a8.756,8.756,0,0,0-.085-1.215ZM68.861,125.388a.078.078,0,0,1-.054.022l-.03-.006a.08.08,0,0,1-.021-.013l-1.714-1.466,3.824-2.961a.486.486,0,0,1,.5-.06l1.443.643Z" transform="translate(0 -73.147)"/>
        </g>
      </g>
    </g>
  </g>
</svg>
