<svg xmlns="http://www.w3.org/2000/svg" width="125" height="125" viewBox="0 0 125 125">
  <g id="Grupo_965523" data-name="Grupo 965523" transform="translate(-265 -12874)">
    <path id="Trazado_730136" data-name="Trazado 730136" d="M62.5,0A62.5,62.5,0,1,1,0,62.5,62.5,62.5,0,0,1,62.5,0Z" transform="translate(265 12874)" fill="#34bc85"/>
    <g id="supervision" transform="translate(292 12879.363)">
      <g id="Grupo_965338" data-name="Grupo 965338" transform="translate(43.376 64.313)">
        <path id="Trazado_729851" data-name="Trazado 729851" d="M329.46,324.479l-3.31,3.31a2.109,2.109,0,0,1-2.983,0l-14.718-14.718,6.293-6.293L329.46,321.5a2.109,2.109,0,0,1,0,2.983Z" transform="translate(-308.449 -306.778)" fill="#9d6b6b"/>
      </g>
      <g id="Grupo_965339" data-name="Grupo 965339" transform="translate(47.053 64.313)">
        <path id="Trazado_729852" data-name="Trazado 729852" d="M351.929,321.5l-14.718-14.717-2.616,2.616,12.236,12.236a1.92,1.92,0,0,1,0,2.715l-2.319,2.319,1.124,1.124a2.11,2.11,0,0,0,2.984,0l3.309-3.309A2.11,2.11,0,0,0,351.929,321.5Z" transform="translate(-334.596 -306.778)" fill="#785252"/>
      </g>
      <g id="Grupo_965340" data-name="Grupo 965340" transform="translate(15.889 36.826)">
        <circle id="Elipse_5877" data-name="Elipse 5877" cx="20.443" cy="20.443" r="20.443" fill="#b3d8fb"/>
      </g>
      <g id="Grupo_965341" data-name="Grupo 965341" transform="translate(18.385 39.322)">
        <path id="Trazado_729853" data-name="Trazado 729853" d="M163.142,132.558a20.448,20.448,0,0,0-4.658-3.491,20.449,20.449,0,0,1-27.745,27.745,20.445,20.445,0,1,0,32.4-24.253Z" transform="translate(-130.739 -129.067)" fill="#89c6fc"/>
      </g>
      <g id="Grupo_965342" data-name="Grupo 965342" transform="translate(22.373 49.432)">
        <path id="Trazado_729854" data-name="Trazado 729854" d="M186.339,207.244a2.281,2.281,0,0,1,0,3.306c-2.45,2.326-7.471,6.284-13.267,6.284s-10.817-3.958-13.267-6.284a2.281,2.281,0,0,1,0-3.306c2.45-2.326,7.471-6.284,13.267-6.284S183.888,204.918,186.339,207.244Z" transform="translate(-159.095 -200.96)" fill="#fceed9"/>
      </g>
      <g id="Grupo_965343" data-name="Grupo 965343" transform="translate(22.43 53.247)">
        <path id="Trazado_729855" data-name="Trazado 729855" d="M186.688,230.558a29.272,29.272,0,0,0-2.97-2.469,2.276,2.276,0,0,1-.652,2.154c-2.45,2.326-7.471,6.284-13.267,6.284-4,0-7.627-1.883-10.3-3.815a2.264,2.264,0,0,0,.652,1.153c2.45,2.326,7.471,6.284,13.267,6.284s10.817-3.958,13.267-6.284A2.281,2.281,0,0,0,186.688,230.558Z" transform="translate(-159.502 -228.089)" fill="#fad59a"/>
      </g>
      <g id="Grupo_965344" data-name="Grupo 965344" transform="translate(32.227 53.247)">
        <circle id="Elipse_5878" data-name="Elipse 5878" cx="4.122" cy="4.122" r="4.122" fill="#7c8b96"/>
      </g>
      <g id="Grupo_965345" data-name="Grupo 965345" transform="translate(32.455 53.476)">
        <path id="Trazado_729856" data-name="Trazado 729856" d="M236.041,229.714a4.122,4.122,0,0,1-5.247,5.247,4.122,4.122,0,1,0,5.247-5.247Z" transform="translate(-230.794 -229.714)" fill="#465961"/>
      </g>
      <g id="Grupo_965346" data-name="Grupo 965346" transform="translate(0 24.637)">
        <path id="Trazado_729857" data-name="Trazado 729857" d="M152.315,142.921a1.055,1.055,0,0,0-1.492,1.492l3.466,3.466a1.091,1.091,0,0,1,0,1.492l-3.309,3.309a1.056,1.056,0,0,1-1.492,0l-9.9-9.9a21.416,21.416,0,0,0,4.8-4.8l3.061,3.061a1.055,1.055,0,1,0,1.492-1.492l-3.377-3.377a21.5,21.5,0,1,0-34.246,3.929,1.055,1.055,0,1,0,1.536-1.447,19.388,19.388,0,1,1,27.831.424,19.511,19.511,0,0,1-24.079,2.678,1.055,1.055,0,0,0-1.13,1.782,21.493,21.493,0,0,0,22.3.416L148,154.172a3.169,3.169,0,0,0,4.476,0l3.309-3.309a3.169,3.169,0,0,0,0-4.476Z" transform="translate(-90.649 -92.74)"/>
        <path id="Trazado_729858" data-name="Trazado 729858" d="M173.688,196.313a1.055,1.055,0,0,0-.541-1.391,16.207,16.207,0,0,0-6.524-1.464c-6.15,0-11.407,4.119-13.993,6.574a3.336,3.336,0,0,0,0,4.837c2.586,2.455,7.843,6.574,13.993,6.574s11.407-4.119,13.994-6.574a3.336,3.336,0,0,0,0-4.837,30.27,30.27,0,0,0-2.908-2.435,1.055,1.055,0,1,0-1.249,1.7,28.163,28.163,0,0,1,2.7,2.265,1.225,1.225,0,0,1,0,1.776c-2.358,2.239-7.123,5.994-12.541,5.994s-10.183-3.756-12.541-5.994a1.225,1.225,0,0,1,0-1.776c2.358-2.239,7.123-5.994,12.541-5.994a14.116,14.116,0,0,1,5.674,1.286,1.055,1.055,0,0,0,1.391-.541Z" transform="translate(-130.274 -169.718)"/>
        <path id="Trazado_729859" data-name="Trazado 729859" d="M221.667,225.763a5.177,5.177,0,1,0,5.177-5.177,5.183,5.183,0,0,0-5.177,5.177Zm8.245,0a3.067,3.067,0,1,1-3.067-3.067A3.071,3.071,0,0,1,229.912,225.763Z" transform="translate(-190.495 -193.031)"/>
        <path id="Trazado_729860" data-name="Trazado 729860" d="M381.788,48.719a1.052,1.052,0,0,0,.746-.309l4.6-4.6,1.988,1.988a1.576,1.576,0,0,0,2.225,0l5.583-5.583v1.416a1.055,1.055,0,0,0,2.11,0V37.719a1.055,1.055,0,0,0-1.055-1.055h-3.909a1.055,1.055,0,1,0,0,2.11h1.307l-5.148,5.149-1.988-1.988a1.575,1.575,0,0,0-2.225,0l-4.983,4.983a1.055,1.055,0,0,0,.746,1.8Z" transform="translate(-327.192 -34.973)"/>
        <path id="Trazado_729861" data-name="Trazado 729861" d="M6.373,35.5A5.433,5.433,0,1,0,.94,30.07,5.439,5.439,0,0,0,6.373,35.5Zm0-8.756A3.323,3.323,0,1,1,3.05,30.07a3.327,3.327,0,0,1,3.323-3.323Z" transform="translate(-0.808 -24.637)"/>
        <path id="Trazado_729862" data-name="Trazado 729862" d="M7.52,127.624a5.433,5.433,0,1,0,5.433,5.433,5.439,5.439,0,0,0-5.433-5.433Zm0,8.756a3.323,3.323,0,1,1,3.323-3.323A3.327,3.327,0,0,1,7.52,136.38Z" transform="translate(-1.794 -113.141)"/>
        <path id="Trazado_729863" data-name="Trazado 729863" d="M7.52,229.406a5.433,5.433,0,1,0,5.433,5.433,5.439,5.439,0,0,0-5.433-5.433Zm0,8.756a3.323,3.323,0,1,1,3.323-3.323A3.327,3.327,0,0,1,7.52,238.162Z" transform="translate(-1.794 -200.61)"/>
        <path id="Trazado_729864" data-name="Trazado 729864" d="M102.242,38.721h9.337a1.055,1.055,0,1,0,0-2.11h-9.337a1.055,1.055,0,0,0,0,2.11Z" transform="translate(-86.958 -34.927)"/>
        <path id="Trazado_729865" data-name="Trazado 729865" d="M102.242,70.692h4.668a1.055,1.055,0,0,0,0-2.11h-4.668a1.055,1.055,0,1,0,0,2.11Z" transform="translate(-86.958 -62.402)"/>
        <path id="Trazado_729866" data-name="Trazado 729866" d="M466.567,142.775h-5.152a1.055,1.055,0,0,0,0,2.11h5.152a1.055,1.055,0,0,0,0-2.11Z" transform="translate(-395.622 -126.162)"/>
        <circle id="Elipse_5879" data-name="Elipse 5879" cx="1.172" cy="1.172" r="1.172" transform="translate(60.709 16.524)"/>
        <path id="Trazado_729867" data-name="Trazado 729867" d="M466.567,173.356h-5.152a1.055,1.055,0,0,0,0,2.11h5.152a1.055,1.055,0,0,0,0-2.11Z" transform="translate(-395.622 -152.442)"/>
        <circle id="Elipse_5880" data-name="Elipse 5880" cx="1.172" cy="1.172" r="1.172" transform="translate(60.709 20.824)"/>
        <path id="Trazado_729868" data-name="Trazado 729868" d="M268.256,440.751H263.1a1.055,1.055,0,0,0,0,2.11h5.152a1.055,1.055,0,0,0,0-2.11Z" transform="translate(-225.198 -382.235)"/>
        <path id="Trazado_729869" data-name="Trazado 729869" d="M234.569,440.115a1.172,1.172,0,1,0,1.172,1.172A1.172,1.172,0,0,0,234.569,440.115Z" transform="translate(-200.576 -381.688)"/>
        <path id="Trazado_729870" data-name="Trazado 729870" d="M268.256,471.333H263.1a1.055,1.055,0,1,0,0,2.11h5.152a1.055,1.055,0,0,0,0-2.11Z" transform="translate(-225.198 -408.516)"/>
        <circle id="Elipse_5881" data-name="Elipse 5881" cx="1.172" cy="1.172" r="1.172" transform="translate(32.821 62.727)"/>
        <path id="Trazado_729871" data-name="Trazado 729871" d="M466.567,204h-5.152a1.055,1.055,0,0,0,0,2.11h5.152a1.055,1.055,0,0,0,0-2.11Z" transform="translate(-395.622 -178.778)"/>
        <path id="Trazado_729872" data-name="Trazado 729872" d="M466.567,234.583h-5.152a1.055,1.055,0,0,0,0,2.11h5.152a1.055,1.055,0,0,0,0-2.11Z" transform="translate(-395.622 -205.059)"/>
        <circle id="Elipse_5882" data-name="Elipse 5882" cx="1.172" cy="1.172" r="1.172" transform="translate(60.709 29.434)"/>
        <path id="Trazado_729873" data-name="Trazado 729873" d="M466.567,265.165h-5.152a1.055,1.055,0,0,0,0,2.11h5.152a1.055,1.055,0,0,0,0-2.11Z" transform="translate(-395.622 -231.341)"/>
        <path id="Trazado_729874" data-name="Trazado 729874" d="M466.567,295.746h-5.152a1.055,1.055,0,0,0,0,2.11h5.152a1.055,1.055,0,0,0,0-2.11Z" transform="translate(-395.622 -257.621)"/>
        <path id="Trazado_729875" data-name="Trazado 729875" d="M432.88,295.11a1.172,1.172,0,1,0,1.172,1.172A1.172,1.172,0,0,0,432.88,295.11Z" transform="translate(-370.999 -257.075)"/>
        <path id="Trazado_729876" data-name="Trazado 729876" d="M28.472,401.56H24.525v-6.032a1.62,1.62,0,0,0-1.618-1.618H19.08a1.62,1.62,0,0,0-1.618,1.618v6.032h-1.5v-9.809a1.62,1.62,0,0,0-1.618-1.618H10.514A1.62,1.62,0,0,0,8.9,391.752v9.809H7.6v-3.334a1.62,1.62,0,0,0-1.618-1.618H2.153a1.62,1.62,0,0,0-1.618,1.618V401.7a1.055,1.055,0,0,0,.519,1.973H28.472a1.055,1.055,0,1,0,0-2.11Zm-8.9-5.54h2.842v5.54H19.573Zm-8.566-3.777h2.842v9.316H11.007Zm-8.361,6.474H5.487v2.842H2.646Z" transform="translate(0 -338.736)"/>
      </g>
    </g>
  </g>
</svg>
