<svg xmlns="http://www.w3.org/2000/svg" width="125" height="125" viewBox="0 0 125 125">
  <g id="Grupo_965524" data-name="Grupo 965524" transform="translate(-580 -12874)">
    <circle id="Elipse_5838" data-name="Elipse 5838" cx="62.5" cy="62.5" r="62.5" transform="translate(580 12874)" fill="#34bc85"/>
    <g id="observacion" transform="translate(604 12897)">
      <path id="Trazado_729826" data-name="Trazado 729826" d="M2,18H74.839V61.226H2Z" transform="translate(0.081 12.371)" fill="#f4a93c"/>
      <path id="Trazado_729827" data-name="Trazado 729827" d="M26.17,16H6V52.742H23.661A14.759,14.759,0,0,1,34.1,57.064V38.146A20.565,20.565,0,0,1,26.17,16Z" transform="translate(0.403 12.21)" fill="#f2f2f2"/>
      <path id="Trazado_729828" data-name="Trazado 729828" d="M33.935,54.323H8V50H23.5a14.759,14.759,0,0,1,10.436,4.322Z" transform="translate(0.565 14.952)" fill="#ccc"/>
      <path id="Trazado_729829" data-name="Trazado 729829" d="M27.129,30.1v2.708H12V22H25a20.413,20.413,0,0,0,2.133,8.1Z" transform="translate(2.72 6.136)" fill="#5e87ca"/>
      <g id="Grupo_965337" data-name="Grupo 965337" transform="translate(13.509 44.934)">
        <path id="Trazado_729830" data-name="Trazado 729830" d="M11,35H27.208v2.161H11Z" transform="translate(-11 -35)" fill="#d8d8d8"/>
        <path id="Trazado_729831" data-name="Trazado 729831" d="M11,39h9.724v2.161H11Z" transform="translate(-11 -34.677)" fill="#d8d8d8"/>
        <path id="Trazado_729832" data-name="Trazado 729832" d="M11,43h5.4v2.161H11Z" transform="translate(-11 -34.355)" fill="#d8d8d8"/>
      </g>
      <path id="Trazado_729833" data-name="Trazado 729833" d="M33.887,35.316l-7.565,7.565L22,38.558l7.479-7.479Z" transform="translate(4.988 8.903)" fill="#9da1bf"/>
      <path id="Trazado_729834" data-name="Trazado 729834" d="M22.532,37l6.484,6.484L9.827,62.673a4.585,4.585,0,1,1-6.484-6.484Z" transform="translate(0.081 13.903)" fill="#858bb5"/>
      <path id="Trazado_729835" data-name="Trazado 729835" d="M6.621,59.242a1.621,1.621,0,1,1,1.621-1.621,1.621,1.621,0,0,1-1.621,1.621Z" transform="translate(0.323 15.436)" fill="#4c506e"/>
      <path id="Trazado_729836" data-name="Trazado 729836" d="M32,54.323H57.935V50h-15.5A14.759,14.759,0,0,0,32,54.322Z" transform="translate(10.5 14.952)" fill="#b5b5b5"/>
      <path id="Trazado_729837" data-name="Trazado 729837" d="M52.484,50V62.968l-3.242-3.242L46,62.968V50" transform="translate(10.058 14.952)" fill="#559b2d"/>
      <path id="Trazado_729838" data-name="Trazado 729838" d="M46,50V62.968l3.242-3.242V50Z" transform="translate(9.731 14.952)" fill="#6bc13b"/>
      <circle id="Elipse_5876" data-name="Elipse 5876" cx="20.5" cy="20.5" r="20.5" transform="translate(34 2)" fill="#858bb5"/>
      <path id="Trazado_729839" data-name="Trazado 729839" d="M59.444,16.806H38.754A6.484,6.484,0,0,0,32.27,23.29a6.484,6.484,0,0,0-3.618-5.818,16.215,16.215,0,0,1,30.792-.666Z" transform="translate(10.23 0.403)" fill="#e2e7f6"/>
      <path id="Trazado_729840" data-name="Trazado 729840" d="M32,55.721A14.759,14.759,0,0,1,42.436,51.4H60.1V32.659A20.538,20.538,0,0,1,32,36.8Z" transform="translate(10.5 13.553)" fill="#d8d8d8"/>
      <path id="Trazado_729841" data-name="Trazado 729841" d="M32.323,32.376A16.236,16.236,0,0,1,28.7,16.618a6.484,6.484,0,0,1,3.619,5.816Z" transform="translate(5.902 4.883)" fill="#f2f2f2"/>
      <path id="Trazado_729842" data-name="Trazado 729842" d="M32,32.426V22.484A6.484,6.484,0,0,1,38.484,16h20.69A16.21,16.21,0,0,1,32,32.426Z" transform="translate(10.5 5.139)" fill="#d8d8d8"/>
      <path id="Trazado_729843" data-name="Trazado 729843" d="M37,43H54.289v2.161H37Z" transform="translate(9.164 11.087)" fill="#939393"/>
      <path id="Trazado_729844" data-name="Trazado 729844" d="M38,23H53.129v9.726H38Z" transform="translate(9.151 6.34)" fill="#5e87ca"/>
      <path id="Trazado_729845" data-name="Trazado 729845" d="M38,23v9.726h7.081A15.446,15.446,0,0,0,52.245,23Z" transform="translate(9.047 6.34)" fill="#78a0d4"/>
      <path id="Trazado_729846" data-name="Trazado 729846" d="M23.689,22H12V32.806h4.262A18.38,18.38,0,0,0,23.689,22Z" transform="translate(2.606 6.136)" fill="#78a0d4"/>
      <path id="Trazado_729847" data-name="Trazado 729847" d="M51.806,1A24.359,24.359,0,0,0,28.728,18.613H7.048a1.235,1.235,0,0,0-1.21,1.258v1.258H2.21A1.235,1.235,0,0,0,1,22.387V72.71h.03a6.564,6.564,0,0,0,4.03,5.844,6.149,6.149,0,0,0,6.765-1.486l2.982-3.1H54.226v3.774a1.259,1.259,0,0,0,.747,1.162,1.176,1.176,0,0,0,1.318-.272l2.774-2.885,2.774,2.885a1.176,1.176,0,0,0,1.318.273,1.26,1.26,0,0,0,.747-1.162V73.968H74.79A1.235,1.235,0,0,0,76,72.71V26.161C75.985,12.272,65.162,1.016,51.806,1ZM63.9,63.9h2.419V66.42H63.9ZM50.182,61.387A17.146,17.146,0,0,0,39.71,64.946V47.918A23.379,23.379,0,0,0,68.742,44.1V61.387ZM33.307,52.949l-.354-.369,4.338-4.511V64.946A17.14,17.14,0,0,0,26.9,61.387l6.411-6.668a1.294,1.294,0,0,0,0-1.779ZM24.485,63.9h2.333a14.781,14.781,0,0,1,8.25,2.516h-13Zm29.741,0V66.42H41.932a14.781,14.781,0,0,1,8.25-2.516ZM31.242,50.8l-3.128-3.253,5.1-5.308a25.009,25.009,0,0,0,3.128,3.253Zm-1.21-13.746v1.686H15.516V28.677H27.734a25.709,25.709,0,0,0,2.3,8.379ZM8.258,21.129H28.1a26.2,26.2,0,0,0-.484,5.032H14.306a1.235,1.235,0,0,0-1.21,1.258V40a1.235,1.235,0,0,0,1.21,1.258H30.741l-2.419,2.516H13.1V46.29H23.483l-2.419,2.516H13.1v2.516h5.548l-2.419,2.516H13.1v2.516H13.8L8.966,61.387H8.258ZM5.839,23.645v39a1.246,1.246,0,0,0,.792,1.17l-3.212,3.34V23.645ZM10.114,75.29a3.817,3.817,0,0,1-5.548,0,4.2,4.2,0,0,1,0-5.77l20.626-21.45,5.548,5.769Zm7.113-3.838,2.419-2.516h34.58v2.516ZM59.92,73.078a1.177,1.177,0,0,0-1.71,0l-1.564,1.627V63.9h4.839v10.8Zm13.661-1.627H63.9V68.936h3.629a1.235,1.235,0,0,0,1.21-1.258V63.9h1.21a1.235,1.235,0,0,0,1.21-1.258V41.194a25.352,25.352,0,0,0,2.419-4.138ZM51.806,48.807c-12.026,0-21.774-10.139-21.774-22.645S39.781,3.516,51.806,3.516,73.581,13.655,73.581,26.161,63.826,48.792,51.806,48.807Z" transform="translate(0)"/>
      <path id="Trazado_729848" data-name="Trazado 729848" d="M44.29,5a17.29,17.29,0,1,0,17.29,17.29A17.29,17.29,0,0,0,44.29,5Zm0,2.161a15.129,15.129,0,0,1,13.649,8.645H38.887a7.565,7.565,0,0,0-6.477,3.661,7.525,7.525,0,0,0-2.3-2.39A15.141,15.141,0,0,1,44.29,7.161ZM29.462,19.295a5.366,5.366,0,0,1,1.861,4.076v6.672a15.011,15.011,0,0,1-1.861-10.748ZM52.935,33.1H39.968V25.532H52.935Zm2.161-.239V24.452a1.081,1.081,0,0,0-1.081-1.081H38.887a1.081,1.081,0,0,0-1.081,1.081v9.726a1.081,1.081,0,0,0,1.081,1.081H52.043a15.043,15.043,0,0,1-18.559-2.4V23.371a5.41,5.41,0,0,1,5.4-5.4H58.782A15.05,15.05,0,0,1,55.1,32.858Z" transform="translate(10.097 0.323)"/>
      <path id="Trazado_729849" data-name="Trazado 729849" d="M37,43H54.29v2.161H37Z" transform="translate(9.164 11.087)"/>
      <path id="Trazado_729850" data-name="Trazado 729850" d="M6.621,56a1.621,1.621,0,1,0,1.621,1.621A1.621,1.621,0,0,0,6.621,56Z" transform="translate(0.323 15.436)"/>
    </g>
  </g>
</svg>
